<?xml version="1.0" standalone="no"?>
<!DOCTYPE svg PUBLIC "-//W3C//DTD SVG 1.1//EN" "http://www.w3.org/Graphics/SVG/1.1/DTD/svg11.dtd" >
<svg xmlns="http://www.w3.org/2000/svg">
<metadata>Generated by IcoMoon</metadata>
<defs>
<font id="icomoon" horiz-adv-x="1024">
<font-face units-per-em="1024" ascent="960" descent="-64" />
<missing-glyph horiz-adv-x="1024" />
<glyph unicode="&#x20;" horiz-adv-x="512" d="" />
<glyph unicode="&#xe900;" glyph-name="light-fill-time" d="M512 960c-282.328 0-512-229.672-512-512 0-282.325 229.672-512 512-512 282.325 0 512 229.675 512 512 0 282.328-229.675 512-512 512zM755.5 183.172c-8.32-8.32-19.243-12.51-30.164-12.51s-21.852 4.191-30.165 12.51l-213.335 213.328c-8.023 7.977-12.5 18.82-12.5 30.164v277.336c0 23.594 19.109 42.664 42.664 42.664s42.664-19.070 42.664-42.664v-259.672l200.836-200.828c16.679-16.687 16.679-43.648 0-60.329z" />
<glyph unicode="&#xe901;" glyph-name="calendar2" horiz-adv-x="1109" d="M941.414 927.874v-127.84c0-57.783-46.874-104.346-104.649-104.346h-66.016c-57.778 0-105.276 46.564-105.276 104.346v128.299h-297.551v-128.299c0-57.783-47.495-104.346-105.265-104.346h-66.028c-57.772 0-104.646 46.564-104.646 104.346v127.84c-50.493-1.522-91.984-43.303-91.984-94.658v-749.205c0-52.318 42.407-95.292 94.728-95.292h843.939c52.25 0 94.729 43.059 94.729 95.292v749.205c0 51.355-41.489 93.136-91.981 94.658zM910.754 130.664c0-22.611-18.33-40.953-40.951-40.953h-708.009c-22.619 0-40.952 18.342-40.952 40.953v386.993c0 22.619 18.33 40.963 40.952 40.963h708.009c22.613 0 40.951-18.343 40.951-40.963v-386.993z" />
<glyph unicode="&#xe902;" glyph-name="light-dArrow" horiz-adv-x="2048" d="M141.261 932.022c33.246 33.913 85.27 36.996 121.931 9.249l10.503-9.249 750.362-765.441 750.365 765.441c33.246 33.913 85.265 36.996 121.924 9.249l10.496-9.249c33.246-33.912 36.284-86.98 9.079-124.375l-9.079-10.714-816.57-832.956c-33.246-33.911-85.27-36.995-121.929-9.248l-10.503 9.248-816.578 832.956c-36.57 37.304-36.57 97.785 0 135.089z" />
<glyph unicode="&#xe903;" glyph-name="camera" horiz-adv-x="1138" d="M878.364 775.885c2.276-3.978 6.258-6.819 11.378-6.819 136.533 0 248.036-111.379 248.036-247.76v-337.543c0-136.385-111.502-247.762-248.036-247.762h-641.707c-137.102 0-248.036 111.377-248.036 247.762v337.543c0 136.381 110.933 247.76 248.036 247.76 4.551 0 9.102 2.273 10.809 6.819l3.413 6.819c1.962 4.128 3.975 8.369 6.018 12.674 14.553 30.654 30.654 64.567 40.631 84.498 26.169 51.143 70.542 79.556 125.724 80.125h267.947c55.182-0.568 100.124-28.981 126.293-80.125 8.96-17.9 22.608-46.732 35.766-74.522 2.714-5.736 5.41-11.426 8.038-16.968l5.689-12.501zM836.836 557.674c0-28.413 22.756-51.143 51.2-51.143s51.769 22.73 51.769 51.143c0 28.413-23.324 51.711-51.769 51.711s-51.2-23.299-51.2-51.711zM470.471 469.594c-26.169-26.14-40.391-60.803-39.822-96.602v-0.569c0-36.938 14.222-71.6 40.391-97.741s60.871-40.346 97.849-40.346c76.231 0 137.671 61.941 138.24 138.086 0 36.936-14.222 71.599-40.391 97.739s-60.871 40.346-97.849 40.346c-36.978 0-71.68-14.206-98.418-40.914zM726.471 214.448c40.391 40.346 65.422 96.034 65.991 157.975 0 59.097-23.324 115.355-65.422 157.974-42.098 42.051-98.418 65.349-158.151 65.349s-116.053-23.298-158.72-65.918c-42.098-42.619-65.422-98.309-64.853-157.406 0-59.671 23.324-115.359 65.422-157.975 42.667-42.052 98.418-65.354 158.151-65.354 61.44 0 117.191 25.003 157.582 65.354z" />
<glyph unicode="&#xe904;" glyph-name="filter" horiz-adv-x="931" d="M194.095 168.704c9.616 27.252 27.45 50.856 51.042 67.547 23.592 16.696 51.781 25.661 80.682 25.661s57.090-8.965 80.682-25.661c23.592-16.691 41.425-40.294 51.042-67.547h473.367v-93.091h-473.367c-9.616-27.252-27.45-50.856-51.042-67.547-23.592-16.696-51.781-25.656-80.682-25.656s-57.090 8.96-80.682 25.656c-23.592 16.691-41.425 40.294-51.042 67.547h-194.095v93.091h194.095zM473.367 494.522c9.616 27.254 27.448 50.854 51.042 67.547s51.782 25.658 80.682 25.658c28.9 0 57.088-8.964 80.682-25.658s41.425-40.293 51.042-67.547h194.095v-93.091h-194.095c-9.616-27.252-27.448-50.856-51.042-67.547-23.594-16.696-51.782-25.656-80.682-25.656s-57.088 8.96-80.682 25.656c-23.594 16.691-41.425 40.294-51.042 67.547h-473.367v93.091h473.367zM194.095 820.34c9.616 27.254 27.45 50.854 51.042 67.547s51.781 25.658 80.682 25.658c28.901 0 57.090-8.964 80.682-25.658s41.425-40.293 51.042-67.547h473.367v-93.091h-473.367c-9.616-27.254-27.45-50.854-51.042-67.547s-51.781-25.658-80.682-25.658c-28.901 0-57.090 8.965-80.682 25.658s-41.425 40.293-51.042 67.547h-194.095v93.091h194.095z" />
<glyph unicode="&#xe905;" glyph-name="send" d="M1002.79 481.249l-950.835 438.845c-15.14 6.875-33.206 2.779-43.738-10.24-10.605-13.019-10.971-31.524-0.878-44.909l312.678-416.906-312.678-416.902c-10.093-13.388-9.728-31.962 0.805-44.909 7.095-8.851 17.7-13.606 28.452-13.606 5.193 0 10.386 1.1 15.287 3.366l950.833 438.846c13.023 5.997 21.286 18.944 21.286 33.204 0 14.265-8.268 27.212-21.21 33.209z" />
<glyph unicode="&#xe906;" glyph-name="minus" horiz-adv-x="6485" d="M6485.333 837v-778.239h-6485.333v778.239h6485.333z" />
<glyph unicode="&#xe907;" glyph-name="offer" d="M984.269 612.807l-50.128 66.839-27.873-195.116c-2.553-17.874-10.991-34.75-23.764-47.52l-343.229-343.232c-29.938-29.942-69.789-46.428-112.209-46.428-12.678 0-25.117 1.502-37.14 4.369 18.259-28.549 50.215-47.527 86.543-47.527h410.719c56.62 0 102.687 46.060 102.687 102.68v489.133c0 6.058-1.966 11.953-5.605 16.802zM611.854 494.828c15.466 0 28.004 12.538 28.004 28.004s-12.537 28.004-28.004 28.004c-15.466 0-28.004-12.538-28.004-28.004s12.538-28.004 28.004-28.004zM295.154 494.828c15.466 0 28.004 12.538 28.004 28.004s-12.537 28.004-28.004 28.004c-15.466 0-28.004-12.538-28.004-28.004s12.538-28.004 28.004-28.004zM499.838 133.257l343.256 343.261c4.287 4.285 7.066 9.843 7.926 15.842l39.608 277.249c1.242 8.727-1.686 17.532-7.926 23.764l-59.406 59.41-79.217-79.215 19.804-19.804c10.936-10.936 10.936-28.669 0-39.606-5.468-5.469-12.636-8.204-19.797-8.204-7.168 0-14.336 2.735-19.804 8.204l-79.215 79.215c-10.938 10.936-10.938 28.669 0 39.606 10.935 10.936 28.669 10.936 39.606 0l19.804-19.804 79.21 79.215-59.406 59.411c-6.233 6.234-15.040 9.158-23.767 7.922l-277.251-39.608c-5.999-0.857-11.557-3.637-15.842-7.922l-343.259-343.259c-40.040-40.038-40.040-105.188 0-145.226l290.449-290.45c20.019-20.023 46.317-30.024 72.613-30.024s52.594 10.001 72.613 30.024zM612.056 606.743c46.328 0 84.019-37.691 84.019-84.019s-37.691-84.019-84.019-84.019c-46.328 0-84.019 37.691-84.019 84.019s37.691 84.019 84.019 84.019zM295.201 438.705c-46.328 0-84.019 37.691-84.019 84.019s37.691 84.019 84.019 84.019c46.328 0 84.019-37.691 84.019-84.019s-37.689-84.019-84.019-84.019zM387.622 296.676c-2.935 0-5.923 0.465-8.86 1.443-14.673 4.892-22.603 20.751-17.713 35.426l132.022 396.070c4.892 14.673 20.752 22.603 35.426 17.713 14.673-4.892 22.602-20.751 17.712-35.426l-132.021-396.070c-3.914-11.733-14.842-19.156-26.567-19.156zM882.674 912.196c10.936 10.935 10.936 28.667 0 39.603s-28.665 10.935-39.601 0l-59.406-59.405 39.601-39.603 59.406 59.406z" />
<glyph unicode="&#xe908;" glyph-name="plus" d="M573.44 960h-122.88v-450.56h-450.56v-122.88h450.56v-450.56h122.88v450.56h450.56v122.88h-450.56v450.56z" />
<glyph unicode="&#xe909;" glyph-name="search" d="M751.466 299.034c50.39 68.812 80.531 153.335 80.531 244.965 0 229.375-186.626 416.002-415.999 416.002s-415.997-186.627-415.997-416.002c0-229.375 186.625-416.002 415.999-416.002 91.629 0 176.16 30.145 244.972 80.535l272.533-272.532 90.496 90.496c0 0.009-272.534 272.538-272.534 272.538zM415.999 255.998c-158.812 0-287.998 129.187-287.998 288s129.186 288.001 287.998 288.001c158.812 0 287.998-129.188 287.998-288.001s-129.188-288-287.998-288z" />
<glyph unicode="&#xe90a;" glyph-name="fillStar" horiz-adv-x="1097" d="M1043.463 596.646c-3.452 10.641-12.646 18.395-23.72 20.002l-310.964 45.188-139.072 281.783c-4.949 10.031-15.165 16.381-26.35 16.381-11.187 0-21.402-6.35-26.353-16.381l-139.077-281.783-310.96-45.188c-11.067-1.606-20.266-9.361-23.722-19.999-3.458-10.64-0.574-22.319 7.437-30.126l225.008-219.339-53.11-309.712c-1.892-11.030 2.641-22.17 11.69-28.745 5.119-3.716 11.184-5.61 17.276-5.61 4.678 0 9.373 1.112 13.671 3.379l278.138 146.227 278.128-146.227c9.904-5.208 21.899-4.337 30.947 2.231 9.048 6.576 13.583 17.723 11.696 28.745l-53.124 309.712 225.031 219.34c8.009 7.806 10.891 19.485 7.431 30.122z" />
<glyph unicode="&#xe90b;" glyph-name="star" d="M1022.552 596.646c-3.452 10.641-12.646 18.395-23.72 20.002l-310.963 45.188-139.072 281.783c-4.949 10.031-15.165 16.381-26.35 16.381-11.187 0-21.402-6.35-26.353-16.381l-139.077-281.783-310.96-45.188c-11.067-1.606-20.266-9.361-23.722-19.999-3.458-10.64-0.574-22.319 7.437-30.126l225.007-219.339-53.109-309.712c-1.893-11.030 2.64-22.17 11.69-28.745 5.12-3.716 11.184-5.61 17.276-5.61 4.678 0 9.373 1.112 13.671 3.379l278.138 146.227 278.127-146.227c9.904-5.208 21.899-4.337 30.947 2.231 9.048 6.576 13.59 17.723 11.696 28.745l-53.124 309.712 225.031 219.34c8.009 7.806 10.891 19.485 7.431 30.122z" />
<glyph unicode="&#xe90c;" glyph-name="close" d="M989.389 758.307l-310.267-310.302 310.267-310.282c46.148-46.168 46.148-120.959 0-167.127-23.060-23.060-53.292-34.597-83.51-34.597-30.267 0-60.504 11.522-83.544 34.597l-310.335 310.321-310.309-310.316c-23.056-23.060-53.291-34.597-83.535-34.597-30.235 0-60.449 11.518-83.526 34.597-46.151 46.148-46.151 120.934 0 167.122l310.257 310.287-310.275 310.297c-46.151 46.151-46.151 120.955 0 167.106 46.142 46.116 120.901 46.116 167.061 0l310.326-310.3 310.301 310.3c46.168 46.116 120.934 46.116 167.068 0 46.168-46.151 46.168-120.955 0.020-167.106z" />
<glyph unicode="&#xe90d;" glyph-name="right" horiz-adv-x="1210" d="M421.285-40.076l-421.285 421.288 187.251 187.244 234.034-234.034 601.654 601.652 187.243-187.251-788.897-788.899z" />
<glyph unicode="&#xe90e;" glyph-name="back-arrow" horiz-adv-x="640" d="M517.871-64l122.129 120.747-395.739 391.253 395.739 391.252-122.129 120.748-517.871-512 517.871-512z" />
<glyph unicode="&#xe90f;" glyph-name="fill-delete" horiz-adv-x="878" d="M747.286 831.988h-174.898v32.003c0 53.025-42.711 96.010-95.398 96.010h-127.198c-52.687 0-95.397-42.984-95.397-96.010v-32.003h-174.896c-43.905 0-79.498-35.822-79.498-80.008v-64.006c0-17.676 14.236-32.004 31.799-32.004h763.183c17.562 0 31.803 14.328 31.803 32.004v64.006c0 44.186-35.599 80.008-79.499 80.008zM317.993 863.99c0 17.642 14.27 32.003 31.799 32.003h127.198c17.529 0 31.799-14.361 31.799-32.003v-32.003h-190.795v32.003zM60.473 592.072c-5.674 0-10.196-4.773-9.925-10.477l26.235-554.137c2.425-51.288 44.281-91.451 95.279-91.451h482.912c50.998 0 92.855 40.163 95.276 91.451l26.236 554.137c0.271 5.704-4.25 10.477-9.925 10.477h-706.087zM540.714 512.064c0 17.682 14.23 32.003 31.799 32.003s31.8-14.321 31.8-32.003v-416.042c0-17.679-14.231-32-31.8-32s-31.799 14.321-31.799 32v416.042zM381.717 512.064c0 17.682 14.23 32.003 31.799 32.003s31.8-14.321 31.8-32.003v-416.042c0-17.679-14.231-32-31.8-32s-31.799 14.321-31.799 32v416.042zM222.721 512.064c0 17.682 14.23 32.003 31.799 32.003s31.8-14.321 31.8-32.003v-416.042c0-17.679-14.23-32-31.8-32s-31.799 14.321-31.799 32v416.042z" />
<glyph unicode="&#xe910;" glyph-name="edit" d="M632.334 788.063l-563.419-563.46c-2.835-2.842-4.881-6.432-5.856-10.29l-62.45-250.656c-1.868-7.552 0.349-15.573 5.856-21.077 4.167-4.173 9.844-6.477 15.651-6.477 1.779 0 3.598 0.222 5.369 0.666l250.66 62.455c3.907 0.981 7.456 3.012 10.29 5.854l563.468 563.417-219.569 219.569zM991.531 864.859l-62.72 62.718c-41.916 41.917-114.971 41.877-156.839 0l-76.826-76.825 219.559-219.561 76.826 76.826c20.941 20.931 32.469 48.788 32.469 78.417s-11.529 57.487-32.469 78.426z" />
<glyph unicode="&#xe911;" glyph-name="next-arrow" horiz-adv-x="640" d="M122.129 960l-122.129-120.747 395.739-391.253-395.739-391.252 122.129-120.748 517.871 512-517.871 512z" />
<glyph unicode="&#xe912;" glyph-name="send1" d="M1024 960l-1024-576 327.251-121.202 504.749 473.202-383.929-517.955 0.311-0.114-0.382 0.114v-282.045l183.52 214.107 232.483-86.107 159.996 896z" />
<glyph unicode="&#xe913;" glyph-name="users" d="M590.562 485.7c23.373-21.978 43.729-47.113 60.962-75.371 43.558 27.294 95.014 43.102 150.101 43.102 23.334 0 46.007-2.854 67.716-8.192-34.906 45.683-76.945 79.509-130.116 104.552-39.868-36.371-91.618-59.927-148.663-64.091zM518.029 169.903c0 79.134 32.606 150.788 85.069 202.27-29.555 51.226-69.888 89.818-122.287 116.975-43.174-29.726-95.438-47.151-151.701-47.151-56.101 0-108.224 17.327-151.326 46.891-109.168-59.038-177.826-181.909-177.826-323.789v-217.655h626.013c-65.707 51.972-107.942 132.373-107.942 222.46zM597.38 710.263c0-57.448-18.163-110.729-49.041-154.417l1.557-8.358c7.424-0.888 14.925-1.333 22.443-1.333 102.989 0 186.773 83.788 186.773 186.776 0 102.99-83.785 186.778-186.773 186.778-21.713 0-42.97-3.725-63.027-10.908 54.067-49.103 88.068-119.924 88.068-198.537zM376.779 508.834c111.306 26.312 180.213 137.873 153.9 249.179s-137.873 180.209-249.181 153.898c-111.308-26.311-180.211-137.872-153.9-249.179s137.873-180.211 249.181-153.898zM1024.013 169.899c0 122.662-99.793 222.455-222.455 222.455s-222.451-99.793-222.451-222.455c0-122.658 99.789-222.451 222.451-222.451 122.662-0.004 222.455 99.789 222.455 222.451zM671.987 139.366v61.065h99.038v99.038h61.065v-99.038h99.034v-61.065h-99.034v-99.038h-61.065v99.038h-99.038z" />
<glyph unicode="&#xe914;" glyph-name="info" d="M514 960c-281.22 0-514-228.78-514-510 0-281.218 232.78-514 514-514 281.218 0 510 232.783 510 514 0 281.22-228.782 510-510 510zM574 175.998c0-33.075-26.94-60-60-60-33.080 0-60 26.924-60 60v304.002c0 33.080 26.92 60 60 60 33.059 0 60-26.92 60-60v-304.002zM514 660c-33.080 0-60 26.92-60 60s26.92 60 60 60c33.059 0 60-26.92 60-60s-26.94-60-60-60z" />
<glyph unicode="&#xe915;" glyph-name="reward" d="M495.16 246.209h33.633v-285.871h-33.633v285.871zM226.129 246.209h235.421v-285.871h-235.421v285.871zM562.437-39.662h235.421v285.871h-235.421v-285.871zM730.594 27.602h33.63v-33.63h-33.63v33.63zM663.331 27.602h33.633v-33.63h-33.633v33.63zM596.067 27.602h33.633v-33.63h-33.633v33.63zM91.597 683.435h33.632v-33.631h-33.632v33.631zM91.597 616.177h33.632v-201.791h-33.632v201.791zM158.855 347.080h33.632v-33.63h-33.632v33.63zM158.855 582.534h33.632v-201.791h-33.632v201.791zM831.468 347.080h33.63v-33.63h-33.63v33.63zM831.468 582.534h33.63v-201.791h-33.63v201.791zM898.742 683.435h33.633v-33.631h-33.633v33.631zM898.742 616.177h33.633v-201.791h-33.633v201.791zM965.999 767.484h33.633v-33.632h-33.633v33.632zM965.999 700.226h33.633v-201.792h-33.633v201.792zM24.339 767.484h33.632v-33.632h-33.632v33.632zM24.339 700.226h33.632v-201.792h-33.632v201.792zM562.437 817.968h269.051v-67.264h-269.051v67.264zM713.791 881.125c0 30.068-24.45 54.537-54.52 54.537-14.574 0-28.259-5.666-38.542-15.962l-68.132-68.117h161.194v29.543zM192.516 817.968h269.054v-67.264h-269.054v67.264zM403.288 919.683c-10.296 10.313-23.985 15.978-38.559 15.978-30.066 0-54.519-24.468-54.519-54.537v-29.543h161.197l-68.119 68.101zM495.16 817.968h33.633v-67.264h-33.633v67.264zM327.048 498.46c0-102.159 82.816-184.974 184.975-184.974s184.974 82.815 184.974 184.974c0 102.162-82.815 184.975-184.974 184.975s-184.975-82.813-184.975-184.975zM545.653 599.357c27.813 0 50.45-22.637 50.45-50.45h-33.633c0 9.262-7.538 16.817-16.817 16.817h-67.264c-9.275 0-16.813-7.554-16.813-16.817v-16.813c0-9.262 7.538-16.817 16.813-16.817h67.264c27.813 0 50.45-22.637 50.45-50.447v-16.817c0-27.81-22.637-50.447-50.45-50.447h-16.813v-16.817h-33.633v16.817h-16.817c-27.81 0-50.447 22.637-50.447 50.447h33.633c0-9.262 7.538-16.817 16.813-16.817h67.264c9.279 0 16.817 7.554 16.817 16.817v16.817c0 9.262-7.538 16.817-16.817 16.817h-67.264c-27.81 0-50.447 22.637-50.447 50.447v16.813c0 27.813 22.637 50.45 50.447 50.45h16.817v16.813h33.633v-16.813h16.813z" />
<glyph unicode="&#xe916;" glyph-name="fill-location" d="M511.981 960c-179.93 0-330.001-144.94-330.001-330 0-70.404 21.156-133.185 61.758-192.013l242.988-379.163c11.788-18.432 38.744-18.393 50.508 0l244.042 380.453c39.727 56.162 60.704 122.108 60.704 190.722 0 181.962-148.037 330-329.999 330zM511.981 480c-82.706 0-150 67.294-150 150s67.294 149.999 150 149.999c82.705 0 149.999-67.293 149.999-149.999s-67.294-150-149.999-150zM746.509 270.616l-151.062-236.178c-39.102-60.96-128.048-60.763-166.962-0.055l-151.308 236.171c-133.129-30.78-215.196-87.166-215.196-154.55 0-116.925 231.856-179.996 450-179.996s449.996 63.071 449.996 179.996c0 67.432-82.18 123.848-215.469 154.612z" />
<glyph unicode="&#xe917;" glyph-name="location" horiz-adv-x="768" d="M709.651 718.596c-27.296 53.821-67.686 99.917-117.455 134.049s-107.32 55.204-167.361 61.28c-27.161 2.725-54.526 2.725-81.687 0-60.040-6.080-117.59-27.152-167.361-61.28s-90.166-80.216-117.475-134.031c-34.359-68.664-47.63-145.961-38.142-222.154s41.31-147.874 91.458-206.015l244.545-297.318c3.377-4.109 7.622-7.418 12.431-9.69s10.061-3.45 15.379-3.45c5.318 0 10.57 1.178 15.379 3.45s9.054 5.581 12.431 9.69l244.547 297.318c50.144 58.138 81.965 129.816 91.456 206.006 9.485 76.189-3.782 153.484-38.144 222.145zM383.982 411.999c-28.481 0-56.321 8.445-80.002 24.268s-42.138 38.312-53.037 64.625c-10.899 26.312-13.75 55.266-8.195 83.199s19.271 53.592 39.41 73.731c20.139 20.138 45.797 33.853 73.731 39.409s56.886 2.705 83.199-8.195c26.312-10.899 48.802-29.356 64.625-53.036s24.268-51.522 24.268-80.002c-0.045-38.178-15.231-74.779-42.226-101.774s-63.597-42.181-101.774-42.226z" />
<glyph unicode="&#xe918;" glyph-name="play" horiz-adv-x="788" d="M630.177 448.024l-467.024 320.714v-641.43l467.024 320.717z" />
<glyph unicode="&#xe919;" glyph-name="right-d-arrow" d="M243.616 673.706c-3.955-3.947-7.093-8.636-9.234-13.798s-3.243-10.694-3.243-16.282c0-5.588 1.102-11.121 3.243-16.283s5.279-9.85 9.234-13.797l165.12-165.546-165.547-165.547c-3.95-3.951-7.084-8.64-9.221-13.803-2.138-5.158-3.238-10.692-3.238-16.277s1.1-11.119 3.238-16.282c2.138-5.158 5.271-9.847 9.221-13.798s8.64-7.083 13.801-9.22c5.161-2.138 10.693-3.238 16.279-3.238s11.118 1.101 16.279 3.238c5.161 2.138 9.85 5.269 13.801 9.22l195.838 195.84c3.955 3.947 7.095 8.636 9.237 13.798 2.142 5.158 3.243 10.692 3.243 16.282s-1.101 11.119-3.243 16.282c-2.142 5.163-5.282 9.852-9.237 13.798l-195.838 195.84c-16.213 16.213-43.093 16.213-59.733-0.427zM524.783 673.706c-3.955-3.947-7.095-8.636-9.233-13.798-2.142-5.161-3.247-10.694-3.247-16.282s1.105-11.121 3.247-16.283c2.138-5.161 5.278-9.85 9.233-13.797l165.12-165.546-165.547-165.547c-7.979-7.979-12.459-18.799-12.459-30.080s4.48-22.101 12.459-30.080c7.979-7.979 18.799-12.459 30.080-12.459s22.101 4.48 30.080 12.459l195.84 195.84c3.955 3.947 7.091 8.636 9.233 13.798 2.142 5.158 3.243 10.692 3.243 16.282s-1.101 11.119-3.243 16.282c-2.142 5.163-5.278 9.852-9.233 13.798l-195.84 195.84c-16.213 16.213-43.093 16.213-59.733-0.427z" />
<glyph unicode="&#xe91a;" glyph-name="left-d-arrow" d="M780.386 222.293c3.955 3.947 7.091 8.636 9.233 13.798s3.243 10.692 3.243 16.282c0 5.589-1.101 11.123-3.243 16.282-2.142 5.163-5.278 9.852-9.233 13.798l-165.12 165.547 165.547 165.547c3.947 3.95 7.083 8.64 9.22 13.801s3.238 10.693 3.238 16.279c0 5.586-1.101 11.118-3.238 16.279s-5.274 9.851-9.22 13.801c-3.951 3.95-8.64 7.084-13.803 9.222s-10.692 3.238-16.277 3.238c-5.589 0-11.119-1.1-16.282-3.238s-9.852-5.271-13.798-9.222l-195.84-195.84c-3.955-3.947-7.095-8.636-9.237-13.798-2.142-5.158-3.243-10.692-3.243-16.282s1.101-11.119 3.243-16.282c2.142-5.163 5.282-9.852 9.237-13.798l195.84-195.84c16.213-16.213 43.093-16.213 59.733 0.427zM499.217 222.293c3.955 3.947 7.095 8.636 9.233 13.798 2.142 5.163 3.247 10.692 3.247 16.282s-1.105 11.123-3.247 16.282c-2.138 5.163-5.278 9.852-9.233 13.798l-165.12 165.547 165.546 165.547c7.979 7.978 12.459 18.798 12.459 30.080s-4.48 22.102-12.459 30.080c-7.979 7.978-18.799 12.46-30.080 12.46s-22.101-4.482-30.080-12.46l-195.84-195.84c-3.955-3.947-7.093-8.636-9.234-13.798-2.141-5.158-3.243-10.692-3.243-16.282s1.102-11.119 3.243-16.282c2.141-5.163 5.279-9.852 9.234-13.798l195.84-195.84c16.213-16.213 43.093-16.213 59.733 0.427z" />
<glyph unicode="&#xe91b;" glyph-name="more" horiz-adv-x="228" d="M113.778 960c-62.578 0-113.778-51.2-113.778-113.778s51.2-113.778 113.778-113.778c62.578 0 113.778 51.2 113.778 113.778s-51.2 113.778-113.778 113.778zM113.778 163.556c-62.578 0-113.778-51.2-113.778-113.778s51.2-113.778 113.778-113.778c62.578 0 113.778 51.2 113.778 113.778s-51.2 113.778-113.778 113.778zM113.778 561.778c-62.578 0-113.778-51.2-113.778-113.778s51.2-113.778 113.778-113.778c62.578 0 113.778 51.2 113.778 113.778s-51.2 113.778-113.778 113.778z" />
<glyph unicode="&#xe91c;" glyph-name="delete" horiz-adv-x="945" d="M601.844 161.847c20.389 0 36.927 16.534 36.927 36.923v369.23c0 20.389-16.538 36.923-36.927 36.923-20.385 0-36.919-16.534-36.919-36.923v-369.23c0-20.389 16.534-36.923 36.919-36.923zM343.385 161.847c20.389 0 36.923 16.534 36.923 36.923v369.23c0 20.389-16.534 36.923-36.923 36.923s-36.923-16.534-36.923-36.923v-369.23c0-20.389 16.534-36.923 36.923-36.923zM620.308 881.846c20.389 0 36.923 16.534 36.923 36.923s-16.534 36.923-36.923 36.923h-295.385c-20.389 0-36.923-16.534-36.923-36.923s16.534-36.923 36.923-36.923h295.385zM66.462 844.923c-20.389 0-36.923-16.534-36.923-36.923s16.534-36.923 36.923-36.923h36.923v-679.385c0-83.44 67.938-151.383 151.385-151.383h435.69c83.444 0 151.387 67.938 151.387 151.383v679.385h36.923c20.389 0 36.923 16.534 36.923 36.923s-16.534 36.923-36.923 36.923h-812.308zM768 771.077v-679.385c0-42.831-34.71-77.536-77.54-77.536h-435.69c-42.831 0-77.538 34.706-77.538 77.536v679.385h590.769z" />
<glyph unicode="&#xe91d;" glyph-name="mark" d="M512 640c-105.858 0-192-86.142-192-192 0-105.854 86.142-192 192-192 105.854 0 192 86.146 192 192 0 105.858-86.146 192-192 192zM512 320c-70.591 0-128 57.409-128 128s57.409 128 128 128c70.591 0 128-57.409 128-128s-57.409-128-128-128zM992 480h-97.601c-15.486 186.24-164.161 334.912-350.399 350.4v97.6c0 17.664-14.336 32-32 32s-32-14.336-32-32v-97.6c-186.24-15.488-334.912-164.224-350.4-350.4h-97.6c-17.664 0-32-14.336-32-32s14.336-32 32-32h97.6c15.488-186.238 164.16-334.913 350.4-350.399v-97.601c0-17.664 14.336-32 32-32s32 14.336 32 32v97.601c186.238 15.486 334.913 164.161 350.399 350.399h97.601c17.664 0 32 14.271 32 32 0 17.599-14.336 32-32 32zM512 128c-176.448 0-320 143.551-320 320 0 176.448 143.552 320 320 320 176.449 0 320-143.552 320-320 0-176.449-143.551-320-320-320z" />
<glyph unicode="&#xe91e;" glyph-name="excel" d="M990.996 841.846h-360.842v-117.524h119.375v-79.99h-119.375v-78.178h118.154v-78.769h-118.154v-78.769h118.154v-78.769h-118.154v-78.769h118.154v-78.769h-118.154v-118.154h360.842c18.156 0 33.004 15.399 33.004 34.265v719.163c0 18.865-14.848 34.265-33.004 34.265zM945.231 172.308h-157.538v78.769h157.538v-78.769zM945.231 329.846h-157.538v78.769h157.538v-78.769zM945.231 487.385h-157.538v78.769h157.538v-78.769zM945.231 644.923h-157.538v78.769h157.538v-78.769zM0 846.218v-796.475l590.769-113.743v1024l-590.769-113.782zM373.681 247.926l-68.726 129.93c-2.599 4.844-5.278 13.745-8.074 26.703h-1.063c-1.3-6.105-4.372-15.399-9.216-27.845l-68.962-128.788h-107.087l127.134 199.444-116.303 199.483h109.332l57.029-119.611c4.45-9.452 8.428-20.677 11.973-33.634h1.103c2.245 7.798 6.42 19.377 12.524 34.777l63.409 118.508h100.116l-119.611-197.79 122.959-201.137-106.535-0.039z" />
<glyph unicode="&#xe91f;" glyph-name="calendar" d="M768 857.6h204.8c13.578 0 26.604-5.394 36.204-14.996s14.996-22.625 14.996-36.204v-819.2c0-13.578-5.396-26.604-14.996-36.204s-22.625-14.996-36.204-14.996h-921.6c-13.579 0-26.602 5.396-36.204 14.996s-14.996 22.625-14.996 36.204v819.2c0 13.579 5.394 26.602 14.996 36.204s22.625 14.996 36.204 14.996h204.8v102.4h102.4v-102.4h307.2v102.4h102.4v-102.4zM921.6 448h-819.2v-409.6h819.2v409.6zM665.6 755.2h-307.2v-102.4h-102.4v102.4h-153.6v-204.8h819.2v204.8h-153.6v-102.4h-102.4v102.4zM204.8 345.6h102.4v-102.4h-102.4v102.4zM460.8 345.6h102.4v-102.4h-102.4v102.4zM716.8 345.6h102.4v-102.4h-102.4v102.4z" />
<glyph unicode="&#xe920;" glyph-name="email" horiz-adv-x="1280" d="M746.974 303.765c-31.846-21.227-68.838-32.452-106.974-32.452s-75.123 11.226-106.97 32.452l-524.508 349.684c-2.91 1.94-5.745 3.962-8.522 6.042v-572.994c0-65.694 53.312-117.833 117.833-117.833h1044.331c65.698 0 117.833 53.316 117.833 117.833v572.997c-2.782-2.085-5.619-4.113-8.538-6.055l-524.484-349.674zM50.125 715.856l524.506-349.686c19.857-13.235 42.611-19.853 65.365-19.853 22.758 0 45.517 6.618 65.374 19.853l524.506 349.686c31.386 20.913 50.125 55.913 50.125 93.687 0 64.953-52.843 117.793-117.794 117.793h-1044.413c-64.95-0.003-117.792-52.842-117.792-117.855 0-37.713 18.74-72.713 50.125-93.625z" />
<glyph unicode="&#xe921;" glyph-name="rs" horiz-adv-x="630" d="M623.829 728.002c-4.205 4.364-9.588 6.542-16.13 6.542h-119.991c-7.959 40.229-22.929 75.151-44.914 104.724h163.494c6.56 0 11.928 2.18 16.148 6.534 4.188 4.361 6.292 9.942 6.292 16.728v74.198c0 6.791-2.102 12.362-6.292 16.728-4.224 4.356-9.593 6.544-16.152 6.544h-583.831c-6.553 0-11.928-2.188-16.141-6.541-4.2-4.366-6.312-9.937-6.312-16.728v-96.726c0-6.302 2.222-11.756 6.666-16.362s9.706-6.908 15.787-6.908h101.751c98.704 0 161.393-27.386 188.056-82.178h-289.807c-6.553 0-11.935-2.178-16.141-6.542-4.2-4.369-6.312-9.937-6.312-16.727v-74.188c0-6.786 2.101-12.364 6.312-16.718 4.213-4.369 9.598-6.542 16.141-6.542h299.645c-10.294-39.768-34.272-70.066-71.935-90.915-37.667-20.852-87.361-31.278-149.116-31.278h-78.594c-6.081 0-11.343-2.305-15.787-6.908-4.446-4.608-6.666-10.064-6.666-16.361v-92.373c0-6.313 2.101-11.644 6.312-16.003 89.816-98.907 206.307-237.318 349.458-415.273 4.215-5.821 10.060-8.728 17.547-8.728h136.832c9.834 0 16.623 4.348 20.353 13.099 4.677 8.72 3.76 16.967-2.809 24.726-136.587 173.584-243.959 303.518-322.086 389.819 79.53 9.695 144.090 36.368 193.682 79.996 49.584 43.633 79.754 100.371 90.522 170.187h117.889c6.543 0 11.928 2.176 16.13 6.542 4.216 4.354 6.324 9.932 6.324 16.718v74.18c0 6.799-2.109 12.369-6.324 16.735z" />
<glyph unicode="&#xe922;" glyph-name="fill-massage" horiz-adv-x="1280" d="M1190.11 692.293h-35.055v-385.324c0-59.994-34.931-114.244-104.96-114.244h-686.090v-18.321c0-53.039 60.328-106.581 122.28-106.581h524.548l200.678-117.99-29.103 117.99h7.701c61.909 0 89.847 53.414 89.847 106.581v426.418c0 53.042-27.938 91.471-89.847 91.471zM947.678 960h-796.879c-70.112 0-150.799-62.285-150.799-122.321v-482.957c0-55.287 68.363-95.215 133.937-101.38l-42.675-161.997 273.453 160.875h582.963c70.11 0 134.81 42.509 134.81 102.502v482.957c0 60.036-64.742 122.321-134.81 122.321zM272.37 552.319c-39.76 0-71.985 32.224-71.985 71.985s32.225 71.985 71.985 71.985c39.719 0 71.985-32.225 71.985-71.985s-32.266-71.985-71.985-71.985zM541.244 552.319c-39.761 0-71.987 32.224-71.987 71.985s32.226 71.985 71.987 71.985c39.761 0 71.987-32.225 71.987-71.985s-32.226-71.985-71.987-71.985zM810.159 552.319c-39.761 0-72.026 32.224-72.026 71.985s32.265 71.985 72.026 71.985c39.676 0 71.987-32.225 71.987-71.985s-32.311-71.985-71.987-71.985z" />
<glyph unicode="&#xe923;" glyph-name="bell" horiz-adv-x="887" d="M843.906 238.377c-64.512 54.528-101.506 134.229-101.506 218.668v118.955c0 150.144-111.531 274.432-256 295.253v46.080c0 23.595-19.115 42.667-42.667 42.667s-42.667-19.072-42.667-42.667v-46.080c-144.512-20.821-256-145.109-256-295.253v-118.955c0-84.439-36.992-164.14-101.888-219.010-16.597-14.206-26.112-34.857-26.112-56.702 0-41.175 33.493-74.667 74.667-74.667h704c41.175 0 74.667 33.492 74.667 74.667 0 21.845-9.513 42.496-26.494 57.044zM443.733-64c77.268 0 141.909 55.081 156.757 128h-313.516c14.848-72.919 79.487-128 156.758-128z" />
<glyph unicode="&#xe924;" glyph-name="pass-hide" d="M163.841 730.344l-145.548 145.501 65.862 65.862 921.552-921.6-65.862-65.815-154.065 154.065c-81.864-51.926-176.835-79.421-273.78-79.267-250.972 0-459.775 180.596-503.574 418.909 20.016 108.417 74.549 207.458 155.462 282.344h-0.047zM640.326 253.812l-68.143 68.143c-26.061-12.47-55.352-16.547-83.828-11.674-28.48 4.878-54.745 18.465-75.176 38.898-20.43 20.429-34.020 46.694-38.896 75.171-4.876 28.481-0.798 57.768 11.673 83.833l-68.143 68.143c-29.616-44.753-42.856-98.364-37.477-151.761s29.045-103.289 66.992-141.238c37.947-37.949 87.842-61.612 141.235-66.993 53.397-5.376 107.008 7.862 151.761 37.478v0zM324.609 831.534c58.042 22.807 121.297 35.375 187.391 35.375 250.973 0 459.776-180.596 503.575-418.909-14.262-77.531-46.317-150.696-93.649-213.737l-179.665 179.665c5.339 35.952 2.183 72.653-9.216 107.163s-30.725 65.873-56.422 91.573c-25.702 25.7-57.065 45.023-91.574 56.422-34.513 11.399-71.215 14.556-107.166 9.219l-153.273 153.228z" />
<glyph unicode="&#xe925;" glyph-name="time" d="M512-64c-282.778 0-512 229.222-512 512s229.222 512 512 512c282.778 0 512-229.222 512-512s-229.222-512-512-512zM512 38.4c108.631 0 212.818 43.156 289.633 119.967 76.81 76.815 119.967 181.002 119.967 289.633 0 108.633-43.156 212.816-119.967 289.631-76.815 76.815-181.002 119.969-289.633 119.969-108.633 0-212.816-43.154-289.631-119.969s-119.969-180.998-119.969-289.631c0-108.631 43.154-212.818 119.969-289.633 76.815-76.81 180.998-119.967 289.631-119.967zM563.2 448h204.8v-102.4h-307.2v358.4h102.4v-256z" />
<glyph unicode="&#xe926;" glyph-name="history" d="M512 928c265.107 0 480-214.896 480-480 0-265.107-214.893-480-480-480-265.104 0-480 214.893-480 480h96c0-212.064 171.936-384 384-384s384 171.936 384 384c0 212.064-171.936 384-384 384-118.272 0-224.064-53.472-294.48-137.52l102.48-102.48h-288v288l117.456-117.408c87.984 101.28 217.776 165.408 362.544 165.408zM560 688v-220.080l155.667-155.664-67.923-67.923-183.744 183.843v259.824h96z" />
<glyph unicode="&#xe927;" glyph-name="dark-fill-time" d="M512-64c-282.778 0-512 229.222-512 512s229.222 512 512 512c282.778 0 512-229.222 512-512s-229.222-512-512-512zM563.2 448v256h-102.4v-358.4h307.2v102.4h-204.8z" />
<glyph unicode="&#xe928;" glyph-name="date-time" d="M771.999 500c22.093 0 40.003 17.909 40.003 40.001s-17.91 39.999-40.003 39.999c-22.088 0-39.997-17.908-39.997-39.999s17.91-40.001 39.997-40.001zM864 880h-51.999v40c0 22.092-17.91 40-40.003 40s-39.997-17.908-39.997-40v-40h-182.001v40c0 22.092-17.91 40-40.001 40s-40-17.908-40-40v-40h-180v40c0 22.092-17.908 40-40 40s-40-17.908-40-40v-40h-50c-88.224 0-160-71.776-160-160v-624c0-88.223 71.776-160 160-160h306c22.092 0 40 17.91 40 39.997 0 22.093-17.908 40.003-40 40.003h-306c-44.112 0-80 35.886-80 80v624c0 44.112 35.888 80 80 80h50v-40c0-22.092 17.908-40 40-40s40 17.908 40 40v40h180v-40c0-22.092 17.908-40 40-40s40.001 17.908 40.001 40v40h182.001v-40c0-22.092 17.905-40 39.997-40s40.003 17.908 40.003 40v40h51.999c44.114 0 80-35.888 80-80v-228c0-22.092 17.91-40.001 40.003-40.001 22.088 0 39.997 17.908 39.997 40.001v228c0 88.224-71.777 160-160 160zM781.998 419.999c-133.437 0-241.997-108.559-241.997-241.997 0-133.443 108.559-242.002 241.997-242.002 133.443 0 242.002 108.559 242.002 242.002 0 133.437-108.559 241.997-242.002 241.997zM781.998 16c-89.324 0-161.997 72.673-161.997 162.002s72.673 161.997 161.997 161.997c89.329 0 162.002-72.668 162.002-161.997s-72.673-162.002-162.002-162.002zM839.997 217.999h-17.997v41.999c0 22.093-17.91 40.003-40.003 40.003-22.088 0-39.997-17.91-39.997-40.003v-81.997c0-22.093 17.91-40.003 39.997-40.003h57.999c22.093 0 40.003 17.91 40.003 40.003 0 22.088-17.91 39.997-40.003 39.997zM598.001 500c22.093 0 39.997 17.909 39.997 40.001s-17.905 39.999-39.997 39.999c-22.093 0-40.003-17.908-40.003-39.999s17.91-40.001 40.003-40.001zM424 326.001c22.091 0 40 17.91 40 39.997 0 22.093-17.909 40.003-40 40.003s-40-17.91-40-40.003c0-22.088 17.909-39.997 40-39.997zM250 500c22.091 0 40 17.909 40 40.001s-17.909 39.999-40 39.999c-22.091 0-40-17.908-40-39.999s17.909-40.001 40-40.001zM250 326.001c22.091 0 40 17.91 40 39.997 0 22.093-17.909 40.003-40 40.003s-40-17.91-40-40.003c0-22.088 17.909-39.997 40-39.997zM250 152.003c22.091 0 40 17.905 40 39.997s-17.909 39.997-40 39.997c-22.091 0-40-17.905-40-39.997s17.909-39.997 40-39.997zM424 152.003c22.091 0 40 17.905 40 39.997s-17.909 39.997-40 39.997c-22.091 0-40-17.905-40-39.997s17.909-39.997 40-39.997zM424 500c22.091 0 40 17.909 40 40.001s-17.909 39.999-40 39.999c-22.091 0-40-17.908-40-39.999s17.909-40.001 40-40.001z" />
<glyph unicode="&#xe929;" glyph-name="pdf" d="M916 670h-808c-49.626 0-90-40.374-90-90v-360.002c0-49.626 40.374-89.999 90-89.999h808c49.626 0 89.999 40.373 89.999 89.999v360.002c0 49.626-40.373 90-89.999 90zM255.482 353.323c-7.67 0-20.774-0.054-33.040-0.113v-69.195c0-16.567-13.432-29.998-30-29.998s-30 13.431-30 29.998l-0.442 227.89c-0.026 7.972 3.124 15.628 8.752 21.276s13.276 8.82 21.248 8.82h63.482c52.712 0 95.598-42.32 95.598-94.338 0-52.015-42.886-94.339-95.598-94.339zM513.018 261.249c-17.868-0.313-62.562-0.485-64.456-0.49-0.038 0-0.076 0-0.114 0-7.916 0-15.514 3.126-21.134 8.709-5.648 5.605-8.836 13.226-8.866 21.181-0.002 0.803-0.448 221.293-0.448 221.293-0.014 7.966 3.138 15.612 8.766 21.25s13.268 8.808 21.234 8.808h62.66c71.381 0 119.342-56.512 119.342-140.624 0-80.012-49.201-138.946-116.984-140.126zM820.44 433.3c16.567 0 29.998-13.433 29.998-30.001s-13.431-29.998-29.998-29.998h-54.439v-85.305c0-16.567-13.431-29.998-30.003-29.998-16.567 0-29.998 13.431-29.998 29.998v226.319c0 16.568 13.431 30 29.998 30h91.729c16.567 0 29.998-13.432 29.998-30s-13.431-30-29.998-30h-61.726v-51.016h54.439zM510.685 482h-32.606c0.046-27.080 0.21-135.026 0.294-161.084 12.484 0.075 25.852 0.189 33.622 0.323 40.092 0.701 58.033 40.755 58.033 80.136 0 18.917-4.279 80.624-59.343 80.624zM255.471 482h-33.392c0.036-13.35 0.070-27.552 0.070-34.338 0-7.93 0.056-21.684 0.12-34.457 12.312 0.065 25.464 0.119 33.204 0.119 19.296 0 35.598 15.724 35.598 34.338s-16.304 34.338-35.6 34.338zM884.908 730c-6.952 19.060-17.753 36.676-32.051 51.76l-124.61 131.442c-28.198 29.74-67.875 46.798-108.857 46.798h-399.391c-49.626 0-90-40.374-90-90v-140h754.908zM130 69.998v-44c0-49.626 40.374-89.999 90-89.999h584.002c49.626 0 89.999 40.373 89.999 89.999v44h-764z" />
<glyph unicode="&#xe92a;" glyph-name="language" d="M934.033 718.002h-439.91l-73.616 221.462c-4.076 12.262-15.546 20.536-28.468 20.536h-301.998c-49.626 0-90-40.374-90-89.999v-601.994c0-49.626 40.374-90.001 90-90.001h330.591l73.017-220.873c4.036-12.937 16-21.133 28.659-21.133 0.068 0 0.141 0.009 0.209 0.009h411.52c49.626 0 89.997 40.371 89.997 89.997v601.997c0 49.626-40.375 89.999-90.001 89.999zM90.041 238.007c-16.542 0-30 13.457-30 29.999v601.994c0 16.542 13.458 30 30 30h280.355l220.050-661.993c-112.38 0-389.443 0-500.406 0zM585.493 178.005l-58.799-129.681-42.867 129.681h101.666zM964.036 26.005c0-16.542-13.461-29.999-30.003-29.999h-365.18l90.505 199.612c3.247 7.159 3.401 15.087 1.143 21.862l-146.432 440.522h419.964c16.542 0 30.003-13.458 30.003-30v-601.997zM392.019 598.001h-89.999c-16.568 0-30-13.432-30-30s13.432-30 30-30h54.839c-12.384-34.919-45.73-59.998-84.839-59.998-49.626 0-89.999 40.371-89.999 89.998s40.374 89.999 89.999 89.999c24.040 0 46.64-9.362 63.639-26.36 11.714-11.716 30.71-11.716 42.426 0 11.714 11.716 11.714 30.71 0 42.426-28.332 28.332-65.999 43.933-106.065 43.933-82.709 0-149.999-67.289-149.999-149.999s67.29-150 149.999-150 149.999 67.29 149.999 150c0 16.568-13.432 30-30 30zM871.979 478.003h-90.001v29.999c0 16.567-13.431 30.001-29.999 30.001s-29.999-13.433-29.999-30.001v-29.999h-90.001c-16.567 0-29.999-13.431-29.999-29.999s13.431-29.999 29.999-29.999h174.276c-9.54-28.373-30.037-61.995-53.875-94.349-5.133 6.933-10.202 14.025-15.095 21.218-9.314 13.7-27.972 17.254-41.673 7.936-13.705-9.314-17.254-27.972-7.94-41.677 8.418-12.378 17.242-24.422 26.035-35.836-14.993-17.391-29.769-33.139-42.739-45.879-11.823-11.605-12.006-30.601-0.401-42.423 11.554-11.78 30.549-12.058 42.423-0.405 1.033 1.020 17.395 17.135 39.249 41.877 21.325-24.401 37.291-40.439 38.528-41.677 11.708-11.708 30.699-11.716 42.415-0.004s11.721 30.707 0.013 42.423c-0.311 0.316-18.679 18.786-42.116 46.118 42.466 54.895 68.356 102.716 77.325 142.677h3.571c16.567 0 29.999 13.431 29.999 29.999s-13.427 29.999-29.995 29.999z" />
<glyph unicode="&#xe92b;" glyph-name="list-alpha" d="M1024.005 240.859h-700.79v-140.156h700.79v140.156zM119.198 869.429h-51.948l-67.25-208.111h48.652l11.73 42.472h65.682l11.88-42.472h48.652l-67.398 208.111zM71.114 737.766l21.61 76.45h0.854l21.75-76.45h-44.214zM177.849 433.24c-5.81 8.363-14.828 13.897-27.038 16.662 9.73 3.916 16.93 9.733 21.61 17.462 4.672 7.723 7.008 16.547 7.008 26.469 0 18.984-7.25 33.208-21.75 42.798-14.5 9.586-34.674 14.322-60.531 14.322h-71.244v-208.112h81.546c25.474 0 45.028 5.14 58.67 15.536 13.638 10.396 20.464 25.732 20.464 46.051 0 10.879-2.914 20.47-8.736 28.813zM72.619 512.732h24.528c11.446 0 19.94-1.462 25.474-5.512 5.534-4.056 8.294-10.232 8.294-19.108 0-7.824-2.714-12.716-8.154-16.77-5.432-4.052-13.646-5.33-24.612-5.33h-25.53v46.72zM130.637 386.584c-5.152-4.057-12.882-5.515-23.186-5.515h-34.826v50.966h37.548c9.922 0 17.094-2.243 21.534-6.875 4.438-4.628 6.652-11.157 6.652-20.222-0.002-8.392-2.57-14.302-7.722-18.354zM75.137 190.42c6.294 8.821 15.702 13.234 26.676 13.234 12.976 0 22.548-2.877 27.943-9.46 5.386-6.588 8.8-17.047 9.472-29.789h47.076l0.288 0.453c-1.818 24.415-9.688 43.057-23.61 56.31-13.94 13.268-34.066 19.69-60.394 19.69-24.804 0-45.688-7.938-61.194-23.825-15.502-15.882-23.988-36.415-23.988-61.601v-43.5c0-25.278 8.792-45.841 24.918-61.674 16.118-15.838 37.434-23.752 63.19-23.752 25.658 0 45.416 6.441 58.922 19.319 13.498 12.878 20.816 30.554 21.766 54.979l-0.192-0.102h-47.072c-0.672-12.741-3.436-22.455-8.304-28.657-4.864-6.198-13.116-8.811-24.752-8.811-12.020 0-23.024 4.676-29.892 13.546s-11.858 20.748-11.858 35.152v43.788c0 14.312 4.712 25.878 11.006 34.699zM1024.005 516.952h-700.79v-140.154h700.79v140.154zM1024.005 801.524h-700.79v-140.156h700.79v140.156z" />
<glyph unicode="&#xe92c;" glyph-name="eye" d="M1017.493 467.949c-9.151 12.516-227.114 306.414-505.498 306.414s-496.359-293.898-505.497-306.4c-8.664-11.874-8.664-27.974 0-39.848 9.138-12.511 227.115-306.413 505.497-306.413s496.347 293.902 505.498 306.404c8.676 11.869 8.676 27.983 0 39.843zM511.995 189.221c-205.059 0-382.661 195.067-435.235 258.835 52.506 63.827 229.737 258.792 435.235 258.792 205.047 0 382.636-195.032 435.233-258.838-52.503-63.823-229.734-258.788-435.233-258.788zM511.986 650.591c-111.685 0-202.551-90.866-202.551-202.549 0-111.686 90.866-202.552 202.551-202.552 111.681 0 202.547 90.866 202.547 202.552 0 111.683-90.866 202.549-202.547 202.549zM511.986 313.009c-74.461 0-135.033 60.574-135.033 135.033 0 74.457 60.574 135.031 135.033 135.031s135.033-60.574 135.033-135.031c0-74.459-60.574-135.033-135.033-135.033z" />
<glyph unicode="&#xe92d;" glyph-name="deshbord" d="M24.454 935.546c-18.34-16.812-24.454-55.021-24.454-137.552 0-177.29-3.057-174.233 226.197-174.233 106.985 0 204.8 7.642 217.027 15.284 35.152 21.397 41.266 233.839 9.17 282.746-24.454 36.681-29.039 38.209-215.499 38.209-151.307 0-194.101-4.585-212.442-24.454zM574.663 926.376c-19.869-27.51-24.454-81.003-24.454-264.406 0-310.257-9.17-298.030 236.896-298.030 151.307 0 194.101 4.585 212.442 24.454 36.681 35.152 36.681 512 0 547.152-18.34 19.869-61.134 24.454-212.442 24.454-178.818 0-191.045-1.528-212.442-33.624zM24.454 507.606c-36.681-35.152-36.681-512 0-547.152 18.34-19.869 61.134-24.454 212.442-24.454 246.066 0 236.896-12.227 236.896 298.030s9.17 298.030-236.896 298.030c-151.307 0-194.101-4.585-212.442-24.454zM580.776 256.955c-35.152-21.397-41.266-233.839-9.17-282.746 24.454-36.681 29.039-38.209 215.499-38.209 233.839 0 236.896 1.528 236.896 162.006 0 177.29 3.057 174.233-226.197 174.233-106.985 0-204.8-7.642-217.027-15.284z" />
<glyph unicode="&#xe92e;" glyph-name="video-play" horiz-adv-x="1081" d="M751.605 960h-147.814l-253.346-184.448h147.813l253.347 184.448zM1007.041 960h-149.919l-253.343-184.448h147.814l255.448 184.448zM857.111 775.389h223.795v153.706c0 2.371-0.865 4.466-1.388 6.683l-222.407-160.389zM95.111 775.552h149.924l253.346 184.448h-147.816l-255.455-184.448zM0 7.066c0-16.993 14.163-30.743 31.667-30.743h1017.558c17.499 0 31.664 13.75 31.664 30.743v707.045h-1080.889v-707.045zM382.111 560.405c0 11.077 6.122 21.286 16.051 26.749s22.112 5.314 31.914-0.39l316.665-184.447c9.529-5.554 15.371-15.553 15.371-26.356 0-10.809-5.848-20.804-15.371-26.357l-316.665-184.451c-9.808-5.7-21.996-5.848-31.914-0.387-9.929 5.461-16.051 15.667-16.051 26.743v368.894zM31.667 960c-17.503 0-31.667-13.749-31.667-30.741v-146.033l244.923 176.774h-213.256zM445.333 506.111v-260.271l223.458 130.133-223.458 130.138z" />
<glyph unicode="&#xe92f;" glyph-name="refer" d="M957.217 760.562h-74.535c9.83 15.56 16.318 33.026 18.167 51.498 5.909 59.034-25.178 111.954-78.107 135.416-48.652 21.566-103.328 12.75-142.697-22.958l-94.121-85.3c-18.33 20.048-44.68 32.648-73.924 32.648-29.296 0-55.688-12.64-74.022-32.75l-94.24 85.412c-39.434 35.708-94.086 44.49-142.716 22.936-52.916-23.464-84.012-76.402-78.084-135.434 1.854-18.458 8.338-35.916 18.168-51.468h-74.324c-36.884 0-66.782-29.9-66.782-66.782v-100.174c0-18.44 14.95-33.392 33.392-33.392h957.22c18.438 0 33.388 14.95 33.388 33.392v100.174c0 36.882-29.901 66.782-66.783 66.782zM411.826 771.692v-11.13h-157.086c-41.504 0-74.168 38.692-63.802 81.904 4.566 19.030 18.302 35.252 36.068 43.464 24.396 11.276 51.42 7.657 71.91-10.89l112.938-102.364c-0.006-0.33-0.028-0.654-0.028-0.984zM834.59 820.926c-2.488-34.706-33.84-60.368-68.632-60.368h-153.787v11.13c0 0.394-0.024 0.784-0.024 1.178 25.582 23.192 81.083 73.495 111.188 100.781 17.107 15.506 41.044 22.744 63.175 16.144 31.75-9.472 50.399-36.476 48.080-68.866zM66.794 493.412v-489.738c0-36.888 29.898-66.783 66.782-66.783h311.652v556.521h-378.434zM578.794 493.412v-556.521h311.652c36.882 0 66.783 29.895 66.783 66.783v489.738h-378.435z" />
<glyph unicode="&#xe930;" glyph-name="gallery" horiz-adv-x="1229" d="M605.267 115.732c-33.972 0.526-66.724 12.732-92.743 34.584l-171.336 150.897c-26.961 25.192-68.189 27.187-97.457 4.714l-243.641-179.191v-116.32c-1.751-31.205 22.129-57.917 53.332-59.665 1.607-0.096 3.219-0.116 4.829-0.068h862.966c34.577 0 69.161 25.149 69.161 59.733v304.943l-309.662-179.196c-22.764-13.681-48.888-20.76-75.449-20.432zM592.697 420.706c38.198 0 69.164 30.966 69.164 69.164s-30.966 69.164-69.164 69.164c-38.199 0-69.164-30.965-69.164-69.164s30.965-69.164 69.164-69.164zM1154.068 837.14c-10.035 13.671-25.539 22.282-42.441 23.579l-856.679 99.028c-16.701 1.399-33.369-3.045-47.155-12.576-12.209-10.603-20.511-24.993-23.579-40.87l-14.147-122.607h751.363c71.632-1.625 129.556-58.856 132.041-130.466v-554.876c0 3.147 14.145 6.287 20.432 12.582 13.018 10.22 20.562 25.887 20.439 42.435l73.871 638.188c1.632 16.485-3.468 32.928-14.145 45.585zM921.293 720.633h-862.965c-34.582 0-58.161-33.008-58.161-67.59v-447.99l207.488 150.903c52.67 39.071 125.534 35.789 174.48-7.859l172.906-150.902c26.074-22.132 63.315-25.293 92.74-7.857l342.673 199.63v264.075c-2.376 36.902-32.215 66.059-69.161 67.59zM592.767 357.53c-72.922 0-132.039 59.115-132.039 132.039 0 72.922 59.115 132.039 132.039 132.039 72.922 0 132.041-59.115 132.041-132.039s-59.116-132.039-132.041-132.039z" />
<glyph unicode="&#xe931;" glyph-name="help" horiz-adv-x="964" d="M744.683 298.255c-40.55-55.694-106.237-91.967-180.249-91.967h-103.846c-35.873 0-66.422 22.775-77.99 54.651-14.279 4.259-28.282 9.788-41.945 16.577-28.936 14.378-55.21 33.852-78.34 57.982-150.028-32.961-262.314-166.641-262.314-326.572v-20.902c0-28.738 23.296-52.031 52.032-52.031h807.285c28.732 0 52.031 23.293 52.031 52.031v20.902c0 123.549-67.018 231.436-166.665 289.328zM207.071 442.804c22.362 0 41.827 12.395 51.911 30.685 0.265-0.724 0.535-1.443 0.807-2.163 0.080-0.216 0.16-0.432 0.24-0.648 23.657-62.27 69.688-114.47 130.385-137.281 14.679 23.329 40.638 38.84 70.236 38.84h103.846c10.358 0 19.999 2.923 28.45 7.647 14.196 7.937 26.96 28.072 33.549 38.744 10.547 17.079 18.721 35.17 25.967 54.892 4.072-7.396 9.674-13.829 16.384-18.87v-25.464c0-57.538-46.815-104.349-104.353-104.349h-103.846c-19.631 0-35.548-15.92-35.548-35.551s15.917-35.545 35.548-35.545h103.846c96.74 0 175.449 78.703 175.449 175.445v25.464c14.39 10.81 23.697 28.016 23.697 47.399v148.293c0 19.781-9.698 37.283-24.594 48.044-11.553 146.19-134.204 261.615-283.314 261.615s-271.758-115.425-283.311-261.612c-14.896-10.762-24.597-28.266-24.597-48.044v-148.291c0-32.814 26.658-59.249 59.247-59.249zM455.731 888.902c110.382 0 201.424-84.354 212.067-191.984-6.987-5.495-12.71-12.519-16.655-20.578-33.539 87.513-108.418 148.442-195.414 148.442-88.872 0-162.549-63.023-195.286-148.093-0.045-0.116-0.087-0.234-0.131-0.352-3.943 8.059-9.665 15.083-16.651 20.579 10.648 107.632 101.689 191.986 212.070 191.986z" />
<glyph unicode="&#xe932;" glyph-name="f-evanto" horiz-adv-x="970" d="M368.236 283.529l-14.97-88.91c-2.040-12.153 2.947-24.404 12.898-31.658 9.967-7.238 23.201-8.208 34.089-2.501l79.936 41.725 79.938-41.736c4.727-2.452 9.911-3.686 15.037-3.686 6.715 0 13.414 2.102 19.068 6.193 9.954 7.254 14.961 19.499 12.902 31.658l-14.95 88.91 64.361 63.138c8.801 8.618 11.938 21.488 8.16 33.194-3.789 11.706-13.937 20.27-26.112 22.070l-89.19 13.226-40.174 80.741c-5.448 11.021-16.736 18.002-29.048 18.002-12.288 0-23.568-6.981-29.063-18.002l-40.132-80.741-89.191-13.22c-12.202-1.795-22.302-10.364-26.101-22.065-3.799-11.711-0.672-24.592 8.145-33.199l64.396-63.138zM863.501 807.935h-102.125v56.649c0 25.999-21.073 47.074-47.082 47.074h-7.464c-25.999 0-47.066-21.074-47.066-47.074v-56.649h-360.336v56.649c0 25.999-21.074 47.074-47.066 47.074h-7.473c-25.999 0-47.066-21.074-47.066-47.074v-56.649h-100.94c-53.413 0-96.883-43.454-96.883-96.883v-678.171c0-53.399 43.47-96.887 96.883-96.887h766.629c53.404 0 96.881 43.482 96.881 96.887v678.171c-0.005 53.429-43.482 96.883-96.892 96.883zM850.863 45.519h-741.34v527.916h741.34v-527.916z" />
<glyph unicode="&#xe933;" glyph-name="redem" d="M509.631 955.927c-32.331 8.654-65.066 2.988-91.117-11.982-38.439-22.237-61.408-63.634-59.884-108.050l2.15-63.884 169.689 98.046c0.010-0.018 0.030-0.030 0.040-0.048l51.97 30.009c-0.010 0.018-0.030 0.036-0.040 0.054l0.18 0.102c-14.855 25.467-42.074 47.482-72.989 55.754zM959.892-34.057c0 6.162 0 400.177 0 394.015-9.174 0-313.097 0-300.008 0v-424.012h270.005c16.583 0 30.003 13.414 30.003 29.997zM442.768 542.404l52.202 30.001c-3.538 6.068-96.463 165.455-90.604 155.403l-51.601-30.001c3.522-6.078 95.835-165.472 90.003-155.403zM4.133 462.017c3.476-6.008 79.843-137.97 75.002-129.603l311.41 179.407c-3.51 6.084-95.903 166.232-90.003 156.003l-285.609-165.006c-14.398-7.802-19.201-26.403-10.8-40.802zM783.571 912.036c-4.198 7.2-10.8 12-18.601 13.798-7.204 2.402-15.601 1.202-22.799-3l-285.612-165.005c3.52-6.078 95.835-165.471 90.003-155.403l312.008 180.006c-3.476 6.008-79.842 137.968-74.999 129.604zM539.941 360h60.002v-424.012h-60.002v424.012zM209.913-64.012h270.009v424.012h-300.010v-394.015c0-16.565 13.434-29.997 30.001-29.997zM994.003 660.057h-29.997v30.001c0 16.582-13.42 30.001-30.003 30.001s-30.003-13.419-30.003-30.001v-30.001h-29.997c-16.583 0-30.003-13.418-30.003-30.001s13.42-30.001 30.003-30.001h29.997v-30.001c0-16.582 13.42-30.001 30.003-30.001s30.003 13.419 30.003 30.001v30.001h29.997c16.583 0 30.003 13.418 30.003 30.001s-13.42 30.001-30.003 30.001zM809.918 540.027h-30.003v30.001c0 16.583-13.414 30.001-29.997 30.001s-30.003-13.419-30.003-30.001v-30.001h-30.003c-16.583 0-29.997-13.419-29.997-30.001s13.414-30.001 29.997-30.001h30.003v-30.001c0-16.582 13.42-30.001 30.003-30.001s29.997 13.419 29.997 30.001v30.001h30.003c16.583 0 29.997 13.419 29.997 30.001s-13.414 30.001-29.997 30.001zM158.756 793.884c-42.969-24.815-64.796-72.399-59.058-118.832 1.050-8.574 6.784-30.637 15.141-45.116l51.97 30.009c0 0.004-0.004 0.004-0.004 0.008l169.765 98.009c-63.238 37.659-60.312 42.221-95.467 48.932-29.761 5.724-61.852-1.174-82.346-13.010z" />
<glyph unicode="&#xe934;" glyph-name="subsciption" horiz-adv-x="853" d="M129.151 142.541h690.873c2.116 0 4.164 0.307 6.133 0.779 0.159 0 0.29-0.023 0.444-0.023 14.751 0 26.732 12.083 26.732 26.982v762.734c0 14.897-11.981 26.987-26.732 26.987h-697.412c-71.146 0-129.018-58.441-129.018-130.252 0-0.963 0.188-1.877 0.28-2.807-0.093-66.335-0.908-675.873-0.093-756.001-0.051-1.57-0.241-3.1-0.241-4.682 0-69.052 53.552-125.577 120.912-129.849 1.352-0.21 2.676-0.41 4.078-0.41h701.493c14.751 0 26.732 12.083 26.732 26.988v101.581c0 14.894-11.986 26.988-26.732 26.988s-26.732-12.1-26.732-26.988v-74.598h-670.718c-40.619 0-73.776 32.563-75.406 73.165 0.040 0.722 0.17 1.405 0.157 2.145-0.027 1.183-0.066 3.032-0.093 5.484 2.336 39.959 35.187 71.777 75.342 71.777zM147.377 829.748c0 14.897 11.975 26.986 26.73 26.986s26.73-12.089 26.73-26.986v-548.171c0-14.894-11.975-26.988-26.73-26.988s-26.73 12.1-26.73 26.988v548.171z" />
<glyph unicode="&#xe935;" glyph-name="invoice" horiz-adv-x="808" d="M753.971-37.694c-15.57-7.168-33.911-4.376-46.641 7.093l-67.185 59.484c-1.827 1.628-4.581 1.617-6.397-0.016l-91.411-81.758c-16.531-14.81-41.559-14.81-58.090 0l-91.325 81.683c-1.837 1.638-4.613 1.638-6.451 0l-91.335-81.683c-16.532-14.81-41.56-14.81-58.092 0l-91.419 81.758c-1.83 1.633-4.594 1.644-6.434 0.016l-67.241-59.484c-17.839-15.861-45.162-14.261-61.026 3.579-7.114 7.998-11.006 18.351-10.924 29.055v891.937c-0.16 23.909 19.093 43.421 43.002 43.581 10.711 0.073 21.065-3.829 29.068-10.948l67.181-59.483c1.828-1.627 4.584-1.617 6.402 0.019l91.407 81.754c16.532 14.813 41.56 14.813 58.092 0l91.334-81.679c1.837-1.641 4.614-1.641 6.451 0l91.335 81.677c16.534 14.806 41.56 14.806 58.091 0l91.427-81.754c1.827-1.636 4.592-1.643 6.43-0.017l67.244 59.481c17.845 15.857 45.164 14.245 61.020-3.602 7.103-7.992 10.989-18.335 10.914-29.029v-891.937c0.226-17.133-9.777-32.757-25.428-39.726zM160.254 283.405h241.047c10.694 0 19.364 8.672 19.364 19.364 0 10.698-8.67 19.364-19.364 19.364h-241.047c-10.693 0-19.364-8.666-19.364-19.364 0-10.693 8.671-19.364 19.364-19.364zM619.148 612.595h-458.894c-10.693 0-19.364-8.67-19.364-19.364s8.671-19.364 19.364-19.364h458.894c10.693 0 19.359 8.67 19.359 19.364s-8.666 19.364-19.359 19.364zM619.148 467.365h-458.894c-10.693 0-19.364-8.67-19.364-19.364s8.671-19.364 19.364-19.364h458.894c10.693 0 19.359 8.67 19.359 19.364s-8.666 19.364-19.359 19.364z" />
<glyph unicode="&#xe936;" glyph-name="image" horiz-adv-x="1265" d="M1184.623 939.882h-1104.309c-44.353 0-80.315-35.959-80.315-80.313v-823.218c0-44.351 35.962-80.312 80.315-80.312h1104.309c44.357 0 80.318 35.96 80.318 80.312v823.218c0 44.353-35.96 80.313-80.318 80.313zM1184.623 859.57v-584.102l-158.28 143.903c-23.787 21.624-60.374 20.761-83.101-1.989l-160.19-160.165-315.847 377.274c-23.875 28.512-67.606 28.792-91.839 0.623l-295.052-342.9v567.356h1104.309zM843.294 648.746c0 60.999 49.429 110.432 110.429 110.432s110.429-49.433 110.429-110.432c0-60.998-49.429-110.429-110.429-110.429-61-0.002-110.429 49.431-110.429 110.429z" />
<glyph unicode="&#xe937;" glyph-name="dark-down-arrow" horiz-adv-x="1434" d="M1264.548 891l-547.748-547.753-547.753 547.753-169.047-169.042 716.8-716.8 716.8 716.8-169.052 169.042z" />
<glyph unicode="&#xe938;" glyph-name="share" d="M832 296c-63.235 0-118.955-29.159-153.956-73.512l-302.598 145.264c5.024 16.054 8.554 32.692 8.554 50.248 0 23.812-5.207 46.45-14.204 67.272l316.68 178.656c35.246-38.776 87.047-63.928 145.524-63.928 105.875 0 192 80.742 192 180s-86.125 180-192 180c-105.875 0-192-80.742-192-180 0-22.874 5.024-44.572 13.359-64.716l-317.626-179.18c-35.213 37.624-86.268 61.896-143.733 61.896-105.875 0-192-80.742-192-180s86.125-180.002 192-180.002c64.277 0 120.941 30.017 155.808 75.614l301.602-144.789c-5.555-16.814-9.41-34.324-9.41-52.825 0-99.26 86.125-179.999 192-179.999s192 80.739 192 179.999c0 99.26-86.125 180.001-192 180.001z" />
<glyph unicode="&#xe939;" glyph-name="percentage" d="M955.894 434.734c-4.122 8.428-4.122 18.097 0 26.525l38.19 78.13c21.263 43.502 4.419 95.351-38.354 118.045l-76.82 40.76c-8.289 4.396-13.972 12.22-15.59 21.458l-15.027 85.658c-8.366 47.691-52.48 79.739-100.413 72.957l-86.108-12.18c-9.293-1.312-18.483 1.676-25.221 8.198l-62.505 60.464c-34.801 33.668-89.32 33.67-124.121 0l-62.503-60.47c-6.744-6.524-15.934-9.506-25.226-8.198l-86.105 12.18c-47.95 6.786-92.050-25.266-100.415-72.957l-15.024-85.654c-1.622-9.24-7.304-17.062-15.59-21.46l-76.819-40.76c-42.772-22.692-59.62-74.546-38.356-118.047l38.19-78.128c4.12-8.43 4.12-18.099 0-26.526l-38.192-78.126c-21.264-43.505-4.416-95.35 38.356-118.047l76.819-40.76c8.288-4.393 13.97-12.216 15.592-21.458l15.024-85.658c7.616-43.412 44.844-73.861 87.629-73.856 4.214 0 8.49 0.292 12.788 0.901l86.106 12.18c9.286 1.316 18.482-1.674 25.226-8.197l62.501-60.462c17.404-16.84 39.728-25.252 62.060-25.252 22.325 0 44.663 8.417 62.061 25.252l62.505 60.462c6.743 6.523 15.933 9.503 25.221 8.197l86.108-12.18c47.954-6.784 92.047 25.267 100.413 72.96l15.027 85.652c1.623 9.242 7.306 17.060 15.59 21.458l76.82 40.76c42.772 22.692 59.617 74.547 38.354 118.047l-38.19 78.131zM393.862 713.766c59.703 0 108.277-48.574 108.277-108.277s-48.574-108.278-108.277-108.278c-59.704 0-108.278 48.574-108.278 108.278s48.574 108.277 108.278 108.277zM337.974 232.228c-5.766-5.765-13.324-8.648-20.88-8.648s-15.116 2.883-20.88 8.648c-11.532 11.535-11.532 30.228 0 41.764l389.773 389.774c11.53 11.532 30.234 11.532 41.764 0s11.53-30.23 0-41.762l-389.777-389.776zM630.103 182.226c-59.704 0-108.278 48.573-108.278 108.278s48.573 108.278 108.278 108.278c59.699 0 108.273-48.573 108.273-108.278s-48.573-108.278-108.273-108.278z" />
<glyph unicode="&#xe93a;" glyph-name="calendar1" d="M250.204 716.525h14.65c22.264 0 40.312 18.054 40.312 40.312v152.853c0 22.258-18.048 40.31-40.312 40.31h-14.65c-22.262 0-40.309-18.052-40.309-40.31v-152.853c0-22.258 18.048-40.312 40.309-40.312zM767.262 717.473h14.649c22.264 0 40.308 18.052 40.308 40.312v152.856c0 22.256-18.044 40.307-40.308 40.307h-14.649c-22.269 0-40.313-18.052-40.313-40.307v-152.854c0.005-22.262 18.049-40.314 40.313-40.314zM958.469 868h-103.462v-120.8c0-40.297-32.779-62.523-73.070-62.523h-14.654c-40.297 0-73.076 32.784-73.076 73.081v110.242h-356.247v-111.241c0-40.297-32.782-73.081-73.079-73.081h-14.65c-40.295 0-73.076 32.784-73.076 73.081v111.241h-111.621c-36.135 0-65.534-29.399-65.534-65.537v-791.895c0-36.136 29.399-65.536 65.534-65.536h892.935c36.131 0 65.531 29.4 65.531 65.536v791.895c0.005 36.135-29.4 65.537-65.531 65.537zM958.469 10.569h-892.933l-0.002 598.019h892.946l0.032-598.019c0 0-0.016 0-0.043 0zM545.814 408.059h117.674c4.662 0 8.445 3.778 8.445 8.445v101.892c0 4.665-3.783 8.446-8.445 8.446h-117.674c-4.662 0-8.445-3.782-8.445-8.446v-101.892c0-4.667 3.783-8.445 8.445-8.445zM737.867 408.059h117.668c4.667 0 8.451 3.778 8.451 8.445v101.892c0 4.665-3.783 8.446-8.451 8.446h-117.668c-4.667 0-8.445-3.782-8.445-8.446v-101.892c0-4.667 3.778-8.445 8.445-8.445zM161.762 241.211h117.668c4.665 0 8.446 3.783 8.446 8.445v101.899c0 4.662-3.782 8.445-8.446 8.445h-117.668c-4.664 0-8.446-3.783-8.446-8.445v-101.899c0-4.662 3.782-8.445 8.446-8.445zM353.815 241.211h117.668c4.665 0 8.446 3.783 8.446 8.445v101.899c0 4.662-3.782 8.445-8.446 8.445h-117.668c-4.665 0-8.446-3.783-8.446-8.445v-101.899c0-4.662 3.782-8.445 8.446-8.445zM545.814 241.211h117.668c4.667 0 8.445 3.783 8.445 8.445v101.899c0 4.662-3.778 8.445-8.445 8.445h-117.668c-4.662 0-8.445-3.783-8.445-8.445v-101.899c0-4.662 3.783-8.445 8.445-8.445zM737.867 241.211h117.668c4.667 0 8.451 3.783 8.451 8.445v101.899c0 4.662-3.783 8.445-8.451 8.445h-117.668c-4.667 0-8.445-3.783-8.445-8.445v-101.899c0-4.662 3.778-8.445 8.445-8.445zM279.428 193.159h-117.666c-4.664 0-8.446-3.783-8.446-8.445v-101.899c0-4.662 3.782-8.445 8.446-8.445h117.668c4.665 0 8.446 3.783 8.446 8.445v101.899c-0.002 4.662-3.784 8.445-8.449 8.445zM471.483 193.159h-117.668c-4.665 0-8.446-3.783-8.446-8.445v-101.899c0-4.662 3.782-8.445 8.446-8.445h117.668c4.665 0 8.446 3.783 8.446 8.445v101.899c0 4.662-3.782 8.445-8.446 8.445zM663.487 193.159h-117.674c-4.662 0-8.445-3.783-8.445-8.445v-101.899c0-4.662 3.783-8.445 8.445-8.445h117.674c4.662 0 8.445 3.783 8.445 8.445v101.899c0 4.662-3.783 8.445-8.445 8.445zM855.536 193.159h-117.668c-4.667 0-8.445-3.783-8.445-8.445v-101.899c0-4.662 3.778-8.445 8.445-8.445h117.668c4.667 0 8.451 3.783 8.451 8.445v101.899c0 4.662-3.783 8.445-8.451 8.445z" />
<glyph unicode="&#xe93b;" glyph-name="fill-megaphone" horiz-adv-x="1138" d="M1104.441 614.667h-135.555c-18.421 0-33.331-14.909-33.331-33.333s14.911-33.333 33.331-33.333h135.555c18.426 0 33.337 14.909 33.337 33.333s-14.911 33.333-33.337 33.333zM1134.273 796.244c-8.238 16.471-28.257 23.111-44.726 14.909l-135.555-66.666c-16.469-8.236-23.142-28.256-14.911-44.727 8.192-16.331 28.092-23.169 44.726-14.909l135.555 66.666c16.469 8.236 23.142 28.256 14.911 44.727zM1119.363 411.175l-135.555 66.667c-16.469 8.138-36.426 1.596-44.726-14.909-8.232-16.471-1.559-36.491 14.911-44.727l135.555-66.668c16.634-8.26 36.534-1.422 44.726 14.911 8.232 16.469 1.559 36.49-14.911 44.725zM802.224 948c-36.824 0-66.668-29.847-66.668-66.666v-666.658c0-36.818 29.844-66.668 66.668-66.668 36.818 0 66.662 29.85 66.662 66.668v666.658c0 36.822-29.844 66.666-66.662 66.666zM401.209 242.944c-2.531-15.889-15.713-28.279-32.311-28.279h-40.82c-2.873 0-5.44-0.95-8.098-1.627l-5.429 58.789-28.531 9.506h-175.242l27.782-257.616c13.629-54.397 68.687-86.027 121.254-72.721 53.482 13.346 86.133 67.738 73.634 116.241l-7.5 81.192c0.74-0.051 1.371-0.427 2.129-0.427h40.822c45.984 0 84.416 31.363 96.042 73.694l-63.731 21.248zM335.556 760.896v-425.803l333.327-111.104v648.011l-333.327-111.104zM99.998 748c-55.14 0-99.998-44.858-99.998-99.998v-199.997c0-55.142 44.858-99.998 99.998-99.998h168.887v399.994h-168.887z" />
<glyph unicode="&#xe93c;" glyph-name="membership" d="M799.095 382.066l-152.166 21.878c-5.956 0.852-11.611 3.136-16.486 6.655s-8.823 8.17-11.503 13.552l-68.064 136.533c-3.647 7.182-9.212 13.215-16.077 17.428s-14.763 6.444-22.818 6.444c-8.055 0-15.953-2.23-22.818-6.444s-12.43-10.246-16.077-17.428l-68.062-136.533c-2.678-5.379-6.623-10.028-11.496-13.545s-10.527-5.797-16.476-6.645l-152.183-21.895c-8.034-1.024-15.606-4.324-21.819-9.518s-10.807-12.060-13.236-19.786c-2.523-7.543-2.829-15.65-0.881-23.364 1.948-7.708 6.068-14.7 11.872-20.139l110.114-106.257c4.339-4.17 7.591-9.341 9.468-15.064 1.877-5.717 2.324-11.81 1.301-17.738l-26.010-150.033c-1.431-7.811-0.601-15.872 2.392-23.228s8.025-13.705 14.504-18.295c6.558-4.898 14.379-7.822 22.542-8.431 8.163-0.603 16.329 1.138 23.538 5.018l136.107 70.827c5.327 2.765 11.242 4.21 17.246 4.21s11.918-1.445 17.246-4.21l136.092-70.827c7.208-3.874 15.371-5.615 23.535-5.006 8.164 0.603 15.98 3.521 22.545 8.42 6.474 4.591 11.509 10.94 14.501 18.295s3.823 15.417 2.395 23.228l-26.010 150.016c-1.024 5.939-0.58 12.038 1.303 17.761 1.877 5.723 5.137 10.9 9.483 15.076l110.097 106.24c5.803 5.439 9.921 12.43 11.867 20.139 1.951 7.714 1.644 15.821-0.876 23.364-2.435 7.731-7.031 14.598-13.255 19.792-6.218 5.194-13.796 8.494-21.834 9.512zM989.844 857.622c0 18.105-7.191 35.47-19.996 48.272-12.8 12.802-30.162 19.995-48.27 19.995h-819.199c-18.105 0-35.47-7.192-48.272-19.995s-19.995-30.166-19.995-48.272v-17.067h955.733v17.067zM34.111 806.444h955.733v-68.267h-955.733v68.267zM989.844 704h-955.733v-290.133c0-18.105 7.192-35.47 19.995-48.27 12.802-12.806 30.166-19.996 48.272-19.996h51.61c1.21 17.533 8.443 34.105 20.474 46.912s28.119 21.064 45.54 23.368l152.166 21.879c0.498 0.070 0.971 0.263 1.376 0.561s0.73 0.691 0.945 1.146l68.062 136.533c6.473 12.863 16.392 23.675 28.651 31.23s26.376 11.555 40.776 11.555c14.4 0 28.517-4 40.776-11.555s22.176-18.367 28.65-31.23l68.062-136.533c0.222-0.453 0.552-0.845 0.961-1.142 0.404-0.298 0.876-0.491 1.377-0.564l152.149-21.862c17.425-2.305 33.513-10.563 45.545-23.375s19.263-29.389 20.469-46.923h51.61c18.108 0 35.47 7.191 48.27 19.996 12.806 12.8 19.996 30.165 19.996 48.27v290.133zM204.778 499.2h-102.4c-4.527 0-8.867 1.798-12.068 4.999s-4.999 7.541-4.999 12.068c0 4.526 1.798 8.867 4.999 12.068s7.541 4.999 12.068 4.999h102.4c4.526 0 8.867-1.798 12.068-4.999s4.999-7.542 4.999-12.068c0-4.527-1.798-8.867-4.999-12.068s-7.542-4.999-12.068-4.999zM307.178 584.533h-204.8c-4.527 0-8.867 1.798-12.068 4.999s-4.999 7.541-4.999 12.068c0 4.526 1.798 8.867 4.999 12.068s7.541 4.999 12.068 4.999h204.8c4.526 0 8.867-1.798 12.068-4.999s4.999-7.542 4.999-12.068c0-4.527-1.798-8.867-4.999-12.068s-7.542-4.999-12.068-4.999z" />
<glyph unicode="&#xe93d;" glyph-name="booking" horiz-adv-x="1152" d="M1002.912 956.25h-101.651v-101.647c0-20.33-16.941-33.882-33.882-33.882s-33.882 13.553-33.882 33.882v101.647h-542.116v-101.647c0-20.33-16.941-33.882-33.883-33.882s-33.882 13.553-33.882 33.882v101.647h-101.647c-50.824 0-88.094-44.047-88.094-101.647v-121.976h1084.237v121.976c0 57.6-60.992 101.647-115.2 101.647zM33.875 661.473v-620.046c0-60.992 37.271-101.645 91.482-101.645h880.94c54.214 0 115.2 44.045 115.2 101.645v620.046h-1087.623zM335.428 92.25h-81.318c-13.553 0-27.106 10.163-27.106 27.104v84.71c0 13.549 10.165 27.104 27.106 27.104h84.706c13.553 0 27.106-10.163 27.106-27.104v-84.71c-3.388-16.941-13.553-27.104-30.494-27.104zM335.428 397.191h-81.318c-13.553 0-27.106 10.165-27.106 27.106v84.706c0 13.553 10.165 27.106 27.106 27.106h84.706c13.553 0 27.106-10.164 27.106-27.106v-84.706c-3.388-16.941-13.553-27.106-30.494-27.106zM606.487 92.25h-84.706c-13.553 0-27.106 10.163-27.106 27.104v84.71c0 13.549 10.164 27.104 27.106 27.104h84.706c13.553 0 27.106-10.163 27.106-27.104v-84.71c0-16.941-10.165-27.104-27.106-27.104zM606.487 397.191h-84.706c-13.553 0-27.106 10.165-27.106 27.106v84.706c0 13.553 10.164 27.106 27.106 27.106h84.706c13.553 0 27.106-10.164 27.106-27.106v-84.706c0-16.941-10.165-27.106-27.106-27.106zM877.542 92.25h-84.704c-13.549 0-27.104 10.163-27.104 27.104v84.71c0 13.549 10.163 27.104 27.104 27.104h84.704c13.555 0 27.11-10.163 27.11-27.104v-84.71c0-16.941-10.163-27.104-27.11-27.104zM877.542 397.191h-84.704c-13.549 0-27.104 10.165-27.104 27.106v84.706c0 13.553 10.163 27.106 27.104 27.106h84.704c13.555 0 27.11-10.164 27.11-27.106v-84.706c0-16.941-10.163-27.106-27.11-27.106z" />
<glyph unicode="&#xe93e;" glyph-name="massage" d="M947.055 560.608c10.961 31.122 16.947 64.57 16.947 99.392 0 165.42-134.579 300-300.002 300h-364c-165.42 0-300-134.58-300-300 0-76.958 29.144-147.232 76.956-200.39-11.246-31.902-16.956-65.314-16.956-99.61 0-166.524 134.58-301.999 300-301.999h142.878l174.417-116.919c5.039-3.375 10.863-5.082 16.708-5.082 4.843 0 9.694 1.169 14.123 3.533 9.771 5.214 15.876 15.39 15.876 26.466v92.002h28.911c4.634 0 9.024 1.050 12.945 2.927 145.673 20.57 258.142 146.85 258.142 299.072 0 74.991-27.191 145.476-76.945 200.608zM60 660c0 132.336 107.664 240 240 240h364c132.339 0 240-107.664 240-240s-107.661-239.998-240-239.998h-152c-5.871 0-11.614-1.724-16.512-4.958l-135.488-89.331v64.286c0 16.567-13.432 30.003-30 30.003h-30c-132.336 0-240 107.661-240 239.998zM724.002 117.999h-30.003c-16.567 0-29.999-13.431-29.999-29.999v-65.775l-135.296 90.692c-4.941 3.315-10.752 5.082-16.704 5.082h-152c-132.336 0-240 108.561-240 242.001 0 18.884 2.162 37.427 6.43 55.458 38.27-27.243 83.168-45.751 131.772-52.557 3.904-1.86 8.276-2.901 12.888-2.901h28.91v-90.001c0-11.038 6.060-21.184 15.778-26.415 9.71-5.231 21.516-4.71 30.736 1.37l174.484 115.046h143.002c107.063 0 201.186 56.384 254.285 141.005 29.696-40.695 45.717-89.523 45.717-141.005 0-133.44-107.665-242.001-240-242.001zM300 720c-33.084 0-60-26.916-60-60s26.916-60 60-60c33.084 0 60 26.916 60 60s-26.916 60-60 60zM482.001 720c-33.084 0-60.001-26.916-60.001-60s26.918-60 60.001-60c33.084 0 59.998 26.916 59.998 60s-26.914 60-59.998 60zM664 720c-33.084 0-60.002-26.916-60.002-60s26.918-60 60.002-60c33.084 0 60.002 26.916 60.002 60s-26.918 60-60.002 60z" />
<glyph unicode="&#xe93f;" glyph-name="megaphone" d="M320 352h-192c-25.452 0.030-49.854 10.15-67.852 28.147s-28.121 42.402-28.148 67.853v192c0.028 25.452 10.151 49.854 28.148 67.852s42.399 28.12 67.852 28.148h192c8.487 0 16.626-3.372 22.627-9.373s9.373-14.141 9.373-22.627v-320c0-8.486-3.372-16.627-9.373-22.626-6.001-6.003-14.141-9.374-22.627-9.374zM128 672c-8.485-0.008-16.62-3.381-22.619-9.381s-9.373-14.134-9.381-22.619v-192c0.008-8.486 3.381-16.619 9.381-22.618s14.134-9.374 22.619-9.382h160v256h-160zM704 191.991c-5.764 0.004-11.418 1.557-16.375 4.501-60.241 35.823-123.012 67.209-187.814 93.905-61.099 25.143-123.848 46.063-187.81 62.609-6.869 1.775-12.954 5.781-17.299 11.388-4.344 5.611-6.702 12.501-6.701 19.597v320.001c0 7.095 2.357 13.988 6.701 19.597s10.429 9.615 17.299 11.389c63.962 16.548 126.711 37.466 187.81 62.608 64.802 26.699 127.573 58.085 187.814 93.907 4.86 2.894 10.398 4.448 16.051 4.505s11.226-1.385 16.141-4.18c4.915-2.795 9.003-6.842 11.844-11.729s4.339-10.442 4.339-16.097v-640.001c-0.004-8.482-3.379-16.619-9.378-22.622-5.999-5.999-14.135-9.37-22.622-9.378zM352 408.555c58.528-16.183 116.028-35.874 172.19-58.97 50.509-20.817 99.853-44.361 147.81-70.532v529.877c-47.957-26.17-97.301-49.715-147.81-70.531-56.162-23.095-113.662-42.787-172.19-58.97v-270.874zM768 128c-25.451 0.030-49.856 10.15-67.853 28.147s-28.117 42.402-28.147 67.853v640c0 25.461 10.116 49.879 28.117 67.882 18.005 18.003 42.423 28.118 67.883 28.118s49.877-10.114 67.883-28.118c18.001-18.004 28.117-42.421 28.117-67.882v-640c-0.030-25.451-10.15-49.856-28.147-67.853s-42.402-28.117-67.853-28.147zM768 896c-8.486-0.008-16.619-3.381-22.618-9.381s-9.374-14.134-9.382-22.619v-640c0-8.486 3.371-16.627 9.374-22.626 5.999-6.003 14.14-9.374 22.626-9.374s16.627 3.371 22.626 9.374c6.003 5.999 9.374 14.14 9.374 22.626v640c-0.009 8.485-3.383 16.62-9.382 22.619s-14.131 9.373-22.618 9.381zM832 384c-8.486 0-16.627 3.371-22.626 9.374-6.003 5.999-9.374 14.14-9.374 22.626s3.371 16.627 9.374 22.626c5.999 6.003 14.14 9.374 22.626 9.374 25.459 0 49.877 10.116 67.883 28.117 18.001 18.005 28.117 42.423 28.117 67.883s-10.116 49.879-28.117 67.882c-18.005 18.004-42.423 28.118-67.883 28.118-8.486 0-16.627 3.372-22.626 9.373-6.003 6.001-9.374 14.141-9.374 22.627s3.371 16.626 9.374 22.627c5.999 6.001 14.14 9.373 22.626 9.373 42.436 0 83.132-16.857 113.139-46.863 30.003-30.006 46.861-70.703 46.861-113.137 0-42.436-16.858-83.132-46.861-113.139-30.007-30.003-70.703-46.861-113.139-46.861zM256-64h-32c-25.452 0.030-49.854 10.15-67.852 28.147s-28.12 42.402-28.148 67.853v352c0 8.486 3.372 16.627 9.373 22.626 6.001 6.003 14.141 9.374 22.627 9.374h160c8.487 0 16.626-3.371 22.627-9.374 6.001-5.999 9.373-14.14 9.373-22.626v-352c-0.028-25.451-10.151-49.856-28.148-67.853s-42.399-28.117-67.852-28.147zM192 352v-320c0.008-8.486 3.381-16.619 9.381-22.618s14.134-9.374 22.619-9.382h32c8.485 0.009 16.62 3.383 22.619 9.382s9.373 14.131 9.381 22.618v320h-96zM384 192.026h-64c-8.487 0-16.626 3.371-22.627 9.374-6.001 5.999-9.373 14.14-9.373 22.626s3.372 16.627 9.373 22.63c6.001 5.999 14.141 9.37 22.627 9.37h64c8.485 0.009 16.62 3.383 22.619 9.382s9.373 14.135 9.381 22.618v56.64c0 8.486 3.372 16.627 9.373 22.63 6 5.999 14.141 9.37 22.627 9.37s16.627-3.371 22.626-9.37c6.003-6.003 9.374-14.144 9.374-22.63v-56.64c-0.030-25.451-10.15-49.852-28.147-67.849-17.997-18.001-42.4-28.122-67.853-28.151z" />
<glyph unicode="&#xe940;" glyph-name="list" d="M1024.005 230.799h-731.43v-146.284h731.43v146.284zM1024.005 518.9h-731.43v-146.287h731.43v146.287zM1024.005 815.9h-731.43v-146.286h731.43v146.286zM146.286 226.401h-146.286v-146.289h146.286v146.289zM146.286 518.9h-146.286v-146.287h146.286v146.287zM146.286 815.9h-146.286v-146.286h146.286v146.286z" />
<glyph unicode="&#xe941;" glyph-name="list-num" d="M71.079 375.642l-0.45 1.726 29.226 31.715c18.99 20.665 32.013 36.454 39.089 46.938 7.066 10.484 10.602 22.653 10.602 36.297 0 20.27-6.652 36.293-19.948 47.969-13.3 11.662-31.819 17.522-55.551 17.522-22.348 0-40.298-6.934-53.846-20.824s-20.076-30.612-19.578-50.589l0.3-0.678 48.947-0.004c0 8.806 2.152 17.818 6.454 24.194 4.302 6.38 10.21 9.462 17.726 9.462 8.404 0 14.71-2.522 18.914-7.462 4.2-4.948 6.304-11.602 6.304-19.91 0-5.834-2.078-12.72-6.23-20.627-4.152-7.909-11.438-16.916-20.244-26.999l-70.229-72.997v-30.954h149.696v35.221h-81.181zM103.835 705.871v178.7l-101.263-15.128v-35.89h48.431v-127.682h-48.431v-39.624h149.694v39.624h-48.431zM146.133 105.964c-6.53 8.66-15.578 15.087-27.148 19.339 10.184 4.647 18.32 11.098 24.4 19.354 6.084 8.255 9.122 17.286 9.122 27.068 0 19.68-7.022 34.884-21.062 45.612-14.041 10.732-32.779 16.091-56.219 16.091-20.174 0-37.331-5.339-51.473-16.023-14.142-10.679-20.918-25.39-20.322-42.594l0.3-1.663h48.654c0 8.806 2.466 11.552 7.414 15.311 4.944 3.76 10.682 6.017 17.206 6.017 8.308 0 14.634-2.131 18.99-6.783 4.35-4.647 6.524-10.284 6.524-17.111 0-8.602-2.422-15.735-7.264-20.582-4.848-4.847-11.768-7.67-20.768-7.67h-23.498v-35.226h23.498c9.99 0 17.726-2.95 23.217-7.743 5.49-4.798 8.234-12.717 8.234-23.191 0-7.524-2.624-13.887-7.858-18.832-5.244-4.944-12.266-7.48-21.069-7.48-7.714 0-14.26 3.326-19.654 8.016-5.394 4.696-8.084 9.606-8.084 18.412h-48.957l-0.294-1.902c-0.494-20.173 6.846-36.084 22.026-46.714s32.907-16.199 53.177-16.199c23.538 0 42.87 5.53 58.002 16.852s22.692 26.814 22.692 46.592c0 12.069-3.258 22.391-9.788 31.047zM1023.985 234.764h-726.462v-145.296h726.462v145.296zM1023.985 520.952h-726.462v-145.29h726.462v145.29zM1023.985 815.905h-726.462v-145.291h726.462v145.291z" />
<glyph unicode="&#xe942;" glyph-name="left-alignment-" d="M2.21 82.335h1019.566v-146.29h-1019.566v146.29zM219.424 374.886h802.352v-146.284h-802.352v146.284zM2.21 667.444h1019.566v-146.286h-1019.566v146.286zM441.068 960h580.708v-146.286h-580.708v146.286z" />
<glyph unicode="&#xe943;" glyph-name="center-alignment" d="M73.147 82.335h877.716v-146.29h-877.716v146.29zM2.21 374.886h1019.566v-146.284h-1019.566v146.284zM219.441 663h585.144v-146.286h-585.144v146.286zM2.21 960h1019.566v-146.286h-1019.566v146.286z" />
<glyph unicode="&#xe944;" glyph-name="left-alignment" d="M1021.793 82.335h-1019.57v-146.29h1019.57v146.29zM804.574 374.886h-802.352v-146.284h802.352v146.284zM1021.793 667.444h-1019.57v-146.286h1019.57v146.286zM582.935 960h-580.713v-146.286h580.713v146.286z" />
<glyph unicode="&#xe945;" glyph-name="italic" horiz-adv-x="398" d="M185.709 960l-185.709-1024h212.513l185.709 1024h-212.513z" />
<glyph unicode="&#xe946;" glyph-name="underline" d="M644.671 960v-483.938c0-45.852-10.371-79.648-33.291-101.381-22.921-21.737-55.071-32.603-97.523-32.603-42.792 0-75.916 10.957-99.352 32.859-23.432 21.904-35.16 55.608-35.16 101.13v483.932h-174.122v-483.938c0-84.57 29.182-150.123 85.56-196.652 56.374-46.535 131.084-69.791 223.124-69.791 91.022 0 164.499 23.256 220.717 69.791 56.201 46.529 84.173 112.082 84.173 196.652v483.938h-174.126zM988.746 72.778h-953.524v-136.812h953.524v136.812z" />
<glyph unicode="&#xe947;" glyph-name="capitals" d="M0 872.889v-139.324h204.164v-640.893h181.66v640.893h205.769v139.324h-591.593zM528.861 590.889v-126.712h163.75v-441.046h165.205v441.046h166.184v126.712h-495.139z" />
<glyph unicode="&#xe948;" glyph-name="bold" horiz-adv-x="796" d="M753.26 380.831c-28.803 41.029-73.398 68.341-133.808 81.935 48.151 19.216 83.78 47.814 106.906 85.8 23.137 37.998 34.685 81.346 34.685 130.114 0 93.302-35.874 163.522-107.6 210.636-71.743 47.122-171.574 70.684-299.464 70.684h-353.979v-1024h404.945c126.027 0 222.772 25.543 290.271 76.663 67.482 51.092 101.228 126.583 101.228 226.452 0 53.441-14.41 100.688-43.184 141.716zM239.999 777.142h113.985c56.639 0 98.636-9.97 126.027-29.892 27.362-19.932 41.056-51.686 41.056-95.296 0-38.45-13.456-67.634-40.357-87.556-26.907-19.932-67.502-30.366-121.776-31.302h-118.934v244.046zM519.641 148.753c-25.486-19.928-63.717-29.901-114.696-29.901h-164.946v256.7h178.413c49.080 0 84.596-11.366 106.536-34.099 21.952-22.744 32.931-56.383 32.931-100.932 0-41.256-12.758-71.845-38.237-91.767z" />
<glyph unicode="&#xe949;" glyph-name="our-product" d="M782 460l-240.001-79.999 240.001-80.003 239.997 80.003-239.997 79.999zM2 380.001l240-80.003 240 80.003-240 79.999-240-79.999zM521.486 958.461c-6.158 2.052-12.816 2.052-18.974 0l-230.512-76.838 240-80 240.003 80-230.517 76.838zM272-63.977l210 70.002v310.756l-210-70.002v-310.756zM2 27.648c0-12.914 8.262-24.383 20.514-28.462l189.486-63.164v310.756l-210 70.002v-289.132zM542 6.025l210.003-70.002v310.756l-210.003 70.002v-310.756zM811.998-63.977l189.486 63.164c12.254 4.085 20.514 15.548 20.514 28.462v289.132l-210-70.002v-310.756zM272 501.955l210-70v316.376l-210 70.002v-316.378zM752.003 501.955v316.378l-210.003-70.002v-316.376l210.003 70z" />
<glyph unicode="&#xe94a;" glyph-name="logout" d="M552-64h-502c-13.261 0-25.979 5.266-35.355 14.643s-14.645 22.096-14.645 35.357v924c0 13.261 5.268 25.979 14.645 35.355s22.094 14.645 35.355 14.645h502c13.261 0 25.978-5.268 35.355-14.645s14.645-22.094 14.645-35.355c0-13.261-5.268-25.979-14.645-35.356s-22.094-14.645-35.355-14.645h-452v-823.999h452c13.261 0 25.978-5.266 35.355-14.643s14.645-22.096 14.645-35.357c0-13.261-5.268-25.98-14.645-35.357s-22.094-14.643-35.355-14.643zM960.944 398h-586.944c-13.261 0-25.978 5.268-35.355 14.645s-14.645 22.094-14.645 35.355c0 13.261 5.268 25.979 14.645 35.355s22.094 14.645 35.355 14.645h586.944c13.261 0 25.973-5.268 35.35-14.645s14.643-22.094 14.643-35.355c0-13.261-5.266-25.979-14.643-35.355s-22.089-14.645-35.35-14.645zM720.194 144.962c-9.898 0-19.573 2.933-27.801 8.433-8.228 5.508-14.638 13.327-18.418 22.469-3.78 9.15-4.76 19.215-2.817 28.921 1.944 9.699 6.724 18.615 13.735 25.597l218.318 217.62-218.318 217.62c-4.782 4.604-8.6 10.115-11.23 16.211s-4.021 12.654-4.089 19.292c-0.069 6.638 1.186 13.224 3.689 19.373s6.207 11.737 10.893 16.44c4.686 4.702 10.262 8.424 16.402 10.949s12.722 3.801 19.36 3.754c6.639-0.046 13.199-1.414 19.307-4.024s11.63-6.409 16.245-11.175l253.886-253.020c4.659-4.645 8.36-10.165 10.884-16.244s3.825-12.595 3.825-19.177c0-6.581-1.302-13.098-3.825-19.176s-6.224-11.598-10.884-16.244l-253.886-253.022c-4.63-4.63-10.13-8.309-16.179-10.811-6.056-2.509-12.545-3.796-19.098-3.789z" />
<glyph unicode="&#xe94b;" glyph-name="user" d="M39.643 21.328c0-23.559 19.083-42.664 42.667-42.664s42.666 19.105 42.666 42.664c0 150.565 86.677 283.859 221.784 346.892 46.758-30.385 102.382-48.224 162.175-48.224 60.018 0 115.857 17.958 162.724 48.557 40.333-19.039 77.712-44.657 108.82-75.745 72.543-72.562 112.501-168.979 112.501-271.481 0-23.559 19.083-42.664 42.664-42.664s42.664 19.105 42.664 42.664c0 125.294-48.83 243.127-137.501 331.815-29.667 29.684-64.146 55.138-101.142 76.122 42.416 51.581 67.935 117.56 67.935 189.398 0 164.688-133.998 298.667-298.665 298.667s-298.666-133.979-298.666-298.667c0-71.664 25.413-137.482 67.645-189.008-146.466-82.463-238.271-236.544-238.271-408.327zM508.935 831.997c117.625 0 213.334-95.708 213.334-213.334s-95.709-213.333-213.334-213.333c-117.625 0-213.334 95.708-213.334 213.333s95.708 213.334 213.334 213.334z" />
</font>
</defs>
</svg>
