<svg width="86" height="91" viewBox="0 0 86 91" fill="none" xmlns="http://www.w3.org/2000/svg"> <path d="M45.7087 12.4976L50.973 15.5583L53.8521 21.1546C54.0134 21.468 54.3227 21.663 54.6588 21.663C54.9949 21.663 55.3041 21.468 55.4654 21.1546L58.3446 15.5583L63.6089 12.4976C63.9037 12.3261 64.0871 11.9974 64.0871 11.6401C64.0871 11.2827 63.9037 10.954 63.6089 10.7825L58.3446 7.72186L55.4654 2.12555C55.3041 1.81211 54.9949 1.61719 54.6588 1.61719C54.3227 1.61719 54.0134 1.81211 53.8521 2.12555L50.973 7.72186L45.7087 10.7827C45.4138 10.9542 45.2305 11.2829 45.2305 11.6403C45.2305 11.9976 45.414 12.3261 45.7087 12.4976Z" fill="white" fill-opacity="0.4"/> <path d="M41.8324 25.819C43.2171 25.819 44.3396 24.6256 44.3396 23.1536C44.3396 21.6816 43.2171 20.4883 41.8324 20.4883C40.4477 20.4883 39.3252 21.6816 39.3252 23.1536C39.3252 24.6256 40.4477 25.819 41.8324 25.819Z" fill="white" fill-opacity="0.4"/> <path d="M65.9541 54.3549C64.9749 55.3958 64.9749 57.0833 65.9541 58.1242C66.9332 59.1651 68.5207 59.1651 69.4998 58.1242C70.479 57.0833 70.479 55.3958 69.4998 54.3549C68.5207 53.314 66.9331 53.314 65.9541 54.3549Z" fill="white" fill-opacity="0.4"/> <path d="M66.8519 26.9869C68.2366 26.9869 69.3592 25.7936 69.3592 24.3216C69.3592 22.8496 68.2366 21.6562 66.8519 21.6562C65.4672 21.6562 64.3447 22.8496 64.3447 24.3216C64.3447 25.7936 65.4672 26.9869 66.8519 26.9869Z" fill="white" fill-opacity="0.4"/> <path d="M26.9571 16.3457C27.2347 16.4507 27.5182 16.5005 27.7968 16.5005C28.828 16.5005 29.7941 15.8192 30.1593 14.7273L32.7945 6.84809C33.2584 5.46123 32.5767 3.93702 31.2722 3.44393C29.9671 2.95049 28.5336 3.67529 28.0699 5.06232L25.4347 12.9416C24.9707 14.3284 25.6523 15.8526 26.9571 16.3457Z" fill="white" fill-opacity="0.4"/> <path d="M84.0349 26.6165C82.6924 26.2571 81.3295 27.1222 80.991 28.5494L79.2555 35.8682C77.8809 34.9821 76.5587 33.9988 75.3073 32.9314C74.3121 32.0826 72.9647 31.8839 71.7908 32.4134C70.6188 32.9421 69.8178 34.1077 69.7007 35.4558C69.52 37.5341 69.3779 39.6367 69.2764 41.7336C67.9391 41.0068 66.6106 40.2284 65.3112 39.467C64.3523 38.9051 63.3609 38.3241 62.3731 37.7677C61.299 37.1627 60.0337 37.1968 58.9885 37.8594C57.9425 38.5224 57.312 39.6905 57.302 40.9841C57.2832 43.3875 57.2811 45.8268 57.2958 48.2343C57.3046 49.7004 58.4254 50.8824 59.8027 50.8824H59.8192C61.2039 50.873 62.3192 49.6718 62.3102 48.2C62.3014 46.7369 62.2987 45.2621 62.3024 43.7908C62.4996 43.9062 62.6958 44.0213 62.8909 44.1356C64.9488 45.3414 67.0768 46.5884 69.287 47.6661C70.342 48.1805 71.5612 48.101 72.5485 47.4534C73.5327 46.8076 74.1443 45.6889 74.1847 44.4604C74.2452 42.6177 74.339 40.7614 74.4645 38.9124C75.8091 39.906 77.2096 40.8167 78.6508 41.6341C79.486 42.1076 80.425 42.1906 81.2945 41.8677C82.2633 41.5083 83.0561 40.6747 83.5266 39.521C83.5806 39.3886 83.6244 39.252 83.6575 39.1121L85.8533 29.8524C86.1916 28.4252 85.3776 26.9763 84.0349 26.6165Z" fill="white" fill-opacity="0.4"/> <path d="M78.3159 16.0716C82.4907 16.0716 85.875 12.4738 85.875 8.03579C85.875 3.59775 82.4907 0 78.3159 0C74.1412 0 70.7568 3.59775 70.7568 8.03579C70.7568 12.4738 74.1412 16.0716 78.3159 16.0716Z" fill="white" fill-opacity="0.4"/> <path d="M47.0885 35.987C47.3905 35.987 47.6979 35.9286 47.9964 35.8052L55.3282 32.7753C56.6187 32.2419 57.2582 30.6974 56.7566 29.3253C56.2548 27.9534 54.8018 27.2735 53.5113 27.8068L46.1795 30.8367C44.889 31.3701 44.2495 32.9146 44.7511 34.2867C45.1367 35.3415 46.0844 35.987 47.0885 35.987Z" fill="white" fill-opacity="0.4"/> <path d="M8.1543 69.7261L27.6075 79.2455L40.0732 73.4456L12.6232 58.9102L8.1543 69.7261Z" fill="white" fill-opacity="0.4"/> <path d="M14.6953 53.895L44.7493 69.8093L19.2987 42.7539L14.6953 53.895Z" fill="white" fill-opacity="0.4"/> <path d="M27.4906 26.9763C26.4031 25.8202 24.9779 25.2422 23.5526 25.2422C22.1273 25.2422 20.7021 25.8202 19.6146 26.9763C17.4397 29.2883 17.4397 33.0369 19.6146 35.3489L53.1251 70.9727C54.2125 72.1287 55.6378 72.7067 57.0631 72.7067C58.4883 72.7067 59.9136 72.1287 61.0011 70.9727C63.176 68.6606 63.176 64.9121 61.0011 62.6L27.4906 26.9763Z" fill="white" fill-opacity="0.4"/> <path d="M0.439904 88.3935C-0.194756 89.9296 1.27531 91.4947 2.72114 90.8219L21.2971 82.1792L6.08348 74.7344L0.439904 88.3935Z" fill="white" fill-opacity="0.4"/> </svg>