<svg width="13" height="12" viewBox="0 0 13 12" fill="none" xmlns="http://www.w3.org/2000/svg"> <path d="M3.47516 2.7199L4.11623 4.64202L6.14239 4.65771C6.40473 4.65969 6.5135 4.99454 6.30243 5.15031L4.67251 6.3539L5.28363 8.28577C5.3627 8.53592 5.07797 8.74273 4.86454 8.59023L3.21618 7.41193L1.56782 8.59015C1.35439 8.74273 1.06966 8.53577 1.14873 8.2857L1.75985 6.35383L0.12993 5.15031C-0.0811416 4.99447 0.0276318 4.65969 0.289967 4.65771L2.31614 4.64202L2.9572 2.7199C3.04022 2.47097 3.39221 2.47097 3.47516 2.7199Z" fill="#FFE15A"/> <path d="M10.8326 3.19339L11.2923 3.82029L12.0342 3.58827C12.1302 3.55826 12.2092 3.66779 12.1504 3.74937L11.6963 4.38015L12.1461 5.01398C12.2044 5.09601 12.1247 5.20502 12.0288 5.17432L11.2885 4.93735L10.8247 5.56112C10.7647 5.64186 10.6363 5.59966 10.636 5.49911L10.6325 4.72178L9.89595 4.47339C9.80066 4.44116 9.80104 4.30619 9.89663 4.27465L10.6347 4.03121L10.6434 3.25395C10.6445 3.15348 10.7731 3.11227 10.8326 3.19339Z" fill="#FFE15A"/> <path d="M8.03431 1.32482L8.80707 1.40876L9.13674 0.70486C9.17948 0.613759 9.31354 0.629374 9.3341 0.727864L9.493 1.48867L10.2643 1.58464C10.3642 1.59706 10.3908 1.72945 10.3034 1.77949L9.62889 2.16568L9.77598 2.92892C9.79502 3.02779 9.67733 3.09391 9.60276 3.02634L9.02698 2.50419L8.34661 2.87987C8.25856 2.92854 8.15915 2.83698 8.20044 2.74519L8.51907 2.03619L7.95143 1.50512C7.878 1.43672 7.93429 1.31401 8.03431 1.32482Z" fill="#FFE15A"/> <path d="M9.25545 8.85747L8.79575 9.48436L8.05392 9.25235C7.95786 9.22233 7.87887 9.33187 7.93768 9.41345L8.39181 10.0442L7.94194 10.678C7.88367 10.7601 7.96342 10.8691 8.05925 10.8384L8.79956 10.6014L9.26337 11.2252C9.32339 11.3059 9.45174 11.2637 9.45212 11.1632L9.45555 10.3859L10.1921 10.1375C10.2875 10.1052 10.287 9.97026 10.1914 9.93873L9.45334 9.69528L9.44466 8.91803C9.44344 8.81763 9.31494 8.77627 9.25545 8.85747Z" fill="#FFE15A"/> <path d="M12.0544 7.10217L11.2816 7.18611L10.9519 6.4822C10.9092 6.3911 10.7752 6.40672 10.7546 6.50521L10.5956 7.26601L9.8243 7.36199C9.72444 7.3744 9.69786 7.50679 9.78523 7.55684L10.4597 7.94303L10.3126 8.70627C10.2936 8.80514 10.4113 8.87126 10.4859 8.80369L11.0616 8.28153L11.742 8.65721C11.8301 8.70589 11.9295 8.61433 11.8882 8.52254L11.5695 7.81353L12.1372 7.28247C12.2108 7.21406 12.1545 7.09135 12.0544 7.10217Z" fill="#FFE15A"/> </svg>