<svg width="180" height="135" viewBox="0 0 180 135" fill="none" xmlns="http://www.w3.org/2000/svg"> <path d="M180 117.866H0V117.956H180V117.866Z" fill="#EBEBEB"/> <path d="M161.955 123.657H150.032V123.747H161.955V123.657Z" fill="#EBEBEB"/> <path d="M119.248 124.634H116.119V124.724H119.248V124.634Z" fill="#EBEBEB"/> <path d="M149.68 120.318H142.771V120.408H149.68V120.318Z" fill="#EBEBEB"/> <path d="M34.4293 120.921H18.8809V121.011H34.4293V120.921Z" fill="#EBEBEB"/> <path d="M39.9292 120.921H37.6504V121.011H39.9292V120.921Z" fill="#EBEBEB"/> <path d="M81.0671 122.438H47.3423V122.528H81.0671V122.438Z" fill="#EBEBEB"/> <path d="M85.3086 101.808H15.7961C15.2516 101.807 14.7297 101.59 14.3449 101.205C13.9602 100.819 13.7441 100.297 13.7441 99.7524V2.0376C13.7489 1.49617 13.9671 0.978472 14.3513 0.596958C14.7355 0.215445 15.2547 0.000927499 15.7961 0H85.3086C85.8537 0 86.3766 0.216572 86.7621 0.602071C87.1476 0.987571 87.3642 1.51042 87.3642 2.0556V99.7524C87.3642 100.298 87.1476 100.82 86.7621 101.206C86.3766 101.591 85.8537 101.808 85.3086 101.808ZM15.7961 0.0720003C15.2755 0.0729539 14.7764 0.280463 14.4086 0.648981C14.0407 1.0175 13.8341 1.51691 13.8341 2.0376V99.7524C13.8341 100.273 14.0407 100.772 14.4086 101.141C14.7764 101.509 15.2755 101.717 15.7961 101.718H85.3086C85.8296 101.717 86.329 101.51 86.6974 101.141C87.0658 100.773 87.2732 100.273 87.2742 99.7524V2.0376C87.2732 1.51658 87.0658 1.01718 86.6974 0.648762C86.329 0.280346 85.8296 0.0729519 85.3086 0.0720003H15.7961Z" fill="#EBEBEB"/> <path d="M163.196 101.808H93.6801C93.1352 101.807 92.6129 101.59 92.2276 101.205C91.8423 100.82 91.6255 100.297 91.6245 99.7524V2.0376C91.6302 1.49584 91.8492 0.978147 92.2339 0.596733C92.6187 0.215319 93.1383 0.000917384 93.6801 0H163.196C163.737 0.00187362 164.255 0.21681 164.639 0.598222C165.022 0.979634 165.24 1.49679 165.245 2.0376V99.7524C165.245 100.296 165.029 100.818 164.645 101.203C164.261 101.589 163.74 101.806 163.196 101.808ZM93.6801 0.0720003C93.1591 0.0729519 92.6597 0.280346 92.2913 0.648762C91.9229 1.01718 91.7155 1.51658 91.7145 2.0376V99.7524C91.7155 100.273 91.9229 100.773 92.2913 101.141C92.6597 101.51 93.1591 101.717 93.6801 101.718H163.196C163.717 101.717 164.217 101.51 164.585 101.141C164.953 100.773 165.161 100.273 165.162 99.7524V2.0376C165.161 1.51658 164.953 1.01718 164.585 0.648762C164.217 0.280346 163.717 0.0729519 163.196 0.0720003H93.6801Z" fill="#EBEBEB"/> <path d="M60.0676 14.3544H35.4004V83.6184H60.0676V14.3544Z" fill="#FAFAFA"/> <path d="M56.3873 14.3544H54.9437L46.3433 83.6184H47.7833L56.3873 14.3544Z" fill="#F5F5F5"/> <path d="M59.6315 14.6731H35.2451V15.4111H59.6315V14.6731Z" fill="#E0E0E0"/> <path d="M59.6315 82.8855H35.2451V84.4623H59.6315V82.8855Z" fill="#EBEBEB"/> <path d="M59.2213 84.3889H36.1777V84.4572H59.2213V84.3889Z" fill="#EBEBEB"/> <path d="M36.1503 14.6769H59.1939V84.3909H60.5727V13.6401H34.7715V84.3909H36.1503V14.6769Z" fill="#EBEBEB"/> <path d="M87.4895 14.3544H62.8223V83.6184H87.4895V14.3544Z" fill="#FAFAFA"/> <path d="M80.6617 14.3544H72.7957L64.1953 83.6184H72.0577L80.6617 14.3544Z" fill="#F5F5F5"/> <path d="M87.7592 14.6731H62.6816V15.4111H87.7592V14.6731Z" fill="#E0E0E0"/> <path d="M87.7592 82.8855H62.6816V84.4623H87.7592V82.8855Z" fill="#EBEBEB"/> <path d="M86.6432 84.3889H63.5996V84.4572H86.6432V84.3889Z" fill="#EBEBEB"/> <path d="M63.6312 14.6769H86.6748V84.3909H88.0572V13.6401H62.2524V84.3909H63.6312V14.6769Z" fill="#EBEBEB"/> <path d="M114.261 14.3544H90.2886V83.6184H114.261V14.3544Z" fill="#FAFAFA"/> <path d="M103.878 14.3544H102.434L93.834 83.6184H95.274L103.878 14.3544Z" fill="#F5F5F5"/> <path d="M114.49 14.6731H90.1035V15.4111H114.49V14.6731Z" fill="#E0E0E0"/> <path d="M114.49 82.8855H90.1035V84.4623H114.49V82.8855Z" fill="#EBEBEB"/> <path d="M114.117 84.3889H91.0732V84.4572H114.117V84.3889Z" fill="#EBEBEB"/> <path d="M91.0604 14.6769H114.104V84.3909H115.486V13.6401H89.6816V84.3909H91.0604V14.6769Z" fill="#EBEBEB"/> <path d="M142.407 14.3544H117.74V83.6184H142.407V14.3544Z" fill="#FAFAFA"/> <path d="M139.972 14.3544H132.11L123.506 83.6184H131.368L139.972 14.3544Z" fill="#F5F5F5"/> <path d="M141.975 14.6731H117.588V15.4111H141.975V14.6731Z" fill="#E0E0E0"/> <path d="M141.975 82.8855H117.588V84.4623H141.975V82.8855Z" fill="#EBEBEB"/> <path d="M118.493 14.6769H141.537V84.3909H142.916V13.6401H117.111V84.3909H118.493V14.6769Z" fill="#EBEBEB"/> <path d="M141.553 84.3889H118.51V84.4572H141.553V84.3889Z" fill="#EBEBEB"/> <path d="M54.1412 64.3725H43.4312V82.8873H54.1412V64.3725Z" fill="#EBEBEB"/> <path d="M52.1172 61.7825V66.4265H51.2712H46.3644H45.522V61.7825H52.1172Z" fill="#EBEBEB"/> <path d="M52.103 66.4263H53.4746V65.0547H52.103V66.4263Z" fill="#FAFAFA"/> <path d="M49.4311 66.4263H50.8027V65.0547H49.4311V66.4263Z" fill="#FAFAFA"/> <path d="M46.7851 66.4263H48.1567V65.0547H46.7851V66.4263Z" fill="#FAFAFA"/> <path d="M44.1426 66.4263H45.5142V65.0547H44.1426V66.4263Z" fill="#F0F0F0"/> <path d="M52.103 68.9192H53.4746V67.5476H52.103V68.9192Z" fill="#F0F0F0"/> <path d="M49.4311 68.9192H50.8027V67.5476H49.4311V68.9192Z" fill="#F0F0F0"/> <path d="M46.7851 68.9192H48.1567V67.5476H46.7851V68.9192Z" fill="#FAFAFA"/> <path d="M44.1426 68.9192H45.5142V67.5476H44.1426V68.9192Z" fill="#FAFAFA"/> <path d="M52.103 71.407H53.4746V70.0354H52.103V71.407Z" fill="#F0F0F0"/> <path d="M49.4311 71.407H50.8027V70.0354H49.4311V71.407Z" fill="#FAFAFA"/> <path d="M46.7851 71.407H48.1567V70.0354H46.7851V71.407Z" fill="#FAFAFA"/> <path d="M49.4311 64.2744H50.8027V62.9028H49.4311V64.2744Z" fill="#FAFAFA"/> <path d="M46.7851 64.2744H48.1567V62.9028H46.7851V64.2744Z" fill="#F0F0F0"/> <path d="M44.1426 71.407H45.5142V70.0354H44.1426V71.407Z" fill="#F0F0F0"/> <path d="M52.103 73.8952H53.4746V72.5236H52.103V73.8952Z" fill="#FAFAFA"/> <path d="M49.4311 73.8952H50.8027V72.5236H49.4311V73.8952Z" fill="#F0F0F0"/> <path d="M46.7851 73.8952H48.1567V72.5236H46.7851V73.8952Z" fill="#F0F0F0"/> <path d="M44.1426 73.8952H45.5142V72.5236H44.1426V73.8952Z" fill="#FAFAFA"/> <path d="M52.103 76.3899H53.4746V75.0183H52.103V76.3899Z" fill="#F0F0F0"/> <path d="M49.4311 76.3899H50.8027V75.0183H49.4311V76.3899Z" fill="#FAFAFA"/> <path d="M46.7851 76.3899H48.1567V75.0183H46.7851V76.3899Z" fill="#FAFAFA"/> <path d="M44.1426 76.3899H45.5142V75.0183H44.1426V76.3899Z" fill="#F0F0F0"/> <path d="M52.103 78.8777H53.4746V77.5061H52.103V78.8777Z" fill="#F0F0F0"/> <path d="M49.4311 78.8777H50.8027V77.5061H49.4311V78.8777Z" fill="#FAFAFA"/> <path d="M46.7851 78.8777H48.1567V77.5061H46.7851V78.8777Z" fill="#F0F0F0"/> <path d="M44.1426 78.8777H45.5142V77.5061H44.1426V78.8777Z" fill="#FAFAFA"/> <path d="M52.103 81.3733H53.4746V80.0017H52.103V81.3733Z" fill="#FAFAFA"/> <path d="M49.4311 81.3733H50.8027V80.0017H49.4311V81.3733Z" fill="#FAFAFA"/> <path d="M46.7851 81.3733H48.1567V80.0017H46.7851V81.3733Z" fill="#F0F0F0"/> <path d="M44.1426 81.3733H45.5142V80.0017H44.1426V81.3733Z" fill="#F0F0F0"/> <path d="M129.584 71.1165H119.99V82.8885H129.584V71.1165Z" fill="#F0F0F0"/> <path d="M120.834 72.42H123.066H123.682H124.294V73.6476H123.682H123.066H120.834V72.42Z" fill="#E6E6E6"/> <path d="M120.834 74.7996H123.066H123.682H124.294V76.0272H123.682H123.066H120.834V74.7996Z" fill="#FAFAFA"/> <path d="M120.834 77.1768H123.066H123.682H124.294V78.408H123.682H123.066H120.834V77.1768Z" fill="#E6E6E6"/> <path d="M120.834 79.554H123.066H124.016H124.294V80.7816H124.016H123.066H120.834V79.554Z" fill="#FAFAFA"/> <path d="M125.271 72.42H127.503H128.115H128.731V73.6476H128.115H127.503H125.271V72.42Z" fill="#FAFAFA"/> <path d="M125.271 74.7996H127.503H128.367H128.731V76.0272H128.367H127.503H125.271V74.7996Z" fill="#FAFAFA"/> <path d="M125.271 77.1768H127.503H128.115H128.731V78.408H128.115H127.503H125.271V77.1768Z" fill="#E6E6E6"/> <path d="M125.271 79.554H127.503H128.115H128.731V80.7816H128.115H127.503H125.271V79.554Z" fill="#FAFAFA"/> <path d="M83.3504 75.573H74.6348V82.8882H83.3504V75.573Z" fill="#F0F0F0"/> <path d="M81.675 77.6028H82.791V76.4868H81.675V77.6028Z" fill="#FAFAFA"/> <path d="M79.5105 77.6028H80.6265V76.4868H79.5105V77.6028Z" fill="#FAFAFA"/> <path d="M77.3713 77.6028H78.4873V76.4868H77.3713V77.6028Z" fill="#FAFAFA"/> <path d="M75.2063 77.6028H76.3223V76.4868H75.2063V77.6028Z" fill="#FAFAFA"/> <path d="M81.675 79.6243H82.791V78.5083H81.675V79.6243Z" fill="#FAFAFA"/> <path d="M79.5105 79.6243H80.6265V78.5083H79.5105V79.6243Z" fill="#FAFAFA"/> <path d="M77.3713 79.6243H78.4873V78.5083H77.3713V79.6243Z" fill="#FAFAFA"/> <path d="M75.2063 79.6243H76.3223V78.5083H75.2063V79.6243Z" fill="#E6E6E6"/> <path d="M81.675 81.655H82.791V80.539H81.675V81.655Z" fill="#E6E6E6"/> <path d="M79.5105 81.655H80.6265V80.539H79.5105V81.655Z" fill="#E6E6E6"/> <path d="M77.3713 81.655H78.4873V80.539H77.3713V81.655Z" fill="#FAFAFA"/> <path d="M75.2063 81.655H76.3223V80.539H75.2063V81.655Z" fill="#E6E6E6"/> <path d="M73.4436 70.1654H64.728V82.8878H73.4436V70.1654Z" fill="#F0F0F0"/> <path d="M72.9225 70.7214H69.6465V73.8642H72.9225V70.7214Z" fill="#FAFAFA"/> <path d="M68.5631 70.7214H65.2871V73.8642H68.5631V70.7214Z" fill="#FAFAFA"/> <path d="M72.9225 74.7727H69.6465V77.9155H72.9225V74.7727Z" fill="#FAFAFA"/> <path d="M68.5631 74.7727H65.2871V77.9155H68.5631V74.7727Z" fill="#FAFAFA"/> <path d="M72.9225 78.8333H69.6465V81.976H72.9225V78.8333Z" fill="#FAFAFA"/> <path d="M68.5631 78.8333H65.2871V81.976H68.5631V78.8333Z" fill="#FAFAFA"/> <path d="M117.144 115.533H109.443L113.497 82.5134C113.597 81.8258 113.937 81.1956 114.457 80.7345C114.977 80.2733 115.643 80.0108 116.337 79.9934H149.979L145.044 115.543L117.144 115.533Z" fill="#F5F5F5"/> <path d="M141.58 115.533H149.294L153.341 82.514C153.388 82.1975 153.366 81.8745 153.275 81.5676C153.184 81.2608 153.028 80.9774 152.816 80.7373C152.605 80.4973 152.343 80.3064 152.05 80.178C151.757 80.0496 151.439 79.9868 151.12 79.994H148.47C147.775 80.0106 147.109 80.2729 146.589 80.7342C146.069 81.1955 145.729 81.826 145.63 82.514L141.58 115.533Z" fill="#F0F0F0"/> <path d="M138.756 115.493L140.153 99.5234C140.184 99.177 140.332 98.8515 140.573 98.6008C140.814 98.3501 141.133 98.1891 141.478 98.1446L142.054 98.0726C142.516 98.0129 142.943 97.7973 143.266 97.4615C143.589 97.1256 143.787 96.6897 143.829 96.2258L144.084 93.3134C144.109 93.0313 144.074 92.7472 143.983 92.4791C143.892 92.2111 143.746 91.9648 143.555 91.756C143.364 91.5472 143.131 91.3804 142.872 91.2661C142.613 91.1518 142.333 91.0926 142.05 91.0922H154.938C155.22 91.0946 155.498 91.1553 155.756 91.2704C156.013 91.3856 156.244 91.5527 156.433 91.7613C156.623 91.9699 156.768 92.2154 156.858 92.4825C156.948 92.7496 156.982 93.0325 156.958 93.3134L156.702 96.2258C156.661 96.6897 156.462 97.1256 156.14 97.4615C155.817 97.7973 155.389 98.0129 154.927 98.0726L154.351 98.1446C154.007 98.1891 153.687 98.3501 153.446 98.6008C153.205 98.8515 153.057 99.177 153.027 99.5234L151.63 115.493C151.581 116.055 151.323 116.579 150.907 116.96C150.491 117.341 149.948 117.552 149.383 117.552H136.51C137.074 117.552 137.618 117.341 138.034 116.96C138.45 116.579 138.707 116.055 138.756 115.493Z" fill="#E6E6E6"/> <path d="M103.313 95.5206C103.209 94.3091 102.654 93.1808 101.758 92.3583C100.862 91.5359 99.6906 91.0792 98.4746 91.0782H109.696C110.91 91.0789 112.08 91.5342 112.976 92.3544C113.871 93.1745 114.427 94.3002 114.534 95.5098L115.639 108.171H104.422L103.313 95.5206Z" fill="#E6E6E6"/> <path d="M93.4824 91.0782H98.4648C99.6791 91.0789 100.849 91.5342 101.745 92.3544C102.64 93.1745 103.196 94.3002 103.303 95.5098L104.412 108.182H131.138L132.244 95.5206C132.348 94.3097 132.902 93.1819 133.797 92.3595C134.692 91.5372 135.863 91.0801 137.078 91.0782H142.064C142.347 91.0787 142.627 91.1379 142.886 91.2522C143.146 91.3665 143.378 91.5333 143.569 91.7421C143.76 91.9509 143.906 92.1971 143.997 92.4652C144.088 92.7333 144.123 93.0174 144.098 93.2995L143.843 96.2118C143.801 96.6758 143.603 97.1117 143.28 97.4476C142.958 97.7834 142.53 97.999 142.068 98.0586L141.492 98.1306C141.147 98.1752 140.828 98.3362 140.587 98.5869C140.346 98.8376 140.198 99.1631 140.167 99.5094L138.77 115.479C138.722 116.041 138.464 116.565 138.048 116.946C137.632 117.327 137.088 117.539 136.524 117.538H99.0119C98.4477 117.539 97.9039 117.327 97.4879 116.946C97.072 116.565 96.8142 116.041 96.7656 115.479L95.3688 99.5094C95.3386 99.1629 95.1908 98.837 94.9497 98.5862C94.7087 98.3353 94.3891 98.1746 94.044 98.1306L93.4715 98.0586C93.009 97.9997 92.5804 97.7845 92.257 97.4486C91.9335 97.1127 91.7346 96.6763 91.6931 96.2118L91.4519 93.3103C91.426 93.0276 91.4591 92.7427 91.5492 92.4736C91.6394 92.2044 91.7846 91.957 91.9756 91.7471C92.1666 91.5371 92.3992 91.3692 92.6586 91.2541C92.918 91.1389 93.1985 91.0791 93.4824 91.0782Z" fill="#F0F0F0"/> <path d="M55.91 89.0013H20.8496C20.85 89.6208 21.0893 90.2162 21.5179 90.6636C21.9465 91.1109 22.5311 91.3756 23.15 91.4025C26.9192 91.5753 32.7152 92.1693 34.5512 94.2537C37.9784 98.1417 37.6472 111.793 33.5432 114.954C32.2544 115.944 28.5032 117.913 28.5032 117.913H48.2636C48.2636 117.913 44.7572 115.904 43.5368 114.954C39.458 111.768 39.3392 98.1237 42.7808 94.2537C44.5484 92.2701 49.9808 91.6293 53.624 91.4277C54.2429 91.3918 54.8246 91.1204 55.2497 90.6692C55.6748 90.218 55.9111 89.6212 55.91 89.0013Z" fill="#F5F5F5"/> <path d="M25.1719 91.5311C28.7323 91.8155 33.0019 92.5211 34.5319 94.2527C35.029 94.852 35.421 95.5312 35.6911 96.2615H41.5807C41.8595 95.5315 42.2573 94.8528 42.7579 94.2527C44.2915 92.5283 48.5971 91.8191 52.0891 91.5311H25.1719Z" fill="#E6E6E6"/> <path d="M40.9417 89.0177L40.4629 83.5673H47.3749L47.8537 89.0177H40.9417Z" fill="#EBEBEB"/> <path d="M40.9648 89.0177L40.486 83.5673H40.1152L40.5904 89.0177H40.9648Z" fill="#E0E0E0"/> <path d="M41.6182 88.4623L41.2402 84.1243H46.741L47.119 88.4623H41.6182Z" fill="#F0F0F0"/> <path d="M42.0453 88.1039L41.7285 84.4823H46.3257L46.6425 88.1039H42.0453Z" fill="#FAFAFA"/> <path d="M38.6923 88.998H31.7515L32.5219 80.196H39.4627L38.6923 88.998Z" fill="#E6E6E6"/> <path d="M38.709 88.998H39.0402L39.8106 80.196H39.4794L38.709 88.998Z" fill="#E0E0E0"/> <path d="M38.0807 88.1017H32.5547L33.1703 81.0925H38.6963L38.0807 88.1017Z" fill="#F0F0F0"/> <path d="M37.6955 87.5293H33.0767L33.5915 81.6721H38.2067L37.6955 87.5293Z" fill="#FAFAFA"/> <path d="M35.3539 84.3027C35.505 84.4531 35.7095 84.5375 35.9227 84.5375C36.1359 84.5375 36.3404 84.4531 36.4915 84.3027C36.6419 84.1516 36.7263 83.9471 36.7263 83.7339C36.7263 83.5208 36.6419 83.3162 36.4915 83.1651C36.3404 83.0148 36.1359 82.9304 35.9227 82.9304C35.7095 82.9304 35.505 83.0148 35.3539 83.1651C35.2036 83.3162 35.1191 83.5208 35.1191 83.7339C35.1191 83.9471 35.2036 84.1516 35.3539 84.3027Z" fill="#EBEBEB"/> <path d="M35.7036 85.2902C35.649 85.2354 35.5842 85.192 35.5129 85.1623C35.4415 85.1327 35.365 85.1174 35.2878 85.1174C35.2105 85.1174 35.134 85.1327 35.0626 85.1623C34.9913 85.192 34.9265 85.2354 34.872 85.2902C34.7883 85.3727 34.7314 85.4784 34.7085 85.5936C34.6856 85.7088 34.6979 85.8283 34.7436 85.9365C34.7894 86.0447 34.8666 86.1367 34.9652 86.2005C35.0638 86.2643 35.1793 86.2971 35.2968 86.2946C35.4127 86.2935 35.5257 86.2581 35.6215 86.1929C35.7173 86.1277 35.7917 86.0355 35.8352 85.9281C35.8787 85.8206 35.8895 85.7027 35.866 85.5892C35.8426 85.4756 35.7861 85.3716 35.7036 85.2902Z" fill="#F0F0F0"/> <path d="M89.9977 134.122C128.547 134.122 159.798 132.298 159.798 130.047C159.798 127.796 128.547 125.972 89.9977 125.972C51.448 125.972 20.1973 127.796 20.1973 130.047C20.1973 132.298 51.448 134.122 89.9977 134.122Z" fill="#F5F5F5"/> <path d="M146.209 105.41C146.274 105.874 145.014 106.18 143.984 106.353C144.071 107.195 144.632 108.048 145.406 108.848C146.382 108.297 147.775 107.57 148.031 107.746C148.286 107.922 146.886 108.866 145.993 109.406C146.63 109.962 147.305 110.473 148.013 110.936C148.452 110.529 148.963 110.169 149.269 110.363C149.575 110.558 149.5 111.198 149.345 111.76C150.403 112.379 151.199 112.757 151.199 112.757C151.512 111.772 151.752 110.765 151.919 109.744C151.865 109.636 151.814 109.532 151.764 109.416C151.591 109.02 151.764 108.855 152.041 108.797C152.12 108.08 152.126 107.356 152.059 106.637C150.857 106.385 149.399 105.917 149.946 105.197C150.274 104.765 150.878 104.715 151.508 104.837C151.421 104.694 151.321 104.559 151.21 104.434C149.024 102.026 147.498 104.434 147.498 104.434C146.227 103.376 144.442 103.66 144.056 105.316C144.762 105.118 146.13 104.837 146.209 105.41Z" fill="#20C0E8"/> <path opacity="0.3" d="M146.209 105.41C146.274 105.874 145.014 106.18 143.984 106.353C144.071 107.195 144.632 108.048 145.406 108.848C146.382 108.297 147.775 107.57 148.031 107.746C148.286 107.922 146.886 108.866 145.993 109.406C146.63 109.962 147.305 110.473 148.013 110.936C148.452 110.529 148.963 110.169 149.269 110.363C149.575 110.558 149.5 111.198 149.345 111.76C150.403 112.379 151.199 112.757 151.199 112.757C151.512 111.772 151.752 110.765 151.919 109.744C151.865 109.636 151.814 109.532 151.764 109.416C151.591 109.02 151.764 108.855 152.041 108.797C152.12 108.08 152.126 107.356 152.059 106.637C150.857 106.385 149.399 105.917 149.946 105.197C150.274 104.765 150.878 104.715 151.508 104.837C151.421 104.694 151.321 104.559 151.21 104.434C149.024 102.026 147.498 104.434 147.498 104.434C146.227 103.376 144.442 103.66 144.056 105.316C144.762 105.118 146.13 104.837 146.209 105.41Z" fill="white"/> <path d="M148.961 123.119L148.648 123.094C148.648 122.932 149.941 106.801 146.323 105.278C146.152 105.2 145.966 105.163 145.779 105.168C145.592 105.173 145.409 105.22 145.243 105.307C143.936 105.987 143.309 108.813 143.302 108.842L142.993 108.773C143.018 108.651 143.659 105.775 145.095 105.026C145.305 104.915 145.537 104.855 145.775 104.848C146.012 104.841 146.247 104.888 146.463 104.986C150.275 106.592 149.037 122.443 148.961 123.119Z" fill="#20C0E8"/> <path d="M149.425 122.76C149.36 122.04 147.884 104.965 150.645 103.154C151.308 102.722 151.898 102.629 152.402 102.881C153.709 103.539 153.878 106.333 153.885 106.452H153.568C153.568 106.427 153.403 103.727 152.258 103.151C151.866 102.953 151.38 103.035 150.818 103.406C148.212 105.113 149.72 122.54 149.738 122.717L149.425 122.76Z" fill="#20C0E8"/> <path d="M149.829 124.143C149.808 123.589 149.351 110.525 151.867 109.383C152.101 109.273 152.357 109.216 152.616 109.216C152.875 109.216 153.13 109.273 153.365 109.383C155.093 110.143 156.158 113.361 156.201 113.498L155.903 113.595C155.903 113.563 154.823 110.373 153.239 109.671C153.045 109.579 152.834 109.531 152.619 109.531C152.405 109.531 152.194 109.579 152 109.671C150.071 110.55 150.006 120.41 150.143 124.136L149.829 124.143Z" fill="#20C0E8"/> <path d="M149.183 123.55L148.867 123.514C149.313 119.626 150.159 109.265 148.773 108.034C148.706 107.954 148.617 107.894 148.516 107.863C148.416 107.832 148.309 107.83 148.208 107.858C147.279 108.218 146.714 111.584 146.573 112.855L146.26 112.819C146.314 112.333 146.822 108.052 148.093 107.563C148.248 107.511 148.415 107.505 148.574 107.547C148.733 107.588 148.876 107.675 148.985 107.797C150.775 109.391 149.248 122.974 149.183 123.55Z" fill="#20C0E8"/> <path d="M143.911 116.177H155.272L154.322 128.903H144.857L143.911 116.177Z" fill="#20C0E8"/> <path opacity="0.2" d="M147.352 116.177L147.669 128.903H154.314L155.265 116.177H147.352Z" fill="white"/> <path d="M145.477 111.503C145.358 111.813 144.476 111.572 143.781 111.323C143.566 111.983 143.574 112.695 143.803 113.35C144.595 113.35 145.7 113.375 145.801 113.573C145.902 113.771 144.721 113.868 143.976 113.897C144.177 114.458 144.418 115.004 144.696 115.532C145.106 115.431 145.545 115.384 145.664 115.607C145.783 115.83 145.524 116.201 145.232 116.496C145.675 117.242 146.035 117.746 146.035 117.746C146.563 117.244 147.055 116.705 147.507 116.133C147.507 116.046 147.507 115.964 147.507 115.877C147.536 115.575 147.698 115.517 147.892 115.589C148.189 115.173 148.441 114.726 148.645 114.257C147.993 113.688 147.252 112.9 147.835 112.644C148.195 112.49 148.576 112.666 148.915 112.95C148.91 112.829 148.895 112.709 148.868 112.59C148.346 110.355 146.578 111.32 146.578 111.32C146.161 110.24 144.962 109.793 144.156 110.682C144.688 110.823 145.621 111.122 145.477 111.503Z" fill="#20C0E8"/> <path opacity="0.3" d="M145.477 111.503C145.358 111.813 144.476 111.572 143.781 111.323C143.566 111.983 143.574 112.695 143.803 113.35C144.595 113.35 145.7 113.375 145.801 113.573C145.902 113.771 144.721 113.868 143.976 113.897C144.177 114.458 144.418 115.004 144.696 115.532C145.106 115.431 145.545 115.384 145.664 115.607C145.783 115.83 145.524 116.201 145.232 116.496C145.675 117.242 146.035 117.746 146.035 117.746C146.563 117.244 147.055 116.705 147.507 116.133C147.507 116.046 147.507 115.964 147.507 115.877C147.536 115.575 147.698 115.517 147.892 115.589C148.189 115.173 148.441 114.726 148.645 114.257C147.993 113.688 147.252 112.9 147.835 112.644C148.195 112.49 148.576 112.666 148.915 112.95C148.91 112.829 148.895 112.709 148.868 112.59C148.346 110.355 146.578 111.32 146.578 111.32C146.161 110.24 144.962 109.793 144.156 110.682C144.688 110.823 145.621 111.122 145.477 111.503Z" fill="white"/> <path d="M153.89 113.02C153.536 113.051 153.188 113.124 152.853 113.239C152.76 112.999 152.707 112.745 152.698 112.487C152.626 110.197 154.268 111.162 155.132 110.489C155.327 110.318 155.556 110.189 155.804 110.111C156.052 110.033 156.313 110.007 156.572 110.035C156.498 110.161 156.433 110.293 156.377 110.428C156.357 110.478 156.349 110.532 156.352 110.586C156.356 110.64 156.371 110.692 156.398 110.739C156.425 110.786 156.462 110.827 156.506 110.858C156.55 110.889 156.601 110.909 156.654 110.917C156.872 110.961 157.098 110.935 157.299 110.842C157.355 110.807 157.409 110.768 157.461 110.727C157.601 110.967 157.707 111.225 157.778 111.494C157.863 111.813 157.912 112.142 157.925 112.473C157.796 112.5 157.668 112.536 157.544 112.581C157.494 112.602 157.45 112.635 157.415 112.676C157.38 112.717 157.355 112.766 157.341 112.818C157.327 112.87 157.325 112.925 157.335 112.978C157.346 113.031 157.368 113.081 157.4 113.124C157.536 113.262 157.696 113.374 157.871 113.455C157.813 113.824 157.716 114.186 157.583 114.535L157.468 114.554C157.384 114.568 157.301 114.589 157.22 114.615C157.172 114.626 157.126 114.643 157.083 114.665C157.026 114.689 156.977 114.727 156.939 114.776C156.901 114.824 156.876 114.881 156.867 114.942C156.859 115.005 156.867 115.068 156.891 115.126C156.915 115.184 156.954 115.235 157.004 115.274C157.058 115.312 157.114 115.347 157.173 115.378C156.956 115.757 156.643 116.073 156.266 116.292C155.935 116.14 155.613 115.97 155.301 115.781C155.369 115.691 155.438 115.597 155.502 115.504C155.575 115.399 155.61 115.271 155.6 115.144C155.582 115.015 155.515 114.899 155.412 114.82C155.362 114.781 155.304 114.752 155.242 114.735C155.18 114.718 155.115 114.714 155.052 114.722C154.988 114.731 154.927 114.752 154.871 114.784C154.816 114.816 154.767 114.859 154.728 114.91C154.653 115.021 154.57 115.13 154.487 115.238C154.059 114.918 153.675 114.543 153.346 114.121H153.378C153.591 114.067 153.808 114.032 154.026 114.017C154.148 113.992 154.255 113.922 154.327 113.822C154.398 113.721 154.429 113.597 154.413 113.474C154.397 113.352 154.336 113.24 154.241 113.161C154.145 113.082 154.024 113.042 153.9 113.049L153.89 113.02Z" fill="#20C0E8"/> <path opacity="0.5" d="M153.89 113.02C153.536 113.051 153.188 113.124 152.853 113.239C152.76 112.999 152.707 112.745 152.698 112.487C152.626 110.197 154.268 111.162 155.132 110.489C155.327 110.318 155.556 110.189 155.804 110.111C156.052 110.033 156.313 110.007 156.572 110.035C156.498 110.161 156.433 110.293 156.377 110.428C156.357 110.478 156.349 110.532 156.352 110.586C156.356 110.64 156.371 110.692 156.398 110.739C156.425 110.786 156.462 110.827 156.506 110.858C156.55 110.889 156.601 110.909 156.654 110.917C156.872 110.961 157.098 110.935 157.299 110.842C157.355 110.807 157.409 110.768 157.461 110.727C157.601 110.967 157.707 111.225 157.778 111.494C157.863 111.813 157.912 112.142 157.925 112.473C157.796 112.5 157.668 112.536 157.544 112.581C157.494 112.602 157.45 112.635 157.415 112.676C157.38 112.717 157.355 112.766 157.341 112.818C157.327 112.87 157.325 112.925 157.335 112.978C157.346 113.031 157.368 113.081 157.4 113.124C157.536 113.262 157.696 113.374 157.871 113.455C157.813 113.824 157.716 114.186 157.583 114.535L157.468 114.554C157.384 114.568 157.301 114.589 157.22 114.615C157.172 114.626 157.126 114.643 157.083 114.665C157.026 114.689 156.977 114.727 156.939 114.776C156.901 114.824 156.876 114.881 156.867 114.942C156.859 115.005 156.867 115.068 156.891 115.126C156.915 115.184 156.954 115.235 157.004 115.274C157.058 115.312 157.114 115.347 157.173 115.378C156.956 115.757 156.643 116.073 156.266 116.292C155.935 116.14 155.613 115.97 155.301 115.781C155.369 115.691 155.438 115.597 155.502 115.504C155.575 115.399 155.61 115.271 155.6 115.144C155.582 115.015 155.515 114.899 155.412 114.82C155.362 114.781 155.304 114.752 155.242 114.735C155.18 114.718 155.115 114.714 155.052 114.722C154.988 114.731 154.927 114.752 154.871 114.784C154.816 114.816 154.767 114.859 154.728 114.91C154.653 115.021 154.57 115.13 154.487 115.238C154.059 114.918 153.675 114.543 153.346 114.121H153.378C153.591 114.067 153.808 114.032 154.026 114.017C154.148 113.992 154.255 113.922 154.327 113.822C154.398 113.721 154.429 113.597 154.413 113.474C154.397 113.352 154.336 113.24 154.241 113.161C154.145 113.082 154.024 113.042 153.9 113.049L153.89 113.02Z" fill="white"/> <path d="M154.528 105.117C154.728 104.978 154.943 104.864 155.169 104.775C155.113 104.609 155.029 104.453 154.921 104.315C153.952 103.08 153.517 104.315 152.761 104.333C152.582 104.328 152.404 104.361 152.239 104.429C152.073 104.498 151.924 104.6 151.8 104.729C151.893 104.764 151.985 104.804 152.073 104.851C152.106 104.869 152.134 104.893 152.155 104.923C152.177 104.953 152.192 104.987 152.199 105.023C152.206 105.059 152.205 105.096 152.195 105.132C152.186 105.168 152.169 105.201 152.145 105.229C152.054 105.346 151.928 105.431 151.785 105.47C151.74 105.474 151.694 105.474 151.648 105.47C151.683 105.657 151.741 105.838 151.821 106.01C151.918 106.217 152.039 106.412 152.181 106.59C152.262 106.548 152.345 106.511 152.43 106.478C152.465 106.467 152.503 106.464 152.54 106.47C152.576 106.476 152.611 106.49 152.642 106.512C152.672 106.534 152.697 106.562 152.715 106.595C152.732 106.628 152.742 106.664 152.743 106.701C152.732 106.834 152.698 106.963 152.642 107.083C152.834 107.251 153.042 107.398 153.265 107.522L153.333 107.479C153.383 107.451 153.435 107.426 153.488 107.403L153.582 107.367C153.623 107.356 153.666 107.355 153.707 107.364C153.749 107.374 153.787 107.393 153.819 107.421C153.851 107.451 153.874 107.488 153.887 107.529C153.899 107.57 153.901 107.614 153.891 107.655C153.88 107.7 153.866 107.743 153.848 107.785C154.129 107.886 154.431 107.915 154.726 107.868C154.834 107.643 154.929 107.412 155.011 107.177L154.784 107.115C154.699 107.094 154.625 107.043 154.575 106.971C154.551 106.935 154.534 106.894 154.526 106.85C154.518 106.807 154.519 106.762 154.528 106.719C154.548 106.633 154.601 106.558 154.676 106.511C154.713 106.487 154.754 106.471 154.798 106.463C154.841 106.456 154.885 106.457 154.928 106.467L155.198 106.532C155.287 106.171 155.326 105.799 155.313 105.427H155.292C155.156 105.491 155.028 105.566 154.906 105.654C154.832 105.693 154.746 105.703 154.665 105.681C154.584 105.66 154.514 105.609 154.469 105.538C154.424 105.468 154.407 105.383 154.421 105.3C154.435 105.218 154.48 105.143 154.546 105.092L154.528 105.117Z" fill="#20C0E8"/> <path opacity="0.3" d="M154.528 105.117C154.728 104.978 154.943 104.864 155.169 104.775C155.113 104.609 155.029 104.453 154.921 104.315C153.952 103.08 153.517 104.315 152.761 104.333C152.582 104.328 152.404 104.361 152.239 104.429C152.073 104.498 151.924 104.6 151.8 104.729C151.893 104.764 151.985 104.804 152.073 104.851C152.106 104.869 152.134 104.893 152.155 104.923C152.177 104.953 152.192 104.987 152.199 105.023C152.206 105.059 152.205 105.096 152.195 105.132C152.186 105.168 152.169 105.201 152.145 105.229C152.054 105.346 151.928 105.431 151.785 105.47C151.74 105.474 151.694 105.474 151.648 105.47C151.683 105.657 151.741 105.838 151.821 106.01C151.918 106.217 152.039 106.412 152.181 106.59C152.262 106.548 152.345 106.511 152.43 106.478C152.465 106.467 152.503 106.464 152.54 106.47C152.576 106.476 152.611 106.49 152.642 106.512C152.672 106.534 152.697 106.562 152.715 106.595C152.732 106.628 152.742 106.664 152.743 106.701C152.732 106.834 152.698 106.963 152.642 107.083C152.834 107.251 153.042 107.398 153.265 107.522L153.333 107.479C153.383 107.451 153.435 107.426 153.488 107.403L153.582 107.367C153.623 107.356 153.666 107.355 153.707 107.364C153.749 107.374 153.787 107.393 153.819 107.421C153.851 107.451 153.874 107.488 153.887 107.529C153.899 107.57 153.901 107.614 153.891 107.655C153.88 107.7 153.866 107.743 153.848 107.785C154.129 107.886 154.431 107.915 154.726 107.868C154.834 107.643 154.929 107.412 155.011 107.177L154.784 107.115C154.699 107.094 154.625 107.043 154.575 106.971C154.551 106.935 154.534 106.894 154.526 106.85C154.518 106.807 154.519 106.762 154.528 106.719C154.548 106.633 154.601 106.558 154.676 106.511C154.713 106.487 154.754 106.471 154.798 106.463C154.841 106.456 154.885 106.457 154.928 106.467L155.198 106.532C155.287 106.171 155.326 105.799 155.313 105.427H155.292C155.156 105.491 155.028 105.566 154.906 105.654C154.832 105.693 154.746 105.703 154.665 105.681C154.584 105.66 154.514 105.609 154.469 105.538C154.424 105.468 154.407 105.383 154.421 105.3C154.435 105.218 154.48 105.143 154.546 105.092L154.528 105.117Z" fill="white"/> <path d="M145.291 107.414C145.223 107.878 146.483 108.184 147.512 108.357C147.43 109.199 146.868 110.053 146.072 110.848C145.097 110.301 143.704 109.574 143.448 109.75C143.192 109.927 144.593 110.866 145.486 111.41C144.848 111.965 144.173 112.476 143.466 112.94C143.03 112.529 142.516 112.173 142.213 112.367C141.911 112.562 141.979 113.199 142.138 113.764C141.058 114.383 140.28 114.758 140.28 114.758C139.967 113.772 139.727 112.765 139.56 111.745C139.614 111.64 139.668 111.532 139.715 111.421C139.888 111.025 139.715 110.855 139.438 110.801C139.359 110.084 139.353 109.36 139.42 108.641C140.622 108.389 142.084 107.921 141.536 107.201C141.205 106.766 140.6 106.719 139.974 106.841C140.059 106.697 140.158 106.562 140.269 106.438C142.458 104.026 143.981 106.438 143.981 106.438C145.252 105.376 147.037 105.664 147.422 107.32C146.738 107.111 145.374 106.838 145.291 107.414Z" fill="#20C0E8"/> <path opacity="0.5" d="M145.291 107.414C145.223 107.878 146.483 108.184 147.512 108.357C147.43 109.199 146.868 110.053 146.072 110.848C145.097 110.301 143.704 109.574 143.448 109.75C143.192 109.927 144.593 110.866 145.486 111.41C144.848 111.965 144.173 112.476 143.466 112.94C143.03 112.529 142.516 112.173 142.213 112.367C141.911 112.562 141.979 113.199 142.138 113.764C141.058 114.383 140.28 114.758 140.28 114.758C139.967 113.772 139.727 112.765 139.56 111.745C139.614 111.64 139.668 111.532 139.715 111.421C139.888 111.025 139.715 110.855 139.438 110.801C139.359 110.084 139.353 109.36 139.42 108.641C140.622 108.389 142.084 107.921 141.536 107.201C141.205 106.766 140.6 106.719 139.974 106.841C140.059 106.697 140.158 106.562 140.269 106.438C142.458 104.026 143.981 106.438 143.981 106.438C145.252 105.376 147.037 105.664 147.422 107.32C146.738 107.111 145.374 106.838 145.291 107.414Z" fill="white"/> <path d="M33.5385 122.158C33.5385 122.158 31.8609 118.496 33.7761 114.886C35.6913 111.275 36.2493 110.425 35.0289 109.687C33.8085 108.949 33.2289 112.567 33.2289 112.567C32.6234 110.927 32.5615 109.136 33.0525 107.459C33.9021 104.849 34.4349 100.594 33.2721 100.136C32.1093 99.6791 33.0525 105.443 32.0445 107.408C31.5292 106.03 31.1975 104.589 31.0581 103.124C30.9177 101.026 31.1337 97.6775 30.2193 96.8171C29.3049 95.9567 28.7109 96.5507 29.6145 101.18C30.1556 103.948 30.4555 106.756 30.5109 109.576C30.5109 109.576 28.5309 103.51 27.1953 103.322C25.8597 103.135 25.8597 105.122 27.0045 106.814C28.1493 108.506 30.3561 111.577 30.7161 113.15C30.7161 113.15 28.5309 108.578 26.5653 109.982C24.5997 111.386 28.2753 114.14 29.9169 115.138C31.5585 116.135 32.6925 122.402 32.6925 122.402L33.5385 122.158Z" fill="#20C0E8"/> <path opacity="0.2" d="M33.5385 122.158C33.5385 122.158 31.8609 118.496 33.7761 114.886C35.6913 111.275 36.2493 110.425 35.0289 109.687C33.8085 108.949 33.2289 112.567 33.2289 112.567C32.6234 110.927 32.5615 109.136 33.0525 107.459C33.9021 104.849 34.4349 100.594 33.2721 100.136C32.1093 99.6791 33.0525 105.443 32.0445 107.408C31.5292 106.03 31.1975 104.589 31.0581 103.124C30.9177 101.026 31.1337 97.6775 30.2193 96.8171C29.3049 95.9567 28.7109 96.5507 29.6145 101.18C30.1556 103.948 30.4555 106.756 30.5109 109.576C30.5109 109.576 28.5309 103.51 27.1953 103.322C25.8597 103.135 25.8597 105.122 27.0045 106.814C28.1493 108.506 30.3561 111.577 30.7161 113.15C30.7161 113.15 28.5309 108.578 26.5653 109.982C24.5997 111.386 28.2753 114.14 29.9169 115.138C31.5585 116.135 32.6925 122.402 32.6925 122.402L33.5385 122.158Z" fill="black"/> <path d="M32.2141 123.661C32.2141 123.661 33.8485 119.974 31.8865 116.392C29.9245 112.81 29.3665 111.971 30.5725 111.212C31.7785 110.452 32.3725 114.074 32.3725 114.074C32.9587 112.428 33.0003 110.637 32.4913 108.965C31.6093 106.366 31.0261 102.125 32.1817 101.647C33.3373 101.168 32.4661 106.949 33.4993 108.897C33.9963 107.511 34.3098 106.066 34.4317 104.599C34.5469 102.5 34.2913 99.1553 35.1985 98.2805C36.1057 97.4057 36.6997 97.9925 35.8537 102.637C35.345 105.41 35.0788 108.223 35.0581 111.043C35.0581 111.043 36.9769 104.941 38.2981 104.743C39.6193 104.545 39.6553 106.51 38.5285 108.235C37.4017 109.959 35.2705 113.044 34.9393 114.625C34.9393 114.625 37.0705 110.02 39.0541 111.385C41.0377 112.749 37.3945 115.571 35.7673 116.594C34.1401 117.616 33.0745 123.884 33.0745 123.884L32.2141 123.661Z" fill="#20C0E8"/> <path d="M37.6892 121.933H27.9404L28.7324 128.91H36.9008L37.6892 121.933Z" fill="#263238"/> <path d="M112.589 38.158C112.589 38.158 113.205 41.5312 117.665 43.054C117.665 43.054 115.127 40.606 115.127 38.158H112.589Z" fill="#20C0E8"/> <path opacity="0.8" d="M112.589 38.158C112.589 38.158 113.205 41.5312 117.665 43.054C117.665 43.054 115.127 40.606 115.127 38.158H112.589Z" fill="white"/> <path d="M118.966 30.549H108.99C108.436 30.549 107.986 30.9987 107.986 31.5534V38.2098C107.986 38.7645 108.436 39.2142 108.99 39.2142H118.966C119.521 39.2142 119.97 38.7645 119.97 38.2098V31.5534C119.97 30.9987 119.521 30.549 118.966 30.549Z" fill="#20C0E8"/> <path opacity="0.8" d="M118.966 30.549H108.99C108.436 30.549 107.986 30.9987 107.986 31.5534V38.2098C107.986 38.7645 108.436 39.2142 108.99 39.2142H118.966C119.521 39.2142 119.97 38.7645 119.97 38.2098V31.5534C119.97 30.9987 119.521 30.549 118.966 30.549Z" fill="white"/> <path d="M111.549 34.8796C111.549 35.0113 111.51 35.14 111.437 35.2496C111.364 35.3591 111.26 35.4445 111.138 35.4949C111.016 35.5453 110.883 35.5585 110.753 35.5328C110.624 35.5071 110.505 35.4436 110.412 35.3505C110.319 35.2574 110.256 35.1387 110.23 35.0095C110.204 34.8803 110.218 34.7464 110.268 34.6247C110.318 34.503 110.404 34.399 110.513 34.3258C110.623 34.2526 110.752 34.2136 110.883 34.2136C110.971 34.2136 111.057 34.2308 111.138 34.2643C111.219 34.2977 111.292 34.3468 111.354 34.4086C111.416 34.4705 111.465 34.5439 111.499 34.6247C111.532 34.7055 111.549 34.7921 111.549 34.8796Z" fill="#20C0E8"/> <path d="M113.958 35.5456C114.326 35.5456 114.624 35.2474 114.624 34.8796C114.624 34.5117 114.326 34.2136 113.958 34.2136C113.591 34.2136 113.292 34.5117 113.292 34.8796C113.292 35.2474 113.591 35.5456 113.958 35.5456Z" fill="#20C0E8"/> <path d="M117.052 35.5456C117.42 35.5456 117.718 35.2474 117.718 34.8796C117.718 34.5117 117.42 34.2136 117.052 34.2136C116.684 34.2136 116.386 34.5117 116.386 34.8796C116.386 35.2474 116.684 35.5456 117.052 35.5456Z" fill="#20C0E8"/> <path d="M98.903 47.245C98.903 47.245 98.291 50.6218 93.8306 52.1446C93.8306 52.1446 96.3506 49.693 96.3506 47.245H98.903Z" fill="#20C0E8"/> <path opacity="0.8" d="M98.903 47.245C98.903 47.245 98.291 50.6218 93.8306 52.1446C93.8306 52.1446 96.3506 49.693 96.3506 47.245H98.903Z" fill="white"/> <path d="M92.539 48.3104H102.515C103.069 48.3104 103.519 47.8607 103.519 47.306V40.6496C103.519 40.0948 103.069 39.6452 102.515 39.6452H92.539C91.9843 39.6452 91.5346 40.0948 91.5346 40.6496V47.306C91.5346 47.8607 91.9843 48.3104 92.539 48.3104Z" fill="#20C0E8"/> <path opacity="0.8" d="M92.539 48.3104H102.515C103.069 48.3104 103.519 47.8607 103.519 47.306V40.6496C103.519 40.0948 103.069 39.6452 102.515 39.6452H92.539C91.9843 39.6452 91.5346 40.0948 91.5346 40.6496V47.306C91.5346 47.8607 91.9843 48.3104 92.539 48.3104Z" fill="white"/> <path d="M99.9478 43.9764C99.9471 44.1083 99.9855 44.2374 100.058 44.3474C100.131 44.4574 100.235 44.5433 100.356 44.5943C100.478 44.6453 100.612 44.659 100.741 44.6337C100.871 44.6084 100.99 44.5452 101.083 44.4522C101.177 44.3592 101.241 44.2406 101.267 44.1113C101.293 43.982 101.28 43.8479 101.229 43.726C101.179 43.6041 101.094 43.4999 100.984 43.4265C100.875 43.3532 100.746 43.314 100.614 43.314C100.438 43.314 100.269 43.3837 100.144 43.5078C100.019 43.6319 99.9487 43.8004 99.9478 43.9764Z" fill="#20C0E8"/> <path d="M96.854 43.9764C96.8533 44.1085 96.8918 44.2377 96.9648 44.3478C97.0377 44.4579 97.1416 44.5438 97.2635 44.5946C97.3853 44.6455 97.5195 44.659 97.6491 44.6334C97.7786 44.6078 97.8976 44.5443 97.9909 44.451C98.0843 44.3576 98.1478 44.2386 98.1734 44.1091C98.199 43.9796 98.1855 43.8453 98.1346 43.7235C98.0838 43.6017 97.9978 43.4977 97.8878 43.4248C97.7777 43.3519 97.6484 43.3133 97.5164 43.314C97.3407 43.314 97.1722 43.3838 97.048 43.508C96.9238 43.6323 96.854 43.8008 96.854 43.9764Z" fill="#20C0E8"/> <path d="M93.7788 43.9764C93.7781 44.1083 93.8166 44.2374 93.8893 44.3474C93.9621 44.4574 94.0658 44.5433 94.1875 44.5943C94.3091 44.6453 94.4431 44.659 94.5725 44.6337C94.702 44.6084 94.821 44.5452 94.9145 44.4522C95.008 44.3592 95.0718 44.2406 95.0977 44.1113C95.1237 43.982 95.1108 43.8479 95.0605 43.726C95.0102 43.6041 94.9248 43.4999 94.8152 43.4265C94.7056 43.3532 94.5767 43.314 94.4448 43.314C94.2688 43.314 94.1 43.3837 93.9752 43.5078C93.8504 43.6319 93.7798 43.8004 93.7788 43.9764Z" fill="#20C0E8"/> <path d="M73.5431 36.1319C73.5431 36.1319 72.9311 39.5051 68.4707 41.0279C68.4707 41.0279 70.9907 38.5799 70.9907 36.1319H73.5431Z" fill="#20C0E8"/> <path opacity="0.8" d="M73.5431 36.1319C73.5431 36.1319 72.9311 39.5051 68.4707 41.0279C68.4707 41.0279 70.9907 38.5799 70.9907 36.1319H73.5431Z" fill="white"/> <path d="M75.826 28.5275H68.8384C68.2837 28.5275 67.834 28.9772 67.834 29.5319V36.1883C67.834 36.743 68.2837 37.1927 68.8384 37.1927H75.826C76.3807 37.1927 76.8304 36.743 76.8304 36.1883V29.5319C76.8304 28.9772 76.3807 28.5275 75.826 28.5275Z" fill="#20C0E8"/> <path opacity="0.8" d="M75.826 28.5275H68.8384C68.2837 28.5275 67.834 28.9772 67.834 29.5319V36.1883C67.834 36.743 68.2837 37.1927 68.8384 37.1927H75.826C76.3807 37.1927 76.8304 36.743 76.8304 36.1883V29.5319C76.8304 28.9772 76.3807 28.5275 75.826 28.5275Z" fill="white"/> <path d="M74.1024 40.4878C74.1024 39.9416 74.2232 39.49 74.4648 39.1328C74.7169 38.7757 75.0792 38.3819 75.5519 37.9512C75.8985 37.6361 76.1506 37.3735 76.3081 37.1635C76.4762 36.9429 76.5602 36.6961 76.5602 36.423C76.5602 36.0344 76.4026 35.7298 76.0875 35.5092C75.7829 35.2781 75.3733 35.1626 74.8587 35.1626C74.365 35.1626 73.9239 35.2676 73.5352 35.4777C73.1571 35.6773 72.8368 35.9608 72.5742 36.3285L70.6678 35.2099C71.109 34.5377 71.7024 34.0177 72.4481 33.6501C73.2044 33.2825 74.0972 33.0987 75.1265 33.0987C76.3344 33.0987 77.3007 33.356 78.0254 33.8707C78.7606 34.3854 79.1282 35.0996 79.1282 36.0134C79.1282 36.444 79.0547 36.8221 78.9077 37.1477C78.7711 37.4733 78.5978 37.7517 78.3878 37.9827C78.1882 38.2033 77.9256 38.4606 77.6 38.7547C77.2114 39.1013 76.9278 39.3954 76.7492 39.637C76.5707 39.8681 76.4814 40.1517 76.4814 40.4878H74.1024ZM75.2998 44.4423C74.8692 44.4423 74.5068 44.3057 74.2127 44.0326C73.9291 43.749 73.7873 43.4077 73.7873 43.0086C73.7873 42.6094 73.9291 42.2786 74.2127 42.016C74.4963 41.7429 74.8587 41.6064 75.2998 41.6064C75.7409 41.6064 76.1033 41.7429 76.3869 42.016C76.6705 42.2786 76.8123 42.6094 76.8123 43.0086C76.8123 43.4077 76.6652 43.749 76.3711 44.0326C76.0875 44.3057 75.7304 44.4423 75.2998 44.4423Z" fill="#20C0E8"/> <path d="M121.873 52.672C121.372 52.4809 120.815 52.4964 120.325 52.715C119.835 52.9337 119.452 53.3376 119.259 53.8384V53.86C118.899 54.7816 118.539 55.75 118.179 56.6896C117.819 57.6292 117.431 58.5724 117.042 59.4976C116.653 60.4228 116.239 61.33 115.811 62.1976C115.598 62.6296 115.368 63.0508 115.145 63.4468C115.04 63.6232 114.932 63.8068 114.828 63.9508C114.738 63.8284 114.648 63.6952 114.558 63.5584C114.252 63.0868 113.957 62.5684 113.665 62.0356C113.373 61.5028 113.085 60.9556 112.805 60.4228L112.783 60.3832C112.671 60.1769 112.49 60.016 112.272 59.9279C112.055 59.8399 111.813 59.83 111.589 59.9001C111.365 59.9701 111.172 60.1158 111.043 60.3122C110.914 60.5086 110.857 60.7436 110.882 60.9772C110.963 61.6437 111.084 62.3048 111.242 62.9572C111.4 63.6218 111.6 64.2759 111.84 64.9156C111.974 65.2596 112.127 65.5961 112.297 65.9236C112.496 66.3143 112.746 66.6774 113.039 67.0036C113.247 67.2396 113.489 67.4423 113.759 67.6048C114.176 67.8677 114.662 68.0005 115.155 67.9864C115.439 67.9758 115.719 67.9174 115.983 67.8136C116.203 67.7186 116.411 67.5978 116.603 67.4536C116.809 67.2959 116.997 67.116 117.164 66.9172C117.588 66.4588 117.977 65.969 118.327 65.452L118.406 65.3332C118.705 64.8904 118.968 64.4512 119.22 64.0084C119.774 63.0472 120.257 62.0824 120.71 61.1284C120.876 60.7684 121.038 60.4084 121.193 60.0484C121.47 59.4292 121.729 58.8064 121.981 58.18C122.37 57.1864 122.751 56.218 123.093 55.1848C123.252 54.6893 123.214 54.1519 122.987 53.6839C122.759 53.216 122.36 52.8536 121.873 52.672Z" fill="#263238"/> <path opacity="0.2" d="M121.163 60.0595C121.008 60.4195 120.846 60.7795 120.681 61.1395C120.227 62.1115 119.745 63.0763 119.19 64.0195C118.938 64.4623 118.676 64.9015 118.377 65.3443C117.848 62.4031 119.691 58.8931 119.691 58.8931C120.195 58.9867 120.699 59.4187 121.163 60.0595Z" fill="black"/> <path d="M135.187 63.9047C135.187 64.4303 135.144 64.9847 135.115 65.5283C135.025 67.1771 134.87 68.9807 134.636 70.9283C134.562 71.5763 134.476 72.2423 134.38 72.9263L119.08 73.1891C118.335 71.1515 117.666 66.7559 119.761 62.9327C119.761 60.4883 119.16 57.7811 119.084 55.1639C119.037 53.5259 120.459 52.0211 122.4 51.6791C125.373 51.1874 128.395 51.0557 131.4 51.2867C133.048 51.3983 134.348 52.3883 134.604 53.7599C134.854 55.1772 135.025 56.6075 135.115 58.0439C135.216 59.6819 135.262 61.6331 135.187 63.9047Z" fill="#263238"/> <path d="M123.98 51.1668C123.621 51.3326 123.338 51.6267 123.185 51.9912C123.032 52.3557 123.022 52.7641 123.156 53.136C123.3 53.6749 123.579 54.1683 123.966 54.57C124.354 54.9717 124.836 55.2685 125.37 55.4328C125.985 55.5624 129.636 53.6328 130.093 51.9228C130.55 50.2128 123.98 51.1668 123.98 51.1668Z" fill="#20C0E8"/> <path opacity="0.5" d="M123.98 51.1668C123.621 51.3326 123.338 51.6267 123.185 51.9912C123.032 52.3557 123.022 52.7641 123.156 53.136C123.3 53.6749 123.579 54.1683 123.966 54.57C124.354 54.9717 124.836 55.2685 125.37 55.4328C125.985 55.5624 129.636 53.6328 130.093 51.9228C130.55 50.2128 123.98 51.1668 123.98 51.1668Z" fill="white"/> <path opacity="0.2" d="M135.131 65.52C135.041 67.1688 134.886 68.9724 134.652 70.92C132.852 70.884 130.174 70.6644 129.529 69.6996C128.543 68.22 129.328 67.3416 129.328 67.3416C129.328 67.3416 133.543 66.4128 135.131 65.52Z" fill="black"/> <path opacity="0.2" d="M135.199 63.9044C133.262 61.9532 132.766 55.9844 132.766 55.9844C132.766 55.9844 133.885 56.8556 135.12 58.0472C135.228 59.6816 135.275 61.6328 135.199 63.9044Z" fill="black"/> <path d="M111.688 62.2043L108.808 61.3763L110.892 58.8995C110.892 58.8995 113.322 59.6195 112.933 61.1279L111.688 62.2043Z" fill="#FF8B7B"/> <path d="M107.891 59.5521L108.611 58.4109C108.67 58.3137 108.749 58.2294 108.842 58.1632C108.934 58.097 109.04 58.0503 109.151 58.0257C109.262 58.0012 109.377 57.9994 109.489 58.0204C109.601 58.0414 109.708 58.0849 109.803 58.1481L110.922 58.8969L108.838 61.3737L108.042 60.6033C107.9 60.4721 107.808 60.296 107.78 60.1046C107.753 59.9132 107.792 59.7181 107.891 59.5521Z" fill="#FF8B7B"/> <path d="M118.994 127.264L121.903 127.31C121.956 127.31 122.007 127.329 122.046 127.363C122.086 127.398 122.112 127.446 122.119 127.498L122.479 129.877C122.487 129.936 122.483 129.996 122.466 130.053C122.449 130.11 122.419 130.162 122.38 130.207C122.341 130.251 122.292 130.287 122.238 130.311C122.183 130.335 122.124 130.346 122.065 130.345C121.014 130.309 119.502 130.226 118.181 130.205C116.636 130.18 116.791 130.244 114.98 130.205C113.9 130.205 113.655 129.074 114.12 128.981C116.233 128.56 116.449 128.534 118.321 127.451C118.525 127.329 118.757 127.265 118.994 127.264Z" fill="#263238"/> <path d="M123.352 99.3586C126.592 85.7362 129.695 79.825 128.468 73.0786L119.061 73.1902C119.061 73.1902 115.353 91.7194 116.141 99.7078C116.962 108.017 118.161 127.352 118.161 127.352L122.456 127.413C122.456 127.413 124.958 108.65 123.352 99.3586Z" fill="#20C0E8"/> <path opacity="0.3" d="M123.352 99.3586C126.592 85.7362 129.695 79.825 128.468 73.0786L119.061 73.1902C119.061 73.1902 115.353 91.7194 116.141 99.7078C116.962 108.017 118.161 127.352 118.161 127.352L122.456 127.413C122.456 127.413 124.958 108.65 123.352 99.3586Z" fill="black"/> <path opacity="0.2" d="M123.856 97.4317C125.595 90.4873 127.226 85.6597 128.101 81.6133C121.991 83.8093 122.513 91.4197 123.856 97.4317Z" fill="black"/> <path d="M133.665 127.261L136.573 127.308C136.625 127.308 136.674 127.328 136.712 127.362C136.749 127.397 136.773 127.444 136.779 127.495L137.034 129.875C137.039 129.935 137.031 129.995 137.01 130.052C136.99 130.109 136.959 130.161 136.917 130.205C136.876 130.249 136.826 130.284 136.771 130.308C136.715 130.331 136.655 130.343 136.595 130.343C135.547 130.307 135.22 130.224 133.899 130.202C132.358 130.177 133.067 130.242 131.26 130.202C130.18 130.202 129.993 129.079 130.461 128.978C131.94 128.669 132.329 128.078 132.999 127.448C133.189 127.305 133.427 127.238 133.665 127.261Z" fill="#263238"/> <path d="M133.312 99.3588C134.774 85.7364 136.494 79.674 134.392 72.9204L124.586 73.1832C124.586 73.1832 124.319 91.7124 126.159 99.7008C128.074 108.01 132.542 127.345 132.542 127.345L136.862 127.406C136.862 127.406 136.138 108.65 133.312 99.3588Z" fill="#20C0E8"/> <path opacity="0.3" d="M133.312 99.3588C134.774 85.7364 136.494 79.674 134.392 72.9204L124.586 73.1832C124.586 73.1832 124.319 91.7124 126.159 99.7008C128.074 108.01 132.542 127.345 132.542 127.345L136.862 127.406C136.862 127.406 136.138 108.65 133.312 99.3588Z" fill="black"/> <path d="M128.166 47.5376C128.166 49.1036 128.26 50.936 129.542 52.0376C128.821 52.9988 127.443 54.4712 125.445 54.2156C123.245 53.9348 123.67 51.9368 124.156 51.3104C125.236 50.6876 124.937 49.7516 124.815 49.1L128.166 47.5376Z" fill="#FF8B7B"/> <path opacity="0.2" d="M127.434 48.183C127.434 48.0858 127.434 47.985 127.434 47.8878L124.824 49.1046C124.952 49.5429 124.977 50.005 124.896 50.4546C126.149 50.073 127.405 49.1298 127.434 48.183Z" fill="black"/> <path d="M129.491 43.1988C129.156 45.8232 129.095 47.3748 127.673 48.6312C125.538 50.5176 122.359 49.0668 121.913 46.3884C121.503 43.98 122.118 40.092 124.768 39.2352C125.354 39.0469 125.979 39.0104 126.583 39.129C127.187 39.2475 127.752 39.5174 128.223 39.9132C128.695 40.3091 129.059 40.8181 129.281 41.3927C129.502 41.9673 129.575 42.5887 129.491 43.1988Z" fill="#FF8B7B"/> <path d="M125.259 43.7368C125.259 43.9528 125.119 44.1184 124.978 44.0968C124.838 44.0752 124.737 43.9024 124.751 43.69C124.766 43.4776 124.888 43.3084 125.029 43.33C125.169 43.3516 125.277 43.5244 125.259 43.7368Z" fill="#263238"/> <path d="M122.587 43.622C122.587 43.838 122.45 44.0036 122.31 43.982C122.169 43.9604 122.065 43.7876 122.079 43.5752C122.094 43.3628 122.22 43.1936 122.36 43.2152C122.501 43.2368 122.601 43.406 122.587 43.622Z" fill="#263238"/> <path d="M123.387 43.8989C123.049 44.5157 122.627 45.0826 122.134 45.5837C122.266 45.7076 122.423 45.8013 122.594 45.8585C122.766 45.9157 122.948 45.9349 123.127 45.9149L123.387 43.8989Z" fill="#FF5652"/> <path d="M125.772 42.3124C125.794 42.3084 125.815 42.3011 125.834 42.2908C125.861 42.2718 125.881 42.2428 125.887 42.2099C125.894 42.1769 125.888 42.1427 125.87 42.1144C125.763 41.9434 125.618 41.8002 125.445 41.6969C125.272 41.5936 125.077 41.5331 124.876 41.5204C124.859 41.5199 124.843 41.5228 124.827 41.529C124.812 41.5351 124.798 41.5444 124.786 41.5562C124.774 41.568 124.765 41.5821 124.759 41.5976C124.752 41.6131 124.75 41.6297 124.75 41.6464C124.75 41.6629 124.753 41.6793 124.76 41.6946C124.766 41.7099 124.775 41.7238 124.787 41.7355C124.799 41.7472 124.813 41.7565 124.828 41.7628C124.843 41.7691 124.86 41.7724 124.876 41.7724C125.035 41.7849 125.189 41.8352 125.325 41.9191C125.461 42.003 125.575 42.1181 125.657 42.2548C125.67 42.2731 125.688 42.2879 125.708 42.298C125.728 42.308 125.75 42.313 125.772 42.3124Z" fill="#263238"/> <path d="M121.762 42.5283C121.783 42.5325 121.803 42.5313 121.823 42.525C121.843 42.5187 121.86 42.5074 121.874 42.4923C121.981 42.3753 122.114 42.2856 122.262 42.2305C122.411 42.1754 122.57 42.1565 122.727 42.1755C122.744 42.1786 122.76 42.1785 122.777 42.1751C122.793 42.1717 122.808 42.1652 122.822 42.1558C122.836 42.1464 122.847 42.1344 122.857 42.1205C122.866 42.1066 122.872 42.091 122.875 42.0747C122.878 42.0584 122.878 42.0416 122.874 42.0254C122.871 42.0091 122.865 41.9937 122.855 41.9799C122.846 41.9662 122.834 41.9545 122.82 41.9454C122.806 41.9364 122.79 41.9301 122.774 41.9271C122.576 41.9002 122.374 41.9216 122.186 41.9893C121.998 42.0569 121.83 42.169 121.694 42.3159C121.682 42.3276 121.673 42.3416 121.666 42.3571C121.66 42.3725 121.656 42.3891 121.656 42.4059C121.656 42.4227 121.66 42.4393 121.666 42.4547C121.673 42.4702 121.682 42.4842 121.694 42.4959C121.712 42.5143 121.737 42.5258 121.762 42.5283Z" fill="#263238"/> <path d="M123.307 46.4398C123.564 46.7721 123.797 47.1222 124.005 47.4874L124.214 47.4082C125.153 47.0482 125.47 46.573 125.539 46.1518C125.576 45.8276 125.5 45.5006 125.323 45.2266C124.937 45.7126 124.088 46.1158 123.623 46.3066C123.433 46.4038 123.307 46.4398 123.307 46.4398Z" fill="#263238"/> <path d="M123.625 46.3178L123.841 46.6202C124.723 46.2782 125.303 45.9182 125.475 45.5402C125.439 45.4297 125.388 45.3244 125.324 45.227C124.939 45.7166 124.089 46.1198 123.625 46.3178Z" fill="white"/> <path d="M124.206 47.4146C125.146 47.0546 125.462 46.5794 125.531 46.1582C125.176 46.3024 124.849 46.5083 124.566 46.7666C124.38 46.939 124.254 47.1659 124.206 47.4146Z" fill="#DE5753"/> <path d="M123.193 40.2972C123.193 40.2972 122.412 39.8436 122.887 38.6988C123.362 37.554 127.887 38.3892 129.867 40.1388C131.847 41.8884 129.226 45.2328 129.226 45.2328L128.013 45.9169C128.013 45.9169 126.847 43.2169 127.653 41.2368C127.161 40.8733 126.649 40.5379 126.12 40.2324C125.785 40.0848 124.24 41.064 123.193 40.2972Z" fill="#263238"/> <path d="M130.188 45.9492C129.829 46.5083 129.263 46.903 128.615 47.0472C127.754 47.2272 127.373 46.4424 127.654 45.6576C127.906 44.9376 128.662 44.0052 129.508 44.1744C129.692 44.2148 129.863 44.3002 130.006 44.4231C130.149 44.546 130.259 44.7024 130.326 44.8784C130.394 45.0544 130.416 45.2444 130.392 45.4313C130.368 45.6182 130.298 45.7962 130.188 45.9492Z" fill="#FF8B7B"/> <path d="M139.894 65.0333C139.894 64.9217 139.894 64.7705 139.872 64.7201L139.825 64.2953C139.786 64.0181 139.746 63.7373 139.692 63.4709C139.246 61.4228 138.532 59.4425 137.568 57.5813C137.111 56.6741 136.628 55.7813 136.103 54.9317C135.844 54.4997 135.577 54.0749 135.3 53.6537C135.023 53.2325 134.749 52.8293 134.425 52.3829C134.108 51.9639 133.641 51.6847 133.121 51.6044C132.602 51.524 132.072 51.6488 131.643 51.9523C131.214 52.2559 130.92 52.7143 130.823 53.2307C130.727 53.7471 130.834 54.281 131.124 54.7193L131.142 54.7517C131.376 55.0901 131.639 55.4969 131.884 55.8749C132.128 56.2529 132.38 56.6525 132.604 57.0449C133.079 57.8369 133.547 58.6253 133.975 59.4317C134.841 60.9669 135.53 62.5948 136.031 64.2845C136.092 64.4861 136.128 64.6805 136.175 64.8785L136.229 65.1701C136.229 65.2385 136.229 65.2097 136.229 65.2169C136.229 65.2241 136.229 65.2169 136.229 65.2169C136.229 65.2169 136.258 65.1701 136.268 65.1845C136.279 65.1989 136.268 65.2529 136.2 65.3285C136 65.5498 135.762 65.7339 135.498 65.8721C135.153 66.0755 134.792 66.2501 134.418 66.3941C133.583 66.7139 132.728 66.9809 131.858 67.1933C131.412 67.3013 130.962 67.4165 130.505 67.5173C130.048 67.6181 129.58 67.7045 129.144 67.7945H129.086C128.844 67.8395 128.627 67.972 128.476 68.1668C128.325 68.3615 128.251 68.605 128.268 68.8508C128.285 69.0966 128.392 69.3277 128.568 69.5C128.744 69.6723 128.977 69.7738 129.223 69.7853C131.273 69.9442 133.334 69.8035 135.343 69.3677C135.891 69.2392 136.428 69.0682 136.949 68.8565C137.569 68.6039 138.142 68.2485 138.644 67.8053C138.965 67.519 139.236 67.1807 139.444 66.8045C139.684 66.3686 139.826 65.8859 139.861 65.3897C139.89 65.2781 139.901 65.1593 139.894 65.0333Z" fill="#263238"/> <path d="M128.664 50.5259C128.729 51.1343 128.002 53.2907 125.453 54.2159C126.436 54.2159 126.864 55.4687 126.864 55.4687C126.864 55.4687 130.245 53.6687 129.842 51.5087C129.791 51.2331 129.646 50.984 129.431 50.8044C129.216 50.6249 128.944 50.5263 128.664 50.5259Z" fill="#20C0E8"/> <path d="M124.648 50.6934C124.713 51.2874 124.022 52.5402 125.44 54.2178C124.454 54.2178 123.867 55.2042 123.867 55.2042C123.487 54.611 123.262 53.932 123.213 53.2294C123.164 52.5268 123.292 51.8231 123.586 51.183C123.882 50.9154 124.253 50.7446 124.648 50.6934Z" fill="#20C0E8"/> <path d="M118.867 72.6022L118.777 74.665L134.725 74.233L134.463 72.1738L118.867 72.6022Z" fill="#20C0E8"/> <path opacity="0.3" d="M118.867 72.6022L118.777 74.665L134.725 74.233L134.463 72.1738L118.867 72.6022Z" fill="black"/> <path d="M133.188 73.6613L134.75 73.6325L134.541 72.5957L133.188 72.6245V73.6613Z" fill="#263238"/> <path d="M132.763 72.6309L127.119 72.7533V73.7757L132.763 73.6677V72.6309Z" fill="#263238"/> <path d="M120.009 72.9028L118.777 72.9316V73.9288L120.009 73.9072V72.9028Z" fill="#263238"/> <path d="M120.391 72.8932V73.8976L126.557 73.7824V72.7636L120.391 72.8932Z" fill="#263238"/> <path d="M123.723 74.0931H122.399C122.316 74.0932 122.237 74.0606 122.178 74.0027C122.12 73.9447 122.086 73.866 122.085 73.7835V72.9987C122.085 72.9169 122.117 72.8383 122.175 72.7798C122.232 72.7213 122.31 72.6874 122.391 72.6855L123.716 72.6567C123.8 72.6594 123.88 72.6913 123.943 72.7467C123.973 72.7759 123.996 72.8106 124.012 72.8489C124.028 72.8873 124.037 72.9284 124.037 72.9699V73.7979C124.032 73.8779 123.997 73.953 123.939 74.0079C123.881 74.0628 123.803 74.0933 123.723 74.0931ZM122.417 73.0131V73.7979L123.723 73.7763L123.705 72.9843L122.417 73.0131Z" fill="white"/> <path d="M123.613 73.5422H123.228C123.184 73.5413 123.143 73.5235 123.112 73.4927C123.081 73.4618 123.063 73.4202 123.062 73.3766C123.062 73.3327 123.08 73.2905 123.111 73.2595C123.142 73.2284 123.184 73.211 123.228 73.211H123.613C123.635 73.2105 123.657 73.2144 123.677 73.2226C123.698 73.2307 123.716 73.2429 123.731 73.2584C123.747 73.2739 123.759 73.2923 123.767 73.3126C123.775 73.3329 123.779 73.3547 123.779 73.3766C123.779 73.4205 123.761 73.4626 123.73 73.4937C123.699 73.5247 123.657 73.5422 123.613 73.5422Z" fill="white"/> <path d="M124.755 69.7104H127.444L127.934 64.9224H124.262L124.755 69.7104Z" fill="#20C0E8"/> <path d="M124.057 65.125H128.125V64.6426H124.057V65.125Z" fill="white"/> <path d="M124.894 67.1807C124.925 67.3685 125.009 67.5436 125.136 67.6852C125.263 67.8268 125.428 67.929 125.612 67.9797C125.795 68.0305 125.989 68.0277 126.171 67.9717C126.353 67.9157 126.515 67.8087 126.638 67.6636C126.762 67.5184 126.84 67.341 126.866 67.1523C126.892 66.9637 126.863 66.7717 126.782 66.599C126.702 66.4264 126.574 66.2802 126.414 66.1779C126.253 66.0755 126.067 66.0213 125.877 66.0215C125.593 66.0462 125.331 66.1819 125.147 66.399C124.963 66.616 124.872 66.897 124.894 67.1807Z" fill="white"/> <path d="M130.371 67.656L127.804 66.8208L127.707 70.0608C127.707 70.0608 130.123 70.536 130.587 69.2904L130.371 67.656Z" fill="#FF8B7B"/> <path d="M125.322 68.0689L125.477 69.2101C125.507 69.4298 125.615 69.6314 125.78 69.7791C125.946 69.9268 126.159 70.0109 126.38 70.0165L127.734 70.0525L127.831 66.8125L126.139 67.0105C126.015 67.0246 125.895 67.0635 125.787 67.1247C125.678 67.186 125.583 67.2684 125.507 67.367C125.431 67.4657 125.375 67.5787 125.343 67.6992C125.312 67.8198 125.304 67.9455 125.322 68.0689Z" fill="#FF8B7B"/> <path opacity="0.7" d="M128.664 50.5259C128.729 51.1343 128.002 53.2907 125.453 54.2159C126.436 54.2159 126.864 55.4687 126.864 55.4687C126.864 55.4687 130.245 53.6687 129.842 51.5087C129.791 51.2331 129.646 50.984 129.431 50.8044C129.216 50.6249 128.944 50.5263 128.664 50.5259Z" fill="white"/> <path opacity="0.7" d="M124.648 50.6934C124.713 51.2874 124.022 52.5402 125.44 54.2178C124.454 54.2178 123.867 55.2042 123.867 55.2042C123.487 54.611 123.262 53.932 123.213 53.2294C123.164 52.5268 123.292 51.8231 123.586 51.183C123.882 50.9154 124.253 50.7446 124.648 50.6934Z" fill="white"/> <path d="M104.681 67.6991L107.42 67.3391L106.254 64.9559C106.254 64.9559 103.734 65.6939 103.806 66.5111L104.681 67.6991Z" fill="#FFB573"/> <path d="M108.821 65.3113L107.579 63.8641L106.261 64.9693L107.428 67.3525L108.821 65.3113Z" fill="#FFB573"/> <path d="M91.1498 63.4009C91.1498 63.4009 93.0398 68.0521 96.107 69.7477C99.1742 71.4433 104.949 67.7029 104.949 67.7029L104.056 66.0505C104.056 66.0505 97.6982 67.6093 97.4354 67.3717C97.1726 67.1341 94.3286 59.4517 90.689 58.4149L91.1498 63.4009Z" fill="#20C0E8"/> <path opacity="0.7" d="M104.975 67.7023C104.975 67.7023 99.2149 71.4427 96.1297 69.7435C95.1082 69.1348 94.2174 68.3297 93.5089 67.3747C92.5672 66.1578 91.7823 64.8274 91.1725 63.4147L90.7261 58.4251C94.3621 59.4511 97.2061 67.1479 97.4725 67.3855C97.7389 67.6231 104.078 66.0463 104.078 66.0463L104.975 67.7023Z" fill="white"/> <path opacity="0.1" d="M93.4976 67.3755C92.8962 66.6072 92.3625 65.7881 91.9028 64.9275C91.9428 64.2817 92.1392 63.6553 92.4752 63.1023C92.4752 63.1023 93.746 64.6179 93.4976 67.3755Z" fill="black"/> <path d="M81.7805 45.6435C81.7805 45.6435 83.8685 42.8031 87.6305 44.9235C92.4509 47.6163 89.6465 60.2055 89.6465 60.2055L81.3665 61.5483C81.3665 61.5483 76.3229 46.7271 81.7805 45.6435Z" fill="#263238"/> <path d="M92.319 74.7977C92.319 74.7977 94.1441 88.9889 93.9821 98.0033C94.6157 106.456 95.1486 124.197 96.1062 126.112C96.0738 126.544 94.5078 126.631 94.101 126.371C94.101 126.371 87.8442 111.727 88.701 98.0033C82.8942 83.6897 83.2398 74.7977 83.2398 74.7977H92.319Z" fill="#FFB573"/> <path d="M89.8529 74.7977C89.8529 74.7977 85.7021 90.8177 84.0569 98.6837C82.3325 106.942 80.5613 116.921 80.5361 126.317C80.0753 126.591 79.5605 126.994 78.6245 126.706C78.6245 126.706 74.5817 107.893 78.3077 99.0473C76.6733 79.4777 81.8501 74.7977 81.8501 74.7977H89.8529Z" fill="#FFB573"/> <path d="M81.77 74.435L92.1776 75.875C92.3036 73.6682 93.3224 62.771 93.29 61.8098C93.2288 60.0098 91.7204 58.4474 89.8088 58.2098C89.2796 58.1414 88.7288 58.0766 88.1924 58.0334C86.5539 57.9216 84.9097 57.9216 83.2712 58.0334C82.8032 58.055 82.3496 58.091 81.9212 58.1306C80.3156 58.2854 79.2068 59.7578 79.7612 61.2194C80.4596 63.0518 81.5468 72.9662 81.77 74.435Z" fill="#20C0E8"/> <path opacity="0.7" d="M93.2923 61.8018C93.3211 62.7666 92.3059 73.6602 92.1799 75.8706L81.7723 74.4306C81.7471 74.2686 81.7147 74.013 81.6715 73.6818C81.5419 72.663 81.3331 70.9242 81.0919 69.045C80.9875 68.2674 80.8831 67.461 80.7679 66.6762C80.5663 65.2362 80.3575 63.8718 80.1595 62.8278C80.0671 62.2738 79.9335 61.7275 79.7599 61.1934C79.2091 59.7246 80.3143 58.2522 81.9199 58.101C82.3483 58.0614 82.8019 58.029 83.2699 58.0038C84.9074 57.8957 86.5501 57.8957 88.1875 58.0038C88.7239 58.0506 89.2675 58.1154 89.8075 58.1838C91.7227 58.4394 93.2347 60.0054 93.2923 61.8018Z" fill="white"/> <path d="M83.6058 52.4735C84.0342 54.0575 84.5598 56.9591 83.5302 58.0139C83.5302 58.0139 82.7922 59.4035 86.9718 59.2739C87.3318 60.1451 88.0518 61.7399 88.0518 61.7399C88.0518 61.7399 88.1022 59.8643 87.8142 59.2199C90.4998 58.9895 88.4622 58.0031 88.4622 58.0031C86.6622 57.5819 86.6118 56.2715 86.8278 55.0403L83.6058 52.4735Z" fill="#FFB573"/> <path opacity="0.2" d="M84.9189 53.5282L86.8197 55.0546C86.7626 55.3427 86.7336 55.6357 86.7333 55.9294C86.0493 55.8322 85.0701 55.0906 84.9333 54.385C84.8758 54.1027 84.871 53.8123 84.9189 53.5282Z" fill="black"/> <path d="M82.142 49.7229C82.5956 52.1349 82.7396 53.1609 84.122 54.3165C86.2064 56.0517 89.0648 55.1337 89.3384 52.6785C89.5832 50.4681 88.7984 46.9005 86.3 46.1049C85.7714 45.9137 85.2013 45.8673 84.6488 45.9704C84.0962 46.0735 83.5813 46.3224 83.1572 46.6914C82.7332 47.0604 82.4155 47.536 82.237 48.069C82.0585 48.602 82.0257 49.173 82.142 49.7229Z" fill="#FFB573"/> <path d="M84.2381 47.9812C82.8989 49.6984 85.6493 51.6712 82.8989 51.556C80.1485 51.4408 81.2681 47.596 82.8989 46.7104C84.5297 45.8248 84.2381 47.9812 84.2381 47.9812Z" fill="#263238"/> <path d="M82.9175 46.7403C83.2775 48.3819 83.5259 48.8103 84.9983 48.3639C84.7789 48.0342 84.682 47.638 84.7247 47.2443C84.8716 47.64 85.1657 47.9637 85.5455 48.1479C85.9408 47.9849 86.3523 47.8643 86.7731 47.7879C86.6927 47.5569 86.668 47.3102 86.7011 47.0679C86.8169 47.3402 87.0095 47.5729 87.2555 47.7375C87.7078 47.745 88.1562 47.824 88.5839 47.9715C88.5947 46.2363 85.6247 44.3715 82.9175 46.7403Z" fill="#263238"/> <path d="M85.9839 50.1266C86.0127 50.3318 86.1459 50.4866 86.2755 50.4866C86.4051 50.4866 86.4915 50.303 86.4591 50.0978C86.4267 49.8926 86.3007 49.7378 86.1675 49.7378C86.0343 49.7378 85.9551 49.9214 85.9839 50.1266Z" fill="#263238"/> <path d="M88.4816 49.9833C88.514 50.1849 88.6436 50.3433 88.7732 50.3433C88.9028 50.3433 88.9892 50.1633 88.9604 49.9581C88.9316 49.7529 88.7984 49.5981 88.6688 49.5981C88.5392 49.5981 88.4528 49.7781 88.4816 49.9833Z" fill="#263238"/> <path d="M88.5684 49.6089L89.0292 49.4325C89.0292 49.4325 88.8528 49.8321 88.5684 49.6089Z" fill="#263238"/> <path d="M87.8394 50.3641C88.087 50.8166 88.3919 51.2352 88.7466 51.6097C88.6518 51.6917 88.5399 51.7513 88.419 51.7844C88.2981 51.8174 88.1714 51.8229 88.0482 51.8005L87.8394 50.3641Z" fill="#ED893E"/> <path d="M81.9212 52.0491C82.0223 52.2617 82.1662 52.451 82.344 52.6053C82.5219 52.7596 82.7297 52.8754 82.9544 52.9455C83.5196 53.0931 83.7644 52.4523 83.5772 51.8079C83.4044 51.2319 82.9076 50.4579 82.3568 50.5983C81.806 50.7387 81.6368 51.4803 81.9212 52.0491Z" fill="#FFB573"/> <path d="M85.3001 49.0333C85.3313 49.0327 85.3611 49.0197 85.3829 48.9973C85.4793 48.8862 85.6018 48.8007 85.7394 48.7485C85.877 48.6964 86.0254 48.6792 86.1713 48.6985C86.1864 48.7011 86.2019 48.7006 86.2169 48.697C86.2318 48.6935 86.2459 48.687 86.2584 48.678C86.2708 48.6689 86.2812 48.6575 86.2892 48.6443C86.2971 48.6311 86.3023 48.6165 86.3045 48.6013C86.307 48.5692 86.2977 48.5374 86.2786 48.5116C86.2594 48.4858 86.2315 48.4678 86.2001 48.4609C86.017 48.4329 85.8299 48.4511 85.6557 48.514C85.4815 48.5769 85.3258 48.6824 85.2029 48.8209C85.1917 48.832 85.1828 48.8451 85.1767 48.8597C85.1706 48.8742 85.1675 48.8898 85.1675 48.9055C85.1675 48.9213 85.1706 48.9368 85.1767 48.9514C85.1828 48.9659 85.1917 48.9791 85.2029 48.9901C85.2148 49.0042 85.2297 49.0153 85.2465 49.0228C85.2634 49.0303 85.2817 49.0339 85.3001 49.0333Z" fill="#263238"/> <path d="M89.0226 48.8112C89.0529 48.8128 89.0827 48.8025 89.1054 48.7824C89.1166 48.7713 89.1255 48.7581 89.1316 48.7436C89.1377 48.7291 89.1408 48.7135 89.1408 48.6978C89.1408 48.682 89.1377 48.6664 89.1316 48.6519C89.1255 48.6374 89.1166 48.6242 89.1054 48.6132C88.9803 48.4643 88.8229 48.346 88.645 48.2674C88.4672 48.1888 88.2737 48.1519 88.0794 48.1596C88.064 48.1613 88.0491 48.1661 88.0357 48.1739C88.0222 48.1817 88.0106 48.1922 88.0014 48.2047C87.9923 48.2173 87.9859 48.2316 87.9825 48.2467C87.9792 48.2619 87.9791 48.2776 87.9822 48.2928C87.9891 48.3242 88.0071 48.3521 88.0329 48.3712C88.0587 48.3904 88.0906 48.3996 88.1226 48.3972C88.2759 48.3933 88.4281 48.4236 88.5682 48.4859C88.7083 48.5482 88.8328 48.6408 88.9326 48.7572C88.943 48.7719 88.9564 48.7844 88.9719 48.7937C88.9874 48.803 89.0047 48.8089 89.0226 48.8112Z" fill="#263238"/> <path d="M86.104 49.7556L86.5648 49.5792C86.5648 49.5792 86.374 49.9788 86.104 49.7556Z" fill="#263238"/> <path d="M87.8669 52.7796C87.6626 53.0433 87.4773 53.3212 87.3125 53.6112L87.1469 53.55C86.3981 53.262 86.1497 52.884 86.0957 52.5528C86.0721 52.3891 86.0894 52.2222 86.1461 52.0668C86.1744 51.9773 86.2156 51.8924 86.2685 51.8148C86.6493 52.1971 87.1087 52.4919 87.6149 52.6788C87.7661 52.7436 87.8669 52.7796 87.8669 52.7796Z" fill="#263238"/> <path d="M87.6207 52.6788L87.4515 52.92C86.7495 52.65 86.2887 52.362 86.1519 52.0668C86.1801 51.9773 86.2214 51.8924 86.2743 51.8148C86.6551 52.1971 87.1145 52.4919 87.6207 52.6788Z" fill="white"/> <path d="M87.1366 53.5503C86.3878 53.2623 86.1394 52.8843 86.0854 52.5531C86.3676 52.6656 86.6273 52.8278 86.8522 53.0319C86.9984 53.1711 87.0978 53.3522 87.1366 53.5503Z" fill="#DE5753"/> <path d="M87.2065 57.3778C87.2065 57.3778 87.9985 58.2274 87.8365 59.2354L89.6581 59.6206C89.5647 59.024 89.2711 58.477 88.8255 58.0694C88.38 57.6618 87.8091 57.4179 87.2065 57.3778Z" fill="#20C0E8"/> <path d="M86.9869 59.2741C86.9869 59.2741 84.5461 57.8701 84.0025 57.1141L82.9225 57.9313C82.9225 57.9313 82.5805 59.2057 84.0565 60.3505L86.9869 59.2741Z" fill="#20C0E8"/> <path opacity="0.6" d="M87.2065 57.3778C87.2065 57.3778 87.9985 58.2274 87.8365 59.2354L89.6581 59.6206C89.5647 59.024 89.2711 58.477 88.8255 58.0694C88.38 57.6618 87.8091 57.4179 87.2065 57.3778Z" fill="white"/> <path opacity="0.6" d="M86.9869 59.2741C86.9869 59.2741 84.5461 57.8701 84.0025 57.1141L82.9225 57.9313C82.9225 57.9313 82.5805 59.2057 84.0565 60.3505L86.9869 59.2741Z" fill="white"/> <path d="M93.7708 130.215H94.3216L94.4692 129.552L96.2512 130.348H100.762C100.762 130.348 101.482 129.628 99.322 129.056C99.2162 129.028 99.1136 128.99 99.016 128.94C97.8712 128.408 96.2332 126.6 96.2332 126.6H93.76C93.6851 126.716 93.6177 126.836 93.5584 126.96C93.2812 127.493 92.8168 128.638 93.7708 130.215Z" fill="#263238"/> <path d="M93.5532 126.951C93.8772 126.591 95.3712 128.179 96.462 128.719C97.434 129.201 98.5284 129.41 99.0108 128.917C97.866 128.384 96.0552 126.037 96.0552 126.037H94.0644C94.0644 126.037 93.6684 126.721 93.5532 126.951Z" fill="#EBB376"/> <path d="M78.1902 130.215H78.7302L78.8778 129.552L80.6598 130.348H85.1706C85.1706 130.348 85.8906 129.628 83.7306 129.056C83.6248 129.028 83.5223 128.99 83.4246 128.94C82.2798 128.408 80.6418 126.6 80.6418 126.6H78.1686C78.0937 126.716 78.0264 126.836 77.967 126.96C77.7006 127.493 77.2398 128.638 78.1902 130.215Z" fill="#263238"/> <path d="M77.9736 126.951C78.2976 126.591 79.7916 128.179 80.8824 128.719C81.858 129.201 82.9488 129.41 83.4312 128.917C82.2864 128.384 80.4756 126.037 80.4756 126.037H78.4848C78.4848 126.037 78.0888 126.721 77.9736 126.951Z" fill="#EBB376"/> <path d="M77.5894 95.9035C77.8642 96.2067 78.1894 96.46 78.5506 96.6523C78.601 94.8523 79.123 93.9955 79.123 93.9955C79.0338 95.03 79.1288 96.0722 79.4038 97.0735C82.1722 98.2435 87.511 99.0139 94.1854 97.3795C94.1854 89.5495 92.6374 76.3735 92.5294 75.0883C92.5294 75.0883 84.6094 75.2971 81.3982 75.2971C77.881 79.4911 76.9342 92.9551 77.5894 95.9035Z" fill="#263238"/> <path opacity="0.2" d="M77.5894 95.9035C77.8642 96.2067 78.1894 96.46 78.5506 96.6523C78.601 94.8523 79.123 93.9955 79.123 93.9955C79.0338 95.03 79.1288 96.0722 79.4038 97.0735C82.1722 98.2435 87.511 99.0139 94.1854 97.3795C94.1854 89.5495 92.6374 76.3735 92.5294 75.0883C92.5294 75.0883 84.6094 75.2971 81.3982 75.2971C77.881 79.4911 76.9342 92.9551 77.5894 95.9035Z" fill="white"/> <path d="M92.4696 75.5735C88.76 75.9742 85.0177 75.9669 81.3096 75.5519C81.2695 75.5478 81.231 75.534 81.1976 75.5115C81.1641 75.489 81.1367 75.4586 81.1179 75.423C81.099 75.3873 81.0892 75.3476 81.0894 75.3073C81.0895 75.267 81.0996 75.2273 81.1188 75.1919L81.3888 74.5655C81.4074 74.5189 81.4406 74.4796 81.4835 74.4537C81.5264 74.4277 81.5765 74.4164 81.6264 74.4215C85.1886 74.8031 88.7814 74.8031 92.3436 74.4215C92.3749 74.4185 92.4064 74.4218 92.4363 74.431C92.4663 74.4403 92.4941 74.4554 92.5182 74.4755C92.5423 74.4956 92.5622 74.5202 92.5767 74.548C92.5912 74.5758 92.6001 74.6062 92.6028 74.6375L92.6676 75.2891C92.6733 75.3208 92.6727 75.3533 92.6659 75.3847C92.659 75.4162 92.646 75.4459 92.6276 75.4724C92.6092 75.4988 92.5858 75.5213 92.5587 75.5386C92.5316 75.556 92.5013 75.5678 92.4696 75.5735Z" fill="#263238"/> <path opacity="0.1" d="M81.8856 62.7888C81.8856 62.7888 81.7524 65.3268 80.7876 66.684C80.586 65.244 80.3772 63.8796 80.1792 62.8356C80.7244 62.6176 81.3293 62.601 81.8856 62.7888Z" fill="black"/> <path opacity="0.1" d="M83.4942 70.1966V72.4574C82.9312 72.9335 82.3194 73.3486 81.669 73.6958C81.5394 72.677 81.3306 70.9382 81.0894 69.059C81.8655 69.4899 82.6688 69.8699 83.4942 70.1966Z" fill="black"/> <path d="M87.4361 72.7266H84.7469L84.2573 67.9386H87.9293L87.4361 72.7266Z" fill="#20C0E8"/> <path d="M88.1105 67.6527H84.0425V68.1351H88.1105V67.6527Z" fill="white"/> <path d="M87.2893 70.2006C87.2583 70.3884 87.1743 70.5635 87.0471 70.7051C86.9199 70.8466 86.7548 70.9489 86.5713 70.9996C86.3879 71.0504 86.1937 71.0476 86.0118 70.9916C85.8299 70.9356 85.6678 70.8287 85.5447 70.6835C85.4216 70.5383 85.3426 70.3609 85.3171 70.1722C85.2916 69.9836 85.3206 69.7916 85.4007 69.6189C85.4808 69.4463 85.6087 69.3001 85.7692 69.1978C85.9297 69.0954 86.1161 69.0412 86.3065 69.0414C86.59 69.0661 86.8522 69.2018 87.0362 69.4189C87.2203 69.6359 87.3112 69.9169 87.2893 70.2006Z" fill="white"/> <path d="M86.0013 70.1418L85.3029 69.7314C85.1732 69.6566 85.0278 69.6134 84.8783 69.6053C84.7289 69.5972 84.5796 69.6243 84.4425 69.6846L83.1465 70.2678C82.8912 70.3821 82.6668 70.5557 82.4921 70.7743C82.3174 70.9928 82.1974 71.2499 82.1421 71.5242L82.0737 71.8842C83.1861 72.6402 84.9537 72.6402 84.9537 72.6402L85.4541 72.6942C85.5566 72.7088 85.6609 72.703 85.7611 72.677C85.8613 72.6511 85.9553 72.6054 86.0377 72.5428C86.1201 72.4801 86.1893 72.4018 86.2411 72.3122C86.2929 72.2226 86.3265 72.1236 86.3397 72.021L86.4621 71.0274C86.4818 70.8507 86.4485 70.6722 86.3664 70.5145C86.2844 70.3568 86.1573 70.2271 86.0013 70.1418Z" fill="#FFB573"/> <path d="M81.1125 58.3187C78.0525 58.8011 74.9457 68.4599 75.4065 70.1987C75.8673 71.9375 82.6965 72.2651 82.6965 72.2651L82.8981 70.1987C82.8981 70.1987 79.4673 69.1835 78.9777 68.5247C78.4881 67.8659 81.1125 63.9491 81.1125 63.9491C81.6886 63.0724 82.0227 62.059 82.0809 61.0115C82.0953 59.0027 81.1125 58.3187 81.1125 58.3187Z" fill="#20C0E8"/> <path opacity="0.7" d="M81.1125 58.3187C78.0525 58.8011 74.9457 68.4599 75.4065 70.1987C75.8673 71.9375 82.6965 72.2651 82.6965 72.2651L82.8981 70.1987C82.8981 70.1987 79.4673 69.1835 78.9777 68.5247C78.4881 67.8659 81.1125 63.9491 81.1125 63.9491C81.6886 63.0724 82.0227 62.059 82.0809 61.0115C82.0953 59.0027 81.1125 58.3187 81.1125 58.3187Z" fill="white"/> <path d="M64.5473 43.8245C64.1873 43.8245 63.8957 43.3637 63.8705 42.7625C63.8522 42.5003 63.9005 42.2378 64.0109 41.9993C64.0469 41.9032 64.1086 41.8189 64.1892 41.7554C64.2698 41.692 64.3663 41.6518 64.4681 41.6393H64.4861C64.8461 41.6393 65.1377 42.1001 65.1665 42.7193C65.1836 42.9818 65.1341 43.2443 65.0225 43.4825C64.9864 43.5785 64.9247 43.6629 64.8441 43.7263C64.7635 43.7898 64.6671 43.83 64.5653 43.8425L64.5473 43.8245ZM64.4861 41.8049C64.3673 41.8049 64.2557 41.9057 64.1693 42.0749C64.0718 42.2877 64.0297 42.5218 64.0469 42.7553C64.0685 43.2557 64.2989 43.6733 64.5689 43.6589C64.641 43.6462 64.7083 43.6145 64.764 43.567C64.8197 43.5196 64.8617 43.458 64.8857 43.3889C64.9844 43.1776 65.0277 42.9447 65.0117 42.7121C64.9793 42.2153 64.7453 41.8049 64.4861 41.8049Z" fill="#263238"/> <path d="M64.0746 42.7551C64.0746 42.9495 64.1934 43.1151 64.323 43.1151C64.4526 43.1151 64.5462 42.9459 64.539 42.7551C64.5318 42.5643 64.4202 42.3951 64.2906 42.3951C64.161 42.3951 64.0638 42.5571 64.0746 42.7551Z" fill="#263238"/> <path d="M64.1479 43.1001C64.4092 43.6903 64.7509 44.2415 65.1632 44.7381C65.0327 44.8397 64.8819 44.9119 64.7209 44.9498C64.56 44.9877 64.3928 44.9904 64.2308 44.9577L64.1479 43.1001Z" fill="#ED847E"/> <path d="M63.2704 41.6968C63.2407 41.6925 63.2136 41.6771 63.1948 41.6536C63.1855 41.6416 63.1788 41.6278 63.1748 41.6132C63.1709 41.5985 63.1699 41.5832 63.1719 41.5681C63.1739 41.5531 63.1789 41.5386 63.1865 41.5254C63.1942 41.5123 63.2043 41.5008 63.2164 41.4916C63.3574 41.3743 63.5245 41.2925 63.7036 41.2531C63.8828 41.2136 64.0688 41.2176 64.246 41.2648C64.2742 41.2761 64.2971 41.2975 64.3104 41.3248C64.3237 41.352 64.3264 41.3833 64.318 41.4124C64.3132 41.4269 64.3055 41.4403 64.2954 41.4518C64.2853 41.4633 64.273 41.4726 64.2593 41.4793C64.2456 41.486 64.2306 41.4899 64.2154 41.4908C64.2001 41.4917 64.1848 41.4895 64.1704 41.4844C64.0296 41.4494 63.8826 41.4481 63.7412 41.4806C63.5998 41.5131 63.4681 41.5786 63.3568 41.6716C63.3449 41.6816 63.3311 41.689 63.3163 41.6933C63.3014 41.6977 63.2858 41.6988 63.2704 41.6968Z" fill="#263238"/> <path d="M64.3814 45.5739C64.3814 45.6315 64.3634 45.6855 64.3562 45.7431C64.2124 46.5197 63.7977 47.2201 63.186 47.7198C62.5743 48.2195 61.8052 48.4859 61.0154 48.4719C60.2788 48.4443 59.578 48.1471 59.0462 47.6367C57.7718 46.4523 57.743 45.0339 57.4874 42.6291C57.421 42.0708 57.4985 41.5048 57.7124 40.9848C57.9263 40.4649 58.2696 40.0083 58.7097 39.6584C59.1498 39.3085 59.672 39.0769 60.2268 38.9857C60.7816 38.8944 61.3505 38.9465 61.8794 39.1371C64.2266 39.9579 64.745 43.3743 64.3814 45.5739Z" fill="#FFC3BD"/> <path d="M57.9608 46.5581C58.8536 47.2781 62.7272 45.9569 62.4356 42.9977C62.4356 42.9977 64.0556 41.5757 64.1852 39.7577C64.3148 37.9397 63.1844 37.0397 61.802 37.2197C60.5852 37.3817 60.5168 38.0225 60.5168 38.0225C60.5168 38.0225 54.9152 37.8065 55.7396 40.2293C53.1008 42.3029 56.834 45.6653 57.9608 46.5581Z" fill="#263238"/> <path d="M65.0965 42.6185L62.4272 42.9146L62.4455 43.0792L65.1147 42.7831L65.0965 42.6185Z" fill="#263238"/> <path d="M61.4087 43.3449C61.4754 43.9418 61.7374 44.4999 62.1539 44.9325C62.7083 45.4977 63.2339 45.1125 63.3167 44.3961C63.3743 43.7517 63.1583 42.6825 62.4995 42.3837C61.8407 42.0849 61.3367 42.6213 61.4087 43.3449Z" fill="#FFC3BD"/> <path opacity="0.2" d="M64.3792 45.573C64.3792 45.6306 64.3612 45.6846 64.354 45.7422C64.2101 46.5189 63.7954 47.2193 63.1837 47.7189C62.572 48.2186 61.8029 48.4851 61.0132 48.471C61.6792 48.0462 62.5828 47.3082 62.86 46.275C63.3172 44.5686 62.6224 42.459 62.6224 42.459L62.9824 41.9658C62.9824 41.9658 63.6232 44.7018 63.5476 45.4218C63.508 45.915 64.0336 45.735 64.3792 45.573Z" fill="black"/> <path d="M76.0232 58.7417H73.3304L72.8408 53.9537H76.5128L76.0232 58.7417Z" fill="#20C0E8"/> <path d="M76.7198 53.6687H72.6519V54.1511H76.7198V53.6687Z" fill="#20C0E8"/> <path d="M75.8986 56.2027C75.8678 56.3901 75.7841 56.5647 75.6573 56.7062C75.5306 56.8476 75.3661 56.9499 75.1833 57.001C75.0004 57.0522 74.8067 57.05 74.625 56.9949C74.4433 56.9397 74.2811 56.8338 74.1576 56.6896C74.034 56.5455 73.9541 56.369 73.9274 56.181C73.9007 55.993 73.9282 55.8013 74.0067 55.6284C74.0852 55.4555 74.2115 55.3086 74.3706 55.205C74.5297 55.1014 74.7151 55.0454 74.905 55.0435C75.1905 55.0656 75.4555 55.2001 75.6418 55.4175C75.8281 55.6348 75.9205 55.9173 75.8986 56.2027Z" fill="white"/> <path opacity="0.8" d="M76.7198 53.6687H72.6519V54.1511H76.7198V53.6687Z" fill="white"/> <path d="M58.3408 46.7601C58.7008 48.5601 58.7692 49.9209 57.52 51.1125C57.52 51.1125 58.0096 52.9125 61.3216 52.9125C64.9648 52.9125 63.0604 51.1125 63.0604 51.1125C61.0732 50.6373 61.1236 49.1613 61.4728 47.7789L58.3408 46.7601Z" fill="#FFC3BD"/> <path d="M56.7909 51.4423C56.5245 50.9455 56.2293 50.3623 56.8377 50.2003C57.5037 50.0059 61.7913 49.6423 63.0513 50.0095C62.6625 50.7007 63.3177 51.5431 63.3177 51.5431L56.7909 51.4423Z" fill="#20C0E8"/> <path opacity="0.2" d="M56.7909 51.4423C56.5245 50.9455 56.2293 50.3623 56.8377 50.2003C57.5037 50.0059 61.7913 49.6423 63.0513 50.0095C62.6625 50.7007 63.3177 51.5431 63.3177 51.5431L56.7909 51.4423Z" fill="black"/> <path d="M47.4383 127.309C47.5455 127.347 47.6594 127.364 47.7732 127.358C47.887 127.352 47.9984 127.323 48.1007 127.273C48.1401 127.236 48.1672 127.189 48.1782 127.137C48.1892 127.084 48.1835 127.03 48.1619 126.981C48.1505 126.94 48.1301 126.901 48.1021 126.869C48.074 126.837 48.0392 126.811 47.9999 126.794C47.6399 126.621 46.8119 126.959 46.7759 126.974C46.7648 126.979 46.7552 126.987 46.7482 126.997C46.7412 127.007 46.7371 127.019 46.7363 127.031C46.7364 127.043 46.7398 127.055 46.7462 127.065C46.7525 127.075 46.7616 127.084 46.7723 127.089C46.986 127.185 47.2092 127.259 47.4383 127.309ZM47.8703 126.884C47.8968 126.888 47.9224 126.896 47.9459 126.909C47.9691 126.918 47.9896 126.933 48.0059 126.951C48.0222 126.97 48.0338 126.993 48.0395 127.017C48.0755 127.129 48.0395 127.165 48.0179 127.175C47.8739 127.298 47.3411 127.175 46.9667 127.035C47.2575 126.916 47.5713 126.864 47.8847 126.884H47.8703Z" fill="#20C0E8"/> <path d="M46.7974 127.081C47.0962 126.994 47.7441 126.533 47.7513 126.231C47.7517 126.183 47.7359 126.137 47.7064 126.1C47.677 126.063 47.6357 126.036 47.5893 126.026C47.5435 126.01 47.4947 126.003 47.4462 126.008C47.3977 126.012 47.3508 126.027 47.3086 126.051C46.9486 126.231 46.729 126.969 46.7182 127.001C46.7131 127.011 46.7104 127.023 46.7104 127.034C46.7104 127.045 46.7131 127.056 46.7182 127.066C46.7278 127.077 46.7409 127.085 46.7552 127.087C46.7696 127.09 46.7845 127.087 46.7974 127.081ZM47.5534 126.137H47.5786C47.6578 126.163 47.6578 126.202 47.6578 126.217C47.6578 126.397 47.2258 126.757 46.9126 126.901C46.9969 126.608 47.166 126.348 47.3986 126.152C47.443 126.137 47.4909 126.137 47.5354 126.152L47.5534 126.137Z" fill="#20C0E8"/> <path d="M46.6765 126.692L43.7461 126.054C43.6942 126.044 43.6403 126.052 43.5933 126.076C43.5462 126.1 43.5087 126.139 43.4869 126.188L42.4897 128.391C42.4653 128.445 42.4533 128.503 42.4547 128.562C42.4561 128.622 42.4709 128.68 42.4979 128.732C42.5249 128.785 42.5634 128.831 42.6106 128.866C42.6579 128.902 42.7125 128.926 42.7705 128.938C43.7965 129.143 44.3041 129.19 45.5929 129.467C46.3849 129.64 48.1741 130.076 49.2685 130.313C50.3629 130.551 50.7409 129.5 50.3125 129.302C48.4009 128.43 47.6017 127.66 47.0725 126.944C46.9769 126.813 46.8355 126.723 46.6765 126.692Z" fill="#263238"/> <path d="M62.341 72.8502C62.341 72.8502 59.5762 90.0978 58.0606 96.5634C56.3974 103.637 47.4838 127.052 47.4838 127.052L43.1206 126.177C43.1206 126.177 49.3558 107.097 50.749 97.2042C51.829 89.6046 53.9314 72.8502 53.9314 72.8502H62.341Z" fill="#20C0E8"/> <path opacity="0.7" d="M62.341 72.8502C62.341 72.8502 59.5762 90.0978 58.0606 96.5634C56.3974 103.637 47.4838 127.052 47.4838 127.052L43.1206 126.177C43.1206 126.177 49.3558 107.097 50.749 97.2042C51.829 89.6046 53.9314 72.8502 53.9314 72.8502H62.341Z" fill="white"/> <path d="M55.1304 55.7395C54.6588 56.2615 54.1296 56.8591 53.6472 57.4423C53.1648 58.0255 52.686 58.6267 52.2324 59.2423C51.3259 60.4108 50.5293 61.6605 49.8528 62.9755C49.7664 63.1339 49.698 63.2923 49.6296 63.4507L49.5252 63.6883L49.4748 63.8071L49.4532 63.8539C49.4532 63.8215 49.3956 63.9475 49.4316 64.1707C49.5762 64.7718 49.8195 65.3448 50.1516 65.8663C50.9656 67.1377 51.8742 68.3459 52.8696 69.4807L51.6852 70.8739C50.2504 69.9415 48.9547 68.8107 47.8368 67.5151C47.1839 66.7778 46.678 65.9225 46.3464 64.9951C46.1203 64.3329 46.0866 63.6201 46.2492 62.9395L46.2888 62.7919L46.3212 62.6983L46.3752 62.5363L46.4868 62.2123C46.5588 61.9963 46.6344 61.7803 46.7244 61.5787C47.394 59.9872 48.2392 58.4754 49.2444 57.0715C49.7376 56.3839 50.2344 55.7071 50.7744 55.0663C51.3144 54.4255 51.8544 53.8027 52.47 53.1691L55.1304 55.7395Z" fill="#FFC3BD"/> <path d="M52.1441 68.7604L53.9441 68.8936L53.1341 71.59C53.1341 71.59 51.7769 71.3452 51.2549 70.2868L52.1441 68.7604Z" fill="#FFC3BD"/> <path d="M56.4062 69.2509L55.2398 71.4613L53.105 71.6017L53.915 68.9053L56.4062 69.2509Z" fill="#FFC3BD"/> <path d="M64.1655 127.758C64.5255 127.758 64.8387 127.708 64.9503 127.557C64.9793 127.516 64.9949 127.468 64.9949 127.418C64.9949 127.369 64.9793 127.32 64.9503 127.28C64.929 127.243 64.9005 127.211 64.8664 127.186C64.8324 127.16 64.7936 127.142 64.7523 127.132C64.3095 127.01 63.3771 127.542 63.3375 127.564C63.3259 127.57 63.3165 127.58 63.3107 127.591C63.3048 127.603 63.3029 127.616 63.3051 127.629C63.307 127.642 63.3128 127.654 63.3218 127.664C63.3308 127.673 63.3426 127.68 63.3555 127.683C63.6229 127.731 63.8938 127.756 64.1655 127.758ZM64.5903 127.24C64.6309 127.234 64.6721 127.234 64.7127 127.24C64.738 127.245 64.762 127.255 64.7831 127.27C64.8042 127.285 64.8219 127.304 64.8351 127.326C64.8783 127.406 64.8639 127.445 64.8351 127.467C64.7127 127.64 64.0395 127.643 63.5427 127.575C63.8664 127.395 64.2224 127.282 64.5903 127.24Z" fill="#20C0E8"/> <path d="M63.3435 127.686H63.3723C63.6927 127.539 64.3299 126.966 64.2831 126.66C64.2831 126.592 64.2183 126.502 64.0455 126.484C63.9813 126.477 63.9163 126.483 63.8545 126.501C63.7926 126.52 63.7351 126.551 63.6855 126.592C63.3471 126.873 63.2751 127.589 63.2715 127.622C63.2701 127.633 63.2717 127.644 63.2761 127.654C63.2806 127.664 63.2877 127.673 63.2967 127.679C63.3109 127.687 63.3275 127.69 63.3435 127.686ZM63.9951 126.606H64.0347C64.1463 126.606 64.1535 126.664 64.1571 126.678C64.1859 126.858 63.7539 127.312 63.4371 127.51C63.4696 127.206 63.5953 126.919 63.7971 126.689C63.8519 126.64 63.9217 126.611 63.9951 126.606Z" fill="#20C0E8"/> <path d="M63.06 127.316H60.1476C60.0945 127.315 60.0427 127.332 60.0009 127.365C59.959 127.398 59.9295 127.444 59.9172 127.496L59.4096 129.868C59.3965 129.925 59.3967 129.985 59.41 130.042C59.4234 130.1 59.4496 130.153 59.4867 130.199C59.5238 130.245 59.5708 130.282 59.6242 130.307C59.6776 130.332 59.7359 130.344 59.7948 130.343C60.846 130.325 62.3616 130.264 63.6828 130.264C65.2272 130.264 66.5628 130.347 68.3628 130.347C69.4428 130.347 69.7596 129.242 69.3024 129.141C67.2144 128.684 65.5116 128.633 63.708 127.521C63.5154 127.393 63.2909 127.322 63.06 127.316Z" fill="#263238"/> <path d="M53.751 51.5017C51.4074 51.5557 48.3906 56.9018 48.3906 56.9018L52.1778 61.247C53.5985 60.2442 54.7327 58.8879 55.4682 57.3122C56.8506 54.479 56.145 51.4477 53.751 51.5017Z" fill="#20C0E8"/> <path opacity="0.2" d="M54.7772 56.0959C53.312 57.0499 52.466 59.1559 51.98 61.0423L52.1492 61.2331C53.5669 60.2332 54.7007 58.8823 55.4396 57.3127C55.5212 57.1447 55.5968 56.9755 55.6664 56.8051L54.7772 56.0959Z" fill="black"/> <path d="M68.0076 60.117C67.968 61.5174 67.8708 63.1374 67.6836 65.0202C67.5216 66.687 67.2876 68.5554 66.9636 70.6506H54.0036C53.91 68.8506 55.1088 60.081 53.1792 51.6102C54.623 51.3624 56.0798 51.1977 57.5424 51.117C59.3867 51.0197 61.2349 51.0197 63.0792 51.117C64.341 51.2311 65.5932 51.4332 66.8268 51.7218C66.8268 51.7218 68.1984 53.097 68.0076 60.117Z" fill="#20C0E8"/> <path opacity="0.2" d="M68.0055 60.1199C67.9659 61.5203 67.8687 63.1403 67.6815 65.0231C66.6015 63.9143 65.2119 62.1827 65.3487 60.7031L68.0055 60.1199Z" fill="black"/> <path opacity="0.2" d="M60.6005 78.9917C57.4037 79.5713 57.7421 90.6197 58.1273 96.3005C59.0489 92.2829 60.3989 84.5573 61.3205 79.0709C61.0949 78.9693 60.8429 78.9415 60.6005 78.9917Z" fill="black"/> <path d="M66.9647 72.8502C66.9647 72.8502 67.3031 89.8745 67.0367 96.8153C66.7631 104.037 64.0631 127.685 64.0631 127.685H59.9159C59.9159 127.685 59.7647 104.462 59.5811 97.3661C59.3795 89.6334 58.3823 72.8502 58.3823 72.8502H66.9647Z" fill="#20C0E8"/> <path d="M67.9489 54.2428C68.1577 54.9052 68.4025 55.6468 68.6689 56.3416C68.9353 57.0364 69.1945 57.7456 69.4825 58.4296C70.0222 59.7779 70.6787 61.0764 71.4445 62.3104C71.6317 62.6056 71.8297 62.8864 72.0313 63.1528L72.1861 63.3472C72.1167 63.2881 72.0405 63.2374 71.9593 63.196C71.7749 63.1019 71.568 63.0608 71.3617 63.0772C71.2193 63.0845 71.0809 63.1266 70.9585 63.1996C70.8433 63.286 70.9117 63.268 70.9585 63.1996C71.0484 63.1148 71.1303 63.0221 71.2033 62.9224C71.4026 62.6584 71.5865 62.3831 71.7541 62.098C72.4741 60.8632 73.1365 59.434 73.7881 58.0516L75.5521 58.5448C75.3437 60.1899 74.9487 61.8059 74.3749 63.3616C74.2152 63.7893 74.0239 64.2044 73.8025 64.6036C73.6685 64.8383 73.5181 65.0632 73.3525 65.2768C73.1151 65.5899 72.8192 65.854 72.4813 66.0544C72.187 66.2229 71.8584 66.3226 71.5201 66.346C71.1167 66.371 70.7142 66.2838 70.3573 66.094C70.1044 65.9571 69.8758 65.7795 69.6805 65.5684L69.4501 65.3164C69.1477 64.9804 68.8669 64.6384 68.6077 64.2904C67.615 62.9207 66.7703 61.4497 66.0877 59.902C65.7529 59.146 65.4325 58.3864 65.1589 57.616C64.8853 56.8456 64.6189 56.0896 64.3921 55.24L67.9489 54.2428Z" fill="#FFC3BD"/> <path d="M62.926 54.4121C61.3276 57.3677 66.2092 61.9721 66.2092 61.9721L71.08 58.6241C70.3175 56.7617 69.4211 54.957 68.398 53.2241C66.472 50.0381 64.1464 52.1657 62.926 54.4121Z" fill="#20C0E8"/> <path d="M74.947 59.3706L77.3554 57.5022L75.4078 55.7022C75.4078 55.7022 73.5394 56.7822 73.8022 58.5246L74.947 59.3706Z" fill="#FFC3BD"/> <path d="M77.7667 56.3234L76.4599 54.5162L75.3979 55.6826L77.3455 57.5006L77.7667 56.3234Z" fill="#FFC3BD"/> <path opacity="0.7" d="M66.9647 72.8502C66.9647 72.8502 67.3031 89.8745 67.0367 96.8153C66.7631 104.037 64.0631 127.685 64.0631 127.685H59.9159C59.9159 127.685 59.7647 104.462 59.5811 97.3661C59.3795 89.6334 58.3823 72.8502 58.3823 72.8502H66.9647Z" fill="white"/> <path d="M54.0075 70.1982C53.1567 73.0433 52.8621 76.0256 53.1399 78.9822H67.0395L67.1043 70.3422L54.0075 70.1982Z" fill="#20C0E8"/> <path opacity="0.7" d="M54.0075 70.1982C53.1567 73.0433 52.8621 76.0256 53.1399 78.9822H67.0395L67.1043 70.3422L54.0075 70.1982Z" fill="white"/> <path d="M57.189 70.525L53.7834 70.4854L53.6934 71.371L57.189 71.4034V70.525Z" fill="#263238"/> <path d="M62.9832 70.591L57.7344 70.5298V71.4046L62.9832 71.455V70.591Z" fill="#263238"/> <path d="M63.3486 70.595V71.459L67.1322 71.4914V70.6382L63.3486 70.595Z" fill="#263238"/> <path opacity="0.2" d="M60.2476 48.8927C60.3423 48.8351 60.4423 48.7869 60.5464 48.7487C60.3844 48.8351 60.2728 48.8819 60.2476 48.8927Z" fill="black"/> </svg>