<svg width="248" height="184" viewBox="0 0 248 184" fill="none" xmlns="http://www.w3.org/2000/svg"> <path d="M223.15 170.65H206.723V170.774H223.15V170.65Z" fill="#EBEBEB"/> <path d="M164.285 172H159.975V172.124H164.285V172Z" fill="#EBEBEB"/> <path d="M206.227 166.047H196.709V166.171H206.227V166.047Z" fill="#EBEBEB"/> <path d="M47.4427 166.881H26.0205V167.005H47.4427V166.881Z" fill="#EBEBEB"/> <path d="M55.001 166.881H51.8613V167.005H55.001V166.881Z" fill="#EBEBEB"/> <path d="M111.674 168.975H65.209V169.099H111.674V168.975Z" fill="#EBEBEB"/> <path d="M118.246 140.548H22.4689C21.7177 140.548 20.9974 140.25 20.4662 139.719C19.9351 139.187 19.6367 138.467 19.6367 137.716V3.08666C19.6433 2.33983 19.9445 1.62581 20.475 1.10003C21.0054 0.574249 21.722 0.279268 22.4689 0.279297H118.246C118.618 0.279297 118.987 0.352552 119.33 0.494882C119.674 0.637211 119.986 0.845827 120.249 1.10882C120.512 1.37181 120.721 1.68402 120.863 2.02764C121.005 2.37125 121.079 2.73953 121.079 3.11146V137.716C121.079 138.088 121.005 138.456 120.863 138.8C120.721 139.143 120.512 139.456 120.249 139.719C119.986 139.982 119.674 140.19 119.33 140.333C118.987 140.475 118.618 140.548 118.246 140.548ZM22.4689 0.378497C21.751 0.379808 21.063 0.665552 20.5554 1.17315C20.0478 1.68074 19.762 2.36881 19.7607 3.08666V137.716C19.762 138.434 20.0478 139.122 20.5554 139.629C21.063 140.137 21.751 140.423 22.4689 140.424H118.246C118.964 140.423 119.652 140.137 120.16 139.629C120.668 139.122 120.953 138.434 120.955 137.716V3.08666C120.953 2.36881 120.668 1.68074 120.16 1.17315C119.652 0.665552 118.964 0.379808 118.246 0.378497H22.4689Z" fill="#EBEBEB"/> <path d="M225.532 140.548H129.754C129.003 140.548 128.283 140.25 127.751 139.719C127.22 139.187 126.922 138.467 126.922 137.716V3.08666C126.928 2.33983 127.23 1.62581 127.76 1.10003C128.291 0.574249 129.007 0.279268 129.754 0.279297H225.532C226.283 0.279297 227.003 0.577684 227.534 1.10882C228.065 1.63995 228.364 2.36032 228.364 3.11146V137.716C228.364 138.467 228.065 139.187 227.534 139.719C227.003 140.25 226.283 140.548 225.532 140.548ZM129.754 0.378497C129.036 0.379808 128.348 0.665552 127.841 1.17315C127.333 1.68074 127.047 2.36881 127.046 3.08666V137.716C127.047 138.434 127.333 139.122 127.841 139.629C128.348 140.137 129.036 140.423 129.754 140.424H225.532C226.249 140.423 226.938 140.137 227.445 139.629C227.953 139.122 228.238 138.434 228.24 137.716V3.08666C228.238 2.36881 227.953 1.68074 227.445 1.17315C226.938 0.665552 226.249 0.379808 225.532 0.378497H129.754Z" fill="#EBEBEB"/> <path d="M248 162.67H0V162.794H248V162.67Z" fill="#EBEBEB"/> <path d="M196.564 136.948H209.088C209.624 136.948 210.154 136.844 210.648 136.639C211.143 136.435 211.592 136.135 211.971 135.757C212.35 135.379 212.65 134.929 212.855 134.435C213.06 133.941 213.166 133.411 213.166 132.876V114.568C213.166 114.371 213.087 114.182 212.948 114.042C212.808 113.903 212.619 113.824 212.422 113.824C212.224 113.824 212.035 113.903 211.895 114.042C211.756 114.182 211.678 114.371 211.678 114.568V132.876C211.676 133.561 211.403 134.219 210.917 134.703C210.432 135.188 209.774 135.46 209.088 135.46H196.564V136.948Z" fill="#E0E0E0"/> <path d="M192.984 154.5V137.447L191.992 137.13C191.442 136.958 190.962 136.615 190.621 136.151C190.281 135.687 190.097 135.126 190.097 134.551H199.541C199.541 135.126 199.357 135.687 199.016 136.151C198.675 136.615 198.195 136.958 197.646 137.13L196.654 137.447V154.5L204.501 158.007V159.495L194.814 156.112L185.132 159.495V158.007L192.984 154.5Z" fill="#E0E0E0"/> <path d="M182.464 135.459H207.169C207.88 135.459 208.562 135.177 209.065 134.675C209.568 134.173 209.851 133.492 209.853 132.781C209.853 132.069 209.57 131.387 209.067 130.884C208.564 130.38 207.881 130.098 207.169 130.098H182.464C181.752 130.098 181.069 130.38 180.566 130.884C180.063 131.387 179.78 132.069 179.78 132.781C179.782 133.492 180.065 134.173 180.568 134.675C181.071 135.177 181.753 135.459 182.464 135.459Z" fill="#F0F0F0"/> <path d="M211.529 121.012L212.864 101.96C212.913 101.252 212.679 100.553 212.215 100.017C211.75 99.4807 211.091 99.1503 210.384 99.0982C209.676 99.0491 208.978 99.2826 208.442 99.7476C207.907 100.212 207.577 100.871 207.527 101.578L206.192 120.644C206.142 121.353 206.375 122.052 206.84 122.589C207.305 123.126 207.964 123.456 208.672 123.506C209.382 123.554 210.081 123.318 210.617 122.85C211.153 122.382 211.481 121.721 211.529 121.012Z" fill="#EBEBEB"/> <path d="M202.81 160.562C202.81 160.897 202.909 161.225 203.096 161.504C203.282 161.784 203.548 162.001 203.858 162.129C204.168 162.257 204.509 162.291 204.839 162.225C205.168 162.159 205.47 161.997 205.707 161.759C205.944 161.522 206.105 161.219 206.17 160.889C206.235 160.56 206.201 160.219 206.072 159.909C205.942 159.599 205.724 159.335 205.445 159.149C205.165 158.963 204.837 158.864 204.501 158.865C204.052 158.867 203.622 159.046 203.305 159.364C202.988 159.682 202.81 160.113 202.81 160.562Z" fill="#E0E0E0"/> <path d="M183.436 160.562C183.436 160.897 183.535 161.225 183.721 161.504C183.908 161.783 184.173 162 184.483 162.129C184.793 162.257 185.134 162.291 185.463 162.225C185.792 162.16 186.094 161.998 186.331 161.761C186.569 161.524 186.73 161.222 186.796 160.892C186.861 160.563 186.827 160.222 186.699 159.912C186.571 159.602 186.353 159.338 186.074 159.151C185.795 158.965 185.467 158.865 185.132 158.865C184.682 158.865 184.251 159.044 183.932 159.362C183.614 159.68 183.436 160.112 183.436 160.562Z" fill="#E0E0E0"/> <path d="M49.7291 136.948H37.2002C36.665 136.948 36.1349 136.844 35.6403 136.639C35.1457 136.435 34.6962 136.135 34.3175 135.757C33.9388 135.379 33.6385 134.929 33.4335 134.435C33.2285 133.941 33.123 133.411 33.123 132.876V114.568C33.123 114.371 33.2014 114.182 33.341 114.042C33.4805 113.903 33.6697 113.824 33.867 113.824C34.0644 113.824 34.2536 113.903 34.3931 114.042C34.5327 114.182 34.611 114.371 34.611 114.568V132.876C34.6124 133.561 34.8857 134.219 35.3711 134.703C35.8565 135.188 36.5143 135.46 37.2002 135.46H49.7242L49.7291 136.948Z" fill="#E0E0E0"/> <path d="M53.3101 154.5V137.447L54.3021 137.13C54.8514 136.958 55.3314 136.615 55.6721 136.151C56.0129 135.687 56.1968 135.126 56.1968 134.551H46.7728C46.7729 135.126 46.9567 135.687 47.2975 136.151C47.6383 136.615 48.1182 136.958 48.6675 137.13L49.6595 137.447V154.5L41.793 158.007V159.495L51.4798 156.112L61.1667 159.495V158.007L53.3101 154.5Z" fill="#E0E0E0"/> <path d="M63.8305 135.459H39.1248C38.414 135.459 37.7322 135.177 37.2291 134.675C36.726 134.173 36.4427 133.492 36.4414 132.781C36.4414 132.069 36.7241 131.387 37.2273 130.884C37.7306 130.38 38.4131 130.098 39.1248 130.098H63.8305C64.5422 130.098 65.2247 130.38 65.7279 130.884C66.2312 131.387 66.5139 132.069 66.5139 132.781C66.5126 133.492 66.2293 134.173 65.7262 134.675C65.2231 135.177 64.5413 135.459 63.8305 135.459Z" fill="#F0F0F0"/> <path d="M34.7645 121.012L33.4303 101.96C33.3811 101.252 33.6145 100.553 34.0793 100.017C34.5441 99.4807 35.2024 99.1503 35.9103 99.0982C36.6178 99.0491 37.3159 99.2826 37.8515 99.7476C38.3871 100.212 38.7164 100.871 38.7672 101.578L40.1015 120.644C40.1519 121.353 39.9191 122.052 39.454 122.589C38.9889 123.126 38.3298 123.456 37.6215 123.506C36.9119 123.554 36.2123 123.318 35.6766 122.85C35.1409 122.382 34.8129 121.721 34.7645 121.012Z" fill="#EBEBEB"/> <path d="M43.4844 160.562C43.4844 160.897 43.3848 161.225 43.1982 161.504C43.0116 161.784 42.7464 162.001 42.4361 162.129C42.1259 162.257 41.7845 162.291 41.4554 162.225C41.1262 162.159 40.8239 161.997 40.5869 161.759C40.3498 161.522 40.1887 161.219 40.1238 160.889C40.0589 160.56 40.0932 160.219 40.2223 159.909C40.3515 159.599 40.5697 159.335 40.8493 159.149C41.1289 158.963 41.4574 158.864 41.7931 158.865C42.2421 158.867 42.6723 159.046 42.9894 159.364C43.3064 159.682 43.4844 160.113 43.4844 160.562Z" fill="#E0E0E0"/> <path d="M62.8585 160.562C62.8585 160.897 62.7588 161.225 62.5722 161.504C62.3856 161.784 62.1204 162.001 61.8101 162.129C61.4999 162.257 61.1586 162.291 60.8294 162.225C60.5002 162.159 60.1979 161.997 59.9609 161.759C59.7239 161.522 59.5627 161.219 59.4978 160.889C59.4329 160.56 59.4672 160.219 59.5964 159.909C59.7255 159.599 59.9437 159.335 60.2233 159.149C60.5029 158.963 60.8314 158.864 61.1671 158.865C61.6161 158.867 62.0463 159.046 62.3634 159.364C62.6804 159.682 62.8585 160.113 62.8585 160.562Z" fill="#E0E0E0"/> <path d="M102.955 162.813H93.2781L92.2861 144.471H103.947L102.955 162.813Z" fill="#EBEBEB"/> <path d="M95.51 162.813H91.542V162L95.51 161.504V162.813Z" fill="#E0E0E0"/> <path d="M93.7444 142.984H102.454C102.849 142.984 103.227 143.141 103.506 143.42C103.785 143.699 103.942 144.078 103.942 144.472H92.2861C92.2861 144.078 92.4429 143.699 92.722 143.42C93.001 143.141 93.3795 142.984 93.7741 142.984H93.7444Z" fill="#E0E0E0"/> <path d="M83.11 115.247H67.6299V113.392L83.11 112.4V115.247Z" fill="#E0E0E0"/> <path d="M106.011 117.137H60.2148V123.476H106.011V117.137Z" fill="#F0F0F0"/> <path d="M115.504 115.248H50.8848V119.028H115.504V115.248Z" fill="#FAFAFA"/> <path d="M109.501 162.814H112.418L107.369 119.027H103.946L109.501 162.814Z" fill="#E6E6E6"/> <path d="M62.4415 119.027H59.0191L53.9648 162.814H56.8863L62.4415 119.027Z" fill="#E6E6E6"/> <path d="M98.7932 114.305C97.4705 107.735 96.1478 101.165 94.8252 94.5944C94.6317 93.652 93.1983 94.0538 93.3868 94.9862L97.1663 113.76H88.9823C88.785 113.76 88.5957 113.838 88.4562 113.978C88.3167 114.117 88.2383 114.307 88.2383 114.504C88.2383 114.701 88.3167 114.89 88.4562 115.03C88.5957 115.169 88.785 115.248 88.9823 115.248H98.074C98.1878 115.245 98.2996 115.217 98.401 115.165C98.5025 115.114 98.5911 115.04 98.6601 114.95C98.7292 114.859 98.777 114.754 98.8 114.643C98.8231 114.531 98.8207 114.416 98.7932 114.305Z" fill="#E0E0E0"/> <path d="M89.5283 109.017L92.0778 72.5664C93.0186 73.24 93.7712 74.1436 94.2635 75.1908C94.7559 76.238 94.9716 77.3939 94.8901 78.5482L93.1491 103.487C93.0676 104.641 92.6921 105.755 92.0583 106.723C91.4245 107.691 90.5536 108.481 89.5283 109.017Z" fill="#FAFAFA"/> <path d="M109.393 104.652H105.246C104.452 104.652 103.808 105.296 103.808 106.091V113.809C103.808 114.603 104.452 115.247 105.246 115.247H109.393C110.187 115.247 110.831 114.603 110.831 113.809V106.091C110.831 105.296 110.187 104.652 109.393 104.652Z" fill="#F5F5F5"/> <path d="M106.586 100.705C105.489 100.705 104.602 100.978 104.602 101.315C104.602 101.652 105.494 101.196 106.586 101.196C106.729 101.196 106.868 101.196 107.007 101.196V103.602H107.632V101.29C108.198 101.399 108.57 101.509 108.57 101.29C108.57 100.968 107.682 100.705 106.586 100.705Z" fill="#E0E0E0"/> <path d="M108.435 102.838H106.198V105.075H108.435V102.838Z" fill="#F0F0F0"/> <path d="M140.283 123.477H186.079V117.138H140.283V123.477Z" fill="#F0F0F0"/> <path d="M130.795 119.027L195.414 119.027V115.248L130.795 115.248V119.027Z" fill="#FAFAFA"/> <path d="M136.791 162.814H133.875L138.924 119.027H142.347L136.791 162.814Z" fill="#E6E6E6"/> <path d="M183.857 119.027H187.275L192.329 162.814H189.408L183.857 119.027Z" fill="#E6E6E6"/> <path d="M172.866 115.247H188.346V113.392L172.866 112.4V115.247Z" fill="#E0E0E0"/> <path d="M141.722 81.9746V115.246H143.869L144.365 112.27C144.456 111.748 144.729 111.275 145.134 110.934C145.54 110.593 146.053 110.406 146.582 110.405H166.606C167.136 110.406 167.649 110.593 168.054 110.934C168.46 111.275 168.732 111.748 168.823 112.27L169.319 115.246H171.467V81.9746H141.722Z" fill="#F5F5F5"/> <path d="M151.345 114.305C152.668 107.735 153.99 101.165 155.313 94.5944C155.506 93.652 156.94 94.0538 156.751 94.9862L152.972 113.76H161.156C161.353 113.76 161.542 113.838 161.682 113.978C161.821 114.117 161.9 114.307 161.9 114.504C161.9 114.701 161.821 114.89 161.682 115.03C161.542 115.169 161.353 115.248 161.156 115.248H152.064C151.95 115.245 151.838 115.217 151.737 115.165C151.635 115.114 151.547 115.04 151.478 114.95C151.409 114.859 151.361 114.754 151.338 114.643C151.315 114.531 151.317 114.416 151.345 114.305Z" fill="#E0E0E0"/> <path d="M160.61 109.017L158.061 72.5664C157.12 73.24 156.367 74.1436 155.875 75.1908C155.382 76.238 155.167 77.3939 155.248 78.5482L156.989 103.487C157.07 104.641 157.445 105.756 158.079 106.724C158.713 107.692 159.584 108.482 160.61 109.017Z" fill="#E0E0E0"/> <path d="M107.959 46.377H26.6992V95.8926H107.959V46.377Z" fill="#EBEBEB"/> <path d="M108.565 46.3574H107.97V95.8731H108.565V46.3574Z" fill="#E0E0E0"/> <path d="M29.6512 48.5254H29.1602V93.0811H29.6512V48.5254Z" fill="#E0E0E0"/> <path d="M105.311 48.5254H29.1104V93.0811H105.311V48.5254Z" fill="white"/> <path d="M56.1025 68.1525V70.2754H61.0526V68.1525H56.1025Z" fill="#F5F5F5"/> <path d="M57.0693 84.1276V85.7793H62.0194V84.1276H57.0693Z" fill="#F5F5F5"/> <path d="M57.8733 67.457H41.793V90.0548H57.8733V67.457Z" fill="#F0F0F0"/> <path d="M55.959 87.778V89.4297H60.9091V87.778H55.959Z" fill="#F5F5F5"/> <path d="M56.7822 72.6706V74.3223H61.7323V72.6706H56.7822Z" fill="#F5F5F5"/> <path d="M55.6963 76.7721V78.4238H60.6464V76.7721H55.6963Z" fill="#F5F5F5"/> <path d="M54.6491 70.2344H43.6875V72.1787H54.6491V70.2344Z" fill="#E6E6E6"/> <path d="M54.8227 78.543H43.8611L43.6875 77.6602H54.6441L54.8227 78.543Z" fill="#E6E6E6"/> <path d="M47.5761 74.123H43.6875V76.0674H47.5761V74.123Z" fill="#E6E6E6"/> <path d="M80.6944 63.375H74.415V72.3923H80.6944V63.375Z" fill="#F5F5F5"/> <path d="M39.0596 77.666H32.7803V86.6833H39.0596V77.666Z" fill="#F5F5F5"/> <path d="M39.9132 51.7539H33.6338V58.0333H39.9132V51.7539Z" fill="#F5F5F5"/> <path d="M69.6827 80.543H63.4033V86.8223H69.6827V80.543Z" fill="#F5F5F5"/> <path d="M100.525 64.1543H84.4443V86.7521H100.525V64.1543Z" fill="#F5F5F5"/> <path d="M98.1983 67.4219H86.6465V67.6699H98.1983V67.4219Z" fill="#E0E0E0"/> <path d="M92.5439 67.666H92.2959V84.4011H92.5439V67.666Z" fill="#E0E0E0"/> <path d="M97.8505 67.666H97.6025V84.4011H97.8505V67.666Z" fill="#E0E0E0"/> <path d="M87.832 67.666H87.584V84.4011H87.832V67.666Z" fill="#E0E0E0"/> <path d="M87.0039 67.666H86.7559V84.4011H87.0039V67.666Z" fill="#E0E0E0"/> <path d="M97.6034 68.5488H86.8799V68.7968H97.6034V68.5488Z" fill="#E0E0E0"/> <path d="M121.609 183.161C174.722 183.161 217.778 180.647 217.778 177.546C217.778 174.445 174.722 171.932 121.609 171.932C68.496 171.932 25.4395 174.445 25.4395 177.546C25.4395 180.647 68.496 183.161 121.609 183.161Z" fill="#F5F5F5"/> <path d="M136.499 74.715C136.499 77.6367 135.339 80.4389 133.275 82.5063C131.21 84.5737 128.409 85.7371 125.488 85.741H121.48V96.2463H110.608V100.557C110.547 103.44 109.358 106.184 107.298 108.202C105.237 110.219 102.468 111.349 99.5841 111.349C96.7003 111.349 93.9313 110.219 91.8707 108.202C89.81 106.184 88.6217 103.44 88.5606 100.557V96.2463H78.4074V85.741H73.7946C70.8703 85.741 68.0658 84.5794 65.998 82.5116C63.9302 80.4438 62.7686 77.6393 62.7686 74.715C62.7686 71.7907 63.9302 68.9861 65.998 66.9183C68.0658 64.8505 70.8703 63.6889 73.7946 63.6889H78.4074V53.1836H88.9127V57.8162C88.8816 59.2835 89.1437 60.7423 89.6837 62.107C90.2237 63.4717 91.0307 64.7148 92.0575 65.7636C93.0842 66.8123 94.3099 67.6455 95.6629 68.2143C97.0158 68.7832 98.4687 69.0762 99.9363 69.0762C101.404 69.0762 102.857 68.7832 104.21 68.2143C105.563 67.6455 106.788 66.8123 107.815 65.7636C108.842 64.7148 109.649 63.4717 110.189 62.107C110.729 60.7423 110.991 59.2835 110.96 57.8162V53.2034H121.465V63.7087H125.488C128.406 63.7126 131.204 64.8733 133.268 66.9364C135.332 68.9995 136.494 71.7967 136.499 74.715Z" fill="#20C0E8"/> <g opacity="0.5"> <path opacity="0.5" d="M136.499 74.715C136.499 77.6367 135.339 80.4389 133.275 82.5063C131.21 84.5737 128.409 85.7371 125.488 85.741H121.48V96.2463H110.608V100.557C110.547 103.44 109.358 106.184 107.298 108.202C105.237 110.219 102.468 111.349 99.5841 111.349C96.7003 111.349 93.9313 110.219 91.8707 108.202C89.81 106.184 88.6217 103.44 88.5606 100.557V96.2463H78.4074V85.741H73.7946C70.8703 85.741 68.0658 84.5794 65.998 82.5116C63.9302 80.4438 62.7686 77.6393 62.7686 74.715C62.7686 71.7907 63.9302 68.9861 65.998 66.9183C68.0658 64.8505 70.8703 63.6889 73.7946 63.6889H78.4074V53.1836H88.9127V57.8162C88.8816 59.2835 89.1437 60.7423 89.6837 62.107C90.2237 63.4717 91.0307 64.7148 92.0575 65.7636C93.0842 66.8123 94.3099 67.6455 95.6629 68.2143C97.0158 68.7832 98.4687 69.0762 99.9363 69.0762C101.404 69.0762 102.857 68.7832 104.21 68.2143C105.563 67.6455 106.788 66.8123 107.815 65.7636C108.842 64.7148 109.649 63.4717 110.189 62.107C110.729 60.7423 110.991 59.2835 110.96 57.8162V53.2034H121.465V63.7087H125.488C128.406 63.7126 131.204 64.8733 133.268 66.9364C135.332 68.9995 136.494 71.7967 136.499 74.715Z" fill="white"/> </g> <path d="M125.528 85.6866H120.915V96.1918H163.978V85.6866H167.98C170.905 85.6866 173.709 84.5249 175.777 82.4571C177.845 80.3893 179.007 77.5848 179.007 74.6605C179.007 71.7362 177.845 68.9316 175.777 66.8639C173.709 64.7961 170.905 63.6344 167.98 63.6344H163.978V53.1291H153.472V48.5163C153.472 45.592 152.311 42.7875 150.243 40.7197C148.175 38.6519 145.371 37.4902 142.446 37.4902C139.522 37.4902 136.718 38.6519 134.65 40.7197C132.582 42.7875 131.42 45.592 131.42 48.5163V53.1291H120.915V63.6344H125.528C128.452 63.6344 131.257 64.7961 133.324 66.8639C135.392 68.9316 136.554 71.7362 136.554 74.6605C136.554 77.5848 135.392 80.3893 133.324 82.4571C131.257 84.5249 128.452 85.6866 125.528 85.6866Z" fill="#20C0E8"/> <g opacity="0.3"> <path opacity="0.3" d="M125.528 85.6866H120.915V96.1918H163.978V85.6866H167.98C170.905 85.6866 173.709 84.5249 175.777 82.4571C177.845 80.3893 179.007 77.5848 179.007 74.6605C179.007 71.7362 177.845 68.9316 175.777 66.8639C173.709 64.7961 170.905 63.6344 167.98 63.6344H163.978V53.1291H153.472V48.5163C153.472 45.592 152.311 42.7875 150.243 40.7197C148.175 38.6519 145.371 37.4902 142.446 37.4902C139.522 37.4902 136.718 38.6519 134.65 40.7197C132.582 42.7875 131.42 45.592 131.42 48.5163V53.1291H120.915V63.6344H125.528C128.452 63.6344 131.257 64.7961 133.324 66.8639C135.392 68.9316 136.554 71.7362 136.554 74.6605C136.554 77.5848 135.392 80.3893 133.324 82.4571C131.257 84.5249 128.452 85.6866 125.528 85.6866Z" fill="white"/> </g> <path d="M128.157 48.2592L127.229 48.0261C126.231 47.8207 125.257 47.5063 124.327 47.0887L124.203 47.0291C123.291 46.5877 122.15 46.0371 121.907 44.1176C121.903 43.9965 121.856 43.8807 121.776 43.7901C121.695 43.6996 121.585 43.64 121.466 43.6216C112.964 43.2099 110.003 38.7112 109.998 33.7016C109.998 28.7912 113.227 24.1536 122.398 24.0445C130.899 23.9403 135.155 29.1731 134.897 34.5647C134.729 38.0069 132.03 42.7239 126.897 43.7952C126.267 44.0085 125.146 44.0482 124.754 44.6136C124.667 44.7507 124.62 44.9098 124.62 45.0724C124.62 45.235 124.667 45.3942 124.754 45.5312C124.938 45.813 125.164 46.0655 125.424 46.2802C126.336 47.0639 128.157 48.2592 128.157 48.2592Z" fill="white"/> <path d="M128.157 48.5058H128.097L127.17 48.2777C126.154 48.0664 125.164 47.7454 124.218 47.3204L124.099 47.2609C123.182 46.8194 121.922 46.2143 121.664 44.1559C121.664 44.1113 121.619 43.8682 121.451 43.8583C111.278 43.3623 109.755 37.2863 109.75 33.7102C109.75 30.7788 110.975 23.9439 122.398 23.7902C127.79 23.7356 130.83 25.7146 132.457 27.401C133.375 28.3466 134.089 29.4718 134.552 30.7059C135.016 31.9401 135.219 33.2567 135.15 34.5732C134.98 36.8178 134.094 38.9486 132.623 40.6522C131.151 42.3557 129.172 43.5421 126.976 44.0369C126.768 44.1038 126.556 44.1569 126.341 44.1956C125.81 44.3047 125.21 44.4287 124.987 44.7561C124.926 44.8517 124.894 44.9627 124.894 45.076C124.894 45.1894 124.926 45.3003 124.987 45.3959C125.158 45.6567 125.367 45.8907 125.607 46.0903C126.495 46.8542 128.295 48.0346 128.315 48.0495C128.364 48.0811 128.399 48.1289 128.416 48.1844C128.432 48.2398 128.428 48.2993 128.405 48.3521C128.385 48.4006 128.35 48.4417 128.306 48.4693C128.261 48.4969 128.209 48.5097 128.157 48.5058ZM122.656 24.2862H122.403C111.422 24.4201 110.241 30.9078 110.246 33.7102C110.246 37.1127 111.709 42.8911 121.475 43.3623C121.658 43.3815 121.828 43.4665 121.953 43.6016C122.078 43.7366 122.15 43.9125 122.155 44.0964C122.383 45.882 123.405 46.378 124.313 46.8145L124.437 46.874C125.219 47.233 126.037 47.5074 126.877 47.6924C126.326 47.3105 125.696 46.8492 125.265 46.4772C124.987 46.2457 124.746 45.9731 124.551 45.6687C124.434 45.4931 124.372 45.2869 124.372 45.076C124.372 44.8651 124.434 44.6589 124.551 44.4833C124.883 43.9873 125.587 43.8484 126.212 43.7194C126.435 43.6698 126.654 43.6252 126.817 43.5706C128.917 43.1086 130.812 41.9834 132.222 40.3613C133.632 38.7392 134.483 36.7064 134.649 34.5633C134.716 33.3142 134.523 32.0648 134.083 30.8937C133.644 29.7226 132.967 28.6551 132.095 27.7582C130.567 26.161 127.69 24.2862 122.656 24.2862Z" fill="#20C0E8"/> <path d="M118.047 46.1758C118.637 45.5062 118.915 44.8366 118.766 44.2215C118.459 42.927 117.313 42.9468 116.574 42.6988C111.44 41.6225 108.742 37.9025 108.574 34.4602C108.316 29.0687 112.571 23.831 121.073 23.9351C130.249 24.0492 133.473 28.6868 133.473 33.5922C133.473 38.587 130.497 43.0857 122.005 43.5122C121.723 43.5122 121.594 43.785 121.559 44.0082C121.321 45.9278 120.18 46.4882 119.267 46.9198L119.143 46.9793C118.212 47.3947 117.24 47.709 116.242 47.9167L115.314 48.1449C115.314 48.1449 117.239 47.0785 118.047 46.1758Z" fill="white"/> <path d="M115.3 48.3922C115.25 48.3929 115.201 48.3786 115.16 48.3512C115.118 48.3238 115.086 48.2845 115.067 48.2384C115.045 48.1826 115.043 48.1207 115.064 48.0642C115.084 48.0076 115.124 47.9603 115.176 47.9309C115.176 47.9309 117.09 46.8645 117.844 46.0064C118.405 45.3616 118.628 44.7813 118.509 44.2754C118.296 43.3776 117.646 43.2238 116.961 43.0602C116.793 43.0205 116.624 42.9808 116.465 42.9312C111.059 41.8003 108.46 37.8621 108.296 34.4694C108.227 33.1522 108.431 31.8349 108.894 30.6C109.358 29.3651 110.071 28.239 110.99 27.2923C112.616 25.6109 115.657 23.612 121.048 23.6814C132.456 23.8253 133.701 30.6552 133.696 33.6014C133.696 37.1776 132.169 43.2586 121.996 43.7496C121.827 43.7496 121.788 43.9976 121.783 44.0472C121.525 46.1006 120.265 46.7107 119.347 47.1522L119.228 47.2117C118.273 47.6362 117.275 47.9571 116.252 48.169L115.32 48.3971L115.3 48.3922ZM120.8 24.1774C115.761 24.1774 112.864 26.0523 111.376 27.6494C110.505 28.5464 109.827 29.6139 109.388 30.785C108.948 31.9561 108.756 33.2054 108.822 34.4546C108.976 37.6587 111.451 41.3986 116.624 42.46C116.788 42.5146 116.942 42.5493 117.12 42.589C117.805 42.7526 118.747 42.9758 119.03 44.1662C119.188 44.8408 118.931 45.5699 118.256 46.3437C117.821 46.7965 117.335 47.1977 116.808 47.539C117.582 47.3574 118.337 47.0982 119.059 46.7653L119.183 46.7058C120.086 46.2693 121.113 45.7733 121.341 43.9877C121.344 43.8031 121.415 43.6261 121.54 43.4906C121.666 43.3551 121.837 43.2707 122.021 43.2536C131.782 42.7824 133.245 37.004 133.25 33.5965C133.25 30.8139 132.075 24.3262 121.088 24.1725L120.8 24.1774Z" fill="#20C0E8"/> <path d="M118.241 34.0826L120.404 36.2452L125.289 32.2871" fill="white"/> <path d="M120.404 36.7405C120.339 36.7409 120.274 36.7284 120.213 36.7037C120.153 36.679 120.098 36.6426 120.052 36.5967L117.889 34.4341C117.837 34.3896 117.795 34.3349 117.765 34.2734C117.736 34.2119 117.719 34.1448 117.716 34.0765C117.714 34.0082 117.725 33.9401 117.75 33.8764C117.775 33.8128 117.813 33.755 117.861 33.7066C117.909 33.6583 117.967 33.6205 118.031 33.5956C118.095 33.5706 118.163 33.5591 118.231 33.5617C118.299 33.5644 118.366 33.5811 118.428 33.6109C118.489 33.6407 118.544 33.6828 118.589 33.7347L120.439 35.5799L124.977 31.9045C125.027 31.8596 125.086 31.8253 125.149 31.8037C125.213 31.7821 125.28 31.7736 125.347 31.7788C125.414 31.7841 125.48 31.8029 125.539 31.8341C125.599 31.8653 125.651 31.9083 125.694 31.9605C125.736 32.0126 125.767 32.0729 125.786 32.1375C125.804 32.2021 125.809 32.2699 125.801 32.3365C125.792 32.4032 125.77 32.4674 125.736 32.5253C125.702 32.5832 125.656 32.6336 125.602 32.6733L120.716 36.6413C120.626 36.7088 120.516 36.7438 120.404 36.7405Z" fill="#20C0E8"/> <path d="M183.58 22.3173C183.708 22.3637 183.848 22.367 183.979 22.3267C184.11 22.2865 184.224 22.2048 184.304 22.0941L188.063 16.8464C188.112 16.7803 188.147 16.7052 188.166 16.6254C188.185 16.5457 188.188 16.463 188.174 16.3821C188.161 16.3013 188.131 16.2239 188.088 16.1545C188.044 16.0852 187.987 16.0253 187.92 15.9784C187.785 15.8831 187.619 15.8448 187.456 15.8717C187.293 15.8986 187.148 15.9887 187.052 16.1222L183.292 21.3699C183.243 21.436 183.209 21.5111 183.19 21.5909C183.171 21.6706 183.168 21.7533 183.181 21.8342C183.195 21.9151 183.224 21.9924 183.268 22.0618C183.311 22.1311 183.369 22.191 183.436 22.2379C183.48 22.271 183.528 22.2977 183.58 22.3173Z" fill="#20C0E8"/> <path d="M188.024 29.2249C188.126 29.2621 188.235 29.2724 188.342 29.2547L194.576 28.223C194.73 28.1862 194.864 28.0926 194.952 27.9609C195.039 27.8292 195.073 27.6692 195.047 27.5133C195.022 27.3573 194.938 27.2169 194.813 27.1203C194.687 27.0238 194.53 26.9783 194.373 26.9929L188.138 28.0246C188.003 28.0481 187.88 28.1152 187.786 28.2158C187.693 28.3164 187.636 28.4448 187.623 28.5812C187.61 28.7177 187.642 28.8546 187.715 28.9709C187.787 29.0872 187.896 29.1765 188.024 29.2249Z" fill="#20C0E8"/> <path d="M168.868 24.8863C169.009 24.936 169.163 24.9335 169.303 24.8792C169.442 24.8249 169.557 24.7224 169.628 24.5903C169.698 24.4583 169.718 24.3054 169.686 24.1595C169.653 24.0135 169.569 23.8843 169.448 23.7951L164.042 19.9213C163.91 19.8506 163.757 19.8299 163.611 19.8631C163.465 19.8963 163.336 19.9812 163.248 20.1021C163.16 20.223 163.118 20.3717 163.131 20.5208C163.144 20.6699 163.21 20.8093 163.318 20.9133L168.724 24.7871C168.767 24.8272 168.816 24.8606 168.868 24.8863Z" fill="#20C0E8"/> <path d="M191.277 40.9517C191.419 41.0042 191.574 41.0038 191.716 40.9504C191.857 40.897 191.974 40.7943 192.045 40.6612C192.117 40.5281 192.137 40.3737 192.104 40.2265C192.07 40.0793 191.984 39.9493 191.862 39.8605L186.778 36.2149C186.711 36.167 186.636 36.1327 186.556 36.114C186.476 36.0954 186.393 36.0926 186.312 36.106C186.231 36.1193 186.153 36.1485 186.083 36.1919C186.014 36.2353 185.953 36.2919 185.905 36.3587C185.857 36.4255 185.823 36.501 185.804 36.581C185.786 36.661 185.783 36.7439 185.796 36.825C185.81 36.906 185.839 36.9837 185.882 37.0534C185.926 37.1232 185.982 37.1838 186.049 37.2317L191.133 40.8723C191.178 40.9043 191.226 40.931 191.277 40.9517Z" fill="#20C0E8"/> <path d="M175.658 20.6154C175.761 20.653 175.871 20.6633 175.978 20.6452C176.086 20.627 176.187 20.581 176.271 20.5119C176.355 20.4427 176.42 20.3526 176.459 20.2507C176.497 20.1488 176.509 20.0385 176.492 19.9309L175.415 13.4283C175.407 13.3429 175.382 13.26 175.34 13.1848C175.299 13.1097 175.243 13.0438 175.175 12.9914C175.107 12.939 175.029 12.9012 174.945 12.8802C174.862 12.8593 174.776 12.8557 174.691 12.8697C174.606 12.8837 174.525 12.915 174.453 12.9616C174.381 13.0082 174.32 13.0691 174.272 13.1406C174.225 13.2121 174.193 13.2926 174.178 13.3771C174.163 13.4616 174.165 13.5482 174.185 13.6317L175.261 20.1194C175.277 20.2301 175.322 20.3347 175.391 20.422C175.461 20.5093 175.554 20.5761 175.658 20.6154Z" fill="#20C0E8"/> <g opacity="0.5"> <path opacity="0.5" d="M183.58 22.3173C183.708 22.3637 183.848 22.367 183.979 22.3267C184.11 22.2865 184.224 22.2048 184.304 22.0941L188.063 16.8464C188.112 16.7803 188.147 16.7052 188.166 16.6254C188.185 16.5457 188.188 16.463 188.174 16.3821C188.161 16.3013 188.131 16.2239 188.088 16.1545C188.044 16.0852 187.987 16.0253 187.92 15.9784C187.785 15.8831 187.619 15.8448 187.456 15.8717C187.293 15.8986 187.148 15.9887 187.052 16.1222L183.292 21.3699C183.243 21.436 183.209 21.5111 183.19 21.5909C183.171 21.6706 183.168 21.7533 183.181 21.8342C183.195 21.9151 183.224 21.9924 183.268 22.0618C183.311 22.1311 183.369 22.191 183.436 22.2379C183.48 22.271 183.528 22.2977 183.58 22.3173Z" fill="white"/> <path opacity="0.5" d="M188.024 29.2249C188.126 29.2621 188.235 29.2724 188.342 29.2547L194.576 28.223C194.73 28.1862 194.864 28.0926 194.952 27.9609C195.039 27.8292 195.073 27.6692 195.047 27.5133C195.022 27.3573 194.938 27.2169 194.813 27.1203C194.687 27.0238 194.53 26.9783 194.373 26.9929L188.138 28.0246C188.003 28.0481 187.88 28.1152 187.786 28.2158C187.693 28.3164 187.636 28.4448 187.623 28.5812C187.61 28.7177 187.642 28.8546 187.715 28.9709C187.787 29.0872 187.896 29.1765 188.024 29.2249Z" fill="white"/> <path opacity="0.5" d="M168.868 24.8863C169.009 24.936 169.163 24.9335 169.303 24.8792C169.442 24.8249 169.557 24.7224 169.628 24.5903C169.698 24.4583 169.718 24.3054 169.686 24.1595C169.653 24.0135 169.569 23.8843 169.448 23.7951L164.042 19.9213C163.91 19.8506 163.757 19.8299 163.611 19.8631C163.465 19.8963 163.336 19.9812 163.248 20.1021C163.16 20.223 163.118 20.3717 163.131 20.5208C163.144 20.6699 163.21 20.8093 163.318 20.9133L168.724 24.7871C168.767 24.8272 168.816 24.8606 168.868 24.8863Z" fill="white"/> <path opacity="0.5" d="M191.277 40.9517C191.419 41.0042 191.574 41.0038 191.716 40.9504C191.857 40.897 191.974 40.7943 192.045 40.6612C192.117 40.5281 192.137 40.3737 192.104 40.2265C192.07 40.0793 191.984 39.9493 191.862 39.8605L186.778 36.2149C186.711 36.167 186.636 36.1327 186.556 36.114C186.476 36.0954 186.393 36.0926 186.312 36.106C186.231 36.1193 186.153 36.1485 186.083 36.1919C186.014 36.2353 185.953 36.2919 185.905 36.3587C185.857 36.4255 185.823 36.501 185.804 36.581C185.786 36.661 185.783 36.7439 185.796 36.825C185.81 36.906 185.839 36.9837 185.882 37.0534C185.926 37.1232 185.982 37.1838 186.049 37.2317L191.133 40.8723C191.178 40.9043 191.226 40.931 191.277 40.9517Z" fill="white"/> <path opacity="0.5" d="M175.658 20.6154C175.761 20.653 175.871 20.6633 175.978 20.6452C176.086 20.627 176.187 20.581 176.271 20.5119C176.355 20.4427 176.42 20.3526 176.459 20.2507C176.497 20.1488 176.509 20.0385 176.492 19.9309L175.415 13.4283C175.407 13.3429 175.382 13.26 175.34 13.1848C175.299 13.1097 175.243 13.0438 175.175 12.9914C175.107 12.939 175.029 12.9012 174.945 12.8802C174.862 12.8593 174.776 12.8557 174.691 12.8697C174.606 12.8837 174.525 12.915 174.453 12.9616C174.381 13.0082 174.32 13.0691 174.272 13.1406C174.225 13.2121 174.193 13.2926 174.178 13.3771C174.163 13.4616 174.165 13.5482 174.185 13.6317L175.261 20.1194C175.277 20.2301 175.322 20.3347 175.391 20.422C175.461 20.5093 175.554 20.5761 175.658 20.6154Z" fill="white"/> </g> <path d="M170.242 26.6623C171.6 24.985 173.549 23.8921 175.688 23.6084C177.827 23.3247 179.993 23.8719 181.741 25.1373C183.489 26.4027 184.685 28.2901 185.083 30.4108C185.482 32.5316 185.052 34.7243 183.882 36.5376C181.898 39.2706 178.391 39.5434 175.45 40.714C174.537 41.076 172.772 43.6156 172.772 43.6156L166.988 39.4244C166.988 39.4244 168.848 36.9444 168.908 35.9772C169.101 32.8176 168.263 29.3952 170.242 26.6623Z" fill="#20C0E8"/> <path opacity="0.4" d="M170.242 26.6623C171.6 24.985 173.549 23.8921 175.688 23.6084C177.827 23.3247 179.993 23.8719 181.741 25.1373C183.489 26.4027 184.685 28.2901 185.083 30.4108C185.482 32.5316 185.052 34.7243 183.882 36.5376C181.898 39.2706 178.391 39.5434 175.45 40.714C174.537 41.076 172.772 43.6156 172.772 43.6156L166.988 39.4244C166.988 39.4244 168.848 36.9444 168.908 35.9772C169.101 32.8176 168.263 29.3952 170.242 26.6623Z" fill="white"/> <path d="M167.152 42.6734L169.632 44.459C169.85 44.617 170.097 44.7306 170.359 44.7932C170.621 44.8558 170.892 44.8662 171.158 44.8238C171.424 44.7815 171.678 44.6871 171.908 44.5462C172.137 44.4053 172.336 44.2206 172.494 44.0026L166.706 39.8164C166.389 40.2552 166.257 40.8017 166.341 41.3368C166.425 41.8719 166.716 42.3523 167.152 42.6734Z" fill="#263238"/> <path d="M167.152 45.3058C167.51 45.565 167.957 45.6714 168.394 45.6017C168.831 45.532 169.223 45.2918 169.483 44.9338L166.78 42.9746C166.52 43.3333 166.414 43.7801 166.484 44.2171C166.554 44.6541 166.794 45.0456 167.152 45.3058Z" fill="#263238"/> <path opacity="0.5" d="M167.152 45.3058C167.51 45.565 167.957 45.6714 168.394 45.6017C168.831 45.532 169.223 45.2918 169.483 44.9338L166.78 42.9746C166.52 43.3333 166.414 43.7801 166.484 44.2171C166.554 44.6541 166.794 45.0456 167.152 45.3058Z" fill="white"/> <g opacity="0.7"> <path opacity="0.7" d="M167.152 42.6734L169.632 44.459C169.85 44.617 170.097 44.7306 170.359 44.7932C170.621 44.8558 170.892 44.8662 171.158 44.8238C171.424 44.7815 171.678 44.6871 171.908 44.5462C172.137 44.4053 172.336 44.2206 172.494 44.0026L166.706 39.8164C166.389 40.2552 166.257 40.8017 166.341 41.3368C166.425 41.8719 166.716 42.3523 167.152 42.6734Z" fill="white"/> </g> <path opacity="0.3" d="M171.963 25.9765C168.873 30.2867 168.074 37.1018 171.402 39.4826C174.73 41.8634 181.322 38.3418 184.011 34.6119C185.657 32.3154 184.298 28.516 180.97 26.1352C177.642 23.7544 173.6 23.68 171.963 25.9765Z" fill="white"/> <path opacity="0.4" d="M171.076 31.6911C170.525 32.4585 170.213 33.3723 170.181 34.3167C170.15 35.2611 170.399 36.1937 170.897 36.9966C171.395 37.7995 172.12 38.4365 172.981 38.8271C173.841 39.2176 174.798 39.3442 175.731 39.1908C176.663 39.0373 177.529 38.6108 178.219 37.9651C178.909 37.3194 179.392 36.4836 179.607 35.5634C179.821 34.6431 179.758 33.6799 179.426 32.7955C179.093 31.9111 178.505 31.1453 177.737 30.5949C176.708 29.8577 175.429 29.559 174.18 29.7646C172.931 29.9701 171.814 30.663 171.076 31.6911Z" fill="white"/> <path opacity="0.4" d="M171.561 33.5115C170.48 34.9995 171.373 36.3486 172.88 37.4299C174.388 38.5112 175.931 38.9179 177.012 37.4299C178.093 35.9419 177.181 34.6126 175.678 33.5314C174.175 32.4501 172.637 32.0235 171.561 33.5115Z" fill="white"/> <path d="M52.9033 44.0527L54.5947 45.4614L64.3758 37.1038L76.8651 39.6284L86.3833 30.6508L87.2364 31.8214L89.4932 26.7324L83.9579 27.3227L84.811 28.4932L76.4584 37.7436L63.9542 35.3132L52.9033 44.0527Z" fill="#20C0E8"/> <g opacity="0.3"> <path opacity="0.3" d="M52.9033 44.0527L54.5947 45.4614L64.3758 37.1038L76.8651 39.6284L86.3833 30.6508L87.2364 31.8214L89.4932 26.7324L83.9579 27.3227L84.811 28.4932L76.4584 37.7436L63.9542 35.3132L52.9033 44.0527Z" fill="white"/> </g> <path d="M145.377 117.196C145.665 121.69 144.553 127.473 143.492 131.783C142.614 135.345 142.004 136.327 141.771 137.904C141.518 139.7 142.064 142.368 141.925 144.625C141.394 153.553 137.763 171.607 137.763 171.607L134.718 171.414L134.797 136.461L136.781 102.594L148.799 105.798C150 112.375 145.377 117.196 145.377 117.196Z" fill="#DD8C6A"/> <path d="M160.842 172.228L158.074 172.148L150.391 138.024L142.624 105.005L155.079 104.633C158.055 110.585 155.034 116.537 155.034 116.537C156.586 120.768 157.177 126.625 157.39 131.065C157.568 134.725 157.246 135.846 157.484 137.418C157.762 139.214 158.635 141.6 159.156 143.817C161.199 152.616 160.842 172.228 160.842 172.228Z" fill="#DD8C6A"/> <path d="M120.28 74.4752L121.728 76.3799C123.171 76.8263 123.142 78.974 123.142 78.974C123.454 79.217 126.39 81.072 127.075 81.6722L125.344 83.5371C124.595 82.3914 121.991 80.452 121.991 80.452C121.991 80.452 118.449 78.2845 117.869 77.5108C117.289 76.737 118.256 74.4355 118.256 74.4355L120.28 74.4752Z" fill="#DD8C6A"/> <path d="M124.287 79.1685C126.663 80.8995 130.17 83.5531 130.17 83.5531C132.037 81.4897 134.007 79.5214 136.072 77.6557C137.352 76.4406 138.817 75.4362 140.412 74.6797L139.802 81.8171C137.922 83.4341 132.03 88.3246 129.728 88.1262C127.828 87.9626 124.302 83.8904 122.288 81.3707L124.287 79.1685Z" fill="#263238"/> <path opacity="0.2" d="M133.994 86.2406C135.249 84.1227 138.691 78.5625 138.691 78.5625L139.515 80.4324L138.959 82.4859C138.086 83.2199 135.254 85.323 133.994 86.2406Z" fill="black"/> <path d="M156.592 78.2901C156.087 84.8261 155.15 91.3215 153.785 97.7333C153.785 97.7333 161.051 103.685 158.695 128.133C158.695 128.133 151.344 131.387 133.994 127.518L137.293 97.6241C137.293 97.6241 136.529 78.1958 138.592 76.0283C140.417 74.1038 148.378 71.5643 154.464 74.58C155.147 74.9171 155.714 75.45 156.093 76.1108C156.472 76.7715 156.646 77.5302 156.592 78.2901Z" fill="#20C0E8"/> <path opacity="0.4" d="M156.592 78.2901C156.087 84.8261 155.15 91.3215 153.785 97.7333C153.785 97.7333 161.051 103.685 158.695 128.133C158.695 128.133 151.344 131.387 133.994 127.518L137.293 97.6241C137.293 97.6241 136.529 78.1958 138.592 76.0283C140.417 74.1038 148.378 71.5643 154.464 74.58C155.147 74.9171 155.714 75.45 156.093 76.1108C156.472 76.7715 156.646 77.5302 156.592 78.2901Z" fill="black"/> <path opacity="0.3" d="M148.145 97.0781C148.145 97.0781 142.823 98.0007 139.083 97.0781V99.3597C139.083 99.3597 141.866 99.7615 148.145 99.3597V97.0781Z" fill="black"/> <path d="M151.24 66.248C150.536 68.232 149.618 71.7785 150.372 73.817C150.462 74.0539 150.468 74.3143 150.39 74.5552C150.311 74.7961 150.153 75.0029 149.941 75.1413C148.408 76.2474 145.913 77.1253 144.038 76.9418C141.633 76.6789 142.258 74.9578 142.873 74.0402C143.036 73.7922 143.294 73.4401 143.587 73.3855C145.953 72.9837 146.404 71.2081 146.221 69.4175L151.24 66.248Z" fill="#DD8C6A"/> <path opacity="0.3" d="M149.197 67.541L146.221 69.401C146.26 69.8399 146.26 70.2815 146.221 70.7204C146.817 70.7023 147.4 70.5388 147.919 70.244C148.437 69.9492 148.876 69.5321 149.197 69.029C149.544 68.3991 149.44 67.6551 149.197 67.541Z" fill="black"/> <path d="M143.428 67.2637L142.084 69.6792C142.501 69.7139 142.878 69.8528 143.294 69.8875C143.503 69.5601 143.751 69.2377 143.959 68.8955C143.88 69.2328 143.607 69.5949 143.522 69.9272C144.262 70.0632 145.012 70.1346 145.764 70.1405C145.802 70.0295 145.817 69.9119 145.807 69.7951C145.798 69.6782 145.765 69.5645 145.71 69.4609C145.311 68.5639 144.609 67.8366 143.726 67.4075L143.428 67.2637Z" fill="#263238"/> <path d="M152.177 62.9877C151.309 66.0778 150.957 67.9477 149.028 69.1976C146.126 71.1023 142.58 68.8256 142.495 65.5421C142.431 62.5661 143.864 58.0227 147.197 57.4424C148.337 57.24 149.511 57.4974 150.462 58.1583C151.413 58.8192 152.064 59.8298 152.271 60.969C152.395 61.6402 152.362 62.3308 152.177 62.9877Z" fill="#DD8C6A"/> <path d="M144.931 62.9883C144.558 63.5705 144.107 64.0994 143.592 64.5606C143.714 64.6885 143.862 64.7888 144.027 64.8547C144.191 64.9206 144.367 64.9505 144.544 64.9425L144.931 62.9883Z" fill="#FF5652"/> <path d="M148.328 61.8534C148.353 61.8583 148.378 61.8583 148.403 61.8534C148.439 61.8352 148.466 61.8041 148.48 61.7664C148.494 61.7286 148.493 61.687 148.477 61.65C148.379 61.4272 148.23 61.2309 148.041 61.0773C147.852 60.9238 147.629 60.8175 147.391 60.7672C147.351 60.7615 147.31 60.7718 147.278 60.796C147.245 60.8201 147.223 60.8561 147.217 60.8961C147.212 60.9362 147.222 60.9769 147.246 61.0094C147.27 61.0419 147.306 61.0636 147.346 61.0697C147.534 61.1128 147.709 61.1995 147.857 61.3227C148.006 61.4459 148.123 61.6022 148.199 61.779C148.212 61.8016 148.231 61.8204 148.254 61.8335C148.277 61.8465 148.302 61.8534 148.328 61.8534Z" fill="#263238"/> <path d="M143.453 60.395C143.475 60.4086 143.501 60.4158 143.527 60.4158C143.553 60.4158 143.579 60.4086 143.601 60.395C143.764 60.295 143.949 60.2353 144.139 60.2206C144.33 60.2059 144.521 60.2368 144.698 60.3107C144.734 60.328 144.775 60.3304 144.813 60.3174C144.851 60.3044 144.883 60.2771 144.901 60.2413C144.91 60.2237 144.916 60.2045 144.918 60.1847C144.92 60.1649 144.918 60.1449 144.912 60.126C144.906 60.107 144.896 60.0894 144.883 60.0743C144.87 60.0592 144.854 60.0468 144.836 60.0379C144.613 59.9405 144.369 59.8977 144.126 59.9133C143.883 59.9288 143.647 60.0021 143.438 60.1272C143.42 60.1365 143.405 60.1492 143.393 60.1645C143.38 60.1799 143.371 60.1975 143.365 60.2164C143.36 60.2353 143.358 60.2552 143.36 60.2748C143.362 60.2943 143.369 60.3133 143.378 60.3305C143.397 60.3584 143.422 60.3807 143.453 60.395Z" fill="#263238"/> <path d="M150.258 72.8047L146.786 75.493C146.638 75.608 146.466 75.6873 146.282 75.7247C146.099 75.7621 145.909 75.7566 145.728 75.7086C145.547 75.6606 145.379 75.5714 145.239 75.4479C145.098 75.3245 144.987 75.1702 144.916 74.997L144.127 73.1916L143.205 73.4296C143.099 73.4548 143.003 73.509 142.927 73.5862C142.85 73.6633 142.797 73.7603 142.773 73.8661C142.59 74.7143 141.915 76.7876 141.955 78.6476C141.955 78.6476 144.083 75.8005 145.283 77.849C145.283 77.849 146.85 75.9989 148.115 79.1981C148.925 78.0347 149.641 76.809 150.258 75.5327C150.908 74.0149 151.344 73.1916 151.344 73.1916L150.258 72.8047Z" fill="white"/> <path d="M150.675 72.959C149.154 79.5271 148.118 86.1981 147.575 92.918C146.875 102.977 146.731 106.017 150.709 105.581C154.687 105.144 157.946 104.643 157.366 103.195C156.785 101.747 154.618 98.4881 154.752 96.8265C154.886 95.1649 156.269 82.2143 156.428 80.2551C156.587 78.2959 157.767 74.1841 150.675 72.959Z" fill="#263238"/> <path d="M151.354 100.352C151.305 100.084 152.257 99.1166 153.338 98.442C154.059 98.0121 154.824 97.6612 155.62 97.3955C155.62 97.3955 157.842 94.7815 158.457 94.0723L160.173 95.5603C159.055 96.5897 157.991 97.6757 156.984 98.814L156.061 100.763C155.73 101.234 155.284 101.612 154.767 101.864C154.185 102.135 153.579 102.349 152.956 102.504C152.837 102.536 152.71 102.528 152.595 102.483C152.48 102.437 152.382 102.356 152.317 102.251C151.902 101.67 151.578 101.03 151.354 100.352Z" fill="#DD8C6A"/> <path d="M143.696 73.2949C143.696 73.2949 140.437 79.4255 140.224 89.6629C140.011 99.9004 140.457 105.327 138.562 105.639C136.668 105.952 136.246 104.647 136.246 104.647C136.246 104.647 136.807 99.0919 136.807 97.7378C136.807 96.3837 136.211 88.1848 136.807 82.3271C137.402 76.4693 136.807 76.8264 137.799 76.1717C138.791 75.517 141.037 73.8356 143.696 73.2949Z" fill="#263238"/> <path opacity="0.2" d="M155.322 91.2907L153.368 80.0762C153.368 80.0762 154.98 81.7179 156.176 82.9778C155.947 85.2693 155.61 88.5032 155.322 91.2907Z" fill="black"/> <path d="M154.434 74.2422C154.434 74.2422 153.109 77.62 153.367 80.0752C153.476 81.1168 160.877 89.0527 160.877 89.0527L155.297 96.4531L158.174 98.9331C158.174 98.9331 166.11 91.0764 166.174 88.9486C166.239 86.8208 157.415 75.1399 154.434 74.2422Z" fill="#263238"/> <path d="M147.202 62.6219C147.153 62.8798 146.974 63.0584 146.805 63.0286C146.637 62.9989 146.538 62.7608 146.592 62.4979C146.647 62.235 146.82 62.0614 146.989 62.0912C147.158 62.121 147.252 62.359 147.202 62.6219Z" fill="#263238"/> <path d="M144.282 62.0456C144.232 62.3035 144.053 62.487 143.885 62.4523C143.716 62.4176 143.622 62.1845 143.671 61.9266C143.721 61.6686 143.9 61.4851 144.068 61.5198C144.237 61.5546 144.336 61.7827 144.282 62.0456Z" fill="#263238"/> <path d="M144.137 61.5457L143.552 61.248C143.552 61.248 143.78 61.7837 144.137 61.5457Z" fill="#263238"/> <path d="M147.059 62.1199L146.474 61.8223C146.474 61.8223 146.702 62.3678 147.059 62.1199Z" fill="#263238"/> <path d="M145.392 66.3802C145.227 66.3933 145.061 66.3933 144.896 66.3802C144.885 66.3803 144.874 66.3779 144.864 66.3733C144.853 66.3688 144.844 66.362 144.836 66.3535C144.829 66.3451 144.823 66.3351 144.82 66.3243C144.817 66.3135 144.816 66.3021 144.817 66.2909C144.818 66.2694 144.828 66.2492 144.843 66.2345C144.859 66.2197 144.88 66.2115 144.901 66.2115C145.257 66.2424 145.616 66.1899 145.948 66.0582C146.281 65.9265 146.578 65.7191 146.816 65.4526C146.823 65.4442 146.833 65.4374 146.843 65.4328C146.853 65.4282 146.864 65.4258 146.875 65.4258C146.887 65.4258 146.898 65.4282 146.908 65.4328C146.918 65.4374 146.927 65.4442 146.935 65.4526C146.951 65.4685 146.96 65.4899 146.96 65.5122C146.96 65.5345 146.951 65.5559 146.935 65.5717C146.542 66.0267 145.99 66.3157 145.392 66.3802Z" fill="#263238"/> <path d="M150.333 56.9473C151.855 61.3019 151.638 66.076 149.728 70.2748C150.159 70.1458 150.62 70.0466 151.047 69.9226C151.255 69.3721 151.419 68.8066 151.627 68.261C151.558 68.757 151.424 69.3721 151.354 69.8929L152.52 69.6796C152.723 69.1489 152.892 68.5537 153.095 68.023C153.006 68.4942 152.907 69.1538 152.813 69.625C154.164 68.7033 155.119 67.3059 155.486 65.7116C155.861 63.9465 155.631 62.1065 154.831 60.4887C153.869 58.8073 152.188 58.1178 150.333 56.9473Z" fill="#263238"/> <path d="M153.264 65.5185C153.025 66.2926 152.49 66.9412 151.776 67.3239C150.829 67.8199 150.129 67.0362 150.204 66.0244C150.263 65.1167 150.834 63.7577 151.875 63.6684C152.105 63.65 152.336 63.6902 152.547 63.7851C152.757 63.88 152.94 64.0266 153.079 64.2112C153.217 64.3958 153.307 64.6125 153.339 64.841C153.372 65.0696 153.346 65.3026 153.264 65.5185Z" fill="#DD8C6A"/> <path d="M143.716 81.0482C143.564 81.0473 143.415 81.0117 143.28 80.944C143.125 80.8668 142.99 80.7542 142.887 80.6156C142.784 80.4769 142.714 80.3159 142.684 80.1455C142.655 79.8569 142.711 79.566 142.845 79.3087C142.979 79.0514 143.185 78.8388 143.438 78.6972C143.884 78.4394 144.376 78.2709 144.887 78.2012H144.946H145.348C145.412 78.205 145.473 78.2333 145.517 78.2803C145.561 78.3274 145.586 78.3895 145.586 78.4541C145.585 78.5182 145.559 78.5793 145.513 78.6246C145.468 78.6699 145.407 78.6959 145.343 78.6972C145.1 78.6972 144.807 79.1932 144.748 79.5949V79.6544C144.748 79.8997 144.691 80.1416 144.582 80.3611C144.472 80.5806 144.314 80.7717 144.118 80.9192C143.997 80.9956 143.859 81.04 143.716 81.0482ZM144.544 78.7964C144.248 78.851 143.964 78.9586 143.706 79.1138C143.538 79.2095 143.399 79.3492 143.305 79.5179C143.211 79.6866 143.164 79.8779 143.17 80.0711C143.189 80.1629 143.229 80.2492 143.287 80.3232C143.344 80.3972 143.418 80.4569 143.503 80.4976C143.559 80.528 143.622 80.5439 143.686 80.5439C143.75 80.5439 143.813 80.528 143.87 80.4976C144.128 80.3637 144.187 79.9719 144.247 79.5949V79.5354C144.297 79.2721 144.398 79.021 144.544 78.7964Z" fill="white"/> <path d="M146.746 81.2109C146.578 81.2112 146.414 81.1611 146.275 81.067C146.093 80.9013 145.954 80.6949 145.868 80.4646C145.781 80.2344 145.751 79.987 145.779 79.7427V79.6832C145.779 79.2914 145.521 78.7606 145.283 78.7259C145.219 78.7185 145.161 78.6861 145.121 78.6359C145.081 78.5858 145.063 78.5218 145.07 78.4581C145.075 78.3945 145.105 78.3354 145.153 78.2936C145.201 78.2519 145.264 78.2308 145.328 78.2349H145.729H145.789C146.29 78.3559 146.763 78.5714 147.183 78.8698C147.418 79.038 147.599 79.2712 147.704 79.5407C147.809 79.8103 147.833 80.1045 147.773 80.3875C147.727 80.5546 147.641 80.7081 147.522 80.835C147.404 80.9619 147.257 81.0585 147.093 81.1166C146.985 81.1697 146.867 81.2017 146.746 81.2109ZM146.072 78.8747C146.189 79.1204 146.258 79.3865 146.275 79.6584V79.7229C146.275 80.0998 146.315 80.4917 146.553 80.6603C146.608 80.693 146.67 80.7123 146.733 80.7166C146.797 80.7209 146.861 80.7101 146.92 80.6851C147.009 80.6531 147.089 80.6011 147.154 80.5331C147.219 80.4652 147.268 80.3831 147.297 80.2933C147.323 80.1048 147.297 79.9128 147.221 79.738C147.146 79.5632 147.025 79.4122 146.87 79.3013C146.63 79.1153 146.36 78.9711 146.072 78.8747Z" fill="white"/> <path d="M143.839 83.7265C143.813 83.7317 143.786 83.7317 143.76 83.7265C143.697 83.7061 143.646 83.6617 143.616 83.6031C143.586 83.5445 143.581 83.4765 143.601 83.4141C144.095 81.8805 144.427 80.2996 144.593 78.6971C144.6 78.6313 144.632 78.5709 144.683 78.529C144.734 78.4871 144.8 78.4673 144.866 78.4739C144.932 78.4805 144.992 78.5129 145.034 78.5641C145.076 78.6152 145.096 78.6809 145.089 78.7467C144.925 80.3835 144.592 81.9991 144.097 83.5678C144.078 83.619 144.042 83.6624 143.995 83.6911C143.948 83.7198 143.894 83.7323 143.839 83.7265Z" fill="white"/> <path d="M145.824 84.9616C145.775 84.9614 145.727 84.9467 145.686 84.9193C145.646 84.8919 145.614 84.8532 145.596 84.8079C145.403 84.3101 145.294 83.7838 145.273 83.2504C145.272 82.7086 145.317 82.1677 145.407 81.6335C145.447 81.3656 145.486 81.0978 145.511 80.8299C145.637 80.0882 145.502 79.3259 145.129 78.6723C145.111 78.6453 145.098 78.615 145.092 78.583C145.085 78.5511 145.085 78.5181 145.091 78.4861C145.098 78.4541 145.11 78.4236 145.128 78.3964C145.146 78.3692 145.169 78.3459 145.196 78.3276C145.223 78.3094 145.254 78.2967 145.286 78.2901C145.318 78.2836 145.351 78.2835 145.383 78.2897C145.415 78.2959 145.445 78.3084 145.472 78.3264C145.499 78.3444 145.523 78.3676 145.541 78.3946C145.98 79.142 146.143 80.0194 146.002 80.8746C145.978 81.1523 145.938 81.4301 145.898 81.7029C145.812 82.2076 145.769 82.7186 145.769 83.2306C145.787 83.7079 145.885 84.1789 146.057 84.6243C146.08 84.6856 146.078 84.7534 146.052 84.8136C146.027 84.8737 145.978 84.9214 145.918 84.9467C145.888 84.9569 145.856 84.9619 145.824 84.9616Z" fill="white"/> <path d="M150.094 62.6364C149.827 62.3933 149.45 62.0907 149.182 61.8427C149.309 61.3036 149.352 60.7483 149.311 60.196C149.187 60.6325 149.147 61.0789 149.023 61.5154L148.11 60.9103C147.893 60.7321 147.627 60.6248 147.347 60.6027C147.396 60.1514 147.416 59.6901 147.471 59.2387C147.366 59.6405 147.247 60.0869 147.148 60.4887C146.791 60.4391 146.379 60.3548 146.027 60.3052C146.067 59.8092 146.126 59.3528 146.171 58.8717C146.017 59.2487 145.908 59.8935 145.754 60.2704L145.65 60.1266C144.635 59.878 143.582 59.8191 142.545 59.953C142.198 58.589 142.615 56.6596 143.954 56.2181C148.492 54.7053 152.207 58.2468 152.311 58.5394C152.991 60.4093 151.736 61.6493 150.094 62.6364Z" fill="#263238"/> <path d="M151.775 66.4452C151.775 66.5305 151.75 66.614 151.702 66.6849C151.655 66.7559 151.588 66.8112 151.509 66.8439C151.43 66.8765 151.343 66.8851 151.259 66.8684C151.176 66.8518 151.099 66.8107 151.039 66.7503C150.978 66.69 150.937 66.6131 150.92 66.5294C150.904 66.4457 150.912 66.3589 150.945 66.2801C150.978 66.2012 151.033 66.1338 151.104 66.0864C151.175 66.039 151.258 66.0137 151.344 66.0137C151.458 66.0137 151.568 66.0591 151.649 66.1401C151.73 66.221 151.775 66.3307 151.775 66.4452Z" fill="#20C0E8"/> <path d="M133.682 170.794C131.286 172.108 131.018 172.133 128.374 172.634C127.794 172.743 127.998 174.122 129.366 174.152C131.603 174.221 131.415 174.152 133.334 174.191C134.961 174.231 136.921 174.37 138.215 174.424H138.26C138.401 174.414 138.533 174.348 138.625 174.242C138.718 174.135 138.765 173.995 138.756 173.854L138.473 170.908C138.465 170.845 138.435 170.788 138.389 170.745C138.343 170.703 138.283 170.678 138.22 170.675L134.53 170.57C134.232 170.567 133.939 170.644 133.682 170.794Z" fill="#263238"/> <path d="M133.697 171.016C133.703 171.004 133.707 170.991 133.707 170.977C133.707 170.963 133.703 170.949 133.697 170.937C133.684 170.928 133.669 170.924 133.654 170.924C133.639 170.924 133.625 170.928 133.612 170.937C133.453 170.991 132.075 171.537 131.97 171.979C131.961 172.02 131.962 172.064 131.973 172.106C131.984 172.147 132.006 172.185 132.035 172.217C132.083 172.269 132.143 172.309 132.209 172.334C132.275 172.359 132.346 172.368 132.417 172.36C132.913 172.306 133.434 171.517 133.706 171.051L133.697 171.016ZM132.114 171.964C132.213 171.721 132.903 171.373 133.434 171.145C133.042 171.77 132.65 172.137 132.382 172.182C132.336 172.189 132.288 172.183 132.245 172.165C132.201 172.148 132.163 172.119 132.134 172.083C132.121 172.072 132.111 172.059 132.106 172.043C132.1 172.027 132.1 172.01 132.104 171.993L132.114 171.964Z" fill="#20C0E8"/> <path d="M133.696 171.016C133.7 171.002 133.698 170.988 133.693 170.974C133.688 170.961 133.678 170.95 133.666 170.942C133.299 170.653 132.849 170.488 132.382 170.471C132.304 170.481 132.229 170.506 132.162 170.546C132.094 170.587 132.036 170.64 131.99 170.704C131.866 170.877 131.901 170.996 131.96 171.066C132.203 171.368 133.255 171.249 133.652 171.066C133.663 171.062 133.672 171.055 133.68 171.047C133.688 171.038 133.694 171.028 133.696 171.016ZM132.079 170.853L132.134 170.793C132.166 170.746 132.208 170.706 132.257 170.677C132.306 170.647 132.36 170.627 132.417 170.619C132.795 170.629 133.162 170.753 133.468 170.977C133.012 171.115 132.238 171.14 132.094 170.977C132.094 170.977 132.059 170.937 132.094 170.877L132.079 170.853Z" fill="#20C0E8"/> <path d="M156.79 171.027C155.436 172.135 153.849 172.92 152.147 173.323C151.443 173.522 151.884 174.811 153.571 174.811C156.363 174.767 155.252 174.722 157.638 174.667C159.676 174.628 160.217 174.613 161.834 174.603H161.889C161.97 174.601 162.051 174.583 162.126 174.549C162.2 174.515 162.267 174.467 162.323 174.407C162.378 174.347 162.421 174.276 162.449 174.199C162.477 174.122 162.488 174.04 162.484 173.958L161.943 170.794C161.926 170.722 161.883 170.658 161.823 170.614C161.763 170.571 161.69 170.55 161.616 170.556L157.355 170.67C156.983 170.625 157.077 170.823 156.79 171.027Z" fill="#263238"/> <path d="M156.77 171.276C156.78 171.263 156.785 171.247 156.785 171.231C156.785 171.215 156.78 171.199 156.77 171.186C156.763 171.17 156.753 171.156 156.739 171.145C156.725 171.135 156.708 171.129 156.691 171.127C156.477 171.127 154.627 171.186 154.335 171.623C154.309 171.662 154.296 171.708 154.296 171.754C154.296 171.801 154.309 171.847 154.335 171.886C154.375 171.959 154.431 172.023 154.498 172.072C154.566 172.121 154.644 172.154 154.726 172.169C155.312 172.288 156.264 171.673 156.79 171.291L156.77 171.276ZM154.508 171.673C154.721 171.454 155.679 171.345 156.398 171.31C155.674 171.806 155.054 172.05 154.731 171.995C154.677 171.986 154.626 171.964 154.582 171.931C154.538 171.898 154.503 171.856 154.478 171.806C154.467 171.791 154.462 171.773 154.462 171.754C154.462 171.736 154.467 171.717 154.478 171.702L154.508 171.673Z" fill="#20C0E8"/> <path d="M156.77 171.276C156.778 171.263 156.783 171.249 156.783 171.234C156.783 171.219 156.778 171.204 156.77 171.191C156.735 171.167 156.115 170.358 155.451 170.254C155.259 170.218 155.062 170.253 154.895 170.353C154.672 170.487 154.667 170.621 154.707 170.71C154.865 171.097 156.155 171.36 156.691 171.325C156.707 171.324 156.722 171.319 156.736 171.31C156.75 171.301 156.761 171.29 156.77 171.276ZM154.93 170.527L154.994 170.462C155.117 170.39 155.261 170.365 155.401 170.393C155.83 170.524 156.21 170.779 156.492 171.127C155.892 171.102 154.974 170.859 154.88 170.631C154.88 170.631 154.88 170.576 154.945 170.522L154.93 170.527Z" fill="#20C0E8"/> <path d="M113.128 92.6788C112.429 94.0577 114.755 95.749 114.755 95.749L115.856 96.875C116.037 97.0715 116.283 97.1943 116.549 97.22C116.814 97.2456 117.08 97.1722 117.295 97.0138L118.381 96.2401L118.416 96.2153C118.639 96.0448 118.787 95.7942 118.828 95.5165C118.87 95.2388 118.802 94.9557 118.639 94.7273L117.91 93.7353C117.614 93.3291 117.236 92.9908 116.799 92.7433L114.71 91.543L113.128 92.6788Z" fill="#FFC3BD"/> <path d="M104.056 62.4678C104.319 61.8863 104.748 61.3952 105.288 61.0556C105.828 60.7159 106.457 60.5427 107.095 60.5575C107.733 60.5723 108.353 60.7745 108.877 61.1388C109.401 61.5032 109.806 62.0136 110.042 62.6066L110.112 62.7802C110.541 63.993 110.71 65.2824 110.608 66.5647C110.578 67.8295 110.538 69.1142 110.558 70.3393C110.578 71.5644 110.558 75.9887 110.598 77.189C110.637 78.3001 112.884 83.3246 115.062 90.581C115.106 90.7205 115.161 90.8565 115.225 90.9878L115.627 91.7863C115.627 91.7863 115.027 92.1682 114.412 92.5353C113.914 92.9098 113.369 93.2167 112.79 93.4479C112.467 93.1548 112.199 92.8052 112.001 92.4162C110.265 89.6783 104.596 79.5202 104.299 78.0322C104.006 76.6534 103.803 72.0802 103.674 70.6914C103.545 69.3026 103.445 67.9486 103.406 66.5796C103.375 65.8924 103.402 65.204 103.485 64.5212C103.573 63.8107 103.765 63.1171 104.056 62.4628V62.4678Z" fill="#263238"/> <path opacity="0.3" d="M104.056 62.4678C104.319 61.8863 104.748 61.3952 105.288 61.0556C105.828 60.7159 106.457 60.5427 107.095 60.5575C107.733 60.5723 108.353 60.7745 108.877 61.1388C109.401 61.5032 109.806 62.0136 110.042 62.6066L110.112 62.7802C110.541 63.993 110.71 65.2824 110.608 66.5647C110.578 67.8295 110.538 69.1142 110.558 70.3393C110.578 71.5644 110.558 75.9887 110.598 77.189C110.637 78.3001 112.884 83.3246 115.062 90.581C115.106 90.7205 115.161 90.8565 115.225 90.9878L115.627 91.7863C115.627 91.7863 115.027 92.1682 114.412 92.5353C113.914 92.9098 113.369 93.2167 112.79 93.4479C112.467 93.1548 112.199 92.8052 112.001 92.4162C110.265 89.6783 104.596 79.5202 104.299 78.0322C104.006 76.6534 103.803 72.0802 103.674 70.6914C103.545 69.3026 103.445 67.9486 103.406 66.5796C103.375 65.8924 103.402 65.204 103.485 64.5212C103.573 63.8107 103.765 63.1171 104.056 62.4628V62.4678Z" fill="black"/> <path d="M86.2443 64.1787C87.0924 73.9499 90.3363 79.4555 89.8998 87.2626C89.8998 87.2626 107.508 87.6098 108.113 87.6098C108.371 73.2258 110.424 74.3219 109.794 65.2154C109.903 62.2394 108.202 60.3794 106.481 60.0818L98.9816 58.5293L89.3145 60.1909C88.3952 60.348 87.5688 60.8456 86.9998 61.5846C86.4309 62.3236 86.1611 63.2498 86.2443 64.1787Z" fill="#20C0E8"/> <path d="M100.073 153.643L102.355 171.672L106.799 171.355L105.599 153.643H100.073Z" fill="#FFC3BD"/> <path d="M107.88 134.551C108.281 151.554 107.299 166.126 107.299 166.126L101.303 166.533C101.303 166.533 97.925 144.471 99.289 135.459C99.2245 133.564 97.0322 109.87 96.2783 105.391C94.9143 97.351 93.4561 91.8355 93.4561 91.8355L107.567 91.0469C107.567 91.0469 107.632 123.847 107.88 134.551Z" fill="#20C0E8"/> <g opacity="0.2"> <path opacity="0.2" d="M99.8297 98.0156C99.8297 98.0156 99.3734 116.64 98.5599 126.853C98.1383 121.333 97.0322 109.87 96.2783 105.391L99.8297 98.0156Z" fill="black"/> </g> <path d="M81.299 153.975L79.4688 171.062L83.898 170.581L87.1121 153.762L81.299 153.975Z" fill="#FFC3BD"/> <path d="M78.9141 166.067L85.7142 165.819C85.7142 165.819 91.5075 144.942 93.9528 133.911C96.3237 121.615 100.748 90.9276 100.748 90.9276L89.4441 90.0547C83.4227 100.932 85.5902 126.972 84.5238 134.263C79.415 143.375 78.9141 166.067 78.9141 166.067Z" fill="#20C0E8"/> <path d="M107.454 85.5918H90.9024C90.9024 85.5918 88.1844 95.1696 88.2092 95.0753C88.234 94.9811 107.633 96.0078 107.633 96.0078L107.454 85.5918Z" fill="#20C0E8"/> <path d="M107.632 169.912C110.569 171.4 110.891 171.429 114.08 171.935C114.785 172.049 114.576 173.716 112.955 173.805C110.261 173.969 110.475 173.86 108.188 173.989C106.229 174.098 103.392 174.331 101.829 174.445H101.78C101.694 174.443 101.61 174.423 101.532 174.388C101.455 174.353 101.384 174.303 101.326 174.241C101.267 174.179 101.222 174.106 101.192 174.026C101.161 173.946 101.147 173.861 101.15 173.776L101.388 170.209C101.395 170.134 101.429 170.063 101.483 170.01C101.538 169.958 101.61 169.926 101.685 169.922L106.611 169.669C106.968 169.65 107.322 169.734 107.632 169.912Z" fill="#263238"/> <path d="M107.632 170.169C107.979 170.725 108.653 171.657 109.234 171.702C109.319 171.709 109.405 171.696 109.485 171.663C109.564 171.631 109.635 171.579 109.69 171.513C109.725 171.475 109.75 171.429 109.762 171.379C109.774 171.328 109.773 171.276 109.759 171.226C109.616 170.695 107.934 170.09 107.746 170.03C107.727 170.023 107.707 170.021 107.687 170.026C107.668 170.03 107.65 170.041 107.637 170.055C107.628 170.07 107.624 170.087 107.624 170.105C107.624 170.122 107.628 170.139 107.637 170.154L107.632 170.169ZM109.581 171.275C109.586 171.295 109.586 171.315 109.58 171.334C109.575 171.353 109.565 171.37 109.551 171.384C109.517 171.43 109.472 171.465 109.419 171.487C109.367 171.509 109.31 171.516 109.254 171.508C108.926 171.484 108.445 171.012 107.944 170.298C108.599 170.551 109.432 170.948 109.571 171.236L109.581 171.275Z" fill="#20C0E8"/> <path d="M107.632 170.208C108.128 170.406 109.393 170.511 109.676 170.139C109.74 170.054 109.785 169.906 109.626 169.702C109.566 169.626 109.491 169.564 109.406 169.518C109.32 169.472 109.227 169.443 109.13 169.434C108.48 169.355 107.642 170.02 107.598 170.044C107.585 170.056 107.576 170.07 107.57 170.085C107.564 170.1 107.561 170.117 107.563 170.134C107.563 170.153 107.57 170.171 107.583 170.185C107.596 170.198 107.613 170.207 107.632 170.208ZM109.527 169.906C109.54 169.924 109.546 169.945 109.546 169.968C109.546 169.99 109.54 170.011 109.527 170.03C109.358 170.248 108.426 170.248 107.87 170.094C108.232 169.816 108.67 169.653 109.125 169.628C109.194 169.635 109.26 169.656 109.32 169.69C109.38 169.725 109.432 169.771 109.472 169.826L109.542 169.896L109.527 169.906Z" fill="#20C0E8"/> <path d="M84.9897 169.727C86.19 170.779 87.9112 171.741 90.5995 172.495C91.4476 172.733 90.912 174.31 88.8784 174.266C85.5105 174.216 86.8497 174.157 83.9729 174.097C81.4929 174.047 80.863 174.028 78.9088 174.013H78.8641C78.7653 174.012 78.6678 173.99 78.5775 173.95C78.4871 173.91 78.4059 173.852 78.3386 173.78C78.2714 173.708 78.2195 173.622 78.1862 173.529C78.1529 173.436 78.1389 173.338 78.1449 173.239L78.7947 169.42C78.8167 169.332 78.8692 169.255 78.9428 169.202C79.0164 169.15 79.1062 169.125 79.1964 169.132L84.335 169.271C84.7616 169.241 84.6524 169.479 84.9897 169.727Z" fill="#263238"/> <path d="M85.0049 170.039C85.6348 170.5 86.7806 171.235 87.4849 171.096C87.5888 171.082 87.688 171.044 87.7742 170.985C87.8605 170.925 87.9313 170.846 87.9809 170.753C88.0126 170.707 88.0296 170.651 88.0296 170.595C88.0296 170.538 88.0126 170.483 87.9809 170.436C87.6287 169.915 85.3918 169.846 85.1388 169.846C85.1163 169.845 85.0942 169.852 85.0761 169.866C85.0581 169.879 85.0452 169.898 85.0396 169.92C85.0279 169.935 85.0216 169.953 85.0216 169.972C85.0216 169.991 85.0279 170.009 85.0396 170.024L85.0049 170.039ZM87.7825 170.535C87.7958 170.553 87.8029 170.575 87.8029 170.597C87.8029 170.62 87.7958 170.641 87.7825 170.659C87.7519 170.718 87.7084 170.769 87.6551 170.809C87.6018 170.848 87.5402 170.875 87.475 170.887C87.0881 170.952 86.3342 170.654 85.4612 170.059C86.3292 170.104 87.4849 170.238 87.7428 170.5L87.7825 170.535Z" fill="#20C0E8"/> <path d="M85.0936 170.064C85.7483 170.109 87.3058 169.791 87.4942 169.325C87.5488 169.216 87.5389 169.052 87.271 168.894C87.0695 168.775 86.8323 168.731 86.6015 168.77C85.7979 168.899 85.049 169.871 85.0093 169.906C84.9988 169.92 84.9932 169.937 84.9932 169.955C84.9932 169.973 84.9988 169.99 85.0093 170.005C85.0287 170.035 85.0589 170.056 85.0936 170.064ZM87.2214 169.107C87.2909 169.176 87.271 169.221 87.3008 169.241C87.1867 169.519 86.0806 169.811 85.3565 169.846C85.6962 169.426 86.154 169.116 86.6709 168.958C86.8409 168.922 87.0183 168.952 87.1669 169.042L87.2462 169.122L87.2214 169.107Z" fill="#20C0E8"/> <path opacity="0.8" d="M86.2446 64.1787C87.0927 73.9499 90.3366 79.4555 89.9001 87.2626C89.9001 87.2626 107.508 87.6098 108.113 87.6098C108.371 73.2258 110.425 74.3219 109.795 65.2154C109.904 62.2394 108.123 60.3595 106.402 60.0619L98.962 58.5293L89.295 60.1909C88.3793 60.3524 87.5577 60.8519 86.9928 61.5905C86.4278 62.329 86.1608 63.2527 86.2446 64.1787Z" fill="white"/> <path d="M104.532 78.7159L102.548 82.2474L98.957 78.4232C98.957 78.329 100.495 62.2784 100.495 62.2784L101.422 62.209C101.333 64.1583 104.532 78.7159 104.532 78.7159Z" fill="#20C0E8"/> <path d="M103.937 61.6001C104.787 68.4601 104.085 75.4234 101.884 81.9758L103.372 98.0165C103.664 100.343 105.157 100.799 106.492 100.923L109.23 100.705L108.238 85.3982C108.238 85.3982 110.475 68.5342 109.959 64.715C109.616 62.1953 108.783 61.2133 108.188 60.7024C107.933 60.4878 107.627 60.3411 107.3 60.2758C106.259 60.0576 103.193 59.2293 103.332 59.2838C103.471 59.3384 103.937 61.6001 103.937 61.6001Z" fill="#263238"/> <path d="M102.484 54.5714C102.107 56.362 101.527 58.8023 103.476 59.6356C104.324 60.0026 104.726 61.193 103.912 61.5749C103.099 61.9568 97.8313 61.5749 97.3701 61.3567C96.2293 60.7714 95.4257 60.3647 96.0408 59.2239C97.1121 57.2746 96.4326 53.1975 96.2888 51.2383L102.484 54.5714Z" fill="#FFC3BD"/> <path d="M101.948 61.3863L101.705 62.1551C101.688 62.2434 101.645 62.3246 101.581 62.3883C101.518 62.4519 101.436 62.4951 101.348 62.5122L100.42 62.5816C100.346 62.5822 100.273 62.5589 100.212 62.5152C100.152 62.4715 100.106 62.4097 100.083 62.3386L99.6318 61.6541L100.788 60.9746L101.948 61.3863Z" fill="#20C0E8"/> <path opacity="0.2" d="M97.5186 54.0703C97.8002 54.7584 98.2035 55.3901 98.709 55.9353C99.4282 56.7586 100.782 57.1207 102.092 57.1207C102.136 56.2537 102.266 55.3931 102.479 54.5514L102.206 54.4076L97.5186 54.0703Z" fill="black"/> <path d="M95.2321 100.862C99.6961 101.165 100.936 100.703 101.556 97.2214C101.556 97.2214 102.737 84.7371 102.503 81.9744C102.503 81.9744 99.5274 76.1712 98.9421 72.1387C98.3073 67.6301 95.5396 58.6029 94.741 58.6624C93.2084 58.7666 87.4895 60.7704 86.562 61.9955C85.3319 63.6274 86.1305 65.5122 86.4231 67.5358C87.3556 74.0186 88.0549 76.2506 88.4071 82.7878C88.4071 82.7878 85.4311 99.6518 85.8874 99.7114C86.2346 99.7461 91.6708 100.619 95.2321 100.862Z" fill="#263238"/> <path opacity="0.2" d="M89.9004 87.2617H97.519V87.604C97.519 88.0881 97.3266 88.5523 96.9843 88.8946C96.642 89.2369 96.1778 89.4292 95.6937 89.4292H91.7257C91.2416 89.4292 90.7773 89.2369 90.435 88.8946C90.0927 88.5523 89.9004 88.0881 89.9004 87.604V87.2617Z" fill="white"/> <path opacity="0.2" d="M108.411 89.5149H107.339C106.855 89.5337 106.383 89.3602 106.026 89.0321C105.669 88.7041 105.456 88.2482 105.435 87.764V87.4267L108.381 87.3027L108.411 89.5149Z" fill="white"/> <path d="M105.484 52.0613C104.988 55.6077 100.877 57.6512 97.9898 55.2605C96.3183 53.8816 96.0058 52.1655 95.5693 49.4821C95.5048 49.0754 95.4403 48.6488 95.3659 48.1925C95.2463 47.4849 95.287 46.7594 95.485 46.0696C95.5634 45.7815 95.6715 45.5022 95.8074 45.2363C96.3039 44.2326 97.1367 43.4347 98.1608 42.9816C99.1849 42.5285 100.335 42.4488 101.412 42.7563C104.949 43.788 105.926 48.8869 105.484 52.0613Z" fill="#FFC3BD"/> <path d="M96.9929 45.5247C97.4743 46.3117 97.8811 47.142 98.2081 48.0046C97.8914 48.0767 97.5872 48.1954 97.3054 48.3568C97.0474 48.5205 97.3054 49.2942 97.4393 49.5819C97.6806 50.1622 97.9607 50.7256 98.2775 51.2683C97.8179 51.4636 97.3367 51.6034 96.8441 51.685C96.7092 51.3086 96.4885 50.969 96.1993 50.693C96.0317 50.488 95.8063 50.3381 95.5525 50.2629C95.2986 50.1877 95.028 50.1907 94.7758 50.2714C94.6865 49.8299 92.0924 47.836 94.255 46.5018C94.5717 46.2504 94.9203 46.0419 95.2916 45.8818L95.7876 45.6983C96.1767 45.5728 96.5842 45.5141 96.9929 45.5247Z" fill="#263238"/> <path d="M94.8948 49.3835C96.0008 49.1306 97.0276 50.3458 97.3748 51.2683C97.7815 52.2901 97.2954 53.3366 96.1546 53.1333C95.7297 53.0522 95.325 52.8878 94.9641 52.6494C94.6031 52.411 94.293 52.1034 94.0516 51.7445C93.8987 51.547 93.798 51.3142 93.7587 51.0676C93.7195 50.8209 93.7429 50.5684 93.8269 50.3332C93.9109 50.098 94.0528 49.8877 94.2394 49.7218C94.426 49.5558 94.6514 49.4395 94.8948 49.3835Z" fill="#FFC3BD"/> <path d="M101.531 47.8945C101.714 47.8945 101.888 48.088 101.918 48.3905C101.948 48.6931 101.843 48.9163 101.635 48.9362C101.427 48.956 101.258 48.7427 101.228 48.4401C101.199 48.1376 101.347 47.9342 101.531 47.8945Z" fill="#263238"/> <path d="M104.711 47.6875C104.894 47.6875 105.068 47.8809 105.098 48.1835C105.127 48.4861 105.003 48.7093 104.815 48.7291C104.627 48.7489 104.458 48.5357 104.428 48.2579C104.398 47.9801 104.527 47.7123 104.711 47.6875Z" fill="#263238"/> <path d="M103.907 51.2226C104.146 51.2321 104.384 51.1886 104.605 51.0951C104.825 51.0016 105.022 50.8605 105.181 50.6819C104.484 50.0735 103.874 49.3706 103.371 48.5938L103.907 51.2226Z" fill="#F98C8C"/> <path d="M100.772 47.4292C100.874 47.2481 101.017 47.0932 101.189 46.977C101.361 46.8607 101.558 46.7863 101.764 46.7596H101.819C101.863 46.7523 101.902 46.7279 101.928 46.6916C101.954 46.6554 101.965 46.6103 101.958 46.5662C101.949 46.5228 101.925 46.4842 101.889 46.4584C101.853 46.4325 101.808 46.4214 101.764 46.4273C101.501 46.4522 101.248 46.5394 101.026 46.6817C100.803 46.8241 100.618 47.0174 100.485 47.2457C100.464 47.2837 100.458 47.3282 100.468 47.3704C100.478 47.4127 100.503 47.4496 100.539 47.4739C100.567 47.481 100.596 47.481 100.624 47.4739C100.677 47.4787 100.73 47.4628 100.772 47.4292Z" fill="#263238"/> <path d="M105.341 47.1405C105.375 47.1132 105.397 47.0735 105.403 47.03C105.409 46.9865 105.397 46.9425 105.371 46.9074C105.211 46.6971 105.004 46.528 104.765 46.4141C104.527 46.3002 104.265 46.2449 104.002 46.2527C103.98 46.2545 103.96 46.2606 103.941 46.2707C103.922 46.2808 103.905 46.2946 103.892 46.3113C103.878 46.3279 103.868 46.3472 103.862 46.3678C103.857 46.3884 103.855 46.41 103.858 46.4312C103.864 46.4729 103.886 46.5106 103.919 46.5365C103.952 46.5624 103.994 46.5744 104.036 46.5701C104.245 46.5668 104.451 46.6132 104.639 46.7055C104.826 46.7978 104.988 46.9333 105.113 47.1008C105.129 47.1228 105.151 47.1403 105.176 47.1515C105.201 47.1628 105.229 47.1675 105.256 47.1653C105.286 47.1624 105.314 47.1539 105.341 47.1405Z" fill="#263238"/> <path d="M99.8052 79.2217C99.1852 77.0393 98.471 74.8371 97.1764 72.9771C96.7102 72.3025 96.1844 71.6825 95.6884 70.9931C95.0234 70.1149 94.4122 69.1973 93.8582 68.2452C94.4038 67.7492 95.123 67.2532 95.7083 66.7969L93.4961 64.9667C94.0522 62.8639 94.3077 60.6931 94.255 58.5187C94.4977 58.3455 94.7986 58.2743 95.0932 58.3203C96.1507 59.9619 96.9206 61.7718 97.3699 63.6721C98.6401 68.773 99.4551 73.9767 99.8052 79.2217Z" fill="#263238"/> <path opacity="0.2" d="M102.24 81.4296C102.205 81.3849 102.176 81.3304 102.141 81.2758C100.732 79.0835 94.324 69.0742 93.8776 68.241C94.4282 67.745 95.1474 67.249 95.7327 66.7926L93.5205 64.9624C94.0742 62.8592 94.3297 60.6887 94.2794 58.5144C94.5206 58.342 94.8197 58.2708 95.1127 58.316C95.7802 59.3519 96.3356 60.4559 96.7693 61.6094C97.0201 62.2815 97.2272 62.9691 97.3893 63.6678C98.6442 68.5981 99.9536 76.6333 102.161 81.2113L102.24 81.4296Z" fill="white"/> <path d="M105.435 80.2782C105.4 78.0065 105.435 75.6952 106.144 73.5376C106.397 72.7589 106.734 72.0099 106.997 71.2312C107.334 70.2392 108.361 69.0091 108.569 67.9675C107.905 67.6649 107.081 67.3574 106.377 67.1144L107.969 64.7236C106.828 62.8736 105.087 61.3657 104.497 59.2677C104.215 59.1722 103.908 59.19 103.639 59.3173C103.287 60.4829 103.842 63.8755 103.872 64.5897C104.12 69.8622 104.274 75.1347 105.435 80.2782Z" fill="#263238"/> <path opacity="0.2" d="M108.57 67.9672C107.335 71.35 104.761 78.3832 102.241 81.4287C102.162 81.5229 102.087 81.6122 102.008 81.6965L102.142 81.2749C102.14 81.2518 102.14 81.2286 102.142 81.2055C104.438 73.7655 104.126 69.7231 103.883 64.5696C103.853 63.8554 103.297 60.3685 103.65 59.2079C103.782 59.1436 103.926 59.1061 104.074 59.0976C104.221 59.0891 104.368 59.1097 104.508 59.1583C105.088 61.2514 106.829 62.8485 107.98 64.6986C107.454 65.4972 106.923 66.2908 106.392 67.0893C107.062 67.3572 107.905 67.6647 108.57 67.9672Z" fill="white"/> <path opacity="0.3" d="M86.036 65.6127C86.036 65.6127 87.5587 69.0351 91.2341 74.0894C94.9689 79.223 97.067 79.223 97.067 79.223L99.8049 80.0463C99.8049 80.0463 99.1006 67.1007 91.1448 65.1663C88.7838 64.5761 85.5301 65.6276 86.036 65.6127Z" fill="black"/> <path d="M117.155 74.0391L113.063 74.2275V76.4794L117.155 75.904V74.0391Z" fill="#FFC3BD"/> <path d="M115.98 75.5221C115.895 77.5061 118.316 77.9575 118.316 77.9575L119.576 78.9891C119.777 79.1623 120.034 79.2576 120.3 79.2576C120.566 79.2576 120.822 79.1623 121.024 78.9891L122.066 78.1013L122.095 78.0765C122.312 77.8776 122.441 77.601 122.454 77.3072C122.467 77.0134 122.363 76.7264 122.165 76.5091L121.317 75.5717C120.974 75.1889 120.553 74.8844 120.082 74.6789L117.155 74.0391L115.98 75.5221Z" fill="#FFC3BD"/> <path d="M86.4384 62.8835C85.5952 64.5302 85.9722 66.4349 86.984 67.9824C89.2855 71.4842 96.8743 76.1366 98.392 77.1634C101.824 79.5045 115.752 76.7765 115.752 76.7765L115.955 73.3392L101.075 72.5952C101.075 72.5952 96.0807 64.2773 92.6434 61.7378C90.9123 60.468 87.6189 60.5771 86.4384 62.8835Z" fill="#263238"/> <path d="M97.4546 42.306C97.2235 42.2794 96.9894 42.3023 96.7679 42.3733C96.5464 42.4443 96.3425 42.5617 96.1699 42.7177C95.1841 43.4599 94.4948 44.529 94.2256 45.7333C94.1618 45.9789 94.1618 46.2367 94.2256 46.4823C94.2527 46.6076 94.3169 46.7219 94.4097 46.8104C94.5026 46.8988 94.6199 46.9573 94.7464 46.9783C95.0949 46.6142 95.5301 46.3445 96.0112 46.1946C96.9807 45.8764 97.9766 45.6457 98.9872 45.5052C100.822 45.2261 102.634 44.8117 104.409 44.2652C104.761 44.161 105.162 44.0023 105.257 43.6501C105.351 43.298 104.592 42.7226 104.716 42.6085C104.909 42.4201 105.177 42.2514 105.177 41.9836C105.175 41.8773 105.146 41.7734 105.093 41.681C105.019 41.5077 104.912 41.3505 104.778 41.2186C104.643 41.0867 104.484 40.9826 104.309 40.9122C104.132 40.8514 103.937 40.8625 103.768 40.9431C103.598 41.0237 103.467 41.1675 103.402 41.3437C103.347 41.0224 103.274 40.7044 103.183 40.3914C103.096 40.2474 102.958 40.1412 102.797 40.0938C102.549 40.0231 102.288 40.0141 102.037 40.0677C101.785 40.1213 101.55 40.2359 101.353 40.4013C100.96 40.7357 100.625 41.133 100.361 41.5768C99.8453 42.3308 98.3573 42.5143 97.4546 42.306Z" fill="#263238"/> <path d="M102.087 51.7643C102.079 51.7569 102.073 51.748 102.069 51.7382C102.065 51.7284 102.063 51.7179 102.062 51.7072C102.063 51.6966 102.065 51.686 102.069 51.6762C102.073 51.6664 102.079 51.6576 102.087 51.6502C102.101 51.6365 102.119 51.6289 102.139 51.6289C102.158 51.6289 102.177 51.6365 102.191 51.6502C102.418 51.889 102.697 52.071 103.008 52.1813C103.318 52.2916 103.65 52.3271 103.976 52.2851C103.998 52.2836 104.019 52.2906 104.036 52.3044C104.053 52.3183 104.063 52.338 104.066 52.3595C104.067 52.3797 104.061 52.3998 104.048 52.4155C104.035 52.4311 104.016 52.4413 103.996 52.4438C103.647 52.4901 103.292 52.4526 102.959 52.3344C102.627 52.2163 102.328 52.0208 102.087 51.7643Z" fill="#263238"/> <path d="M95.0884 58.4808L96.3483 58.084C97.6321 59.4964 99.2289 60.5887 101.011 61.2733C100.206 61.7596 99.5633 62.4744 99.1655 63.3267C94.9495 61.6602 95.0884 58.4808 95.0884 58.4808Z" fill="white"/> <path d="M103.485 58.699L102.339 58.3965C102.339 58.3965 101.754 60.7822 100.549 61.065C102.587 61.9726 102.88 63.0142 102.88 63.0142C105.916 62.1958 103.485 58.699 103.485 58.699Z" fill="white"/> <path opacity="0.3" d="M101.105 82.5669C101.098 82.6574 101.064 82.7438 101.009 82.8153C100.953 82.8869 100.877 82.9403 100.791 82.9691C100.705 82.9979 100.612 83.0006 100.525 82.977C100.437 82.9534 100.359 82.9044 100.299 82.8363C100.239 82.7682 100.2 82.684 100.188 82.5941C100.176 82.5042 100.19 82.4127 100.23 82.331C100.269 82.2493 100.332 82.181 100.41 82.1348C100.488 82.0885 100.578 82.0663 100.668 82.0709C100.73 82.0747 100.79 82.0905 100.845 82.1175C100.9 82.1445 100.949 82.1822 100.99 82.2283C101.03 82.2743 101.061 82.328 101.081 82.3861C101.101 82.4442 101.109 82.5057 101.105 82.5669Z" fill="white"/> </svg>