<svg width="194" height="166" viewBox="0 0 194 166" fill="none" xmlns="http://www.w3.org/2000/svg"> <path d="M8.75746 120.06C8.75746 120.06 21.8951 149.675 54.8725 159.22C87.8499 168.765 122.893 155.646 151.555 145.779C180.218 135.912 195.186 110.966 188.659 85.5189C182.131 60.0717 157.949 62.0267 135.299 39.5189C112.648 17.0111 109.999 7.57648 78.7189 1.05368C47.4389 -5.46912 13.3069 21.0177 4.93946 58.3375C-3.42794 95.6573 8.75746 120.06 8.75746 120.06Z" fill="#20C0E8"/> <path opacity="0.7" d="M8.75746 120.06C8.75746 120.06 21.8951 149.675 54.8725 159.22C87.8499 168.765 122.893 155.646 151.555 145.779C180.218 135.912 195.186 110.966 188.659 85.5189C182.131 60.0717 157.949 62.0267 135.299 39.5189C112.648 17.0111 109.999 7.57648 78.7189 1.05368C47.4389 -5.46912 13.3069 21.0177 4.93946 58.3375C-3.42794 95.6573 8.75746 120.06 8.75746 120.06Z" fill="white"/> <path d="M73.2994 84.7645C73.2994 84.7645 84.5878 85.8777 90.3194 92.8789C90.3194 92.8789 96.3684 84.7691 107.224 84.9393C109.878 81.7383 111.568 77.8493 112.097 73.7252C112.626 69.6011 111.972 65.4115 110.213 61.6444C108.453 57.8772 105.659 54.6875 102.157 52.4466C98.6544 50.2056 94.5875 49.0057 90.4297 48.9866C86.2718 48.9674 82.194 50.1298 78.6712 52.3383C75.1483 54.5468 72.3253 57.7107 70.5309 61.4614C68.7365 65.2122 68.0444 69.3955 68.5354 73.5243C69.0263 77.6532 70.6801 81.5576 73.304 84.7829L73.2994 84.7645Z" fill="#20C0E8"/> <path opacity="0.5" d="M73.2994 84.7645C73.2994 84.7645 84.5878 85.8777 90.3194 92.8789C90.3194 92.8789 96.3684 84.7691 107.224 84.9393C109.878 81.7383 111.568 77.8493 112.097 73.7252C112.626 69.6011 111.972 65.4115 110.213 61.6444C108.453 57.8772 105.659 54.6875 102.157 52.4466C98.6544 50.2056 94.5875 49.0057 90.4297 48.9866C86.2718 48.9674 82.194 50.1298 78.6712 52.3383C75.1483 54.5468 72.3253 57.7107 70.5309 61.4614C68.7365 65.2122 68.0444 69.3955 68.5354 73.5243C69.0263 77.6532 70.6801 81.5576 73.304 84.7829L73.2994 84.7645Z" fill="white"/> <path d="M89.9384 50.5352L89.5566 165.08H91.4657L89.9384 50.5352Z" fill="#828282"/> <path d="M90.5079 90.7433C90.5079 90.7433 94.3213 83.8847 101.18 81.7871C101.18 81.7871 93.9395 83.5029 90.3193 89.4093L90.5079 90.7433Z" fill="#828282"/> <path d="M90.0947 71.4937C90.0947 71.4937 94.3221 64.4465 101.181 62.3535C101.181 62.3535 93.7149 64.5017 90.0947 70.4081V71.4937Z" fill="#828282"/> <path d="M90.2418 81.5168C90.2418 81.5168 94.322 74.1568 101.181 72.0684C101.181 72.0684 93.7654 74.1246 90.1406 80.0356L90.2418 81.5168Z" fill="#828282"/> <path d="M89.9469 76.2628C89.9469 76.2628 86.2669 69.3996 79.6475 67.3066C79.6475 67.3066 86.6349 69.0224 90.1309 74.9288L89.9469 76.2628Z" fill="#828282"/> <path d="M89.9469 85.7902C89.9469 85.7902 86.2669 78.9316 79.6475 76.834C79.6475 76.834 86.6349 78.5498 90.1309 84.4562L89.9469 85.7902Z" fill="#828282"/> <path d="M12.6488 68.061C12.6488 68.061 32.369 70.0114 42.3602 82.2382C42.3602 82.2382 52.9402 68.0748 71.883 68.3646C76.5169 62.7742 79.4675 55.9824 80.391 48.7801C81.3146 41.5779 80.1732 34.2614 77.0997 27.6827C74.0263 21.104 69.1472 15.5336 63.0307 11.6204C56.9142 7.70706 49.8118 5.61179 42.5507 5.57853C35.2895 5.54526 28.1683 7.57536 22.0161 11.4324C15.864 15.2895 10.9341 20.8149 7.80054 27.3652C4.66695 33.9155 3.45856 41.2212 4.31608 48.4316C5.1736 55.642 8.06175 62.4605 12.6442 68.0932L12.6488 68.061Z" fill="#20C0E8"/> <path opacity="0.3" d="M12.6488 68.061C12.6488 68.061 32.369 70.0114 42.3602 82.2382C42.3602 82.2382 52.9402 68.0748 71.883 68.3646C76.5169 62.7742 79.4675 55.9824 80.391 48.7801C81.3146 41.5779 80.1732 34.2614 77.0997 27.6827C74.0263 21.104 69.1472 15.5336 63.0307 11.6204C56.9142 7.70706 49.8118 5.61179 42.5507 5.57853C35.2895 5.54526 28.1683 7.57536 22.0161 11.4324C15.864 15.2895 10.9341 20.8149 7.80054 27.3652C4.66695 33.9155 3.45856 41.2212 4.31608 48.4316C5.1736 55.642 8.06175 62.4605 12.6442 68.0932L12.6488 68.061Z" fill="white"/> <path d="M41.7073 8.28906L41.0449 165.08H44.3707L41.7073 8.28906Z" fill="#828282"/> <path d="M42.7095 78.5118C42.7095 78.5118 49.3795 66.5288 61.3395 62.8672C61.3395 62.8672 48.6941 65.8618 42.3691 76.1796L42.7095 78.5118Z" fill="#263238"/> <path d="M42.208 45.2315C42.208 45.2315 49.3794 32.5815 61.3394 28.9199C61.3394 28.9199 48.5744 32.3929 42.254 42.7199L42.208 45.2315Z" fill="#828282"/> <path d="M42.4059 61.965C42.4059 61.965 49.3795 49.5542 61.3395 45.8926C61.3395 45.8926 48.6941 48.8872 42.3691 59.205L42.4059 61.965Z" fill="#828282"/> <path d="M41.7207 53.2162C41.7207 53.2162 35.2807 41.2332 23.7393 37.5762C23.7393 37.5762 35.9385 40.5708 42.0427 50.8886L41.7207 53.2162Z" fill="#828282"/> <path d="M41.7207 69.8587C41.7207 69.8587 35.2807 57.8757 23.7393 54.2188C23.7393 54.2188 35.9385 57.2133 42.0427 67.5311L41.7207 69.8587Z" fill="#828282"/> <path d="M156.956 101.761C156.933 101.761 157.237 100.266 157.265 100.174C157.614 99.1026 158.911 97.2441 160.167 97.2441C160.38 97.2469 160.59 97.2954 160.783 97.3863C160.976 97.4772 161.147 97.6084 161.285 97.771C161.422 97.9336 161.524 98.1239 161.582 98.329C161.64 98.5341 161.653 98.7493 161.621 98.9599C161.533 99.8432 160.738 100.598 160.02 101.03C159.155 101.518 156.961 101.761 156.956 101.761Z" fill="#20C0E8"/> <path d="M154.523 91.6821C155.705 92.1099 156.294 94.2995 156.257 95.4219C156.257 95.5185 156.032 97.032 156.009 97.0228H155.986C156.082 97.3678 156.179 97.7404 156.28 98.1452C156.455 98.8996 156.653 99.7551 156.8 100.698C156.97 101.714 157.082 102.738 157.136 103.766C157.198 104.918 157.158 106.072 157.016 107.216C157.016 107.216 157.016 107.244 157.016 107.258C157.168 106.922 157.637 106.002 157.679 105.938C158.295 104.995 160.038 103.546 161.253 103.877C161.451 103.94 161.635 104.043 161.791 104.181C161.947 104.319 162.072 104.488 162.159 104.678C162.246 104.867 162.292 105.073 162.294 105.281C162.296 105.489 162.255 105.696 162.173 105.887C161.855 106.715 160.889 107.235 160.084 107.46C159.164 107.722 157.145 107.414 156.984 107.391C156.809 108.552 156.559 109.7 156.234 110.827C156.05 111.485 155.843 112.143 155.622 112.796C155.77 112.511 155.898 112.258 155.921 112.226C156.538 111.306 158.281 109.834 159.491 110.17C159.69 110.231 159.874 110.334 160.03 110.471C160.186 110.609 160.312 110.778 160.399 110.967C160.486 111.156 160.532 111.362 160.534 111.57C160.536 111.778 160.494 111.984 160.411 112.175C160.089 113.003 159.128 113.523 158.318 113.753C157.508 113.983 155.765 113.753 155.31 113.693C155.222 113.942 155.139 114.195 155.052 114.443C154.638 115.648 154.215 116.844 153.842 118.031C153.709 118.45 153.594 118.868 153.474 119.282C153.603 119.029 153.713 118.822 153.732 118.79C154.348 117.847 156.092 116.398 157.306 116.729C157.505 116.792 157.688 116.896 157.844 117.034C158 117.172 158.125 117.341 158.212 117.53C158.299 117.719 158.345 117.925 158.347 118.133C158.35 118.342 158.308 118.548 158.226 118.739C157.904 119.567 156.938 120.083 156.133 120.313C155.328 120.543 153.75 120.34 153.203 120.267C153.097 120.699 152.987 121.127 152.904 121.55C152.853 121.84 152.784 122.116 152.747 122.406C152.711 122.695 152.669 122.985 152.628 123.266C152.573 123.818 152.508 124.384 152.467 124.922C152.435 125.294 152.412 125.653 152.389 126.012C152.513 125.593 152.78 124.779 152.812 124.715C153.255 123.833 153.917 123.079 154.735 122.525C154.781 122.424 154.836 122.327 154.9 122.235C155.014 122.06 155.164 121.911 155.34 121.798C155.515 121.685 155.713 121.61 155.919 121.577C156.126 121.545 156.337 121.557 156.538 121.612C156.74 121.666 156.928 121.763 157.09 121.895C158.042 122.718 157.803 124.972 157.366 126.007C157.338 126.072 156.984 126.702 156.754 127.093C156.924 126.881 157.085 126.674 157.265 126.463C157.614 126.035 157.978 125.616 158.364 125.166L158.953 124.526C159.146 124.31 159.376 124.108 159.588 123.891C160.094 123.404 160.627 122.935 161.175 122.475C160.802 122.171 159.486 121.062 159.109 120.308C158.732 119.554 158.465 118.496 158.856 117.7C158.942 117.509 159.067 117.339 159.224 117.2C159.38 117.062 159.564 116.957 159.763 116.894C159.962 116.831 160.172 116.811 160.38 116.835C160.588 116.859 160.788 116.926 160.968 117.033C162.035 117.7 162.141 119.968 161.888 121.053C161.888 121.122 161.584 121.881 161.428 122.295C161.759 122.019 162.09 121.748 162.435 121.481C163.429 120.713 164.459 119.963 165.485 119.213C165.798 118.983 166.11 118.753 166.405 118.519C166.271 118.413 164.684 117.139 164.261 116.283C163.884 115.533 163.613 114.475 164.008 113.679C164.094 113.489 164.219 113.318 164.375 113.179C164.531 113.039 164.714 112.935 164.914 112.871C165.113 112.808 165.323 112.787 165.531 112.811C165.739 112.834 165.94 112.901 166.12 113.008C167.187 113.675 167.293 115.943 167.017 117.033C166.994 117.116 166.58 118.206 166.465 118.477C167.15 117.967 167.845 117.451 168.475 116.918C169.354 116.207 170.186 115.439 170.963 114.618C170.904 114.572 169.238 113.238 168.806 112.373C168.429 111.623 168.157 110.561 168.553 109.765C168.639 109.574 168.764 109.404 168.92 109.265C169.077 109.127 169.26 109.022 169.46 108.959C169.659 108.896 169.869 108.876 170.077 108.9C170.284 108.924 170.485 108.991 170.664 109.098C171.732 109.765 171.837 112.033 171.561 113.118C171.561 113.192 171.226 114.038 171.069 114.415L171.129 114.452C171.893 113.597 172.576 112.673 173.171 111.692C173.507 111.163 173.802 110.634 174.091 110.114C173.756 109.898 172.251 108.891 171.755 108.159C171.258 107.428 170.917 106.43 171.221 105.593C171.286 105.394 171.392 105.212 171.532 105.057C171.672 104.902 171.843 104.778 172.033 104.694C172.224 104.609 172.431 104.566 172.639 104.566C172.848 104.566 173.054 104.61 173.245 104.696C174.377 105.243 174.731 107.488 174.579 108.596C174.579 108.661 174.413 109.263 174.298 109.705C174.418 109.47 174.542 109.245 174.653 108.997C175.067 108.141 175.393 107.331 175.678 106.614C175.835 106.2 175.968 105.827 176.092 105.478C175.872 105.091 175.011 103.532 174.929 102.676C174.846 101.821 174.979 100.753 175.632 100.155C175.782 100.009 175.96 99.8954 176.156 99.8223C176.352 99.7492 176.561 99.7182 176.769 99.7312C176.978 99.7442 177.182 99.801 177.367 99.8978C177.552 99.9947 177.715 100.129 177.845 100.293C178.599 101.301 177.882 103.449 177.229 104.369C177.173 104.447 176.152 105.583 176.143 105.565V105.542C176.033 105.882 175.908 106.246 175.766 106.641C175.499 107.368 175.191 108.187 174.791 109.056C174.376 110.004 173.904 110.926 173.378 111.816C172.796 112.812 172.127 113.754 171.377 114.632L171.35 114.659C171.663 114.466 172.56 113.955 172.633 113.923C173.664 113.463 175.922 113.233 176.746 114.181C176.879 114.342 176.977 114.529 177.033 114.73C177.089 114.931 177.102 115.142 177.072 115.349C177.041 115.555 176.967 115.753 176.854 115.929C176.742 116.105 176.593 116.255 176.419 116.37C175.692 116.886 174.602 116.784 173.806 116.527C172.886 116.242 171.377 114.866 171.258 114.76C170.471 115.631 169.629 116.45 168.737 117.212C168.222 117.672 167.684 118.091 167.141 118.519C167.421 118.362 167.67 118.22 167.707 118.206C168.737 117.746 170.991 117.511 171.819 118.459C171.952 118.62 172.05 118.808 172.106 119.01C172.162 119.211 172.174 119.423 172.143 119.63C172.112 119.837 172.037 120.035 171.924 120.211C171.812 120.387 171.663 120.538 171.488 120.653C170.766 121.164 169.675 121.062 168.875 120.809C168.075 120.556 166.741 119.406 166.396 119.098L165.761 119.554C164.753 120.326 163.741 121.095 162.775 121.877C162.435 122.153 162.108 122.438 161.782 122.718C162.026 122.58 162.242 122.461 162.269 122.447C163.3 121.987 165.554 121.757 166.382 122.705C166.515 122.866 166.613 123.053 166.668 123.254C166.724 123.456 166.737 123.667 166.706 123.873C166.674 124.08 166.6 124.278 166.487 124.454C166.374 124.63 166.225 124.78 166.051 124.894C165.328 125.409 164.238 125.308 163.438 125.051C162.637 124.793 161.432 123.763 161.023 123.395C160.696 123.698 160.365 123.997 160.066 124.315C159.864 124.531 159.652 124.719 159.463 124.945L158.861 125.584C158.511 126.012 158.148 126.449 157.817 126.872C157.582 127.167 157.357 127.452 157.15 127.737C157.485 127.461 158.157 126.927 158.217 126.891C159.169 126.297 161.359 125.708 162.32 126.518C162.476 126.658 162.6 126.829 162.685 127.02C162.77 127.211 162.814 127.417 162.814 127.627C162.814 127.836 162.77 128.042 162.685 128.233C162.6 128.424 162.476 128.595 162.32 128.735C161.681 129.352 160.586 129.416 159.758 129.287C158.838 129.145 157.196 128.068 156.998 127.935C156.639 128.395 156.289 128.855 155.972 129.315C154.859 130.851 153.989 132.171 153.396 133.105C153.378 133.138 153.358 133.171 153.336 133.202L152.568 132.825L152.688 132.645C153.309 131.725 154.215 130.396 155.369 128.869C155.737 128.409 156.133 127.875 156.547 127.36C156.122 126.889 155.724 126.394 155.356 125.879C154.472 126.224 152.632 126.237 152.393 126.237C152.352 126.835 152.32 127.415 152.301 127.958C152.218 129.853 152.228 131.435 152.246 132.558V132.691L151.4 132.277C151.4 131.182 151.446 129.697 151.556 127.939C151.593 127.337 151.643 126.688 151.703 126.03C151.469 125.971 149.555 125.478 148.833 124.899C148.111 124.319 147.485 123.519 147.513 122.64C147.511 122.431 147.553 122.224 147.637 122.033C147.721 121.841 147.844 121.67 147.998 121.529C148.153 121.388 148.335 121.282 148.534 121.216C148.732 121.151 148.942 121.128 149.15 121.15C150.397 121.306 151.45 123.321 151.648 124.425C151.648 124.489 151.712 125.212 151.74 125.667C151.74 125.4 151.786 125.133 151.814 124.857C151.869 124.31 151.942 123.763 152.016 123.174C152.062 122.889 152.108 122.603 152.159 122.314C152.209 122.024 152.278 121.729 152.333 121.43C152.485 120.75 152.674 120.05 152.876 119.379C152.393 119.328 150.687 119.126 149.96 118.707C149.233 118.289 148.419 117.553 148.308 116.674C148.275 116.469 148.286 116.258 148.338 116.057C148.391 115.856 148.486 115.668 148.616 115.505C148.746 115.343 148.909 115.21 149.093 115.114C149.278 115.018 149.481 114.962 149.688 114.949C150.944 114.917 152.283 116.748 152.655 117.81C152.678 117.875 152.858 118.666 152.95 119.103C153.074 118.693 153.198 118.279 153.336 117.87C153.746 116.679 154.192 115.487 154.633 114.296C154.767 113.932 154.896 113.569 155.029 113.201C154.859 113.201 152.826 112.989 152.007 112.52C151.28 112.102 150.466 111.366 150.355 110.487C150.322 110.282 150.332 110.071 150.385 109.87C150.438 109.669 150.533 109.481 150.663 109.318C150.793 109.156 150.956 109.023 151.14 108.927C151.325 108.831 151.528 108.775 151.735 108.762C152.991 108.734 154.334 110.565 154.702 111.623C154.73 111.706 154.988 112.842 155.038 113.137C155.328 112.332 155.613 111.527 155.857 110.726C156.193 109.642 156.46 108.537 156.657 107.419C156.575 107.419 154.454 107.216 153.612 106.738C152.885 106.319 152.076 105.583 151.965 104.7C151.932 104.495 151.942 104.285 151.995 104.084C152.049 103.883 152.143 103.695 152.273 103.533C152.403 103.371 152.566 103.238 152.751 103.143C152.935 103.047 153.138 102.992 153.345 102.98C154.601 102.948 155.94 104.778 156.312 105.841C156.335 105.91 156.533 106.761 156.616 107.189H156.69C156.853 106.059 156.916 104.917 156.878 103.776C156.878 103.145 156.818 102.547 156.759 101.963C156.358 101.963 154.537 101.963 153.732 101.618C152.927 101.273 152.076 100.638 151.892 99.7781C151.836 99.5765 151.823 99.3654 151.855 99.1586C151.886 98.9517 151.961 98.7538 152.073 98.5776C152.186 98.4015 152.335 98.251 152.51 98.1361C152.684 98.0212 152.881 97.9443 153.088 97.9105C154.334 97.7403 155.848 99.4147 156.354 100.427C156.377 100.482 156.584 101.075 156.726 101.503C156.699 101.241 156.671 100.97 156.634 100.721C156.51 99.7781 156.335 98.9225 156.174 98.1635C156.078 97.7357 155.981 97.3493 155.889 96.9905C155.498 96.7881 153.92 95.9647 153.378 95.2931C152.835 94.6215 152.361 93.6647 152.573 92.8045C152.614 92.5956 152.7 92.3979 152.824 92.2248C152.949 92.0516 153.108 91.9071 153.293 91.8008C153.478 91.6945 153.683 91.6289 153.895 91.6085C154.107 91.588 154.321 91.6131 154.523 91.6821V91.6821Z" fill="#20C0E8"/> <path d="M177.261 111.075C176.276 111.034 174.312 110.027 174.308 110.027C174.303 110.027 175.366 108.932 175.444 108.872C176.322 108.173 178.429 107.335 179.478 108.03C179.649 108.15 179.793 108.305 179.9 108.484C180.008 108.663 180.076 108.863 180.101 109.071C180.125 109.278 180.106 109.489 180.044 109.688C179.982 109.888 179.878 110.072 179.74 110.229C179.179 110.919 178.103 111.108 177.261 111.075Z" fill="#20C0E8"/> <g opacity="0.5"> <path opacity="0.5" d="M156.956 101.761C156.933 101.761 157.237 100.266 157.265 100.174C157.614 99.1026 158.911 97.2441 160.167 97.2441C160.38 97.2469 160.59 97.2954 160.783 97.3863C160.976 97.4772 161.147 97.6084 161.285 97.771C161.422 97.9336 161.524 98.1239 161.582 98.329C161.64 98.5341 161.653 98.7493 161.621 98.9599C161.533 99.8432 160.738 100.598 160.02 101.03C159.155 101.518 156.961 101.761 156.956 101.761Z" fill="white"/> <path opacity="0.5" d="M154.523 91.6821C155.705 92.1099 156.294 94.2995 156.257 95.4219C156.257 95.5185 156.032 97.032 156.009 97.0228H155.986C156.082 97.3678 156.179 97.7404 156.28 98.1452C156.455 98.8996 156.653 99.7551 156.8 100.698C156.97 101.714 157.082 102.738 157.136 103.766C157.198 104.918 157.158 106.072 157.016 107.216C157.016 107.216 157.016 107.244 157.016 107.258C157.168 106.922 157.637 106.002 157.679 105.938C158.295 104.995 160.038 103.546 161.253 103.877C161.451 103.94 161.635 104.043 161.791 104.181C161.947 104.319 162.072 104.488 162.159 104.678C162.246 104.867 162.292 105.073 162.294 105.281C162.296 105.489 162.255 105.696 162.173 105.887C161.855 106.715 160.889 107.235 160.084 107.46C159.164 107.722 157.145 107.414 156.984 107.391C156.809 108.552 156.559 109.7 156.234 110.827C156.05 111.485 155.843 112.143 155.622 112.796C155.77 112.511 155.898 112.258 155.921 112.226C156.538 111.306 158.281 109.834 159.491 110.17C159.69 110.231 159.874 110.334 160.03 110.471C160.186 110.609 160.312 110.778 160.399 110.967C160.486 111.156 160.532 111.362 160.534 111.57C160.536 111.778 160.494 111.984 160.411 112.175C160.089 113.003 159.128 113.523 158.318 113.753C157.508 113.983 155.765 113.753 155.31 113.693C155.222 113.942 155.139 114.195 155.052 114.443C154.638 115.648 154.215 116.844 153.842 118.031C153.709 118.45 153.594 118.868 153.474 119.282C153.603 119.029 153.713 118.822 153.732 118.79C154.348 117.847 156.092 116.398 157.306 116.729C157.505 116.792 157.688 116.896 157.844 117.034C158 117.172 158.125 117.341 158.212 117.53C158.299 117.719 158.345 117.925 158.347 118.133C158.35 118.342 158.308 118.548 158.226 118.739C157.904 119.567 156.938 120.083 156.133 120.313C155.328 120.543 153.75 120.34 153.203 120.267C153.097 120.699 152.987 121.127 152.904 121.55C152.853 121.84 152.784 122.116 152.747 122.406C152.711 122.695 152.669 122.985 152.628 123.266C152.573 123.818 152.508 124.384 152.467 124.922C152.435 125.294 152.412 125.653 152.389 126.012C152.513 125.593 152.78 124.779 152.812 124.715C153.255 123.833 153.917 123.079 154.735 122.525C154.781 122.424 154.836 122.327 154.9 122.235C155.014 122.06 155.164 121.911 155.34 121.798C155.515 121.685 155.713 121.61 155.919 121.577C156.126 121.545 156.337 121.557 156.538 121.612C156.74 121.666 156.928 121.763 157.09 121.895C158.042 122.718 157.803 124.972 157.366 126.007C157.338 126.072 156.984 126.702 156.754 127.093C156.924 126.881 157.085 126.674 157.265 126.463C157.614 126.035 157.978 125.616 158.364 125.166L158.953 124.526C159.146 124.31 159.376 124.108 159.588 123.891C160.094 123.404 160.627 122.935 161.175 122.475C160.802 122.171 159.486 121.062 159.109 120.308C158.732 119.554 158.465 118.496 158.856 117.7C158.942 117.509 159.067 117.339 159.224 117.2C159.38 117.062 159.564 116.957 159.763 116.894C159.962 116.831 160.172 116.811 160.38 116.835C160.588 116.859 160.788 116.926 160.968 117.033C162.035 117.7 162.141 119.968 161.888 121.053C161.888 121.122 161.584 121.881 161.428 122.295C161.759 122.019 162.09 121.748 162.435 121.481C163.429 120.713 164.459 119.963 165.485 119.213C165.798 118.983 166.11 118.753 166.405 118.519C166.271 118.413 164.684 117.139 164.261 116.283C163.884 115.533 163.613 114.475 164.008 113.679C164.094 113.489 164.219 113.318 164.375 113.179C164.531 113.039 164.714 112.935 164.914 112.871C165.113 112.808 165.323 112.787 165.531 112.811C165.739 112.834 165.94 112.901 166.12 113.008C167.187 113.675 167.293 115.943 167.017 117.033C166.994 117.116 166.58 118.206 166.465 118.477C167.15 117.967 167.845 117.451 168.475 116.918C169.354 116.207 170.186 115.439 170.963 114.618C170.904 114.572 169.238 113.238 168.806 112.373C168.429 111.623 168.157 110.561 168.553 109.765C168.639 109.574 168.764 109.404 168.92 109.265C169.077 109.127 169.26 109.022 169.46 108.959C169.659 108.896 169.869 108.876 170.077 108.9C170.284 108.924 170.485 108.991 170.664 109.098C171.732 109.765 171.837 112.033 171.561 113.118C171.561 113.192 171.226 114.038 171.069 114.415L171.129 114.452C171.893 113.597 172.576 112.673 173.171 111.692C173.507 111.163 173.802 110.634 174.091 110.114C173.756 109.898 172.251 108.891 171.755 108.159C171.258 107.428 170.917 106.43 171.221 105.593C171.286 105.394 171.392 105.212 171.532 105.057C171.672 104.902 171.843 104.778 172.033 104.694C172.224 104.609 172.431 104.566 172.639 104.566C172.848 104.566 173.054 104.61 173.245 104.696C174.377 105.243 174.731 107.488 174.579 108.596C174.579 108.661 174.413 109.263 174.298 109.705C174.418 109.47 174.542 109.245 174.653 108.997C175.067 108.141 175.393 107.331 175.678 106.614C175.835 106.2 175.968 105.827 176.092 105.478C175.872 105.091 175.011 103.532 174.929 102.676C174.846 101.821 174.979 100.753 175.632 100.155C175.782 100.009 175.96 99.8954 176.156 99.8223C176.352 99.7492 176.561 99.7182 176.769 99.7312C176.978 99.7442 177.182 99.801 177.367 99.8978C177.552 99.9947 177.715 100.129 177.845 100.293C178.599 101.301 177.882 103.449 177.229 104.369C177.173 104.447 176.152 105.583 176.143 105.565V105.542C176.033 105.882 175.908 106.246 175.766 106.641C175.499 107.368 175.191 108.187 174.791 109.056C174.376 110.004 173.904 110.926 173.378 111.816C172.796 112.812 172.127 113.754 171.377 114.632L171.35 114.659C171.663 114.466 172.56 113.955 172.633 113.923C173.664 113.463 175.922 113.233 176.746 114.181C176.879 114.342 176.977 114.529 177.033 114.73C177.089 114.931 177.102 115.142 177.072 115.349C177.041 115.555 176.967 115.753 176.854 115.929C176.742 116.105 176.593 116.255 176.419 116.37C175.692 116.886 174.602 116.784 173.806 116.527C172.886 116.242 171.377 114.866 171.258 114.76C170.471 115.631 169.629 116.45 168.737 117.212C168.222 117.672 167.684 118.091 167.141 118.519C167.421 118.362 167.67 118.22 167.707 118.206C168.737 117.746 170.991 117.511 171.819 118.459C171.952 118.62 172.05 118.808 172.106 119.01C172.162 119.211 172.174 119.423 172.143 119.63C172.112 119.837 172.037 120.035 171.924 120.211C171.812 120.387 171.663 120.538 171.488 120.653C170.766 121.164 169.675 121.062 168.875 120.809C168.075 120.556 166.741 119.406 166.396 119.098L165.761 119.554C164.753 120.326 163.741 121.095 162.775 121.877C162.435 122.153 162.108 122.438 161.782 122.718C162.026 122.58 162.242 122.461 162.269 122.447C163.3 121.987 165.554 121.757 166.382 122.705C166.515 122.866 166.613 123.053 166.668 123.254C166.724 123.456 166.737 123.667 166.706 123.873C166.674 124.08 166.6 124.278 166.487 124.454C166.374 124.63 166.225 124.78 166.051 124.894C165.328 125.409 164.238 125.308 163.438 125.051C162.637 124.793 161.432 123.763 161.023 123.395C160.696 123.698 160.365 123.997 160.066 124.315C159.864 124.531 159.652 124.719 159.463 124.945L158.861 125.584C158.511 126.012 158.148 126.449 157.817 126.872C157.582 127.167 157.357 127.452 157.15 127.737C157.485 127.461 158.157 126.927 158.217 126.891C159.169 126.297 161.359 125.708 162.32 126.518C162.476 126.658 162.6 126.829 162.685 127.02C162.77 127.211 162.814 127.417 162.814 127.627C162.814 127.836 162.77 128.042 162.685 128.233C162.6 128.424 162.476 128.595 162.32 128.735C161.681 129.352 160.586 129.416 159.758 129.287C158.838 129.145 157.196 128.068 156.998 127.935C156.639 128.395 156.289 128.855 155.972 129.315C154.859 130.851 153.989 132.171 153.396 133.105C153.378 133.138 153.358 133.171 153.336 133.202L152.568 132.825L152.688 132.645C153.309 131.725 154.215 130.396 155.369 128.869C155.737 128.409 156.133 127.875 156.547 127.36C156.122 126.889 155.724 126.394 155.356 125.879C154.472 126.224 152.632 126.237 152.393 126.237C152.352 126.835 152.32 127.415 152.301 127.958C152.218 129.853 152.228 131.435 152.246 132.558V132.691L151.4 132.277C151.4 131.182 151.446 129.697 151.556 127.939C151.593 127.337 151.643 126.688 151.703 126.03C151.469 125.971 149.555 125.478 148.833 124.899C148.111 124.319 147.485 123.519 147.513 122.64C147.511 122.431 147.553 122.224 147.637 122.033C147.721 121.841 147.844 121.67 147.998 121.529C148.153 121.388 148.335 121.282 148.534 121.216C148.732 121.151 148.942 121.128 149.15 121.15C150.397 121.306 151.45 123.321 151.648 124.425C151.648 124.489 151.712 125.212 151.74 125.667C151.74 125.4 151.786 125.133 151.814 124.857C151.869 124.31 151.942 123.763 152.016 123.174C152.062 122.889 152.108 122.603 152.159 122.314C152.209 122.024 152.278 121.729 152.333 121.43C152.485 120.75 152.674 120.05 152.876 119.379C152.393 119.328 150.687 119.126 149.96 118.707C149.233 118.289 148.419 117.553 148.308 116.674C148.275 116.469 148.286 116.258 148.338 116.057C148.391 115.856 148.486 115.668 148.616 115.505C148.746 115.343 148.909 115.21 149.093 115.114C149.278 115.018 149.481 114.962 149.688 114.949C150.944 114.917 152.283 116.748 152.655 117.81C152.678 117.875 152.858 118.666 152.95 119.103C153.074 118.693 153.198 118.279 153.336 117.87C153.746 116.679 154.192 115.487 154.633 114.296C154.767 113.932 154.896 113.569 155.029 113.201C154.859 113.201 152.826 112.989 152.007 112.52C151.28 112.102 150.466 111.366 150.355 110.487C150.322 110.282 150.332 110.071 150.385 109.87C150.438 109.669 150.533 109.481 150.663 109.318C150.793 109.156 150.956 109.023 151.14 108.927C151.325 108.831 151.528 108.775 151.735 108.762C152.991 108.734 154.334 110.565 154.702 111.623C154.73 111.706 154.988 112.842 155.038 113.137C155.328 112.332 155.613 111.527 155.857 110.726C156.193 109.642 156.46 108.537 156.657 107.419C156.575 107.419 154.454 107.216 153.612 106.738C152.885 106.319 152.076 105.583 151.965 104.7C151.932 104.495 151.942 104.285 151.995 104.084C152.049 103.883 152.143 103.695 152.273 103.533C152.403 103.371 152.566 103.238 152.751 103.143C152.935 103.047 153.138 102.992 153.345 102.98C154.601 102.948 155.94 104.778 156.312 105.841C156.335 105.91 156.533 106.761 156.616 107.189H156.69C156.853 106.059 156.916 104.917 156.878 103.776C156.878 103.145 156.818 102.547 156.759 101.963C156.358 101.963 154.537 101.963 153.732 101.618C152.927 101.273 152.076 100.638 151.892 99.7781C151.836 99.5765 151.823 99.3654 151.855 99.1586C151.886 98.9517 151.961 98.7538 152.073 98.5776C152.186 98.4015 152.335 98.251 152.51 98.1361C152.684 98.0212 152.881 97.9443 153.088 97.9105C154.334 97.7403 155.848 99.4147 156.354 100.427C156.377 100.482 156.584 101.075 156.726 101.503C156.699 101.241 156.671 100.97 156.634 100.721C156.51 99.7781 156.335 98.9225 156.174 98.1635C156.078 97.7357 155.981 97.3493 155.889 96.9905C155.498 96.7881 153.92 95.9647 153.378 95.2931C152.835 94.6215 152.361 93.6647 152.573 92.8045C152.614 92.5956 152.7 92.3979 152.824 92.2248C152.949 92.0516 153.108 91.9071 153.293 91.8008C153.478 91.6945 153.683 91.6289 153.895 91.6085C154.107 91.588 154.321 91.6131 154.523 91.6821V91.6821Z" fill="white"/> <path opacity="0.5" d="M177.261 111.075C176.276 111.034 174.312 110.027 174.308 110.027C174.303 110.027 175.366 108.932 175.444 108.872C176.322 108.173 178.429 107.335 179.478 108.03C179.649 108.15 179.793 108.305 179.9 108.484C180.008 108.663 180.076 108.863 180.101 109.071C180.125 109.278 180.106 109.489 180.044 109.688C179.982 109.888 179.878 110.072 179.74 110.229C179.179 110.919 178.103 111.108 177.261 111.075Z" fill="white"/> </g> <path d="M165.784 135.69C165.784 135.69 159.804 121.31 156.483 121.936C153.162 122.561 162.205 144.862 162.205 144.862C162.205 144.862 151.708 125.082 144.551 125.082C137.393 125.082 147.177 146.964 156.244 154.26C156.244 154.26 141.928 138.836 133.579 142.171C125.23 145.506 150.277 161.137 150.277 161.137C150.277 161.137 135.728 156.537 137.397 160.093C139.067 163.649 143.598 164.26 143.598 164.26L127.121 165.079H184.391L171.511 163.828C171.511 163.828 184.851 157.158 181.291 154.449C177.73 151.739 169.841 157.577 169.841 157.577C169.841 157.577 183.439 142.567 180.817 136.941C178.195 131.315 166.502 147.153 166.502 147.153C166.502 147.153 176.042 126.936 174.133 123.394C172.224 119.852 165.784 135.69 165.784 135.69Z" fill="#20C0E8"/> <path opacity="0.4" d="M165.784 135.69C165.784 135.69 159.804 121.31 156.483 121.936C153.162 122.561 162.205 144.862 162.205 144.862C162.205 144.862 151.708 125.082 144.551 125.082C137.393 125.082 147.177 146.964 156.244 154.26C156.244 154.26 141.928 138.836 133.579 142.171C125.23 145.506 150.277 161.137 150.277 161.137C150.277 161.137 135.728 156.537 137.397 160.093C139.067 163.649 143.598 164.26 143.598 164.26L127.121 165.079H184.391L171.511 163.828C171.511 163.828 184.851 157.158 181.291 154.449C177.73 151.739 169.841 157.577 169.841 157.577C169.841 157.577 183.439 142.567 180.817 136.941C178.195 131.315 166.502 147.153 166.502 147.153C166.502 147.153 176.042 126.936 174.133 123.394C172.224 119.852 165.784 135.69 165.784 135.69Z" fill="white"/> <path d="M167.693 136.449C162.444 151.956 162.444 162.931 162.444 162.931C162.444 162.931 168.65 163.171 175.09 158.396" stroke="#787878" stroke-linecap="round" stroke-linejoin="round"/> <path d="M165.071 144.799C163.987 140.163 162.551 135.618 160.774 131.201" stroke="#787878" stroke-linecap="round" stroke-linejoin="round"/> <path d="M149.564 135.76L162.904 155.54C162.904 155.54 171.971 147.908 175.071 143.612" stroke="#787878" stroke-linecap="round" stroke-linejoin="round"/> <path d="M162.684 160.306C162.684 160.306 148.608 153.627 142.881 149.809" stroke="#787878" stroke-linecap="round" stroke-linejoin="round"/> <path d="M72.5645 124.407C72.5645 124.407 72.7439 123.445 72.7623 123.385C72.9831 122.7 73.8203 121.504 74.6023 121.504C74.7364 121.508 74.8682 121.54 74.9891 121.598C75.1101 121.656 75.2174 121.739 75.3042 121.842C75.3909 121.944 75.4552 122.064 75.4928 122.192C75.5303 122.321 75.5404 122.457 75.5223 122.59C75.4582 122.874 75.3328 123.14 75.1548 123.371C74.9768 123.601 74.7505 123.79 74.4919 123.924C73.8763 124.177 73.227 124.34 72.5645 124.407V124.407Z" fill="#20C0E8"/> <path d="M71.0006 117.934C71.7596 118.205 72.1368 119.613 72.1138 120.335C72.1138 120.395 71.9666 121.366 71.9574 121.361C72.0218 121.586 72.0816 121.821 72.146 122.083C72.261 122.571 72.3852 123.118 72.4818 123.725C72.5912 124.377 72.6634 125.034 72.698 125.694C72.7376 126.434 72.7114 127.176 72.6198 127.911C72.622 127.92 72.622 127.93 72.6198 127.939C72.721 127.723 73.02 127.129 73.0476 127.088C73.4432 126.485 74.561 125.552 75.3476 125.768C75.4759 125.807 75.5945 125.872 75.6957 125.96C75.7969 126.048 75.8784 126.156 75.9348 126.278C75.9913 126.4 76.0214 126.532 76.0233 126.666C76.0251 126.8 75.9987 126.933 75.9456 127.056C75.8091 127.312 75.6181 127.536 75.3861 127.711C75.154 127.885 74.8866 128.007 74.6024 128.068C73.94 128.153 73.2684 128.138 72.6106 128.022C72.5048 128.767 72.3511 129.504 72.1506 130.23C72.031 130.653 71.8976 131.076 71.755 131.495C71.847 131.311 71.9344 131.15 71.9482 131.127C72.3438 130.524 73.4616 129.59 74.2482 129.807C74.3767 129.846 74.4953 129.912 74.5965 130C74.6977 130.089 74.7792 130.198 74.8356 130.319C74.892 130.441 74.9221 130.574 74.924 130.708C74.9258 130.843 74.8993 130.976 74.8462 131.099C74.7082 131.354 74.5167 131.576 74.2848 131.75C74.053 131.924 73.7863 132.045 73.503 132.107C72.8594 132.194 72.2062 132.182 71.5664 132.07C71.5112 132.231 71.4606 132.392 71.4008 132.553C71.134 133.326 70.8672 134.094 70.6234 134.853C70.5406 135.12 70.467 135.391 70.3888 135.658C70.4716 135.497 70.5406 135.359 70.5544 135.34C70.95 134.738 72.0724 133.804 72.8544 134.016C72.9829 134.055 73.1015 134.121 73.2027 134.209C73.3039 134.298 73.3854 134.407 73.4418 134.528C73.4982 134.65 73.5283 134.783 73.5302 134.917C73.532 135.052 73.5055 135.185 73.4524 135.308C73.3164 135.565 73.1256 135.789 72.8934 135.964C72.6613 136.139 72.3936 136.26 72.1092 136.32C71.4843 136.408 70.8494 136.397 70.2278 136.288C70.1588 136.564 70.0898 136.84 70.0346 137.111C70.0024 137.3 69.961 137.475 69.938 137.663C69.915 137.852 69.8828 138.036 69.8598 138.215C69.823 138.57 69.7816 138.933 69.754 139.278C69.754 139.517 69.7218 139.738 69.7034 139.977C69.7862 139.71 69.9564 139.191 69.9748 139.145C70.2626 138.579 70.6882 138.095 71.2122 137.737C71.243 137.673 71.2783 137.612 71.318 137.553C71.3915 137.441 71.4879 137.345 71.6009 137.272C71.7138 137.199 71.8408 137.151 71.9736 137.131C72.1064 137.11 72.242 137.118 72.3715 137.154C72.5011 137.189 72.6218 137.252 72.7256 137.337C73.3374 137.861 73.1856 139.315 72.9004 139.977C72.9004 140.019 72.6566 140.437 72.5094 140.676L72.836 140.267C73.0614 139.991 73.296 139.724 73.5444 139.434L73.9216 139.025C74.0458 138.887 74.193 138.754 74.331 138.616C74.653 138.303 74.998 138.004 75.3476 137.696C74.8391 137.305 74.3925 136.84 74.0228 136.316C73.8755 136.065 73.7847 135.785 73.7569 135.496C73.7291 135.207 73.7649 134.915 73.8618 134.641C73.9165 134.515 73.9977 134.403 74.0997 134.311C74.2017 134.22 74.3222 134.151 74.4531 134.11C74.584 134.069 74.7221 134.057 74.8582 134.074C74.9943 134.091 75.1251 134.137 75.2418 134.209C75.9226 134.641 75.9916 136.095 75.8168 136.794C75.8168 136.84 75.619 137.328 75.5132 137.59C75.7294 137.415 75.941 137.24 76.1618 137.07C76.8012 136.573 77.4636 136.095 78.1214 135.612L78.7194 135.152C78.1893 134.746 77.724 134.262 77.3394 133.717C77.1913 133.467 77.0998 133.187 77.0711 132.898C77.0425 132.608 77.0776 132.316 77.1738 132.042C77.2284 131.916 77.3095 131.804 77.4116 131.712C77.5138 131.62 77.6345 131.552 77.7656 131.511C77.8966 131.471 78.0349 131.459 78.171 131.477C78.307 131.494 78.4376 131.541 78.5538 131.614C79.2392 132.042 79.3082 133.496 79.1288 134.195C79.1288 134.25 78.8528 134.949 78.7746 135.115C79.2346 134.788 79.6532 134.457 80.0672 134.117C80.632 133.655 81.1667 133.157 81.668 132.626C81.139 132.216 80.6739 131.729 80.288 131.182C80.1416 130.931 80.0513 130.652 80.0235 130.362C79.9957 130.073 80.031 129.782 80.127 129.508C80.1826 129.385 80.2632 129.276 80.3637 129.187C80.4642 129.099 80.5822 129.032 80.7102 128.991C80.8382 128.951 80.9732 128.938 81.1065 128.953C81.2398 128.969 81.3685 129.012 81.484 129.08C82.1694 129.508 82.2338 130.966 82.059 131.665C82.059 131.711 81.8474 132.245 81.7416 132.498L81.783 132.521C82.2717 131.974 82.7104 131.384 83.094 130.759C83.3102 130.418 83.4988 130.078 83.6736 129.747C83.1124 129.406 82.6067 128.981 82.174 128.486C81.9993 128.254 81.8778 127.986 81.8182 127.701C81.7585 127.417 81.7623 127.123 81.829 126.84C81.8708 126.712 81.9389 126.595 82.029 126.495C82.119 126.396 82.229 126.316 82.3518 126.262C82.4746 126.208 82.6074 126.18 82.7416 126.18C82.8758 126.181 83.0084 126.21 83.1308 126.265C83.8576 126.619 84.083 128.054 83.9864 128.772C83.9864 128.808 83.8806 129.199 83.807 129.48C83.8806 129.328 83.9634 129.176 84.0324 129.02C84.2992 128.468 84.4924 127.948 84.6902 127.484C84.7914 127.221 84.8788 126.982 84.957 126.757C84.6189 126.198 84.3676 125.592 84.2118 124.958C84.1666 124.671 84.1843 124.378 84.2637 124.098C84.3432 123.818 84.4824 123.559 84.6718 123.339C84.7672 123.244 84.8816 123.17 85.0074 123.123C85.1333 123.075 85.2679 123.055 85.4022 123.063C85.5365 123.072 85.6675 123.108 85.7866 123.171C85.9057 123.233 86.0102 123.32 86.0932 123.426C86.5762 124.075 86.1162 125.455 85.6976 126.044C85.6608 126.094 85.0076 126.826 84.9984 126.812C84.9294 127.028 84.8512 127.272 84.7592 127.516C84.5844 127.976 84.3866 128.509 84.1336 129.071C83.8607 129.675 83.5536 130.263 83.2136 130.832C82.8383 131.472 82.4073 132.077 81.9256 132.64C81.9256 132.64 81.9256 132.64 81.9256 132.64C82.128 132.516 82.703 132.18 82.749 132.18C83.4114 131.895 84.8604 131.72 85.394 132.346C85.4793 132.449 85.542 132.569 85.5777 132.698C85.6135 132.827 85.6217 132.962 85.6018 133.095C85.5818 133.227 85.5341 133.354 85.4619 133.466C85.3896 133.579 85.2944 133.675 85.1824 133.749C84.927 133.887 84.6445 133.968 84.3546 133.987C84.0646 134.005 83.7742 133.96 83.5034 133.855C82.9029 133.56 82.3507 133.175 81.8658 132.714C81.3629 133.276 80.8219 133.803 80.2466 134.292C79.9154 134.577 79.5704 134.857 79.2254 135.133C79.4002 135.028 79.5612 134.94 79.5842 134.931C80.2466 134.646 81.6956 134.471 82.2292 135.092C82.3146 135.196 82.3773 135.316 82.4131 135.445C82.449 135.575 82.4572 135.71 82.4372 135.843C82.4173 135.976 82.3696 136.103 82.2973 136.216C82.225 136.329 82.1297 136.426 82.0176 136.5C81.7622 136.638 81.4795 136.719 81.1894 136.737C80.8993 136.754 80.6089 136.708 80.3386 136.601C79.7529 136.321 79.2144 135.952 78.7424 135.506L78.3422 135.819C77.6936 136.316 77.0404 136.808 76.4194 137.309C76.2032 137.484 75.9916 137.668 75.78 137.852L76.0928 137.677C76.7598 137.392 78.2088 137.217 78.7378 137.838C78.8232 137.942 78.8859 138.062 78.9217 138.192C78.9576 138.321 78.9658 138.456 78.9458 138.589C78.9259 138.722 78.8782 138.849 78.8059 138.962C78.7336 139.075 78.6383 139.172 78.5262 139.246C78.2709 139.385 77.9881 139.466 77.698 139.483C77.4078 139.501 77.1174 139.454 76.8472 139.347C76.2771 139.075 75.7526 138.717 75.2924 138.284C75.0854 138.478 74.8738 138.671 74.6806 138.869C74.4874 139.066 74.4138 139.126 74.2942 139.273L73.9216 139.687C73.6962 139.963 73.4616 140.244 73.25 140.52L72.8222 141.077C73.0384 140.897 73.4662 140.557 73.5076 140.529C74.1194 140.147 75.527 139.77 76.1434 140.29C76.2431 140.38 76.3227 140.49 76.3772 140.613C76.4317 140.736 76.4599 140.869 76.4599 141.003C76.4599 141.137 76.4317 141.27 76.3772 141.393C76.3227 141.516 76.2431 141.626 76.1434 141.716C75.9117 141.891 75.6449 142.013 75.3613 142.074C75.0777 142.135 74.7843 142.134 74.5012 142.07C73.8668 141.873 73.2664 141.58 72.721 141.201C72.4864 141.504 72.261 141.803 72.0586 142.089C71.3456 143.078 70.789 143.929 70.4072 144.522L70.3704 144.586L69.8736 144.347L69.9518 144.228C70.352 143.63 70.9316 142.783 71.6768 141.803C71.9114 141.495 72.1644 141.164 72.4312 140.833C72.1568 140.531 71.9003 140.213 71.663 139.881C71.0437 140.047 70.4043 140.126 69.7632 140.115C69.7356 140.497 69.7172 140.87 69.7034 141.219C69.6528 142.438 69.6528 143.455 69.6666 144.163C69.6643 144.191 69.6643 144.218 69.6666 144.246L69.1192 143.984C69.1192 143.275 69.1468 142.323 69.2204 141.196C69.2204 140.805 69.2756 140.391 69.317 139.968C68.6702 139.821 68.0497 139.576 67.477 139.241C67.2382 139.076 67.0382 138.861 66.8912 138.611C66.7442 138.361 66.6537 138.081 66.626 137.792C66.6247 137.658 66.6518 137.524 66.7055 137.401C66.7592 137.277 66.8384 137.167 66.9378 137.076C67.0372 136.985 67.1546 136.917 67.2824 136.874C67.4102 136.832 67.5455 136.817 67.6794 136.831C68.4798 136.937 69.1514 138.211 69.2848 138.938C69.2848 138.979 69.3262 139.444 69.34 139.733C69.34 139.563 69.3722 139.393 69.3906 139.214C69.4274 138.859 69.4734 138.51 69.5194 138.133C69.5516 137.949 69.5792 137.765 69.6114 137.581C69.6436 137.397 69.685 137.203 69.7264 137.015C69.823 136.555 69.9426 136.136 70.0714 135.695C69.4288 135.648 68.7973 135.502 68.1992 135.262C67.9379 135.135 67.7077 134.952 67.5249 134.727C67.3421 134.501 67.2111 134.238 67.1412 133.956C67.1189 133.823 67.125 133.688 67.1591 133.558C67.1931 133.428 67.2544 133.307 67.3387 133.203C67.4231 133.098 67.5287 133.013 67.6485 132.953C67.7683 132.892 67.8995 132.858 68.0336 132.852C68.8432 132.829 69.7034 134.006 69.938 134.692C69.938 134.733 70.0714 135.244 70.1266 135.524C70.2094 135.258 70.2876 134.995 70.3796 134.729C70.6372 133.965 70.927 133.201 71.2076 132.429C71.295 132.199 71.3778 131.969 71.4652 131.729C70.8004 131.679 70.1464 131.532 69.524 131.292C69.2628 131.163 69.0326 130.98 68.8492 130.753C68.6658 130.527 68.5335 130.264 68.4614 129.981C68.4406 129.849 68.4479 129.713 68.4828 129.584C68.5177 129.454 68.5795 129.334 68.6641 129.23C68.7486 129.126 68.8542 129.04 68.9738 128.98C69.0934 128.919 69.2245 128.884 69.3584 128.877C70.1634 128.854 71.0236 130.032 71.2628 130.717C71.2628 130.768 71.4468 131.499 71.479 131.688C71.6676 131.173 71.847 130.658 72.0034 130.142C72.1741 129.447 72.3001 128.742 72.3806 128.031C71.7109 127.983 71.0521 127.836 70.4256 127.594C70.1652 127.466 69.9358 127.283 69.7531 127.057C69.5705 126.831 69.4389 126.569 69.3676 126.288C69.3461 126.155 69.3527 126.02 69.3871 125.89C69.4214 125.76 69.4826 125.639 69.5668 125.534C69.6509 125.43 69.7561 125.344 69.8756 125.283C69.995 125.222 70.126 125.186 70.26 125.179C71.0696 125.179 71.9298 126.334 72.169 127.019C72.169 127.06 72.3116 127.617 72.3622 127.884H72.4082C72.5144 127.158 72.5559 126.423 72.5324 125.69C72.5324 125.285 72.4956 124.903 72.4542 124.526C71.7996 124.553 71.1448 124.478 70.513 124.305C70.2398 124.207 69.9913 124.05 69.7848 123.846C69.5783 123.641 69.4186 123.395 69.317 123.123C69.281 122.994 69.2725 122.858 69.2922 122.725C69.3119 122.593 69.3593 122.466 69.4313 122.352C69.5033 122.239 69.5984 122.142 69.7102 122.068C69.8221 121.994 69.9483 121.944 70.0806 121.922C70.8856 121.816 71.8654 122.888 72.1782 123.541C72.1782 123.578 72.33 123.955 72.422 124.231C72.399 124.066 72.3852 123.891 72.3622 123.73C72.2794 123.123 72.169 122.575 72.0632 122.088C72.0034 121.812 71.9436 121.563 71.8838 121.333C71.2935 121.054 70.749 120.686 70.2692 120.243C70.0718 120.03 69.9234 119.776 69.8344 119.5C69.7454 119.223 69.718 118.931 69.754 118.642C69.7812 118.509 69.8365 118.384 69.9163 118.274C69.9961 118.164 70.0984 118.072 70.2165 118.005C70.3346 117.938 70.4656 117.897 70.6009 117.885C70.7361 117.872 70.8724 117.889 71.0006 117.934Z" fill="#20C0E8"/> <path d="M85.6107 130.392C84.9481 130.26 84.3081 130.032 83.7109 129.716C83.7109 129.716 84.3917 129.012 84.4423 128.975C85.0035 128.515 86.3605 127.986 87.0321 128.437C87.1424 128.514 87.2353 128.613 87.3045 128.728C87.3738 128.843 87.4179 128.972 87.434 129.105C87.4501 129.238 87.4377 129.374 87.3978 129.502C87.3579 129.63 87.2913 129.749 87.2023 129.849C86.992 130.049 86.7408 130.201 86.466 130.295C86.1913 130.389 85.8995 130.422 85.6107 130.392V130.392Z" fill="#20C0E8"/> <g opacity="0.5"> <path opacity="0.5" d="M72.5645 124.406C72.5645 124.406 72.7439 123.445 72.7623 123.385C72.9831 122.7 73.8203 121.504 74.6023 121.504C74.7364 121.508 74.8682 121.54 74.9891 121.598C75.1101 121.656 75.2174 121.739 75.3042 121.842C75.3909 121.944 75.4552 122.064 75.4928 122.192C75.5303 122.321 75.5404 122.457 75.5223 122.589C75.4582 122.874 75.3328 123.14 75.1548 123.371C74.9768 123.601 74.7505 123.79 74.4919 123.923C73.8763 124.177 73.227 124.34 72.5645 124.406V124.406Z" fill="white"/> <path opacity="0.5" d="M71.0006 117.934C71.7596 118.205 72.1368 119.613 72.1138 120.335C72.1138 120.395 71.9666 121.366 71.9574 121.361C72.0218 121.586 72.0816 121.821 72.146 122.083C72.261 122.571 72.3852 123.118 72.4818 123.725C72.5912 124.377 72.6634 125.034 72.698 125.694C72.7376 126.434 72.7114 127.176 72.6198 127.911C72.622 127.92 72.622 127.93 72.6198 127.939C72.721 127.723 73.02 127.129 73.0476 127.088C73.4432 126.485 74.561 125.552 75.3476 125.768C75.4759 125.807 75.5945 125.872 75.6957 125.96C75.7969 126.048 75.8784 126.156 75.9348 126.278C75.9913 126.4 76.0214 126.532 76.0233 126.666C76.0251 126.8 75.9987 126.933 75.9456 127.056C75.8091 127.312 75.6181 127.536 75.3861 127.711C75.154 127.885 74.8866 128.007 74.6024 128.068C73.94 128.153 73.2684 128.138 72.6106 128.022C72.5048 128.767 72.3511 129.504 72.1506 130.23C72.031 130.653 71.8976 131.076 71.755 131.495C71.847 131.311 71.9344 131.15 71.9482 131.127C72.3438 130.524 73.4616 129.59 74.2482 129.807C74.3767 129.846 74.4953 129.912 74.5965 130C74.6977 130.089 74.7792 130.198 74.8356 130.319C74.892 130.441 74.9221 130.574 74.924 130.708C74.9258 130.843 74.8993 130.976 74.8462 131.099C74.7082 131.354 74.5167 131.576 74.2848 131.75C74.053 131.924 73.7863 132.045 73.503 132.107C72.8594 132.194 72.2062 132.182 71.5664 132.07C71.5112 132.231 71.4606 132.392 71.4008 132.553C71.134 133.326 70.8672 134.094 70.6234 134.853C70.5406 135.12 70.467 135.391 70.3888 135.658C70.4716 135.497 70.5406 135.359 70.5544 135.34C70.95 134.738 72.0724 133.804 72.8544 134.016C72.9829 134.055 73.1015 134.121 73.2027 134.209C73.3039 134.298 73.3854 134.407 73.4418 134.528C73.4982 134.65 73.5283 134.783 73.5302 134.917C73.532 135.052 73.5055 135.185 73.4524 135.308C73.3164 135.565 73.1256 135.789 72.8934 135.964C72.6613 136.139 72.3936 136.26 72.1092 136.32C71.4843 136.408 70.8494 136.397 70.2278 136.288C70.1588 136.564 70.0898 136.84 70.0346 137.111C70.0024 137.3 69.961 137.475 69.938 137.663C69.915 137.852 69.8828 138.036 69.8598 138.215C69.823 138.57 69.7816 138.933 69.754 139.278C69.754 139.517 69.7218 139.738 69.7034 139.977C69.7862 139.71 69.9564 139.191 69.9748 139.145C70.2626 138.579 70.6882 138.095 71.2122 137.737C71.243 137.673 71.2783 137.612 71.318 137.553C71.3915 137.441 71.4879 137.345 71.6009 137.272C71.7138 137.199 71.8408 137.151 71.9736 137.131C72.1064 137.11 72.242 137.118 72.3715 137.154C72.5011 137.189 72.6218 137.252 72.7256 137.337C73.3374 137.861 73.1856 139.315 72.9004 139.977C72.9004 140.019 72.6566 140.437 72.5094 140.676L72.836 140.267C73.0614 139.991 73.296 139.724 73.5444 139.434L73.9216 139.025C74.0458 138.887 74.193 138.754 74.331 138.616C74.653 138.303 74.998 138.004 75.3476 137.696C74.8391 137.305 74.3925 136.84 74.0228 136.316C73.8755 136.065 73.7847 135.785 73.7569 135.496C73.7291 135.207 73.7649 134.915 73.8618 134.641C73.9165 134.515 73.9977 134.403 74.0997 134.311C74.2017 134.22 74.3222 134.151 74.4531 134.11C74.584 134.069 74.7221 134.057 74.8582 134.074C74.9943 134.091 75.1251 134.137 75.2418 134.209C75.9226 134.641 75.9916 136.095 75.8168 136.794C75.8168 136.84 75.619 137.328 75.5132 137.59C75.7294 137.415 75.941 137.24 76.1618 137.07C76.8012 136.573 77.4636 136.095 78.1214 135.612L78.7194 135.152C78.1893 134.746 77.724 134.262 77.3394 133.717C77.1913 133.467 77.0998 133.187 77.0711 132.898C77.0425 132.608 77.0776 132.316 77.1738 132.042C77.2284 131.916 77.3095 131.804 77.4116 131.712C77.5138 131.62 77.6345 131.552 77.7656 131.511C77.8966 131.471 78.0349 131.459 78.171 131.477C78.307 131.494 78.4376 131.541 78.5538 131.614C79.2392 132.042 79.3082 133.496 79.1288 134.195C79.1288 134.25 78.8528 134.949 78.7746 135.115C79.2346 134.788 79.6532 134.457 80.0672 134.117C80.632 133.655 81.1667 133.157 81.668 132.626C81.139 132.216 80.6739 131.729 80.288 131.182C80.1416 130.931 80.0513 130.652 80.0235 130.362C79.9957 130.073 80.031 129.782 80.127 129.508C80.1826 129.385 80.2632 129.276 80.3637 129.187C80.4642 129.099 80.5822 129.032 80.7102 128.991C80.8382 128.951 80.9732 128.938 81.1065 128.953C81.2398 128.969 81.3685 129.012 81.484 129.08C82.1694 129.508 82.2338 130.966 82.059 131.665C82.059 131.711 81.8474 132.245 81.7416 132.498L81.783 132.521C82.2717 131.974 82.7104 131.384 83.094 130.759C83.3102 130.418 83.4988 130.078 83.6736 129.747C83.1124 129.406 82.6067 128.981 82.174 128.486C81.9993 128.254 81.8778 127.986 81.8182 127.701C81.7585 127.417 81.7623 127.123 81.829 126.84C81.8708 126.712 81.9389 126.595 82.029 126.495C82.119 126.396 82.229 126.316 82.3518 126.262C82.4746 126.208 82.6074 126.18 82.7416 126.18C82.8758 126.181 83.0084 126.21 83.1308 126.265C83.8576 126.619 84.083 128.054 83.9864 128.772C83.9864 128.808 83.8806 129.199 83.807 129.48C83.8806 129.328 83.9634 129.176 84.0324 129.02C84.2992 128.468 84.4924 127.948 84.6902 127.484C84.7914 127.221 84.8788 126.982 84.957 126.757C84.6189 126.198 84.3676 125.592 84.2118 124.958C84.1666 124.671 84.1843 124.378 84.2637 124.098C84.3432 123.818 84.4824 123.559 84.6718 123.339C84.7672 123.244 84.8816 123.17 85.0074 123.123C85.1333 123.075 85.2679 123.055 85.4022 123.063C85.5365 123.072 85.6675 123.108 85.7866 123.171C85.9057 123.233 86.0102 123.32 86.0932 123.426C86.5762 124.075 86.1162 125.455 85.6976 126.044C85.6608 126.094 85.0076 126.826 84.9984 126.812C84.9294 127.028 84.8512 127.272 84.7592 127.516C84.5844 127.976 84.3866 128.509 84.1336 129.071C83.8607 129.675 83.5536 130.263 83.2136 130.832C82.8383 131.472 82.4073 132.077 81.9256 132.64C81.9256 132.64 81.9256 132.64 81.9256 132.64C82.128 132.516 82.703 132.18 82.749 132.18C83.4114 131.895 84.8604 131.72 85.394 132.346C85.4793 132.449 85.542 132.569 85.5777 132.698C85.6135 132.827 85.6217 132.962 85.6018 133.095C85.5818 133.227 85.5341 133.354 85.4619 133.466C85.3896 133.579 85.2944 133.675 85.1824 133.749C84.927 133.887 84.6445 133.968 84.3546 133.987C84.0646 134.005 83.7742 133.96 83.5034 133.855C82.9029 133.56 82.3507 133.175 81.8658 132.714C81.3629 133.276 80.8219 133.803 80.2466 134.292C79.9154 134.577 79.5704 134.857 79.2254 135.133C79.4002 135.028 79.5612 134.94 79.5842 134.931C80.2466 134.646 81.6956 134.471 82.2292 135.092C82.3146 135.196 82.3773 135.316 82.4131 135.445C82.449 135.575 82.4572 135.71 82.4372 135.843C82.4173 135.976 82.3696 136.103 82.2973 136.216C82.225 136.329 82.1297 136.426 82.0176 136.5C81.7622 136.638 81.4795 136.719 81.1894 136.737C80.8993 136.754 80.6089 136.708 80.3386 136.601C79.7529 136.321 79.2144 135.952 78.7424 135.506L78.3422 135.819C77.6936 136.316 77.0404 136.808 76.4194 137.309C76.2032 137.484 75.9916 137.668 75.78 137.852L76.0928 137.677C76.7598 137.392 78.2088 137.217 78.7378 137.838C78.8232 137.942 78.8859 138.062 78.9217 138.192C78.9576 138.321 78.9658 138.456 78.9458 138.589C78.9259 138.722 78.8782 138.849 78.8059 138.962C78.7336 139.075 78.6383 139.172 78.5262 139.246C78.2709 139.385 77.9881 139.466 77.698 139.483C77.4078 139.501 77.1174 139.454 76.8472 139.347C76.2771 139.075 75.7526 138.717 75.2924 138.284C75.0854 138.478 74.8738 138.671 74.6806 138.869C74.4874 139.066 74.4138 139.126 74.2942 139.273L73.9216 139.687C73.6962 139.963 73.4616 140.244 73.25 140.52L72.8222 141.077C73.0384 140.897 73.4662 140.557 73.5076 140.529C74.1194 140.147 75.527 139.77 76.1434 140.29C76.2431 140.38 76.3227 140.49 76.3772 140.613C76.4317 140.736 76.4599 140.869 76.4599 141.003C76.4599 141.137 76.4317 141.27 76.3772 141.393C76.3227 141.516 76.2431 141.626 76.1434 141.716C75.9117 141.891 75.6449 142.013 75.3613 142.074C75.0777 142.135 74.7843 142.134 74.5012 142.07C73.8668 141.873 73.2664 141.58 72.721 141.201C72.4864 141.504 72.261 141.803 72.0586 142.089C71.3456 143.078 70.789 143.929 70.4072 144.522L70.3704 144.586L69.8736 144.347L69.9518 144.228C70.352 143.63 70.9316 142.783 71.6768 141.803C71.9114 141.495 72.1644 141.164 72.4312 140.833C72.1568 140.531 71.9003 140.213 71.663 139.881C71.0437 140.047 70.4043 140.126 69.7632 140.115C69.7356 140.497 69.7172 140.87 69.7034 141.219C69.6528 142.438 69.6528 143.455 69.6666 144.163C69.6643 144.191 69.6643 144.218 69.6666 144.246L69.1192 143.984C69.1192 143.275 69.1468 142.323 69.2204 141.196C69.2204 140.805 69.2756 140.391 69.317 139.968C68.6702 139.821 68.0497 139.576 67.477 139.241C67.2382 139.076 67.0382 138.861 66.8912 138.611C66.7442 138.361 66.6537 138.081 66.626 137.792C66.6247 137.658 66.6518 137.524 66.7055 137.401C66.7592 137.277 66.8384 137.167 66.9378 137.076C67.0372 136.985 67.1546 136.917 67.2824 136.874C67.4102 136.832 67.5455 136.817 67.6794 136.831C68.4798 136.937 69.1514 138.211 69.2848 138.938C69.2848 138.979 69.3262 139.444 69.34 139.733C69.34 139.563 69.3722 139.393 69.3906 139.214C69.4274 138.859 69.4734 138.51 69.5194 138.133C69.5516 137.949 69.5792 137.765 69.6114 137.581C69.6436 137.397 69.685 137.203 69.7264 137.015C69.823 136.555 69.9426 136.136 70.0714 135.695C69.4288 135.648 68.7973 135.502 68.1992 135.262C67.9379 135.135 67.7077 134.952 67.5249 134.727C67.3421 134.501 67.2111 134.238 67.1412 133.956C67.1189 133.823 67.125 133.688 67.1591 133.558C67.1931 133.428 67.2544 133.307 67.3387 133.203C67.4231 133.098 67.5287 133.013 67.6485 132.953C67.7683 132.892 67.8995 132.858 68.0336 132.852C68.8432 132.829 69.7034 134.006 69.938 134.692C69.938 134.733 70.0714 135.244 70.1266 135.524C70.2094 135.258 70.2876 134.995 70.3796 134.729C70.6372 133.965 70.927 133.201 71.2076 132.429C71.295 132.199 71.3778 131.969 71.4652 131.729C70.8004 131.679 70.1464 131.532 69.524 131.292C69.2628 131.163 69.0326 130.98 68.8492 130.753C68.6658 130.527 68.5335 130.264 68.4614 129.981C68.4406 129.849 68.4479 129.713 68.4828 129.584C68.5177 129.454 68.5795 129.334 68.6641 129.23C68.7486 129.126 68.8542 129.04 68.9738 128.98C69.0934 128.919 69.2245 128.884 69.3584 128.877C70.1634 128.854 71.0236 130.032 71.2628 130.717C71.2628 130.768 71.4468 131.499 71.479 131.688C71.6676 131.173 71.847 130.658 72.0034 130.142C72.1741 129.447 72.3001 128.742 72.3806 128.031C71.7109 127.983 71.0521 127.836 70.4256 127.594C70.1652 127.466 69.9358 127.283 69.7531 127.057C69.5705 126.831 69.4389 126.569 69.3676 126.288C69.3461 126.155 69.3527 126.02 69.3871 125.89C69.4214 125.76 69.4826 125.639 69.5668 125.534C69.6509 125.43 69.7561 125.344 69.8756 125.283C69.995 125.222 70.126 125.186 70.26 125.179C71.0696 125.179 71.9298 126.334 72.169 127.019C72.169 127.06 72.3116 127.617 72.3622 127.884H72.4082C72.5144 127.158 72.5559 126.423 72.5324 125.69C72.5324 125.285 72.4956 124.903 72.4542 124.526C71.7996 124.553 71.1448 124.478 70.513 124.305C70.2398 124.207 69.9913 124.05 69.7848 123.846C69.5783 123.641 69.4186 123.395 69.317 123.123C69.281 122.994 69.2725 122.858 69.2922 122.725C69.3119 122.593 69.3593 122.466 69.4313 122.352C69.5033 122.239 69.5984 122.142 69.7102 122.068C69.8221 121.994 69.9483 121.944 70.0806 121.922C70.8856 121.816 71.8654 122.888 72.1782 123.541C72.1782 123.578 72.33 123.955 72.422 124.231C72.399 124.066 72.3852 123.891 72.3622 123.73C72.2794 123.123 72.169 122.575 72.0632 122.088C72.0034 121.812 71.9436 121.563 71.8838 121.333C71.2935 121.054 70.749 120.686 70.2692 120.243C70.0718 120.03 69.9234 119.776 69.8344 119.5C69.7454 119.223 69.718 118.931 69.754 118.642C69.7812 118.509 69.8365 118.384 69.9163 118.274C69.9961 118.164 70.0984 118.072 70.2165 118.005C70.3346 117.938 70.4656 117.897 70.6009 117.885C70.7361 117.872 70.8724 117.889 71.0006 117.934Z" fill="white"/> <path opacity="0.5" d="M85.6098 130.39C84.9471 130.258 84.3072 130.03 83.71 129.714C83.71 129.714 84.3908 129.01 84.4414 128.973C85.0026 128.513 86.3596 127.984 87.0312 128.435C87.1415 128.512 87.2343 128.611 87.3036 128.726C87.3728 128.841 87.4169 128.97 87.433 129.103C87.4491 129.236 87.4368 129.372 87.3968 129.5C87.3569 129.628 87.2903 129.747 87.2014 129.847C86.991 130.047 86.7398 130.2 86.465 130.293C86.1903 130.387 85.8985 130.42 85.6098 130.39V130.39Z" fill="white"/> </g> <path d="M78.2365 146.201C78.2365 146.201 74.4047 136.964 72.2565 137.364C70.1083 137.764 75.9365 152.084 75.9365 152.084C75.9365 152.084 69.1929 139.365 64.5975 139.365C60.0021 139.365 66.2811 153.423 72.1047 158.106C72.1047 158.106 62.9047 148.202 57.5457 150.341C52.1867 152.48 68.2729 162.526 68.2729 162.526C68.2729 162.526 58.9257 159.578 59.9929 161.855C61.0601 164.132 63.9765 164.532 63.9765 164.532L53.3965 165.07H90.1965L81.9165 164.265C81.9165 164.265 90.5001 159.982 88.2001 158.239C85.9001 156.496 80.8401 160.249 80.8401 160.249C80.8401 160.249 89.5801 150.612 87.8873 146.997C86.1945 143.381 78.6873 153.556 78.6873 153.556C78.6873 153.556 84.8191 140.57 83.5955 138.293C82.3719 136.016 78.2365 146.201 78.2365 146.201Z" fill="#20C0E8"/> <path opacity="0.4" d="M78.2365 146.201C78.2365 146.201 74.4047 136.964 72.2565 137.364C70.1083 137.764 75.9365 152.084 75.9365 152.084C75.9365 152.084 69.1929 139.365 64.5975 139.365C60.0021 139.365 66.2811 153.423 72.1047 158.106C72.1047 158.106 62.9047 148.202 57.5457 150.341C52.1867 152.48 68.2729 162.526 68.2729 162.526C68.2729 162.526 58.9257 159.578 59.9929 161.855C61.0601 164.132 63.9765 164.532 63.9765 164.532L53.3965 165.07H90.1965L81.9165 164.265C81.9165 164.265 90.5001 159.982 88.2001 158.239C85.9001 156.496 80.8401 160.249 80.8401 160.249C80.8401 160.249 89.5801 150.612 87.8873 146.997C86.1945 143.381 78.6873 153.556 78.6873 153.556C78.6873 153.556 84.8191 140.57 83.5955 138.293C82.3719 136.016 78.2365 146.201 78.2365 146.201Z" fill="white"/> <path d="M79.4597 146.689C76.0879 156.648 76.0879 163.709 76.0879 163.709C76.0879 163.709 80.0715 163.861 84.2115 160.798" stroke="#787878" stroke-linecap="round" stroke-linejoin="round"/> <path d="M77.7766 152.052C77.0815 149.073 76.1587 146.151 75.0166 143.312" stroke="#787878" stroke-linecap="round" stroke-linejoin="round"/> <path d="M67.8125 146.229L76.3961 158.948C76.3961 158.948 82.2197 154.044 84.2161 151.284" stroke="#787878" stroke-linecap="round" stroke-linejoin="round"/> <path d="M76.2395 162.012C76.2395 162.012 67.2005 157.725 63.5205 155.273" stroke="#787878" stroke-linecap="round" stroke-linejoin="round"/> <path d="M13.5001 138.819C14.7531 141.909 15.3742 145.219 15.3268 148.553C15.2794 151.887 14.5644 155.178 13.2241 158.231L10.3767 164.671C10.3186 164.803 10.2754 164.94 10.2479 165.081H12.8975L15.1975 159.832C16.7512 156.292 17.5802 152.477 17.6355 148.611C17.6908 144.745 16.9713 140.907 15.5195 137.324L10.3399 124.601C10.1708 124.183 10.1067 123.729 10.1533 123.281C10.1998 122.832 10.3557 122.402 10.6072 122.027C10.8586 121.653 11.1981 121.345 11.5958 121.133C11.9934 120.92 12.4372 120.807 12.8883 120.806H24.7195C25.8097 120.806 26.6975 121.937 26.6975 120.847C26.6963 120.323 26.4875 119.821 26.1168 119.45C25.7461 119.079 25.2437 118.87 24.7195 118.869H14.5167C13.4159 118.868 12.3316 119.138 11.36 119.655C10.3884 120.173 9.55929 120.922 8.94611 121.836C7.69491 123.676 7.45571 124.021 8.30211 126.096L13.5001 138.819Z" fill="#A3A3A3"/> <path d="M24.719 108.244H23.1504V164.935H24.719V108.244Z" fill="#A3A3A3"/> <path d="M137.7 108.244H136.132V164.935H137.7V108.244Z" fill="#A3A3A3"/> <path d="M136.822 104.324H22.3691V112.554H136.822V104.324Z" fill="#BDBDBD"/> <path d="M136.822 114.123H22.3691V122.352H136.822V114.123Z" fill="#BDBDBD"/> <path d="M136.826 133.332H13.8955V136.074H136.826V133.332Z" fill="#BDBDBD"/> <path d="M136.822 133.332H117.271V136.074H136.822V133.332Z" fill="#878787"/> <path d="M119.93 124.601C119.761 124.182 119.697 123.729 119.744 123.28C119.791 122.83 119.947 122.4 120.199 122.025C120.451 121.651 120.791 121.344 121.189 121.131C121.588 120.918 122.032 120.807 122.483 120.806H136.817V118.869H124.107C123.006 118.868 121.922 119.138 120.951 119.656C119.979 120.173 119.15 120.922 118.537 121.836C117.29 123.676 117.046 124.021 117.893 126.096L123.081 138.819C124.336 141.909 124.957 145.219 124.91 148.553C124.863 151.888 124.147 155.179 122.805 158.231L119.958 164.671C119.903 164.803 119.862 164.941 119.834 165.081H122.479L124.779 159.832C126.334 156.292 127.163 152.477 127.218 148.611C127.274 144.745 126.554 140.907 125.101 137.324L119.93 124.601Z" fill="#A3A3A3"/> <path d="M180.213 25.3231C178.055 24.1455 177.071 25.1253 176.284 24.1455C175.498 23.1657 178.446 20.6081 172.554 18.0551C172.554 18.0551 172.158 12.5351 164.103 12.3557C156.049 12.1763 158.211 17.8757 156.049 19.2557C153.887 20.6357 153.289 18.4691 151.136 19.8445C148.983 21.2199 149.958 23.9845 148.187 24.3617C146.416 24.7389 144.047 22.5953 141.904 23.9707C139.76 25.3461 139.742 26.5237 138.757 26.5237C137.773 26.5237 135.813 25.7371 134.617 26.5237C133.421 27.3103 132.064 28.2947 132.064 28.2947H181.786C181.786 28.2947 182.375 26.5007 180.213 25.3231Z" fill="#20C0E8"/> <g opacity="0.5"> <path opacity="0.5" d="M180.213 25.3231C178.055 24.1455 177.071 25.1253 176.284 24.1455C175.498 23.1657 178.446 20.6081 172.554 18.0551C172.554 18.0551 172.158 12.5351 164.103 12.3557C156.049 12.1763 158.211 17.8757 156.049 19.2557C153.887 20.6357 153.289 18.4691 151.136 19.8445C148.983 21.2199 149.958 23.9845 148.187 24.3617C146.416 24.7389 144.047 22.5953 141.904 23.9707C139.76 25.3461 139.742 26.5237 138.757 26.5237C137.773 26.5237 135.813 25.7371 134.617 26.5237C133.421 27.3103 132.064 28.2947 132.064 28.2947H181.786C181.786 28.2947 182.375 26.5007 180.213 25.3231Z" fill="white"/> </g> <path d="M143.592 57.5604C142.272 56.8428 141.669 57.4408 141.186 56.8428C140.703 56.2448 142.511 54.6762 138.886 53.1168C138.886 53.1168 138.647 49.7496 133.716 49.63C128.785 49.5104 130.11 52.9926 128.79 53.8344C127.469 54.6762 127.106 53.3744 125.781 54.1978C124.456 55.0212 125.059 56.7232 123.978 56.9578C122.897 57.1924 121.453 55.8768 120.132 56.7186C118.812 57.5604 118.808 58.278 118.21 58.278C117.612 58.278 116.406 57.818 115.684 58.278C114.962 58.738 114.12 59.3636 114.12 59.3636H144.554C144.554 59.3636 144.917 58.2688 143.592 57.5604Z" fill="#20C0E8"/> <g opacity="0.5"> <path opacity="0.5" d="M143.592 57.5604C142.272 56.8428 141.669 57.4408 141.186 56.8428C140.703 56.2448 142.511 54.6762 138.886 53.1168C138.886 53.1168 138.647 49.7496 133.716 49.63C128.785 49.5104 130.11 52.9926 128.79 53.8344C127.469 54.6762 127.106 53.3744 125.781 54.1978C124.456 55.0212 125.059 56.7232 123.978 56.9578C122.897 57.1924 121.453 55.8768 120.132 56.7186C118.812 57.5604 118.808 58.278 118.21 58.278C117.612 58.278 116.406 57.818 115.684 58.278C114.962 58.738 114.12 59.3636 114.12 59.3636H144.554C144.554 59.3636 144.917 58.2688 143.592 57.5604Z" fill="white"/> </g> <path d="M82.5782 83.7521C82.5782 83.7521 81.8882 90.9971 84.1882 96.7517C86.4882 102.506 86.9482 104.572 87.5278 107.332C87.9508 109.606 88.0669 111.927 87.8728 114.232C87.7578 114.926 86.9528 114.926 86.6078 114.232C86.2628 113.537 85.1082 112.852 84.7678 111.242C84.5555 110.066 84.4783 108.87 84.5378 107.677C84.5378 107.677 82.5828 100.427 80.1678 95.4775C77.7528 90.5279 77.5182 86.8479 78.4382 85.1229C79.3582 83.3979 81.3132 82.0225 82.5782 83.7521Z" fill="white" stroke="#263238" stroke-linecap="round" stroke-linejoin="round"/> <path d="M70.9268 51.846C70.9268 51.846 70.3242 55.3006 68.0794 60.6504C65.8346 66.0002 64.3672 67.1226 64.3672 70.0574C64.3672 72.9922 72.914 76.0098 79.9014 75.8396C86.8888 75.6694 87.3258 70.7474 85.8814 67.21C84.437 63.6726 83.034 63.8428 82.8592 59.7856C82.8163 56.8083 83.0472 53.8334 83.5492 50.8984L70.9268 51.846Z" fill="#263238" stroke="#263238" stroke-linecap="round" stroke-linejoin="round"/> <path d="M71.9204 54.2658C71.9204 54.2658 71.1476 52.711 70.6278 53.746C70.108 54.781 70.3702 56.2484 70.9728 57.196C71.1626 57.4755 71.4207 57.7017 71.7227 57.8531C72.0246 58.0044 72.3603 58.076 72.6978 58.0608C72.6978 58.0608 72.1688 55.9908 71.9204 54.2658Z" fill="white" stroke="#263238" stroke-linecap="round" stroke-linejoin="round"/> <path d="M83.2686 54.5232C83.2686 54.5232 84.4784 53.8332 84.3036 55.4708C84.1288 57.1084 82.9236 58.7506 82.4038 58.838C81.884 58.9254 81.7138 57.9732 81.8886 57.7156C82.0634 57.458 83.2686 54.5232 83.2686 54.5232Z" fill="white" stroke="#263238" stroke-linecap="round" stroke-linejoin="round"/> <path d="M63.6772 109.498C63.6772 109.498 63.6772 109.645 63.6772 109.926C63.6772 111.306 63.6772 115.8 64.1372 120.888C64.657 127.015 65.002 129.347 65.002 129.347C65.002 129.347 58.9576 133.832 57.1452 137.369C55.3328 140.907 52.4578 146.799 50.8202 149.366C49.1826 151.933 44.2606 154.619 44.003 155.406C43.7454 156.193 44.7804 156.101 45.6406 159.118C46.5008 162.136 46.6756 163.608 48.4006 164.385C50.1256 165.163 53.4054 164.643 53.1432 163.778C52.881 162.913 51.3354 162.573 51.3354 161.621C51.3354 160.668 51.4182 156.961 51.4182 155.668C51.4182 154.376 53.1432 152.646 53.8378 151.698C54.5324 150.751 63.3276 141.684 67.2146 137.287C71.1016 132.889 71.6122 130.814 72.2194 129.172C72.8266 127.53 74.6344 113.123 74.8046 112.861C74.9748 112.598 63.6726 109.641 63.6726 109.641" fill="white"/> <path d="M63.6772 109.498C63.6772 109.498 63.6772 109.645 63.6772 109.926C63.6772 111.306 63.6772 115.8 64.1372 120.888C64.657 127.015 65.002 129.347 65.002 129.347C65.002 129.347 58.9576 133.832 57.1452 137.369C55.3328 140.907 52.4578 146.799 50.8202 149.366C49.1826 151.933 44.2606 154.619 44.003 155.406C43.7454 156.193 44.7804 156.101 45.6406 159.118C46.5008 162.136 46.6756 163.608 48.4006 164.385C50.1256 165.163 53.4054 164.643 53.1432 163.778C52.881 162.913 51.3354 162.573 51.3354 161.621C51.3354 160.668 51.4182 156.961 51.4182 155.668C51.4182 154.376 53.1432 152.646 53.8378 151.698C54.5324 150.751 63.3276 141.684 67.2146 137.287C71.1016 132.889 71.6122 130.814 72.2194 129.172C72.8266 127.53 74.6344 113.123 74.8046 112.861C74.9748 112.598 63.6726 109.641 63.6726 109.641" stroke="#263238" stroke-linecap="round" stroke-linejoin="round"/> <path d="M53.1478 163.778C52.8902 162.917 51.34 162.572 51.34 161.62C51.34 160.668 51.4228 156.96 51.4228 155.668C51.4246 155.569 51.4354 155.47 51.455 155.374C51.1847 155.366 50.9142 155.376 50.6454 155.406C49.2654 155.58 48.833 157.048 48.833 157.048L47.3426 152.729C45.7004 153.975 44.1456 154.978 44.003 155.406C43.7454 156.183 44.7804 156.1 45.6406 159.118C46.5008 162.135 46.6756 163.607 48.4006 164.385C50.1256 165.162 53.41 164.642 53.1478 163.778Z" fill="#20C0E8" stroke="#263238" stroke-linecap="round" stroke-linejoin="round"/> <path d="M48.4052 164.386C49.8726 165.043 52.467 164.767 53.0466 164.137C47.3288 164.786 47.6462 161.345 46.6756 158.516C46.2161 157.154 45.4818 155.902 44.5182 154.836C44.3072 154.985 44.1313 155.178 44.003 155.402C43.7454 156.179 44.7804 156.096 45.6406 159.114C46.5008 162.132 46.6756 163.608 48.4052 164.386Z" fill="white" stroke="#263238" stroke-linecap="round" stroke-linejoin="round"/> <path d="M76.7959 112.692C76.7959 112.692 81.5109 125.112 82.8081 128.309C84.1053 131.506 83.7557 130.296 83.4107 134.266C83.0657 138.235 84.7907 144.62 87.0355 148.158C89.2803 151.695 92.4727 155.495 93.2501 157.652C94.0275 159.809 94.6301 162.569 95.3201 162.919C96.0101 163.269 97.2199 163.002 98.5125 162.224C99.8051 161.447 99.0323 160.587 102.054 160.329C105.077 160.072 106.539 156.442 106.972 155.495C107.404 154.547 106.452 154.46 105.33 154.805C104.207 155.15 100.325 156.442 97.8225 156.359C95.3201 156.277 93.8527 149.11 92.5601 142.72C91.5471 137.623 90.8831 132.462 90.5729 127.274C90.3153 123.479 88.8801 114.242 86.8055 109.154L76.7959 112.692Z" fill="white" stroke="#263238" stroke-linecap="round" stroke-linejoin="round"/> <path d="M105.33 154.804C104.212 155.149 100.325 156.442 97.8229 156.359C97.6922 156.353 97.5634 156.327 97.4411 156.281C97.4472 156.364 97.4595 156.447 97.4779 156.529C97.7355 157.739 98.6003 158.342 98.8579 158.254C97.2233 158.826 95.5232 159.189 93.7979 159.335C94.3315 161.037 94.8007 162.656 95.3159 162.919C96.0059 163.264 97.2156 163.001 98.5082 162.224C99.8008 161.447 99.0281 160.586 102.05 160.329C105.072 160.071 106.535 156.442 106.968 155.494C107.4 154.547 106.452 154.459 105.33 154.804Z" fill="#20C0E8" stroke="#263238" stroke-linecap="round" stroke-linejoin="round"/> <path d="M106.972 155.493C107.189 155.033 107.055 154.757 106.724 154.66C105.896 157.379 103.417 158.98 102.055 159.463C100.588 159.982 100.413 159.55 98.513 161.105C97.4486 161.908 96.1311 162.301 94.8008 162.213C94.9015 162.494 95.0822 162.738 95.3206 162.917C96.0106 163.262 97.2204 163 98.513 162.223C99.8056 161.445 99.0328 160.585 102.055 160.327C105.077 160.07 106.54 156.459 106.972 155.493Z" fill="white" stroke="#263238" stroke-linecap="round" stroke-linejoin="round"/> <path d="M65.48 97.3262L62.2002 109.926C62.2002 109.926 63.755 110.878 67.7202 111.393C71.6854 111.908 75.4022 112.603 75.4022 112.603L87.1368 108.288L83.9444 100.008L65.48 97.3262Z" fill="#263238" stroke="#263238" stroke-linecap="round" stroke-linejoin="round"/> <path d="M73.429 58.6641C73.429 58.6641 73.9488 63.3239 73.1714 64.9661C72.394 66.6083 70.5816 66.2587 67.219 67.2109C63.8564 68.1631 62.0394 71.0933 62.3844 77.4781C62.7294 83.8629 66.0966 92.5799 66.0966 93.8771C66.0966 95.1743 64.7166 101.053 64.1094 101.987C63.5942 102.764 67.7894 105.23 75.5036 104.834C85.6236 104.319 84.883 102.254 84.6484 101.472C84.3908 100.607 81.7136 94.1347 81.3686 90.8549C81.1545 89.0794 81.1268 87.2863 81.2858 85.5051C81.2858 85.5051 84.3034 83.7801 84.4782 81.1903C84.653 78.6005 83.4432 76.7007 83.2684 75.0631C83.0936 73.4255 82.836 70.3159 81.801 68.9359C80.766 67.5559 79.5562 67.4685 78.9536 66.0885C78.351 64.7085 79.041 61.1665 79.041 61.1665L73.429 58.6641Z" fill="#20C0E8" stroke="#263238" stroke-linecap="round" stroke-linejoin="round"/> <path d="M69.5605 84.6667C69.5605 84.6667 72.3206 85.9409 76.5664 84.4551" stroke="#263238" stroke-linecap="round" stroke-linejoin="round"/> <path d="M69.0085 71.0659C69.0085 71.0659 68.4243 68.2277 65.0985 68.4853C61.7727 68.7429 58.5803 77.0827 56.7403 78.8905C54.9003 80.6983 51.7309 83.2927 51.9149 85.4501C52.0989 87.6075 55.1349 88.4539 56.7219 86.1769C58.3089 83.8999 62.5225 79.4839 62.5225 79.4839C62.5225 79.4839 70.3287 80.4269 69.0085 71.0659Z" fill="white" stroke="#263238" stroke-linecap="round" stroke-linejoin="round"/> <path d="M62.5312 79.4832L66.2343 75.6836" stroke="#263238" stroke-linecap="round" stroke-linejoin="round"/> <path d="M76.1939 73.7705C79.1885 73.7705 79.6669 69.4603 79.7313 67.1281C79.3952 66.8464 79.1291 66.4905 78.9539 66.0885C78.3513 64.7085 79.0413 61.1665 79.0413 61.1665L73.4293 58.6641C73.4293 58.6641 73.9491 63.3239 73.1717 64.9661C72.6243 66.1253 71.5525 66.2909 69.7861 66.6267C70.7981 68.9497 73.2453 73.7705 76.1939 73.7705Z" fill="white" stroke="#263238" stroke-linecap="round" stroke-linejoin="round"/> <path d="M71.46 52.1094C71.46 52.1094 71.7176 56.5944 72.6652 59.4418C73.6128 62.2892 75.3424 64.189 77.4124 63.9314C79.4824 63.6738 83.1946 60.1318 83.5396 52.1922L71.46 52.1094Z" fill="white" stroke="#263238" stroke-linecap="round" stroke-linejoin="round"/> <path d="M71 51.2443C71 51.2443 72.2926 44.9423 72.8124 43.9947C73.3322 43.0471 76.1796 42.6147 76.8696 42.9597C77.5596 43.3047 78.0748 43.6497 78.4198 43.6497C78.7648 43.6497 80.4944 42.6147 81.442 43.5623C82.3896 44.5099 84.3768 52.1091 84.3768 52.1091C84.3768 52.1091 83.857 52.2793 79.027 52.2793C76.3157 52.3176 73.6129 51.9691 71 51.2443V51.2443Z" fill="white" stroke="#263238" stroke-linecap="round" stroke-linejoin="round"/> <path d="M83.2828 48.1992C79.0784 49.1192 73.7516 48.5488 71.6586 48.2682C71.2998 49.846 71.0146 51.2444 71.0146 51.2444C73.6275 51.9693 76.3304 52.3178 79.0416 52.2794C83.8716 52.2794 84.3914 52.1092 84.3914 52.1092C84.3914 52.1092 83.8808 50.2002 83.2828 48.1992Z" fill="#263238" stroke="#263238" stroke-linecap="round" stroke-linejoin="round"/> <path d="M70.6691 52.2793L69.9883 55.4763C73.0266 54.879 75.9761 53.8958 78.7651 52.5507L70.6691 52.2793Z" fill="#263238" stroke="#263238" stroke-linecap="round" stroke-linejoin="round"/> <path d="M82.2334 52.7524L83.526 54.7258C83.526 54.7258 84.952 53.6402 83.986 52.619C83.02 51.5978 82.2334 52.7524 82.2334 52.7524Z" fill="#263238" stroke="#263238" stroke-linecap="round" stroke-linejoin="round"/> <path d="M69.2894 51.5807C69.7066 51.8878 70.1733 52.1212 70.6694 52.2707C71.3594 52.4455 83.5264 53.3057 85.4262 52.9607C86.4779 52.8061 87.4648 52.3581 88.2736 51.6681C88.2736 51.6681 78.1536 51.7555 74.0136 51.3231C69.8736 50.8907 68.2314 50.3709 68.4016 50.7159C68.6502 51.049 68.9498 51.3409 69.2894 51.5807V51.5807Z" fill="white" stroke="#263238" stroke-linecap="round" stroke-linejoin="round"/> <path d="M77.0904 54.6159L76.9938 55.5359C76.9835 55.6582 76.9488 55.7771 76.8918 55.8858C76.8348 55.9945 76.7566 56.0907 76.6619 56.1687C76.5672 56.2467 76.4578 56.305 76.3402 56.3401C76.2226 56.3752 76.0992 56.3864 75.9772 56.3731L72.7572 56.0465C72.5188 56.0265 72.2976 55.9144 72.1405 55.7341C71.9833 55.5538 71.9026 55.3193 71.9154 55.0805L71.9384 54.1927C71.9377 54.0633 71.9643 53.9352 72.0164 53.8168C72.0686 53.6983 72.1451 53.5923 72.241 53.5054C72.337 53.4186 72.4502 53.353 72.5732 53.3129C72.6962 53.2728 72.8263 53.2591 72.955 53.2727L76.2578 53.5901C76.5028 53.619 76.7268 53.7424 76.8823 53.9339C77.0378 54.1255 77.1124 54.3701 77.0904 54.6159V54.6159Z" fill="#263238" stroke="#263238" stroke-linecap="round" stroke-linejoin="round"/> <path d="M83.2827 55.1867L83.1723 56.0837C83.1604 56.2061 83.124 56.3248 83.0654 56.4329C83.0068 56.541 82.9271 56.6362 82.831 56.713C82.7349 56.7897 82.6245 56.8465 82.5061 56.8798C82.3878 56.9131 82.2639 56.9224 82.1419 56.9071L78.9219 56.5345C78.6867 56.5026 78.4718 56.3839 78.3195 56.2018C78.1672 56.0197 78.0884 55.7873 78.0985 55.5501L78.1353 54.6669C78.1344 54.5362 78.1613 54.4068 78.2143 54.2873C78.2673 54.1678 78.3451 54.061 78.4426 53.974C78.5401 53.8869 78.655 53.8216 78.7797 53.7825C78.9044 53.7433 79.036 53.7312 79.1657 53.7469L82.4639 54.1149C82.5887 54.1301 82.7091 54.1701 82.8181 54.2326C82.9272 54.295 83.0226 54.3786 83.0989 54.4785C83.1752 54.5783 83.2307 54.6924 83.2623 54.814C83.2939 54.9356 83.3008 55.0623 83.2827 55.1867V55.1867Z" fill="#263238" stroke="#263238" stroke-linecap="round" stroke-linejoin="round"/> <path d="M77.9007 56.0195C77.8017 56.1948 77.7443 56.3906 77.7332 56.5916C77.722 56.7926 77.7573 56.9935 77.8363 57.1787C78.1077 57.7905 78.0387 58.8761 77.4959 58.8761C76.9531 58.8761 76.7461 58.1953 76.7461 58.1953" stroke="#263238" stroke-linecap="round" stroke-linejoin="round"/> <path d="M75.8398 59.5566C75.8398 59.5566 76.723 60.3754 78.4894 59.966" stroke="#263238" stroke-linecap="round" stroke-linejoin="round"/> <path d="M76.5205 53.5938L78.9769 53.7915" stroke="#263238" stroke-linecap="round" stroke-linejoin="round"/> <path d="M62.0393 107.943L61.6943 110.621L75.5863 113.726L75.6737 111.393L62.0393 107.943Z" fill="white" stroke="#263238" stroke-linecap="round" stroke-linejoin="round"/> <path d="M75.6738 111.393L76.1936 113.983L88.0156 109.581L87.068 107.166L75.6738 111.393Z" fill="white" stroke="#263238" stroke-linecap="round" stroke-linejoin="round"/> <path d="M75.6738 111.394L76.3638 107.254" stroke="#263238" stroke-linecap="round" stroke-linejoin="round"/> <path d="M164.901 138.031C164.901 138.031 167.661 148.386 169.041 151.408C170.42 154.43 172.15 157.015 171.8 158.225C171.451 159.435 170.071 161.937 169.381 161.763C168.691 161.588 168.001 160.728 168.176 159.435C168.351 158.142 169.726 157.278 169.468 156.155C169.211 155.033 167.053 154.168 164.206 150.373C161.359 146.578 159.804 141.136 159.804 141.136L164.901 138.031Z" fill="#263238" stroke="#263238" stroke-linecap="round" stroke-linejoin="round"/> <path d="M168.603 150.341C168.26 150.408 167.906 150.389 167.573 150.286C165.677 149.683 164.035 146.146 162.743 145.194C162.195 144.794 161.772 145.088 161.464 145.557C162.206 147.258 163.132 148.873 164.224 150.373C167.071 154.168 169.229 155.033 169.486 156.156C169.744 157.278 168.364 158.138 168.194 159.435C168.023 160.733 168.709 161.593 169.399 161.763C170.089 161.933 171.473 159.435 171.818 158.226C172.163 157.016 170.438 154.431 169.058 151.408C168.907 151.114 168.759 150.755 168.603 150.341Z" fill="white" stroke="#263238" stroke-linecap="round" stroke-linejoin="round"/> <path d="M142.332 140.622C142.332 140.622 141.642 145.885 139.227 148.562C136.812 151.239 131.89 153.742 130.947 155.812C130.004 157.882 130.34 162.026 130.598 162.44C130.855 162.854 132.497 163.047 132.497 164.253C132.497 164.772 132.323 165.117 130.423 164.947C128.523 164.777 128.528 164.685 128.265 162.44C128.003 160.195 127.92 154.85 129.218 153.208C130.515 151.566 132.58 148.461 133.013 144.666C133.445 140.871 135.432 137.504 139.402 137.931C143.372 138.359 142.332 140.622 142.332 140.622Z" fill="white" stroke="#263238" stroke-linecap="round" stroke-linejoin="round"/> <path d="M168.093 108.086C168.093 108.086 168.525 103.771 168.87 102.736C169.215 101.701 170.77 105.841 171.028 107.741C171.285 109.64 169.04 108.95 168.525 108.863C168.01 108.776 168.093 108.086 168.093 108.086Z" fill="#263238" stroke="#263238" stroke-linecap="round" stroke-linejoin="round"/> <path d="M153.501 139.211C153.501 139.211 153.676 143.526 153.501 149.911C153.326 156.295 154.366 158.71 154.798 159.833C155.231 160.955 156.348 164.235 156.781 164.667C157.213 165.1 159.371 165.445 159.716 164.667C160.061 163.89 160.235 163.287 159.371 162.942C158.506 162.597 158.078 162.597 157.903 162.335C157.728 162.073 156.348 158.283 157.126 155.78C157.903 153.278 160.838 140.329 160.838 139.984" fill="#263238"/> <path d="M153.501 139.211C153.501 139.211 153.676 143.526 153.501 149.911C153.326 156.295 154.366 158.71 154.798 159.833C155.231 160.955 156.348 164.235 156.781 164.667C157.213 165.1 159.371 165.445 159.716 164.667C160.061 163.89 160.235 163.287 159.371 162.942C158.506 162.597 158.078 162.597 157.903 162.335C157.728 162.073 156.348 158.283 157.126 155.78C157.903 153.278 160.838 140.329 160.838 139.984" stroke="#263238" stroke-linecap="round" stroke-linejoin="round"/> <path d="M159.371 162.94C158.507 162.595 158.079 162.595 157.904 162.333C157.729 162.071 156.349 158.28 157.127 155.778C157.196 155.552 157.283 155.244 157.384 154.858C156.91 154.877 156.447 154.712 156.092 154.398C154.537 153.018 156.179 148.358 154.969 145.253C154.509 144.02 153.999 143.712 153.589 143.786C153.589 145.469 153.589 147.548 153.511 149.913C153.341 156.298 154.376 158.713 154.808 159.835C155.241 160.957 156.358 164.237 156.791 164.67C157.223 165.102 159.381 165.447 159.726 164.67C160.071 163.892 160.241 163.285 159.371 162.94Z" fill="white" stroke="#263238" stroke-linecap="round" stroke-linejoin="round"/> <path d="M167.49 107.829C167.49 107.829 163.69 102.217 163.433 103.427C163.175 104.637 164.035 110.419 164.035 110.419C164.035 110.419 163.865 116.371 159.721 119.996C155.576 123.621 148.331 126.56 141.514 126.726C134.697 126.891 131.854 127.071 130.014 126.298C128.174 125.525 126.651 125.001 126.821 126.21C126.992 127.42 128.809 129.228 128.809 129.228C128.809 129.228 129.066 137.862 126.306 143.557C123.546 149.252 121.6 149.339 121.14 151.929C120.68 154.519 120.621 163.576 121.053 164.349C121.485 165.122 123.473 165.384 124.163 164.781C124.853 164.179 124.59 163.227 124.075 162.449C123.56 161.672 123.123 161.589 123.123 160.982C123.123 160.375 123.555 155.287 124.42 153.995C125.285 152.702 132.875 146.225 134.95 143.64C137.024 141.055 137.365 139.753 137.365 139.753C137.365 139.753 144.527 140.273 149.016 141.565C153.506 142.858 157.646 145.103 161.961 142.255C166.276 139.408 168.603 135.355 168.603 130.608C168.603 125.861 168.52 122.061 168.691 120.249C168.861 118.437 168.778 117.921 169.988 117.489C171.198 117.057 173.18 117.921 175.853 117.402C178.525 116.882 179.74 113.951 179.74 113.087C179.74 112.222 178.36 112.654 176.115 111.619C173.87 110.584 173.18 109.117 171.368 108.34C170.133 107.869 168.805 107.694 167.49 107.829V107.829Z" fill="#263238" stroke="#263238" stroke-linecap="round" stroke-linejoin="round"/> <path d="M179.74 113.064C179.317 113.359 178.535 113.612 176.377 113.612C173.272 113.612 171.46 114.817 169.647 114.647C167.835 114.477 166.45 111.712 165.415 114.559C164.758 116.376 167.117 117.738 168.916 118.483C169.054 117.996 169.325 117.729 169.992 117.494C171.198 117.062 173.185 117.927 175.857 117.407C178.53 116.887 179.744 113.957 179.744 113.092C179.744 113.083 179.74 113.074 179.74 113.064Z" fill="white" stroke="#263238" stroke-linecap="round" stroke-linejoin="round"/> <path d="M168.608 130.612C168.608 128.828 168.608 127.181 168.608 125.723C168.031 127.458 167.161 129.083 166.036 130.525C162.168 135.631 159.205 140.318 162.738 141.731C166.551 138.92 168.608 135.07 168.608 130.612Z" fill="white" stroke="#263238" stroke-linecap="round" stroke-linejoin="round"/> <path d="M171.115 111.108C171.116 111.246 171.076 111.38 171 111.495C170.924 111.61 170.816 111.7 170.689 111.753C170.562 111.806 170.423 111.821 170.288 111.794C170.152 111.768 170.028 111.702 169.931 111.605C169.833 111.508 169.766 111.385 169.739 111.25C169.712 111.115 169.726 110.975 169.778 110.848C169.83 110.721 169.919 110.612 170.034 110.535C170.148 110.459 170.283 110.418 170.42 110.418C170.604 110.418 170.78 110.491 170.91 110.62C171.04 110.749 171.114 110.925 171.115 111.108V111.108Z" fill="white" stroke="#263238" stroke-linecap="round" stroke-linejoin="round"/> <path d="M164.036 110.418C164.036 110.418 164.036 110.616 163.994 110.961C164.62 111.237 165.218 110.501 165.761 109.295C166.713 107.221 163.433 103.426 163.433 103.426C163.175 104.636 164.036 110.418 164.036 110.418Z" fill="white" stroke="#263238" stroke-linecap="round" stroke-linejoin="round"/> <path d="M178.966 112.4C178.966 112.4 178.102 112.143 178.102 113.265C178.102 114.388 178.792 115.248 179.399 114.645C180.006 114.043 180.172 112.575 178.966 112.4Z" fill="#263238" stroke="#263238" stroke-linecap="round" stroke-linejoin="round"/> <path d="M131.721 146.966C130.797 147.193 129.852 147.323 128.901 147.352C127.208 147.352 126.035 146.253 125.363 145.365C123.1 149.307 121.518 149.648 121.136 151.929C120.704 154.515 120.616 163.577 121.049 164.349C121.481 165.122 123.468 165.384 124.158 164.782C124.848 164.179 124.586 163.227 124.071 162.45C123.556 161.672 123.119 161.589 123.119 160.982C123.119 160.375 123.551 155.287 124.416 153.995C125.014 153.112 128.758 149.8 131.721 146.966Z" fill="white" stroke="#263238" stroke-linecap="round" stroke-linejoin="round"/> <path d="M168.93 122.677L159.697 119.48C159.515 119.418 159.365 119.286 159.278 119.114C159.192 118.942 159.178 118.743 159.237 118.56C159.3 118.378 159.432 118.228 159.604 118.142C159.776 118.056 159.974 118.041 160.157 118.1L169.385 121.32C169.566 121.383 169.715 121.515 169.801 121.687C169.887 121.858 169.902 122.056 169.845 122.24V122.24C169.778 122.416 169.645 122.56 169.475 122.641C169.304 122.722 169.109 122.735 168.93 122.677V122.677Z" fill="white" stroke="#263238" stroke-linecap="round" stroke-linejoin="round"/> <path d="M58.0094 85.6191L59.4953 88.0755C61.5641 89.499 63.3945 91.2409 64.9186 93.2367C67.1129 96.2727 69.5187 99.1155 70.8573 100.137C72.1959 101.158 75.1859 101.623 75.4573 102.271C75.7287 102.92 74.6799 105.56 74.1003 106.273C73.5207 106.986 71.4553 106.595 70.2915 105.56C69.1277 104.525 68.8057 102.851 67.6419 102.138C66.478 101.425 60.4199 96.8063 58.5246 95.2791C57.5563 94.4934 56.6347 93.6517 55.7646 92.7583L58.0094 85.6191Z" fill="white" stroke="#263238" stroke-linecap="round" stroke-linejoin="round"/> <path d="M56.5014 85.5652C57.8122 85.3671 59.142 85.3285 60.462 85.4502C62.2054 85.6848 65.1172 88.9462 65.4668 89.9904C65.8164 91.0346 65.8164 93.1368 65.4668 93.3714C65.1172 93.606 64.7676 92.088 64.7676 92.088C64.7676 92.088 62.325 92.3226 61.2762 91.0392C60.5693 90.1311 59.9718 89.143 59.496 88.0952L56.3818 88.8404L56.5014 85.5652Z" fill="white" stroke="#263238" stroke-linecap="round" stroke-linejoin="round"/> <path d="M49.5506 55.8766C49.5506 55.8766 49.4862 60.909 48.8422 62.3948C48.1982 63.8806 47.3564 65.0444 45.6222 65.4952C43.888 65.946 39.035 66.1392 37.034 67.947C35.033 69.7548 38.3266 80.1508 39.3616 84.737C40.3966 89.3232 40.1804 91.1402 39.6744 94.3602C39.1684 97.5802 39.6744 98.6888 42.0618 99.526C44.4492 100.363 49.6794 101.076 52.5866 100.69C55.4938 100.303 56.4598 100.497 56.7818 98.2978C57.1038 96.099 58.723 88.2284 59.1094 82.414C59.4958 76.5996 60.5952 74.594 59.3026 71.834C58.01 69.074 54.4588 67.5744 54.1368 66.4106C53.8148 65.2468 54.7164 60.9872 54.7164 60.9872C54.7164 60.9872 55.9446 57.827 54.33 55.9548C52.7154 54.0826 50.3924 53.4846 49.5506 55.8766Z" fill="white" stroke="#263238" stroke-linecap="round" stroke-linejoin="round"/> <path d="M55.2412 67.629C55.1768 69.7266 54.5926 72.689 51.7498 72.1462C48.148 71.447 45.894 67.0402 45.2362 65.582C43.2536 65.9776 38.8974 66.2582 37.0252 67.9464C35.0242 69.7542 38.3178 80.1502 39.3528 84.7364C40.3878 89.3226 40.1808 91.1396 39.6748 94.3596C39.1688 97.5796 39.6748 98.6882 42.0622 99.5254C44.4496 100.363 49.6798 101.076 52.587 100.689C55.4942 100.303 56.4602 100.496 56.7822 98.2972C57.1042 96.0984 58.7234 88.2278 59.1098 82.4134C59.4962 76.599 60.5956 74.5934 59.303 71.8334C58.4198 69.9244 56.4832 68.6318 55.2412 67.629Z" fill="#20C0E8" stroke="#263238" stroke-linecap="round" stroke-linejoin="round"/> <path d="M64.795 53.1941C64.795 54.2245 63.7922 55.9909 62.5502 55.9909C61.3082 55.9909 60.3008 54.6109 60.3008 53.5805C60.3008 52.5501 61.3082 51.7129 62.5502 51.7129C63.7922 51.7129 64.795 52.1637 64.795 53.1941Z" fill="#263238" stroke="#263238" stroke-linecap="round" stroke-linejoin="round"/> <path d="M62.2049 50.4517C62.3567 50.8232 62.3567 51.2394 62.2049 51.6109C61.9473 52.1951 62.2049 53.8695 62.4671 54.3249C62.7293 54.7803 63.8195 56.3259 63.3871 56.7123C62.9547 57.0987 61.1285 57.2275 61.1285 57.2275C61.1285 57.2275 60.2085 61.8965 58.9251 63.1845C57.6417 64.4725 57.2047 64.4219 55.2451 63.7043C52.7933 62.7843 51.6387 57.9405 51.6387 57.9405C50.938 58.0414 50.2232 57.9524 49.5687 57.6829C48.4095 57.2229 47.1813 55.3553 47.5677 54.3249C47.9541 53.2945 48.3451 53.2255 48.3451 53.2255L48.0875 51.9329C48.0875 51.9329 52.9911 50.3183 56.9333 50.1251C60.8755 49.9319 62.2049 50.4517 62.2049 50.4517Z" fill="white" stroke="#263238" stroke-linecap="round" stroke-linejoin="round"/> <path d="M55.2269 63.7057C57.1865 64.4233 57.6189 64.4785 58.9069 63.1859C60.1949 61.8933 61.1103 57.2289 61.1103 57.2289C60.2455 57.0871 59.3593 57.1534 58.5251 57.4221C57.4303 57.8821 56.7817 60.0073 56.7817 60.0073C56.7817 60.0073 55.3005 59.4277 53.8147 57.3577C52.3289 55.2877 52.0069 55.2923 51.8137 54.1377C51.6205 52.9831 53.0373 53.2959 53.8147 52.0677C54.5921 50.8395 54.6519 50.5865 54.6519 50.3887C54.6519 50.3887 54.6519 50.3887 54.6289 50.3887C52.4072 50.7491 50.2147 51.2719 48.0693 51.9527L48.3269 53.2453C48.5976 53.1032 48.9067 53.0515 49.2088 53.0979C49.511 53.1443 49.7903 53.2862 50.0059 53.5029C50.7143 54.2803 51.2295 55.7661 51.4227 56.5389C51.5419 57.0037 51.6082 57.4805 51.6205 57.9603C51.6205 57.9603 52.7751 62.7995 55.2269 63.7057Z" fill="#263238" stroke="#263238" stroke-linecap="round" stroke-linejoin="round"/> <path d="M60.085 59.6993C60.085 59.6993 58.636 60.0397 58.4336 58.7793" stroke="white" stroke-linecap="round" stroke-linejoin="round"/> <path d="M61.451 53.1941C61.451 54.2245 60.4436 55.6091 59.2015 55.6091C57.9595 55.6091 56.9521 54.2291 56.9521 53.1941C56.9521 52.1591 57.9595 51.7129 59.2015 51.7129C60.4436 51.7129 61.451 52.1637 61.451 53.1941Z" fill="#263238" stroke="#263238" stroke-linecap="round" stroke-linejoin="round"/> <path d="M56.9519 52.9238L50.0059 53.485" stroke="#263238" stroke-linecap="round" stroke-linejoin="round"/> <path d="M61.3398 52.6465H62.3288" stroke="#263238" stroke-linecap="round" stroke-linejoin="round"/> <path d="M46.7119 50.9036C46.7119 50.9036 46.9695 44.574 48.1333 43.608C49.2971 42.642 56.5881 41.0872 57.8807 41.5426C59.1733 41.998 62.6601 49.1602 62.6601 49.1602L46.7763 51.4188L46.7119 50.9036Z" fill="white" stroke="#263238" stroke-linecap="round" stroke-linejoin="round"/> <path d="M61.3767 46.6631C55.4749 46.4009 49.8767 47.6245 46.8913 48.4525C46.7579 49.8049 46.7119 50.9043 46.7119 50.9043L46.7763 51.4195L62.6601 49.1609C62.6601 49.1609 62.1127 48.0431 61.3767 46.6631Z" fill="#263238" stroke="#263238" stroke-linecap="round" stroke-linejoin="round"/> <path d="M44.5825 53.8057C44.5825 53.8057 48.1337 52.2601 54.2011 51.5471C60.2685 50.8341 64.7259 50.7099 64.7259 50.7099L65.8207 48.4467C65.8207 48.4467 61.9475 48.0603 54.1367 49.1597C46.3259 50.2591 43.0967 51.9197 43.0967 51.9197L44.5825 53.8057Z" fill="white" stroke="#263238" stroke-linecap="round" stroke-linejoin="round"/> <path d="M40.8381 66.2675C40.8381 66.2675 37.4801 66.1387 35.7367 68.0109C33.9933 69.8831 28.5055 86.4799 27.5349 88.4165C26.5643 90.3531 27.9949 110.368 28.1789 111.918C28.3629 113.468 28.4411 116.697 29.1495 117.47C29.8579 118.243 31.5369 119.729 32.1211 119.536C32.7053 119.342 32.3787 119.149 32.0567 118.616C31.6837 117.783 31.5059 116.877 31.5369 115.966C31.5928 115.191 31.7681 114.429 32.0567 113.707C32.0567 113.707 32.2499 116.417 32.4431 116.808C32.6363 117.199 33.2159 117.58 33.2803 116.614C33.3447 115.649 32.9583 116.224 33.5379 114.158C34.1175 112.093 31.2793 110.285 31.2379 107.12C31.1965 103.955 32.6593 96.1445 32.6593 92.8601C32.6593 89.5757 32.1993 88.4073 32.1993 88.4073L40.5253 74.2669" fill="#20C0E8"/> <path d="M40.8381 66.2675C40.8381 66.2675 37.4801 66.1387 35.7367 68.0109C33.9933 69.8831 28.5055 86.4799 27.5349 88.4165C26.5643 90.3531 27.9949 110.368 28.1789 111.918C28.3629 113.468 28.4411 116.697 29.1495 117.47C29.8579 118.243 31.5369 119.729 32.1211 119.536C32.7053 119.342 32.3787 119.149 32.0567 118.616C31.6837 117.783 31.5059 116.877 31.5369 115.966C31.5928 115.191 31.7681 114.429 32.0567 113.707C32.0567 113.707 32.2499 116.417 32.4431 116.808C32.6363 117.199 33.2159 117.58 33.2803 116.614C33.3447 115.649 32.9583 116.224 33.5379 114.158C34.1175 112.093 31.2793 110.285 31.2379 107.12C31.1965 103.955 32.6593 96.1445 32.6593 92.8601C32.6593 89.5757 32.1993 88.4073 32.1993 88.4073L40.5253 74.2669" stroke="#263238" stroke-linecap="round" stroke-linejoin="round"/> <path d="M31.3345 78.2227C29.6279 82.8227 28.0179 87.4503 27.5349 88.4163C26.5689 90.3529 27.9949 110.367 28.1789 111.918C28.3629 113.468 28.4411 116.697 29.1495 117.47C29.8579 118.243 31.5369 119.728 32.1211 119.535C32.7053 119.342 32.3787 119.149 32.0567 118.615C31.6837 117.783 31.5059 116.877 31.5369 115.966C31.5928 115.191 31.7682 114.429 32.0567 113.707C32.0567 113.707 32.2499 116.416 32.4431 116.807C32.6363 117.198 33.2159 117.58 33.2803 116.614C33.3447 115.648 32.9583 116.223 33.5379 114.158C34.1175 112.092 31.2793 110.285 31.2379 107.12C31.1965 103.955 32.6593 96.1443 32.6593 92.8599C32.6593 89.5755 32.1993 88.4071 32.1993 88.4071L36.6337 80.8769C35.1939 80.1317 32.9077 78.9955 31.3345 78.2227Z" fill="white" stroke="#263238" stroke-linecap="round" stroke-linejoin="round"/> <path d="M74.0498 103.1C74.0498 103.1 118.725 119.356 159.191 118.859" stroke="#263238" stroke-linecap="round" stroke-linejoin="round"/> <path d="M74.2801 101.779C74.2801 101.779 74.0225 104.944 73.5073 105.588C72.9921 106.232 72.4723 106.43 72.4723 105.717C72.4723 105.004 72.6011 103.458 72.6011 103.458C72.6011 103.458 71.5063 104.558 70.7933 103.394C70.0803 102.23 70.1493 101.715 70.1493 101.715" stroke="#263238" stroke-linecap="round" stroke-linejoin="round"/> <path d="M72.2786 103.717C72.2786 103.717 71.5058 105.589 71.699 106.431" stroke="#263238" stroke-linecap="round" stroke-linejoin="round"/> <path d="M72.7943 106.623C72.7943 106.623 72.9231 117.019 72.2791 118.583C71.6351 120.147 70.1493 120.326 69.6341 118.519C69.1189 116.711 72.1503 106.559 72.1503 106.559" stroke="#263238" stroke-linecap="round" stroke-linejoin="round"/> <path d="M73.3 106.688C73.3 106.688 74.22 115.211 73.5576 117.341C72.8952 119.471 71.4922 118.891 71.4922 115.726C71.4922 112.562 72.4582 106.688 72.4582 106.688H73.3Z" stroke="#263238" stroke-linecap="round" stroke-linejoin="round"/> <path d="M39.6101 96.2266C39.6101 96.2266 37.8667 97.7768 37.3101 103.127C37.1012 104.672 37.2149 106.244 37.644 107.744C38.0731 109.243 38.8083 110.638 39.8033 111.839C40.1253 112.354 43.4189 115.648 43.4189 115.648L46.3905 129.402C46.3905 129.402 39.8677 134.241 36.2705 140.055C34.2281 143.335 29.0393 147.093 27.9399 147.673C26.8405 148.253 26.7807 148.593 25.9389 148.133C25.0971 147.673 22.9719 146.261 22.3877 147.36C21.8035 148.46 21.8081 151.684 21.2929 152.462C20.533 153.474 20.0839 154.685 20.0003 155.948C19.8715 157.692 19.8071 162.209 20.3867 162.016C20.9663 161.823 23.0363 157.558 25.6813 155.235C28.3263 152.912 35.6265 147.415 38.5291 145.23C41.4317 143.045 48.5387 139.545 52.0255 136.122C55.5123 132.7 56.9981 130.248 56.9981 128.762C56.9981 127.277 56.5381 112.879 56.5381 109.442C56.5381 106.006 56.8601 99.5616 56.8601 98.7888V97.4318C56.8601 97.4318 53.5067 98.7888 47.3059 97.7538C41.1051 96.7188 39.6101 96.2266 39.6101 96.2266Z" fill="white" stroke="#263238" stroke-linecap="round" stroke-linejoin="round"/> <path d="M47.2917 97.7768C41.0955 96.7418 39.6097 96.2266 39.6097 96.2266C39.6097 96.2266 37.8663 97.7768 37.3097 103.127C37.1008 104.672 37.2145 106.244 37.6436 107.744C38.0728 109.243 38.808 110.638 39.8029 111.839C40.1249 112.354 43.4185 115.648 43.4185 115.648L44.5317 120.8C46.4799 120.007 48.5664 119.61 50.6695 119.633C52.7727 119.655 54.8504 120.095 56.7815 120.929C56.6573 116.416 56.5239 111.31 56.5239 109.429C56.5239 106.006 56.8459 99.5478 56.8459 98.775V97.418C56.8459 97.418 53.4925 98.8118 47.2917 97.7768Z" fill="#263238" stroke="#263238" stroke-linecap="round" stroke-linejoin="round"/> <path d="M39.9316 109.852C39.9316 109.852 42.5766 118.376 45.24 122.879C47.9034 127.383 52.3424 131.339 53.06 133.726C53.7776 136.113 52.5448 140.12 54.1594 144.306C55.774 148.492 61.9794 157.931 62.5544 159.675C63.1294 161.418 64.2978 164.969 65.0706 165.034C65.8434 165.098 75.531 158.962 76.1106 158.446C76.6902 157.931 75.4022 157.738 74.5604 157.867C73.7186 157.996 67.2004 158.575 66.7404 158.446C66.2804 158.318 65.7054 157.089 65.319 156.123C64.9326 155.157 61.639 140.819 59.8956 135.975C58.1522 131.132 57.8946 125.395 57.1862 122.548C56.4778 119.701 54.3434 111.315 51.1142 106.857" fill="#263238"/> <path d="M39.9316 109.852C39.9316 109.852 42.5766 118.376 45.24 122.879C47.9034 127.383 52.3424 131.339 53.06 133.726C53.7776 136.113 52.5448 140.12 54.1594 144.306C55.774 148.492 61.9794 157.931 62.5544 159.675C63.1294 161.418 64.2978 164.969 65.0706 165.034C65.8434 165.098 75.531 158.962 76.1106 158.446C76.6902 157.931 75.4022 157.738 74.5604 157.867C73.7186 157.996 67.2004 158.575 66.7404 158.446C66.2804 158.318 65.7054 157.089 65.319 156.123C64.9326 155.157 61.639 140.819 59.8956 135.975C58.1522 131.132 57.8946 125.395 57.1862 122.548C56.4778 119.701 54.3434 111.315 51.1142 106.857" stroke="white" stroke-linecap="round" stroke-linejoin="round"/> <path d="M74.5374 157.891C73.7002 158.019 67.1774 158.599 66.7174 158.47C66.2574 158.341 65.6824 157.113 65.296 156.147C64.9096 155.181 61.616 140.843 59.8726 135.999C58.1292 131.155 57.8716 125.419 57.1632 122.572C57.0022 121.942 56.7768 121.035 56.4824 119.959C52.4938 119.77 48.5263 120.64 44.9824 122.48C45.0652 122.618 45.1434 122.76 45.2216 122.894C47.8666 127.416 52.324 131.353 53.0416 133.741C53.7592 136.128 52.5264 140.135 54.141 144.321C55.7556 148.507 61.961 157.946 62.536 159.689C63.111 161.433 64.2794 164.984 65.0522 165.048C65.825 165.113 75.5126 158.976 76.0922 158.461C76.6718 157.946 75.3792 157.762 74.5374 157.891Z" fill="white" stroke="#263238" stroke-linecap="round" stroke-linejoin="round"/> <path d="M74.5377 157.89C73.7649 158.005 68.1713 158.511 66.9431 158.488C66.8301 158.592 66.7409 158.719 66.6813 158.86C66.6218 159.001 66.5934 159.154 66.5981 159.307C66.5943 159.682 66.6598 160.055 66.7913 160.406C66.7913 160.406 64.7627 161.483 63.3965 162.191C63.9439 163.645 64.5695 165.016 65.0479 165.057C65.8207 165.121 75.5083 158.985 76.0879 158.47C76.6675 157.955 75.3795 157.761 74.5377 157.89Z" fill="#20C0E8" stroke="#263238" stroke-linecap="round" stroke-linejoin="round"/> <path d="M26.7621 153.11C25.8421 151.689 24.8899 152.011 24.8899 152.011L26.6609 148.331C26.3979 148.345 26.1375 148.273 25.9203 148.124C25.0831 147.664 22.9533 146.251 22.3691 147.351C21.7849 148.45 21.7895 151.675 21.2743 152.452C20.5145 153.465 20.0654 154.676 19.9817 155.939C19.8529 157.682 19.7885 162.2 20.3681 162.006C20.9477 161.813 23.0177 157.549 25.6627 155.226C26.0859 154.853 26.6333 154.398 27.2635 153.887L26.7621 153.11Z" fill="#20C0E8" stroke="#263238" stroke-linecap="round" stroke-linejoin="round"/> <path d="M53.2305 110.175L55.3649 106.945" stroke="white" stroke-linecap="round" stroke-linejoin="round"/> <path d="M0.905273 165.08H193.112" stroke="#263238" stroke-linecap="round" stroke-linejoin="round"/> </svg>