<svg width="39" height="28" viewBox="0 0 39 28" fill="none" xmlns="http://www.w3.org/2000/svg"> <path d="M7.24792e-05 9.63217H39V1.58617C39 1.20531 38.6989 0.896484 38.3276 0.896484H0.67244C0.301102 0.896484 0 1.20531 0 1.58617L7.24792e-05 9.63217Z" fill="#FAB446"/> <path d="M0.67252 27.1038H38.3276C38.6989 27.1038 39 26.7949 39 26.4141V18.3682H7.62939e-05V26.4141C7.62939e-05 26.795 0.301182 27.1038 0.67252 27.1038Z" fill="#73AF00"/> <path d="M7.62939e-05 9.63184H39V18.367H7.62939e-05V9.63184Z" fill="#F5F5F5"/> <path d="M19.5001 17.7067C21.493 17.7067 23.1143 16.0439 23.1143 13.9998C23.1143 11.9558 21.493 10.293 19.5001 10.293C17.5071 10.293 15.8859 11.9558 15.8859 13.9998C15.8859 16.0439 17.5071 17.7067 19.5001 17.7067ZM19.5001 10.9826C21.1224 10.9826 22.4419 12.3359 22.4419 13.9998C22.4419 15.6637 21.1224 17.0171 19.5001 17.0171C17.8778 17.0171 16.5582 15.6637 16.5582 13.9998C16.5582 12.3359 17.8778 10.9826 19.5001 10.9826Z" fill="#41479B"/> <path d="M19.4999 14.4206C19.2737 14.4206 19.0902 14.2324 19.0902 14.0003C19.0902 13.7682 19.2737 13.5801 19.4999 13.5801C19.7262 13.5801 19.9097 13.7682 19.9097 14.0003C19.9097 14.2324 19.7262 14.4206 19.4999 14.4206Z" fill="#41479B"/> <path d="M19.4999 14.063L20.5411 14.1708L22.7778 14.063V13.9369L20.5411 13.8291L19.4999 13.9369V14.063Z" fill="#41479B"/> <path d="M19.5 14.063L18.4587 14.1708L16.222 14.063V13.9369L18.4587 13.8291L19.5 13.9369V14.063Z" fill="#41479B"/> <path d="M19.5614 13.9997L19.6665 12.9318L19.5614 10.6377H19.4384L19.3333 12.9318L19.4384 13.9997H19.5614Z" fill="#41479B"/> <path d="M19.5614 14L19.6665 15.068L19.5614 17.362H19.4384L19.3333 15.068L19.4384 14H19.5614Z" fill="#41479B"/> <path d="M19.5434 14.0445L20.354 13.3657L21.8613 11.6673L21.7744 11.5781L20.1184 13.1241L19.4566 13.9555L19.5434 14.0445Z" fill="#41479B"/> <path d="M19.5435 14.0441L18.8816 14.8755L17.2256 16.4215L17.1387 16.3323L18.646 14.6339L19.4566 13.9551L19.5435 14.0441Z" fill="#41479B"/> <path d="M19.5435 13.9555L18.8816 13.1241L17.2256 11.5781L17.1387 11.6673L18.646 13.3657L19.4566 14.0445L19.5435 13.9555Z" fill="#41479B"/> <path d="M19.5434 13.9551L20.354 14.6339L21.8613 16.3323L21.7744 16.4215L20.1184 14.8755L19.4566 14.0441L19.5434 13.9551Z" fill="#41479B"/> <path d="M19.4767 14.058L20.3986 14.5662L22.5052 15.3445L22.5522 15.228L20.526 14.2505L19.5238 13.9414L19.4767 14.058Z" fill="#41479B"/> <path d="M19.4764 14.0584L18.4742 13.7493L16.4479 12.7718L16.495 12.6553L18.6016 13.4336L19.5234 13.9418L19.4764 14.0584Z" fill="#41479B"/> <path d="M19.5566 14.0235L20.0522 13.078L20.811 10.9174L20.6975 10.8691L19.7444 12.9473L19.443 13.9752L19.5566 14.0235Z" fill="#41479B"/> <path d="M19.5571 14.0239L19.2557 15.0518L18.3027 17.1299L18.1891 17.0817L18.9479 14.9211L19.4435 13.9756L19.5571 14.0239Z" fill="#41479B"/> <path d="M19.5238 14.0584L20.526 13.7493L22.5522 12.7718L22.5052 12.6553L20.3986 13.4336L19.4767 13.9418L19.5238 14.0584Z" fill="#41479B"/> <path d="M19.5234 14.058L18.6016 14.5662L16.495 15.3445L16.4479 15.228L18.4742 14.2505L19.4764 13.9414L19.5234 14.058Z" fill="#41479B"/> <path d="M19.5571 13.9752L19.2557 12.9473L18.3027 10.8691L18.1891 10.9174L18.9479 13.078L19.4435 14.0235L19.5571 13.9752Z" fill="#41479B"/> <path d="M19.5566 13.9756L20.0522 14.9211L20.811 17.0817L20.6975 17.1299L19.7444 15.0518L19.443 14.0239L19.5566 13.9756Z" fill="#41479B"/> <path d="M19.5 14.5673C19.1948 14.5673 18.9473 14.3135 18.9473 14.0005C18.9473 13.6874 19.1948 13.4336 19.5 13.4336C19.8053 13.4336 20.0527 13.6874 20.0527 14.0005C20.0527 14.3135 19.8053 14.5673 19.5 14.5673Z" fill="#F5F5F5"/> <path d="M19.5001 14.34C19.3171 14.34 19.1687 14.1878 19.1687 14.0001C19.1687 13.8123 19.3171 13.6602 19.5001 13.6602C19.6832 13.6602 19.8315 13.8123 19.8315 14.0001C19.8315 14.1878 19.6832 14.34 19.5001 14.34Z" fill="#41479B"/> </svg>