<svg width="149" height="130" viewBox="0 0 149 130" fill="none" xmlns="http://www.w3.org/2000/svg"> <g clip-path="url(#clip0_1_6629)"> <path d="M149 85.6465H0V115.06H149V85.6465Z" fill="#1EC0E8"/> <path d="M17.2386 110.624H4.8457V89.8516H16.7669V93.6625H9.49584V98.2695H16.2552V102.067H9.49584V106.817H17.2386V110.624Z" fill="white"/> <path d="M43.6626 89.8516L36.5427 110.624H31.2696L24.2344 89.8516H29.2494L33.5569 104.308C33.7679 104.982 33.9081 105.676 33.9752 106.379H34.0642C34.146 105.657 34.295 104.944 34.5091 104.25L38.79 89.8516H43.6626Z" fill="white"/> <path d="M64.4339 110.624H52.041V89.8516H63.9623V93.6625H56.6956V98.2695H63.455V102.067H56.6956V106.817H64.4339V110.624Z" fill="white"/> <path d="M92.2459 110.624H87.5468L79.0298 97.5718C78.6539 97.0167 78.3077 96.4419 77.9929 95.8497H77.9351C78.0093 96.5833 78.0478 97.703 78.0508 99.2088V110.624H73.6543V89.8516H78.6693L86.8705 102.496C87.2443 103.069 87.5869 103.633 87.9073 104.192H87.9651C87.8638 103.244 87.8252 102.291 87.8495 101.338V89.8516H92.2459V110.624Z" fill="white"/> <path d="M117.387 93.6625H111.491V110.624H106.823V93.6625H100.963V89.8516H117.392L117.387 93.6625Z" fill="white"/> <path d="M134.805 110.986C131.839 110.986 129.427 110.019 127.57 108.083C125.713 106.148 124.781 103.623 124.775 100.506C124.775 97.2263 125.722 94.5709 127.614 92.5402C129.507 90.5095 132.014 89.4941 135.135 89.4941C138.086 89.4941 140.472 90.4648 142.29 92.406C144.109 94.3472 145.019 96.9072 145.022 100.086C145.022 103.351 144.078 105.983 142.188 107.981C140.298 109.978 137.837 110.98 134.805 110.986ZM135.006 93.5421C134.258 93.5147 133.514 93.6682 132.837 93.9896C132.16 94.3111 131.57 94.7911 131.116 95.3894C130.155 96.6209 129.675 98.2506 129.675 100.278C129.675 102.306 130.155 103.933 131.116 105.158C131.579 105.717 132.157 106.167 132.811 106.477C133.465 106.788 134.178 106.951 134.901 106.956C135.624 106.961 136.339 106.806 136.997 106.504C137.654 106.202 138.238 105.76 138.708 105.207C139.651 104.044 140.123 102.43 140.123 100.363C140.123 98.2133 139.666 96.5374 138.752 95.3357C138.321 94.7516 137.754 94.2821 137.101 93.968C136.448 93.6539 135.729 93.5046 135.006 93.5332V93.5421Z" fill="white"/> <path d="M6.21177 126.784V129.843H4.22266V120.969H7.33758C9.56252 120.969 10.6765 121.911 10.6794 123.796C10.6925 124.206 10.6128 124.614 10.4464 124.989C10.2799 125.364 10.0309 125.696 9.71828 125.96C8.99392 126.54 8.08384 126.832 7.1596 126.784H6.21177ZM6.21177 122.503V125.267H6.99495C8.05403 125.267 8.58357 124.802 8.58357 123.872C8.58357 122.941 8.05403 122.485 6.99495 122.503H6.21177Z" fill="black"/> <path d="M32.3467 129.843H30.1796L29.5522 127.87H26.4105L25.7875 129.843H23.6338L26.8511 120.969H29.2095L32.3467 129.843ZM29.0983 126.332L28.1504 123.348C28.0725 123.089 28.0218 122.822 27.9992 122.552H27.9502C27.9304 122.815 27.8796 123.075 27.7989 123.326L26.8377 126.332H29.0983Z" fill="black"/> <path d="M52.393 129.53C51.5956 129.874 50.7322 130.034 49.8654 130C49.2792 130.031 48.6928 129.941 48.143 129.734C47.5932 129.527 47.0919 129.208 46.6704 128.797C46.2746 128.368 45.968 127.865 45.7686 127.316C45.5691 126.766 45.4809 126.183 45.509 125.599C45.4824 124.964 45.5847 124.331 45.8097 123.737C46.0346 123.143 46.3774 122.602 46.8173 122.146C47.261 121.699 47.7916 121.35 48.3758 121.119C48.96 120.888 49.5852 120.781 50.2126 120.804C50.953 120.785 51.691 120.897 52.393 121.135V123.058C51.7807 122.698 51.0819 122.514 50.3727 122.526C50.0019 122.51 49.6318 122.573 49.2863 122.709C48.9407 122.845 48.6272 123.053 48.3658 123.318C48.1031 123.603 47.9 123.938 47.7685 124.304C47.6371 124.67 47.5799 125.058 47.6005 125.447C47.5624 126.2 47.8214 126.938 48.3214 127.5C48.5727 127.758 48.8756 127.959 49.21 128.091C49.5444 128.223 49.9027 128.282 50.2615 128.265C51.0104 128.271 51.747 128.073 52.393 127.692V129.53Z" fill="black"/> <path d="M73.8818 129.843H71.3721L68.7956 126.001C68.7077 125.844 68.6304 125.681 68.5642 125.513H68.533V129.856H66.5439V120.969H68.533V125.164H68.5642C68.6131 125.048 68.6932 124.883 68.8089 124.668L71.2474 120.969H73.6192L70.5399 125.2L73.8818 129.843Z" fill="black"/> <path d="M95.1033 129.843H92.954L92.3266 127.87H89.185L88.562 129.843H86.4082L89.621 120.969H91.9795L95.1033 129.843ZM91.8504 126.332L90.9026 123.348C90.8284 123.088 90.7793 122.822 90.7557 122.552H90.729C90.7077 122.815 90.6554 123.075 90.5733 123.326L89.6166 126.332H91.8504Z" fill="black"/> <path d="M116.066 129.249C115.078 129.78 113.968 130.039 112.849 130C111.618 130.067 110.412 129.641 109.493 128.815C109.074 128.387 108.748 127.875 108.536 127.313C108.325 126.75 108.232 126.15 108.265 125.55C108.241 124.919 108.347 124.29 108.577 123.703C108.807 123.115 109.155 122.582 109.6 122.137C110.076 121.69 110.637 121.343 111.248 121.116C111.859 120.89 112.509 120.788 113.16 120.817C114.001 120.803 114.838 120.937 115.634 121.211V123.085C114.868 122.667 114.005 122.461 113.133 122.49C112.76 122.476 112.387 122.54 112.04 122.68C111.693 122.819 111.378 123.031 111.118 123.3C110.628 123.899 110.354 124.646 110.339 125.422C110.324 126.197 110.571 126.954 111.038 127.571C111.281 127.824 111.575 128.022 111.9 128.152C112.226 128.281 112.575 128.34 112.924 128.323C113.313 128.338 113.7 128.268 114.059 128.117V126.382H112.279V124.785H116.035L116.066 129.249Z" fill="black"/> <path d="M135.672 129.843H130.377V120.969H135.468V122.597H132.353V124.569H135.241V126.193H132.353V128.237H135.672V129.843Z" fill="black"/> <path d="M98.4984 68.7044V70.7619L95.8018 70.1223V70.6009L99.1169 71.3881V68.7044C99.1229 68.7051 99.129 68.7045 99.1347 68.7025C99.1405 68.7005 99.1457 68.6972 99.1499 68.6929C99.1542 68.6886 99.1575 68.6834 99.1595 68.6776C99.1615 68.6719 99.1621 68.6657 99.1614 68.6597C99.1614 68.654 99.1603 68.6484 99.158 68.6432C99.1557 68.638 99.1524 68.6333 99.1481 68.6295C99.1439 68.6257 99.139 68.6228 99.1336 68.6211C99.1282 68.6194 99.1225 68.6188 99.1169 68.6194C99.1245 68.5577 99.1098 68.4954 99.0755 68.4436C99.0412 68.3919 98.9896 68.3543 98.93 68.3376C98.87 68.3018 98.822 68.2489 98.7921 68.1855C98.7596 68.2486 98.7103 68.3013 98.6497 68.3376C98.5901 68.3543 98.5385 68.3919 98.5042 68.4436C98.4699 68.4954 98.4552 68.5577 98.4628 68.6194C98.4571 68.6188 98.4515 68.6194 98.4461 68.6211C98.4407 68.6228 98.4357 68.6257 98.4315 68.6295C98.4273 68.6333 98.424 68.638 98.4217 68.6432C98.4194 68.6484 98.4182 68.654 98.4183 68.6597C98.4124 68.6703 98.4109 68.683 98.4143 68.6947C98.4176 68.7064 98.4254 68.7164 98.4361 68.7223C98.4467 68.7282 98.4592 68.7297 98.4709 68.7263C98.4826 68.723 98.4925 68.7151 98.4984 68.7044Z" fill="#1FC0E8"/> <path d="M89.6475 67.237V67.6485H90.177V68.1942C90.2327 68.311 90.2997 68.4218 90.3772 68.5252C90.524 68.7043 90.5958 68.9336 90.5775 69.1648V70.122H89.9901V70.6006H95.4768V70.131L95.7839 70.1936V67.8543C95.7957 67.8543 95.807 67.8496 95.8153 67.8412C95.8237 67.8328 95.8284 67.8214 95.8284 67.8095C95.8284 67.7977 95.8237 67.7863 95.8153 67.7779C95.807 67.7695 95.7957 67.7648 95.7839 67.7648C95.7894 67.704 95.7739 67.6431 95.7398 67.5925C95.7057 67.542 95.6552 67.5048 95.597 67.4875C95.597 67.4495 95.582 67.4131 95.5552 67.3863C95.5285 67.3594 95.4923 67.3444 95.4546 67.3444C95.4168 67.3444 95.3806 67.3594 95.3539 67.3863C95.3272 67.4131 95.3122 67.4495 95.3122 67.4875C95.2539 67.5048 95.2034 67.542 95.1693 67.5925C95.1353 67.6431 95.1197 67.704 95.1253 67.7648C95.1135 67.7648 95.1021 67.7695 95.0938 67.7779C95.0855 67.7863 95.0808 67.7977 95.0808 67.8095C95.0808 67.8214 95.0855 67.8328 95.0938 67.8412C95.1021 67.8496 95.1135 67.8543 95.1253 67.8543H95.1787V70.1131H93.9727V69.1559C93.9636 69.0399 93.9783 68.9234 94.0158 68.8133C94.0533 68.7033 94.1129 68.6022 94.1908 68.5163C94.275 68.414 94.3481 68.3031 94.4089 68.1853V67.6396H94.9384V67.2281H94.5468C94.5468 65.9086 93.8927 65.6223 93.2652 65.3092C92.85 65.0648 92.5144 64.7043 92.2996 64.2715C92.0823 64.704 91.7455 65.0643 91.3295 65.3092C90.7021 65.6223 90.0479 65.9086 90.0479 67.2281L89.6475 67.237ZM92.4954 69.1648C92.4872 69.0429 92.5089 68.9209 92.5585 68.8094C92.6082 68.6978 92.6843 68.6003 92.7802 68.5252C92.7728 68.484 92.7746 68.4417 92.7853 68.4012C92.796 68.3608 92.8154 68.3232 92.8421 68.2911C92.8689 68.259 92.9023 68.2331 92.94 68.2154C92.9777 68.1977 93.0189 68.1885 93.0605 68.1885C93.1022 68.1885 93.1433 68.1977 93.1811 68.2154C93.2188 68.2331 93.2522 68.259 93.2789 68.2911C93.3056 68.3232 93.3251 68.3608 93.3358 68.4012C93.3465 68.4417 93.3482 68.484 93.3409 68.5252C93.4354 68.6013 93.5102 68.6991 93.559 68.8105C93.6078 68.9219 93.6292 69.0434 93.6212 69.1648V70.122H92.5087L92.4954 69.1648ZM90.9869 69.1648C90.9789 69.0434 91.0003 68.9219 91.0491 68.8105C91.0979 68.6991 91.1727 68.6013 91.2672 68.5252C91.3747 68.4277 91.469 68.3164 91.5476 68.1942C91.6289 68.3157 91.7245 68.4268 91.8323 68.5252C91.9268 68.6013 92.0017 68.6991 92.0505 68.8105C92.0993 68.9219 92.1206 69.0434 92.1127 69.1648V70.122H90.9869V69.1648Z" fill="#1FC0E8"/> <path d="M17.5417 63.9805H17.9867V63.5332H5.08203V64.2757H17.1902C17.1909 64.232 17.2009 64.189 17.2197 64.1496C17.2384 64.1101 17.2654 64.0752 17.2987 64.0472C17.3321 64.0192 17.371 63.9988 17.413 63.9872C17.4549 63.9757 17.4988 63.9734 17.5417 63.9805Z" fill="#1FC0E8"/> <path d="M18.7513 55.9867V58.9791H18.6623C18.6128 58.9791 18.5652 58.9989 18.5302 59.0341C18.4951 59.0693 18.4754 59.1171 18.4754 59.1669C18.4754 59.2167 18.4951 59.2645 18.5302 59.2998C18.5652 59.335 18.6128 59.3548 18.6623 59.3548H21.7773C21.8268 59.3548 21.8744 59.335 21.9094 59.2998C21.9445 59.2645 21.9641 59.2167 21.9641 59.1669C21.9641 59.1171 21.9445 59.0693 21.9094 59.0341C21.8744 58.9989 21.8268 58.9791 21.7773 58.9791H21.6882V55.9867C21.7764 55.9768 21.8578 55.9346 21.9169 55.8682C21.976 55.8018 22.0087 55.7158 22.0087 55.6266C22.0087 55.5375 21.976 55.4515 21.9169 55.3851C21.8578 55.3186 21.7764 55.2764 21.6882 55.2666V55.0295C21.6882 54.2602 20.2109 52.4531 20.2109 52.4531C20.2109 52.4531 18.7335 54.2423 18.7335 55.0295V55.2666C18.6454 55.2764 18.564 55.3186 18.5049 55.3851C18.4458 55.4515 18.4131 55.5375 18.4131 55.6266C18.4131 55.7158 18.4458 55.8018 18.5049 55.8682C18.564 55.9346 18.6454 55.9768 18.7335 55.9867H18.7513ZM21.0386 56.595C21.0386 56.4206 21.1276 56.2819 21.2388 56.2819C21.3501 56.2819 21.4391 56.4206 21.4391 56.595V57.91H21.0386V56.595ZM19.9172 56.595C19.9172 56.5539 19.9253 56.5132 19.9409 56.4752C19.9566 56.4372 19.9795 56.4027 20.0084 56.3736C20.0374 56.3445 20.0717 56.3215 20.1095 56.3057C20.1473 56.29 20.1878 56.2819 20.2287 56.2819C20.27 56.2813 20.311 56.289 20.3493 56.3044C20.3876 56.3199 20.4224 56.3429 20.4518 56.372C20.4812 56.4012 20.5046 56.4359 20.5205 56.4741C20.5364 56.5124 20.5447 56.5535 20.5447 56.595V57.91H19.9172V56.595ZM19.0272 56.595C19.0272 56.4206 19.1162 56.2819 19.223 56.2819C19.3298 56.2819 19.4233 56.4206 19.4233 56.595V57.91H19.0272V56.595Z" fill="#1FC0E8"/> <path d="M34.2149 77.4022H33.7699C33.5474 71.9856 28.875 71.2207 28.875 71.2207C28.875 71.2207 24.1848 71.9856 23.949 77.4022H23.5352V77.9927H24.4919C24.6921 77.9927 24.6432 77.7064 24.6432 77.7064C24.8256 77.7064 24.8034 77.4022 24.8034 77.4022H24.4741C24.6966 72.5805 28.875 71.8782 28.875 71.8782C28.875 71.8782 33.0357 72.5626 33.276 77.3843H32.9422C32.9422 77.3843 32.9422 77.6885 33.1069 77.6885C33.1069 77.6885 33.0534 77.9748 33.2581 77.9748H34.2149V77.4022Z" fill="#1FC0E8"/> <path d="M113.909 58.3936H143.491V58.0581L143.799 57.7227H113.602L113.909 58.0581V58.3936Z" fill="#1FC0E8"/> <path d="M142.85 55.0469H114.549V57.3325H142.85V55.0469Z" fill="#1FC0E8"/> <path d="M142.023 51.9609H115.377V54.2913H142.023V51.9609Z" fill="#1FC0E8"/> <path d="M134.578 45.3691H122.826V46.3129H134.578V45.3691Z" fill="#1FC0E8"/> <path d="M128.7 43.0821C127.154 43.0779 125.661 43.6518 124.513 44.6923H132.892C131.741 43.653 130.247 43.0793 128.7 43.0821Z" fill="#1FC0E8"/> <path d="M114.006 60.0879H143.393L143.598 59.502H113.802L114.006 60.0879Z" fill="#1FC0E8"/> <path d="M139.927 46.7871H117.473V51.5955H139.927V46.7871ZM122.06 50.5578C121.809 50.5586 121.564 50.4846 121.355 50.3451C121.146 50.2056 120.982 50.0068 120.886 49.7739C120.789 49.5411 120.763 49.2846 120.812 49.037C120.86 48.7895 120.981 48.5619 121.158 48.3832C121.335 48.2045 121.561 48.0826 121.807 48.033C122.053 47.9835 122.308 48.0085 122.54 48.1048C122.772 48.2012 122.971 48.3646 123.11 48.5743C123.25 48.784 123.324 49.0307 123.324 49.283C123.324 49.6203 123.191 49.9439 122.954 50.1828C122.718 50.4217 122.396 50.5566 122.06 50.5578ZM133.63 50.6785H131.361V50.9066H126.056V50.6785H123.787V47.8919H126.056V47.6593H131.361V47.8919H133.63V50.6785ZM135.348 50.5578C135.097 50.5578 134.852 50.483 134.643 50.3429C134.435 50.2029 134.272 50.0038 134.176 49.7708C134.08 49.5379 134.055 49.2816 134.104 49.0343C134.153 48.787 134.274 48.5599 134.451 48.3816C134.628 48.2033 134.854 48.0819 135.1 48.0327C135.346 47.9835 135.601 48.0088 135.833 48.1053C136.065 48.2017 136.263 48.3651 136.402 48.5748C136.542 48.7844 136.616 49.0309 136.616 49.283C136.616 49.4512 136.583 49.6176 136.519 49.7729C136.454 49.9281 136.36 50.0691 136.241 50.1876C136.123 50.3061 135.982 50.3998 135.827 50.4633C135.672 50.5268 135.506 50.5589 135.339 50.5578H135.348Z" fill="#1FC0E8"/> <path d="M119.364 68.1973H115.443V70.228H119.364V68.1973Z" fill="#1FC0E8"/> <path d="M119.364 65.0039H115.443V65.8314H119.364V65.0039Z" fill="#1FC0E8"/> <path d="M117.321 63.2915C117.516 63.2915 117.706 63.2335 117.868 63.1249C118.029 63.0163 118.155 62.8619 118.23 62.6813C118.304 62.5006 118.324 62.3019 118.286 62.1101C118.248 61.9184 118.154 61.7422 118.017 61.604C117.879 61.4657 117.704 61.3716 117.513 61.3334C117.322 61.2953 117.125 61.3149 116.945 61.3897C116.765 61.4645 116.612 61.5912 116.504 61.7538C116.396 61.9163 116.338 62.1075 116.338 62.303C116.338 62.5651 116.441 62.8166 116.626 63.002C116.81 63.1873 117.061 63.2915 117.321 63.2915Z" fill="#1FC0E8"/> <path d="M121.682 60.6971V60.5003H113.125V61.9226H112.818V61.6453H112.587V60.6523C112.581 60.5893 112.589 60.526 112.609 60.466C112.629 60.4061 112.661 60.3508 112.702 60.3035C112.748 60.2485 112.786 60.1885 112.818 60.1245V59.8293H113.263C113.305 59.8293 113.346 59.8124 113.376 59.7822C113.406 59.752 113.423 59.711 113.423 59.6683C113.423 59.6252 113.406 59.5837 113.377 59.5528C113.347 59.5219 113.306 59.504 113.263 59.5028H112.916C112.938 59.2758 112.88 59.0482 112.754 58.8589C112.627 58.6696 112.439 58.5304 112.222 58.4651C112.222 58.3251 112.166 58.1909 112.068 58.0919C111.969 57.9929 111.836 57.9373 111.697 57.9373C111.557 57.9373 111.424 57.9929 111.325 58.0919C111.227 58.1909 111.171 58.3251 111.171 58.4651C110.954 58.5304 110.766 58.6696 110.639 58.8589C110.513 59.0482 110.455 59.2758 110.477 59.5028H110.13C110.087 59.504 110.047 59.5219 110.017 59.5528C109.987 59.5837 109.97 59.6252 109.97 59.6683C109.97 59.711 109.987 59.752 110.017 59.7822C110.047 59.8124 110.088 59.8293 110.13 59.8293H110.575V60.1245C110.605 60.1873 110.641 60.2472 110.682 60.3035C110.723 60.3513 110.753 60.4068 110.773 60.4667C110.792 60.5266 110.799 60.5897 110.793 60.6523V61.6274H110.575V61.9048H110.13C110.088 61.9048 110.047 61.9217 110.017 61.9519C109.987 61.9821 109.97 62.0231 109.97 62.0658C109.97 62.1085 109.987 62.1494 110.017 62.1796C110.047 62.2098 110.088 62.2268 110.13 62.2268V62.4594H110.304V62.2268H110.46V62.4594H110.54L110.273 68.9987H109.979C109.936 68.9987 109.896 69.0157 109.866 69.0459C109.836 69.0761 109.819 69.1171 109.819 69.1598C109.819 69.2025 109.836 69.2434 109.866 69.2736C109.896 69.3038 109.936 69.3208 109.979 69.3208V69.5534H110.157V69.3208H110.264L110.023 75.2742H109.77C109.727 75.2742 109.687 75.2912 109.657 75.3214C109.626 75.3516 109.61 75.3925 109.61 75.4352C109.61 75.4779 109.626 75.5189 109.657 75.5491C109.687 75.5793 109.727 75.5963 109.77 75.5963V75.8244H109.948V75.5963H110.01L109.748 82.0327H104.675L104.483 77.3094H104.612V77.1349C104.645 77.1338 104.675 77.1201 104.698 77.0967C104.72 77.0733 104.733 77.0421 104.732 77.0097C104.732 76.9777 104.72 76.9469 104.697 76.9243C104.675 76.9016 104.644 76.8889 104.612 76.8889H104.461L104.279 72.3579H104.381V72.5323H104.514V72.3579C104.547 72.3567 104.577 72.343 104.6 72.3197C104.622 72.2963 104.635 72.2651 104.635 72.2326C104.635 72.2006 104.622 72.1699 104.599 72.1473C104.577 72.1246 104.546 72.1119 104.514 72.1119H104.288L104.087 67.1336H104.145V66.9591H104.261V67.1336H104.399V66.9591C104.431 66.958 104.463 66.9444 104.486 66.9212C104.509 66.8979 104.522 66.8667 104.523 66.8339C104.522 66.8014 104.509 66.7707 104.485 66.7482C104.462 66.7257 104.431 66.7131 104.399 66.7131H104.078V66.5118H103.896V65.7693C103.893 65.7212 103.899 65.673 103.915 65.6275C103.931 65.5821 103.956 65.5405 103.989 65.5054C104.023 65.4635 104.053 65.4186 104.078 65.3712V65.1431H104.399C104.431 65.1431 104.462 65.1306 104.485 65.108C104.509 65.0855 104.522 65.0548 104.523 65.0224C104.522 64.9895 104.509 64.9583 104.486 64.935C104.463 64.9118 104.431 64.8982 104.399 64.8971H104.078C104.095 64.7245 104.051 64.5516 103.954 64.4079C103.858 64.2643 103.714 64.1589 103.549 64.1099C103.549 64.057 103.538 64.0047 103.518 63.9558C103.498 63.907 103.469 63.8626 103.432 63.8252C103.394 63.7878 103.35 63.7582 103.302 63.738C103.253 63.7177 103.201 63.7073 103.148 63.7073C103.096 63.7073 103.044 63.7177 102.995 63.738C102.947 63.7582 102.902 63.7878 102.865 63.8252C102.828 63.8626 102.798 63.907 102.778 63.9558C102.758 64.0047 102.748 64.057 102.748 64.1099C102.583 64.159 102.44 64.2646 102.344 64.4083C102.248 64.5521 102.205 64.725 102.223 64.8971H101.956C101.924 64.8983 101.893 64.912 101.871 64.9353C101.848 64.9587 101.836 64.9899 101.836 65.0224C101.836 65.0544 101.848 65.0851 101.871 65.1077C101.893 65.1304 101.924 65.1431 101.956 65.1431H102.298V65.3712C102.32 65.4186 102.347 65.4636 102.379 65.5054C102.44 65.5791 102.47 65.6737 102.463 65.7693V66.5118H102.298V66.7265H101.974C101.942 66.7265 101.911 66.7392 101.889 66.7619C101.866 66.7845 101.853 66.8153 101.853 66.8473C101.853 66.8797 101.866 66.9109 101.888 66.9343C101.911 66.9577 101.941 66.9714 101.974 66.9725V67.147H102.107V66.9591H102.223V67.1336H102.285L102.08 72.1119H101.853C101.821 72.1119 101.79 72.1244 101.767 72.147C101.744 72.1695 101.73 72.2002 101.729 72.2326C101.73 72.2655 101.743 72.2967 101.767 72.32C101.79 72.3432 101.821 72.3568 101.853 72.3579V72.5323H101.991V72.3579H102.071L101.853 76.8889H101.662C101.646 76.8883 101.63 76.891 101.615 76.8968C101.6 76.9026 101.586 76.9114 101.574 76.9227C101.563 76.9339 101.553 76.9475 101.547 76.9624C101.541 76.9774 101.537 76.9934 101.537 77.0097C101.537 77.0429 101.551 77.0748 101.574 77.0983C101.597 77.1217 101.629 77.1349 101.662 77.1349V77.3094H101.796V77.1349H101.853L101.653 82.0327H99.1256V71.8256L95.8105 71.0384V82.0327H95.4678V71.0384H89.99V82.0327H89.7364V68.1131H89.1446V66.4447C89.1446 66.4447 88.7307 65.9438 84.2497 65.9035C84.2122 65.757 84.146 65.6195 84.0551 65.4989C83.9642 65.3783 83.8503 65.2772 83.7201 65.2013C83.5769 65.1204 83.4176 65.0725 83.2537 65.0609C83.0898 65.0493 82.9254 65.0743 82.7723 65.1342C82.8925 64.915 82.9948 64.6869 83.1016 64.4722H83.6979C88.8019 64.4722 89.1623 64.9821 89.1623 64.9821C89.1623 64.9821 91.2182 63.1527 89.5628 60.46C88.9592 59.5166 88.1956 58.687 87.3067 58.0089C87.3177 57.9751 87.3266 57.9408 87.3334 57.906C87.3734 57.6899 87.3493 57.4667 87.2642 57.2642C87.1792 57.0617 87.0368 56.8888 86.8549 56.7669C86.6729 56.6449 86.4593 56.5794 86.2407 56.5783C86.022 56.5773 85.8078 56.6408 85.6247 56.7609L85.5312 56.6938C85.6566 55.7772 85.7323 54.8544 85.7582 53.9296C85.9069 54.1071 86.1063 54.2343 86.3294 54.294C86.5525 54.3538 86.7884 54.3431 87.0053 54.2635C87.2222 54.1839 87.4094 54.0393 87.5417 53.8491C87.6741 53.659 87.745 53.4326 87.745 53.2005C87.745 52.9685 87.6741 52.742 87.5417 52.5519C87.4094 52.3617 87.2222 52.2171 87.0053 52.1375C86.7884 52.0579 86.5525 52.0473 86.3294 52.107C86.1063 52.1667 85.9069 52.294 85.7582 52.4714C85.7332 51.4983 85.6515 50.5275 85.5135 49.564C85.6596 49.6841 85.8334 49.7653 86.0189 49.8002C86.2044 49.8351 86.3956 49.8226 86.5751 49.7638C86.7545 49.705 86.9163 49.6018 87.0457 49.4636C87.1751 49.3255 87.2678 49.1569 87.3154 48.9734C87.363 48.7898 87.364 48.5971 87.3181 48.4131C87.2723 48.2291 87.1812 48.0596 87.0532 47.9202C86.9251 47.7808 86.7643 47.6761 86.5854 47.6155C86.4066 47.5549 86.2155 47.5405 86.0296 47.5736C85.8708 47.6031 85.72 47.6662 85.5873 47.7588C85.4546 47.8513 85.3429 47.9711 85.2598 48.1104C85.0627 47.1599 84.8101 46.222 84.5033 45.3014C84.7032 45.4186 84.9343 45.4708 85.1649 45.4508C85.3955 45.4308 85.6142 45.3395 85.7912 45.1896C85.9681 45.0397 86.0946 44.8384 86.1532 44.6133C86.2118 44.3883 86.1998 44.1505 86.1186 43.9327C86.0412 43.7132 85.898 43.5232 85.7087 43.3888C85.5195 43.2545 85.2935 43.1823 85.0618 43.1823C84.8301 43.1823 84.6041 43.2545 84.4148 43.3888C84.2256 43.5232 84.0824 43.7132 84.0049 43.9327C83.6467 43.0219 83.2351 42.1332 82.7723 41.2713C82.9254 41.3312 83.0898 41.3562 83.2537 41.3446C83.4176 41.333 83.5769 41.2851 83.7201 41.2042C83.9792 41.0542 84.1683 40.8068 84.2459 40.5166C84.3235 40.2263 84.2833 39.917 84.134 39.6566C83.9847 39.3962 83.7386 39.2061 83.4499 39.1281C83.1611 39.0501 82.8534 39.0906 82.5943 39.2406C82.4512 39.3241 82.3288 39.4392 82.2364 39.5771C82.1439 39.715 82.0837 39.8722 82.0603 40.0368C81.5386 39.1953 80.9695 38.3844 80.356 37.608C80.5199 37.645 80.6899 37.6441 80.8533 37.6054C81.0168 37.5666 81.1693 37.4911 81.2994 37.3844C81.4496 37.263 81.5664 37.105 81.6388 36.9254C81.7111 36.7459 81.7366 36.5507 81.7127 36.3584C81.6889 36.1662 81.6166 35.9833 81.5026 35.827C81.3886 35.6708 81.2368 35.5465 81.0615 35.4659C80.8863 35.3853 80.6934 35.351 80.5013 35.3664C80.3091 35.3819 80.1241 35.4464 79.9638 35.5539C79.8035 35.6615 79.6732 35.8084 79.5853 35.9808C79.4974 36.1532 79.4548 36.3454 79.4616 36.539C78.807 35.7938 78.107 35.0902 77.3657 34.4323C77.5553 34.4359 77.7428 34.3912 77.9106 34.3022C78.0784 34.2132 78.2209 34.0828 78.3249 33.9234C78.4289 33.7639 78.491 33.5806 78.5053 33.3904C78.5197 33.2003 78.4858 33.0096 78.4068 32.8363C78.3279 32.6629 78.2065 32.5125 78.054 32.3991C77.9015 32.2857 77.7229 32.2131 77.5348 32.188C77.3468 32.1628 77.1555 32.1861 76.9788 32.2555C76.8022 32.325 76.6459 32.4383 76.5247 32.585C76.419 32.7152 76.3437 32.8676 76.3044 33.0309C76.2652 33.1943 76.2629 33.3644 76.2977 33.5288C75.5257 32.9129 74.7189 32.3424 73.8814 31.8201C74.046 31.7973 74.2033 31.7371 74.3413 31.6441C74.4793 31.5511 74.5944 31.4277 74.678 31.2834C74.8273 31.023 74.8675 30.7136 74.7899 30.4234C74.7123 30.1332 74.5232 29.8858 74.2641 29.7357C74.0051 29.5857 73.6973 29.5452 73.4086 29.6232C73.1199 29.7012 72.8738 29.8913 72.7245 30.1517C72.644 30.2957 72.5963 30.4558 72.5848 30.6206C72.5733 30.7853 72.5982 30.9505 72.6577 31.1044C71.793 30.6385 70.9015 30.2247 69.9878 29.8655C70.141 29.8084 70.2802 29.7189 70.3961 29.6032C70.512 29.4875 70.6019 29.3481 70.6597 29.1945C70.7268 29.0154 70.7477 28.822 70.7206 28.6326C70.6935 28.4431 70.6192 28.2636 70.5046 28.1107C70.39 27.9578 70.2388 27.8365 70.0651 27.758C69.8913 27.6796 69.7007 27.6465 69.5109 27.6619C69.321 27.6773 69.1382 27.7407 68.9792 27.8462C68.8203 27.9517 68.6904 28.0958 68.6017 28.2652C68.513 28.4346 68.4683 28.6238 68.4718 28.8152C68.4753 29.0066 68.5269 29.194 68.6217 29.36C67.7052 29.0538 66.7722 28.7999 65.8271 28.5996C66.0259 28.481 66.1837 28.304 66.2792 28.0924C66.3748 27.8808 66.4035 27.6449 66.3615 27.4164C66.3195 27.188 66.2089 26.9779 66.0444 26.8146C65.88 26.6513 65.6697 26.5426 65.442 26.5032C65.2142 26.4637 64.9798 26.4954 64.7705 26.594C64.5612 26.6925 64.387 26.8533 64.2713 27.0544C64.1557 27.2556 64.1042 27.4876 64.1238 27.7191C64.1434 27.9506 64.2331 28.1705 64.3809 28.3491C63.4224 28.2104 62.4566 28.1282 61.4885 28.1031C61.6665 27.9534 61.7943 27.7523 61.8546 27.527C61.9149 27.3017 61.9048 27.0633 61.8256 26.844C61.7463 26.6247 61.6019 26.4353 61.4118 26.3014C61.2217 26.1675 60.9953 26.0957 60.7632 26.0957C60.5311 26.0957 60.3046 26.1675 60.1146 26.3014C59.9245 26.4353 59.78 26.6247 59.7008 26.844C59.6216 27.0633 59.6114 27.3017 59.6717 27.527C59.732 27.7523 59.8599 27.9534 60.0379 28.1031C59.0698 28.1282 58.104 28.2104 57.1454 28.3491C57.247 28.2261 57.3211 28.0825 57.3625 27.9282C57.404 27.7738 57.4119 27.6123 57.3857 27.4546C57.36 27.3077 57.3058 27.1674 57.2261 27.0416C57.1464 26.9158 57.0429 26.8071 56.9214 26.7215C56.7999 26.6359 56.6629 26.5753 56.5181 26.543C56.3733 26.5106 56.2235 26.5073 56.0774 26.5332C55.9314 26.559 55.7918 26.6135 55.6666 26.6936C55.5415 26.7737 55.4333 26.8777 55.3481 26.9998C55.263 27.1219 55.2027 27.2597 55.1705 27.4053C55.1384 27.5508 55.1351 27.7013 55.1608 27.8482C55.1888 28.0077 55.251 28.1592 55.3433 28.2921C55.4355 28.425 55.5554 28.536 55.6948 28.6175C54.7496 28.8172 53.8165 29.0711 52.9002 29.3779C53.0138 29.1762 53.0631 28.9443 53.0413 28.7136C53.0195 28.4829 52.9278 28.2644 52.7785 28.0878C52.6292 27.9112 52.4296 27.7849 52.2066 27.726C51.9836 27.6671 51.748 27.6784 51.5316 27.7585C51.3152 27.8385 51.1285 27.9834 50.9967 28.1736C50.8649 28.3638 50.7944 28.59 50.7947 28.8218C50.7949 29.0535 50.866 29.2796 50.9982 29.4695C51.1305 29.6593 51.3175 29.8038 51.5341 29.8833C50.6213 30.243 49.7298 30.6552 48.8642 31.1179C48.9236 30.9647 48.9485 30.8002 48.937 30.6362C48.9254 30.4722 48.8778 30.3128 48.7974 30.1696C48.6481 29.9092 48.4021 29.7191 48.1133 29.6411C47.8246 29.5631 47.5168 29.6036 47.2578 29.7536C46.9987 29.9037 46.8096 30.1511 46.732 30.4413C46.6544 30.7315 46.6946 31.0409 46.8439 31.3012C46.927 31.4451 47.0415 31.5681 47.1786 31.6611C47.3158 31.754 47.4722 31.8145 47.636 31.838C46.7985 32.3603 45.9917 32.9308 45.2197 33.5466C45.2566 33.3824 45.2553 33.2118 45.2159 33.0481C45.1766 32.8844 45.1002 32.7321 44.9928 32.6029C44.8004 32.3727 44.525 32.2288 44.227 32.2028C43.9291 32.1768 43.6331 32.2708 43.4042 32.4642C43.1752 32.6576 43.032 32.9344 43.0062 33.2339C42.9803 33.5334 43.0739 33.8309 43.2662 34.061C43.3757 34.1893 43.5126 34.2909 43.6668 34.3583C43.8209 34.4257 43.9883 34.4571 44.1562 34.4502C43.4171 35.1089 42.7172 35.8109 42.0603 36.5524C42.0684 36.3839 42.0382 36.2157 41.9718 36.0607C41.9055 35.9056 41.8049 35.7679 41.6776 35.6578C41.4465 35.4794 41.1557 35.3976 40.866 35.4295C40.5763 35.4614 40.31 35.6046 40.1228 35.8291C39.9356 36.0536 39.842 36.3422 39.8614 36.6345C39.8808 36.9268 40.0117 37.2003 40.227 37.3978C40.3562 37.5044 40.508 37.58 40.6707 37.6187C40.8334 37.6575 41.0028 37.6584 41.1659 37.6214C40.5542 38.3982 39.9867 39.2091 39.466 40.0502C39.4417 39.8859 39.3812 39.7291 39.2888 39.5913C39.1964 39.4535 39.0745 39.3383 38.932 39.254C38.8038 39.1797 38.6622 39.1316 38.5154 39.1122C38.3686 39.0929 38.2195 39.1029 38.0765 39.1415C37.9335 39.1801 37.7995 39.2467 37.6821 39.3374C37.5648 39.4281 37.4663 39.5411 37.3924 39.67C37.3185 39.799 37.2705 39.9413 37.2513 40.0888C37.2321 40.2364 37.242 40.3863 37.2804 40.53C37.3189 40.6737 37.3851 40.8084 37.4753 40.9264C37.5655 41.0444 37.6779 41.1433 37.8062 41.2176C37.9487 41.2984 38.1072 41.3463 38.2704 41.3579C38.4335 41.3695 38.5972 41.3445 38.7496 41.2847C38.2886 42.1475 37.8771 43.0361 37.517 43.9461C37.4377 43.7271 37.2933 43.5378 37.1034 43.4041C36.9134 43.2703 36.6872 43.1986 36.4553 43.1985C36.2234 43.1984 35.9971 43.27 35.8071 43.4035C35.617 43.5371 35.4725 43.7262 35.393 43.9452C35.3135 44.1642 35.303 44.4024 35.3628 44.6276C35.4226 44.8528 35.5499 45.0541 35.7274 45.2041C35.9048 45.3541 36.1239 45.4456 36.3549 45.4662C36.5859 45.4869 36.8176 45.4355 37.0186 45.3193C36.7118 46.2399 36.4592 47.1778 36.2621 48.1283C36.1441 47.9285 35.968 47.7699 35.7575 47.6738C35.547 47.5778 35.3123 47.5489 35.085 47.5911C34.8577 47.6333 34.6487 47.7446 34.4863 47.9098C34.3238 48.0751 34.2157 48.2865 34.1764 48.5154C34.1372 48.7444 34.1687 48.98 34.2668 49.1904C34.3648 49.4008 34.5247 49.5759 34.7249 49.6921C34.925 49.8083 35.1558 49.8601 35.3861 49.8404C35.6164 49.8207 35.8352 49.7305 36.0129 49.5819C35.8756 50.5456 35.7924 51.5163 35.7637 52.4893C35.6593 52.3634 35.5287 52.262 35.3811 52.1925C35.2334 52.1229 35.0724 52.0868 34.9093 52.0868C34.6107 52.0868 34.3244 52.206 34.1132 52.4182C33.9021 52.6304 33.7835 52.9183 33.7835 53.2184C33.7835 53.5185 33.9021 53.8064 34.1132 54.0186C34.3244 54.2308 34.6107 54.35 34.9093 54.35C35.0724 54.35 35.2334 54.3139 35.3811 54.2443C35.5287 54.1748 35.6593 54.0734 35.7637 53.9475C35.7637 54.3948 35.8038 54.8421 35.8394 55.3162C35.7666 55.3441 35.7051 55.3956 35.6646 55.4624C35.6241 55.5293 35.6068 55.6077 35.6155 55.6855C35.6241 55.7633 35.6582 55.836 35.7125 55.8922C35.7667 55.9485 35.8379 55.985 35.915 55.9961C35.915 56.1794 35.9506 56.3673 35.9773 56.5552V56.8325C35.8532 56.734 35.7096 56.6631 35.5562 56.6246C35.4028 56.586 35.243 56.5807 35.0873 56.6088C34.7929 56.6623 34.5315 56.8305 34.3598 57.0768C34.1881 57.323 34.1201 57.6275 34.1707 57.9239C34.1894 58.0146 34.2178 58.1031 34.2552 58.1878H22.4007V58.9974H22.4808C22.5042 58.9985 22.5271 59.0043 22.5483 59.0144C22.5694 59.0244 22.5884 59.0386 22.6041 59.056C22.6198 59.0735 22.632 59.0939 22.6398 59.1161C22.6477 59.1382 22.6511 59.1617 22.6499 59.1852C22.6511 59.2087 22.6477 59.2322 22.6398 59.2544C22.632 59.2766 22.6198 59.297 22.6041 59.3144C22.5884 59.3319 22.5694 59.346 22.5483 59.3561C22.5271 59.3662 22.5042 59.372 22.4808 59.3731H22.4007V59.892H22.8902L22.6454 60.2498L22.4007 60.6389V63.1393H22.6454V64.329H23.0904C23.166 64.329 23.2384 64.3592 23.2918 64.4129C23.3452 64.4666 23.3752 64.5394 23.3752 64.6153C23.3752 64.6912 23.3452 64.7641 23.2918 64.8177C23.2384 64.8714 23.166 64.9016 23.0904 64.9016H22.4674C22.543 64.9016 22.6154 64.8714 22.6688 64.8177C22.7222 64.7641 22.7522 64.6912 22.7522 64.6153C22.7522 64.5394 22.7222 64.4666 22.6688 64.4129C22.6154 64.3592 22.543 64.329 22.4674 64.329H22.0225V63.1572H21.7466V60.6568L22.2895 59.8741H18.1956L18.7384 60.6568V63.1572H18.4625V64.3469H18.0176C17.942 64.3469 17.8696 64.3771 17.8162 64.4308C17.7628 64.4845 17.7328 64.5573 17.7328 64.6332C17.7328 64.7091 17.7628 64.7819 17.8162 64.8356C17.8696 64.8893 17.942 64.9195 18.0176 64.9195H18.3869L18.6895 65.8364H18.3869L18.3557 65.7604V68.7483H17.8841V65.7648L17.8351 65.6351L17.5548 64.924H4.8993V65.6172H4.19178L4.63677 66.4716V69.0166H16.7627C16.7627 68.8556 16.9318 68.7304 17.1409 68.7304H17.6171C17.4079 68.7304 17.2388 68.8556 17.2388 69.0166C17.2388 69.1777 17.4079 69.2984 17.6171 69.2984H18.0621L18.1644 69.7457H17.9508L17.8974 69.5221H4.8459V69.7457H3.22168L3.72897 70.3809C3.72317 70.5046 3.76316 70.6261 3.84123 70.7219C3.91929 70.8177 4.02991 70.8811 4.15172 70.8997C4.12461 70.9547 4.11038 71.0153 4.11011 71.0766C4.10984 71.138 4.12352 71.1987 4.15014 71.2539C4.17677 71.3092 4.21561 71.3576 4.2637 71.3954C4.31179 71.4332 4.36786 71.4595 4.42761 71.4723C4.42761 71.4723 4.34751 72.1477 4.8726 72.1477V85.5663H8.76625V72.1477H9.1089V70.3585H9.55389V72.1477H9.29579V72.6889H9.52273V73.1004H9.82087V85.5753H16.6915V73.1272H16.9896V72.7157H17.2166V72.1745H16.7716V70.3853H17.2166V72.1745H17.3056V84.9401H17.1854V85.2711H16.9095V85.6021H24.1495C24.1495 84.9401 23.7802 84.9401 23.7802 84.9401V78.5886C24.1362 78.5886 24.1495 78.3202 24.1495 78.0027H23.1572V77.372H23.6022C23.8514 71.5885 28.8575 70.7745 28.8575 70.7745C28.8575 70.7745 33.8681 71.5885 34.1173 77.372H34.5623V78.0027H33.5699C33.5699 78.3202 33.5699 78.5886 33.9393 78.5886V84.9401C33.9393 84.9401 33.5699 84.9401 33.5699 85.6021H40.801V85.2711H40.5251V84.9401H40.3115V84.6091H40.2759V72.1745H40.4806V70.9087C40.6197 70.9764 40.7712 71.0144 40.9256 71.0205V72.1745H40.4806V72.7157H40.7075V73.1272H41.0057V85.6021H45.2153C45.2533 85.6552 45.3038 85.6982 45.3621 85.7273C45.4473 85.7688 45.5442 85.779 45.6361 85.7561C45.7279 85.7332 45.8089 85.6787 45.865 85.6021H47.8763V81.3752L48.8197 79.3803V85.6021H52.8246V78.2308C52.8762 78.1553 52.9195 78.0743 52.9536 77.9893C53.0079 77.8351 53.0285 77.671 53.0139 77.5081C52.9993 77.3452 52.9499 77.1874 52.8691 77.0455C53.1984 77.1528 53.5321 77.2512 53.8703 77.3496L53.679 82.0327H53.1138V85.7855H113.125V86.0941H114.545V82.8244H120.267V86.0941H121.682V72.7962H121.958V72.4205H121.682V72.0269L121.958 71.6556L122.109 71.2799H121.664V67.4064L121.94 67.0307H120.543L120.699 66.655H122.114V66.2837H121.669L121.682 60.6971ZM16.4957 68.4262H9.06438V66.9591H16.4957V68.4262ZM5.69139 72.1745H5.2464V70.3853H5.69139V72.1745ZM6.97296 72.1745H6.52797V70.3853H6.97296V72.1745ZM8.2545 72.1745H7.80951V70.3853H8.2545V72.1745ZM15.5968 75.7528C15.7011 75.9607 15.786 76.1778 15.8505 76.4014H15.045V75.7528H15.5968ZM15.045 75.6589V75.0103H15.0806C15.2561 75.2063 15.4057 75.4243 15.5256 75.6589H15.045ZM15.8816 76.4953C15.9387 76.7084 15.9818 76.9251 16.0107 77.1439H15.045V76.4953H15.8816ZM11.2582 77.9848H10.4083C10.4087 77.7351 10.4235 77.4857 10.4527 77.2378H11.2582V77.9848ZM11.2582 77.1439H10.4661C10.4949 76.9251 10.538 76.7084 10.5951 76.4953H11.2582V77.1439ZM11.2582 76.4014H10.6308C10.6966 76.1776 10.783 75.9605 10.8889 75.7528H11.2626L11.2582 76.4014ZM11.2582 75.6589H10.9333C11.0275 75.4873 11.1362 75.3242 11.2582 75.1713V75.6589ZM11.9969 77.9848H11.3561V77.2467H11.9969V77.9848ZM11.9969 77.1439H11.3561V76.4953H11.9969V77.1439ZM11.9969 76.4014H11.3561V75.7528H11.9969V76.4014ZM11.9969 75.6589H11.3561V75.0595L11.4006 75.0103H11.9969V75.6589ZM11.9969 74.9164H11.494C11.6482 74.7674 11.8167 74.6341 11.9969 74.5183V74.9164ZM12.7355 77.9848H12.0948V77.2467H12.7355V77.9848ZM12.7355 77.1439H12.0948V76.4953H12.7355V77.1439ZM12.7355 76.4014H12.0948V75.7528H12.7355V76.4014ZM12.7355 75.6589H12.0948V75.0103H12.7355V75.6589ZM12.7355 74.9164H12.0948V74.4691C12.2964 74.351 12.5116 74.2579 12.7355 74.1918V74.9164ZM13.4742 77.9848H12.829V77.2467H13.4742V77.9848ZM13.4742 77.1439H12.829V76.4953H13.4742V77.1439ZM13.4742 76.4014H12.829V75.7528H13.4742V76.4014ZM13.4742 75.6589H12.829V75.0103H13.4742V75.6589ZM13.4742 74.9164H12.829V74.1605C12.9633 74.1243 13.1001 74.0989 13.2384 74.0844C13.2384 74.0844 13.3318 74.0844 13.4742 74.1202V74.9164ZM14.2129 77.9848H13.5677V77.2467H14.2129V77.9848ZM14.2129 77.1439H13.5677V76.4953H14.2129V77.1439ZM14.2129 76.4014H13.5677V75.7528H14.2129V76.4014ZM14.2129 75.6589H13.5677V75.0103H14.2129V75.6589ZM14.2129 74.9164H13.5677V74.1605C13.7908 74.2132 14.0073 74.2912 14.2129 74.393V74.9164ZM14.9516 77.9848H14.3064V77.2467H14.9516V77.9848ZM14.9516 77.1439H14.3064V76.4953H14.9516V77.1439ZM14.9516 76.4014H14.3064V75.7528H14.9516V76.4014ZM14.9516 75.6589H14.3064V75.0103H14.9516V75.6589ZM14.9516 74.9164H14.3064V74.4199C14.5405 74.5391 14.7575 74.6896 14.9516 74.8672V74.9164ZM15.045 77.9848V77.2467H16.024C16.0532 77.4947 16.0681 77.7441 16.0685 77.9937L15.045 77.9848ZM15.49 70.3809H15.935V72.17H15.49V70.3809ZM14.204 70.3809H14.649V72.17H14.204V70.3809ZM12.9225 70.3809H13.3674V72.17H12.9225V70.3809ZM11.6409 70.3809H12.0859V72.17H11.6409V70.3809ZM10.3593 70.3809H10.8043V72.17H10.3593V70.3809ZM22.0758 64.8926H22.4363L22.0758 65.8096H21.7555L22.0758 64.8926ZM21.9023 69.285H22.1248L21.9468 70.2064H21.7555L21.9023 69.285ZM20.4561 64.8926H20.8165L20.7186 65.8096H20.4205L20.4561 64.8926ZM20.3404 69.285V70.2064H20.1357V69.285H20.3404ZM20.0067 64.8926L20.0423 65.8096H19.7397L19.6418 64.8926H20.0067ZM18.556 69.285L18.7117 70.2064H18.5115L18.3335 69.285H18.556ZM18.1956 70.0007L18.249 70.2333H18.1956V70.0007ZM19.0321 82.48H18.2445V71.4991H19.0321V82.48ZM18.952 70.2333L18.8186 69.3119H19.041L19.1523 70.2333H18.952ZM19.0455 65.8364L18.8186 64.9195H19.179L19.3525 65.8364H19.0455ZM19.6062 69.3119H19.8287L19.8643 70.2333H19.664L19.6062 69.3119ZM20.6118 82.48H19.8198V71.4991H20.6118V82.48ZM20.7676 70.2333H20.5674L20.6029 69.3119H20.8254L20.7676 70.2333ZM21.2526 64.9195H21.6131L21.3861 65.8364H21.0835L21.2526 64.9195ZM21.3906 69.3119H21.6131L21.484 70.2333H21.3105L21.3906 69.3119ZM22.2005 82.48H21.4084V71.4991H22.2005V82.48ZM22.6098 69.3521L22.5387 69.6607L22.4007 70.2333H22.2005L22.4007 69.3119H22.6232L22.6098 69.3521ZM73.2896 78.7452C73.3547 78.5933 73.4498 78.4564 73.5691 78.3426C73.6885 78.2288 73.8295 78.1405 73.9838 78.0832C74.2271 77.9537 74.4593 77.8041 74.678 77.6359C74.8947 77.8046 75.1255 77.9542 75.3677 78.0832C75.7192 78.2576 76.2577 78.4544 76.2577 79.8231V82.0596H75.1541V80.8027C75.1547 80.7395 75.1428 80.6768 75.1192 80.6182C75.0955 80.5596 75.0605 80.5063 75.0162 80.4614C74.972 80.4165 74.9193 80.3808 74.8612 80.3565C74.8032 80.3321 74.7409 80.3196 74.678 80.3196C74.5696 80.3244 74.4661 80.3666 74.385 80.4391C74.304 80.5116 74.2503 80.61 74.233 80.7177L73.2896 78.7452ZM76.8228 70.1349H76.7739V69.1777C76.7556 68.9464 76.8274 68.7171 76.9741 68.538C77.0516 68.4347 77.1187 68.3238 77.1743 68.2071V67.6614H77.5659L78.1222 68.1086H77.6149V69.3208C77.3791 69.5981 77.0987 69.862 76.8273 70.1214L76.8228 70.1349ZM76.2354 74.3483V76.5848H75.1541V75.3413C75.1541 75.2139 75.1041 75.0918 75.0149 75.0013C74.9257 74.9108 74.8047 74.8594 74.678 74.8582C74.6033 74.8611 74.5303 74.881 74.4644 74.9164C74.2988 74.7579 74.0893 74.6535 73.8636 74.6167C74.5954 74.1561 75.3039 73.659 75.9862 73.1272C76.1746 73.5005 76.2621 73.917 76.2399 74.3349L76.2354 74.3483ZM63.0638 65.1431H63.3263V65.3712C63.3519 65.4186 63.3817 65.4635 63.4153 65.5054C63.4472 65.541 63.4715 65.5828 63.4868 65.6282C63.5021 65.6735 63.508 65.7216 63.5043 65.7693V66.5118H63.3263V66.6371L63.0638 65.1431ZM63.6467 66.5118V65.7693C63.6439 65.7193 63.6529 65.6693 63.673 65.6234C63.6931 65.5775 63.7238 65.5371 63.7624 65.5054C63.7624 65.4746 63.7746 65.445 63.7963 65.4232C63.818 65.4014 63.8474 65.3891 63.8781 65.3891C63.9088 65.3891 63.9382 65.4014 63.9599 65.4232C63.9816 65.445 63.9938 65.4746 63.9938 65.5054C64.033 65.5366 64.064 65.577 64.0842 65.6229C64.1044 65.6689 64.113 65.7192 64.1095 65.7693V66.5118H63.6467ZM84.0539 53.9877C84.0441 53.8995 84.0024 53.818 83.9368 53.7587C83.8712 53.6993 83.7862 53.6662 83.6979 53.6657C83.7466 53.6655 83.7949 53.6747 83.8403 53.6925V53.4241H84.0539C84.0539 53.5986 84.0539 53.7865 84.0539 53.9877ZM83.9649 55.3967L83.8225 55.2446C83.8866 55.2267 83.9459 55.1946 83.996 55.1507C83.9649 55.2223 83.956 55.3028 83.9471 55.3833L83.9649 55.3967ZM83.551 53.4241V53.697C83.4855 53.7247 83.4298 53.7714 83.3909 53.8312C83.3521 53.891 83.3319 53.9611 83.333 54.0325C83.3326 54.0986 83.3503 54.1636 83.384 54.2203C83.4177 54.2771 83.4662 54.3235 83.5243 54.3545C83.4063 54.3604 83.2955 54.4133 83.2162 54.5013C83.1369 54.5894 83.0957 54.7055 83.1016 54.8242C83.1075 54.9428 83.16 55.0542 83.2477 55.1339C83.3353 55.2136 83.4508 55.255 83.5688 55.2491C83.0454 55.8086 82.4619 56.3082 81.8289 56.7386L75.0562 55.5354C75.1675 54.8383 75.2314 54.1344 75.2476 53.4286L83.551 53.4241ZM81.3573 57.0696C80.3239 57.7545 79.3806 58.5675 78.5494 59.4894L74.4377 57.9865C74.6735 57.32 74.8594 56.6367 74.9939 55.9424L81.3573 57.0696ZM77.1743 62.4862L73.3919 60.29C73.736 59.6737 74.0335 59.0323 74.2819 58.3712L78.269 59.8025C78.1177 60.0082 77.9664 60.2185 77.824 60.4421C77.4235 61.0499 77.1986 61.7576 77.1743 62.4862ZM73.7301 69.1687C73.7277 69.1375 73.7277 69.1061 73.7301 69.0748L74.6201 70.1259H73.7301V69.1687ZM73.9126 68.632C73.9482 68.5917 73.9838 68.5604 74.0149 68.5291C74.0076 68.4879 74.0093 68.4456 74.02 68.4051C74.0307 68.3647 74.0502 68.3271 74.0769 68.295C74.1036 68.2629 74.137 68.237 74.1748 68.2193C74.2125 68.2016 74.2536 68.1924 74.2953 68.1924C74.3369 68.1924 74.3781 68.2016 74.4158 68.2193C74.4535 68.237 74.4869 68.2629 74.5137 68.295C74.5404 68.3271 74.5598 68.3647 74.5705 68.4051C74.5812 68.4456 74.583 68.4879 74.5756 68.5291C74.6715 68.6042 74.7476 68.7017 74.7973 68.8133C74.8469 68.9248 74.8686 69.0468 74.8604 69.1687V69.7591L73.9126 68.632ZM76.3689 69.1687V70.1259H75.2431V69.1687C75.2352 69.0473 75.2565 68.9257 75.3053 68.8144C75.3541 68.703 75.429 68.6052 75.5235 68.5291C75.6313 68.4307 75.7269 68.3195 75.8082 68.1981C75.8868 68.3203 75.9811 68.4316 76.0886 68.5291C76.1824 68.6047 76.2569 68.7018 76.3057 68.8124C76.3544 68.9229 76.3761 69.0436 76.3689 69.1642V69.1687ZM74.0995 65.322C73.4721 65.6351 72.8179 65.9214 72.8179 67.2409H72.7512L70.2147 64.1993C70.7466 63.7363 71.2448 63.2355 71.7054 62.7009L74.4866 65.0492C74.3696 65.155 74.2395 65.2452 74.0995 65.3176V65.322ZM71.661 62.1194L62.7167 54.5782L72.8179 60.4421C72.4732 61.0272 72.0865 61.5863 71.661 62.115V62.1194ZM62.9258 54.2114L73.8903 58.237C73.6492 58.8751 73.3637 59.4954 73.036 60.0932L62.9258 54.2114ZM74.5667 55.8574C74.4376 56.5273 74.2591 57.1866 74.0327 57.8299L63.0638 53.8043L74.5667 55.8574ZM63.1394 53.4107H74.8159C74.805 54.0927 74.744 54.7729 74.6335 55.4459L63.1394 53.4107ZM63.1394 52.9903L74.6335 50.9551C74.744 51.6281 74.805 52.3083 74.8159 52.9903H63.1394ZM63.0682 52.5832L74.0372 48.5576C74.2629 49.2011 74.4414 49.8604 74.5712 50.5302L63.0682 52.5832ZM62.9303 52.1896L73.0404 46.3212C73.3682 46.919 73.6536 47.5393 73.8948 48.1775L62.9303 52.1896ZM62.7211 51.8273L71.6654 44.286C72.0911 44.8161 72.4778 45.3767 72.8224 45.9634L62.7211 51.8273ZM71.3895 62.4281C70.9467 62.9462 70.4663 63.4306 69.9522 63.8773L62.4497 54.8823L71.3895 62.4281ZM69.6407 64.1501C69.1126 64.5791 68.5533 64.9679 67.9675 65.3131L62.2494 55.3564L62.1827 55.2133L69.6407 64.1501ZM68.8442 69.3074V68.7035C68.8502 68.7043 68.8563 68.7036 68.862 68.7016C68.8677 68.6996 68.8729 68.6963 68.8772 68.692C68.8815 68.6877 68.8848 68.6825 68.8867 68.6767C68.8887 68.671 68.8894 68.6648 68.8887 68.6588C68.8887 68.6531 68.8876 68.6475 68.8853 68.6423C68.883 68.6371 68.8796 68.6324 68.8754 68.6286C68.8712 68.6248 68.8663 68.622 68.8609 68.6202C68.8555 68.6185 68.8498 68.6179 68.8442 68.6185C68.8518 68.5569 68.8371 68.4945 68.8028 68.4428C68.7685 68.3911 68.7169 68.3534 68.6573 68.3368C68.5966 68.3004 68.5473 68.2477 68.5149 68.1847C68.4849 68.248 68.4369 68.3009 68.3769 68.3368L67.3401 66.1361L67.8118 65.8901L70.3972 70.3853L69.4538 70.609L68.8442 69.3074ZM67.171 65.7648L64.4744 60.0664L67.616 65.5323L67.171 65.7648ZM66.4234 66.1272C66.2098 66.2256 65.9784 66.3061 65.7693 66.3911L65.3243 65.1297H65.4133C65.4452 65.1297 65.4757 65.117 65.4983 65.0943C65.5208 65.0717 65.5335 65.041 65.5335 65.0089C65.5335 64.9765 65.521 64.9453 65.4986 64.9219C65.4761 64.8986 65.4456 64.8848 65.4133 64.8837H65.2353L63.2151 59.3552L66.4234 66.1272ZM64.6435 65.492C64.6827 65.5232 64.7137 65.5635 64.7339 65.6095C64.754 65.6555 64.7627 65.7058 64.7592 65.7559V66.5118H64.3142V65.7693C64.3114 65.7193 64.3204 65.6693 64.3405 65.6234C64.3606 65.5775 64.3913 65.5371 64.4299 65.5054C64.4299 65.4746 64.4421 65.445 64.4638 65.4232C64.4855 65.4014 64.5149 65.3891 64.5456 65.3891C64.5763 65.3891 64.6057 65.4014 64.6274 65.4232C64.6491 65.445 64.6613 65.4746 64.6613 65.5054L64.6435 65.492ZM64.9194 66.5118V65.7693C64.9126 65.6737 64.9429 65.5791 65.0039 65.5054L65.3821 66.5521C65.2843 66.5879 65.1819 66.6147 65.0796 66.646V66.5118H64.9194ZM65.3154 72.3713H65.3644V72.5457H65.5023V72.3713C65.535 72.3702 65.5661 72.3566 65.5892 72.3334C65.6123 72.3101 65.6258 72.2789 65.6269 72.2461C65.6258 72.2136 65.6121 72.1829 65.5889 72.1604C65.5656 72.1379 65.5346 72.1253 65.5023 72.1253H65.2798L65.0751 67.147H65.1374V67.053L65.2531 67.0173V67.147H65.3866V66.9591L65.5023 66.9233L68.2078 74.393V75.3637C67.3023 75.6737 66.3777 75.9247 65.44 76.1151L65.3154 72.3713ZM65.9206 66.7936C66.152 66.7086 66.3656 66.6192 66.6103 66.5163L68.2345 69.9559V71.4007L68.8486 71.2531L69.0355 71.6512L68.2345 71.839V73.1809L65.9206 66.7936ZM68.9243 74.3349C68.9243 72.9617 69.2402 72.7649 69.4493 72.5905L70.366 74.5272C69.8899 74.7419 69.4048 74.9477 68.9109 75.1355L68.9243 74.3349ZM69.6541 71.0429L70.6375 70.8103L70.86 71.1994L69.8409 71.4409L69.6541 71.0429ZM71.879 73.7534L71.5408 73.9368V72.3713L71.879 72.9617V73.7534ZM75.3321 72.5681C74.6249 73.1024 73.8896 73.5981 73.1294 74.0531C73.1402 73.8503 73.173 73.6493 73.2273 73.4537C73.8028 73.0899 74.362 72.7083 74.9049 72.3087C75.0428 72.4024 75.1854 72.489 75.3321 72.5681ZM71.879 71.0384V72.1298L71.5408 71.5393V71.0384L71.2872 71.101L71.0647 70.7119L71.5408 70.6V70.1214L70.8244 70.2914L68.1544 65.6754C68.7606 65.3167 69.3392 64.913 69.8854 64.4677L72.4085 67.4914V67.6479H72.5376L72.9381 68.1265V68.1936C72.9989 68.3114 73.072 68.4224 73.1561 68.5246C73.2341 68.6106 73.2936 68.7117 73.3311 68.8217C73.3686 68.9317 73.3833 69.0483 73.3742 69.1642V70.1214H72.1682V67.8537C72.18 67.8537 72.1914 67.849 72.1997 67.8406C72.208 67.8322 72.2127 67.8208 72.2127 67.809C72.2127 67.7971 72.208 67.7857 72.1997 67.7773C72.1914 67.7689 72.18 67.7642 72.1682 67.7642C72.1738 67.7034 72.1583 67.6425 72.1242 67.5919C72.0901 67.5414 72.0396 67.5042 71.9813 67.4869C71.9813 67.4489 71.9663 67.4125 71.9396 67.3857C71.9129 67.3589 71.8767 67.3438 71.8389 67.3438C71.8012 67.3438 71.765 67.3589 71.7383 67.3857C71.7115 67.4125 71.6965 67.4489 71.6965 67.4869C71.6383 67.5042 71.5878 67.5414 71.5537 67.5919C71.5196 67.6425 71.5041 67.7034 71.5097 67.7642C71.4978 67.7642 71.4865 67.7689 71.4782 67.7773C71.4699 67.7857 71.4652 67.7971 71.4652 67.809C71.4652 67.8208 71.4699 67.8322 71.4782 67.8406C71.4865 67.849 71.4978 67.8537 71.5097 67.8537H71.5942V70.1841L71.9012 70.1214V70.5911H75.0429L75.4122 71.0384H71.879ZM75.5635 70.5911H76.3155C76.1731 70.7208 76.0307 70.8505 75.8705 70.9758L75.5635 70.5911ZM78.2334 66.4358V67.6345L77.3123 66.8607C77.1966 65.8543 76.6137 65.5904 76.053 65.3086C75.6377 65.0643 75.3022 64.7037 75.0873 64.2709C75.0013 64.4285 74.9015 64.5782 74.7892 64.7182L71.9947 62.361C72.4363 61.8108 72.8378 61.2293 73.1961 60.621L77.201 62.9559C77.3132 63.717 77.6694 64.4206 78.2156 64.9597C78.2156 64.9597 78.3758 64.7316 79.9956 64.5795L80.8188 65.0581C80.6275 65.3757 80.4317 65.6933 80.2314 66.0019C78.4292 66.1853 78.2156 66.4447 78.2156 66.4447L78.2334 66.4358ZM80.7521 64.5393L81.1525 64.5169L81.0458 64.7092L80.7521 64.5393ZM83.867 54.3321C83.9113 54.3076 83.9503 54.2744 83.9817 54.2344C84.013 54.1945 84.036 54.1486 84.0494 54.0996C84.0494 54.2159 84.0494 54.3321 84.0494 54.4484C83.993 54.3959 83.924 54.3589 83.8492 54.3411L83.867 54.3321ZM84.0361 52.9903C84.0517 52.9534 84.0608 52.914 84.0628 52.874C84.0628 52.7767 84.0243 52.6834 83.9559 52.6146C83.8875 52.5459 83.7947 52.5072 83.6979 52.5072C83.7466 52.5071 83.7949 52.5162 83.8403 52.534V51.5947C83.8403 51.5947 83.8403 51.4427 83.6934 51.4427C83.5466 51.4427 83.551 51.5947 83.551 51.5947V52.5385C83.4855 52.5662 83.4298 52.6129 83.3909 52.6727C83.3521 52.7325 83.3319 52.8026 83.333 52.874C83.3263 52.9125 83.3263 52.9518 83.333 52.9903H75.2298C75.2136 52.2845 75.1497 51.5806 75.0384 50.8836L83.7335 49.3404C83.9335 50.5469 84.0391 51.7672 84.0494 52.9903H84.0361ZM74.9939 50.4721C74.8594 49.7777 74.6735 49.0944 74.4377 48.4279L82.7189 45.3908C83.1254 46.545 83.4408 47.7295 83.6623 48.9334L74.9939 50.4721ZM74.2641 48.0343C74.0157 47.3732 73.7182 46.7318 73.3742 46.1155L81.0101 41.6828C81.6128 42.7447 82.1306 43.853 82.5587 44.9972L74.2641 48.0343ZM73.165 45.7576C72.8067 45.1494 72.4051 44.5679 71.9635 44.0177L78.714 38.3326C79.487 39.2774 80.1863 40.2809 80.8055 41.3339L73.165 45.7576ZM71.7054 43.7001C71.2448 43.1655 70.7466 42.6647 70.2147 42.2017L75.8839 35.4118C76.8082 36.2067 77.6696 37.0726 78.4604 38.0016L71.7054 43.7001ZM71.3851 43.9685L62.4497 51.5053L69.9477 42.5237C70.463 42.9691 70.9436 43.4536 71.3851 43.9729V43.9685ZM62.1337 51.2369L67.9631 41.0835C68.5489 41.4287 69.1081 41.8174 69.6362 42.2464L62.1337 51.2369ZM61.7733 51.0267L65.7782 40.0055C66.413 40.2479 67.0301 40.5348 67.6249 40.8643L61.7733 51.0267ZM61.3817 50.8836L63.4109 39.3256C64.0772 39.456 64.7331 39.6354 65.3733 39.8624L61.3817 50.8836ZM64.4521 63.9891C64.3509 63.8956 64.2666 63.7851 64.2029 63.6626C64.1166 63.8483 63.9771 64.004 63.8024 64.1099C63.637 64.1589 63.4937 64.2643 63.3971 64.4079C63.3005 64.5516 63.2566 64.7245 63.2729 64.8971H63.0282L61.3817 55.5264L64.4521 63.9891ZM65.7871 76.9605C65.7774 76.9416 65.7627 76.9259 65.7446 76.9148C65.7266 76.9038 65.7059 76.8979 65.6847 76.8979H65.4934V76.5535C66.4234 76.3628 67.3417 76.1178 68.2434 75.8199V76.3074C67.4337 76.5663 66.6108 76.7813 65.7782 76.9515L65.7871 76.9605ZM69.2358 75.9586L69.0756 75.5113C69.5829 75.3189 70.0812 75.1087 70.5707 74.8851L70.7665 75.3055C70.2592 75.5381 69.7475 75.7528 69.2269 75.9496L69.2358 75.9586ZM70.4728 72.756C70.6045 72.9106 70.6935 73.0972 70.7309 73.2972L70.4728 72.756ZM71.5497 74.4154L71.8879 74.2365V74.7598C71.7722 74.818 71.661 74.8851 71.5497 74.9432V74.4154ZM71.8879 75.7036V75.7483V75.7126V75.7036ZM76.4579 71.0473L76.943 70.6H77.388V70.1841L77.6416 69.9291V70.5777C77.4814 70.7342 77.3257 70.8908 77.161 71.025L76.4579 71.0473ZM77.3746 71.9732L77.6282 71.7272V72.009C77.5439 72.0002 77.4589 72.0002 77.3746 72.009V71.9732ZM80.7654 65.993C80.9078 65.7648 81.0502 65.5457 81.1882 65.2997L81.5887 65.5278C81.5041 65.6754 81.4106 65.8185 81.3261 65.9751L80.7654 65.993ZM81.7978 65.17L81.3973 64.9374C81.4774 64.7987 81.5486 64.6556 81.6242 64.5124H82.1582C82.0292 64.7227 81.9135 64.9374 81.7889 65.17H81.7978ZM84.3342 55.7769C84.4206 54.9986 84.4667 54.2162 84.4722 53.4331H84.9172C84.9075 54.3377 84.8481 55.2411 84.7392 56.1392C84.6012 56.0005 84.4633 55.8798 84.3253 55.7769H84.3342ZM84.935 53.0126H84.49C84.4806 51.7656 84.3735 50.5213 84.1696 49.2912L84.6146 49.2107C84.8203 50.4602 84.9304 51.7238 84.9439 52.9903L84.935 53.0126ZM84.53 48.8037L84.085 48.8797C83.8612 47.6526 83.5398 46.4455 83.1238 45.2701L83.5688 45.1135C83.9817 46.3091 84.3001 47.5354 84.5211 48.7813L84.53 48.8037ZM83.4086 44.7199L82.9637 44.8809C82.5266 43.7021 81.9985 42.5595 81.3839 41.4637L81.7845 41.2355C82.4125 42.3451 82.9526 43.5027 83.3998 44.6976L83.4086 44.7199ZM81.5887 40.9045L81.1882 41.1371C80.5582 40.0615 79.8455 39.0371 79.0567 38.0732L79.4127 37.778C80.2148 38.754 80.9394 39.792 81.5797 40.8822L81.5887 40.9045ZM76.449 34.7543C77.406 35.5789 78.2986 36.4761 79.1189 37.4381L78.763 37.7377C77.9582 36.7901 77.0803 35.9077 76.1375 35.0987L76.449 34.7543ZM73.0226 32.2942C74.1167 32.9395 75.1583 33.6709 76.1375 34.4815L75.8394 34.8393C74.8839 34.0439 73.866 33.3274 72.7957 32.6968L73.0226 32.2942ZM75.5724 35.1569L69.9033 41.9333C69.357 41.488 68.7784 41.0843 68.1722 40.7256L72.5865 33.0412C73.6342 33.6636 74.6325 34.3665 75.5724 35.1435V35.1569ZM69.2269 30.4648C70.4127 30.9071 71.5615 31.4441 72.6622 32.0706L72.4308 32.4731C71.3525 31.8561 70.2277 31.3252 69.0667 30.8853L69.2269 30.4648ZM72.2261 32.8489L67.8163 40.5243C67.2031 40.1785 66.565 39.8795 65.9072 39.6298L68.9243 31.2789C70.0641 31.7092 71.1681 32.2297 72.2261 32.8354V32.8489ZM65.1641 29.3377C66.4118 29.5674 67.6394 29.8965 68.8353 30.3217L68.6751 30.769C67.5061 30.3497 66.3051 30.0266 65.084 29.8028L65.1641 29.3377ZM68.5371 31.1492L65.5157 39.4866C64.8519 39.2532 64.1722 39.0678 63.4821 38.932L65.0128 30.2009C66.21 30.4197 67.3884 30.7323 68.5371 31.1358V31.1492ZM60.9723 28.9127C62.2413 28.9227 63.5075 29.0334 64.7592 29.2437L64.6791 29.691C63.4538 29.4859 62.2144 29.3782 60.9723 29.369V28.9127ZM60.9723 29.8073C62.1906 29.8175 63.4061 29.9236 64.6079 30.1249L63.0727 38.8649C62.378 38.7507 61.6761 38.6864 60.9723 38.6726V29.8073ZM60.9723 39.0885C61.6522 39.1033 62.3303 39.1661 63.0015 39.2764L60.9723 50.8299V39.0885ZM60.9723 55.589L62.9303 66.7712C62.9045 66.7942 62.8886 66.8262 62.8858 66.8607C62.8871 66.8846 62.8954 66.9075 62.9096 66.9266C62.9239 66.9457 62.9434 66.9601 62.9659 66.9681L63.0015 67.1604C62.3303 67.2707 61.6522 67.3335 60.9723 67.3482V55.589ZM60.9723 67.7463C61.6762 67.7348 62.3783 67.6705 63.0727 67.554L63.2551 68.5962L63.1127 72.1208H62.8858C62.8539 72.1208 62.8233 72.1335 62.8008 72.1562C62.7783 72.1788 62.7656 72.2096 62.7656 72.2416C62.7656 72.274 62.7781 72.3052 62.8005 72.3286C62.823 72.352 62.8535 72.3657 62.8858 72.3668V72.5413H63.0193V72.3668H63.1216L62.9525 76.5087C62.3073 76.5713 61.6531 76.6071 60.9901 76.6116L60.9723 67.7463ZM60.9723 77.0276C61.5464 77.0276 62.116 76.9963 62.6766 76.9515C62.6606 76.9703 62.6512 76.9939 62.6499 77.0186C62.6499 77.0511 62.6624 77.0823 62.6848 77.1056C62.7073 77.129 62.7378 77.1427 62.7701 77.1439V77.3183H62.8991V77.3988C62.2628 77.457 61.622 77.4883 60.9723 77.4928V77.0276ZM60.5585 28.9396V29.3869C59.3179 29.3963 58.0799 29.5039 56.8562 29.7089L56.7761 29.2616C58.0265 29.0545 59.2912 28.9468 60.5585 28.9396ZM41.78 70.694C41.865 70.6109 41.9357 70.5141 41.9891 70.4077H42.2249V72.1969H41.78V70.694ZM52.2728 72.1745L52.4953 71.7048V72.1745H52.2728ZM51.2137 70.3853V72.1745H50.7687V71.0786L51.1559 70.4077L51.2137 70.3853ZM49.4738 72.1745V70.3853H49.9188V71.6556L49.634 72.1521L49.4738 72.1745ZM45.7226 72.1745L45.6291 72.0985V71.6825L45.7137 71.5796L46.0874 71.8748V72.1745H45.7226ZM38.0643 65.1073C37.9905 65.1321 37.9189 65.1636 37.8507 65.2013C37.8007 65.2319 37.7531 65.2663 37.7083 65.3041V64.9195H38.0732L38.0643 65.1073ZM37.1743 57.5929L37.4725 57.5437C37.4947 57.6645 37.5259 57.7897 37.5481 57.9105H37.1743V57.5929ZM38.9543 55.267V55.0299C38.9543 54.6363 38.5627 53.9654 38.1844 53.4107H46.301C46.3128 54.1168 46.3767 54.821 46.4924 55.5175L38.9543 56.8593V55.9916C39.0424 55.9817 39.1238 55.9395 39.1829 55.8731C39.242 55.8067 39.2747 55.7206 39.2747 55.6315C39.2747 55.5424 39.242 55.4564 39.1829 55.39C39.1238 55.3235 39.0424 55.2813 38.9543 55.2715V55.267ZM37.7884 56.6088V57.0293C37.7528 56.8146 37.7261 56.582 37.695 56.3852C37.7463 56.4431 37.7748 56.5179 37.7751 56.5954L37.7884 56.6088ZM38.2868 56.6088C38.2868 56.4344 38.3758 56.2957 38.487 56.2957C38.5983 56.2957 38.6828 56.4344 38.6828 56.6088V56.9175L38.2868 56.9846V56.6088ZM38.2868 57.4095L38.6828 57.3379V57.9239H38.2868V57.4095ZM39.0388 59.3686C39.0638 59.3692 39.0885 59.3648 39.1117 59.3556C39.1349 59.3465 39.1561 59.3327 39.1739 59.3152C39.1917 59.2977 39.2059 59.2768 39.2155 59.2537C39.2252 59.2306 39.2302 59.2058 39.2302 59.1808C39.2302 59.1557 39.2252 59.1309 39.2155 59.1078C39.2059 59.0847 39.1917 59.0638 39.1739 59.0463C39.1561 59.0288 39.1349 59.0151 39.1117 59.0059C39.0885 58.9967 39.0638 58.9923 39.0388 58.9929H38.9543V57.2932L46.5547 55.9513C46.6898 56.6451 46.8742 57.3282 47.1065 57.9954L38.9543 60.9789V60.6792L39.4972 59.8964H38.447C38.398 59.7264 38.3446 59.552 38.3001 59.3776L39.0388 59.3686ZM54.3643 65.7783L53.9193 65.5457L54.4176 64.6735L54.3731 65.7559L54.3643 65.7783ZM52.4107 63.5418L54.7647 60.7239V61.6408H54.5289V61.9182H54.1062C54.0637 61.9182 54.0229 61.9351 53.9929 61.9653C53.9628 61.9955 53.946 62.0365 53.946 62.0792C53.946 62.1219 53.9628 62.1628 53.9929 62.193C54.0229 62.2232 54.0637 62.2402 54.1062 62.2402V62.4728H54.2841V62.2402H54.4399V62.4728H54.5155L54.4621 63.7789L53.5722 65.3265C53.0427 65.0097 52.5343 64.6586 52.0503 64.2754H52.6955V63.5418H52.4107ZM56.5981 61.0504V60.8805L57.0431 60.0798L56.5981 61.0504ZM56.3444 60.4868L55.7704 61.4888V60.6523C55.7654 60.5862 55.7766 60.5198 55.803 60.459C55.8294 60.3982 55.8701 60.3448 55.9217 60.3035C55.9797 60.2508 56.0306 60.1906 56.073 60.1245C56.1172 60.1892 56.1679 60.2491 56.2243 60.3035C56.2787 60.3493 56.3214 60.4076 56.3489 60.4734L56.3444 60.4868ZM55.2542 60.138C55.2994 60.2032 55.3516 60.2632 55.41 60.3169C55.4607 60.359 55.5008 60.4125 55.5271 60.4731C55.5534 60.5337 55.5651 60.5997 55.5612 60.6658V61.6408H54.9516V60.6523C54.9468 60.5747 54.9638 60.4972 55.0006 60.4287L55.1074 60.3035C55.165 60.2503 55.2158 60.1902 55.2587 60.1245L55.2542 60.138ZM49.8254 62.7099C50.0701 62.9961 50.3326 63.2734 50.5996 63.5418H48.8197L49.8254 62.7099ZM48.1967 63.5418H43.3864L48.3569 60.6568C48.7137 61.265 49.1137 61.8465 49.5539 62.3968L48.1967 63.5418ZM48.7084 60.4511L58.8141 54.5871L49.8699 62.1284C49.4452 61.5928 49.0586 61.0279 48.7129 60.4376L48.7084 60.4511ZM48.4949 60.0932C48.1671 59.4954 47.8816 58.8751 47.6405 58.237L58.605 54.2114L48.4949 60.0932ZM47.4981 57.8568C47.2717 57.2135 47.0933 56.5541 46.9641 55.8842L58.4626 53.8446L47.4981 57.8568ZM48.1344 60.3124L42.5542 63.5552H39.8843C39.5461 62.8619 39.2346 62.1552 38.9632 61.4306L47.2578 58.3935C47.5063 59.0445 47.8008 59.6767 48.1388 60.2856L48.1344 60.3124ZM40.2581 64.007C40.3377 64.0021 40.4159 64.0289 40.4759 64.0817C40.5359 64.1344 40.5728 64.2089 40.5785 64.2888H41.286L40.4984 64.7361C40.3604 64.4945 40.2314 64.2441 40.1023 63.9981L40.2581 64.007ZM40.9879 64.9463L42.1137 64.2888H47.3245L46.5458 64.9463H40.9879ZM44.1384 66.9591L42.8034 68.0863C42.5008 67.7195 42.216 67.3438 41.9401 66.9591H44.1384ZM47.9742 64.2754H51.2627L50.7153 64.9329H47.1955L47.9742 64.2754ZM51.632 64.4811C51.8234 64.6422 52.0236 64.7853 52.2283 64.9284H51.2582L51.632 64.4811ZM52.9047 65.3757C53.0337 65.4607 53.1583 65.5457 53.2918 65.6262H52.9047V65.3757ZM53.7146 65.8901C53.8703 65.9751 54.0305 66.0556 54.1907 66.1361L53.1761 68.301V66.8473L53.7146 65.8901ZM56.1665 61.623L56.3845 61.2428V61.4977L56.3266 61.623H56.1665ZM56.8428 62.4639H56.9096V62.3073L56.9452 62.2313H57.0653V62.4639H57.181L56.8651 63.3316L56.8428 62.4639ZM57.2433 62.2223H57.2789L57.2522 62.2984V62.2313L57.2433 62.2223ZM57.3724 61.9674C57.3576 61.9468 57.3383 61.9299 57.3158 61.9183C57.2934 61.9066 57.2686 61.9004 57.2433 61.9003H57.1098L58.3202 59.3418L57.3724 61.9674ZM56.9274 59.4983C56.9496 59.3309 56.9242 59.1605 56.8541 59.0069C56.784 58.8534 56.6721 58.7229 56.5313 58.6306L59.3882 55.2133L59.3214 55.352L56.9274 59.4983ZM56.1575 58.4204C55.9697 58.286 55.8171 58.108 55.7126 57.9015C55.5955 58.1354 55.413 58.3297 55.1875 58.4606C54.97 58.5259 54.7819 58.6651 54.6553 58.8544C54.5287 59.0437 54.4714 59.2713 54.4933 59.4983H54.1462C54.1033 59.4995 54.0625 59.5175 54.0326 59.5484C54.0027 59.5793 53.986 59.6207 53.986 59.6638C53.986 59.7065 54.0029 59.7475 54.0329 59.7777C54.063 59.8079 54.1037 59.8248 54.1462 59.8248H54.5689V60.1201C54.5934 60.1632 54.6202 60.205 54.649 60.2453L51.9124 63.5239H51.2137C50.8378 63.1773 50.4812 62.8099 50.1457 62.4236L59.0856 54.8823L56.1575 58.4204ZM48.7351 45.9589C49.0828 45.3732 49.4708 44.8127 49.8965 44.2816L58.8408 51.8229L48.7351 45.9589ZM58.6094 52.1986L47.6449 48.173C47.886 47.5349 48.1715 46.9146 48.4993 46.3167L58.6094 52.1986ZM58.467 52.5922L46.9685 50.5526C47.0977 49.8827 47.2762 49.2233 47.5025 48.58L58.467 52.5922ZM58.4003 52.9992H46.7193C46.7317 52.3171 46.7942 51.6369 46.9062 50.9641L58.4003 52.9992ZM58.4003 53.4197L46.9062 55.4548C46.7942 54.782 46.7317 54.1018 46.7193 53.4197H58.4003ZM38.9587 63.1572V62.5175C39.2302 63.1572 39.5328 63.7789 39.8487 64.3917C39.7999 64.3634 39.7448 64.348 39.6885 64.3469H39.2969L39.2257 64.1993V63.1572H38.9587ZM39.6974 64.9195C39.7703 64.921 39.8414 64.8967 39.8983 64.8509C39.9552 64.8052 39.9944 64.7408 40.0089 64.669C40.0534 64.754 40.0979 64.8434 40.1469 64.9284L39.7464 65.161C39.7019 65.0805 39.6618 64.9955 39.6173 64.9195H39.6974ZM39.9555 65.5188L40.0401 65.4696L39.9911 65.5859C40 65.5636 39.9644 65.5412 39.9555 65.5188ZM41.958 68.4262C41.7355 68.1489 41.513 67.8626 41.3083 67.5764V66.9591H41.4284C41.7637 67.4392 42.1152 67.9044 42.483 68.3546L42.3896 68.4307L41.958 68.4262ZM43.0749 68.3949L44.7836 66.9546H48.744V67.2812L47.7829 68.4262H43.1149L43.0749 68.3949ZM48.744 67.9476V68.4441H48.3258L48.744 67.9476ZM47.2845 69.048L46.8395 69.5668H44.1206C43.9515 69.3968 43.7869 69.2224 43.6222 69.048H47.2845ZM44.3297 70.9847V70.4122H44.4009L44.7881 70.7745V71.3962C44.6323 71.2531 44.4766 71.1189 44.3297 70.9847ZM45.6113 70.4122H46.0563V70.4882L45.6514 70.9847L45.6113 70.9489V70.4122ZM47.3512 72.2013H47.151L46.8929 72.009V70.4345H47.3379L47.3512 72.2013ZM46.0697 71.3694L45.9629 71.2844L46.0697 71.1592V71.3694ZM47.8496 69.0569H51.4585L51.1603 69.5758H47.4135L47.8496 69.0569ZM51.9391 69.0569H52.829L52.5843 69.5758H51.6142L51.9391 69.0569ZM54.3153 67.8939L54.2708 69.0256H53.9727C53.9302 69.0256 53.8894 69.0425 53.8594 69.0727C53.8293 69.1029 53.8124 69.1439 53.8124 69.1866C53.8124 69.2293 53.8293 69.2703 53.8594 69.3005C53.8894 69.3307 53.9302 69.3476 53.9727 69.3476H53.9504V69.5802H54.1239V69.3476H54.2574V69.7949H53.4298L54.3153 67.8939ZM57.1454 69.3476H57.2522V69.5802H57.4302V69.3476C57.4727 69.3476 57.5134 69.3307 57.5435 69.3005C57.5735 69.2703 57.5904 69.2293 57.5904 69.1866C57.5904 69.1439 57.5735 69.1029 57.5435 69.0727C57.5134 69.0425 57.4727 69.0256 57.4302 69.0256H57.1365L57.0653 67.2722C57.3991 67.3617 57.7373 67.4422 58.0799 67.5093L57.2611 72.1566L57.1454 69.3476ZM57.0431 66.8294L56.9452 64.4498L60.1713 55.5398L58.1467 67.0978C57.7506 66.9994 57.3813 66.9099 57.0208 66.8026L57.0431 66.8294ZM59.7842 51.058L53.946 40.8956C54.5399 40.5645 55.1571 40.2775 55.7926 40.0368L59.7842 51.058ZM56.1798 39.8758C56.8215 39.6488 57.4789 39.4694 58.1467 39.339L60.1713 50.897L56.1798 39.8758ZM59.4238 51.2503L51.9212 42.2598C52.4486 41.8319 53.0063 41.4432 53.5899 41.0969L59.4238 51.2503ZM59.1078 51.5187L50.1457 43.9729C50.5897 43.4559 51.07 42.9716 51.5831 42.5237L59.1078 51.5187ZM49.8298 43.7001L43.0749 38.0016C43.8645 37.0715 44.726 36.2055 45.6514 35.4118L51.3205 42.2017C50.7876 42.6636 50.2893 43.1644 49.8298 43.7001ZM49.5584 44.0132C49.1153 44.5623 48.7137 45.1439 48.3569 45.7531L40.712 41.3161C41.3312 40.263 42.0304 39.2595 42.8034 38.3147L49.5584 44.0132ZM48.1388 46.111C47.7966 46.7282 47.4991 47.3695 47.2489 48.0298L38.9543 44.9928C39.3809 43.8486 39.8972 42.7403 40.4984 41.6784L48.1388 46.111ZM47.1198 48.4279C46.8876 49.0952 46.7032 49.7783 46.568 50.4721L37.8819 48.9334C38.1012 47.729 38.4167 46.5443 38.8252 45.3908L47.1198 48.4279ZM46.5057 50.8836C46.3901 51.5801 46.3261 52.2842 46.3144 52.9903H37.9041C37.7128 52.7353 37.557 52.543 37.5081 52.4759C37.5388 51.4266 37.6399 50.3805 37.8107 49.3449L46.5057 50.8836ZM37.4013 57.1456L37.1743 57.1858V56.6088C37.1747 56.5631 37.1852 56.5181 37.2052 56.477C37.2253 56.436 37.2542 56.4 37.29 56.3718C37.3301 56.6178 37.3301 56.8772 37.3924 57.1188L37.4013 57.1456ZM37.8819 59.382C37.9264 59.5565 37.9798 59.7309 38.0287 59.9009H37.5481C37.4992 59.7309 37.4502 59.5565 37.4057 59.382H37.8819ZM37.2633 64.9463L37.3034 65.8632H37.0008L36.9029 64.9463H37.2633ZM37.6015 69.3387V70.2601H37.4013V69.3387H37.6015ZM38.5226 64.9463H38.665C38.7006 65.0134 38.7362 65.0894 38.7718 65.161C38.6783 65.1276 38.5813 65.1051 38.4826 65.0939L38.5226 64.9463ZM39.1634 69.3387H39.3859L39.2079 70.2601H39.0077L39.1634 69.3387ZM39.3637 68.7706V66.7757C39.4311 66.6579 39.4777 66.5293 39.5016 66.3955C39.6396 66.6192 39.7909 66.8428 39.9466 67.053V68.7483L39.3637 68.7706ZM40.6986 68.7706C40.7601 68.7715 40.8207 68.7853 40.8766 68.8109C40.7336 68.8205 40.5941 68.8601 40.4672 68.9272C40.4272 68.8761 40.3757 68.8352 40.3169 68.808C40.2581 68.7808 40.1937 68.768 40.129 68.7706H40.6986ZM42.4786 69.0569H43.0971C43.2529 69.2313 43.4086 69.4058 43.5733 69.5758H42.9414C42.7678 69.3789 42.6121 69.1956 42.4608 69.0301L42.4786 69.0569ZM43.0615 70.9176C43.2128 71.0697 43.3686 71.2128 43.5065 71.3649V72.2058H43.0615V70.9176ZM47.2622 77.1797H46.4657V76.5311H47.102L47.1376 76.5624C47.1867 76.761 47.2224 76.9628 47.2444 77.1662L47.2622 77.1797ZM46.746 75.6947H46.4657V75.2071C46.5723 75.3348 46.6661 75.4726 46.746 75.6186V75.6947ZM46.746 75.7886C46.7644 76.0278 46.8579 76.2549 47.013 76.4372H46.4657V75.7886H46.746ZM45.727 77.1797V76.5311H46.3722V77.1797H45.727ZM46.3722 77.2736V78.0206H45.727V77.2467L46.3722 77.2736ZM45.727 76.4372V75.7886H46.3722V76.4372H45.727ZM45.727 75.6947V75.0461H46.3277L46.3722 75.0953V75.6947H45.727ZM45.727 74.9522V74.563C45.9095 74.6776 46.0795 74.811 46.2343 74.9611L45.727 74.9522ZM44.9928 75.6947V75.0461H45.6335V75.6947H44.9928ZM45.6335 75.7886V76.4372H44.9928V75.7886H45.6335ZM44.9928 74.9522V74.2231C45.2167 74.2892 45.4319 74.3823 45.6335 74.5004V74.9477L44.9928 74.9522ZM44.9928 76.5311H45.6335V77.1797H44.9928V76.5311ZM46.4657 78.0206V77.2467H47.2711C47.3041 77.4944 47.3205 77.7439 47.3201 77.9937L46.4657 78.0206ZM47.9075 73.2212C48.1834 73.4001 48.4592 73.5745 48.7396 73.7445L48.5126 74.1426C48.3079 74.0218 48.1077 73.8966 47.9075 73.7713V73.2212ZM48.2011 72.9215V72.7381H48.4548V72.1969H48.1967V70.4077H48.6417V72.1969H48.8597V73.3196L48.2011 72.9215ZM52.0192 70.4301H52.1749L52.0192 70.7566V70.4301ZM52.8646 72.2192C53.3719 72.2192 53.3096 71.5438 53.3096 71.5438C53.3694 71.5313 53.4256 71.5051 53.4737 71.4672C53.5218 71.4293 53.5604 71.3807 53.5867 71.3253C53.613 71.2698 53.6262 71.209 53.6252 71.1476C53.6242 71.0862 53.6091 71.0259 53.5811 70.9713C53.7069 70.9578 53.8229 70.8966 53.9056 70.8003C53.9882 70.7039 54.0313 70.5795 54.0261 70.4524L54.2352 70.1885L54.2085 70.8416L52.9002 74.4512L52.8646 72.2192ZM54.1195 72.2192L53.9949 75.3234H53.7947C53.7522 75.3234 53.7114 75.3404 53.6814 75.3706C53.6513 75.4008 53.6345 75.4417 53.6345 75.4844C53.6324 75.5008 53.6324 75.5173 53.6345 75.5336L52.9848 75.3145L54.1195 72.2192ZM57.4257 76.7995C58.4579 76.9459 59.4984 77.025 60.5407 77.0365V77.4838C59.4984 77.4744 58.4579 77.3967 57.4257 77.2512V76.7995ZM57.4257 76.3745L57.3946 75.6142H57.4569V75.8423H57.6349V75.6142C57.6774 75.6142 57.7181 75.5972 57.7482 75.567C57.7782 75.5368 57.7951 75.4958 57.7951 75.4531C57.7951 75.4104 57.7782 75.3695 57.7482 75.3393C57.7181 75.3091 57.6774 75.2921 57.6349 75.2921H57.3546L57.3056 74.0934L58.4537 67.563C59.1466 67.6792 59.8472 67.7435 60.5496 67.7553V76.6205C59.4975 76.6034 58.4478 76.5137 57.408 76.3522L57.4257 76.3745ZM58.5516 67.1514L60.5763 55.598V67.3393C59.8915 67.3195 59.2089 67.2507 58.5338 67.1336L58.5516 67.1514ZM58.5516 39.2854C59.2213 39.175 59.8978 39.1122 60.5763 39.0975V50.8388L58.5516 39.2854ZM58.4804 38.8738L56.9096 30.1159C58.1098 29.9147 59.3239 29.8085 60.5407 29.7984V38.6636C59.8443 38.6785 59.1499 38.7428 58.4626 38.856L58.4804 38.8738ZM58.071 38.9365C57.3808 39.0723 56.7012 39.2576 56.0374 39.4911L53.0159 31.1537C54.1628 30.7456 55.3396 30.4286 56.5358 30.2054L58.071 38.9365ZM56.3845 29.3377L56.4646 29.7849C55.2438 30.0099 54.0429 30.333 52.8735 30.7511L52.7178 30.3038C53.9072 29.8821 55.1271 29.5531 56.3667 29.3198L56.3845 29.3377ZM55.6458 39.6253C54.987 39.8758 54.3474 40.1748 53.7323 40.5199L49.327 32.8444C50.3825 32.2369 51.4852 31.7163 52.6243 31.2878L55.6458 39.6253ZM52.3262 30.4559L52.4819 30.9032C51.3213 31.344 50.1965 31.8748 49.1178 32.491L48.8864 32.0885C49.9823 31.4529 51.1266 30.9055 52.3084 30.4514L52.3262 30.4559ZM48.9665 33.0457L53.3497 40.7256C52.7435 41.0843 52.1649 41.488 51.6187 41.9333L45.9629 35.1435C46.902 34.3654 47.9004 33.6625 48.9487 33.0412L48.9665 33.0457ZM48.5215 32.2853L48.7485 32.6878C47.6805 33.3205 46.663 34.0354 45.7048 34.8259L45.4111 34.4725C46.3859 33.661 47.423 32.9281 48.5126 32.2808L48.5215 32.2853ZM45.0951 34.7454L45.3933 35.1032C44.4502 35.9133 43.5709 36.7956 42.7634 37.7422L42.4118 37.4425C43.2335 36.4789 44.1276 35.5802 45.0862 34.7543L45.0951 34.7454ZM42.1404 37.7601L42.4919 38.0553C41.7045 39.0203 40.9919 40.0446 40.3604 41.1192L39.9644 40.8866C40.6035 39.7872 41.3281 38.7402 42.1315 37.7556L42.1404 37.7601ZM39.7553 41.2489L40.1557 41.4771C39.5427 42.5629 39.0145 43.695 38.576 44.863L38.131 44.702C38.5766 43.5079 39.1168 42.3517 39.7464 41.2445L39.7553 41.2489ZM38.002 45.0956L38.447 45.2522C38.0351 46.4289 37.7138 47.6356 37.4858 48.8618L37.0408 48.7813C37.261 47.5279 37.5794 46.2941 37.9931 45.0912L38.002 45.0956ZM36.9474 49.1928L37.3924 49.2733C37.1892 50.5036 37.0806 51.7477 37.0675 52.9948H36.6225C36.628 51.7196 36.7337 50.4468 36.9385 49.1883L36.9474 49.1928ZM36.7827 53.4152L36.6225 53.6523C36.6225 53.5718 36.6225 53.4957 36.6225 53.4152H36.7827ZM23.6467 68.7483H23.1705V65.8409H23.6467V68.7483ZM25.2041 68.7483H24.7235V65.8409H25.2041V68.7483ZM26.7616 68.7483H26.281V65.8409H26.7616V68.7483ZM28.3146 68.7483H27.8385V65.8409H28.3146V68.7483ZM29.8721 68.7483H29.3915V65.8409H29.8721V68.7483ZM31.4295 68.7483H30.9489V65.8409H31.4295V68.7483ZM32.9825 68.7483H32.5064V65.8409H32.9825V68.7483ZM33.7702 63.8952H23.9448V61.1801H33.7702V63.8952ZM34.54 68.7483H34.0638V65.8409H34.54V68.7483ZM34.3531 64.6377C34.3543 64.5613 34.3853 64.4885 34.4394 64.435C34.4935 64.3814 34.5664 64.3514 34.6423 64.3514H35.0606V63.1572H35.3098V60.6568L35.0651 60.2677L34.8292 59.8741H35.3098V59.3552H35.2297C35.2064 59.3541 35.1834 59.3483 35.1622 59.3382C35.1411 59.3282 35.1221 59.314 35.1064 59.2965C35.0907 59.2791 35.0786 59.2587 35.0707 59.2365C35.0629 59.2144 35.0594 59.1908 35.0606 59.1673C35.0594 59.1438 35.0629 59.1203 35.0707 59.0982C35.0786 59.076 35.0907 59.0556 35.1064 59.0381C35.1221 59.0207 35.1411 59.0065 35.1622 58.9965C35.1834 58.9864 35.2064 58.9806 35.2297 58.9795H35.3098V58.8408C35.3809 58.8475 35.4524 58.8475 35.5234 58.8408C35.6986 58.8069 35.8633 58.7318 36.004 58.6216V58.9929H35.915C35.8654 58.9929 35.8179 59.0127 35.7829 59.0479C35.7478 59.0832 35.7281 59.1309 35.7281 59.1808C35.7281 59.2306 35.7478 59.2784 35.7829 59.3136C35.8179 59.3488 35.8654 59.3686 35.915 59.3686H36.5424L36.676 59.8875H35.4611L36.004 60.6702V61.0817C35.8141 61.1746 35.6541 61.3192 35.5421 61.4992C35.4301 61.6791 35.3708 61.8871 35.3708 62.0993C35.3708 62.3116 35.4301 62.5195 35.5421 62.6995C35.6541 62.8794 35.8141 63.024 36.004 63.1169V63.1706H35.7281V64.3604H35.2831C35.2457 64.3604 35.2087 64.3678 35.1741 64.3821C35.1396 64.3965 35.1082 64.4176 35.0817 64.4442C35.0553 64.4708 35.0343 64.5023 35.02 64.5371C35.0057 64.5718 34.9983 64.609 34.9983 64.6466C34.9983 64.6842 35.0057 64.7214 35.02 64.7562C35.0343 64.7909 35.0553 64.8225 35.0817 64.8491C35.1082 64.8756 35.1396 64.8967 35.1741 64.9111C35.2087 64.9255 35.2457 64.9329 35.2831 64.9329H34.6601C34.6199 64.9354 34.5796 64.9294 34.5418 64.9154C34.504 64.9013 34.4696 64.8795 34.4407 64.8513C34.4118 64.8231 34.3891 64.7891 34.374 64.7515C34.3589 64.714 34.3518 64.6737 34.3531 64.6332V64.6377ZM35.8082 69.3163L35.964 70.2377H35.7593L35.5857 69.3163H35.8082ZM35.2698 64.924H35.6347L35.9373 65.8409H35.6347L35.2698 64.924ZM35.3098 70.2377L35.1719 69.6652L35.0962 69.3566V69.3163H35.3187L35.519 70.2377H35.3187H35.3098ZM36.2977 82.4845H35.5056V71.4991H36.2977V82.4845ZM36.2131 70.2377L36.0841 69.3163H36.3066L36.4134 70.2377H36.2131ZM36.3111 65.8409L36.0841 64.924H36.4401L36.6092 65.8409H36.3111ZM36.8717 69.3163H37.0942L37.1298 70.2377H36.9251L36.8717 69.3163ZM37.8774 82.4845H37.0853V71.4991H37.8774V82.4845ZM38.0332 70.2377H37.8329L37.8685 69.3163H38.091L38.0332 70.2377ZM38.6561 69.3163H38.8786L38.7451 70.2377H38.5449L38.6561 69.3163ZM39.4527 72.179V82.4666H38.665V71.4991H39.4527V72.179ZM39.5016 70.2377H39.4482L39.5016 70.0051V70.2377ZM39.7641 69.7904H39.555L39.6574 69.3432H40C39.9545 69.4173 39.9186 69.4969 39.8932 69.5802H39.8042L39.7641 69.7904ZM42.6699 78.0071H41.642C41.642 77.7388 41.6643 77.4928 41.691 77.2602H42.6699V78.0071ZM42.6699 77.1662H41.7043C41.7332 76.9474 41.7762 76.7308 41.8334 76.5177H42.6699V77.1662ZM42.6699 76.4237H41.8645C41.929 76.2001 42.0139 75.983 42.1182 75.7752H42.6699V76.4237ZM42.6699 75.6812H42.1716C42.2915 75.4467 42.4411 75.2287 42.6165 75.0327H42.6699V75.6812ZM43.4086 78.0071H42.7589V77.2467H43.4042L43.4086 78.0071ZM43.4086 77.1662H42.7589V76.5177H43.4042L43.4086 77.1662ZM43.4086 76.4237H42.7589V75.7752H43.4042L43.4086 76.4237ZM43.4086 75.6812H42.7589V75.0327H43.4042L43.4086 75.6812ZM43.4086 74.9387H42.7589V74.9074C42.953 74.7298 43.17 74.5794 43.4042 74.4601L43.4086 74.9387ZM44.1473 78.0071H43.5021V77.2467H44.1473V78.0071ZM44.1473 77.1662H43.5021V76.5177H44.1473V77.1662ZM44.1473 76.4237H43.5021V75.7752H44.1473V76.4237ZM44.1473 75.6812H43.5021V75.0327H44.1473V75.6812ZM43.5021 74.9387V74.393C43.6598 74.3169 43.8235 74.2541 43.9915 74.2052C44.0434 74.2098 44.0955 74.2098 44.1473 74.2052V74.9253L43.5021 74.9387ZM44.8815 78.0071H44.2408V77.2467H44.8949L44.8815 78.0071ZM44.8815 77.1662H44.2408V76.5177H44.8949L44.8815 77.1662ZM44.8815 76.4237H44.2408V75.7752H44.8949L44.8815 76.4237ZM44.8815 75.6812H44.2408V75.0327H44.8949L44.8815 75.6812ZM44.8815 74.9387H44.2408V74.2186C44.3716 74.2118 44.5 74.1799 44.619 74.1247C44.6857 74.1247 44.7747 74.1515 44.8815 74.1828V74.9387ZM44.9794 78.0071V77.2467H45.6202V77.9937L44.9794 78.0071ZM47.9119 79.434V76.7995C48.1003 76.7913 48.2835 76.7354 48.4446 76.6368C48.6057 76.5383 48.7393 76.4003 48.833 76.2359C48.8323 76.2195 48.8323 76.2031 48.833 76.1867V77.4257L47.9119 79.434ZM52.8691 76.1509V75.6589C53.234 75.7886 53.5989 75.9049 53.9682 76.0167V76.4953C53.5811 76.388 53.2206 76.2717 52.8646 76.1509H52.8691ZM58.1199 82.0327H57.6438L57.4836 78.0966C58.3339 78.2099 59.1894 78.2801 60.0467 78.3068C59.9209 78.4115 59.8194 78.5427 59.7494 78.691C59.6795 78.8394 59.6427 79.0014 59.6418 79.1656C59.6321 79.3205 59.6541 79.4757 59.7064 79.6218C59.7587 79.7678 59.8402 79.9015 59.9459 80.0146C60.0516 80.1278 60.1793 80.2179 60.321 80.2796C60.4627 80.3412 60.6154 80.373 60.7698 80.373C60.9242 80.373 61.077 80.3412 61.2187 80.2796C61.3604 80.2179 61.488 80.1278 61.5937 80.0146C61.6994 79.9015 61.781 79.7678 61.8333 79.6218C61.8856 79.4757 61.9076 79.3205 61.8979 79.1656C61.8978 79.0017 61.8619 78.8398 61.7927 78.6914C61.7235 78.543 61.6227 78.4117 61.4974 78.3068C61.9424 78.3068 62.4141 78.2666 62.868 78.2263L62.6944 82.0327H58.1199ZM65.6847 82.0327L65.5958 79.8455C65.8019 79.78 65.9846 79.6558 66.1218 79.4879C66.2591 79.32 66.3449 79.1158 66.3689 78.8998C66.393 78.6839 66.3541 78.4656 66.2572 78.2714C66.1602 78.0773 66.0093 77.9155 65.8227 77.8059C66.6297 77.6343 67.4273 77.4208 68.2123 77.1662V82.0327H65.6847ZM70.8066 82.0327H68.9243V79.7963C68.9095 79.3873 68.9575 78.9784 69.0667 78.5841C69.2059 78.6603 69.3597 78.7057 69.5178 78.7173C69.6759 78.7289 69.8346 78.7064 69.9833 78.6512C70.1922 78.5776 70.3737 78.4419 70.504 78.2621C70.6642 78.4678 70.811 78.857 70.811 79.7963L70.8066 82.0327ZM70.0056 76.5535H69.9833C70.2592 76.4416 70.5351 76.3164 70.8066 76.1956V76.5624L70.0056 76.5535ZM71.5319 82.0327V76.9605L71.8701 77.6806V82.0327H71.5319ZM73.1116 80.3107L73.9259 82.0327H73.1116V80.3107ZM77.3791 82.0327V74.2186C77.4644 74.2208 77.5497 74.2118 77.6327 74.1918V82.0327H77.3791ZM84.5434 82.0327H82.8391V79.7963C82.8306 79.6786 82.8463 79.5604 82.8853 79.4491C82.9243 79.3378 82.9857 79.2358 83.0657 79.1494C83.1456 79.063 83.2424 78.9941 83.3501 78.947C83.4577 78.8999 83.5738 78.8756 83.6912 78.8756C83.8086 78.8756 83.9247 78.8999 84.0324 78.947C84.14 78.9941 84.2368 79.063 84.3168 79.1494C84.3967 79.2358 84.4581 79.3378 84.4971 79.4491C84.5361 79.5604 84.5518 79.6786 84.5434 79.7963V82.0327ZM84.5434 76.7592H82.8391V75.386C82.8546 75.1695 82.9512 74.967 83.1093 74.8192C83.2674 74.6714 83.4753 74.5892 83.6912 74.5892C83.9071 74.5892 84.1151 74.6714 84.2732 74.8192C84.4313 74.967 84.5278 75.1695 84.5434 75.386V76.7592ZM87.814 82.0327H87.1688V75.5963C87.1688 72.4652 84.4277 72.7694 83.7024 71.4857C82.9726 72.7694 80.2314 72.4652 80.2314 75.5963V82.0327H79.5773V70.4032C79.6406 70.5461 79.7349 70.6729 79.8532 70.7745C79.9667 70.8702 80.098 70.9424 80.2393 70.987C80.3807 71.0316 80.5295 71.0478 80.6771 71.0345C80.8246 71.0212 80.9682 70.9787 81.0994 70.9095C81.2306 70.8404 81.347 70.7458 81.4418 70.6313C81.5615 70.4889 81.6427 70.318 81.6776 70.1349H87.8229L87.814 82.0327ZM94.2441 82.0327H93.1672V80.7759C93.1737 80.7088 93.1661 80.6412 93.145 80.5772C93.1239 80.5133 93.0897 80.4545 93.0447 80.4047C92.9996 80.3548 92.9447 80.315 92.8834 80.2877C92.8222 80.2604 92.7559 80.2464 92.6889 80.2464C92.6219 80.2464 92.5556 80.2604 92.4944 80.2877C92.4331 80.315 92.3782 80.3548 92.3331 80.4047C92.2881 80.4545 92.2539 80.5133 92.2328 80.5772C92.2117 80.6412 92.2041 80.7088 92.2105 80.7759V82.0327H91.1292V79.7963C91.1292 78.4276 91.6454 78.2308 92.0192 78.0563C92.2614 77.9274 92.4922 77.7777 92.7089 77.6091C92.9276 77.7772 93.1598 77.9268 93.4031 78.0563C93.7502 78.2308 94.2664 78.4276 94.2664 79.7963L94.2441 82.0327ZM94.2441 76.5535H93.1672V75.31C93.1737 75.243 93.1661 75.1753 93.145 75.1114C93.1239 75.0475 93.0897 74.9887 93.0447 74.9388C92.9996 74.8889 92.9447 74.8491 92.8834 74.8218C92.8222 74.7946 92.7559 74.7805 92.6889 74.7805C92.6219 74.7805 92.5556 74.7946 92.4944 74.8218C92.4331 74.8491 92.3782 74.8889 92.3331 74.9388C92.2881 74.9887 92.2539 75.0475 92.2328 75.1114C92.2117 75.1753 92.2041 75.243 92.2105 75.31V76.5535H91.1292V74.317C91.1292 72.9438 91.6454 72.747 92.0192 72.5726C92.2614 72.4436 92.4922 72.294 92.7089 72.1253C92.9276 72.2935 93.1598 72.4431 93.4031 72.5726C93.7502 72.747 94.2664 72.9438 94.2664 74.317L94.2441 76.5535ZM98.4404 82.0327H96.5536V79.7963C96.5536 78.4276 96.8651 78.2308 97.0787 78.0563C97.2304 77.9193 97.3703 77.7697 97.497 77.6091C97.6222 77.7709 97.7623 77.9207 97.9153 78.0563C98.1244 78.2308 98.4404 78.4276 98.4404 79.7963V82.0327ZM98.4404 76.5535H96.5536V74.317C96.5536 72.9438 96.8651 72.747 97.0787 72.5726C97.2304 72.4356 97.3703 72.2859 97.497 72.1253C97.6222 72.2872 97.7623 72.4369 97.9153 72.5726C98.1244 72.747 98.4404 72.9438 98.4404 74.317V76.5535ZM103.082 66.5118H102.637V65.7693C102.633 65.7192 102.642 65.6689 102.662 65.6229C102.682 65.577 102.713 65.5366 102.752 65.5054C102.752 65.4746 102.764 65.445 102.786 65.4232C102.808 65.4014 102.837 65.3891 102.868 65.3891C102.899 65.3891 102.928 65.4014 102.95 65.4232C102.972 65.445 102.984 65.4746 102.984 65.5054C103.022 65.5371 103.053 65.5775 103.073 65.6234C103.093 65.6693 103.102 65.7193 103.099 65.7693L103.082 66.5118ZM103.705 66.5118H103.26V65.7693C103.256 65.7192 103.265 65.6689 103.285 65.6229C103.305 65.577 103.336 65.5366 103.375 65.5054C103.375 65.4746 103.387 65.445 103.409 65.4232C103.431 65.4014 103.46 65.3891 103.491 65.3891C103.522 65.3891 103.551 65.4014 103.573 65.4232C103.594 65.445 103.607 65.4746 103.607 65.5054C103.645 65.5371 103.676 65.5775 103.696 65.6234C103.716 65.6693 103.725 65.7193 103.722 65.7693L103.705 66.5118ZM111.581 61.6408H110.971V60.6523C110.967 60.5858 110.979 60.5192 111.006 60.4584C111.033 60.3975 111.075 60.3443 111.127 60.3035C111.183 60.2491 111.234 60.1892 111.278 60.1245C111.321 60.1906 111.372 60.2508 111.43 60.3035C111.481 60.3448 111.522 60.3982 111.548 60.459C111.575 60.5198 111.586 60.5862 111.581 60.6523V61.6408ZM112.4 61.6408H111.79V60.6523C111.786 60.5863 111.798 60.5203 111.824 60.4597C111.85 60.3991 111.891 60.3455 111.941 60.3035C112 60.2498 112.052 60.1898 112.097 60.1245C112.139 60.1906 112.19 60.2508 112.248 60.3035C112.3 60.3448 112.341 60.3982 112.367 60.459C112.393 60.5198 112.405 60.5862 112.4 60.6523V61.6408ZM117.321 60.9699C117.585 60.9699 117.843 61.0486 118.063 61.1961C118.282 61.3435 118.454 61.5531 118.555 61.7983C118.656 62.0435 118.682 62.3133 118.631 62.5736C118.579 62.8339 118.452 63.073 118.265 63.2606C118.079 63.4483 117.841 63.5761 117.582 63.6279C117.323 63.6796 117.054 63.6531 116.81 63.5515C116.566 63.4499 116.358 63.2779 116.211 63.0573C116.065 62.8366 115.986 62.5772 115.986 62.3118C115.985 62.1344 116.018 61.9585 116.084 61.7941C116.15 61.6298 116.248 61.4803 116.373 61.3543C116.497 61.2282 116.644 61.1282 116.807 61.0599C116.97 60.9916 117.145 60.9565 117.321 60.9565V60.9699ZM113.125 69.0211L113.058 67.308L113.143 67.4064L113.125 69.0211ZM113.032 67.0307V66.655H114.059L114.215 67.0307H113.032ZM112.925 62.4817V62.2492H113.08V62.4817H113.129V66.2837H112.978L112.827 62.4817H112.925ZM120.272 81.8717H114.545V72.7962H120.267L120.272 81.8717ZM120.272 71.3023H114.545V67.4064H120.267L120.272 71.3023ZM120.272 66.2837H114.545V64.6779H120.267L120.272 66.2837ZM120.543 64.329H114.197L114.042 63.9533H120.717L120.543 64.329Z" fill="#1FC0E8"/> <path d="M144.773 66.6326V66.2614H144.27V60.4824H135.713V66.2614H135.268V66.6326H136.687L136.839 67.0084H135.423L135.695 67.3841V71.28H135.25L135.406 71.6557L135.677 72.0269V72.4206H135.406V72.7963H135.677V86.0942H137.092V82.8245H142.815V86.0942H144.234V72.7963H144.581V72.4206H144.234V72.0269L144.581 71.6557L144.737 71.28H144.234V67.4065L144.581 67.0307H143.166L143.318 66.655L144.773 66.6326ZM140.074 60.9565C140.338 60.9565 140.596 61.0353 140.815 61.1827C141.035 61.3301 141.206 61.5397 141.307 61.7849C141.408 62.0301 141.435 62.2999 141.383 62.5602C141.331 62.8205 141.204 63.0596 141.018 63.2473C140.831 63.4349 140.593 63.5627 140.334 63.6145C140.075 63.6663 139.807 63.6397 139.563 63.5381C139.319 63.4366 139.11 63.2646 138.964 63.0439C138.817 62.8232 138.739 62.5638 138.739 62.2984C138.739 61.9425 138.879 61.6012 139.13 61.3496C139.38 61.0979 139.72 60.9565 140.074 60.9565ZM142.85 81.8494H137.128V72.7963H142.85V81.8494ZM142.85 71.28H137.128V67.4065H142.85V71.28ZM142.85 66.2614H137.128V64.678H142.85V66.2614ZM136.856 64.3067L136.705 63.931H143.353L143.202 64.3067H136.856Z" fill="#1FC0E8"/> <path d="M141.952 68.1973H138.031V70.228H141.952V68.1973Z" fill="#1FC0E8"/> <path d="M141.952 65.0039H138.031V65.8314H141.952V65.0039Z" fill="#1FC0E8"/> <path d="M140.074 63.2915C140.268 63.2906 140.458 63.2319 140.619 63.1227C140.78 63.0136 140.905 62.8589 140.979 62.6782C141.053 62.4975 141.072 62.2988 141.033 62.1074C140.995 61.9159 140.901 61.7402 140.763 61.6024C140.625 61.4646 140.45 61.3709 140.26 61.3331C140.069 61.2953 139.871 61.3152 139.692 61.3901C139.513 61.4651 139.359 61.5918 139.251 61.7542C139.143 61.9167 139.086 62.1076 139.086 62.303C139.086 62.4331 139.112 62.5621 139.161 62.6823C139.211 62.8025 139.284 62.9117 139.376 63.0035C139.467 63.0954 139.576 63.1681 139.696 63.2175C139.816 63.2669 139.944 63.2921 140.074 63.2915Z" fill="#1FC0E8"/> <path d="M129.171 61.4625H129.069L128.98 62.357H128.45L128.361 61.4625H128.259L128.219 61.0957H122.35V66.2619H122.674V66.6152L122.501 67.0267H122.608L122.35 67.3846V71.2805H122.795L122.639 71.6562L122.367 72.0274V72.421H122.639V72.7968H122.367V86.0947H123.56V67.3801L123.805 66.9328H123.707C123.844 65.8307 124.376 64.8168 125.205 64.082C126.034 63.3472 127.101 62.9421 128.206 62.943H129.229C130.334 62.9421 131.401 63.3472 132.23 64.082C133.058 64.8168 133.591 65.8307 133.728 66.9328H133.63L133.875 67.3801C133.875 67.4204 133.875 67.4606 133.875 67.5053V86.0947H135.063V72.7968H134.783V72.421H135.054V72.0274L134.783 71.6562L134.631 71.2805H135.054V67.4069L134.818 67.0491H134.903L134.734 66.6376V66.2842H135.054V61.0957H129.216L129.171 61.4625ZM129.256 61.6682C130.542 61.651 131.789 62.1095 132.76 62.9565C133.732 63.8035 134.36 64.9799 134.525 66.2619V66.6555L134.591 66.821H133.893C133.723 65.7027 133.173 64.6783 132.335 63.9226C131.476 63.1566 130.369 62.732 129.22 62.7283H128.197C127.048 62.7303 125.94 63.1552 125.082 63.9226C124.242 64.6767 123.689 65.7016 123.52 66.821H122.83L122.901 66.6555V66.2619C123.065 64.9803 123.692 63.8039 124.663 62.9568C125.633 62.1098 126.88 61.6511 128.166 61.6682H128.197L128.286 62.5404H129.176L129.265 61.6682H129.256Z" fill="#1FC0E8"/> <path d="M4.77957 85.647C4.07775 81.5954 3.7249 77.4905 3.72495 73.3779C3.72495 34.1507 35.4749 2.25901 74.4781 2.25901C113.481 2.25901 145.231 34.1731 145.231 73.4003C145.231 77.5129 144.879 81.6178 144.177 85.6694H146.433C147.115 81.6157 147.457 77.5116 147.456 73.4003C147.456 32.943 114.71 0.0449219 74.4781 0.0449219C34.2467 0.0449219 1.5 32.9654 1.5 73.4227C1.49895 77.534 1.84133 81.6381 2.5235 85.6918L4.77957 85.647Z" fill="#1FC0E8"/> </g> <defs> <clipPath id="clip0_1_6629"> <rect width="149" height="130" fill="white"/> </clipPath> </defs> </svg>