<svg width="104" height="105" viewBox="0 0 104 105" fill="none" xmlns="http://www.w3.org/2000/svg"> <path d="M51.9997 104.088C80.6137 104.088 103.81 90.6955 103.81 74.1744C103.81 57.6533 80.6137 44.2603 51.9997 44.2603C23.3857 44.2603 0.189453 57.6533 0.189453 74.1744C0.189453 90.6955 23.3857 104.088 51.9997 104.088Z" fill="#F5F5F5"/> <path d="M72.3907 64.3469L89.8418 74.4203C90.0616 74.5481 90.3114 74.6154 90.5656 74.6154C90.8199 74.6154 91.0696 74.5481 91.2895 74.4203L100.999 68.8106C101.064 68.7727 101.119 68.7182 101.156 68.6526C101.194 68.5871 101.214 68.5127 101.214 68.437C101.214 68.3614 101.194 68.287 101.156 68.2214C101.119 68.1559 101.064 68.1014 100.999 68.0635L83.5523 58.0156C83.3328 57.8892 83.084 57.8226 82.8307 57.8226C82.5775 57.8226 82.3287 57.8892 82.1092 58.0156L72.3931 63.5975C72.3275 63.6355 72.273 63.6901 72.235 63.7557C72.1971 63.8213 72.177 63.8957 72.1768 63.9715C72.1765 64.0473 72.1962 64.1219 72.2337 64.1877C72.2712 64.2536 72.3254 64.3085 72.3907 64.3469Z" fill="#E0E0E0"/> <path d="M58.6585 60.6001L16.6827 84.8928C16.3409 85.0912 15.9531 85.1966 15.5579 85.1986C15.1627 85.2007 14.7739 85.0992 14.43 84.9044L3.52602 78.7332C3.41275 78.6682 3.31865 78.5744 3.25322 78.4614C3.18778 78.3483 3.15332 78.22 3.15332 78.0894C3.15332 77.9588 3.18778 77.8305 3.25322 77.7175C3.31865 77.6044 3.41275 77.5107 3.52602 77.4456L45.4229 53.248C45.7638 53.0521 46.1496 52.9479 46.5428 52.9454C46.936 52.943 47.323 53.0424 47.6663 53.2341L58.6492 59.3891C58.7568 59.4489 58.8466 59.5363 58.9094 59.6422C58.9722 59.7481 59.0058 59.8688 59.0067 59.9919C59.0077 60.115 58.9759 60.2362 58.9148 60.343C58.8536 60.4499 58.7652 60.5386 58.6585 60.6001Z" fill="#E0E0E0"/> <path d="M65.3772 84.981C71.7389 84.981 76.896 82.003 76.896 78.3295C76.896 74.656 71.7389 71.6781 65.3772 71.6781C59.0155 71.6781 53.8584 74.656 53.8584 78.3295C53.8584 82.003 59.0155 84.981 65.3772 84.981Z" fill="#E0E0E0"/> <path d="M90.2913 82.1552C92.5092 82.1552 94.3072 81.1165 94.3072 79.8352C94.3072 78.5539 92.5092 77.5152 90.2913 77.5152C88.0734 77.5152 86.2754 78.5539 86.2754 79.8352C86.2754 81.1165 88.0734 82.1552 90.2913 82.1552Z" fill="#E0E0E0"/> <path d="M90.4219 43.2813L90.4265 73.8983L100.342 68.1679V37.5811L90.4219 43.2813Z" fill="#E6E6E6"/> <path d="M73.5811 64.1729L90.4266 73.8983V43.3091L73.5857 33.6138L73.5811 64.1729Z" fill="#EBEBEB"/> <path d="M73.5811 33.5837L90.4266 43.3091L100.342 37.581L83.5037 27.8834L73.5811 33.5837Z" fill="#F5F5F5"/> <path d="M75.5555 44.78L88.3549 52.1715C88.4108 52.2035 88.4742 52.2203 88.5386 52.2203C88.6031 52.2202 88.6664 52.2032 88.7222 52.1711C88.7781 52.1389 88.8245 52.0927 88.857 52.037C88.8894 51.9813 88.9067 51.9181 88.9071 51.8537V45.36C88.9062 45.1996 88.8628 45.0423 88.7812 44.9041C88.6997 44.7659 88.583 44.6519 88.4431 44.5735L75.6645 37.2098C75.6084 37.1777 75.5449 37.1609 75.4802 37.1611C75.4156 37.1613 75.3521 37.1784 75.2962 37.2108C75.2403 37.2433 75.1939 37.2898 75.1616 37.3458C75.1293 37.4018 75.1123 37.4653 75.1123 37.53V43.9935C75.1109 44.1519 75.1511 44.3079 75.2288 44.446C75.3066 44.584 75.4192 44.6992 75.5555 44.78Z" fill="#FAFAFA"/> <path d="M83.1328 43.1537C83.0887 43.1533 83.0455 43.1413 83.0075 43.1189L80.7478 41.8197C80.6959 41.7831 80.6594 41.7283 80.6457 41.6663C80.6319 41.6042 80.6419 41.5392 80.6735 41.4841C80.7051 41.429 80.7562 41.3876 80.8167 41.3682C80.8772 41.3487 80.9428 41.3525 81.0007 41.3789L83.2604 42.6804C83.3051 42.7097 83.3393 42.7525 83.3582 42.8025C83.377 42.8526 83.3796 42.9073 83.3654 42.9588C83.3512 43.0104 83.3211 43.0561 83.2793 43.0894C83.2375 43.1228 83.1862 43.142 83.1328 43.1444V43.1537Z" fill="#E0E0E0"/> <path d="M75.5554 53.8466L88.3549 61.2358C88.4108 61.2678 88.4741 61.2846 88.5386 61.2845C88.603 61.2845 88.6663 61.2675 88.7222 61.2353C88.778 61.2032 88.8245 61.157 88.8569 61.1013C88.8893 61.0456 88.9066 60.9824 88.907 60.9179V54.4219C88.9059 54.2616 88.8624 54.1044 88.7809 53.9662C88.6994 53.8281 88.5828 53.714 88.443 53.6355L75.6645 46.288C75.6085 46.256 75.5452 46.2392 75.4808 46.2393C75.4163 46.2393 75.353 46.2563 75.2972 46.2884C75.2413 46.3206 75.1948 46.3668 75.1624 46.4225C75.13 46.4782 75.1127 46.5414 75.1123 46.6059V53.0694C75.1127 53.2262 75.1537 53.3802 75.2314 53.5164C75.3091 53.6526 75.4207 53.7664 75.5554 53.8466Z" fill="#FAFAFA"/> <path d="M83.1328 52.2179C83.089 52.2173 83.046 52.2062 83.0075 52.1854L80.7478 50.8839C80.6959 50.8473 80.6594 50.7926 80.6457 50.7305C80.6319 50.6684 80.6419 50.6035 80.6735 50.5483C80.7051 50.4932 80.7562 50.4518 80.8167 50.4324C80.8772 50.4129 80.9428 50.4167 81.0007 50.4431L83.2604 51.7446C83.3051 51.774 83.3393 51.8167 83.3582 51.8667C83.377 51.9168 83.3796 51.9715 83.3654 52.023C83.3512 52.0746 83.3211 52.1203 83.2793 52.1537C83.2375 52.187 83.1862 52.2062 83.1328 52.2086V52.2179Z" fill="#E0E0E0"/> <path d="M75.5555 62.9108L88.3549 70.3C88.4109 70.332 88.4742 70.3488 88.5387 70.3488C88.6031 70.3487 88.6664 70.3317 88.7223 70.2996C88.7781 70.2674 88.8246 70.2212 88.857 70.1655C88.8894 70.1098 88.9067 70.0466 88.9071 69.9822V63.4862C88.906 63.3258 88.8625 63.1686 88.781 63.0305C88.6995 62.8923 88.5829 62.7782 88.4431 62.6997L75.6645 55.336C75.6086 55.304 75.5453 55.2872 75.4808 55.2872C75.4164 55.2873 75.3531 55.3043 75.2972 55.3364C75.2414 55.3686 75.1949 55.4148 75.1625 55.4705C75.1301 55.5262 75.1128 55.5894 75.1124 55.6538V62.1197C75.1103 62.2788 75.1502 62.4357 75.228 62.5746C75.3058 62.7134 75.4187 62.8294 75.5555 62.9108Z" fill="#FAFAFA"/> <path d="M83.1328 61.2822C83.0889 61.2827 83.0456 61.2715 83.0075 61.2497L80.7478 59.9482C80.719 59.9316 80.6937 59.9095 80.6735 59.8831C80.6532 59.8568 80.6384 59.8267 80.6297 59.7946C80.6211 59.7625 80.6189 59.729 80.6233 59.696C80.6276 59.663 80.6384 59.6313 80.655 59.6025C80.6716 59.5736 80.6937 59.5484 80.7201 59.5282C80.7465 59.508 80.7767 59.4932 80.8089 59.4848C80.8411 59.4764 80.8746 59.4744 80.9075 59.4791C80.9405 59.4838 80.9721 59.495 81.0007 59.512L83.2604 60.8112C83.2892 60.8278 83.3144 60.8499 83.3347 60.8762C83.355 60.9026 83.3698 60.9327 83.3785 60.9648C83.3871 60.9969 83.3893 61.0304 83.3849 61.0634C83.3806 61.0963 83.3698 61.1281 83.3532 61.1569C83.3311 61.1956 83.299 61.2277 83.2602 61.2498C83.2214 61.2718 83.1774 61.283 83.1328 61.2822Z" fill="#E0E0E0"/> <path d="M84.1113 12.4508V20.6334L91.1989 24.7236V16.541L84.1113 12.4508Z" fill="#FAFAFA"/> <path d="M84.8797 12.8916L91.2087 16.541V23.8374L84.889 20.1903V12.8916H84.8797ZM84.5039 12.2281L84.1211 12.4601V20.6427L91.2087 24.7236L91.5915 24.4916V16.3206L84.4946 12.2281H84.5039Z" fill="#E0E0E0"/> <path d="M84.4941 13.112L90.8138 16.7614V24.0578L84.4941 20.4084V13.112ZM84.1113 12.4485V20.6311L91.2082 24.7236V16.541L84.1113 12.4508V12.4485Z" fill="#EBEBEB"/> <path d="M85.1504 18.7612L90.5119 21.8561L88.9274 17.7357L87.8323 19.0373L86.7094 17.4411L85.1504 18.7612Z" fill="#E0E0E0"/> <path d="M87.0117 16.1907C87.0208 16.3604 87.0699 16.5256 87.155 16.6727C87.2401 16.8199 87.3587 16.9448 87.5012 17.0375C87.7704 17.1929 87.9908 17.0653 87.9908 16.7544C87.9813 16.5848 87.932 16.4197 87.847 16.2726C87.762 16.1255 87.6435 16.0005 87.5012 15.9076C87.2298 15.7522 87.0117 15.8775 87.0117 16.1907Z" fill="#E0E0E0"/> <path d="M93.3213 22.3549V28.8741L98.9659 32.1337V25.6145L93.3213 22.3549Z" fill="#FAFAFA"/> <path d="M93.9315 22.7099L98.9659 25.6145V31.44L93.9315 28.5331V22.7331V22.7099ZM93.6252 22.2018L93.3213 22.3781V28.8973L98.9659 32.136L99.2721 31.9597V25.4405L93.6252 22.1925V22.2018Z" fill="#E0E0E0"/> <path d="M93.6252 22.8861L98.6596 25.7908V31.6047L93.6252 28.6977V22.8861ZM93.3213 22.3549V28.8741L98.9659 32.136V25.6168L93.3213 22.3688V22.3549Z" fill="#EBEBEB"/> <path d="M94.1504 27.3823L98.4192 29.8485L97.1594 26.5657L96.2848 27.605L95.3916 26.3314L94.1504 27.3823Z" fill="#E0E0E0"/> <path d="M95.6299 25.3361C95.6373 25.4713 95.6765 25.6029 95.7442 25.7202C95.8119 25.8375 95.9063 25.9372 96.0196 26.0112C96.2354 26.1342 96.4094 26.0344 96.4094 25.7792C96.4023 25.6439 96.3633 25.5122 96.2956 25.3949C96.2278 25.2775 96.1333 25.1779 96.0196 25.1041C95.8039 24.9858 95.6299 25.0879 95.6299 25.3361Z" fill="#E0E0E0"/> <path d="M90.5277 73.9239C90.5277 73.9239 88.0592 71.5134 89.4651 67.4766C90.2516 65.2146 92.8593 63.5535 94.3371 63.3957C93.8454 63.9801 93.4534 64.6417 93.1771 65.3538L91.3072 66.5973L93.0263 66.0591L92.6598 67.5299C92.6598 67.5299 91.0613 68.4974 90.8247 68.7085L92.5484 68.2584C92.5484 68.2584 92.4231 72.4251 90.5277 73.9239Z" fill="#20C0E8"/> <path opacity="0.4" d="M90.5277 73.9239C90.5277 73.9239 88.0592 71.5134 89.4651 67.4766C90.2516 65.2146 92.8593 63.5535 94.3371 63.3957C93.8454 63.9801 93.4534 64.6417 93.1771 65.3538L91.3072 66.5973L93.0263 66.0591L92.6598 67.5299C92.6598 67.5299 91.0613 68.4974 90.8247 68.7085L92.5484 68.2584C92.5484 68.2584 92.4231 72.4251 90.5277 73.9239Z" fill="black"/> <path d="M90.5276 73.9239C90.5276 73.9239 89.2493 68.8802 91.1401 65.9384C91.1401 65.9384 88.9245 68.5345 90.5276 73.9239Z" fill="white"/> <path d="M93.3513 74.6059L90.3353 74.5688H90.3052L87.2892 74.6059C87.2892 74.6059 87.2544 78.3179 88.4005 79.8398C88.7183 80.2435 89.4584 80.5358 90.3237 80.5358C91.1891 80.5358 91.9338 80.2505 92.2493 79.8398C93.3861 78.3225 93.3513 74.6059 93.3513 74.6059Z" fill="#37474F"/> <path d="M93.3513 74.6059C93.3513 75.5061 91.9942 76.2299 90.3168 76.2299C88.6394 76.2299 87.2822 75.4991 87.2822 74.6059C87.2822 73.7127 88.6418 72.9819 90.3168 72.9819C91.9918 72.9819 93.3513 73.7058 93.3513 74.6059Z" fill="#455A64"/> <path d="M90.3168 74.1744C91.3608 74.1744 92.2448 74.5085 92.558 74.9725C92.6342 74.8653 92.6763 74.7375 92.6786 74.6059C92.6786 73.9633 91.6207 73.4459 90.3168 73.4459C89.013 73.4459 87.9551 73.9679 87.9551 74.6059C87.9572 74.7379 88.0001 74.866 88.078 74.9725C88.3889 74.5085 89.2728 74.1744 90.3168 74.1744Z" fill="#263238"/> <path d="M90.3169 74.1744C89.2729 74.1744 88.389 74.5085 88.0781 74.9725C88.389 75.4365 89.2729 75.7729 90.3169 75.7729C91.3609 75.7729 92.2448 75.4365 92.558 74.9725C92.2448 74.5085 91.3609 74.1744 90.3169 74.1744Z" fill="#E0E0E0"/> <path d="M90.3538 75.1744C90.3538 75.1744 89.1938 75.1303 88.1823 73.5759C87.767 72.9356 87.5675 72.5992 87.5675 72.5992L89.1915 72.4762L87.3656 72.0122L86.5026 70.6921L88.0176 70.5784C87.3929 70.3607 86.7424 70.2257 86.0827 70.1771C86.0827 70.1771 84.6907 67.7086 84.2754 67.356C85.3362 67.4205 86.3732 67.6976 87.3249 68.1706C88.2766 68.6437 89.1236 69.3031 89.8156 70.1098C92.1054 72.8265 90.6948 75.244 90.3538 75.1744Z" fill="#20C0E8"/> <path d="M90.3542 75.1743C90.3542 75.1743 91.0873 70.7663 86.4102 68.1169C86.4171 68.1169 91.2636 70.4462 90.3542 75.1743Z" fill="white"/> <path d="M90.3541 75.1743C90.3541 75.1743 91.4143 75.2439 92.4653 73.9378C92.8991 73.3972 93.1102 73.1119 93.1102 73.1119L91.6509 72.8497L93.3422 72.6177L94.2447 71.5064L92.8875 71.2628C93.4717 71.1247 94.0716 71.0647 94.6716 71.0842C94.6716 71.0842 96.1657 68.9962 96.567 68.7085C95.6082 68.6657 94.6506 68.8153 93.7505 69.1484C92.8504 69.4815 92.0261 69.9914 91.3261 70.648C88.9969 72.8915 90.0478 75.2045 90.3541 75.1743Z" fill="#20C0E8"/> <path opacity="0.2" d="M90.3541 75.1743C90.3541 75.1743 91.4143 75.2439 92.4653 73.9378C92.8991 73.3972 93.1102 73.1119 93.1102 73.1119L91.6509 72.8497L93.3422 72.6177L94.2447 71.5064L92.8875 71.2628C93.4717 71.1247 94.0716 71.0647 94.6716 71.0842C94.6716 71.0842 96.1657 68.9962 96.567 68.7085C95.6082 68.6657 94.6506 68.8153 93.7505 69.1484C92.8504 69.4815 92.0261 69.9914 91.3261 70.648C88.9969 72.8915 90.0478 75.2045 90.3541 75.1743Z" fill="black"/> <path d="M90.3536 75.1743C90.3536 75.1743 90.1077 71.1306 94.5714 69.1771C94.5714 69.1771 89.9801 70.822 90.3536 75.1743Z" fill="white"/> <path d="M44.2951 18.8772L43.2395 18.448L43.1328 18.4039H43.1212C42.9319 18.3356 42.73 18.3095 42.5296 18.3276C42.3292 18.3456 42.1352 18.4073 41.9612 18.5083L5.73668 39.4162C4.97541 39.8549 4.3432 40.4865 3.90373 41.2473C3.46426 42.0081 3.23305 42.8713 3.2334 43.7499V75.288C3.23358 75.6232 3.322 75.9524 3.48976 76.2426C3.65753 76.5328 3.89873 76.7737 4.18911 76.9411C4.4795 77.1085 4.80884 77.1966 5.14402 77.1963C5.47921 77.1961 5.80844 77.1077 6.0986 76.9399L42.3579 56.0065C42.8752 55.7075 43.3048 55.2776 43.6033 54.76C43.9018 54.2424 44.0588 53.6553 44.0584 53.0578V19.724C44.0591 19.4853 43.9984 19.2504 43.8821 19.0419L44.2951 18.8772Z" fill="#20C0E8"/> <path opacity="0.3" d="M44.2951 18.8772L43.2395 18.448L43.1328 18.4039H43.1212C42.9319 18.3356 42.73 18.3095 42.5296 18.3276C42.3292 18.3456 42.1352 18.4073 41.9612 18.5083L5.73668 39.4162C4.97541 39.8549 4.3432 40.4865 3.90373 41.2473C3.46426 42.0081 3.23305 42.8713 3.2334 43.7499V75.288C3.23358 75.6232 3.322 75.9524 3.48976 76.2426C3.65753 76.5328 3.89873 76.7737 4.18911 76.9411C4.4795 77.1085 4.80884 77.1966 5.14402 77.1963C5.47921 77.1961 5.80844 77.1077 6.0986 76.9399L42.3579 56.0065C42.8752 55.7075 43.3048 55.2776 43.6033 54.76C43.9018 54.2424 44.0588 53.6553 44.0584 53.0578V19.724C44.0591 19.4853 43.9984 19.2504 43.8821 19.0419L44.2951 18.8772Z" fill="black"/> <path d="M45.0188 20.1045V53.4498C45.0192 54.0473 44.8619 54.6344 44.563 55.1517C44.264 55.669 43.8338 56.0983 43.3159 56.3962L7.05661 77.3319C6.76616 77.4991 6.43687 77.5869 6.10176 77.5867C5.76665 77.5865 5.43749 77.4981 5.14727 77.3306C4.85705 77.163 4.61598 76.9221 4.44821 76.632C4.28045 76.342 4.19189 76.0129 4.19141 75.6777V44.1257C4.19161 43.2611 4.41624 42.4114 4.84333 41.6596C5.16681 41.102 5.63388 40.6413 6.19589 40.3256L43.6476 18.7009C44.0109 18.7122 44.3557 18.8633 44.6103 19.1226C44.8649 19.3819 45.0095 19.7295 45.0141 20.0929L45.0188 20.1045Z" fill="#20C0E8"/> <path opacity="0.1" d="M45.0188 20.1045V53.4498C45.0192 54.0473 44.8619 54.6344 44.563 55.1517C44.264 55.669 43.8338 56.0983 43.3159 56.3962L7.05661 77.3319C6.76616 77.4991 6.43687 77.5869 6.10176 77.5867C5.76665 77.5865 5.43749 77.4981 5.14727 77.3306C4.85705 77.163 4.61598 76.9221 4.44821 76.632C4.28045 76.342 4.19189 76.0129 4.19141 75.6777V44.1257C4.19161 43.2611 4.41624 42.4114 4.84333 41.6596C5.16681 41.102 5.63388 40.6413 6.19589 40.3256L43.6476 18.7009C44.0109 18.7122 44.3557 18.8633 44.6103 19.1226C44.8649 19.3819 45.0095 19.7295 45.0141 20.0929L45.0188 20.1045Z" fill="black"/> <path d="M43.3165 56.3963L7.05717 77.3319C6.77651 77.4961 6.45825 77.5852 6.13313 77.5905C5.80801 77.5957 5.48702 77.5171 5.20117 77.3621L26.8514 44.7777L45.0193 53.4475C45.0194 54.0453 44.8621 54.6325 44.5632 55.1502C44.2642 55.6678 43.8342 56.0976 43.3165 56.3963Z" fill="#20C0E8"/> <path opacity="0.2" d="M43.3165 56.3963L7.05717 77.3319C6.77651 77.4961 6.45825 77.5852 6.13313 77.5905C5.80801 77.5957 5.48702 77.5171 5.20117 77.3621L26.8514 44.7777L45.0193 53.4475C45.0194 54.0453 44.8621 54.6325 44.5632 55.1502C44.2642 55.6678 43.8342 56.0976 43.3165 56.3963Z" fill="black"/> <path d="M44.409 18.9491L29.6237 49.877C29.3325 50.4847 28.9189 51.0257 28.409 51.4661C27.899 51.9065 27.3036 52.237 26.6601 52.4367C26.0165 52.6364 25.3387 52.7011 24.669 52.6267C23.9993 52.5523 23.3521 52.3405 22.7681 52.0045L4.84375 41.6665C5.14971 41.1233 5.59601 40.6721 6.13599 40.3604L43.6481 18.7009C43.9206 18.7073 44.1851 18.7936 44.409 18.9491Z" fill="#20C0E8"/> <path d="M8.56543 31.737L19.1864 25.6029V18.0002L11.4678 22.2551C10.5886 22.739 9.85552 23.45 9.345 24.314C8.83447 25.1779 8.56525 26.1631 8.56543 27.1666V31.737Z" fill="#20C0E8"/> <path opacity="0.5" d="M8.56543 31.737L19.1864 25.6029V18.0002L11.4678 22.2551C10.5886 22.739 9.85552 23.45 9.345 24.314C8.83447 25.1779 8.56525 26.1631 8.56543 27.1666V31.737Z" fill="white"/> <path d="M52.4645 2.29383L51.4924 1.744C50.2578 1.03013 48.8563 0.655611 47.4302 0.658463C46.0041 0.661316 44.6041 1.04143 43.3724 1.76024L12.9966 19.4572C11.6483 20.2424 10.5295 21.3676 9.75195 22.7204C8.9744 24.0732 8.56528 25.6062 8.56543 27.1666C8.56532 26.365 8.77689 25.5776 9.17873 24.884C9.58057 24.1905 10.1584 23.6153 10.8539 23.2167C11.5493 22.8182 12.3377 22.6103 13.1393 22.6142C13.9408 22.618 14.7271 22.8335 15.4187 23.2388L16.6901 23.9835C18.0138 24.7583 19.1117 25.8659 19.8748 27.1964C20.6379 28.5268 21.0397 30.0338 21.0401 31.5676V76.7009L18.9683 81.9603L22.8589 79.5916L54.1349 61.4445C55.2457 60.8005 56.1677 59.8756 56.8082 58.7627C57.4487 57.6498 57.7853 56.3881 57.7842 55.104V11.5251C57.784 9.65523 57.2924 7.81824 56.3588 6.19812C55.4251 4.578 54.0822 3.23162 52.4645 2.29383Z" fill="#20C0E8"/> <path opacity="0.7" d="M52.4645 2.29383L51.4924 1.744C50.2578 1.03013 48.8563 0.655611 47.4302 0.658463C46.0041 0.661316 44.6041 1.04143 43.3724 1.76024L12.9966 19.4572C11.6483 20.2424 10.5295 21.3676 9.75195 22.7204C8.9744 24.0732 8.56528 25.6062 8.56543 27.1666C8.56532 26.365 8.77689 25.5776 9.17873 24.884C9.58057 24.1905 10.1584 23.6153 10.8539 23.2167C11.5493 22.8182 12.3377 22.6103 13.1393 22.6142C13.9408 22.618 14.7271 22.8335 15.4187 23.2388L16.6901 23.9835C18.0138 24.7583 19.1117 25.8659 19.8748 27.1964C20.6379 28.5268 21.0397 30.0338 21.0401 31.5676V76.7009L18.9683 81.9603L22.8589 79.5916L54.1349 61.4445C55.2457 60.8005 56.1677 59.8756 56.8082 58.7627C57.4487 57.6498 57.7853 56.3881 57.7842 55.104V11.5251C57.784 9.65523 57.2924 7.81824 56.3588 6.19812C55.4251 4.578 54.0822 3.23162 52.4645 2.29383Z" fill="white"/> <path d="M9.8252 77.8585C9.8252 77.8585 12.0037 81.0439 15.5046 82.0995C19.2699 83.234 21.0401 80.7376 21.0401 77.427V71.4391L9.8252 77.8585Z" fill="#20C0E8"/> <path opacity="0.5" d="M9.8252 77.8585C9.8252 77.8585 12.0037 81.0439 15.5046 82.0995C19.2699 83.234 21.0401 80.7376 21.0401 77.427V71.4391L9.8252 77.8585Z" fill="white"/> <path d="M27.8073 45.824C27.732 45.8228 27.6592 45.7972 27.5999 45.7509C27.5405 45.7046 27.4979 45.6402 27.4785 45.5675C27.4591 45.4948 27.4639 45.4178 27.4923 45.3481C27.5206 45.2784 27.5709 45.2198 27.6356 45.1813L50.8356 31.781C50.9147 31.7355 51.0086 31.7232 51.0967 31.7469C51.1848 31.7706 51.2599 31.8284 51.3054 31.9074C51.3509 31.9865 51.3632 32.0804 51.3395 32.1685C51.3158 32.2566 51.258 32.3317 51.179 32.3772L27.979 45.7776C27.9266 45.8074 27.8675 45.8234 27.8073 45.824Z" fill="white"/> <path d="M27.8075 50.9628C27.7321 50.9626 27.6587 50.9376 27.5989 50.8916C27.5391 50.8456 27.4961 50.7812 27.4766 50.7083C27.457 50.6354 27.462 50.5581 27.4908 50.4884C27.5196 50.4186 27.5706 50.3603 27.6358 50.3224L50.8358 36.9198C50.9149 36.8743 51.0088 36.862 51.0969 36.8857C51.185 36.9094 51.2601 36.9672 51.3056 37.0462C51.3512 37.1253 51.3634 37.2192 51.3397 37.3073C51.316 37.3954 51.2583 37.4705 51.1792 37.516L27.9792 50.928C27.9258 50.9538 27.8668 50.9658 27.8075 50.9628Z" fill="white"/> <path d="M27.8075 56.0993C27.7321 56.0991 27.6587 56.0741 27.5989 56.0282C27.5391 55.9822 27.4961 55.9177 27.4766 55.8449C27.457 55.772 27.462 55.6947 27.4908 55.6249C27.5196 55.5552 27.5706 55.4969 27.6358 55.459L50.8358 42.0587C50.9143 42.0179 51.0054 42.0089 51.0903 42.0337C51.1751 42.0584 51.2472 42.1149 51.2915 42.1915C51.3357 42.268 51.3487 42.3586 51.3278 42.4445C51.3069 42.5304 51.2537 42.6049 51.1792 42.6526L27.9792 56.0529C27.9269 56.0828 27.8678 56.0988 27.8075 56.0993Z" fill="white"/> <path d="M27.8075 61.2358C27.7321 61.2356 27.6587 61.2106 27.5989 61.1646C27.5391 61.1186 27.4961 61.0542 27.4766 60.9813C27.457 60.9084 27.462 60.8312 27.4908 60.7614C27.5196 60.6917 27.5706 60.6333 27.6358 60.5955L50.8358 47.1951C50.9143 47.1544 51.0054 47.1454 51.0903 47.1702C51.1751 47.1949 51.2472 47.2514 51.2915 47.3279C51.3357 47.4045 51.3487 47.4951 51.3278 47.581C51.3069 47.6669 51.2537 47.7414 51.1792 47.7891L27.9792 61.1894C27.9273 61.2203 27.8679 61.2363 27.8075 61.2358Z" fill="white"/> <path d="M27.8075 66.3723C27.7321 66.3721 27.6587 66.3471 27.5989 66.3011C27.5391 66.2551 27.4961 66.1907 27.4766 66.1178C27.457 66.0449 27.462 65.9676 27.4908 65.8979C27.5196 65.8281 27.5706 65.7698 27.6358 65.7319L50.8358 52.3316C50.9143 52.2908 51.0054 52.2819 51.0903 52.3066C51.1751 52.3314 51.2472 52.3879 51.2915 52.4644C51.3357 52.541 51.3487 52.6316 51.3278 52.7175C51.3069 52.8034 51.2537 52.8779 51.1792 52.9255L27.9792 66.3258C27.9273 66.3568 27.8679 66.3728 27.8075 66.3723Z" fill="white"/> <path d="M43.0431 62.7113C42.9828 62.7117 42.9234 62.696 42.8712 62.6658C42.819 62.6356 42.7758 62.5921 42.7461 62.5396C42.7021 62.4612 42.6906 62.3688 42.714 62.282C42.7374 62.1953 42.7939 62.1212 42.8714 62.0756L50.8406 57.4681C50.919 57.4273 51.0102 57.4184 51.095 57.4431C51.1799 57.4678 51.2519 57.5244 51.2962 57.6009C51.3404 57.6774 51.3535 57.7681 51.3325 57.854C51.3116 57.9399 51.2584 58.0144 51.1839 58.062L43.2147 62.6672C43.1622 62.6964 43.1031 62.7115 43.0431 62.7113Z" fill="white"/> <path d="M43.9636 26.4845L37.2773 30.345V27.0506C37.2773 24.7607 38.6693 22.0997 40.3885 21.1067L40.8525 20.8399C42.5693 19.847 43.9636 20.9003 43.9636 23.1901V26.4845Z" fill="#20C0E8"/> <path d="M45.5204 27.5772L35.7207 33.2357L37.2774 29.6304L43.9637 25.7699L45.5204 27.5772Z" fill="#20C0E8"/> <path d="M40.6327 22.0602C40.3427 22.2273 40.1084 22.0927 40.1084 21.7586V20.4757C40.1185 20.2939 40.1712 20.1171 40.2623 19.9595C40.3534 19.802 40.4803 19.668 40.6327 19.5685C40.9204 19.4015 41.1547 19.5361 41.1547 19.8701V21.1554C41.1445 21.3366 41.092 21.5128 41.0013 21.6699C40.9107 21.8271 40.7844 21.9607 40.6327 22.0602Z" fill="#20C0E8"/> <path d="M39.5068 31.5328C39.5347 32.1986 40.0219 32.4608 40.6204 32.1151C40.9341 31.91 41.197 31.6364 41.3895 31.3149C41.582 30.9934 41.699 30.6324 41.7317 30.2591L39.5068 31.5328Z" fill="#20C0E8"/> <path d="M73.5811 21.5011C76.2757 21.5011 78.4601 19.3168 78.4601 16.6222C78.4601 13.9276 76.2757 11.7432 73.5811 11.7432C70.8865 11.7432 68.7021 13.9276 68.7021 16.6222C68.7021 19.3168 70.8865 21.5011 73.5811 21.5011Z" fill="#20C0E8"/> <path d="M72.7112 20.4154C72.7112 20.4154 73.1474 21.9652 71.3818 23.4036C71.3818 23.4036 74.1009 23.1298 74.2494 20.5453L72.7112 20.4154Z" fill="#20C0E8"/> <path d="M74.0618 17.0723H73.0131L72.751 14.5551H74.3239L74.0618 17.0723ZM73.5375 18.6963C73.4409 18.7029 73.344 18.6899 73.2526 18.6582C73.1612 18.6265 73.0771 18.5766 73.0054 18.5116C72.9337 18.4466 72.8759 18.3679 72.8353 18.28C72.7948 18.1921 72.7724 18.097 72.7695 18.0003C72.7904 17.8111 72.8802 17.6364 73.0219 17.5094C73.1636 17.3824 73.3472 17.3122 73.5375 17.3122C73.7277 17.3122 73.9113 17.3824 74.053 17.5094C74.1947 17.6364 74.2846 17.8111 74.3054 18.0003C74.3019 18.0966 74.279 18.1912 74.2382 18.2785C74.1974 18.3659 74.1395 18.4441 74.0679 18.5086C73.9962 18.5731 73.9124 18.6225 73.8212 18.654C73.7301 18.6854 73.6336 18.6982 73.5375 18.6916V18.6963Z" fill="white"/> <path d="M63.9481 35.4814C63.4459 35.4425 62.9418 35.528 62.4805 35.7304C62.0192 35.9327 61.6149 36.2456 61.3033 36.6414C60.2709 38.0009 58.0855 41.2165 58.0855 41.2165C58.0855 41.2165 57.1714 40.2026 56.5728 39.4904C55.9743 38.7781 55.4128 38.1749 55.4128 38.1749C55.3341 37.7916 55.2752 37.4044 55.2365 37.0149C55.1855 36.4628 55.1112 36.0869 54.7076 35.7088C54.3039 35.3306 53.9953 34.9757 53.9628 34.688C53.9304 34.4003 53.7308 34.1126 53.4756 34.4073C53.2204 34.7019 53.2436 35.6067 53.7772 36.2099C53.7772 36.2099 52.8237 35.7668 52.3852 35.2471C51.9468 34.7274 51.3807 33.8226 51.1301 34.0732C50.8796 34.3237 50.3993 37.0219 51.1301 37.6228C51.8609 38.2237 53.6682 39.2468 53.6682 39.2468C53.6682 39.2468 56.03 45.0282 57.6911 45.0282C59.3522 45.0282 62.0991 40.7548 62.0991 40.7548L63.9481 35.4814Z" fill="#FFA8A7"/> <path d="M60.999 65.6647L61.5117 73.5086C61.5117 73.5086 61.9757 74.3391 62.8689 74.3391L63.6809 73.4529C63.6698 72.4037 63.7576 71.3559 63.9431 70.3232C64.2447 68.7387 64.8293 66.421 64.9987 65.0823L60.999 65.6647Z" fill="#FFA8A7"/> <path d="M61.4606 47.9445C61.4606 47.9445 61.0523 50.5823 60.8504 53.1482C60.6904 55.1945 60.586 58.0318 60.5489 59.0967C60.54 59.3752 60.5462 59.6541 60.5674 59.9319L60.9989 65.6646C60.9989 65.6646 63.5347 66.7782 65.0032 65.0823C65.0032 65.0823 65.1819 63.4398 64.9267 62.2983C64.7772 61.5777 64.7955 60.8323 64.9801 60.1198L66.5692 53.7352V47.8888L61.4606 47.9445Z" fill="#37474F"/> <path d="M62.6934 50.1323C62.8007 50.6011 63.0343 51.0316 63.3688 51.3772C63.7033 51.7227 64.126 51.9702 64.5911 52.0927L65.54 57.8695L66.932 52.8072V50.1323H62.6934Z" fill="#263238"/> <path d="M67.625 66.8339L69.2281 75.6755H70.9612C70.9612 75.6755 71.6177 68.2259 71.5829 66.1936L67.625 66.8339Z" fill="#FFA8A7"/> <path d="M62.2709 47.8865C62.2709 47.8865 61.9322 51.2992 64.9853 51.5985L66.5699 61.7624L67.6255 66.8316C67.6255 66.8316 70.0986 68.444 71.5834 66.1913C71.5834 66.1913 71.7342 63.6393 71.1194 61.8807C70.959 61.4239 70.8928 60.9393 70.9245 60.4562C71.0962 57.9646 71.5695 50.6542 71.3375 49.0349L69.8109 47.0374L62.2709 47.8865Z" fill="#37474F"/> <path d="M67.8296 35.848H69.3794L70.4164 41.0239L69.7344 43.2395C69.5902 43.6988 69.6233 44.1954 69.8272 44.6315C70.2912 45.643 71.1519 47.6197 71.3398 49.0395C70.9059 49.0713 70.4715 48.9847 70.0829 48.789C69.6944 48.5933 69.3662 48.2958 69.1335 47.9282C69.1335 47.9282 67.832 49.6427 64.6652 49.6427C63.1293 49.6427 61.8812 48.5129 61.4612 47.9468L62.0296 45.3809C62.0767 45.1725 62.0939 44.9584 62.0807 44.7452C62.0505 44.2139 61.9925 43.1212 62.0064 42.2906C62.0064 42.2906 60.5356 41.706 60.9137 39.8964C61.2919 38.0868 63.9483 35.4884 63.9483 35.4884L65.0874 35.5325L67.8296 35.848Z" fill="#20C0E8"/> <path d="M64.0923 25.872C64.0923 25.872 62.2131 25.2201 61.7537 27.1434C61.2944 29.0667 62.7096 30.9343 60.5938 31.5746C60.5938 31.5746 61.8419 32.6139 62.9416 30.6721L63.8696 34.6161C63.8696 34.6161 63.8696 34.8319 63.5401 34.9966C63.5401 34.9966 68.8762 36.1844 69.9039 33.5211C70.0455 33.6744 70.1421 33.8638 70.1831 34.0684C70.224 34.2731 70.2077 34.4851 70.1359 34.6811C70.1359 34.6811 71.7112 34.0431 71.2681 32.0038C71.2681 32.0038 72.5139 31.969 72.8109 30.9551C72.8109 30.9551 70.818 31.0503 70.8296 28.8509C70.8435 26.3105 69.5072 26.6794 69.5072 26.6794C69.5072 26.6794 67.8716 24.248 64.0923 25.872Z" fill="#455A64"/> <path d="M65.0877 33.8296V35.5255C65.0877 35.5255 63.3315 37.479 65.0436 37.6344C66.7558 37.7899 67.8276 35.848 67.8276 35.848V32.2613L65.0877 33.8296Z" fill="#FFA8A7"/> <path d="M67.799 31.6952V31.7927C67.1888 34.2055 65.5996 34.7298 65.0869 34.8528L65.0684 31.1199L67.7224 31.106L67.799 31.6952Z" fill="#F28F8F"/> <path d="M65.2615 26.336C64.2476 26.4196 62.1411 27.1596 62.1109 29.83C62.0808 32.5003 62.4868 34.5372 63.8718 34.6208C65.2568 34.7043 68.3494 33.4608 68.4932 29.9808C68.6371 26.5008 66.2475 26.2432 65.2615 26.336Z" fill="#FFA8A7"/> <path d="M63.9779 30.8902L64.0034 32.4585L63.0801 32.1917L63.9779 30.8902Z" fill="#F28F8F"/> <path d="M65.3561 30.8484C65.3574 30.9119 65.3399 30.9744 65.3057 31.0279C65.2715 31.0814 65.2221 31.1235 65.1639 31.1489C65.1056 31.1743 65.0412 31.1817 64.9787 31.1704C64.9162 31.159 64.8585 31.1293 64.8129 31.0851C64.7674 31.0408 64.736 30.984 64.7228 30.9219C64.7096 30.8597 64.7152 30.7951 64.7389 30.7361C64.7625 30.6772 64.8032 30.6266 64.8557 30.5908C64.9081 30.5551 64.9701 30.5357 65.0336 30.5352C65.0754 30.5343 65.117 30.5417 65.1559 30.557C65.1949 30.5723 65.2304 30.5952 65.2604 30.6243C65.2904 30.6535 65.3143 30.6883 65.3307 30.7268C65.3472 30.7652 65.3558 30.8066 65.3561 30.8484Z" fill="#263238"/> <path d="M63.2526 30.6558C63.2535 30.6978 63.2461 30.7395 63.2309 30.7785C63.2156 30.8176 63.1927 30.8533 63.1636 30.8835C63.1345 30.9136 63.0997 30.9378 63.0612 30.9545C63.0227 30.9711 62.9813 30.98 62.9394 30.9806C62.876 30.982 62.8136 30.9645 62.7602 30.9304C62.7067 30.8963 62.6646 30.847 62.6392 30.7889C62.6137 30.7308 62.6061 30.6665 62.6173 30.6041C62.6285 30.5417 62.658 30.484 62.702 30.4383C62.746 30.3927 62.8026 30.3611 62.8646 30.3477C62.9265 30.3342 62.9911 30.3395 63.0501 30.3628C63.1091 30.3861 63.1598 30.4264 63.1959 30.4786C63.2319 30.5307 63.2517 30.5924 63.2526 30.6558Z" fill="#263238"/> <path d="M64.8414 32.9666C64.4937 33.0553 64.1513 33.1637 63.816 33.2914C63.816 33.2914 63.7208 32.7462 64.1732 32.6209C64.3074 32.5925 64.4472 32.6114 64.569 32.6745C64.6908 32.7375 64.787 32.8407 64.8414 32.9666Z" fill="#F28F8F"/> <path d="M63.136 29.475L62.5166 29.8531C62.5166 29.8531 62.7486 30.0991 62.9945 29.9459C63.0627 29.8908 63.1127 29.8163 63.138 29.7323C63.1632 29.6483 63.1626 29.5586 63.136 29.475Z" fill="#263238"/> <path d="M66.8899 30.8392C66.8899 30.8392 66.8667 31.8275 67.514 31.8275H68.783V29.6861C68.783 27.2826 66.9595 24.7724 63.0805 26.7583C63.0805 26.7583 62.8531 30.1014 66.8899 30.8392Z" fill="#455A64"/> <path d="M62.6146 31.7741C62.0114 31.7741 61.5195 31.3565 61.5195 30.8461C61.5195 30.3357 62.0114 29.9181 62.6146 29.9181C63.2178 29.9181 63.7096 30.3357 63.7096 30.8461C63.7096 31.3565 63.2178 31.7741 62.6146 31.7741ZM62.6146 30.0967C62.1158 30.0967 61.7098 30.4308 61.7098 30.8391C61.7098 31.2475 62.1158 31.5838 62.6146 31.5838C63.1134 31.5838 63.5194 31.2498 63.5194 30.8391C63.5194 30.4285 63.1134 30.0967 62.6146 30.0967Z" fill="#20C0E8"/> <path d="M65.3074 31.7811C64.6322 31.7811 64.0801 31.3588 64.0801 30.8391C64.0801 30.3195 64.6322 29.9111 65.3074 29.9111C65.9825 29.9111 66.5346 30.3334 66.5346 30.8391C66.5346 31.3449 65.9848 31.7811 65.3074 31.7811ZM65.3074 30.1014C64.7436 30.1014 64.2819 30.4331 64.2819 30.8391C64.2819 31.2451 64.7459 31.5792 65.3074 31.5792C65.8688 31.5792 66.3328 31.2475 66.3328 30.8391C66.3328 30.4308 65.8734 30.1014 65.3074 30.1014Z" fill="#20C0E8"/> <path d="M64.1827 30.7394H63.6143V30.9412H64.1827V30.7394Z" fill="#20C0E8"/> <path d="M67.9018 30.7394H66.4355V30.9412H67.9018V30.7394Z" fill="#20C0E8"/> <path d="M67.5096 31.6975C67.5017 31.4526 67.5493 31.2091 67.6488 30.9853C67.6973 30.8459 67.7856 30.7237 67.9026 30.6338C68.0197 30.544 68.1605 30.4903 68.3077 30.4795C69.064 30.4679 69.1568 31.1964 69.1452 31.4539C69.1104 32.1337 68.5536 32.8621 67.5212 32.8784L67.5096 31.6975Z" fill="#FFA8A7"/> <path d="M69.3791 35.848C69.3791 35.848 67.6113 40.075 70.4162 41.0239L71.031 39.7108C71.031 39.7108 76.1628 35.0105 77.4179 33.9804C78.6731 32.9503 77.063 31.4284 75.5063 30.0016C73.9495 28.5748 72.3882 27.1944 72.3882 27.1944L71.6087 25.814C71.5229 25.6633 71.4063 25.5324 71.2663 25.43C71.1263 25.3276 70.9663 25.2561 70.7967 25.2201C69.98 25.0507 68.4419 24.7561 67.6113 24.8048C66.4513 24.8674 68.2029 26.3128 68.4975 26.3128C68.763 26.3207 69.022 26.3965 69.2499 26.533C69.4777 26.6695 69.6668 26.862 69.7991 27.0923C70.1517 27.721 70.2143 28.8532 71.3395 28.8022L73.9472 32.6974L69.3791 35.848Z" fill="#FFA8A7"/> <path d="M73.9472 32.6974L74.852 33.8551L73.4414 33.0478L73.9472 32.6974Z" fill="#F28F8F"/> <path d="M58.0859 41.2188L58.891 42.1492L58.4247 40.7247L58.0859 41.2188Z" fill="#F28F8F"/> <path opacity="0.2" d="M65.0381 42.3742C65.0381 42.3742 67.3581 42.5621 68.0773 40.3581C68.0773 40.3581 68.1051 43.1676 65.0381 42.3742Z" fill="black"/> <path d="M61.292 73.8473C61.292 73.8473 60.9696 72.8358 61.4684 72.7824C61.9672 72.7291 62.8488 72.9935 62.9369 73.258C62.9908 73.4329 63.0128 73.616 63.0019 73.7986C63.2452 73.7162 63.4756 73.5998 63.6863 73.4529V73.0794C63.6863 73.0794 64.206 73.1304 64.2454 73.5202C64.2848 73.91 64.2918 74.3855 64.308 74.8287C64.3382 75.7242 64.4704 76.3228 63.452 76.5872C62.7257 76.7697 62.07 77.1637 61.5681 77.7194C61.2199 78.087 60.7864 78.3629 60.3061 78.5228C59.8257 78.6826 59.3133 78.7214 58.8143 78.6358C57.2808 78.4223 57.3689 77.1278 57.9095 76.7125C58.429 76.33 58.9846 75.999 59.5683 75.7242L61.292 73.8473Z" fill="#20C0E8"/> <path d="M60.7438 76.7079C60.7208 76.7085 60.698 76.7025 60.6783 76.6905C60.6585 76.6786 60.6426 76.6613 60.6324 76.6406C60.3863 76.2445 59.9949 75.9605 59.5421 75.8495C59.5256 75.8459 59.5099 75.8391 59.4961 75.8295C59.4822 75.8198 59.4704 75.8075 59.4614 75.7933C59.4523 75.779 59.4461 75.7631 59.4433 75.7465C59.4404 75.7298 59.4409 75.7128 59.4446 75.6964C59.4482 75.6802 59.4549 75.6648 59.4644 75.6512C59.474 75.6377 59.4861 75.6261 59.5001 75.6173C59.5142 75.6084 59.5298 75.6025 59.5462 75.5997C59.5625 75.5969 59.5793 75.5975 59.5954 75.6012C59.8566 75.6643 60.1025 75.7788 60.3189 75.9382C60.5352 76.0975 60.7175 76.2985 60.8552 76.5292C60.8657 76.5484 60.871 76.57 60.8706 76.5919C60.8702 76.6138 60.8641 76.6352 60.8528 76.654C60.8415 76.6728 60.8255 76.6883 60.8064 76.699C60.7873 76.7096 60.7657 76.7151 60.7438 76.7148V76.7079Z" fill="#FAFAFA"/> <path d="M61.3312 76.0814C61.3082 76.082 61.2854 76.076 61.2657 76.0641C61.246 76.0522 61.23 76.0348 61.2199 76.0141C60.9737 75.6181 60.5823 75.3341 60.1295 75.223C60.0966 75.2158 60.068 75.1959 60.0497 75.1677C60.0315 75.1394 60.0251 75.1051 60.032 75.0722C60.0353 75.0558 60.0419 75.0402 60.0513 75.0264C60.0607 75.0126 60.0728 75.0008 60.0868 74.9917C60.1009 74.9826 60.1166 74.9764 60.1331 74.9735C60.1496 74.9706 60.1665 74.971 60.1828 74.9748C60.4441 75.0375 60.6903 75.1519 60.9066 75.3113C61.123 75.4707 61.3052 75.6718 61.4426 75.9028C61.4583 75.9324 61.4618 75.967 61.4522 75.9991C61.4427 76.0312 61.4209 76.0583 61.3915 76.0745C61.3722 76.0811 61.3516 76.0834 61.3312 76.0814Z" fill="#FAFAFA"/> <path d="M61.9179 75.455C61.8949 75.4551 61.8724 75.4489 61.8528 75.437C61.8331 75.4251 61.8171 75.4081 61.8065 75.3878C61.5591 74.9929 61.1683 74.7093 60.7161 74.5966C60.6837 74.5889 60.6556 74.5688 60.6378 74.5406C60.6201 74.5124 60.614 74.4784 60.621 74.4458C60.624 74.4295 60.6303 74.414 60.6395 74.4002C60.6487 74.3864 60.6606 74.3745 60.6744 74.3654C60.6883 74.3563 60.7039 74.3501 60.7202 74.3472C60.7365 74.3443 60.7533 74.3447 60.7695 74.3484C61.031 74.4113 61.2774 74.5258 61.4941 74.6851C61.7108 74.8445 61.8935 75.0455 62.0315 75.2764C62.0471 75.3063 62.0502 75.3411 62.0402 75.3732C62.0302 75.4054 62.0079 75.4323 61.9782 75.4481C61.9589 75.455 61.9382 75.4574 61.9179 75.455Z" fill="#FAFAFA"/> <path d="M69.2287 75.6754C69.2097 75.5764 69.214 75.4743 69.241 75.3772C69.268 75.28 69.3172 75.1905 69.3845 75.1154C69.4519 75.0404 69.5357 74.982 69.6294 74.9447C69.7231 74.9074 69.8242 74.8923 69.9247 74.9006C70.7367 74.9006 71.3167 74.9238 71.2447 75.527V75.9585C71.2447 75.9585 71.2447 78.1091 71.4071 78.8051C71.5695 79.5011 71.9686 81.7051 70.3121 82.0276C68.6556 82.3501 68.0524 80.9372 68.354 79.5986C68.541 78.8442 68.6545 78.0734 68.6927 77.2971C68.7299 76.8076 68.5419 75.0166 69.0802 74.9006L69.2287 75.6754Z" fill="#20C0E8"/> <path d="M70.7456 78.3388C70.7242 78.3383 70.7033 78.3319 70.6853 78.3202C70.2646 78.1185 69.7816 78.0893 69.3397 78.239C69.3241 78.245 69.3076 78.2477 69.291 78.2472C69.2744 78.2467 69.258 78.2428 69.2429 78.2359C69.2278 78.229 69.2142 78.2192 69.203 78.207C69.1917 78.1947 69.183 78.1804 69.1773 78.1648C69.1713 78.1491 69.1685 78.1324 69.169 78.1156C69.1695 78.0988 69.1733 78.0823 69.1802 78.067C69.1871 78.0517 69.197 78.0379 69.2092 78.0264C69.2214 78.015 69.2358 78.006 69.2515 78.0001C69.5051 77.9129 69.7734 77.8769 70.041 77.894C70.3086 77.9111 70.5701 77.9811 70.8105 78.0998C70.8397 78.1168 70.861 78.1446 70.8697 78.1773C70.8784 78.2099 70.8738 78.2446 70.857 78.2738C70.846 78.2937 70.8299 78.3103 70.8103 78.3217C70.7907 78.3332 70.7683 78.3391 70.7456 78.3388Z" fill="#FAFAFA"/> <path d="M70.8335 77.376C70.8118 77.375 70.7904 77.3695 70.7709 77.3598C70.3515 77.1567 69.869 77.1267 69.4276 77.2763C69.4119 77.2849 69.3946 77.29 69.3767 77.2913C69.3588 77.2926 69.3409 77.2901 69.3241 77.2839C69.3073 77.2777 69.292 77.268 69.2793 77.2554C69.2666 77.2428 69.2567 77.2276 69.2504 77.2109C69.244 77.1941 69.2413 77.1762 69.2424 77.1583C69.2436 77.1405 69.2485 77.1231 69.257 77.1073C69.2654 77.0915 69.2772 77.0777 69.2914 77.0668C69.3056 77.056 69.322 77.0483 69.3395 77.0443C69.5924 76.9559 69.8605 76.9192 70.1279 76.9363C70.3954 76.9534 70.6566 77.0241 70.8962 77.144C70.9108 77.152 70.9236 77.1628 70.9339 77.1758C70.9443 77.1888 70.9519 77.2037 70.9565 77.2197C70.961 77.2356 70.9623 77.2523 70.9603 77.2688C70.9583 77.2853 70.9531 77.3012 70.9449 77.3157C70.9332 77.3346 70.9168 77.3501 70.8972 77.3606C70.8777 77.3712 70.8558 77.3765 70.8335 77.376Z" fill="#FAFAFA"/> <path d="M70.9223 76.4271C70.9005 76.4261 70.8792 76.4205 70.8596 76.4109C70.439 76.2093 69.9564 76.1794 69.514 76.3273C69.4982 76.3363 69.4807 76.3416 69.4626 76.3431C69.4445 76.3446 69.4264 76.3421 69.4093 76.3359C69.3923 76.3297 69.3768 76.3198 69.364 76.307C69.3511 76.2942 69.3412 76.2787 69.3349 76.2617C69.3286 76.2447 69.3261 76.2265 69.3275 76.2085C69.3289 76.1904 69.3343 76.1728 69.3432 76.157C69.352 76.1412 69.3642 76.1275 69.3789 76.1168C69.3936 76.1062 69.4104 76.0989 69.4282 76.0953C69.6811 76.0068 69.9493 75.97 70.2167 75.9872C70.4841 76.0043 70.7454 76.075 70.9849 76.1951C70.9995 76.2031 71.0123 76.2139 71.0227 76.2269C71.033 76.2399 71.0407 76.2548 71.0452 76.2708C71.0497 76.2867 71.051 76.3034 71.0491 76.3199C71.0471 76.3364 71.0418 76.3523 71.0336 76.3668C71.0219 76.3857 71.0055 76.4012 70.986 76.4117C70.9664 76.4223 70.9445 76.4276 70.9223 76.4271Z" fill="#FAFAFA"/> <path d="M58.9883 76.0211C58.6122 76.2265 58.2516 76.4591 57.9095 76.7171C57.3689 77.1324 57.2808 78.427 58.8143 78.6404C59.4599 78.7467 60.1226 78.6485 60.7097 78.3597C60.6377 77.8582 60.4429 77.3823 60.1425 76.9743C59.8422 76.5663 59.4457 76.2389 58.9883 76.0211Z" fill="white"/> <path d="M63.4515 76.39C62.7252 76.5724 62.0696 76.9665 61.5676 77.5222C61.2195 77.8897 60.786 78.1657 60.3056 78.3255C59.8252 78.4854 59.3128 78.5242 58.8138 78.4386C57.9554 78.3202 57.6051 77.8609 57.5587 77.4062C57.5146 77.9166 57.8301 78.4989 58.8138 78.6358C59.3128 78.7214 59.8252 78.6826 60.3056 78.5227C60.786 78.3629 61.2195 78.0869 61.5676 77.7194C62.0696 77.1637 62.7252 76.7696 63.4515 76.5872C64.2542 76.3807 64.3424 75.9631 64.3284 75.3576C64.3122 75.8564 64.1637 76.216 63.4515 76.39Z" fill="#37474F"/> <path d="M71.5555 79.6519C71.1367 79.2252 70.5669 78.9804 69.9691 78.9704C69.3713 78.9604 68.7936 79.1861 68.3609 79.5985C68.0593 80.9372 68.6625 82.3501 70.3189 82.0276C71.5207 81.784 71.6437 80.573 71.5555 79.6519Z" fill="#F5F5F5"/> <path d="M70.3282 81.7655C68.9966 82.0253 68.347 81.1623 68.2982 80.1183C68.2426 81.2783 68.8852 82.3083 70.3282 82.0276C71.3978 81.8188 71.6112 80.8305 71.5857 79.9675C71.5509 80.7586 71.2794 81.5775 70.3282 81.7655Z" fill="#455A64"/> </svg>