<svg width="254" height="191" viewBox="0 0 254 191" fill="none" xmlns="http://www.w3.org/2000/svg"> <path d="M254 167.199H0V167.326H254V167.199Z" fill="#EBEBEB"/> <path d="M228.55 175.373H211.725V175.5H228.55V175.373Z" fill="#EBEBEB"/> <path d="M168.26 176.756H163.846V176.883H168.26V176.756Z" fill="#EBEBEB"/> <path d="M211.216 170.66H201.468V170.787H211.216V170.66Z" fill="#EBEBEB"/> <path d="M48.5899 171.514H26.6494V171.641H48.5899V171.514Z" fill="#EBEBEB"/> <path d="M56.3318 171.514H53.1162V171.641H56.3318V171.514Z" fill="#EBEBEB"/> <path d="M114.377 173.656H66.7871V173.783H114.377V173.656Z" fill="#EBEBEB"/> <path d="M120.396 144.543H22.3067C21.5383 144.542 20.8018 144.236 20.2589 143.692C19.716 143.148 19.4111 142.411 19.4111 141.643V3.75614C19.4178 2.99212 19.7257 2.26159 20.2678 1.72323C20.81 1.18488 21.5427 0.882168 22.3067 0.880859H120.396C121.166 0.880859 121.904 1.18647 122.448 1.73045C122.992 2.27443 123.297 3.01223 123.297 3.78154V141.643C123.297 142.412 122.992 143.15 122.448 143.694C121.904 144.238 121.166 144.543 120.396 144.543ZM22.3067 0.98246C21.572 0.983805 20.8678 1.27662 20.3487 1.79664C19.8297 2.31666 19.5381 3.02139 19.5381 3.75614V141.643C19.5381 142.377 19.8297 143.082 20.3487 143.602C20.8678 144.122 21.572 144.415 22.3067 144.416H120.396C121.132 144.415 121.836 144.122 122.356 143.602C122.876 143.083 123.169 142.378 123.17 141.643V3.75614C123.169 3.02093 122.876 2.31621 122.356 1.79633C121.836 1.27646 121.132 0.983803 120.396 0.98246H22.3067Z" fill="#EBEBEB"/> <path d="M230.282 144.543H132.187C131.418 144.542 130.681 144.236 130.137 143.692C129.594 143.148 129.287 142.411 129.286 141.643V3.75614C129.294 2.99166 129.603 2.26113 130.146 1.72292C130.689 1.1847 131.422 0.882154 132.187 0.880859H230.282C231.045 0.883503 231.776 1.1868 232.317 1.72502C232.858 2.26323 233.165 2.993 233.172 3.75614V141.643C233.172 142.41 232.868 143.146 232.326 143.69C231.784 144.234 231.049 144.541 230.282 144.543ZM132.187 0.98246C131.452 0.983803 130.747 1.27646 130.227 1.79633C129.707 2.31621 129.414 3.02093 129.413 3.75614V141.643C129.414 142.378 129.707 143.083 130.227 143.602C130.747 144.122 131.452 144.415 132.187 144.416H230.282C231.017 144.415 231.722 144.122 232.241 143.602C232.761 143.083 233.054 142.378 233.055 141.643V3.75614C233.054 3.02093 232.761 2.31621 232.241 1.79633C231.722 1.27646 231.017 0.983803 230.282 0.98246H132.187Z" fill="#EBEBEB"/> <path d="M116.616 83.9544V20.1699L34.5336 20.1699V83.9544H116.616Z" fill="#E0E0E0"/> <path d="M35.6717 82.8164L115.479 82.8164L115.479 21.3078L35.6717 21.3078L35.6717 82.8164Z" fill="#EBEBEB"/> <path d="M74.4885 32.418H73.9805V40.993H74.4885V32.418Z" fill="#E0E0E0"/> <path d="M54.9855 68.6079H54.4775V40.7441H91.1856V56.8376H90.6776V41.2521H54.9855V68.6079Z" fill="#E0E0E0"/> <path d="M101.722 65.5603H101.214V57.092H81.8234V65.2657H81.3154V56.584H101.722V65.5603Z" fill="#E0E0E0"/> <path d="M83.3884 29.2676H65.0801V35.5719H83.3884V29.2676Z" fill="#F5F5F5"/> <path d="M99.9283 44.3906H82.4785V51.2385H99.9283V44.3906Z" fill="#F5F5F5"/> <path d="M87.5589 61.7344H75.5752V68.7956H87.5589V61.7344Z" fill="#F5F5F5"/> <path d="M107.889 62.877H95.0518V68.2414H107.889V62.877Z" fill="#F5F5F5"/> <path d="M66.1368 45.8379H46.3096V54.987H66.1368V45.8379Z" fill="#F5F5F5"/> <path d="M61.0617 65.2656H48.4023V71.9509H61.0617V65.2656Z" fill="#F5F5F5"/> <path d="M76.9699 41.218L74.2363 38.4844L71.5027 41.218L74.2363 43.9516L76.9699 41.218Z" fill="#F5F5F5"/> <path d="M93.6711 56.8332L90.9375 54.0996L88.2039 56.8332L90.9375 59.5668L93.6711 56.8332Z" fill="#F5F5F5"/> <path d="M200.64 30.9141H150.048V33.515H200.64V30.9141Z" fill="#E0E0E0"/> <path d="M154.605 21.334H152.375V30.9149H154.605V21.334Z" fill="#EBEBEB"/> <path d="M165.384 21.334H163.154V30.9149H165.384V21.334Z" fill="#EBEBEB"/> <path d="M177.62 21.0841L175.422 21.4629L177.049 30.9045L179.247 30.5257L177.62 21.0841Z" fill="#EBEBEB"/> <path d="M157.368 22.5918H155.138V30.9128H157.368V22.5918Z" fill="#EBEBEB"/> <path d="M162.489 22.5918H160.259V30.9128H162.489V22.5918Z" fill="#EBEBEB"/> <path d="M175.423 22.5918H173.192V30.9128H175.423V22.5918Z" fill="#EBEBEB"/> <path d="M168.31 22.2935L166.133 22.7773L167.938 30.9002L170.115 30.4164L168.31 22.2935Z" fill="#EBEBEB"/> <path d="M159.293 20.8555H158.181V30.9139H159.293V20.8555Z" fill="#EBEBEB"/> <path d="M172.547 20.8555H171.435V30.9139H172.547V20.8555Z" fill="#EBEBEB"/> <path d="M195.788 23.3301H184.927V30.8282H195.788V23.3301Z" fill="#EBEBEB"/> <path d="M150.048 52.9199L200.64 52.9199V50.319L150.048 50.319V52.9199Z" fill="#E0E0E0"/> <path d="M196.083 50.3203H198.313V40.7394H196.083V50.3203Z" fill="#EBEBEB"/> <path d="M185.303 50.3203H187.533V40.7394H185.303V50.3203Z" fill="#EBEBEB"/> <path d="M171.445 49.9376L173.643 50.3164L175.27 40.8748L173.072 40.4959L171.445 49.9376Z" fill="#EBEBEB"/> <path d="M193.32 50.3203H195.55V41.9993H193.32V50.3203Z" fill="#EBEBEB"/> <path d="M188.194 50.3203H190.424V41.9993H188.194V50.3203Z" fill="#EBEBEB"/> <path d="M175.265 50.3203H177.495V41.9993H175.265V50.3203Z" fill="#EBEBEB"/> <path d="M180.581 49.8248L182.758 50.3086L184.563 42.1858L182.386 41.7019L180.581 49.8248Z" fill="#EBEBEB"/> <path d="M191.394 50.3203H192.507V40.2619H191.394V50.3203Z" fill="#EBEBEB"/> <path d="M178.14 50.3203H179.253V40.2619H178.14V50.3203Z" fill="#EBEBEB"/> <path d="M154.905 50.2324H165.766V42.7343H154.905V50.2324Z" fill="#EBEBEB"/> <path d="M189.56 65.666H161.184V166.829H189.56V65.666Z" fill="#F5F5F5"/> <path d="M187.112 68.5508H163.632V164.532H187.112V68.5508Z" fill="#EBEBEB"/> <path d="M182.834 71.377H167.904V72.3675H182.834V71.377Z" fill="#E0E0E0"/> <path d="M182.834 75.6484H167.904V76.639H182.834V75.6484Z" fill="#E0E0E0"/> <path d="M182.834 79.9258H167.904V80.9164H182.834V79.9258Z" fill="#E0E0E0"/> <path d="M182.834 84.2031H167.904V85.1937H182.834V84.2031Z" fill="#E0E0E0"/> <path d="M182.834 88.4805H167.904V89.4711H182.834V88.4805Z" fill="#E0E0E0"/> <path d="M182.834 92.752H167.904V93.7425H182.834V92.752Z" fill="#E0E0E0"/> <path d="M182.834 97.0293H167.904V98.0199H182.834V97.0293Z" fill="#E0E0E0"/> <path d="M182.834 131.809H167.904V132.799H182.834V131.809Z" fill="#E0E0E0"/> <path d="M182.834 136.086H167.904V137.077H182.834V136.086Z" fill="#E0E0E0"/> <path d="M182.834 140.363H167.904V141.354H182.834V140.363Z" fill="#E0E0E0"/> <path d="M182.834 144.635H167.904V145.625H182.834V144.635Z" fill="#E0E0E0"/> <path d="M182.834 148.912H167.904V149.903H182.834V148.912Z" fill="#E0E0E0"/> <path d="M182.834 153.189H167.904V154.18H182.834V153.189Z" fill="#E0E0E0"/> <path d="M182.834 157.467H167.904V158.457H182.834V157.467Z" fill="#E0E0E0"/> <path d="M183.571 111.671C183.571 111.997 183.474 112.316 183.292 112.588C183.111 112.859 182.853 113.071 182.551 113.196C182.25 113.321 181.918 113.354 181.597 113.29C181.277 113.226 180.983 113.069 180.752 112.838C180.521 112.607 180.364 112.313 180.3 111.993C180.237 111.672 180.269 111.34 180.394 111.039C180.519 110.737 180.731 110.479 181.002 110.298C181.274 110.116 181.593 110.02 181.92 110.02C182.137 110.019 182.352 110.061 182.552 110.144C182.753 110.227 182.935 110.348 183.088 110.502C183.242 110.655 183.364 110.837 183.446 111.038C183.529 111.239 183.571 111.454 183.571 111.671Z" fill="#E0E0E0"/> <path d="M160.35 65.666H131.974V166.829H160.35V65.666Z" fill="#F5F5F5"/> <path d="M157.902 68.5508H134.422V164.532H157.902V68.5508Z" fill="#EBEBEB"/> <path d="M153.624 71.377H138.694V72.3675H153.624V71.377Z" fill="#E0E0E0"/> <path d="M153.624 75.6484H138.694V76.639H153.624V75.6484Z" fill="#E0E0E0"/> <path d="M153.624 79.9258H138.694V80.9164H153.624V79.9258Z" fill="#E0E0E0"/> <path d="M153.624 84.2031H138.694V85.1937H153.624V84.2031Z" fill="#E0E0E0"/> <path d="M153.624 88.4805H138.694V89.4711H153.624V88.4805Z" fill="#E0E0E0"/> <path d="M153.624 92.752H138.694V93.7425H153.624V92.752Z" fill="#E0E0E0"/> <path d="M153.624 97.0293H138.694V98.0199H153.624V97.0293Z" fill="#E0E0E0"/> <path d="M153.624 131.809H138.694V132.799H153.624V131.809Z" fill="#E0E0E0"/> <path d="M153.624 136.086H138.694V137.077H153.624V136.086Z" fill="#E0E0E0"/> <path d="M153.624 140.363H138.694V141.354H153.624V140.363Z" fill="#E0E0E0"/> <path d="M153.624 144.635H138.694V145.625H153.624V144.635Z" fill="#E0E0E0"/> <path d="M153.624 148.912H138.694V149.903H153.624V148.912Z" fill="#E0E0E0"/> <path d="M153.624 153.189H138.694V154.18H153.624V153.189Z" fill="#E0E0E0"/> <path d="M153.624 157.467H138.694V158.457H153.624V157.467Z" fill="#E0E0E0"/> <path d="M154.361 111.671C154.361 111.997 154.264 112.316 154.082 112.588C153.901 112.859 153.643 113.071 153.341 113.196C153.04 113.321 152.708 113.354 152.387 113.29C152.067 113.226 151.773 113.069 151.542 112.838C151.311 112.607 151.154 112.313 151.09 111.993C151.027 111.672 151.059 111.34 151.184 111.039C151.309 110.737 151.521 110.479 151.792 110.298C152.064 110.116 152.383 110.02 152.71 110.02C152.927 110.019 153.142 110.061 153.342 110.144C153.543 110.227 153.725 110.348 153.879 110.502C154.032 110.655 154.154 110.837 154.236 111.038C154.319 111.239 154.361 111.454 154.361 111.671Z" fill="#E0E0E0"/> <path d="M218.77 65.666H190.394V166.829H218.77V65.666Z" fill="#F5F5F5"/> <path d="M216.322 68.5508H192.842V164.532H216.322V68.5508Z" fill="#EBEBEB"/> <path d="M212.044 71.377H197.114V72.3675H212.044V71.377Z" fill="#E0E0E0"/> <path d="M212.044 75.6484H197.114V76.639H212.044V75.6484Z" fill="#E0E0E0"/> <path d="M212.044 79.9258H197.114V80.9164H212.044V79.9258Z" fill="#E0E0E0"/> <path d="M212.044 84.2031H197.114V85.1937H212.044V84.2031Z" fill="#E0E0E0"/> <path d="M212.044 88.4805H197.114V89.4711H212.044V88.4805Z" fill="#E0E0E0"/> <path d="M212.044 92.752H197.114V93.7425H212.044V92.752Z" fill="#E0E0E0"/> <path d="M212.044 97.0293H197.114V98.0199H212.044V97.0293Z" fill="#E0E0E0"/> <path d="M212.044 131.809H197.114V132.799H212.044V131.809Z" fill="#E0E0E0"/> <path d="M212.044 136.086H197.114V137.077H212.044V136.086Z" fill="#E0E0E0"/> <path d="M212.044 140.363H197.114V141.354H212.044V140.363Z" fill="#E0E0E0"/> <path d="M212.044 144.635H197.114V145.625H212.044V144.635Z" fill="#E0E0E0"/> <path d="M212.044 148.912H197.114V149.903H212.044V148.912Z" fill="#E0E0E0"/> <path d="M212.044 153.189H197.114V154.18H212.044V153.189Z" fill="#E0E0E0"/> <path d="M212.044 157.467H197.114V158.457H212.044V157.467Z" fill="#E0E0E0"/> <path d="M212.781 111.671C212.781 111.997 212.684 112.316 212.502 112.588C212.321 112.859 212.063 113.071 211.761 113.196C211.46 113.321 211.128 113.354 210.807 113.29C210.487 113.226 210.193 113.069 209.962 112.838C209.731 112.607 209.574 112.313 209.51 111.993C209.447 111.672 209.479 111.34 209.604 111.039C209.729 110.737 209.941 110.479 210.212 110.298C210.484 110.116 210.803 110.02 211.13 110.02C211.347 110.019 211.562 110.061 211.762 110.144C211.963 110.227 212.145 110.348 212.298 110.502C212.452 110.655 212.573 110.837 212.656 111.038C212.739 111.239 212.781 111.454 212.781 111.671Z" fill="#E0E0E0"/> <path d="M127 190.142C181.398 190.142 225.496 187.567 225.496 184.391C225.496 181.215 181.398 178.641 127 178.641C72.6021 178.641 28.5039 181.215 28.5039 184.391C28.5039 187.567 72.6021 190.142 127 190.142Z" fill="#F5F5F5"/> <path d="M47.7066 177.528C47.7066 177.528 45.0294 164.884 49.9012 158.036C54.7729 151.188 45.5019 157.96 44.4351 164.371C44.4351 164.371 42.8349 152.905 47.5593 144.843C52.2837 136.781 43.4445 143.401 42.6926 151.706C42.6926 151.706 41.2448 141.485 43.4191 135.735C45.5933 129.984 41.8087 133.703 40.3711 137.289C38.9334 140.876 40.8232 149.812 40.8232 149.812C40.8232 149.812 37.0335 133.317 33.447 134.627C29.8606 135.938 38.8064 146.748 40.051 152.367C40.051 152.367 35.8194 144.803 32.6088 146.377C29.3983 147.952 37.5822 148.735 41.3261 160.017L42.6418 165.306C42.6418 165.306 38.7404 157.853 36.1953 160.195C33.6502 162.537 43.7391 166.616 46.0861 177.929L47.7066 177.528Z" fill="#20C0E8"/> <path d="M47.1832 178.255C47.1832 178.255 46.6193 162.314 38.7453 155.568C30.8713 148.822 43.993 154.161 47.1832 161.522C47.1832 161.522 45.6846 147.298 37.6176 139.063C29.5505 130.828 42.1184 136.112 45.4966 145.84C45.4966 145.84 44.1809 133.14 39.868 126.927C35.5551 120.714 41.1837 123.991 43.993 127.872C46.8022 131.753 47.1832 143.005 47.1832 143.005C47.1832 143.005 46.8073 122.121 51.4961 122.624C56.185 123.127 48.6818 138.738 48.8698 145.84C48.8698 145.84 51.6841 135.517 55.9818 136.447C60.2794 137.376 50.729 140.755 49.6064 155.38V162.106C49.6064 162.106 52.0448 152.002 55.7938 154.064C59.5428 156.127 48.6818 164.006 49.2304 178.255H47.1832Z" fill="#20C0E8"/> <path opacity="0.2" d="M47.1832 178.255C47.1832 178.255 46.6193 162.314 38.7453 155.568C30.8713 148.822 43.993 154.161 47.1832 161.522C47.1832 161.522 45.6846 147.298 37.6176 139.063C29.5505 130.828 42.1184 136.112 45.4966 145.84C45.4966 145.84 44.1809 133.14 39.868 126.927C35.5551 120.714 41.1837 123.991 43.993 127.872C46.8022 131.753 47.1832 143.005 47.1832 143.005C47.1832 143.005 46.8073 122.121 51.4961 122.624C56.185 123.127 48.6818 138.738 48.8698 145.84C48.8698 145.84 51.6841 135.517 55.9818 136.447C60.2794 137.376 50.729 140.755 49.6064 155.38V162.106C49.6064 162.106 52.0448 152.002 55.7938 154.064C59.5428 156.127 48.6818 164.006 49.2304 178.255H47.1832Z" fill="white"/> <path d="M36.4902 177.326H59.6449V179.826C59.6449 181.308 59.0561 182.729 58.0082 183.777C56.9602 184.825 55.5389 185.414 54.0569 185.414H42.0782C40.5962 185.414 39.1749 184.825 38.1269 183.777C37.079 182.729 36.4902 181.308 36.4902 179.826V177.326Z" fill="#263238"/> <path d="M33.457 175.99V177.758C33.4584 178.326 33.6848 178.87 34.0867 179.271C34.4886 179.672 35.0331 179.897 35.6008 179.897H60.5385C61.1057 179.897 61.6497 179.671 62.0508 179.27C62.4519 178.869 62.6772 178.325 62.6772 177.758V175.99H33.457Z" fill="#263238"/> <path opacity="0.2" d="M33.457 175.99V177.758C33.4584 178.326 33.6848 178.87 34.0867 179.271C34.4886 179.672 35.0331 179.897 35.6008 179.897H60.5385C61.1057 179.897 61.6497 179.671 62.0508 179.27C62.4519 178.869 62.6772 178.325 62.6772 177.758V175.99H33.457Z" fill="white"/> <path d="M213.061 175.479C213.146 175.306 213.187 175.115 213.182 174.923C213.176 174.73 213.125 174.542 213.031 174.374C212.937 174.206 212.804 174.063 212.643 173.957C212.482 173.852 212.298 173.786 212.106 173.767C212.271 173.276 212.283 172.747 212.138 172.249C211.994 171.751 211.701 171.31 211.298 170.984C211.202 170.894 211.079 170.839 210.948 170.826C210.808 170.841 210.676 170.9 210.572 170.994L208.337 172.594C208.157 172.705 208.006 172.856 207.895 173.036C207.437 173.92 209.083 175.068 208.403 175.779C208.21 175.987 207.895 176.033 207.651 176.186C207.143 176.516 207.056 177.247 206.808 177.821C206.559 178.395 205.7 178.837 205.37 178.329C205.614 177.781 204.862 177.313 204.273 177.232C203.683 177.151 203.048 177.13 202.718 176.567C201.87 177.313 199.965 175.236 200.005 174.402C199.67 174.463 199.362 174.627 199.125 174.871C198.887 175.115 198.731 175.427 198.68 175.764C198.582 176.454 198.558 177.152 198.608 177.847C198.608 179.203 198.151 180.529 198.172 181.88C198.172 182.937 198.598 184.105 199.563 184.527C200.041 184.701 200.55 184.77 201.057 184.73L212.04 184.659C212.304 184.679 212.569 184.636 212.812 184.532C213.32 184.273 213.417 183.623 213.462 183.064C213.655 180.676 213.852 178.29 214.052 175.906L213.061 175.479Z" fill="#20C0E8"/> <path opacity="0.3" d="M213.061 175.479C213.146 175.306 213.187 175.115 213.182 174.923C213.176 174.73 213.125 174.542 213.031 174.374C212.937 174.206 212.804 174.063 212.643 173.957C212.482 173.852 212.298 173.786 212.106 173.767C212.271 173.276 212.283 172.747 212.138 172.249C211.994 171.751 211.701 171.31 211.298 170.984C211.202 170.894 211.079 170.839 210.948 170.826C210.808 170.841 210.676 170.9 210.572 170.994L208.337 172.594C208.157 172.705 208.006 172.856 207.895 173.036C207.437 173.92 209.083 175.068 208.403 175.779C208.21 175.987 207.895 176.033 207.651 176.186C207.143 176.516 207.056 177.247 206.808 177.821C206.559 178.395 205.7 178.837 205.37 178.329C205.614 177.781 204.862 177.313 204.273 177.232C203.683 177.151 203.048 177.13 202.718 176.567C201.87 177.313 199.965 175.236 200.005 174.402C199.67 174.463 199.362 174.627 199.125 174.871C198.887 175.115 198.731 175.427 198.68 175.764C198.582 176.454 198.558 177.152 198.608 177.847C198.608 179.203 198.151 180.529 198.172 181.88C198.172 182.937 198.598 184.105 199.563 184.527C200.041 184.701 200.55 184.77 201.057 184.73L212.04 184.659C212.304 184.679 212.569 184.636 212.812 184.532C213.32 184.273 213.417 183.623 213.462 183.064C213.655 180.676 213.852 178.29 214.052 175.906L213.061 175.479Z" fill="white"/> <path d="M213.7 163.873H196.662L196.799 165.595L196.901 166.825L197.16 170.025L197.307 171.859L197.505 174.307L197.587 175.354L197.617 175.669L197.719 176.903L197.851 178.59L197.937 179.641L198.024 180.708L198.125 181.938L198.201 182.872L198.288 183.924L198.323 184.376H213.965L214 183.924L214.081 182.877L214.158 181.938L214.259 180.703L214.346 179.641L214.432 178.59L214.569 176.898L214.666 175.669L214.691 175.354L214.777 174.307L214.976 171.859L215.123 170.025L215.382 166.825L215.478 165.595L215.621 163.873H213.7ZM214.716 165.001L214.386 164.671H214.747L214.716 165.001ZM214.635 166.047L214.6 166.464L213.076 167.988L211.328 166.24L212.898 164.671H213.264L214.635 166.047ZM214.193 171.498L213.076 172.616L211.328 170.868L213.081 169.121L214.29 170.33L214.193 171.498ZM197.978 170.33L199.187 169.121L200.934 170.868L199.187 172.616L198.069 171.498L197.978 170.33ZM212.512 168.552L210.759 170.304L209.012 168.552L210.759 166.804L212.512 168.552ZM209.758 164.671H211.76L210.744 165.687L209.758 164.671ZM210.19 170.868L208.448 172.616L206.695 170.868L208.448 169.121L210.19 170.868ZM204.384 173.18L206.131 171.437L207.879 173.18L206.131 174.932L204.384 173.18ZM205.562 175.496L203.815 177.249L202.067 175.501L203.82 173.749L205.562 175.496ZM208.448 173.749L210.19 175.501L208.448 177.249L206.695 175.496L208.448 173.749ZM206.131 170.304L204.384 168.552L206.131 166.804L207.879 168.552L206.131 170.304ZM205.562 170.868L203.82 172.616L202.067 170.868L203.82 169.121L205.562 170.868ZM201.498 170.304L199.751 168.552L201.498 166.804L203.251 168.552L201.498 170.304ZM201.498 171.437L203.251 173.18L201.498 174.932L199.751 173.18L201.498 171.437ZM203.251 177.813L201.498 179.56L199.751 177.813L201.498 176.065L203.251 177.813ZM203.815 178.382L205.562 180.129L203.82 181.882L202.067 180.129L203.815 178.382ZM204.384 177.813L206.131 176.065L207.879 177.813L206.131 179.56L204.384 177.813ZM208.448 178.382L210.19 180.129L208.448 181.882L206.695 180.129L208.448 178.382ZM210.769 180.713L212.522 182.466L211.389 183.599H210.155L209.022 182.466L210.769 180.713ZM209.022 177.833L210.769 176.085L212.522 177.833L210.769 179.58L209.022 177.833ZM209.022 173.2L210.769 171.457L212.522 173.2L210.769 174.953L209.022 173.2ZM210.2 166.261L208.458 168.013L206.705 166.266L208.27 164.696H208.641L210.2 166.261ZM206.136 165.697L205.12 164.681H207.117L206.136 165.697ZM205.567 166.261L203.83 168.013L202.077 166.266L203.642 164.696H204.013L205.567 166.261ZM202.519 164.691L201.503 165.707L200.487 164.691H202.519ZM199.39 164.691L200.955 166.261L199.197 168.013L197.673 166.489L197.643 166.073L199.009 164.696L199.39 164.691ZM197.866 164.691L197.541 165.016L197.516 164.691H197.866ZM197.759 167.739L198.613 168.592L197.886 169.324L197.759 167.739ZM198.237 173.601L198.166 172.773L198.613 173.22L198.237 173.601ZM198.318 174.658L199.182 173.789L200.929 175.542L199.182 177.289L198.476 176.583L198.318 174.658ZM198.577 177.894V177.818L198.613 177.853L198.577 177.894ZM198.882 181.617L198.664 178.935L199.172 178.427L200.919 180.175L199.172 181.922L198.872 181.623L198.882 181.617ZM199.045 183.619L199.009 183.218L199.182 183.05L199.746 183.619H199.045ZM199.746 182.486L201.493 180.734L203.246 182.486L202.113 183.619H200.879L199.746 182.486ZM203.246 183.619L203.815 183.05L204.379 183.619H203.246ZM205.511 183.619L204.379 182.486L206.126 180.734L207.874 182.486L206.756 183.578L205.511 183.619ZM207.874 183.619L208.443 183.05L209.012 183.619H207.874ZM213.208 183.619H212.502L213.071 183.05L213.238 183.218L213.208 183.619ZM213.37 181.617L213.071 181.917L211.328 180.129L213.081 178.382L213.589 178.89L213.37 181.617ZM213.68 177.813V177.894L213.645 177.853L213.69 177.813H213.68ZM213.777 176.583L213.071 177.289L211.328 175.501L213.081 173.749L213.944 174.617L213.777 176.583ZM214.02 173.606L213.634 173.22L214.087 172.773L214.02 173.606ZM214.498 167.734L214.366 169.329L213.634 168.592L214.498 167.734Z" fill="#20C0E8"/> <g opacity="0.6"> <path opacity="0.6" d="M213.7 163.873H196.662L196.799 165.595L196.901 166.825L197.16 170.025L197.307 171.859L197.505 174.307L197.587 175.354L197.617 175.669L197.719 176.903L197.851 178.59L197.937 179.641L198.024 180.708L198.125 181.938L198.201 182.872L198.288 183.924L198.323 184.376H213.965L214 183.924L214.081 182.877L214.158 181.938L214.259 180.703L214.346 179.641L214.432 178.59L214.569 176.898L214.666 175.669L214.691 175.354L214.777 174.307L214.976 171.859L215.123 170.025L215.382 166.825L215.478 165.595L215.621 163.873H213.7ZM214.716 165.001L214.386 164.671H214.747L214.716 165.001ZM214.635 166.047L214.6 166.464L213.076 167.988L211.328 166.24L212.898 164.671H213.264L214.635 166.047ZM214.193 171.498L213.076 172.616L211.328 170.868L213.081 169.121L214.29 170.33L214.193 171.498ZM197.978 170.33L199.187 169.121L200.934 170.868L199.187 172.616L198.069 171.498L197.978 170.33ZM212.512 168.552L210.759 170.304L209.012 168.552L210.759 166.804L212.512 168.552ZM209.758 164.671H211.76L210.744 165.687L209.758 164.671ZM210.19 170.868L208.448 172.616L206.695 170.868L208.448 169.121L210.19 170.868ZM204.384 173.18L206.131 171.437L207.879 173.18L206.131 174.932L204.384 173.18ZM205.562 175.496L203.815 177.249L202.067 175.501L203.82 173.749L205.562 175.496ZM208.448 173.749L210.19 175.501L208.448 177.249L206.695 175.496L208.448 173.749ZM206.131 170.304L204.384 168.552L206.131 166.804L207.879 168.552L206.131 170.304ZM205.562 170.868L203.82 172.616L202.067 170.868L203.82 169.121L205.562 170.868ZM201.498 170.304L199.751 168.552L201.498 166.804L203.251 168.552L201.498 170.304ZM201.498 171.437L203.251 173.18L201.498 174.932L199.751 173.18L201.498 171.437ZM203.251 177.813L201.498 179.56L199.751 177.813L201.498 176.065L203.251 177.813ZM203.815 178.382L205.562 180.129L203.82 181.882L202.067 180.129L203.815 178.382ZM204.384 177.813L206.131 176.065L207.879 177.813L206.131 179.56L204.384 177.813ZM208.448 178.382L210.19 180.129L208.448 181.882L206.695 180.129L208.448 178.382ZM210.769 180.713L212.522 182.466L211.389 183.599H210.155L209.022 182.466L210.769 180.713ZM209.022 177.833L210.769 176.085L212.522 177.833L210.769 179.58L209.022 177.833ZM209.022 173.2L210.769 171.457L212.522 173.2L210.769 174.953L209.022 173.2ZM210.2 166.261L208.458 168.013L206.705 166.266L208.27 164.696H208.641L210.2 166.261ZM206.136 165.697L205.12 164.681H207.117L206.136 165.697ZM205.567 166.261L203.83 168.013L202.077 166.266L203.642 164.696H204.013L205.567 166.261ZM202.519 164.691L201.503 165.707L200.487 164.691H202.519ZM199.39 164.691L200.955 166.261L199.197 168.013L197.673 166.489L197.643 166.073L199.009 164.696L199.39 164.691ZM197.866 164.691L197.541 165.016L197.516 164.691H197.866ZM197.759 167.739L198.613 168.592L197.886 169.324L197.759 167.739ZM198.237 173.601L198.166 172.773L198.613 173.22L198.237 173.601ZM198.318 174.658L199.182 173.789L200.929 175.542L199.182 177.289L198.476 176.583L198.318 174.658ZM198.577 177.894V177.818L198.613 177.853L198.577 177.894ZM198.882 181.617L198.664 178.935L199.172 178.427L200.919 180.175L199.172 181.922L198.872 181.623L198.882 181.617ZM199.045 183.619L199.009 183.218L199.182 183.05L199.746 183.619H199.045ZM199.746 182.486L201.493 180.734L203.246 182.486L202.113 183.619H200.879L199.746 182.486ZM203.246 183.619L203.815 183.05L204.379 183.619H203.246ZM205.511 183.619L204.379 182.486L206.126 180.734L207.874 182.486L206.756 183.578L205.511 183.619ZM207.874 183.619L208.443 183.05L209.012 183.619H207.874ZM213.208 183.619H212.502L213.071 183.05L213.238 183.218L213.208 183.619ZM213.37 181.617L213.071 181.917L211.328 180.129L213.081 178.382L213.589 178.89L213.37 181.617ZM213.68 177.813V177.894L213.645 177.853L213.69 177.813H213.68ZM213.777 176.583L213.071 177.289L211.328 175.501L213.081 173.749L213.944 174.617L213.777 176.583ZM214.02 173.606L213.634 173.22L214.087 172.773L214.02 173.606ZM214.498 167.734L214.366 169.329L213.634 168.592L214.498 167.734Z" fill="white"/> </g> <path d="M196.403 165.387H215.88C216.34 165.387 216.713 165.014 216.713 164.554V163.99C216.713 163.53 216.34 163.157 215.88 163.157H196.403C195.943 163.157 195.57 163.53 195.57 163.99V164.554C195.57 165.014 195.943 165.387 196.403 165.387Z" fill="#20C0E8"/> <path d="M214.357 183.176H197.928C197.468 183.176 197.095 183.549 197.095 184.009V184.573C197.095 185.033 197.468 185.406 197.928 185.406H214.357C214.817 185.406 215.19 185.033 215.19 184.573V184.009C215.19 183.549 214.817 183.176 214.357 183.176Z" fill="#20C0E8"/> <path d="M186.401 174.231L172.238 172.839V156.867H166.624V172.834L152.4 174.231C151.719 174.297 151.087 174.615 150.627 175.122C150.167 175.629 149.912 176.289 149.911 176.974V179.102H188.88V176.974C188.88 176.291 188.626 175.632 188.168 175.125C187.71 174.619 187.08 174.3 186.401 174.231Z" fill="#263238"/> <path opacity="0.1" d="M186.401 174.231L172.238 172.839V156.867H166.624V172.834L152.4 174.231C151.719 174.297 151.087 174.615 150.627 175.122C150.167 175.629 149.912 176.289 149.911 176.974V179.102H188.88V176.974C188.88 176.291 188.626 175.632 188.168 175.125C187.71 174.619 187.08 174.3 186.401 174.231Z" fill="white"/> <path d="M151.415 185.406C153.44 185.406 155.083 183.764 155.083 181.738C155.083 179.712 153.44 178.07 151.415 178.07C149.389 178.07 147.747 179.712 147.747 181.738C147.747 183.764 149.389 185.406 151.415 185.406Z" fill="#263238"/> <path d="M187.387 185.406C189.412 185.406 191.054 183.764 191.054 181.738C191.054 179.712 189.412 178.07 187.387 178.07C185.361 178.07 183.719 179.712 183.719 181.738C183.719 183.764 185.361 185.406 187.387 185.406Z" fill="#263238"/> <path d="M165.659 143.416H173.228V159.042C173.228 159.599 173.007 160.132 172.614 160.526C172.22 160.919 171.687 161.14 171.13 161.14H167.783C167.226 161.14 166.693 160.919 166.299 160.526C165.906 160.132 165.685 159.599 165.685 159.042V143.416H165.659Z" fill="#263238"/> <path opacity="0.2" d="M165.659 143.416H173.228V159.042C173.228 159.599 173.007 160.132 172.614 160.526C172.22 160.919 171.687 161.14 171.13 161.14H167.783C167.226 161.14 166.693 160.919 166.299 160.526C165.906 160.132 165.685 159.599 165.685 159.042V143.416H165.659Z" fill="white"/> <path d="M189.032 112.641C189.032 112.641 184.826 138.894 176.53 143.41H184.963C184.963 143.41 193.299 134.485 195.839 112.641H189.032Z" fill="#263238"/> <path opacity="0.1" d="M189.032 112.641C189.032 112.641 184.826 138.894 176.53 143.41H184.963C184.963 143.41 193.299 134.485 195.839 112.641H189.032Z" fill="white"/> <path d="M187.838 145.453H150.027V142.248C150.027 141.574 150.295 140.928 150.771 140.452C151.248 139.975 151.894 139.708 152.567 139.708H185.298C185.972 139.708 186.618 139.975 187.094 140.452C187.57 140.928 187.838 141.574 187.838 142.248V145.453Z" fill="#20C0E8"/> <path d="M149.474 145.453H188.392C188.956 145.453 189.413 144.996 189.413 144.432V143.599C189.413 143.035 188.956 142.578 188.392 142.578H149.474C148.91 142.578 148.453 143.035 148.453 143.599V144.432C148.453 144.996 148.91 145.453 149.474 145.453Z" fill="#263238"/> <path opacity="0.6" d="M149.474 145.453H188.392C188.956 145.453 189.413 144.996 189.413 144.432V143.599C189.413 143.035 188.956 142.578 188.392 142.578H149.474C148.91 142.578 148.453 143.035 148.453 143.599V144.432C148.453 144.996 148.91 145.453 149.474 145.453Z" fill="white"/> <path d="M196.835 117.981H183.317C179.359 117.981 176.789 114.806 177.576 110.869L178.628 105.641C179.41 101.725 183.261 98.5293 187.218 98.5293H200.731C204.693 98.5293 207.264 101.704 206.477 105.641L205.425 110.869C204.638 114.806 200.792 117.981 196.835 117.981Z" fill="#20C0E8"/> <path d="M128.382 100.394L124.881 98.4174C124.335 97.9761 123.69 97.6729 123.002 97.5335C121.07 97.5016 119.139 97.6529 117.236 97.9856C116.728 98.1837 116.911 102.263 117.236 102.329C117.561 102.395 122.616 102.456 123.068 102.329C123.52 102.202 124.622 100.968 124.622 100.968L127.218 102.705L128.382 100.394Z" fill="#EBB376"/> <path d="M144.221 94.9258C142.382 96.5717 136.601 103.465 135.697 103.714C134.793 103.963 126.34 98.6342 126.34 98.6342L125.141 101.992C125.141 101.992 133.096 108.54 135.697 108.992C138.516 109.5 147.914 101.88 147.914 101.88L144.221 94.9258Z" fill="#20C0E8"/> <path opacity="0.5" d="M147.915 101.881C147.915 101.881 145.796 103.598 143.256 105.346C140.462 107.276 137.16 109.252 135.692 108.993C133.086 108.546 125.131 101.998 125.131 101.998L126.33 98.64C126.33 98.64 134.793 103.959 135.692 103.72C136.591 103.481 142.377 96.5776 144.206 94.9316L146.624 99.4732L147.915 101.881Z" fill="white"/> <path opacity="0.2" d="M147.914 101.882C147.914 101.882 145.796 103.599 143.256 105.346C143.688 102.954 145.638 100.551 146.624 99.4688L147.914 101.882Z" fill="black"/> <path d="M153.178 116.471C153.178 116.471 144.638 101.546 144.222 94.927C144.222 94.927 147.153 89.5067 150.998 88.323C154.844 87.1394 165.024 87.815 165.024 87.815C165.024 87.815 173.076 96.0751 177.435 114.866L153.178 116.471Z" fill="#20C0E8"/> <path opacity="0.7" d="M153.178 116.471C153.178 116.471 144.638 101.546 144.222 94.927C144.222 94.927 147.153 89.5067 150.998 88.323C154.844 87.1394 165.024 87.815 165.024 87.815C165.024 87.815 173.076 96.0751 177.435 114.866L153.178 116.471Z" fill="white"/> <path opacity="0.1" d="M159.202 99.1829L164.262 97.9941L166.106 102.673L164.16 104.751L160.99 103.714L159.202 99.1829Z" fill="black"/> <path d="M157.699 180.357L153.36 181.165L149.51 171.498L153.843 170.695L157.699 180.357Z" fill="#EBB376"/> <path opacity="0.2" d="M153.843 170.695L149.515 171.503L151.714 177.03L155.971 176.019L153.843 170.695Z" fill="black"/> <path d="M111.562 182.013L107.95 179.484L112.156 169.969L115.763 172.499L111.562 182.013Z" fill="#EBB376"/> <path opacity="0.2" d="M115.764 172.497L112.157 169.973L109.754 175.413L113.452 177.745L115.764 172.497Z" fill="black"/> <path d="M171.912 131.158L158.069 135.4L130.454 143.873C124.089 158.656 116.291 174.109 116.291 174.109L109.067 171.143C109.067 171.143 116.845 145.189 119.116 138.702C122.743 128.349 161.493 121.43 161.493 121.43L171.912 131.158Z" fill="#263238"/> <path d="M115.931 176.821L107.036 172.97L108.194 168.906L117.867 173.321L115.931 176.821Z" fill="#20C0E8"/> <path opacity="0.2" d="M115.931 176.821L107.036 172.97L108.194 168.906L117.867 173.321L115.931 176.821Z" fill="white"/> <path d="M107.397 179.224C107.397 179.224 107.346 179.173 107.346 179.168L107.29 179.112L107.351 179.163C107.381 179.102 107.996 178.015 107.767 177.451C107.738 177.38 107.693 177.317 107.636 177.266C107.579 177.215 107.511 177.178 107.437 177.157C107.356 177.125 107.267 177.122 107.184 177.148C107.101 177.174 107.029 177.227 106.98 177.299C106.831 177.648 106.81 178.038 106.919 178.401C106.624 178.03 106.254 177.66 105.944 177.644C105.878 177.644 105.813 177.66 105.755 177.69C105.697 177.72 105.646 177.764 105.608 177.817C105.537 177.893 105.489 177.988 105.469 178.09C105.449 178.193 105.459 178.299 105.497 178.396C105.649 178.643 105.888 178.824 106.167 178.904C106.528 179.053 106.905 179.162 107.29 179.229H107.325H107.356L107.397 179.224ZM107.148 177.436C107.183 177.385 107.244 177.334 107.386 177.38H107.432C107.47 177.396 107.503 177.42 107.531 177.45C107.559 177.479 107.581 177.515 107.595 177.553C107.737 177.888 107.488 178.543 107.31 178.924C107.293 178.895 107.275 178.866 107.254 178.838C107.06 178.397 107.022 177.902 107.148 177.436ZM105.664 178.32C105.644 178.257 105.641 178.19 105.655 178.126C105.67 178.062 105.701 178.002 105.746 177.954C105.763 177.927 105.787 177.905 105.816 177.89C105.844 177.875 105.876 177.867 105.908 177.868C106.218 177.868 106.741 178.513 107.077 179.016C106.315 178.843 105.796 178.589 105.664 178.32Z" fill="#20C0E8"/> <path d="M107.899 178.863L112.431 180.844C112.469 180.858 112.505 180.88 112.535 180.909C112.565 180.937 112.589 180.972 112.605 181.009C112.622 181.047 112.631 181.088 112.631 181.129C112.632 181.171 112.624 181.212 112.609 181.25L111.252 184.938C111.17 185.125 111.017 185.273 110.827 185.349C110.637 185.425 110.425 185.423 110.236 185.345C108.667 184.628 107.955 184.207 105.969 183.313C104.745 182.774 102.276 181.829 100.721 180.828C99.1669 179.828 100.213 178.319 100.945 178.603C102.718 179.274 105.568 179.183 107.097 178.786C107.365 178.721 107.648 178.748 107.899 178.863Z" fill="#263238"/> <path d="M152.822 180.712C152.822 180.636 152.746 179.386 152.288 178.99C152.216 178.937 152.134 178.899 152.046 178.88C151.959 178.861 151.868 178.86 151.78 178.878C151.69 178.884 151.604 178.92 151.537 178.98C151.469 179.039 151.422 179.12 151.405 179.208C151.422 179.588 151.575 179.949 151.836 180.224C151.47 180.007 151.038 179.926 150.617 179.996C150.557 180.025 150.505 180.068 150.466 180.122C150.427 180.177 150.402 180.24 150.394 180.306C150.366 180.406 150.366 180.511 150.395 180.611C150.424 180.71 150.479 180.8 150.556 180.87C150.806 181.026 151.104 181.084 151.394 181.032C151.784 180.999 152.17 180.922 152.542 180.804C152.548 180.806 152.554 180.807 152.56 180.807C152.566 180.807 152.572 180.806 152.578 180.804C152.578 180.804 152.578 180.804 152.578 180.773C152.578 180.743 152.685 180.748 152.69 180.732H152.781L152.822 180.712ZM151.608 179.249C151.608 179.188 151.648 179.117 151.791 179.092H151.841C151.882 179.089 151.923 179.095 151.962 179.109C152 179.123 152.035 179.145 152.065 179.173C152.344 179.407 152.421 180.102 152.441 180.519L152.349 180.468C151.965 180.163 151.702 179.731 151.608 179.249ZM150.709 180.712C150.663 180.665 150.63 180.608 150.613 180.544C150.596 180.481 150.596 180.415 150.612 180.351C150.614 180.319 150.625 180.287 150.644 180.26C150.663 180.233 150.689 180.212 150.719 180.199C150.998 180.067 151.735 180.392 152.283 180.682C151.506 180.885 150.927 180.895 150.709 180.712Z" fill="#20C0E8"/> <path d="M152.909 180.204L157.846 179.894C157.887 179.89 157.928 179.894 157.967 179.906C158.007 179.918 158.043 179.937 158.075 179.963C158.106 179.989 158.133 180.021 158.152 180.057C158.171 180.093 158.183 180.133 158.187 180.174L158.695 184.065C158.707 184.27 158.639 184.472 158.504 184.627C158.369 184.782 158.178 184.877 157.973 184.893C156.251 184.969 155.433 184.923 153.249 185.04C151.918 185.122 149.287 185.406 147.448 185.228C145.609 185.05 145.832 183.232 146.63 183.145C148.514 182.932 151.009 181.55 152.187 180.499C152.389 180.324 152.642 180.221 152.909 180.204Z" fill="#263238"/> <path d="M144.729 90.7045C145.486 90.4376 146.31 90.4376 147.066 90.7045C147.24 91.4434 147.656 92.103 148.248 92.5781C148.84 93.0532 149.574 93.3164 150.333 93.3258C150.708 93.3448 151.083 93.3295 151.455 93.2801C155.26 92.772 154.844 87.0977 154.844 87.0977C153.457 87.1967 152.073 86.8649 150.881 86.1477C149.87 85.5543 148.988 84.7651 148.285 83.8262L144.729 90.7045Z" fill="#EBB376"/> <path opacity="0.2" d="M144.729 90.7045C145.486 90.4376 146.31 90.4376 147.066 90.7045C147.24 91.4434 147.656 92.103 148.248 92.5781C148.84 93.0532 149.574 93.3164 150.333 93.3258C151.313 90.9026 151.186 88.1289 150.881 86.1477C149.87 85.5543 148.988 84.7651 148.285 83.8262L144.729 90.7045Z" fill="black"/> <path d="M142.077 78.1975C143.957 79.0103 143.561 81.0677 140.36 84.8015C138.455 83.1099 137.47 79.305 138.501 78.1061C139.532 76.9072 140.436 77.4914 142.077 78.1975Z" fill="#263238"/> <path d="M149.825 79.9416C150.414 84.0463 150.962 86.4186 149.352 88.9231C146.924 92.6874 141.539 91.8695 139.731 88.0188C138.115 84.5644 137.419 78.4329 141.051 76.0046C141.849 75.4663 142.772 75.1404 143.731 75.0579C144.69 74.9754 145.655 75.139 146.533 75.5331C147.411 75.9273 148.174 76.539 148.75 77.3105C149.326 78.0819 149.696 78.9875 149.825 79.9416Z" fill="#EBB376"/> <path d="M144.003 82.3078C144.074 82.638 143.952 82.9377 143.734 82.9834C143.515 83.0291 143.292 82.8005 143.226 82.4754C143.16 82.1503 143.272 81.8404 143.49 81.7947C143.709 81.749 143.912 81.9877 144.003 82.3078Z" fill="#263238"/> <path d="M140.253 83.091C140.325 83.4161 140.203 83.7209 139.989 83.7666C139.776 83.8123 139.542 83.5837 139.481 83.2586C139.42 82.9335 139.532 82.6236 139.751 82.583C139.969 82.5423 140.208 82.7608 140.253 83.091Z" fill="#263238"/> <path d="M141.509 82.9883C141.325 84.0787 140.992 85.1386 140.519 86.1379C140.778 86.2519 141.059 86.3077 141.343 86.3016C141.626 86.2954 141.905 86.2274 142.159 86.1023L141.509 82.9883Z" fill="#D58745"/> <path d="M147.468 76.6849C145.705 77.7263 146.36 79.7329 150.008 82.9943C151.684 81.069 152.182 77.1675 151.024 76.116C149.866 75.0644 149.007 75.7807 147.468 76.6849Z" fill="#263238"/> <path d="M152.426 82.7849C152.348 83.825 151.86 84.7915 151.07 85.4722C150.013 86.3612 148.916 85.5586 148.728 84.2632C148.56 83.0948 148.906 81.2152 150.196 80.8392C151.486 80.4633 152.518 81.5098 152.426 82.7849Z" fill="#EBB376"/> <path d="M145.684 80.3683C145.656 80.3939 145.621 80.4116 145.584 80.4197C145.546 80.4277 145.507 80.4257 145.471 80.414C145.222 80.3193 144.955 80.2842 144.69 80.3115C144.425 80.3389 144.171 80.4279 143.947 80.5715C143.903 80.6058 143.847 80.6214 143.792 80.6147C143.737 80.608 143.687 80.5797 143.652 80.5359C143.618 80.4921 143.602 80.4365 143.609 80.3812C143.616 80.326 143.644 80.2756 143.688 80.2413C143.965 80.0552 144.282 79.9379 144.613 79.8991C144.944 79.8602 145.28 79.9009 145.593 80.0177C145.619 80.0258 145.643 80.0389 145.663 80.0564C145.684 80.0739 145.701 80.0953 145.713 80.1195C145.726 80.1436 145.733 80.17 145.735 80.197C145.737 80.224 145.733 80.2512 145.725 80.2768C145.716 80.3093 145.702 80.3401 145.684 80.3683Z" fill="#263238"/> <path d="M138.217 81.3776C138.175 81.3715 138.136 81.3519 138.105 81.3217C138.076 81.2755 138.065 81.2196 138.075 81.1657C138.086 81.1117 138.116 81.0639 138.161 81.0321C138.438 80.8449 138.755 80.7269 139.086 80.688C139.418 80.6491 139.754 80.6905 140.066 80.8086C140.092 80.8191 140.115 80.8346 140.134 80.8542C140.153 80.8739 140.168 80.8972 140.178 80.9229C140.188 80.9485 140.193 80.976 140.192 81.0035C140.191 81.031 140.185 81.058 140.173 81.0829C140.151 81.1334 140.109 81.173 140.058 81.193C140.006 81.213 139.949 81.2118 139.899 81.1896C139.646 81.1019 139.377 81.0746 139.112 81.1099C138.848 81.1452 138.595 81.2421 138.375 81.3928C138.349 81.4012 138.321 81.4042 138.294 81.4016C138.267 81.399 138.241 81.3908 138.217 81.3776Z" fill="#263238"/> <path d="M150.562 76.5726C150.562 76.5726 151.466 74.7743 149.089 73.2147C146.711 71.6552 139.518 72.8744 136.942 76.1357C134.367 79.3971 136.602 81.3834 136.602 81.3834C136.493 80.8434 136.578 80.2825 136.841 79.7984C137.11 80.3458 137.546 80.7939 138.085 81.0786C138.903 81.4443 138.36 81.3275 138.36 81.3275C138.325 80.4681 138.603 79.6253 139.142 78.9552C139.76 79.561 140.512 80.0134 141.336 80.2759C141.516 79.5667 141.938 78.9429 142.53 78.5132C142.53 78.5132 142.977 79.9508 143.663 80.088C143.663 80.088 143.602 78.9145 145.187 78.056C145.187 78.056 145.365 79.1736 145.812 79.4682C145.827 79.5089 146.584 76.979 150.562 76.5726Z" fill="#263238"/> <path d="M143.216 87.4844C143.179 87.4845 143.144 87.4739 143.114 87.454C143.092 87.441 143.073 87.4237 143.058 87.4033C143.044 87.3828 143.033 87.3595 143.027 87.3349C143.022 87.3102 143.021 87.2846 143.025 87.2597C143.03 87.2348 143.039 87.211 143.053 87.1898C143.644 86.3494 144.504 85.7363 145.491 85.4524C145.515 85.4447 145.54 85.4419 145.565 85.4441C145.59 85.4464 145.614 85.4537 145.636 85.4656C145.658 85.4774 145.677 85.4937 145.692 85.5133C145.708 85.5328 145.719 85.5554 145.725 85.5794C145.739 85.6279 145.734 85.6801 145.71 85.7248C145.687 85.7694 145.646 85.803 145.598 85.8182C144.701 86.0798 143.918 86.6342 143.373 87.393C143.357 87.4207 143.334 87.4437 143.307 87.4597C143.279 87.4758 143.248 87.4843 143.216 87.4844Z" fill="#263238"/> <path d="M143.393 84.6998C142.937 84.6586 142.509 84.4646 142.177 84.1493C141.845 83.8339 141.629 83.4157 141.565 82.9625C141.351 81.8398 141.951 80.7781 142.901 80.5952C143.851 80.4123 144.795 81.1845 145.009 82.3071C145.114 82.8257 145.035 83.3647 144.785 83.8311C144.673 84.0443 144.515 84.2301 144.323 84.375C144.131 84.5199 143.909 84.6205 143.673 84.6693C143.581 84.6873 143.487 84.6975 143.393 84.6998ZM143.18 80.839C143.104 80.8315 143.027 80.8315 142.951 80.839C142.149 80.9914 141.641 81.9109 141.829 82.871C142.012 83.8464 142.814 84.5271 143.622 84.3696C143.82 84.3286 144.006 84.2439 144.167 84.1217C144.328 83.9995 144.459 83.843 144.552 83.6635C144.772 83.2513 144.84 82.7748 144.745 82.3173C144.692 81.9272 144.509 81.5665 144.225 81.2942C143.94 81.022 143.572 80.8543 143.18 80.8187V80.839Z" fill="#263238"/> <path d="M139.025 85.4365C138.637 85.4308 138.263 85.2887 137.968 85.0352C137.564 84.6913 137.293 84.2169 137.201 83.6941C136.988 82.5714 137.587 81.5148 138.537 81.3319C138.775 81.2913 139.018 81.3039 139.25 81.3689C139.482 81.4339 139.697 81.5497 139.878 81.7078C140.282 82.0499 140.554 82.5226 140.646 83.0438C140.748 83.5624 140.669 84.1005 140.422 84.5678C140.31 84.7805 140.152 84.9656 139.96 85.1097C139.767 85.2538 139.545 85.3533 139.31 85.401C139.216 85.4228 139.121 85.4347 139.025 85.4365ZM137.465 83.6483C137.545 84.1074 137.782 84.5243 138.136 84.8269C138.285 84.9596 138.463 85.0563 138.656 85.1095C138.848 85.1627 139.051 85.1709 139.247 85.1336C139.443 85.0963 139.628 85.0145 139.788 84.8944C139.948 84.7743 140.078 84.6191 140.168 84.4408C140.383 84.0244 140.452 83.548 140.364 83.0877C140.277 82.6273 140.038 82.2095 139.685 81.9008C139.534 81.7683 139.356 81.6712 139.162 81.6167C138.969 81.5622 138.766 81.5516 138.568 81.5859C137.76 81.7383 137.257 82.6577 137.445 83.6179L137.465 83.6483Z" fill="#263238"/> <path d="M140.513 83.2025C140.484 83.2025 140.455 83.1937 140.432 83.1771C140.417 83.1666 140.405 83.1534 140.396 83.1381C140.387 83.1229 140.381 83.106 140.379 83.0885C140.377 83.071 140.378 83.0531 140.383 83.0361C140.387 83.019 140.395 83.0031 140.406 82.9891C140.572 82.7978 140.801 82.6733 141.052 82.6387C141.302 82.6041 141.557 82.6619 141.768 82.8012C141.797 82.82 141.818 82.8495 141.827 82.8835C141.835 82.9175 141.831 82.9535 141.813 82.9841C141.805 82.9999 141.792 83.0137 141.778 83.0247C141.764 83.0357 141.747 83.0436 141.729 83.0479C141.712 83.0522 141.693 83.0528 141.675 83.0497C141.658 83.0465 141.641 83.0398 141.625 83.0298C141.469 82.9257 141.281 82.8809 141.095 82.9032C140.909 82.9256 140.736 83.0137 140.609 83.1517C140.598 83.1666 140.583 83.1788 140.567 83.1875C140.55 83.1963 140.532 83.2014 140.513 83.2025Z" fill="#263238"/> <path d="M144.877 82.4498C144.847 82.4495 144.819 82.4393 144.796 82.4209C144.773 82.4025 144.757 82.3769 144.75 82.3482C144.741 82.3145 144.745 82.2785 144.762 82.248C144.779 82.2175 144.808 82.1951 144.841 82.1856L148.651 81.1188C148.686 81.1108 148.723 81.1163 148.754 81.1342C148.785 81.1521 148.808 81.1811 148.819 81.2154C148.827 81.2497 148.821 81.2857 148.803 81.3159C148.785 81.3462 148.756 81.3684 148.723 81.3779L144.913 82.4447L144.877 82.4498Z" fill="#263238"/> <path opacity="0.2" d="M158.07 135.4L130.455 143.873C130.455 143.873 129.439 136.253 134.412 132.697C141.676 127.485 157.699 126.027 157.699 126.027C157.699 126.027 157.897 130.559 158.07 135.4Z" fill="black"/> <path d="M152.537 126.635L153.604 119.955L153.177 116.47L177.434 114.85L177.8 118.736C177.8 118.736 180.686 132.371 178.684 136.069C175.128 142.673 160.396 142.414 147.599 142.414C150.378 150.542 155.956 171.116 155.956 171.116L149.266 174.164C149.266 174.164 136.357 150.684 133.426 140.519C130.851 131.542 143.403 128.85 152.537 126.635Z" fill="#263238"/> <path d="M157.476 172.955L148.499 176.607L146.406 172.939L156.333 169.119L157.476 172.955Z" fill="#20C0E8"/> <path opacity="0.2" d="M157.476 172.955L148.499 176.607L146.406 172.939L156.333 169.119L157.476 172.955Z" fill="white"/> <path d="M169.83 118.985L178.095 118.492L177.597 115.424L169.515 115.942L169.83 118.985Z" fill="black"/> <path d="M154.549 116.898L153.178 116.99L153.604 119.957L154.788 119.885L154.549 116.898Z" fill="black"/> <path d="M155.758 119.828L168.859 119.046L168.616 115.998L155.448 116.841L155.758 119.828Z" fill="black"/> <path d="M159.609 119.87C159.324 119.871 159.049 119.764 158.839 119.571C158.629 119.378 158.499 119.113 158.476 118.828L158.38 117.721C158.353 117.423 158.444 117.127 158.635 116.897C158.825 116.667 159.098 116.521 159.396 116.492L161.748 116.288C161.897 116.274 162.048 116.29 162.191 116.335C162.334 116.381 162.467 116.455 162.581 116.553C162.695 116.649 162.788 116.766 162.856 116.899C162.924 117.032 162.965 117.176 162.977 117.325L163.074 118.432C163.087 118.582 163.071 118.732 163.025 118.875C162.98 119.018 162.907 119.151 162.809 119.265C162.714 119.381 162.597 119.476 162.464 119.545C162.332 119.614 162.186 119.655 162.037 119.667V119.413V119.667L159.685 119.865L159.609 119.87ZM161.865 116.791H161.814L159.462 116.995C159.379 117.001 159.299 117.024 159.225 117.061C159.151 117.099 159.086 117.151 159.032 117.215C158.979 117.278 158.938 117.351 158.914 117.43C158.889 117.51 158.88 117.593 158.888 117.675L158.979 118.788C158.994 118.954 159.074 119.107 159.203 119.214C159.331 119.32 159.494 119.373 159.66 119.362L162.012 119.159C162.095 119.152 162.176 119.128 162.25 119.09C162.324 119.051 162.39 118.999 162.444 118.935C162.55 118.807 162.603 118.644 162.591 118.478L162.494 117.37C162.487 117.287 162.464 117.206 162.426 117.132C162.387 117.058 162.335 116.992 162.271 116.939C162.158 116.842 162.013 116.79 161.865 116.791Z" fill="white"/> <path d="M161.281 118.33C161.219 118.33 161.16 118.307 161.113 118.267C161.067 118.227 161.036 118.172 161.027 118.112C161.018 118.045 161.036 117.978 161.077 117.924C161.118 117.871 161.178 117.836 161.245 117.827L162.215 117.695C162.248 117.689 162.282 117.69 162.315 117.698C162.348 117.706 162.379 117.72 162.406 117.74C162.433 117.76 162.455 117.785 162.472 117.814C162.489 117.843 162.5 117.875 162.505 117.908C162.514 117.976 162.496 118.044 162.455 118.098C162.414 118.152 162.353 118.188 162.286 118.198L161.311 118.33H161.281Z" fill="white"/> <path opacity="0.2" d="M152.639 95.4859C152.639 95.4859 155.098 104.178 158.07 110.06C158.07 110.06 153.391 101.338 151.644 94.6172L152.639 95.4859Z" fill="black"/> <path d="M152.766 97.1061L154.031 95.4551H154.711L155.682 96.4711L155.778 97.6293C154.584 98.1627 152.766 97.6293 152.766 97.6293V97.1061Z" fill="#20C0E8"/> <path d="M153.981 95.8765C153.954 93.7667 153.726 91.6642 153.3 89.5977L153.981 89.8923C154.624 91.9661 154.855 94.1457 154.661 96.3083L153.981 95.8765Z" fill="#20C0E8"/> <path d="M153.122 97.1565C153.122 97.1565 148.341 95.2668 147.884 92.168L147.549 92.7522C147.549 92.7522 148.687 96.6688 153.716 97.6391L153.122 97.1565Z" fill="#20C0E8"/> <path d="M155.113 96.863C155.601 96.7848 156.063 96.589 156.459 96.2925C156.854 95.996 157.172 95.6078 157.384 95.1612C158.517 92.5552 157.384 88.7299 160.188 87.0332L161.763 87.592C160.886 88.2603 160.245 89.1911 159.934 90.2488C159.365 92.4332 158.72 97.8384 155.113 97.6352V96.863Z" fill="#20C0E8"/> <path d="M153.986 86.1543L151.644 91.9049L151.456 93.2815L149.795 92.4891L147.117 90.8939C147.117 90.8939 145.929 92.5551 147.915 95.1459L149.795 93.5914L152.431 96.4819L153.178 92.9259L156.251 93.9165C156.251 93.9165 157.481 88.7654 157.481 87.2922L153.986 86.1543Z" fill="#20C0E8"/> <path opacity="0.6" d="M157.48 87.2907C157.48 88.774 156.246 93.9302 156.246 93.9302L153.167 92.9396L152.426 96.4956L149.789 93.6051L147.909 95.1596C145.923 92.5688 147.107 90.9076 147.107 90.9076L149.789 92.5027L151.45 93.2952L151.638 91.9185L153.975 86.168L157.48 87.2907Z" fill="white"/> <path opacity="0.2" d="M156.251 93.9312L153.173 92.9406L152.431 96.4813L152.269 92.0312L156.251 93.9312Z" fill="black"/> <path opacity="0.2" d="M152.431 96.4818L149.795 93.5913L147.915 95.1458L149.256 92.748L152.431 96.4818Z" fill="black"/> <path d="M139.629 102.034L135.692 101.592C135.146 101.15 134.501 100.846 133.813 100.708C131.879 100.674 129.947 100.824 128.042 101.155C127.534 101.353 127.717 105.432 128.042 105.503C128.367 105.574 133.421 105.63 133.879 105.503C134.336 105.376 135.433 104.142 135.433 104.142L138.882 104.751L139.629 102.034Z" fill="#EBB376"/> <path d="M165.024 87.7991C163.399 88.1293 155.88 102.409 155.88 102.409L136.531 101.464L136.241 104.776C136.241 104.776 153.579 108.551 157.486 107.824C161.392 107.098 168.438 94.906 168.86 93.5649C169.82 90.5118 166.117 87.5756 165.024 87.7991Z" fill="#20C0E8"/> <path opacity="0.6" d="M165.024 87.7991C163.399 88.1293 155.88 102.409 155.88 102.409L136.531 101.464L136.241 104.776C136.241 104.776 153.579 108.551 157.486 107.824C161.392 107.098 168.438 94.906 168.86 93.5649C169.82 90.5118 166.117 87.5756 165.024 87.7991Z" fill="white"/> <path d="M150.134 50.5078H96.5554C96.0165 50.5078 95.4997 50.7219 95.1186 51.103C94.7375 51.484 94.5234 52.0009 94.5234 52.5398C94.5234 53.0787 94.7375 53.5956 95.1186 53.9767C95.4997 54.3577 96.0165 54.5718 96.5554 54.5718H150.134C150.673 54.5718 151.19 54.3577 151.571 53.9767C151.952 53.5956 152.166 53.0787 152.166 52.5398C152.166 52.0009 151.952 51.484 151.571 51.103C151.19 50.7219 150.673 50.5078 150.134 50.5078Z" fill="#20C0E8"/> <path opacity="0.6" d="M150.134 50.5078H96.5554C96.0165 50.5078 95.4997 50.7219 95.1186 51.103C94.7375 51.484 94.5234 52.0009 94.5234 52.5398C94.5234 53.0787 94.7375 53.5956 95.1186 53.9767C95.4997 54.3577 96.0165 54.5718 96.5554 54.5718H150.134C150.673 54.5718 151.19 54.3577 151.571 53.9767C151.952 53.5956 152.166 53.0787 152.166 52.5398C152.166 52.0009 151.952 51.484 151.571 51.103C151.19 50.7219 150.673 50.5078 150.134 50.5078Z" fill="white"/> <path d="M128.894 50.9648H96.5959C96.1917 50.9878 95.8116 51.1645 95.5335 51.4587C95.2555 51.753 95.1006 52.1424 95.1006 52.5473C95.1006 52.9521 95.2555 53.3416 95.5335 53.6358C95.8116 53.9301 96.1917 54.1068 96.5959 54.1297H128.894C129.299 54.1068 129.679 53.9301 129.957 53.6358C130.235 53.3416 130.39 52.9521 130.39 52.5473C130.39 52.1424 130.235 51.753 129.957 51.4587C129.679 51.1645 129.299 50.9878 128.894 50.9648Z" fill="#20C0E8"/> <path d="M111.811 45.0172C111.811 45.5252 111.43 45.8604 110.795 45.8604H110.195V46.6021H109.845V44.1739H110.795C111.43 44.1688 111.811 44.4889 111.811 45.0172ZM111.465 45.0172C111.465 44.6667 111.232 44.4685 110.79 44.4685H110.2V45.5861H110.79C111.252 45.5861 111.465 45.3626 111.465 45.0172Z" fill="#263238"/> <path d="M113.949 46.6021L113.441 45.8553H113.289H112.689V46.6021H112.344V44.1738H113.284C113.919 44.1738 114.3 44.4939 114.3 45.0222C114.308 45.1909 114.26 45.3576 114.163 45.4963C114.067 45.635 113.927 45.738 113.766 45.7893L114.34 46.6021H113.949ZM113.949 45.0222C113.949 44.6717 113.715 44.4735 113.268 44.4735H112.679V45.5861H113.284C113.705 45.5861 113.939 45.3626 113.939 45.0171L113.949 45.0222Z" fill="#263238"/> <path d="M114.65 45.3829C114.641 45.126 114.709 44.8721 114.845 44.654C114.981 44.4359 115.179 44.2634 115.414 44.1587C115.649 44.054 115.91 44.0218 116.163 44.0664C116.416 44.1109 116.65 44.23 116.836 44.4085C117.021 44.587 117.148 44.8167 117.202 45.0682C117.255 45.3196 117.233 45.5814 117.136 45.8198C117.04 46.0583 116.875 46.2626 116.662 46.4065C116.449 46.5504 116.198 46.6274 115.941 46.6275C115.773 46.6351 115.606 46.6085 115.449 46.5492C115.292 46.49 115.148 46.3993 115.028 46.2828C114.907 46.1664 114.811 46.0265 114.746 45.8717C114.681 45.717 114.649 45.5507 114.65 45.3829ZM116.885 45.3829C116.887 45.1956 116.834 45.0119 116.731 44.8552C116.629 44.6985 116.482 44.5758 116.309 44.5028C116.137 44.4297 115.946 44.4095 115.763 44.4448C115.579 44.4801 115.409 44.5693 115.276 44.701C115.143 44.8328 115.052 45.0011 115.015 45.1847C114.977 45.3682 114.995 45.5587 115.067 45.732C115.138 45.9052 115.259 46.0534 115.415 46.1577C115.57 46.2619 115.753 46.3176 115.941 46.3176C116.065 46.3218 116.189 46.3006 116.305 46.2552C116.421 46.2099 116.526 46.1413 116.614 46.0538C116.703 45.9663 116.772 45.8617 116.819 45.7463C116.866 45.631 116.888 45.5073 116.885 45.3829Z" fill="#263238"/> <path d="M119.446 45.3668H119.781V46.3168C119.518 46.5231 119.191 46.6325 118.857 46.6267C118.654 46.6177 118.457 46.5594 118.282 46.4566C118.106 46.3539 117.959 46.2099 117.853 46.0372C117.746 45.8645 117.683 45.6683 117.67 45.4658C117.656 45.2633 117.693 45.0605 117.775 44.8753C117.858 44.69 117.985 44.5278 118.145 44.4027C118.305 44.2777 118.493 44.1937 118.693 44.1581C118.893 44.1224 119.098 44.1361 119.291 44.198C119.485 44.26 119.66 44.3682 119.802 44.5134L119.583 44.7267C119.492 44.635 119.382 44.5629 119.262 44.5149C119.141 44.4668 119.012 44.4438 118.882 44.4473C118.634 44.4473 118.397 44.5458 118.221 44.7211C118.046 44.8964 117.948 45.1342 117.948 45.3821C117.948 45.63 118.046 45.8677 118.221 46.043C118.397 46.2183 118.634 46.3168 118.882 46.3168C119.083 46.3218 119.281 46.267 119.451 46.1593L119.446 45.3668Z" fill="#263238"/> <path d="M122.067 46.6021L121.559 45.8553H121.407H120.802V46.6021H120.457V44.1738H121.412C122.042 44.1738 122.428 44.4939 122.428 45.0222C122.438 45.1878 122.393 45.352 122.302 45.4903C122.21 45.6286 122.076 45.7335 121.92 45.7893L122.428 46.6021H122.067ZM122.067 45.0222C122.067 44.6717 121.834 44.4735 121.392 44.4735H120.797V45.5861H121.392C121.824 45.5861 122.057 45.3626 122.057 45.0171L122.067 45.0222Z" fill="#263238"/> <path d="M124.73 46.2973V46.6021H122.967V44.1738H124.679V44.4735H123.312V45.2203H124.531V45.515H123.312V46.3024L124.73 46.2973Z" fill="#263238"/> <path d="M125.069 46.3234L125.196 46.0491C125.423 46.2342 125.707 46.3348 125.999 46.3336C126.421 46.3336 126.598 46.171 126.598 45.9577C126.598 45.3633 125.125 45.7392 125.125 44.835C125.125 44.4591 125.42 44.139 126.06 44.139C126.335 44.1328 126.606 44.2089 126.837 44.3575L126.725 44.6318C126.526 44.5062 126.296 44.4377 126.06 44.4337C125.643 44.4337 125.466 44.6115 125.466 44.8197C125.466 45.4141 126.939 45.0433 126.939 45.9374C126.939 46.3082 126.639 46.6282 125.999 46.6282C125.663 46.6372 125.335 46.5294 125.069 46.3234Z" fill="#263238"/> <path d="M127.224 46.3233L127.351 46.049C127.577 46.2334 127.861 46.3339 128.153 46.3335C128.575 46.3335 128.758 46.1709 128.758 45.9576C128.758 45.3632 127.285 45.7391 127.285 44.8349C127.285 44.459 127.574 44.1389 128.214 44.1389C128.491 44.1336 128.763 44.2095 128.997 44.3574L128.88 44.6317C128.68 44.5054 128.45 44.4368 128.214 44.4336C127.803 44.4336 127.625 44.6114 127.625 44.8197C127.625 45.414 129.098 45.0432 129.098 45.9373C129.098 46.3081 128.798 46.6281 128.153 46.6281C127.817 46.6371 127.489 46.5293 127.224 46.3233Z" fill="#263238"/> <path d="M132.11 44.168V44.4016L131.125 46.6013H130.759L131.719 44.4728H130.607V44.9096H130.276V44.173L132.11 44.168Z" fill="#263238"/> <path d="M132.344 45.3833C132.344 44.5908 132.765 44.1387 133.36 44.1387C133.954 44.1387 134.345 44.5908 134.345 45.3833C134.345 46.1758 133.924 46.6279 133.36 46.6279C132.796 46.6279 132.344 46.1758 132.344 45.3833ZM133.98 45.3833C133.98 44.7635 133.715 44.4486 133.339 44.4486C132.964 44.4486 132.689 44.7635 132.689 45.3833C132.689 46.003 132.953 46.318 133.339 46.318C133.726 46.318 133.98 46.003 133.98 45.3833Z" fill="#263238"/> <path d="M134.62 44.8088C134.609 44.7272 134.616 44.6443 134.64 44.5654C134.663 44.4866 134.703 44.4136 134.757 44.3512C134.811 44.2889 134.877 44.2386 134.951 44.2036C135.026 44.1687 135.107 44.1499 135.189 44.1484C135.524 44.1484 135.748 44.4126 135.748 44.8088C135.748 45.2051 135.524 45.4743 135.189 45.4743C135.107 45.4722 135.026 45.4527 134.951 45.4172C134.877 45.3817 134.81 45.3309 134.757 45.2682C134.703 45.2054 134.663 45.1321 134.64 45.053C134.616 44.9739 134.61 44.8907 134.62 44.8088ZM135.53 44.8088C135.53 44.5193 135.397 44.3466 135.189 44.3466C134.981 44.3466 134.849 44.5193 134.849 44.8088C134.849 45.0984 134.981 45.2762 135.189 45.2762C135.397 45.2762 135.53 45.1035 135.53 44.8088ZM136.652 44.1688H136.921L135.26 46.6021H134.991L136.652 44.1688ZM136.144 45.9569C136.144 45.5607 136.368 45.2914 136.708 45.2914C136.867 45.3155 137.011 45.3957 137.116 45.5173C137.22 45.6389 137.278 45.794 137.278 45.9544C137.278 46.1148 137.22 46.2698 137.116 46.3914C137.011 46.5131 136.867 46.5932 136.708 46.6173C136.626 46.6152 136.546 46.5958 136.472 46.5606C136.398 46.5253 136.332 46.4749 136.279 46.4127C136.226 46.3504 136.186 46.2776 136.163 46.1991C136.14 46.1206 136.134 46.0381 136.144 45.9569ZM137.043 45.9569C137.043 45.6674 136.916 45.4896 136.708 45.4896C136.5 45.4896 136.368 45.6623 136.368 45.9569C136.368 46.2516 136.495 46.4192 136.708 46.4192C136.921 46.4192 137.064 46.2465 137.064 45.9569H137.043Z" fill="#263238"/> <path d="M58.4602 106.49V104.829H57.3477L58.4602 104.179H57.6271L58.7396 103.452H59.7962V102.614H58.5719L59.7962 102.126V100.313H58.5719V99.1291H57.3477L58.5719 98.7176V97.8743H57.6931L58.4094 97.158L59.0342 96.5332H78.0233V97.3866H79.278L77.881 98.0115V98.7176H80.4413V100.023H81.5742L80.4413 100.592V102.055H79.6387V102.751H78.0233V104.829H78.9275L78.1858 105.571V106.495L58.4602 106.49Z" fill="#20C0E8"/> <path opacity="0.7" d="M58.4602 106.49V104.829H57.3477L58.4602 104.179H57.6271L58.7396 103.452H59.7962V102.614H58.5719L59.7962 102.126V100.313H58.5719V99.1291H57.3477L58.5719 98.7176V97.8743H57.6931L58.4094 97.158L59.0342 96.5332H78.0233V97.3866H79.278L77.881 98.0115V98.7176H80.4413V100.023H81.5742L80.4413 100.592V102.055H79.6387V102.751H78.0233V104.829H78.9275L78.1858 105.571V106.495L58.4602 106.49Z" fill="white"/> <path opacity="0.1" d="M58.4602 106.49V104.829H57.3477L58.4602 104.179H57.6271L58.7396 103.452H59.7962V102.614H58.5719L59.7962 102.126V100.313H58.5719V99.1291H57.3477L58.5719 98.7176V97.8743H57.6931L58.4094 97.158L59.0342 96.5332H69.0367V97.3866H70.2915L68.8945 98.0115V98.7176H71.4548V100.023H72.5877L71.4548 100.592V102.055H70.6522V102.751H69.0367V104.829H69.941L69.1993 105.571V106.495L58.4602 106.49Z" fill="black"/> <path opacity="0.1" d="M77.881 98.7177H68.8945L77.881 98.3926V98.7177Z" fill="black"/> <path opacity="0.1" d="M78.0242 102.752H69.0377L68.9971 103.382L78.0242 102.752Z" fill="black"/> <path opacity="0.1" d="M79.6389 102.055H70.6523L79.6389 102.37V102.055Z" fill="black"/> <path opacity="0.1" d="M78.0236 104.829H69.0371L78.0236 104.494V104.829Z" fill="black"/> <path opacity="0.1" d="M78.1867 105.57H69.2002V105.911L78.1867 105.57Z" fill="black"/> <path opacity="0.1" d="M80.4416 100.023H71.4551L80.4416 99.7383V100.023Z" fill="black"/> <path opacity="0.1" d="M78.0236 97.3872H69.0371L78.0236 97.0723V97.3872Z" fill="black"/> <path opacity="0.1" d="M58.5723 97.875H67.6858L58.5723 98.1544V97.875Z" fill="black"/> <path opacity="0.1" d="M68.8948 98.7188H58.5723L67.9296 99.0236L68.8948 98.7188Z" fill="black"/> <path opacity="0.1" d="M71.4551 100.023L58.5723 100.313V100.023H71.4551Z" fill="black"/> <path opacity="0.1" d="M71.4553 100.592H65.085L71.4553 100.907V100.592Z" fill="black"/> <path opacity="0.1" d="M59.7969 102.127L69.0374 102.056L59.7969 101.848V102.127Z" fill="black"/> <path opacity="0.1" d="M59.7969 102.615H69.2L59.7969 102.93V102.615Z" fill="black"/> <path opacity="0.1" d="M58.4609 104.18H68.8953V104.495L58.4609 104.18Z" fill="black"/> <path opacity="0.1" d="M58.4609 104.828H66.0251L58.4609 105.036V104.828Z" fill="black"/> <path d="M111.618 106.811L112.035 105.236H129.18L137.074 106.024L137.374 106.811H111.618Z" fill="#263238"/> <path opacity="0.4" d="M129.18 105.236V106.811H111.618L112.035 105.236H129.18Z" fill="black"/> <path d="M74.7061 87.7502L78.4602 104.768C78.5276 105.042 78.6838 105.286 78.9044 105.461C79.125 105.637 79.3975 105.734 79.6794 105.738H91.8155C91.9435 105.736 92.0691 105.703 92.1823 105.643C92.2956 105.584 92.3935 105.499 92.4683 105.395C92.5431 105.291 92.5929 105.171 92.6136 105.045C92.6343 104.918 92.6254 104.789 92.5877 104.667L88.8387 87.7807C88.7624 87.5227 88.5995 87.2989 88.3774 87.1471C88.1552 86.9953 87.8875 86.9248 87.6195 86.9475H75.4833C74.9296 86.9628 74.5842 87.2117 74.7061 87.7502Z" fill="#263238"/> <path opacity="0.4" d="M75.4023 87.7502L79.1514 104.768C79.2187 105.042 79.3749 105.286 79.5955 105.461C79.8161 105.637 80.0887 105.734 80.3706 105.738H91.8158C91.9434 105.734 92.0684 105.701 92.1811 105.641C92.2939 105.581 92.3913 105.496 92.4659 105.393C92.5405 105.289 92.5904 105.17 92.6115 105.044C92.6327 104.918 92.6246 104.789 92.588 104.667L88.839 87.7807C88.7627 87.5227 88.5998 87.2989 88.3776 87.1471C88.1555 86.9953 87.8878 86.9248 87.6197 86.9475H76.1999C75.6259 86.9628 75.2804 87.2117 75.4023 87.7502Z" fill="white"/> <path d="M80.4727 104.631V106.211C80.4727 106.612 80.9502 106.78 81.3464 106.78H109.429C109.83 106.78 110.318 106.612 110.318 106.211V104.631H80.4727Z" fill="#263238"/> <path opacity="0.2" d="M110.318 104.631V106.211C110.318 106.612 109.84 106.78 109.444 106.78H81.3667C80.9603 106.78 80.4727 106.612 80.4727 106.211V104.631H110.318Z" fill="white"/> <path opacity="0.4" d="M110.317 104.631V106.211C110.317 106.612 109.84 106.78 109.443 106.78H96.5199C96.1135 106.78 95.6309 106.612 95.6309 106.211V104.631H110.317Z" fill="black"/> <path d="M91.9072 103.381L88.4985 88.0547H76.083L79.4612 103.381H91.9072Z" fill="#20C0E8"/> <path d="M125.735 97.6867C125.76 97.879 125.743 98.0743 125.686 98.2595C125.628 98.4446 125.532 98.6153 125.403 98.7598C125.274 98.9044 125.115 99.0195 124.937 99.0973C124.76 99.1751 124.568 99.2138 124.374 99.2107H98.1101C97.6966 99.2027 97.3005 99.043 96.997 98.762C96.6936 98.481 96.5039 98.0983 96.4642 97.6867L94.9046 80.8719C94.8844 80.7021 94.8947 80.5301 94.9351 80.3639C95.0096 80.0691 95.1817 79.8083 95.4234 79.6238C95.665 79.4393 95.9621 79.3421 96.266 79.3479H122.53C122.943 79.356 123.339 79.5156 123.643 79.7966C123.946 80.0776 124.136 80.4603 124.176 80.8719L125.735 97.6867Z" fill="#263238"/> <path opacity="0.4" d="M124.277 99.1945H98.1101C97.6966 99.1864 97.3005 99.0267 96.997 98.7457C96.6936 98.4648 96.5039 98.0821 96.4642 97.6705L94.9046 80.8557C94.8844 80.6859 94.8947 80.5138 94.9351 80.3477H121.107C121.52 80.3579 121.915 80.5183 122.218 80.7989C122.521 81.0794 122.711 81.4608 122.753 81.8717L124.313 98.6865C124.332 98.8566 124.319 99.0286 124.277 99.1945Z" fill="black"/> <path d="M106.233 88.8828H111.668L110.221 104.438L118.811 105.728V106.81H100.716V105.728L104.424 104.438L106.233 88.8828Z" fill="#263238"/> <path opacity="0.1" d="M111.669 88.8828L107.646 106.566L104.425 106.47L106.233 88.8828H111.669Z" fill="white"/> <path d="M93.5428 185.409H90.5354L85.1201 110.088H89.1181L93.5428 185.409Z" fill="#263238"/> <path opacity="0.1" d="M93.5478 185.407H90.5354L85.3894 113.825L85.1201 110.203H89.1181L89.3314 113.825L93.5478 185.407Z" fill="white"/> <path opacity="0.2" d="M89.3314 113.647H85.3894L85.1201 110.203H89.1181L89.3314 113.647Z" fill="black"/> <path d="M130.389 185.409H127.376L126.889 110.088H130.882L130.389 185.409Z" fill="#263238"/> <path opacity="0.1" d="M130.882 110.203L130.805 122.36L130.394 185.407H127.376L126.965 122.36L126.889 110.203H130.882Z" fill="white"/> <path opacity="0.2" d="M130.882 110.203L130.805 122.492H126.965L126.889 110.203H130.882Z" fill="black"/> <path d="M162.357 185.409H159.35L153.935 110.088H157.933L162.357 185.409Z" fill="#263238"/> <path opacity="0.1" d="M162.362 185.407H159.35L154.199 113.825L153.935 110.203H157.933L158.146 113.825L162.362 185.407Z" fill="white"/> <path opacity="0.2" d="M158.146 113.647H154.199L153.935 110.203H157.933L158.146 113.647Z" fill="black"/> <path d="M59.0952 185.409H56.0879L60.5126 110.088H64.5055L59.0952 185.409Z" fill="#263238"/> <path opacity="0.1" d="M64.5055 110.203L64.2413 113.825L59.0952 185.407H56.0879L60.2941 113.825L60.5126 110.203H64.5055Z" fill="white"/> <path opacity="0.2" d="M60.5134 110.203H64.5062L64.2421 113.647H60.2949L60.5134 110.203Z" fill="black"/> <path d="M57.3486 108.197H161.097V110.869C161.097 111.16 160.982 111.439 160.776 111.645C160.57 111.851 160.291 111.967 160 111.967H58.4205C58.1295 111.967 57.8504 111.851 57.6446 111.645C57.4388 111.439 57.3232 111.16 57.3232 110.869V108.197H57.3486Z" fill="#20C0E8"/> <path opacity="0.4" d="M57.3486 108.197H161.097V110.869C161.097 111.16 160.982 111.439 160.776 111.645C160.57 111.851 160.291 111.967 160 111.967H58.4205C58.1295 111.967 57.8504 111.851 57.6446 111.645C57.4388 111.439 57.3232 111.16 57.3232 110.869V108.197H57.3486Z" fill="white"/> <path opacity="0.2" d="M161.102 108.197H57.3477V110.082H161.102V108.197Z" fill="black"/> <path d="M162.966 108.69H55.4787C55.1975 108.688 54.9283 108.576 54.7294 108.377C54.5306 108.179 54.4183 107.909 54.417 107.628C54.417 107.347 54.5289 107.076 54.728 106.877C54.9271 106.678 55.1971 106.566 55.4787 106.566H162.966C163.248 106.566 163.518 106.678 163.717 106.877C163.916 107.076 164.028 107.347 164.028 107.628C164.027 107.909 163.915 108.179 163.716 108.377C163.517 108.576 163.248 108.688 162.966 108.69Z" fill="#20C0E8"/> <path opacity="0.4" d="M162.966 108.69H55.4787C55.1975 108.688 54.9283 108.576 54.7294 108.377C54.5306 108.179 54.4183 107.909 54.417 107.628C54.417 107.347 54.5289 107.076 54.728 106.877C54.9271 106.678 55.1971 106.566 55.4787 106.566H162.966C163.248 106.566 163.518 106.678 163.717 106.877C163.916 107.076 164.028 107.347 164.028 107.628C164.027 107.909 163.915 108.179 163.716 108.377C163.517 108.576 163.248 108.688 162.966 108.69Z" fill="white"/> <path d="M136.967 101.771V102.127L135.743 102.615H136.967V103.453H135.91L134.793 104.179H135.631L134.519 104.83H135.631V106.491L155.357 106.496V105.571L156.098 104.83H155.189V102.752H156.81V102.056H157.612V101.771H136.967Z" fill="#20C0E8"/> <path opacity="0.9" d="M136.967 101.771V102.127L135.743 102.615H136.967V103.453H135.91L134.793 104.179H135.631L134.519 104.83H135.631V106.491L155.357 106.496V105.571L156.098 104.83H155.189V102.752H156.81V102.056H157.612V101.771H136.967Z" fill="white"/> <path opacity="0.1" d="M136.967 101.771V102.127L135.743 102.615H136.967V103.453H135.91L134.793 104.179H135.631L134.519 104.83H135.631V106.491L146.37 106.496V105.571L147.112 104.83H146.203V102.752H147.823V102.056H148.626V101.771H136.967Z" fill="black"/> <path opacity="0.1" d="M155.189 102.752H146.203L146.167 103.382L155.189 102.752Z" fill="black"/> <path opacity="0.1" d="M156.81 102.055H147.823L156.81 102.37V102.055Z" fill="black"/> <path opacity="0.1" d="M155.189 104.829H146.202L155.189 104.494V104.829Z" fill="black"/> <path opacity="0.1" d="M155.357 105.57H146.37V105.911L155.357 105.57Z" fill="black"/> <path opacity="0.1" d="M136.967 102.127L146.202 102.056L136.967 101.848V102.127Z" fill="black"/> <path opacity="0.1" d="M136.967 102.615H146.37L136.967 102.93V102.615Z" fill="black"/> <path opacity="0.1" d="M135.631 104.18H146.065V104.495L135.631 104.18Z" fill="black"/> <path opacity="0.1" d="M135.631 104.828H143.19L135.631 105.036V104.828Z" fill="black"/> </svg>