<svg width="208" height="202" viewBox="0 0 208 202" fill="none" xmlns="http://www.w3.org/2000/svg"> <path fill-rule="evenodd" clip-rule="evenodd" d="M175.02 25.1734C181.856 25.1734 187.397 19.6375 187.397 12.8194C187.397 5.98909 181.856 0.453125 175.02 0.453125C168.183 0.453125 162.643 5.98909 162.643 12.8194C162.643 19.6375 168.183 25.1734 175.02 25.1734Z" fill="#FE76A8"/> <path fill-rule="evenodd" clip-rule="evenodd" d="M60.9378 109.999L46.5455 87.9273C-2.55547 49.4866 -22.4284 120.892 35.1636 114.062L60.9378 109.999Z" fill="#FE76A8"/> <path fill-rule="evenodd" clip-rule="evenodd" d="M82.0594 87.9386C118.147 42.5962 46.9188 21.938 53.8271 83.8765L65.8326 104.547L82.0594 87.9386Z" fill="#FE76A8"/> <path fill-rule="evenodd" clip-rule="evenodd" d="M88.2477 201.547L97.1349 161.309L88.2477 123.204H70.0896L47.8657 121.287L43.416 138.063V193.663C43.416 198.001 46.9662 201.547 51.3078 201.547H88.2477Z" fill="#99E6FC"/> <path fill-rule="evenodd" clip-rule="evenodd" d="M162.606 193.662V142.352V127.614C162.606 125.193 160.615 123.204 158.193 123.204H117.775L107.209 162.388L117.775 201.547H154.715C159.056 201.547 162.606 198 162.606 193.662Z" fill="#99E6FC"/> <path fill-rule="evenodd" clip-rule="evenodd" d="M82.0583 87.9384C106.825 56.8193 81.039 37.3233 64.668 48.1799C78.1604 48.9348 89.8421 65.0877 73.1115 88.3101L75.0785 91.8209L82.0583 87.9384Z" fill="#FE5694"/> <path fill-rule="evenodd" clip-rule="evenodd" d="M46.5465 87.927C18.5299 65.9988 0.0361562 79.8146 0 94.4697C5.82887 86.0339 19.4293 82.0197 37.8633 93.9306C38.6068 92.7801 39.6264 91.7856 40.9098 91.0787L46.5465 87.927Z" fill="#FE5694"/> <path fill-rule="evenodd" clip-rule="evenodd" d="M88.2471 123.204H117.775V201.547H88.2471V123.204Z" fill="#FE76A8"/> <path fill-rule="evenodd" clip-rule="evenodd" d="M162.607 142.352V127.614C162.607 125.193 160.616 123.204 158.193 123.204H140.383C142.806 123.204 144.797 125.193 144.797 127.614V142.352V193.662C144.797 198 141.235 201.547 136.893 201.547H154.715C159.057 201.547 162.607 198 162.607 193.662V142.352H162.607Z" fill="#2ED1E2"/> <path d="M36.5078 101.023C36.1568 101.023 35.8001 100.963 35.4512 100.837C31.0035 99.2197 27.4992 98.2625 20.688 97.5175C18.9907 97.3318 17.7651 95.8055 17.9507 94.1086C18.1364 92.4121 19.6623 91.1881 21.3612 91.373C27.9392 92.0928 32.0281 93.015 37.5649 95.0276C39.1696 95.6109 39.9975 97.3842 39.4141 98.9885C38.9575 100.244 37.7712 101.023 36.5078 101.023Z" fill="#FE0263"/> <path d="M67.623 84.0921C67.5409 84.0921 67.4584 84.0888 67.3751 84.0823C65.6725 83.9475 64.4018 82.459 64.5367 80.7572C64.9356 75.7266 67.2951 68.6777 70.1474 63.9961C71.0355 62.5385 72.9379 62.0753 74.3964 62.9638C75.8552 63.8515 76.3175 65.7531 75.4295 67.2108C73.0992 71.036 71.0224 77.2009 70.7019 81.2455C70.5739 82.8636 69.2195 84.0921 67.623 84.0921Z" fill="#FE0263"/> <path d="M139.855 108.572C139.105 108.572 138.354 108.301 137.759 107.753C136.503 106.596 136.425 104.641 137.582 103.386C150.821 89.0425 146.897 51.254 146.856 50.8737C146.672 49.1768 147.899 47.6521 149.597 47.4681C151.296 47.2861 152.82 48.5114 153.004 50.2079C153.185 51.8735 157.252 91.1916 142.128 107.577C141.519 108.237 140.688 108.572 139.855 108.572Z" fill="#E0D2CE"/> <path d="M171.196 65.504C170.968 65.504 170.736 65.4785 170.504 65.4256C168.842 65.045 167.801 63.394 168.178 61.732C168.247 61.4318 169.909 54.2867 175.139 46.2811C182.106 35.6199 192.151 28.4667 204.189 25.5949C205.851 25.1988 207.518 26.2229 207.915 27.8833C208.311 29.5436 207.286 31.2109 205.625 31.607C195.078 34.1233 186.604 40.1358 180.439 49.4771C175.753 56.5763 174.223 63.0418 174.208 63.1059C173.877 64.5347 172.604 65.504 171.196 65.504Z" fill="#E0D2CE"/> <path fill-rule="evenodd" clip-rule="evenodd" d="M137.528 27.378L143.597 20.0687C144.844 18.6545 144.76 18.2353 142.925 17.7799L133.499 15.4431C132.431 15.1795 132.371 14.8919 131.844 14.029L127.082 6.08436C126.123 4.46667 125.535 4.46667 124.564 6.08436L119.802 14.029C119.287 14.8919 119.214 15.1795 118.147 15.4431L108.721 17.7799C106.898 18.2353 106.801 18.6545 108.049 20.0687L114.13 27.378C114.777 28.1567 114.873 29.0675 114.79 30.1701L114.058 39.2051C113.854 41.0743 114.25 41.3022 116.001 40.5953L124.289 37.1442C125.152 36.7847 126.507 36.7847 127.359 37.1442L135.658 40.5953C137.409 41.3022 137.793 41.0747 137.589 39.2051L136.87 30.1701C136.785 29.0675 136.868 28.1567 137.528 27.378Z" fill="#FECE85"/> <path fill-rule="evenodd" clip-rule="evenodd" d="M126.171 19.841C124.935 27.7495 122.309 34.6395 119.131 39.289L124.288 37.144C125.152 36.7845 126.507 36.7845 127.359 37.144L135.658 40.5951C137.409 41.302 137.793 41.0745 137.589 39.2049L136.869 30.1699C136.785 29.0674 136.869 28.157 137.529 27.3778L143.598 20.0685C144.845 18.6544 144.761 18.2351 142.926 17.7797L133.5 15.4429C132.432 15.1793 132.372 14.8917 131.844 14.0288L127.083 6.08417C126.927 5.82051 126.783 5.60479 126.651 5.43701C127.106 9.73961 126.986 14.6768 126.171 19.841Z" fill="#FDB440"/> <path fill-rule="evenodd" clip-rule="evenodd" d="M197.998 98.4234L204.067 91.1142C205.326 89.7004 205.23 89.2808 203.395 88.8254L193.969 86.4886C192.913 86.225 192.841 85.9373 192.325 85.0749L187.564 77.1303C186.593 75.5126 186.005 75.5126 185.045 77.1303L180.272 85.0749C179.756 85.9378 179.684 86.2254 178.629 86.4886L169.202 88.8254C167.367 89.2808 167.271 89.7 168.531 91.1142L174.599 98.4234C175.259 99.2022 175.343 100.113 175.259 101.216L174.527 110.238C174.335 112.12 174.719 112.347 176.47 111.64L184.758 108.189C185.621 107.83 186.977 107.83 187.84 108.189L196.128 111.64C197.878 112.347 198.262 112.12 198.071 110.238L197.339 101.216C197.255 100.113 197.339 99.2026 197.998 98.4234Z" fill="#FECE85"/> <path fill-rule="evenodd" clip-rule="evenodd" d="M186.654 90.8862C185.406 98.7946 182.792 105.685 179.602 110.334L184.759 108.189C185.623 107.83 186.978 107.83 187.841 108.189L196.129 111.64C197.88 112.347 198.263 112.12 198.072 110.238L197.34 101.215C197.256 100.113 197.34 99.2025 198 98.4233L204.068 91.1141C205.328 89.7003 205.232 89.2807 203.397 88.8253L193.97 86.4885C192.915 86.2249 192.843 85.9372 192.327 85.0748L187.566 77.1301C187.41 76.8665 187.266 76.6508 187.122 76.4712C187.589 80.7848 187.457 85.7219 186.654 90.8862Z" fill="#FDB440"/> <path fill-rule="evenodd" clip-rule="evenodd" d="M187.396 12.8194C187.396 5.98909 181.855 0.453125 175.019 0.453125C172.764 0.453125 170.653 1.05234 168.831 2.10656C172.536 4.23937 175.019 8.24175 175.019 12.819C175.019 17.3844 172.536 21.3868 168.831 23.5196C170.653 24.5742 172.764 25.173 175.019 25.173C181.855 25.1734 187.396 19.6375 187.396 12.8194Z" fill="#FE5694"/> <path fill-rule="evenodd" clip-rule="evenodd" d="M41.7737 110.371L61.9704 106.536L75.0793 91.8214L70.8697 84.2842C70.0783 82.8583 68.9388 81.7557 67.6193 81.0009C65.0766 79.551 61.8384 79.4193 59.1039 80.9412L53.8267 83.8771L46.5467 87.9274L40.91 91.0787C38.2954 92.5286 36.7362 95.153 36.5083 97.933C36.3645 99.5746 36.7 101.276 37.5637 102.822L41.7737 110.371Z" fill="#FECE85"/> <path fill-rule="evenodd" clip-rule="evenodd" d="M87.2519 113.642L122.584 93.9663C125.499 92.3368 126.554 88.6338 124.935 85.7222L118.662 74.4825C117.031 71.5709 113.325 70.5163 110.411 72.1458L82.0588 87.9391L75.0786 91.8217V106.536L87.2519 113.642Z" fill="#01D0FB"/> <path fill-rule="evenodd" clip-rule="evenodd" d="M18.6131 151.879L53.9455 132.191L54.953 117.476L41.7722 110.371L35.1637 114.061L6.42761 130.058C3.52536 131.676 2.46992 135.379 4.08883 138.291L10.3613 149.542C11.9811 152.442 15.6991 153.496 18.6131 151.879Z" fill="#01D0FB"/> <path fill-rule="evenodd" clip-rule="evenodd" d="M73.1115 88.3105L70.8686 84.2842C70.0773 82.8583 68.9377 81.7557 67.6182 81.0009C65.0755 79.551 61.8373 79.4193 59.1028 80.9412L53.8256 83.8771L48.8125 86.6693C51.547 85.1475 54.7734 85.2791 57.3279 86.729C58.647 87.4838 59.7865 88.5982 60.5783 90.0123L64.7879 97.5613L75.0782 91.8218L73.1115 88.3105Z" fill="#FDB440"/> <path fill-rule="evenodd" clip-rule="evenodd" d="M122.584 93.9663C125.499 92.3368 126.554 88.6338 124.935 85.7222L118.662 74.4825C117.031 71.5709 113.325 70.5163 110.411 72.1458L96.2349 80.0424C99.1493 78.413 102.855 79.4672 104.474 82.3792L110.747 93.6189C112.366 96.5309 111.323 100.221 108.432 101.851L122.584 93.9663Z" fill="#00B1CD"/> <path fill-rule="evenodd" clip-rule="evenodd" d="M87.2523 113.642L75.079 91.8213L41.7734 110.371L53.9467 132.191C65.0646 125.996 76.1345 119.837 87.2523 113.642Z" fill="#FE5694"/> </svg>