<svg width="39" height="27" viewBox="0 0 39 27" fill="none" xmlns="http://www.w3.org/2000/svg"> <path d="M38.3275 26.2754H0.672444C0.301107 26.2754 0 25.9743 0 25.6029V1.39608C0 1.02474 0.301107 0.723633 0.672444 0.723633H38.3276C38.6989 0.723633 39 1.02474 39 1.39608V25.6029C38.9999 25.9743 38.6988 26.2754 38.3275 26.2754Z" fill="#F5F5F5"/> <path d="M38.9999 2.68924H0V1.39608C0 1.02474 0.301107 0.723633 0.672444 0.723633H38.3276C38.6989 0.723633 39 1.02474 39 1.39608L38.9999 2.68924Z" fill="#FF4B55"/> <path d="M38.9999 8.58594H0V10.5515H38.9999V8.58594Z" fill="#FF4B55"/> <path d="M38.9999 4.6543H0V6.61983H38.9999V4.6543Z" fill="#FF4B55"/> <path d="M38.9999 14.4822H0.672444C0.301107 14.4822 0 14.1811 0 13.8098V12.5166H38.9999V14.4822Z" fill="#FF4B55"/> <path d="M38.9999 20.3789H0V22.3444H38.9999V20.3789Z" fill="#FF4B55"/> <path d="M38.3275 26.2751H0.672444C0.301107 26.2751 0 25.974 0 25.6027V24.3096H38.9999V25.6027C38.9999 25.9741 38.6988 26.2751 38.3275 26.2751Z" fill="#FF4B55"/> <path d="M38.9999 16.4482H0V18.4138H38.9999V16.4482Z" fill="#FF4B55"/> <path d="M17.4827 0.724609H0.672444C0.301107 0.724609 0 1.02564 0 1.39698V13.8107C0 14.182 0.301107 14.4831 0.672444 14.4831H17.4828C17.8541 14.4831 18.1552 14.182 18.1552 13.8107V1.39698C18.1552 1.02564 17.854 0.724609 17.4827 0.724609Z" fill="#41479B"/> </svg>