<svg width="30" height="30" viewBox="0 0 30 30" fill="none" xmlns="http://www.w3.org/2000/svg"> <path d="M15 9.375C11.8987 9.375 9.375 11.8987 9.375 15C9.375 18.1012 11.8987 20.625 15 20.625C18.1012 20.625 20.625 18.1012 20.625 15C20.625 11.8987 18.1012 9.375 15 9.375ZM15 18.75C12.9319 18.75 11.25 17.0681 11.25 15C11.25 12.9319 12.9319 11.25 15 11.25C17.0681 11.25 18.75 12.9319 18.75 15C18.75 17.0681 17.0681 18.75 15 18.75Z" fill="#5AC8D2"/> <path d="M29.0625 14.0625H26.2031C25.7494 8.60625 21.3937 4.25063 15.9375 3.79688V0.9375C15.9375 0.42 15.5175 0 15 0C14.4825 0 14.0625 0.42 14.0625 0.9375V3.79688C8.60625 4.25063 4.25063 8.60812 3.79688 14.0625H0.9375C0.42 14.0625 0 14.4825 0 15C0 15.5175 0.42 15.9375 0.9375 15.9375H3.79688C4.25063 21.3937 8.60625 25.7494 14.0625 26.2031V29.0625C14.0625 29.58 14.4825 30 15 30C15.5175 30 15.9375 29.58 15.9375 29.0625V26.2031C21.3937 25.7494 25.7494 21.3937 26.2031 15.9375H29.0625C29.58 15.9375 30 15.5194 30 15C30 14.4844 29.58 14.0625 29.0625 14.0625ZM15 24.375C9.83063 24.375 5.625 20.1694 5.625 15C5.625 9.83063 9.83063 5.625 15 5.625C20.1694 5.625 24.375 9.83063 24.375 15C24.375 20.1694 20.1694 24.375 15 24.375Z" fill="#5AC8D2"/> </svg>