<svg width="116" height="88" viewBox="0 0 116 88" fill="none" xmlns="http://www.w3.org/2000/svg"> <path d="M116 76.7167H0V76.7747H116V76.7167Z" fill="#EBEBEB"/> <path d="M104.377 80.4495H96.6934V80.5075H104.377V80.4495Z" fill="#EBEBEB"/> <path d="M69.934 80.4796H67.918V80.5376H69.934V80.4796Z" fill="#EBEBEB"/> <path d="M96.4582 78.2966H82.2041V78.3546H96.4582V78.2966Z" fill="#EBEBEB"/> <path d="M52.2322 79.6655H49.2881V79.7235H52.2322V79.6655Z" fill="#EBEBEB"/> <path d="M47.2242 79.6655H38.6797V79.7235H47.2242V79.6655Z" fill="#EBEBEB"/> <path d="M18.0707 78.6864H12.1709V78.7444H18.0707V78.6864Z" fill="#EBEBEB"/> <path d="M36.8374 78.6864H19.4629V78.7444H36.8374V78.6864Z" fill="#EBEBEB"/> <path d="M54.9835 66.3695H10.1867C9.83572 66.3689 9.49937 66.229 9.25144 65.9807C9.00351 65.7323 8.86426 65.3957 8.86426 65.0448V2.07301C8.86731 1.72409 9.00791 1.39046 9.25551 1.14459C9.50311 0.89873 9.83772 0.760485 10.1867 0.759888H54.9835C55.3349 0.759888 55.6718 0.899456 55.9203 1.14789C56.1687 1.39632 56.3083 1.73327 56.3083 2.08461V65.0448C56.3083 65.3961 56.1687 65.7331 55.9203 65.9815C55.6718 66.2299 55.3349 66.3695 54.9835 66.3695ZM10.1867 0.806288C9.85111 0.806902 9.52951 0.940631 9.29245 1.17812C9.0554 1.41561 8.92226 1.73745 8.92226 2.07301V65.0448C8.92226 65.3803 9.0554 65.7022 9.29245 65.9397C9.52951 66.1771 9.85111 66.3109 10.1867 66.3115H54.9835C55.3193 66.3109 55.6411 66.1772 55.8786 65.9398C56.116 65.7024 56.2497 65.3805 56.2503 65.0448V2.07301C56.2497 1.73724 56.116 1.4154 55.8786 1.17798C55.6411 0.940555 55.3193 0.806901 54.9835 0.806288H10.1867Z" fill="#EBEBEB"/> <path d="M105.168 66.3695H60.3687C60.0175 66.3689 59.6809 66.2291 59.4326 65.9808C59.1843 65.7325 59.0446 65.3959 59.0439 65.0448V2.07301C59.0476 1.72387 59.1887 1.39025 59.4367 1.14445C59.6847 0.898649 60.0195 0.760479 60.3687 0.759888H105.168C105.516 0.761095 105.85 0.89961 106.098 1.14541C106.345 1.39121 106.485 1.72449 106.488 2.07301V65.0448C106.488 65.3953 106.349 65.7316 106.102 65.9799C105.854 66.2282 105.518 66.3683 105.168 66.3695ZM60.3687 0.806288C60.0329 0.806901 59.7111 0.940555 59.4736 1.17798C59.2362 1.4154 59.1026 1.73724 59.1019 2.07301V65.0448C59.1026 65.3805 59.2362 65.7024 59.4736 65.9398C59.7111 66.1772 60.0329 66.3109 60.3687 66.3115H105.168C105.504 66.3109 105.825 66.1772 106.063 65.9398C106.3 65.7024 106.434 65.3805 106.435 65.0448V2.07301C106.434 1.73724 106.3 1.4154 106.063 1.17798C105.825 0.940555 105.504 0.806901 105.168 0.806288H60.3687Z" fill="#EBEBEB"/> <path d="M44.2612 45.8864L100.646 45.8864V4.69939L44.2612 4.69939L44.2612 45.8864Z" fill="#E6E6E6"/> <path d="M41.7691 45.8864L100.068 45.8864V4.69939L41.7691 4.69939L41.7691 45.8864Z" fill="#F0F0F0"/> <path d="M96.5771 42.3969V8.18848L45.2564 8.18848V42.3969H96.5771Z" fill="#FAFAFA"/> <path d="M84.1021 42.3946L72.4186 8.18848H61.2617L72.9452 42.3946H84.1021Z" fill="white"/> <path d="M70.5488 42.3946L58.8653 8.18848H54.5176L66.2011 42.3946H70.5488Z" fill="white"/> <path d="M45.7012 42.3969V8.18848H45.2581V42.3969H45.7012Z" fill="#E6E6E6"/> <path d="M14.9804 34.6829H34.8906V6.45542L14.9804 6.45542L14.9804 34.6829Z" fill="#E0E0E0"/> <path d="M13.572 34.6829H34.0947V6.45542L13.572 6.45542L13.572 34.6829Z" fill="#F5F5F5"/> <path d="M32.0693 32.4558V8.6781L15.5973 8.6781V32.4558H32.0693Z" fill="white"/> <path d="M22.7199 54.4447C24.1977 50.7977 27.7125 49.4405 28.9282 47.1367C30.5174 44.1207 30.5081 39.5944 29.1602 37.9634C27.9816 36.5436 24.084 46.1391 23.6455 47.211C22.4426 50.1037 21.6899 53.1637 21.4137 56.2845C21.4462 54.0318 21.4763 51.9623 21.5019 50.3662C21.5854 45.1601 21.6875 43.485 21.7339 42.97C21.8963 42.7171 22.0888 42.4248 22.1979 42.274C23.1421 40.9446 25.2347 39.3601 26.2811 37.4275C27.8076 34.6041 27.5617 31.2262 26.4899 29.9687C25.3693 28.6533 23.3903 31.7621 22.3394 34.8407C21.2884 37.9194 21.7362 40.8727 21.4415 43.4247C21.3812 43.9258 21.3163 45.8306 21.2583 48.4754C20.9381 45.631 20.3024 43.7263 19.1262 41.9492C17.6785 39.7661 16.428 37.1074 15.2355 37.4507C14.0431 37.7941 14.6834 41.3135 15.6276 43.782C16.4721 45.9814 20.6133 48.1761 21.2235 49.9439C21.1515 53.526 21.0866 58.0639 21.0425 62.2933C20.7154 60.1102 20.9404 59.9269 19.5995 56.5838C18.8037 54.5978 15.5441 52.1479 15.1497 53.5121C14.7553 54.8762 15.3515 57.4561 16.5835 59.2657C17.5787 60.7226 19.7851 60.7203 20.2955 61.6251C20.4138 61.8362 20.8082 62.6459 21.0332 63.1099C20.9799 68.2696 20.9567 72.8261 20.9822 74.3782L21.1956 74.3944C21.1956 73.993 21.2119 71.3784 21.2536 67.8984C21.7895 66.0424 25.3971 64.9729 26.5107 63.0496C27.6707 61.0382 28.5152 58.6903 28.0141 57.1197C27.5965 55.8089 24.3021 57.5837 22.9774 59.7622C22.0888 61.2098 21.5459 62.7526 21.2931 64.8267C21.3232 62.4603 21.358 59.9176 21.3905 57.5187C21.6619 56.9155 22.2721 55.5374 22.7199 54.4447Z" fill="#E6E6E6"/> <path d="M24.8376 76.7167H17.2559C17.0555 76.7164 16.8614 76.6471 16.7063 76.5203C16.5511 76.3934 16.4445 76.217 16.4045 76.0207L15.8662 73.3759H26.2296L25.6914 76.0276C25.6491 76.2226 25.5413 76.3973 25.386 76.5227C25.2307 76.648 25.0372 76.7164 24.8376 76.7167Z" fill="#F0F0F0"/> <path d="M26.4486 74.3945H15.649C15.5239 74.3942 15.4033 74.3479 15.3101 74.2645C15.2168 74.1811 15.1575 74.0664 15.1432 73.9421L14.9112 71.9817C14.9034 71.9106 14.9107 71.8386 14.9325 71.7704C14.9544 71.7022 14.9903 71.6394 15.038 71.586C15.0857 71.5326 15.1441 71.4898 15.2094 71.4605C15.2747 71.4312 15.3454 71.4159 15.417 71.4157H26.6551C26.7268 71.4155 26.7977 71.4305 26.8632 71.4598C26.9287 71.489 26.9872 71.5317 27.035 71.5852C27.0827 71.6387 27.1187 71.7017 27.1404 71.77C27.1621 71.8383 27.169 71.9105 27.1608 71.9817L26.9288 73.9421C26.9153 74.0622 26.8596 74.1735 26.7717 74.2564C26.6837 74.3392 26.5692 74.3882 26.4486 74.3945Z" fill="#F0F0F0"/> <path d="M94.1062 75.0255H96.4238V50.0878H94.1062V75.0255Z" fill="#F0F0F0"/> <path d="M46.8778 76.6865H95.5352V75.0253H46.8778V76.6865Z" fill="#F0F0F0"/> <path d="M94.1084 50.0878H45.9893V75.0255H94.1084V50.0878Z" fill="#F5F5F5"/> <path d="M94.6536 50.0878H97.0479V48.5148H94.6536V50.0878Z" fill="#E0E0E0"/> <path d="M94.6536 48.5148H45.3652V50.0877H94.6536V48.5148Z" fill="#EBEBEB"/> <path d="M90.6534 60.8478H49.441C48.9487 60.8478 48.4766 60.6523 48.1286 60.3042C47.7805 59.9561 47.585 59.484 47.585 58.9918V53.6558C47.585 53.1636 47.7805 52.6915 48.1286 52.3434C48.4766 51.9953 48.9487 51.7998 49.441 51.7998H90.6534C91.1457 51.7998 91.6178 51.9953 91.9658 52.3434C92.3139 52.6915 92.5094 53.1636 92.5094 53.6558V58.9918C92.5094 59.484 92.3139 59.9561 91.9658 60.3042C91.6178 60.6523 91.1457 60.8478 90.6534 60.8478ZM49.441 52.2638C49.0718 52.2638 48.7177 52.4105 48.4567 52.6715C48.1956 52.9326 48.049 53.2866 48.049 53.6558V58.9918C48.049 59.361 48.1956 59.715 48.4567 59.9761C48.7177 60.2371 49.0718 60.3838 49.441 60.3838H90.6534C91.0226 60.3838 91.3767 60.2371 91.6377 59.9761C91.8988 59.715 92.0454 59.361 92.0454 58.9918V53.6558C92.0454 53.2866 91.8988 52.9326 91.6377 52.6715C91.3767 52.4105 91.0226 52.2638 90.6534 52.2638H49.441Z" fill="white"/> <path d="M90.6534 72.028H49.441C48.9487 72.028 48.4766 71.8325 48.1286 71.4844C47.7805 71.1364 47.585 70.6643 47.585 70.172V64.836C47.585 64.3438 47.7805 63.8717 48.1286 63.5237C48.4766 63.1756 48.9487 62.98 49.441 62.98H90.6534C91.1457 62.98 91.6178 63.1756 91.9658 63.5237C92.3139 63.8717 92.5094 64.3438 92.5094 64.836V70.172C92.5094 70.6643 92.3139 71.1364 91.9658 71.4844C91.6178 71.8325 91.1457 72.028 90.6534 72.028ZM49.441 63.4255C49.0718 63.4255 48.7177 63.5721 48.4567 63.8332C48.1956 64.0942 48.049 64.4483 48.049 64.8175V70.1535C48.049 70.5227 48.1956 70.8767 48.4567 71.1378C48.7177 71.3988 49.0718 71.5455 49.441 71.5455H90.6534C91.0226 71.5455 91.3767 71.3988 91.6377 71.1378C91.8988 70.8767 92.0454 70.5227 92.0454 70.1535V64.8175C92.0454 64.4483 91.8988 64.0942 91.6377 63.8332C91.3767 63.5721 91.0226 63.4255 90.6534 63.4255H49.441Z" fill="white"/> <path d="M81.2881 57.1359H58.8073C58.6477 57.1359 58.4946 57.0727 58.3816 56.96C58.2685 56.8474 58.2047 56.6946 58.2041 56.535V56.0942C58.2047 55.9346 58.2685 55.7818 58.3816 55.6692C58.4946 55.5566 58.6477 55.4933 58.8073 55.4933H81.2881C81.4477 55.4933 81.6007 55.5566 81.7138 55.6692C81.8269 55.7818 81.8907 55.9346 81.8913 56.0942V56.535C81.8907 56.6946 81.8269 56.8474 81.7138 56.96C81.6007 57.0727 81.4477 57.1359 81.2881 57.1359ZM58.8073 55.9759C58.771 55.9765 58.7362 55.991 58.7103 56.0165C58.6844 56.042 58.6693 56.0765 58.6681 56.1128V56.5536C58.6693 56.5899 58.6844 56.6244 58.7103 56.6499C58.7362 56.6753 58.771 56.6899 58.8073 56.6905H81.2881C81.3246 56.6905 81.3597 56.6761 81.3857 56.6505C81.4118 56.6249 81.4267 56.5901 81.4273 56.5536V56.1128C81.4267 56.0763 81.4118 56.0415 81.3857 56.0158C81.3597 55.9902 81.3246 55.9759 81.2881 55.9759H58.8073Z" fill="white"/> <path d="M81.2881 68.3161H58.8073C58.6477 68.3161 58.4946 68.2529 58.3816 68.1402C58.2685 68.0276 58.2047 67.8748 58.2041 67.7152V67.2744C58.2047 67.1148 58.2685 66.962 58.3816 66.8494C58.4946 66.7368 58.6477 66.6735 58.8073 66.6735H81.2881C81.4477 66.6735 81.6007 66.7368 81.7138 66.8494C81.8269 66.962 81.8907 67.1148 81.8913 67.2744V67.7152C81.8907 67.8748 81.8269 68.0276 81.7138 68.1402C81.6007 68.2529 81.4477 68.3161 81.2881 68.3161ZM58.8073 67.1375C58.771 67.1381 58.7362 67.1526 58.7103 67.1781C58.6844 67.2036 58.6693 67.2381 58.6681 67.2744V67.7152C58.6693 67.7515 58.6844 67.786 58.7103 67.8115C58.7362 67.837 58.771 67.8515 58.8073 67.8521H81.2881C81.3246 67.8521 81.3597 67.8377 81.3857 67.8121C81.4118 67.7865 81.4267 67.7517 81.4273 67.7152V67.2744C81.4267 67.2379 81.4118 67.2031 81.3857 67.1775C81.3597 67.1519 81.3246 67.1375 81.2881 67.1375H58.8073Z" fill="white"/> <path d="M56.8399 87.1939C81.683 87.1939 101.822 86.0181 101.822 84.5677C101.822 83.1173 81.683 81.9415 56.8399 81.9415C31.9968 81.9415 11.8574 83.1173 11.8574 84.5677C11.8574 86.0181 31.9968 87.1939 56.8399 87.1939Z" fill="#F5F5F5"/> <path d="M86.9506 26.9186L86.8623 28.2845L87.0938 28.2995L87.1822 26.9336L86.9506 26.9186Z" fill="#20C0E8"/> <path d="M87.3022 21.3711L87.0127 25.8602L87.2442 25.8752L87.5337 21.386L87.3022 21.3711Z" fill="#20C0E8"/> <path d="M84.5496 14.8517H57.278C56.5777 14.864 55.9072 15.1367 55.3971 15.6167C54.8871 16.0967 54.5742 16.7495 54.5195 17.4478L50.9954 71.8518C50.9697 72.1853 51.0136 72.5204 51.1243 72.8361C51.235 73.1517 51.4101 73.4409 51.6385 73.6852C51.8669 73.9295 52.1436 74.1237 52.4511 74.2554C52.7585 74.3871 53.09 74.4534 53.4245 74.4502H80.6914C81.393 74.4385 82.065 74.1659 82.5763 73.6854C83.0876 73.205 83.4016 72.5512 83.4569 71.8518L86.9786 17.4478C87.0044 17.1144 86.9605 16.7793 86.8498 16.4638C86.7391 16.1483 86.5639 15.8593 86.3355 15.6151C86.107 15.371 85.8303 15.177 85.5228 15.0456C85.2154 14.9142 84.8839 14.8481 84.5496 14.8517Z" fill="#20C0E8"/> <path opacity="0.7" d="M83.6842 14.8517H57.278C56.5777 14.864 55.9072 15.1367 55.3971 15.6167C54.8871 16.0967 54.5742 16.7495 54.5195 17.4478L50.9954 71.8518C50.9697 72.1853 51.0136 72.5204 51.1243 72.8361C51.235 73.1517 51.4101 73.4409 51.6385 73.6852C51.8669 73.9295 52.1436 74.1237 52.4511 74.2554C52.7585 74.3871 53.09 74.4534 53.4245 74.4502H79.8261C80.5276 74.4385 81.1996 74.1659 81.7109 73.6854C82.2223 73.205 82.5362 72.5512 82.5915 71.8518L86.1133 17.4478C86.139 17.1144 86.0952 16.7793 85.9844 16.4638C85.8737 16.1483 85.6986 15.8593 85.4701 15.6151C85.2417 15.371 84.9649 15.177 84.6575 15.0456C84.35 14.9142 84.0186 14.8481 83.6842 14.8517Z" fill="white"/> <path d="M81.4567 70.4296H52.4103C52.3017 70.4298 52.1942 70.4077 52.0944 70.3647C51.9947 70.3217 51.9048 70.2586 51.8304 70.1794C51.756 70.1003 51.6987 70.0067 51.662 69.9044C51.6252 69.8022 51.6099 69.6935 51.6169 69.5851L54.8046 20.3547C54.8175 20.1536 54.9065 19.965 55.0534 19.8272C55.2003 19.6893 55.3942 19.6125 55.5957 19.6123H84.6444C84.7531 19.6124 84.8607 19.6348 84.9605 19.6781C85.0602 19.7213 85.15 19.7846 85.2244 19.864C85.2987 19.9433 85.3561 20.0371 85.3928 20.1394C85.4295 20.2418 85.4448 20.3506 85.4378 20.4591L82.2502 69.6872C82.2372 69.8886 82.1479 70.0776 82.0005 70.2155C81.853 70.3534 81.6586 70.43 81.4567 70.4296Z" fill="white"/> <path d="M75.0027 18.0022H64.4444C64.3901 18.0027 64.3362 17.9919 64.2863 17.9705C64.2364 17.9491 64.1915 17.9175 64.1544 17.8778C64.1173 17.8381 64.0889 17.7911 64.0709 17.7399C64.0529 17.6886 64.0458 17.6342 64.05 17.58C64.0607 17.4675 64.1121 17.3627 64.1945 17.2854C64.277 17.2081 64.3848 17.1635 64.4978 17.1601H75.0561C75.1103 17.1593 75.1641 17.1698 75.214 17.1909C75.2639 17.2121 75.3089 17.2434 75.346 17.283C75.3831 17.3225 75.4116 17.3693 75.4296 17.4205C75.4476 17.4716 75.4547 17.5259 75.4505 17.58C75.4403 17.6929 75.3892 17.7982 75.3067 17.876C75.2242 17.9538 75.1161 17.9987 75.0027 18.0022Z" fill="white"/> <path d="M66.7617 72.4967C66.7447 72.7748 66.6231 73.0361 66.4212 73.228C66.2193 73.42 65.9522 73.5284 65.6737 73.5314C65.5399 73.5326 65.4073 73.5063 65.2841 73.454C65.161 73.4017 65.0499 73.3247 64.9578 73.2276C64.8658 73.1305 64.7947 73.0155 64.749 72.8898C64.7033 72.764 64.684 72.6302 64.6923 72.4967C64.7099 72.219 64.8318 71.9583 65.0336 71.7668C65.2354 71.5753 65.5022 71.4673 65.7804 71.4643C65.9141 71.4628 66.0466 71.4888 66.1698 71.5408C66.2929 71.5928 66.404 71.6697 66.4961 71.7666C66.5882 71.8635 66.6593 71.9783 66.705 72.1039C66.7507 72.2296 66.77 72.3633 66.7617 72.4967Z" fill="white"/> <path opacity="0.2" d="M78.2928 33.24H53.4897L51.9121 57.5768H78.2928C78.9812 57.5756 79.641 57.3017 80.128 56.8152C80.615 56.3287 80.8894 55.6691 80.8912 54.9807V35.8453C80.8918 35.1554 80.6185 34.4934 80.1313 34.0049C79.644 33.5163 78.9828 33.2412 78.2928 33.24Z" fill="#20C0E8"/> <path d="M75.9823 31.0847H45.5857C44.1507 31.0847 42.9873 32.2481 42.9873 33.6831V52.8254C42.9873 54.2605 44.1507 55.4238 45.5857 55.4238H75.9823C77.4174 55.4238 78.5807 54.2605 78.5807 52.8254V33.6831C78.5807 32.2481 77.4174 31.0847 75.9823 31.0847Z" fill="#20C0E8"/> <path d="M42.156 30.8041C42.0952 30.8038 42.0368 30.7796 41.9936 30.7368L41.576 30.3215C41.5324 30.2778 41.5078 30.2186 41.5078 30.1568C41.5078 30.095 41.5324 30.0357 41.576 29.9921C41.6197 29.9484 41.679 29.9238 41.7408 29.9238C41.8025 29.9238 41.8618 29.9484 41.9055 29.9921L42.3208 30.4097C42.364 30.4531 42.3882 30.5119 42.3882 30.5732C42.3882 30.6345 42.364 30.6933 42.3208 30.7368C42.2991 30.7583 42.2734 30.7753 42.2451 30.7868C42.2168 30.7984 42.1866 30.8042 42.156 30.8041Z" fill="#20C0E8"/> <path d="M41.5279 32.2611H40.941C40.8795 32.2611 40.8204 32.2367 40.7769 32.1932C40.7334 32.1497 40.709 32.0906 40.709 32.0291C40.709 31.9676 40.7334 31.9086 40.7769 31.8651C40.8204 31.8216 40.8795 31.7971 40.941 31.7971H41.5279C41.5895 31.7971 41.6485 31.8216 41.692 31.8651C41.7355 31.9086 41.7599 31.9676 41.7599 32.0291C41.7599 32.0906 41.7355 32.1497 41.692 32.1932C41.6485 32.2367 41.5895 32.2611 41.5279 32.2611Z" fill="#20C0E8"/> <path d="M43.6337 30.1776C43.5749 30.1778 43.5182 30.1556 43.4752 30.1155C43.4321 30.0755 43.4059 30.0205 43.4017 29.9619L43.36 29.3749C43.3578 29.3444 43.3616 29.3138 43.3713 29.2848C43.3809 29.2558 43.3962 29.229 43.4163 29.206C43.4363 29.1829 43.4607 29.164 43.4881 29.1504C43.5155 29.1368 43.5452 29.1287 43.5757 29.1267C43.6369 29.1229 43.6971 29.1434 43.7432 29.1838C43.7893 29.2243 43.8175 29.2813 43.8217 29.3424L43.8657 29.9294C43.868 29.9599 43.8641 29.9905 43.8545 30.0195C43.8448 30.0485 43.8295 30.0753 43.8095 30.0984C43.7894 30.1214 43.765 30.1403 43.7376 30.1539C43.7103 30.1675 43.6805 30.1756 43.65 30.1776H43.6337Z" fill="#20C0E8"/> <path d="M63.3799 52.9207L72.7132 62.2517V52.9207H63.3799Z" fill="#20C0E8"/> <path d="M65.9392 48.8327L65.4752 46.863C65.358 46.3452 65.358 45.8078 65.4752 45.2901L66.1201 42.4852C66.384 41.2891 66.2411 40.0391 65.7141 38.9334C65.1871 37.8277 64.3061 36.9295 63.2108 36.3813C63.2314 36.3296 63.2492 36.277 63.2642 36.2235C63.3023 36.0533 63.3065 35.8773 63.2765 35.7056C63.2466 35.5338 63.1831 35.3696 63.0897 35.2223C62.9964 35.0751 62.8749 34.9477 62.7322 34.8474C62.5896 34.7471 62.4286 34.6759 62.2585 34.6378C62.0883 34.5997 61.9123 34.5955 61.7405 34.6254C61.5688 34.6554 61.4046 34.7188 61.2573 34.8122C61.1101 34.9056 60.9827 35.0271 60.8824 35.1697C60.7821 35.3123 60.7108 35.4733 60.6728 35.6435C60.6612 35.6977 60.6543 35.7528 60.6519 35.8082C59.4275 35.8369 58.2476 36.2733 57.2992 37.0482C56.3508 37.8231 55.6879 38.8922 55.4156 40.0863L54.7869 42.8935C54.6714 43.4104 54.4415 43.8947 54.1141 44.311L52.8636 45.9002C52.7413 46.0561 52.6605 46.2404 52.6286 46.436C52.5967 46.6315 52.6148 46.832 52.6813 47.0187C52.7478 47.2053 52.8604 47.3721 53.0087 47.5035C53.157 47.6349 53.3362 47.7266 53.5295 47.7701L64.5495 50.2386C64.7421 50.2803 64.9422 50.2726 65.1311 50.2164C65.32 50.1602 65.4916 50.0573 65.6302 49.9171C65.7687 49.7769 65.8697 49.604 65.9237 49.4145C65.9777 49.225 65.983 49.0248 65.9392 48.8327Z" fill="white"/> <path d="M57.6168 49.4405C57.533 49.422 57.4459 49.4245 57.3633 49.4477C57.2807 49.4709 57.205 49.5141 57.1431 49.5735C57.0811 49.6329 57.0348 49.7067 57.0082 49.7883C56.9815 49.8699 56.9755 49.9568 56.9904 50.0414C57.0537 50.4141 57.2265 50.7597 57.4868 51.0339C57.7472 51.3082 58.0832 51.4987 58.4522 51.5813C58.8212 51.6639 59.2064 51.6348 59.5588 51.4978C59.9112 51.3607 60.2148 51.1218 60.431 50.8116C60.4804 50.7417 60.5118 50.6607 60.5225 50.5758C60.5332 50.4908 60.5229 50.4046 60.4924 50.3246C60.4619 50.2446 60.4122 50.1733 60.3477 50.117C60.2832 50.0608 60.2058 50.0212 60.1224 50.0019L57.6168 49.4405Z" fill="white"/> <path d="M49.1536 45.5361C49.0961 45.5365 49.0395 45.5225 48.9888 45.4954C48.9381 45.4682 48.8951 45.4288 48.8636 45.3806C47.7679 43.739 47.3691 41.7293 47.755 39.7936C48.1409 37.858 49.2799 36.1549 50.9215 35.059C50.9984 35.0079 51.0924 34.9895 51.1829 35.0077C51.2734 35.026 51.353 35.0795 51.404 35.1564C51.4551 35.2333 51.4735 35.3274 51.4552 35.4179C51.437 35.5084 51.3835 35.5879 51.3066 35.639C49.8205 36.6343 48.7904 38.1788 48.4423 39.9332C48.0943 41.6876 48.457 43.5083 49.4506 44.9955C49.5019 45.0721 49.5207 45.166 49.5029 45.2565C49.485 45.347 49.432 45.4267 49.3555 45.4781C49.2956 45.5175 49.2252 45.5377 49.1536 45.5361Z" fill="white"/> <path d="M50.6266 44.5476C50.5696 44.5473 50.5136 44.5329 50.4634 44.5058C50.4132 44.4787 50.3705 44.4397 50.339 44.3922C49.5049 43.1416 49.2014 41.6111 49.495 40.1369C49.7887 38.6627 50.6554 37.3653 51.905 36.5297C51.943 36.5043 51.9858 36.4866 52.0307 36.4776C52.0756 36.4687 52.1218 36.4687 52.1668 36.4777C52.2117 36.4866 52.2544 36.5043 52.2925 36.5297C52.3305 36.5552 52.3632 36.5879 52.3887 36.626C52.4141 36.6641 52.4318 36.7068 52.4407 36.7517C52.4497 36.7966 52.4497 36.8429 52.4407 36.8878C52.4318 36.9327 52.4141 36.9754 52.3886 37.0135C52.3632 37.0516 52.3305 37.0843 52.2924 37.1097C51.1956 37.8416 50.4346 38.9792 50.1766 40.2723C49.9186 41.5654 50.1848 42.908 50.9166 44.0047C50.968 44.0814 50.9868 44.1752 50.9689 44.2657C50.9511 44.3562 50.8981 44.4359 50.8215 44.4873C50.7638 44.5259 50.6961 44.5469 50.6266 44.5476Z" fill="white"/> <path d="M52.1024 43.5617C52.0455 43.562 51.9895 43.5481 51.9393 43.5214C51.889 43.4947 51.8463 43.4559 51.8147 43.4085C51.5305 42.9829 51.333 42.5054 51.2335 42.0034C51.134 41.5013 51.1344 40.9846 51.2348 40.4827C51.3353 39.9809 51.5336 39.5037 51.8187 39.0786C52.1037 38.6535 52.4697 38.2888 52.8959 38.0053C52.9725 37.9577 53.0646 37.9417 53.1527 37.9607C53.2409 37.9797 53.3183 38.0321 53.3685 38.107C53.4187 38.1819 53.4379 38.2734 53.422 38.3622C53.4061 38.451 53.3564 38.5301 53.2833 38.5829C52.9338 38.8163 52.6337 39.1162 52.4001 39.4655C52.1665 39.8148 52.004 40.2068 51.9219 40.6189C51.8398 41.0311 51.8398 41.4553 51.9217 41.8675C52.0036 42.2797 52.1659 42.6717 52.3994 43.0211C52.4501 43.0979 52.4685 43.1916 52.4507 43.2819C52.433 43.3722 52.3803 43.4519 52.3043 43.5037C52.2444 43.5431 52.174 43.5633 52.1024 43.5617Z" fill="white"/> <path d="M69.2173 50.4289C69.1395 50.4287 69.064 50.4025 69.0028 50.3543C68.9417 50.3062 68.8985 50.2389 68.88 50.1633C68.8616 50.0877 68.869 50.0081 68.9011 49.9373C68.9333 49.8664 68.9882 49.8083 69.0572 49.7723C70.6467 48.9511 71.8451 47.5323 72.3889 45.8278C72.9327 44.1233 72.7774 42.2726 71.9572 40.6826C71.9323 40.6418 71.916 40.5963 71.9095 40.5489C71.9029 40.5015 71.9062 40.4533 71.9191 40.4072C71.932 40.3612 71.9543 40.3183 71.9845 40.2812C72.0148 40.2442 72.0523 40.2137 72.0948 40.1918C72.1374 40.1699 72.1839 40.157 72.2317 40.1539C72.2794 40.1508 72.3273 40.1576 72.3723 40.1738C72.4172 40.1901 72.4584 40.2154 72.4932 40.2482C72.5279 40.2811 72.5556 40.3208 72.5743 40.3648C73.0223 41.2336 73.2948 42.1823 73.3761 43.1565C73.4575 44.1306 73.3461 45.1113 73.0484 46.0425C72.7506 46.9736 72.2724 47.837 71.6409 48.5832C71.0094 49.3295 70.2371 49.9441 69.3681 50.3918C69.321 50.4148 69.2696 50.4274 69.2173 50.4289Z" fill="white"/> <path d="M68.4028 48.8535C68.325 48.8533 68.2495 48.827 68.1884 48.7789C68.1272 48.7308 68.084 48.6635 68.0656 48.5879C68.0471 48.5123 68.0546 48.4327 68.0867 48.3618C68.1188 48.291 68.1738 48.2329 68.2427 48.1969C68.8233 47.8976 69.3392 47.4868 69.7608 46.988C70.1825 46.4891 70.5016 45.9121 70.7001 45.2898C70.8985 44.6675 70.9724 44.0122 70.9173 43.3614C70.8623 42.7105 70.6795 42.0769 70.3795 41.4968C70.337 41.4146 70.3289 41.319 70.357 41.2309C70.385 41.1428 70.447 41.0694 70.5291 41.027C70.6112 40.9845 70.7069 40.9764 70.795 41.0045C70.8831 41.0325 70.9564 41.0945 70.9989 41.1766C71.3408 41.8379 71.5491 42.5602 71.6117 43.3021C71.6743 44.044 71.5901 44.7909 71.3639 45.5002C71.1376 46.2095 70.7738 46.8673 70.2932 47.4359C69.8126 48.0045 69.2246 48.4728 68.5629 48.814C68.5137 48.8404 68.4586 48.8539 68.4028 48.8535Z" fill="white"/> <path d="M67.5878 47.2783C67.5102 47.2771 67.4353 47.2501 67.3747 47.2017C67.3142 47.1533 67.2714 47.0861 67.2531 47.0108C67.2348 46.9354 67.242 46.8561 67.2736 46.7853C67.3052 46.7145 67.3594 46.6562 67.4277 46.6195C67.8012 46.4272 68.1332 46.1632 68.4045 45.8426C68.6759 45.5219 68.8814 45.1509 69.0091 44.7507C69.1369 44.3505 69.1845 43.9291 69.1492 43.5105C69.114 43.0919 68.9964 42.6843 68.8035 42.3112C68.761 42.2291 68.7529 42.1334 68.781 42.0453C68.809 41.9572 68.871 41.8839 68.9531 41.8414C69.0352 41.799 69.1309 41.7909 69.219 41.8189C69.3071 41.847 69.3804 41.9089 69.4229 41.9911C69.8951 42.9099 69.9834 43.9785 69.6685 44.9624C69.3536 45.9463 68.6611 46.765 67.7432 47.2389C67.6951 47.2637 67.6419 47.2772 67.5878 47.2783Z" fill="white"/> <path d="M47.1794 17.1972H45.4069C45.3609 17.1984 45.3168 17.2158 45.2824 17.2463C45.2481 17.2769 45.2256 17.3187 45.219 17.3642L44.8478 20.8999C44.8452 20.9212 44.8471 20.9428 44.8535 20.9633C44.8599 20.9838 44.8706 21.0027 44.8849 21.0188C44.8991 21.0348 44.9167 21.0476 44.9363 21.0563C44.9559 21.065 44.9772 21.0694 44.9986 21.0693H46.7711C46.8175 21.068 46.8618 21.0503 46.8963 21.0192C46.9307 20.9882 46.953 20.9459 46.959 20.8999L47.3302 17.3642C47.3329 17.343 47.331 17.3215 47.3246 17.3011C47.3182 17.2807 47.3074 17.262 47.2931 17.2461C47.2788 17.2303 47.2612 17.2177 47.2416 17.2092C47.222 17.2008 47.2008 17.1967 47.1794 17.1972Z" fill="#20C0E8"/> <path opacity="0.4" d="M47.0193 17.1974H45.4069C45.3609 17.1985 45.3168 17.216 45.2824 17.2465C45.2481 17.2771 45.2256 17.3189 45.219 17.3644L44.8478 20.9001C44.8452 20.9214 44.8471 20.943 44.8535 20.9635C44.8599 20.984 44.8706 21.0029 44.8849 21.0189C44.8991 21.035 44.9167 21.0478 44.9363 21.0565C44.9559 21.0652 44.9772 21.0696 44.9986 21.0694H46.6226C46.6687 21.0681 46.7128 21.0503 46.7469 21.0192C46.7809 20.9881 46.8027 20.9459 46.8082 20.9001L47.1794 17.3644C47.1827 17.3423 47.181 17.3197 47.1742 17.2985C47.1674 17.2772 47.1559 17.2577 47.1404 17.2416C47.125 17.2254 47.106 17.2131 47.085 17.2054C47.064 17.1977 47.0416 17.195 47.0193 17.1974Z" fill="white"/> <path d="M38.2965 82.5749C38.5285 82.5749 38.7605 82.5401 38.8417 82.4333C38.8615 82.4047 38.872 82.3707 38.872 82.3359C38.872 82.3011 38.8615 82.2671 38.8417 82.2385C38.8079 82.1865 38.7557 82.1492 38.6956 82.1341C38.38 82.0482 37.7397 82.4241 37.7119 82.4403C37.7046 82.4449 37.699 82.4515 37.6957 82.4594C37.6923 82.4673 37.6915 82.476 37.6933 82.4844C37.695 82.4936 37.6995 82.5021 37.7061 82.5087C37.7127 82.5153 37.7212 82.5198 37.7304 82.5215C37.9173 82.5552 38.1067 82.573 38.2965 82.5749ZM38.5796 82.2106C38.608 82.207 38.6369 82.207 38.6654 82.2106C38.7023 82.2196 38.7345 82.2419 38.7559 82.2733C38.7884 82.3289 38.7791 82.3568 38.7559 82.3707C38.6747 82.4937 38.1991 82.496 37.8488 82.4473C38.0738 82.3196 38.3224 82.2391 38.5796 82.2106Z" fill="#20C0E8"/> <path d="M37.7251 82.5216H37.7437C37.9757 82.4195 38.3979 82.0135 38.3539 81.8001C38.3539 81.7514 38.3051 81.6887 38.1822 81.6771C38.1387 81.6723 38.0946 81.6764 38.0527 81.6892C38.0109 81.7019 37.972 81.7231 37.9386 81.7514C37.7066 81.9486 37.6811 82.4474 37.6787 82.4752C37.6784 82.4833 37.6802 82.4914 37.6839 82.4987C37.6875 82.506 37.6929 82.5123 37.6996 82.517C37.7075 82.5209 37.7164 82.5225 37.7251 82.5216ZM38.152 81.7606H38.1775C38.2587 81.7606 38.2657 81.8001 38.2657 81.8094C38.2935 81.937 38.0012 82.2571 37.7762 82.3963C37.7904 82.1833 37.8716 81.9803 38.0082 81.8163C38.0484 81.7819 38.0991 81.7623 38.152 81.7606Z" fill="#20C0E8"/> <path d="M37.5354 78.1274H35.6562V82.4774H37.5354V78.1274Z" fill="#FF8B7B"/> <path d="M22.0283 80.4033L23.9052 80.6075L25.1278 76.3851L23.251 76.1809L22.0283 80.4033Z" fill="#FF8B7B"/> <path d="M24.7776 81.0321C25.0096 81.0924 25.2416 81.1179 25.346 81.0321C25.3715 81.0084 25.3889 80.9772 25.3955 80.943C25.4022 80.9088 25.3979 80.8734 25.3832 80.8418C25.3736 80.8129 25.3584 80.7861 25.3385 80.763C25.3186 80.7399 25.2944 80.721 25.2672 80.7073C24.9772 80.5472 24.258 80.749 24.2278 80.756C24.219 80.7584 24.2111 80.7634 24.2053 80.7705C24.1994 80.7776 24.196 80.7863 24.1953 80.7954C24.1953 80.8047 24.1979 80.8137 24.2028 80.8215C24.2078 80.8293 24.2148 80.8356 24.2232 80.8395C24.4022 80.9193 24.5877 80.9838 24.7776 81.0321ZM25.1442 80.7537C25.1723 80.7605 25.1996 80.7706 25.2254 80.7838C25.2598 80.8002 25.2864 80.8293 25.2996 80.865C25.3182 80.9277 25.2996 80.9509 25.2996 80.9648C25.1883 81.0599 24.722 80.9462 24.3902 80.8117C24.6355 80.7442 24.8916 80.7253 25.1442 80.756V80.7537Z" fill="#20C0E8"/> <path d="M24.2321 80.8441H24.2507C24.4827 80.8 25.0163 80.517 25.0256 80.3036C25.0256 80.2525 25.007 80.1829 24.8887 80.1412C24.847 80.1262 24.8027 80.1197 24.7585 80.1221C24.7143 80.1245 24.671 80.1357 24.6312 80.1551C24.3574 80.2873 24.2043 80.7652 24.1973 80.7838C24.1934 80.7905 24.1914 80.7981 24.1914 80.8058C24.1914 80.8136 24.1934 80.8212 24.1973 80.8279C24.2012 80.8333 24.2065 80.8377 24.2126 80.8405C24.2187 80.8434 24.2254 80.8446 24.2321 80.8441ZM24.8353 80.22H24.8632C24.9397 80.2479 24.9374 80.2804 24.9374 80.2896C24.9374 80.4196 24.5662 80.6539 24.311 80.7304C24.3752 80.5298 24.5021 80.355 24.6729 80.2316C24.7239 80.2083 24.7816 80.2042 24.8353 80.22Z" fill="#20C0E8"/> <path d="M24.0051 80.4335L21.9519 79.8442C21.9166 79.8337 21.8788 79.8357 21.8449 79.8502C21.811 79.8646 21.7832 79.8904 21.7663 79.9231L21.01 81.4242C20.9923 81.4622 20.9832 81.5036 20.9834 81.5455C20.9836 81.5874 20.9929 81.6287 21.0109 81.6666C21.0288 81.7045 21.0549 81.7379 21.0872 81.7646C21.1195 81.7913 21.1573 81.8105 21.1979 81.8209C21.9171 82.0134 22.2767 82.0738 23.1792 82.3313C23.7337 82.4914 24.8635 82.8765 25.6314 83.0969C26.3994 83.3173 26.6824 82.5958 26.3854 82.438C25.0538 81.7304 24.6269 81.1597 24.2742 80.6307C24.211 80.5349 24.1155 80.465 24.0051 80.4335Z" fill="#263238"/> <path d="M37.5148 82.2592H35.4639C35.4271 82.2588 35.3912 82.2717 35.3631 82.2956C35.335 82.3194 35.3164 82.3527 35.3108 82.3891L35.0115 84.0479C35.0048 84.0893 35.0072 84.1317 35.0184 84.1721C35.0297 84.2125 35.0495 84.25 35.0767 84.2819C35.1038 84.3139 35.1375 84.3396 35.1755 84.3573C35.2136 84.375 35.255 84.3842 35.2969 84.3844C36.037 84.3704 37.1042 84.3263 38.0345 84.3263C39.1226 84.3263 39.7165 84.3867 40.9925 84.3867C41.7627 84.3867 41.9437 83.6071 41.6166 83.5352C40.1341 83.2151 39.278 83.1803 37.9742 82.3961C37.8357 82.311 37.6773 82.2638 37.5148 82.2592Z" fill="#263238"/> <path opacity="0.2" d="M37.5354 78.1274H35.6562V80.3709H37.5354V78.1274Z" fill="black"/> <path opacity="0.2" d="M23.2512 76.1832L25.128 76.385L24.4483 78.7282L22.6201 78.3593L23.2512 76.1832Z" fill="black"/> <path d="M34.4454 34.8639C34.4454 34.8639 33.4084 49.0484 32.4804 54.4261C31.4573 60.3166 25.5041 78.3523 25.5041 78.3523L22.0938 77.7282C22.0938 77.7282 26.3927 60.7922 26.8683 54.9597C27.3857 48.6308 28.0074 35.5854 28.0074 35.5854L34.4454 34.8639Z" fill="#20C0E8"/> <path opacity="0.3" d="M32.6988 40.757C32.8844 39.9775 33.3113 40.9588 33.8078 42.6594C33.4319 46.8679 32.9424 51.7422 32.4738 54.4287C32.3694 55.0296 32.2116 55.7581 32.0098 56.584C32.1884 50.5799 32.1954 42.8659 32.6988 40.757Z" fill="black"/> <path d="M37.9878 34.4789C37.9878 34.4789 39.3497 48.7376 39.3961 54.4657C39.4448 60.4258 38.2175 79.937 38.2175 79.937H35.0322C35.0322 79.937 34.0763 60.7738 33.6796 54.9204C33.2458 48.5404 31.4199 35.2004 31.4199 35.2004L37.9878 34.4789Z" fill="#20C0E8"/> <path d="M26.216 77.2041C26.2299 77.2041 25.6801 78.4407 25.6801 78.4407L21.8428 77.7446L22.0748 76.5963L26.216 77.2041Z" fill="#263238"/> <path d="M38.7745 78.668C38.7884 78.668 38.6515 79.9904 38.6515 79.9904H34.7818L34.624 78.8118L38.7745 78.668Z" fill="#263238"/> <path d="M28.0999 21.7699C27.8447 22.2641 27.564 22.7837 27.3088 23.2965L26.5292 24.8416C26.2764 25.3566 26.0281 25.874 25.7892 26.3913C25.5502 26.9087 25.3252 27.4237 25.1326 27.9388L25.114 27.1268C25.2497 27.5437 25.4124 27.9514 25.6012 28.3471C25.6917 28.5513 25.8077 28.7461 25.9075 28.948C26.0072 29.1498 26.1395 29.3424 26.2578 29.5326C26.504 29.9259 26.7703 30.3061 27.0559 30.6717C27.1997 30.855 27.3436 31.0429 27.4967 31.2193C27.6498 31.3956 27.8168 31.5789 27.9607 31.7297L28.0071 31.7807C28.114 31.8981 28.1756 32.0497 28.1809 32.2083C28.1862 32.367 28.1348 32.5223 28.036 32.6465C27.9371 32.7708 27.7973 32.8557 27.6415 32.8863C27.4858 32.9168 27.3242 32.8909 27.1858 32.8131C26.946 32.678 26.7137 32.5301 26.4898 32.37C26.2578 32.2169 26.0536 32.0568 25.8448 31.8874C25.4269 31.5446 25.0345 31.1716 24.6709 30.7715C24.2998 30.3649 23.9623 29.9289 23.6617 29.4677C23.3529 28.9978 23.0844 28.5026 22.859 27.9875C22.7597 27.7689 22.7424 27.5218 22.8103 27.2915L22.8428 27.1825C23.0191 26.5769 23.2163 25.99 23.4344 25.4146C23.6524 24.8393 23.8844 24.2755 24.1304 23.721C24.3763 23.1665 24.6338 22.619 24.9052 22.0785C25.1767 21.5379 25.4504 21.0089 25.7636 20.4684C25.9367 20.159 26.2249 19.9304 26.5656 19.8323C26.9062 19.7342 27.2718 19.7745 27.5829 19.9444C27.8941 20.1144 28.1256 20.4002 28.2271 20.7398C28.3287 21.0795 28.2922 21.4455 28.1254 21.7583L28.0999 21.7699Z" fill="#FF8B7B"/> <path d="M29.4318 20.9442C29.5246 22.7143 27.5155 25.9646 27.5155 25.9646L23.3789 23.8975C23.8816 22.4313 24.6596 21.0746 25.6711 19.9002C27.8588 17.4827 29.346 19.3202 29.4318 20.9442Z" fill="#263238"/> <path d="M26.6289 32.4814L27.4618 33.8734L29.1948 32.7644C28.8921 32.222 28.4181 31.7952 27.8469 31.5511C27.7148 31.5089 27.572 31.5154 27.4443 31.5694C27.3166 31.6235 27.2125 31.7215 27.1509 31.8457L26.6289 32.4814Z" fill="#FF8B7B"/> <path d="M28.1556 34.4673L28.9606 34.3165C29.0284 34.304 29.093 34.2781 29.1508 34.2405C29.2085 34.2029 29.2582 34.1542 29.297 34.0972C29.3359 34.0403 29.363 33.9762 29.377 33.9087C29.3909 33.8412 29.3913 33.7717 29.3782 33.704L29.195 32.776L27.4619 33.885L27.5779 34.1657C27.6254 34.2743 27.7085 34.3634 27.8136 34.4183C27.9187 34.4731 28.0393 34.4904 28.1556 34.4673Z" fill="#FF8B7B"/> <path d="M33.0442 12.0491C33.0604 12.1999 33.1555 12.3182 33.253 12.3089C33.3504 12.2996 33.4154 12.172 33.3968 12.0212C33.3783 11.8704 33.2855 11.7521 33.188 11.7591C33.0906 11.766 33.0256 11.896 33.0442 12.0491Z" fill="#263238"/> <path d="M33.1416 12.3182C33.3763 12.7688 33.6687 13.1869 34.0116 13.5618C33.7796 13.8332 33.3156 13.7543 33.3156 13.7543L33.1416 12.3182Z" fill="#FF5652"/> <path d="M32.3942 11.2486C32.4062 11.2504 32.4185 11.2494 32.4302 11.2458C32.4418 11.2422 32.4525 11.236 32.4614 11.2277C32.5419 11.1524 32.6396 11.098 32.746 11.0692C32.8524 11.0405 32.9642 11.0384 33.0716 11.063C33.0826 11.0665 33.0941 11.0677 33.1056 11.0665C33.117 11.0653 33.1281 11.0618 33.1381 11.0561C33.1482 11.0505 33.1569 11.0428 33.1638 11.0336C33.1707 11.0244 33.1757 11.0139 33.1783 11.0027C33.1841 10.9796 33.1809 10.9552 33.1692 10.9345C33.1576 10.9138 33.1384 10.8983 33.1157 10.8913C32.98 10.8589 32.8385 10.8602 32.7035 10.895C32.5684 10.9297 32.4439 10.997 32.3408 11.0908C32.3322 11.0991 32.3253 11.109 32.3206 11.1199C32.3159 11.1309 32.3135 11.1427 32.3135 11.1546C32.3135 11.1666 32.3159 11.1784 32.3206 11.1893C32.3253 11.2003 32.3322 11.2102 32.3408 11.2184C32.3472 11.2268 32.3553 11.2337 32.3644 11.2389C32.3736 11.2441 32.3837 11.2474 32.3942 11.2486Z" fill="#263238"/> <path d="M28.3662 13.7289C28.8093 15.0722 29.3986 17.5476 28.5588 18.5406C28.5588 18.5406 29.1109 19.8931 31.6537 19.6774C34.4539 19.4454 32.8137 18.181 32.8137 18.181C31.2407 17.949 31.134 16.8145 31.2639 15.731L28.3662 13.7289Z" fill="#FF8B7B"/> <path d="M27.9584 19.0299C27.6963 18.61 27.404 18.1298 27.9004 17.9511C28.4456 17.7539 31.508 17.4338 32.5984 17.7029C33.6888 17.972 33.4661 18.8629 33.4661 18.8629L27.9584 19.0299Z" fill="#20C0E8"/> <path d="M36.9254 19.5962C37.3244 19.9628 37.7559 20.3688 38.1851 20.74C38.6143 21.1112 39.0482 21.4917 39.4843 21.8582C39.9205 22.2248 40.3659 22.5705 40.8137 22.9069C41.2615 23.2433 41.7162 23.5495 42.1709 23.8349L41.2429 23.7467C41.6285 23.6438 41.9935 23.4751 42.3217 23.2479C42.7052 22.9799 43.0611 22.6745 43.3843 22.3362C43.7325 21.9798 44.0587 21.6024 44.361 21.2063C44.5164 21.0045 44.6719 20.8003 44.825 20.5892C44.9781 20.3781 45.1173 20.1554 45.2449 19.9605L45.2704 19.9234C45.3585 19.7888 45.4921 19.6904 45.6467 19.6461C45.8014 19.6018 45.9668 19.6145 46.1128 19.6821C46.2588 19.7496 46.3756 19.8673 46.442 20.0138C46.5085 20.1604 46.52 20.3259 46.4745 20.4802C46.3863 20.7818 46.2935 21.0393 46.1868 21.3084C46.0801 21.5775 45.9687 21.842 45.8435 22.1018C45.5894 22.6319 45.2922 23.1401 44.9549 23.6214C44.6008 24.1318 44.1881 24.599 43.7253 25.0134C43.2131 25.4707 42.6187 25.8265 41.9737 26.0621C41.8352 26.1109 41.6885 26.1317 41.5419 26.1233C41.3954 26.115 41.2519 26.0776 41.1199 26.0134L41.0434 25.9739C40.4673 25.6908 39.908 25.3748 39.3683 25.0274C38.8417 24.6863 38.3313 24.3314 37.8395 23.9509C37.3476 23.5704 36.872 23.1853 36.408 22.7909C35.944 22.3965 35.4986 21.9835 35.0462 21.5218C34.8054 21.2707 34.6713 20.9362 34.6719 20.5883C34.6725 20.2405 34.8077 19.9064 35.0493 19.6561C35.2909 19.4058 35.62 19.2588 35.9676 19.2459C36.3152 19.233 36.6543 19.3553 36.9138 19.587L36.9254 19.5962Z" fill="#FF8B7B"/> <path d="M35.5078 18.3921C35.5078 18.3921 37.8463 20.6611 38.1178 34.6948C34.3779 35.6019 30.7796 35.936 28.0002 35.5834C27.868 33.8225 27.6708 27.7116 25.8844 21.2689C25.8077 20.9976 25.7882 20.7133 25.8272 20.434C25.8662 20.1547 25.9628 19.8865 26.1109 19.6466C26.259 19.4066 26.4554 19.2001 26.6876 19.04C26.9198 18.88 27.1827 18.77 27.4597 18.7169C27.8146 18.6473 28.1882 18.5847 28.5594 18.536C29.9695 18.3343 31.3902 18.2142 32.8142 18.1764C33.7161 18.1838 34.6162 18.2559 35.5078 18.3921Z" fill="#263238"/> <path d="M33.6933 20.8374C33.9253 22.5936 36.9413 25.9692 36.9413 25.9692L40.5211 22.2572C39.4577 21.1408 38.3081 20.1099 37.0829 19.1739C34.4589 17.2135 33.4845 19.2087 33.6933 20.8374Z" fill="#263238"/> <path d="M46.2427 21.097L47.4399 19.9997L46.0061 18.5265C45.5319 18.9303 45.2054 19.4804 45.0781 20.0902C45.0641 20.2296 45.101 20.3693 45.182 20.4836C45.2631 20.5979 45.3827 20.679 45.5189 20.7119L46.2427 21.097Z" fill="#FF8B7B"/> <path d="M47.8809 19.2017L47.5723 18.443C47.5462 18.3779 47.5073 18.3187 47.4579 18.269C47.4085 18.2192 47.3496 18.1798 47.2847 18.1532C47.2198 18.1266 47.1502 18.1133 47.0801 18.114C47.0099 18.1148 46.9407 18.1296 46.8763 18.1577L45.9971 18.5265L47.4308 19.9997L47.6814 19.8304C47.7819 19.7646 47.8567 19.6661 47.893 19.5515C47.9294 19.437 47.9251 19.3134 47.8809 19.2017Z" fill="#FF8B7B"/> <path d="M28.0099 12.1281C28.3463 13.9841 28.4483 15.0838 29.4923 15.9677C31.063 17.2971 33.2299 16.2624 33.4363 14.3669C33.6312 12.6594 33.0489 9.91021 31.1604 9.31165C29.2719 8.71309 27.6735 10.2721 28.0099 12.1281Z" fill="#FF8B7B"/> <path d="M31.668 12.7962C32.3199 12.9447 32.828 12.1907 32.8976 11.9772C32.5797 12.0074 32.016 11.845 31.9046 11.7012C32.2526 11.7313 32.589 11.3021 32.6308 11.1374C32.2616 11.0661 31.9346 10.8539 31.719 10.5458C32.2828 10.5342 32.9602 9.54125 32.3408 8.65269C31.7213 7.76413 29.1322 8.50885 28.768 7.87549C28.2251 8.19101 28.7077 8.61093 28.7077 8.61093C28.7077 8.61093 25.0444 9.30693 26.7333 10.7198C25.4945 10.8312 25.3205 12.2951 26.3529 13.0398C27.3853 13.7845 27.4386 14.2764 27.028 14.216C27.1927 14.5316 27.9281 14.5733 27.9699 14.2671C28.1439 14.9097 28.645 15.7797 29.8004 15.6382C30.9557 15.4967 32.0879 13.8796 31.668 12.7962Z" fill="#263238"/> <path d="M27.0541 10.504C26.1818 10.6247 25.785 10.1328 26.0031 9.69897C24.922 10.2511 26.1029 11.4715 27.0541 10.504Z" fill="#263238"/> <path d="M30.7655 12.5133C30.9157 12.9022 31.1812 13.2357 31.5265 13.4692C31.9905 13.7754 32.4104 13.4692 32.3315 13.0052C32.2596 12.5783 31.9325 11.9032 31.4499 11.7825C31.35 11.7497 31.2428 11.7462 31.1409 11.7722C31.039 11.7983 30.9466 11.853 30.8747 11.9297C30.8028 12.0065 30.7544 12.1022 30.735 12.2056C30.7157 12.309 30.7262 12.4158 30.7655 12.5133Z" fill="#FF8B7B"/> <path d="M89.7334 77.9044C88.0166 73.8537 87.3229 69.0884 89.2879 69.2856C91.304 69.4805 91.0674 76.6632 91.3945 77.452C90.7658 77.9926 89.7334 77.9044 89.7334 77.9044Z" fill="#20C0E8"/> <path d="M90.2901 70.2185C89.8679 71.7636 89.4201 74.1509 89.0791 76.1739C89.274 76.7539 89.4944 77.3339 89.7333 77.9046C89.7333 77.9046 90.7634 77.9928 91.3968 77.4523C91.1369 76.8305 91.2297 72.2276 90.2901 70.2185Z" fill="#263238"/> <path d="M90.2989 77.1622C89.7606 68.555 91.2269 60.5765 95.0874 60.9361C98.4003 61.247 93.5701 75.7377 93.6629 77.4081C92.1456 77.9974 90.2989 77.1622 90.2989 77.1622Z" fill="#20C0E8"/> <path d="M92.7998 77.1064C93.4053 70.9189 96.6696 63.6991 98.0708 66.1119C99.8503 69.1743 95.2868 76.4684 95.1639 77.6678C94.0224 77.9137 92.7998 77.1064 92.7998 77.1064Z" fill="#20C0E8"/> <path d="M92.1902 63.2353C91.7981 63.1703 91.58 62.9267 91.6055 62.581C91.6334 62.1913 91.9535 61.8038 92.2505 61.7992C92.3943 61.7992 92.6356 61.8734 92.6959 62.4094L92.4639 62.4372C92.4361 62.182 92.3595 62.0312 92.2574 62.0312C92.0997 62.0312 91.8584 62.3189 91.8398 62.5973C91.8236 62.8293 91.9535 62.9592 92.2296 63.0056L92.1902 63.2353Z" fill="#20C0E8"/> <path d="M96.3573 64.7919C96.1886 64.7782 96.0275 64.7162 95.8933 64.6132L96.0186 64.4207C96.2343 64.5599 96.4014 64.597 96.4663 64.5181C96.5638 64.3928 96.4965 64.0263 96.2946 63.8337C96.1322 63.6783 95.942 63.6899 95.7309 63.8755L95.5801 63.6992C95.6344 63.638 95.7005 63.5884 95.7745 63.5535C95.8484 63.5186 95.9287 63.4991 96.0105 63.496C96.0922 63.493 96.1737 63.5065 96.2501 63.5359C96.3264 63.5652 96.396 63.6097 96.4547 63.6667C96.7378 63.9358 96.8329 64.4276 96.6473 64.662C96.613 64.7054 96.5687 64.7399 96.5182 64.7625C96.4677 64.7851 96.4125 64.7952 96.3573 64.7919Z" fill="#20C0E8"/> <path d="M90.671 68.2951C90.5306 68.3051 90.3913 68.2635 90.2793 68.1781C90.1674 68.0926 90.0905 67.9692 90.0632 67.8311C89.9704 67.4529 90.156 66.9866 90.439 66.8892C90.5713 66.8451 90.8265 66.8405 91.0492 67.3346L90.8357 67.4321C90.7313 67.2001 90.6037 67.0748 90.5133 67.1096C90.3648 67.1606 90.2233 67.5063 90.2813 67.7754C90.3346 68.0074 90.5133 68.0863 90.7777 68.0445L90.8125 68.2765C90.766 68.2868 90.7186 68.293 90.671 68.2951Z" fill="#20C0E8"/> <path d="M88.2002 73.0998C88.0872 73.1024 87.9759 73.0708 87.8811 73.0091C87.7863 72.9474 87.7124 72.8586 87.669 72.7541C87.5066 72.3992 87.6017 71.905 87.8592 71.7565C87.9822 71.6869 88.2327 71.6359 88.5436 72.0813L88.3533 72.2136C88.2049 72.0025 88.0634 71.9073 87.9752 71.9584C87.8383 72.0373 87.7641 72.4038 87.8801 72.6544C87.9752 72.8609 88.1561 72.9165 88.4183 72.8237L88.4949 73.0441C88.4007 73.0798 88.3009 73.0986 88.2002 73.0998Z" fill="#20C0E8"/> <path d="M92.3108 66.0958C92.2868 66.0957 92.2633 66.0885 92.2435 66.075C92.0994 65.9952 91.989 65.866 91.9327 65.7112C91.8764 65.5564 91.878 65.3865 91.9372 65.2328C92.0044 65.0787 92.1194 64.9503 92.2653 64.8667C92.4111 64.7832 92.58 64.7488 92.7469 64.7688C92.8908 64.7943 93.2272 64.9219 93.2504 65.539C93.2504 65.5698 93.2381 65.5993 93.2164 65.6211C93.1946 65.6428 93.1651 65.655 93.1344 65.655C93.1036 65.655 93.0741 65.6428 93.0523 65.6211C93.0306 65.5993 93.0184 65.5698 93.0184 65.539C93.0044 65.2166 92.8954 65.0217 92.7052 64.9869C92.5897 64.9776 92.4743 65.0046 92.3749 65.0641C92.2755 65.1236 92.1971 65.2125 92.1507 65.3186C92.0672 65.5158 92.1507 65.7154 92.3827 65.8801C92.403 65.8943 92.4182 65.9145 92.4262 65.938C92.4341 65.9615 92.4343 65.9868 92.4268 66.0104C92.4193 66.034 92.4044 66.0546 92.3844 66.0691C92.3643 66.0837 92.3402 66.0914 92.3154 66.0912L92.3108 66.0958Z" fill="white"/> <path d="M95.06 72.3574C95.0334 72.3577 95.0076 72.3486 94.9871 72.3316C94.9667 72.3146 94.953 72.2908 94.9486 72.2646C94.9452 72.2498 94.9448 72.2345 94.9474 72.2195C94.95 72.2046 94.9556 72.1903 94.9638 72.1775C94.9721 72.1648 94.9827 72.1538 94.9953 72.1452C95.0078 72.1367 95.0219 72.1307 95.0368 72.1277C95.3523 72.0627 95.5263 71.9212 95.5309 71.7286C95.5205 71.6133 95.4745 71.504 95.3993 71.4158C95.3241 71.3277 95.2233 71.2652 95.111 71.2368C94.9022 71.1858 94.7166 71.2994 94.5937 71.5546C94.587 71.5684 94.5776 71.5806 94.5662 71.5907C94.5547 71.6008 94.5414 71.6086 94.527 71.6135C94.5126 71.6185 94.4973 71.6205 94.4821 71.6196C94.4668 71.6186 94.4519 71.6147 94.4382 71.608C94.4245 71.6013 94.4123 71.592 94.4021 71.5805C94.392 71.5691 94.3843 71.5558 94.3793 71.5413C94.3744 71.5269 94.3723 71.5116 94.3733 71.4964C94.3742 71.4812 94.3782 71.4663 94.3849 71.4526C94.4417 71.2987 94.5511 71.1698 94.6938 71.0887C94.8364 71.0077 95.0031 70.9796 95.1644 71.0094C95.3282 71.0499 95.4747 71.1418 95.5825 71.2716C95.6902 71.4015 95.7535 71.5625 95.7629 71.731C95.7629 71.8771 95.6887 72.2298 95.0855 72.3551L95.06 72.3574Z" fill="white"/> <path d="M98.3223 70.4018C98.1877 70.4018 98.0091 70.3229 97.8096 70.0237L98.0021 69.8937C98.146 70.1072 98.2828 70.2046 98.3733 70.1559C98.5125 70.0817 98.6053 69.7151 98.4824 69.4599C98.3942 69.2534 98.2133 69.1931 97.9488 69.2789L97.8769 69.0585C98.2527 68.9356 98.5589 69.0585 98.6958 69.3694C98.8512 69.7267 98.7468 70.2185 98.4847 70.3601C98.4352 70.3881 98.3792 70.4025 98.3223 70.4018Z" fill="#20C0E8"/> <path d="M97.6306 79.3779C97.6322 78.1398 97.1884 76.9425 96.3802 76.0046C96.4595 75.993 96.5321 75.9534 96.5848 75.893C96.6376 75.8326 96.667 75.7553 96.6678 75.6751C96.6672 75.5845 96.6308 75.4977 96.5665 75.4339C96.5021 75.37 96.4151 75.3341 96.3245 75.3341H88.5571C88.4725 75.3353 88.3914 75.368 88.3298 75.426C88.2681 75.4839 88.2304 75.5628 88.224 75.6472C88.2176 75.7315 88.243 75.8152 88.2952 75.8818C88.3474 75.9484 88.4226 75.993 88.5061 76.0069C87.9981 76.5969 87.6296 77.2939 87.4282 78.046C87.2268 78.7981 87.1976 79.5859 87.3427 80.3509C87.4879 81.1158 87.8036 81.8382 88.2665 82.4642C88.7294 83.0903 89.3276 83.6039 90.0164 83.9668C89.9413 84.0055 89.8815 84.0683 89.8465 84.1451C89.8115 84.222 89.8034 84.3084 89.8235 84.3904C89.8436 84.4724 89.8908 84.5452 89.9573 84.5972C90.0239 84.6491 90.106 84.6771 90.1904 84.6767H94.6889C94.7884 84.6761 94.8836 84.6363 94.954 84.566C95.0243 84.4956 95.0641 84.4004 95.0647 84.3009C95.0644 84.2322 95.0454 84.1648 95.0099 84.106C94.9744 84.0472 94.9236 83.9991 94.8629 83.9668C95.6982 83.5263 96.3975 82.8661 96.8852 82.0574C97.373 81.2487 97.6307 80.3222 97.6306 79.3779Z" fill="#263238"/> </svg>