<svg width="204" height="178" viewBox="0 0 204 178" fill="none" xmlns="http://www.w3.org/2000/svg">
<g clip-path="url(#clip0_98_1195)">
<path d="M204 117.27H0V157.544H204V117.27Z" fill="#1EC0E8"/>
<path d="M23.6023 151.469H6.63477V123.027H22.9565V128.245H13.0014V134.553H22.2558V139.753H13.0014V146.257H23.6023V151.469Z" fill="white"/>
<path d="M59.7794 123.027L50.0314 151.469H42.8119L33.1797 123.027H40.0459L45.9434 142.821C46.2323 143.744 46.4243 144.694 46.5161 145.657H46.6379C46.7499 144.668 46.9539 143.692 47.2472 142.742L53.1081 123.027H59.7794Z" fill="white"/>
<path d="M88.219 151.469H71.2515V123.027H87.5732V128.245H77.6242V134.553H86.8787V139.753H77.6242V146.257H88.219V151.469Z" fill="white"/>
<path d="M126.297 151.469H119.863L108.202 133.598C107.687 132.838 107.213 132.051 106.782 131.24H106.703C106.805 132.244 106.858 133.778 106.862 135.84V151.469H100.842V123.027H107.709L118.937 140.341C119.449 141.125 119.918 141.897 120.356 142.662H120.436C120.297 141.365 120.244 140.059 120.277 138.755V123.027H126.297V151.469Z" fill="white"/>
<path d="M160.719 128.245H152.647V151.469H146.256V128.245H138.232V123.027H160.725L160.719 128.245Z" fill="white"/>
<path d="M184.565 151.965C180.503 151.965 177.201 150.64 174.659 147.99C172.116 145.341 170.841 141.882 170.833 137.616C170.833 133.124 172.128 129.489 174.72 126.708C177.311 123.928 180.743 122.537 185.016 122.537C189.057 122.537 192.323 123.866 194.812 126.524C197.302 129.182 198.549 132.687 198.553 137.04C198.553 141.511 197.26 145.114 194.672 147.85C192.085 150.585 188.716 151.957 184.565 151.965ZM184.839 128.08C183.815 128.042 182.797 128.253 181.87 128.693C180.944 129.133 180.136 129.79 179.514 130.609C178.198 132.296 177.54 134.527 177.54 137.303C177.54 140.08 178.198 142.307 179.514 143.985C180.148 144.75 180.939 145.366 181.834 145.791C182.729 146.216 183.706 146.44 184.696 146.446C185.685 146.453 186.665 146.242 187.565 145.828C188.465 145.415 189.265 144.809 189.908 144.052C191.2 142.46 191.845 140.249 191.845 137.42C191.845 134.476 191.22 132.181 189.969 130.536C189.378 129.736 188.602 129.093 187.708 128.663C186.814 128.233 185.829 128.029 184.839 128.068V128.08Z" fill="white"/>
<path d="M8.50509 173.597V177.786H5.78174V165.635H10.0465C13.0927 165.635 14.6178 166.925 14.6219 169.505C14.6398 170.067 14.5307 170.626 14.3028 171.14C14.0748 171.653 13.734 172.108 13.306 172.47C12.3142 173.263 11.0682 173.663 9.80279 173.597H8.50509ZM8.50509 167.735V171.52H9.57737C11.0274 171.52 11.7524 170.883 11.7524 169.61C11.7524 168.336 11.0274 167.711 9.57737 167.735H8.50509Z" fill="black"/>
<path d="M44.286 177.786H41.319L40.4599 175.085H36.1587L35.3057 177.786H32.3569L36.7618 165.635H39.9908L44.286 177.786ZM39.8385 172.978L38.5408 168.893C38.4341 168.538 38.3646 168.173 38.3337 167.803H38.2666C38.2395 168.163 38.17 168.519 38.0595 168.862L36.7435 172.978H39.8385Z" fill="black"/>
<path d="M71.7328 177.357C70.6411 177.827 69.459 178.047 68.2723 178C67.4696 178.043 66.6667 177.919 65.914 177.635C65.1613 177.352 64.4749 176.915 63.8979 176.353C63.356 175.766 62.9362 175.076 62.6631 174.324C62.3901 173.572 62.2693 172.773 62.3078 171.974C62.2714 171.105 62.4114 170.237 62.7194 169.424C63.0273 168.611 63.4967 167.87 64.099 167.246C64.7065 166.634 65.4329 166.156 66.2327 165.84C67.0326 165.524 67.8887 165.377 68.7475 165.408C69.7613 165.383 70.7717 165.536 71.7328 165.861V168.495C70.8945 168.002 69.9378 167.75 68.9668 167.766C68.459 167.745 67.9524 167.83 67.4793 168.017C67.0062 168.204 66.577 168.487 66.2191 168.85C65.8594 169.241 65.5813 169.7 65.4013 170.201C65.2214 170.702 65.1431 171.234 65.1712 171.765C65.1191 172.796 65.4738 173.807 66.1582 174.576C66.5024 174.93 66.917 175.205 67.3749 175.386C67.8327 175.566 68.3233 175.647 68.8145 175.624C69.8399 175.632 70.8484 175.361 71.7328 174.84V177.357Z" fill="black"/>
<path d="M101.153 177.786H97.7168L94.1892 172.525C94.0689 172.31 93.963 172.087 93.8724 171.857H93.8298V177.804H91.1064V165.635H93.8298V171.38H93.8724C93.9394 171.22 94.0491 170.994 94.2075 170.7L97.5461 165.635H100.793L96.5775 171.429L101.153 177.786Z" fill="black"/>
<path d="M130.208 177.786H127.265L126.406 175.085H122.105L121.252 177.786H118.303L122.702 165.635H125.931L130.208 177.786ZM125.754 172.978L124.457 168.893C124.355 168.537 124.288 168.172 124.256 167.803H124.219C124.19 168.163 124.118 168.519 124.006 168.862L122.696 172.978H125.754Z" fill="black"/>
<path d="M158.91 176.971C157.557 177.699 156.038 178.054 154.505 178C152.82 178.092 151.168 177.508 149.911 176.377C149.337 175.791 148.89 175.09 148.601 174.32C148.311 173.55 148.185 172.728 148.23 171.906C148.196 171.043 148.342 170.182 148.656 169.377C148.971 168.573 149.448 167.843 150.057 167.233C150.709 166.621 151.476 166.146 152.313 165.836C153.15 165.526 154.04 165.387 154.931 165.427C156.083 165.407 157.229 165.59 158.319 165.966V168.532C157.27 167.958 156.088 167.677 154.895 167.717C154.383 167.697 153.873 167.786 153.398 167.977C152.922 168.168 152.492 168.457 152.135 168.826C151.464 169.646 151.089 170.669 151.069 171.731C151.049 172.792 151.386 173.829 152.025 174.674C152.358 175.021 152.761 175.292 153.206 175.469C153.652 175.646 154.13 175.726 154.608 175.703C155.14 175.724 155.671 175.628 156.162 175.422V173.045H153.725V170.859H158.867L158.91 176.971Z" fill="black"/>
<path d="M185.753 177.786H178.503V165.635H185.473V167.864H181.208V170.565H185.162V172.788H181.208V175.587H185.753V177.786Z" fill="black"/>
<path d="M134.857 94.071V96.8882L131.165 96.0124V96.6677L135.703 97.7456V94.071C135.712 94.072 135.72 94.071 135.728 94.0683C135.736 94.0656 135.743 94.0611 135.749 94.0552C135.755 94.0493 135.759 94.0422 135.762 94.0343C135.764 94.0264 135.765 94.018 135.764 94.0097C135.764 94.0019 135.763 93.9942 135.76 93.9871C135.757 93.98 135.752 93.9736 135.746 93.9684C135.74 93.9632 135.734 93.9593 135.726 93.9569C135.719 93.9545 135.711 93.9537 135.703 93.9546C135.714 93.8701 135.694 93.7847 135.647 93.7139C135.6 93.6431 135.529 93.5916 135.448 93.5688C135.365 93.5197 135.3 93.4472 135.259 93.3605C135.214 93.4469 135.147 93.519 135.064 93.5688C134.982 93.5916 134.911 93.6431 134.864 93.7139C134.818 93.7847 134.797 93.8701 134.808 93.9546C134.8 93.9537 134.792 93.9545 134.785 93.9569C134.778 93.9593 134.771 93.9632 134.765 93.9684C134.759 93.9736 134.755 93.98 134.752 93.9871C134.748 93.9942 134.747 94.0019 134.747 94.0097C134.739 94.0243 134.737 94.0416 134.741 94.0577C134.746 94.0738 134.757 94.0874 134.771 94.0955C134.786 94.1036 134.803 94.1056 134.819 94.101C134.835 94.0964 134.848 94.0856 134.857 94.071Z" fill="#1FC0E8"/>
<path d="M122.739 92.0622V92.6256H123.464V93.3728C123.54 93.5327 123.632 93.6845 123.738 93.826C123.939 94.0712 124.037 94.3852 124.012 94.7018V96.0124H123.208V96.6678H130.72V96.0247L131.14 96.1104V92.9074C131.156 92.9074 131.172 92.9009 131.183 92.8894C131.195 92.8779 131.201 92.8624 131.201 92.8461C131.201 92.8299 131.195 92.8143 131.183 92.8028C131.172 92.7913 131.156 92.7849 131.14 92.7849C131.148 92.7016 131.127 92.6182 131.08 92.549C131.033 92.4797 130.964 92.4289 130.884 92.4052C130.884 92.3532 130.864 92.3033 130.827 92.2666C130.791 92.2298 130.741 92.2092 130.689 92.2092C130.638 92.2092 130.588 92.2298 130.552 92.2666C130.515 92.3033 130.494 92.3532 130.494 92.4052C130.415 92.4289 130.346 92.4797 130.299 92.549C130.252 92.6182 130.231 92.7016 130.239 92.7849C130.222 92.7849 130.207 92.7913 130.196 92.8028C130.184 92.8143 130.178 92.8299 130.178 92.8461C130.178 92.8624 130.184 92.8779 130.196 92.8894C130.207 92.9009 130.222 92.9074 130.239 92.9074H130.312V96.0002H128.661V94.6896C128.648 94.5308 128.668 94.3712 128.72 94.2205C128.771 94.0699 128.852 93.9315 128.959 93.8138C129.074 93.6738 129.174 93.5219 129.258 93.3606V92.6134H129.983V92.05H129.447C129.447 90.2433 128.551 89.8513 127.692 89.4226C127.123 89.088 126.664 88.5943 126.37 88.0017C126.072 88.5939 125.611 89.0873 125.042 89.4226C124.183 89.8513 123.287 90.2433 123.287 92.05L122.739 92.0622ZM126.638 94.7018C126.627 94.5349 126.656 94.3678 126.724 94.2151C126.792 94.0624 126.897 93.9288 127.028 93.826C127.018 93.7696 127.02 93.7117 127.035 93.6563C127.05 93.6009 127.076 93.5494 127.113 93.5054C127.149 93.4615 127.195 93.4261 127.247 93.4019C127.298 93.3776 127.355 93.3651 127.412 93.3651C127.469 93.3651 127.525 93.3776 127.577 93.4019C127.628 93.4261 127.674 93.4615 127.711 93.5054C127.747 93.5494 127.774 93.6009 127.789 93.6563C127.803 93.7117 127.806 93.7696 127.796 93.826C127.925 93.9302 128.027 94.0642 128.094 94.2167C128.161 94.3691 128.19 94.5356 128.179 94.7018V96.0124H126.656L126.638 94.7018ZM124.573 94.7018C124.562 94.5356 124.591 94.3691 124.658 94.2167C124.725 94.0642 124.827 93.9302 124.956 93.826C125.104 93.6925 125.233 93.5402 125.34 93.3728C125.452 93.5391 125.583 93.6913 125.73 93.826C125.86 93.9302 125.962 94.0642 126.029 94.2167C126.096 94.3691 126.125 94.5356 126.114 94.7018V96.0124H124.573V94.7018Z" fill="#1FC0E8"/>
<path d="M24.0164 87.6037H24.6257V86.9912H6.95752V88.0079H23.5351C23.5361 87.9481 23.5498 87.8891 23.5755 87.8352C23.6011 87.7812 23.638 87.7334 23.6837 87.695C23.7294 87.6567 23.7827 87.6287 23.8402 87.6129C23.8976 87.5971 23.9577 87.594 24.0164 87.6037Z" fill="#1FC0E8"/>
<path d="M25.6736 76.6593V80.7565H25.5517C25.4838 80.7565 25.4187 80.7836 25.3708 80.8318C25.3228 80.8801 25.2958 80.9455 25.2958 81.0137C25.2958 81.0819 25.3228 81.1474 25.3708 81.1956C25.4187 81.2438 25.4838 81.271 25.5517 81.271H29.8164C29.8843 81.271 29.9494 81.2438 29.9974 81.1956C30.0454 81.1474 30.0723 81.0819 30.0723 81.0137C30.0723 80.9455 30.0454 80.8801 29.9974 80.8318C29.9494 80.7836 29.8843 80.7565 29.8164 80.7565H29.6946V76.6593C29.8152 76.6457 29.9267 76.588 30.0076 76.497C30.0886 76.406 30.1333 76.2883 30.1333 76.1663C30.1333 76.0442 30.0886 75.9265 30.0076 75.8355C29.9267 75.7445 29.8152 75.6868 29.6946 75.6732V75.3486C29.6946 74.2952 27.6719 71.821 27.6719 71.821C27.6719 71.821 25.6492 74.2707 25.6492 75.3486V75.6732C25.5285 75.6868 25.4171 75.7445 25.3361 75.8355C25.2552 75.9265 25.2104 76.0442 25.2104 76.1663C25.2104 76.2883 25.2552 76.406 25.3361 76.497C25.4171 76.588 25.5285 76.6457 25.6492 76.6593H25.6736ZM28.8051 77.4922C28.8051 77.2533 28.9269 77.0635 29.0793 77.0635C29.2316 77.0635 29.3534 77.2533 29.3534 77.4922V79.2928H28.8051V77.4922ZM27.2698 77.4922C27.2698 77.4359 27.2808 77.3801 27.3022 77.3281C27.3237 77.2761 27.3551 77.2289 27.3947 77.189C27.4343 77.1492 27.4813 77.1177 27.5331 77.0961C27.5848 77.0746 27.6403 77.0635 27.6963 77.0635C27.7528 77.0627 27.8089 77.0732 27.8613 77.0943C27.9138 77.1155 27.9615 77.147 28.0018 77.1869C28.042 77.2267 28.074 77.2743 28.0958 77.3267C28.1176 77.3791 28.1288 77.4354 28.1288 77.4922V79.2928H27.2698V77.4922ZM26.0513 77.4922C26.0513 77.2533 26.1731 77.0635 26.3194 77.0635C26.4656 77.0635 26.5935 77.2533 26.5935 77.4922V79.2928H26.0513V77.4922Z" fill="#1FC0E8"/>
<path d="M46.8451 105.983H46.2358C45.9312 98.5663 39.5341 97.519 39.5341 97.519C39.5341 97.519 33.1126 98.5663 32.7897 105.983H32.2231V106.791H33.533C33.8072 106.791 33.7402 106.399 33.7402 106.399C33.99 106.399 33.9595 105.983 33.9595 105.983H33.5086C33.8133 99.3809 39.5341 98.4193 39.5341 98.4193C39.5341 98.4193 45.2306 99.3564 45.5596 105.958H45.1026C45.1026 105.958 45.1026 106.375 45.328 106.375C45.328 106.375 45.2549 106.767 45.5352 106.767H46.8451V105.983Z" fill="#1FC0E8"/>
<path d="M155.955 79.9542H196.458V79.4949L196.878 79.0356H155.535L155.955 79.4949V79.9542Z" fill="#1FC0E8"/>
<path d="M195.58 75.3732H156.832V78.5027H195.58V75.3732Z" fill="#1FC0E8"/>
<path d="M194.447 71.1473H157.965V74.3382H194.447V71.1473Z" fill="#1FC0E8"/>
<path d="M184.254 62.1199H168.164V63.4122H184.254V62.1199Z" fill="#1FC0E8"/>
<path d="M176.206 58.9903C174.089 58.9846 172.046 59.7705 170.473 61.1951H181.945C180.369 59.7721 178.325 58.9866 176.206 58.9903Z" fill="#1FC0E8"/>
<path d="M156.089 82.2754H196.323L196.604 81.4731H155.809L156.089 82.2754Z" fill="#1FC0E8"/>
<path d="M191.578 64.0614H160.835V70.6452H191.578V64.0614ZM167.116 69.2243C166.773 69.2255 166.436 69.1242 166.15 68.9331C165.864 68.7421 165.64 68.4699 165.508 68.1511C165.375 67.8322 165.34 67.4811 165.406 67.1421C165.473 66.8031 165.638 66.4915 165.88 66.2468C166.123 66.0021 166.432 65.8352 166.769 65.7674C167.106 65.6995 167.456 65.7337 167.773 65.8657C168.091 65.9976 168.362 66.2213 168.554 66.5085C168.745 66.7957 168.847 67.1334 168.847 67.4788C168.847 67.9407 168.664 68.3837 168.34 68.7109C168.016 69.0381 167.576 69.2227 167.116 69.2243ZM182.957 69.3897H179.85V69.702H172.587V69.3897H169.48V65.5741H172.587V65.2557H179.85V65.5741H182.957V69.3897ZM185.308 69.2243C184.965 69.2243 184.629 69.1219 184.344 68.9301C184.058 68.7383 183.836 68.4657 183.704 68.1468C183.573 67.8279 183.538 67.4769 183.605 67.1383C183.672 66.7997 183.838 66.4887 184.081 66.2446C184.323 66.0005 184.633 65.8343 184.97 65.7669C185.306 65.6996 185.656 65.7341 185.973 65.8662C186.29 65.9984 186.561 66.2221 186.752 66.5091C186.943 66.7962 187.045 67.1336 187.045 67.4788C187.045 67.7091 186.999 67.9371 186.911 68.1496C186.823 68.3622 186.694 68.5552 186.532 68.7174C186.369 68.8796 186.176 69.008 185.964 69.095C185.752 69.182 185.525 69.2259 185.296 69.2243H185.308Z" fill="#1FC0E8"/>
<path d="M163.424 93.379H158.057V96.1594H163.424V93.379Z" fill="#1FC0E8"/>
<path d="M163.424 89.0061H158.057V90.1391H163.424V89.0061Z" fill="#1FC0E8"/>
<path d="M160.628 86.6605C160.894 86.6605 161.154 86.5811 161.376 86.4324C161.597 86.2837 161.77 86.0723 161.872 85.825C161.974 85.5776 162 85.3055 161.948 85.0429C161.896 84.7804 161.768 84.5392 161.58 84.3499C161.391 84.1606 161.152 84.0317 160.89 83.9795C160.629 83.9273 160.358 83.9541 160.112 84.0565C159.866 84.159 159.656 84.3324 159.508 84.555C159.36 84.7776 159.281 85.0393 159.281 85.307C159.281 85.666 159.423 86.0102 159.676 86.2641C159.928 86.5179 160.271 86.6605 160.628 86.6605Z" fill="#1FC0E8"/>
<path d="M166.599 83.1083V82.8389H154.883V84.7864H154.462V84.4067H154.146V83.0471C154.139 82.9608 154.149 82.8741 154.176 82.792C154.204 82.7099 154.247 82.6342 154.304 82.5694C154.366 82.4942 154.419 82.412 154.462 82.3244V81.9202H155.072C155.13 81.9202 155.186 81.897 155.227 81.8556C155.268 81.8143 155.291 81.7582 155.291 81.6997C155.291 81.6407 155.268 81.5839 155.227 81.5416C155.186 81.4993 155.13 81.4747 155.072 81.4731H154.596C154.626 81.1622 154.548 80.8506 154.375 80.5914C154.201 80.3322 153.944 80.1417 153.646 80.0522C153.646 79.8606 153.57 79.6768 153.435 79.5412C153.301 79.4057 153.118 79.3296 152.927 79.3296C152.736 79.3296 152.554 79.4057 152.419 79.5412C152.284 79.6768 152.208 79.8606 152.208 80.0522C151.911 80.1417 151.653 80.3322 151.48 80.5914C151.306 80.8506 151.228 81.1622 151.258 81.4731H150.783C150.724 81.4747 150.668 81.4993 150.627 81.5416C150.586 81.5839 150.563 81.6407 150.563 81.6997C150.563 81.7582 150.586 81.8143 150.627 81.8556C150.669 81.897 150.724 81.9202 150.783 81.9202H151.392V82.3244C151.433 82.4104 151.482 82.4924 151.538 82.5694C151.594 82.6349 151.636 82.7108 151.662 82.7928C151.688 82.8749 151.698 82.9613 151.69 83.0471V84.3822H151.392V84.7619H150.783C150.724 84.7619 150.669 84.7852 150.627 84.8265C150.586 84.8679 150.563 84.9239 150.563 84.9824C150.563 85.0409 150.586 85.0969 150.627 85.1383C150.669 85.1796 150.724 85.2029 150.783 85.2029V85.5214H151.02V85.2029H151.233V85.5214H151.343L150.978 94.4752H150.575C150.517 94.4752 150.461 94.4985 150.42 94.5398C150.379 94.5812 150.356 94.6373 150.356 94.6957C150.356 94.7542 150.379 94.8103 150.42 94.8516C150.461 94.893 150.517 94.9162 150.575 94.9162V95.2347H150.819V94.9162H150.965L150.636 103.068H150.289C150.231 103.068 150.175 103.091 150.134 103.132C150.093 103.174 150.07 103.23 150.07 103.288C150.07 103.347 150.093 103.403 150.134 103.444C150.175 103.486 150.231 103.509 150.289 103.509V103.821H150.533V103.509H150.618L150.259 112.322H143.313L143.051 105.854H143.228V105.616C143.272 105.614 143.314 105.595 143.345 105.563C143.375 105.531 143.392 105.489 143.392 105.444C143.392 105.4 143.375 105.358 143.344 105.327C143.313 105.296 143.272 105.279 143.228 105.279H143.021L142.771 99.0747H142.911V99.3135H143.094V99.0747C143.138 99.0731 143.18 99.0543 143.211 99.0223C143.241 98.9903 143.258 98.9476 143.258 98.9032C143.258 98.8593 143.241 98.8173 143.21 98.7863C143.179 98.7553 143.137 98.7378 143.094 98.7378H142.783L142.509 91.9214H142.588V91.6825H142.747V91.9214H142.935V91.6825C142.98 91.681 143.023 91.6624 143.054 91.6306C143.086 91.5988 143.105 91.556 143.106 91.511C143.104 91.4666 143.086 91.4246 143.054 91.3937C143.022 91.3629 142.98 91.3456 142.935 91.3457H142.497V91.0701H142.247V90.0534C142.242 89.9876 142.251 89.9215 142.273 89.8593C142.295 89.7971 142.33 89.7401 142.375 89.6921C142.421 89.6346 142.462 89.5732 142.497 89.5084V89.196H142.935C142.98 89.196 143.022 89.1788 143.054 89.1479C143.086 89.1171 143.104 89.0751 143.106 89.0306C143.105 88.9856 143.086 88.9429 143.054 88.9111C143.023 88.8792 142.98 88.8607 142.935 88.8592H142.497C142.519 88.6228 142.459 88.386 142.327 88.1894C142.195 87.9927 141.998 87.8484 141.772 87.7813C141.772 87.7089 141.758 87.6372 141.73 87.5703C141.703 87.5034 141.662 87.4427 141.611 87.3915C141.56 87.3403 141.5 87.2997 141.433 87.272C141.367 87.2443 141.295 87.2301 141.223 87.2301C141.151 87.2301 141.08 87.2443 141.014 87.272C140.947 87.2997 140.887 87.3403 140.836 87.3915C140.785 87.4427 140.744 87.5034 140.717 87.5703C140.689 87.6372 140.675 87.7089 140.675 87.7813C140.449 87.8486 140.254 87.9931 140.122 88.1899C139.991 88.3867 139.932 88.6234 139.956 88.8592H139.591C139.547 88.8607 139.505 88.8795 139.474 88.9115C139.443 88.9435 139.426 88.9862 139.426 89.0306C139.426 89.0745 139.444 89.1166 139.474 89.1476C139.505 89.1786 139.547 89.196 139.591 89.196H140.06V89.5084C140.09 89.5733 140.127 89.6348 140.169 89.6921C140.253 89.793 140.295 89.9225 140.285 90.0534V91.0701H140.06V91.364H139.615C139.571 91.364 139.53 91.3815 139.499 91.4125C139.468 91.4435 139.451 91.4855 139.451 91.5294C139.451 91.5738 139.468 91.6166 139.498 91.6485C139.529 91.6805 139.571 91.6993 139.615 91.7009V91.9397H139.798V91.6825H139.956V91.9214H140.042L139.761 98.7378H139.451C139.406 98.7378 139.364 98.755 139.332 98.7859C139.3 98.8167 139.282 98.8588 139.28 98.9032C139.281 98.9482 139.3 98.9909 139.332 99.0228C139.363 99.0546 139.406 99.0732 139.451 99.0747V99.3135H139.639V99.0747H139.749L139.451 105.279H139.189C139.167 105.278 139.144 105.282 139.124 105.29C139.103 105.297 139.084 105.309 139.068 105.325C139.052 105.34 139.04 105.359 139.031 105.379C139.022 105.4 139.018 105.422 139.018 105.444C139.018 105.49 139.036 105.533 139.068 105.565C139.1 105.597 139.143 105.616 139.189 105.616V105.854H139.371V105.616H139.451L139.176 112.322H135.716V98.3459L131.177 97.268V112.322H130.708V97.268H123.208V112.322H122.861V93.2626H122.051V90.9782C122.051 90.9782 121.484 90.2923 115.349 90.2372C115.297 90.0366 115.207 89.8482 115.082 89.6832C114.958 89.5181 114.802 89.3796 114.624 89.2756C114.428 89.1649 114.21 89.0993 113.985 89.0834C113.761 89.0675 113.536 89.1018 113.326 89.1838C113.491 88.8837 113.631 88.5713 113.777 88.2773H114.593C121.581 88.2773 122.075 88.9755 122.075 88.9755C122.075 88.9755 124.89 86.4706 122.623 82.7837C121.797 81.492 120.751 80.3561 119.534 79.4275C119.549 79.3814 119.561 79.3343 119.571 79.2867C119.626 78.9908 119.593 78.6852 119.476 78.408C119.36 78.1307 119.165 77.8939 118.916 77.727C118.667 77.56 118.374 77.4703 118.075 77.4688C117.775 77.4674 117.482 77.5543 117.231 77.7188L117.103 77.627C117.275 76.3719 117.379 75.1084 117.414 73.8421C117.618 74.0851 117.891 74.2593 118.196 74.3411C118.502 74.4229 118.825 74.4083 119.122 74.2993C119.419 74.1904 119.675 73.9923 119.856 73.7319C120.037 73.4716 120.134 73.1615 120.134 72.8438C120.134 72.5261 120.037 72.216 119.856 71.9557C119.675 71.6953 119.419 71.4972 119.122 71.3883C118.825 71.2793 118.502 71.2648 118.196 71.3465C117.891 71.4283 117.618 71.6025 117.414 71.8455C117.38 70.5131 117.268 69.1839 117.079 67.8647C117.279 68.029 117.517 68.1403 117.771 68.188C118.025 68.2358 118.287 68.2187 118.533 68.1381C118.778 68.0576 119 67.9163 119.177 67.7272C119.354 67.538 119.481 67.3072 119.546 67.0559C119.611 66.8045 119.613 66.5407 119.55 66.2888C119.487 66.0368 119.362 65.8047 119.187 65.6139C119.012 65.423 118.792 65.2796 118.547 65.1966C118.302 65.1137 118.04 65.094 117.786 65.1393C117.568 65.1797 117.362 65.2661 117.18 65.3928C116.998 65.5195 116.846 65.6836 116.732 65.8742C116.462 64.5729 116.116 63.2886 115.696 62.0281C115.97 62.1886 116.286 62.2601 116.602 62.2327C116.918 62.2053 117.217 62.0803 117.459 61.875C117.702 61.6698 117.875 61.3941 117.955 61.086C118.035 60.7779 118.019 60.4523 117.908 60.154C117.802 59.8535 117.606 59.5933 117.346 59.4094C117.087 59.2254 116.778 59.1266 116.461 59.1266C116.143 59.1266 115.834 59.2254 115.575 59.4094C115.316 59.5933 115.12 59.8535 115.014 60.154C114.523 58.9069 113.96 57.6901 113.326 56.51C113.536 56.592 113.761 56.6262 113.985 56.6103C114.21 56.5945 114.428 56.5288 114.624 56.4181C114.978 56.2127 115.237 55.874 115.344 55.4766C115.45 55.0792 115.395 54.6556 115.19 54.2991C114.986 53.9425 114.649 53.6822 114.254 53.5754C113.858 53.4686 113.437 53.524 113.082 53.7295C112.886 53.8439 112.719 54.0014 112.592 54.1902C112.466 54.379 112.383 54.5942 112.351 54.8197C111.637 53.6675 110.858 52.5572 110.018 51.4941C110.242 51.5448 110.475 51.5435 110.699 51.4905C110.923 51.4374 111.131 51.334 111.309 51.1879C111.515 51.0217 111.675 50.8053 111.774 50.5595C111.873 50.3136 111.908 50.0464 111.875 49.7831C111.843 49.5199 111.744 49.2694 111.588 49.0555C111.432 48.8416 111.224 48.6714 110.984 48.561C110.744 48.4506 110.48 48.4038 110.217 48.4249C109.954 48.446 109.7 48.5343 109.481 48.6816C109.261 48.8288 109.083 49.03 108.963 49.2661C108.842 49.5022 108.784 49.7653 108.793 50.0304C107.897 49.01 106.939 48.0467 105.924 47.1458C106.183 47.1508 106.44 47.0895 106.67 46.9676C106.899 46.8457 107.095 46.6673 107.237 46.449C107.379 46.2307 107.464 45.9796 107.484 45.7193C107.504 45.4589 107.457 45.1979 107.349 44.9605C107.241 44.7231 107.075 44.5171 106.866 44.3619C106.657 44.2066 106.413 44.1071 106.155 44.0728C105.898 44.0384 105.636 44.0702 105.394 44.1653C105.152 44.2604 104.938 44.4156 104.772 44.6164C104.628 44.7947 104.525 45.0033 104.471 45.227C104.417 45.4506 104.414 45.6836 104.462 45.9086C103.405 45.0654 102.3 44.2843 101.153 43.5691C101.379 43.5378 101.594 43.4554 101.783 43.3281C101.972 43.2007 102.13 43.0318 102.244 42.8342C102.448 42.4776 102.503 42.0541 102.397 41.6567C102.291 41.2593 102.032 40.9206 101.677 40.7151C101.323 40.5097 100.901 40.4542 100.506 40.561C100.111 40.6679 99.7737 40.9282 99.5693 41.2847C99.4592 41.4819 99.3939 41.7011 99.3781 41.9266C99.3623 42.1522 99.3964 42.3785 99.4779 42.5892C98.2941 41.9512 97.0734 41.3847 95.8225 40.8927C96.0322 40.8146 96.2228 40.6921 96.3815 40.5336C96.5402 40.3752 96.6633 40.1844 96.7424 39.9741C96.8343 39.7288 96.8629 39.4641 96.8258 39.2046C96.7887 38.9452 96.6869 38.6994 96.53 38.49C96.3731 38.2807 96.1661 38.1146 95.9283 38.0072C95.6904 37.8997 95.4294 37.8545 95.1695 37.8756C94.9096 37.8967 94.6592 37.9835 94.4416 38.1279C94.224 38.2723 94.0462 38.4696 93.9247 38.7016C93.8033 38.9335 93.7421 39.1926 93.7469 39.4547C93.7517 39.7167 93.8222 39.9734 93.9521 40.2007C92.6973 39.7813 91.4199 39.4337 90.126 39.1595C90.3981 38.9971 90.6141 38.7547 90.7449 38.465C90.8758 38.1753 90.9151 37.8523 90.8576 37.5395C90.8001 37.2266 90.6486 36.939 90.4235 36.7154C90.1984 36.4918 89.9105 36.343 89.5986 36.289C89.2868 36.235 88.9659 36.2784 88.6793 36.4133C88.3928 36.5483 88.1542 36.7683 87.9959 37.0438C87.8376 37.3193 87.7671 37.6369 87.7939 37.9539C87.8208 38.2709 87.9436 38.5719 88.1459 38.8166C86.8336 38.6266 85.5113 38.5141 84.1858 38.4797C84.4295 38.2747 84.6046 37.9993 84.6871 37.6909C84.7697 37.3824 84.7558 37.0559 84.6473 36.7556C84.5388 36.4554 84.3411 36.196 84.0808 36.0127C83.8206 35.8294 83.5105 35.7311 83.1928 35.7311C82.875 35.7311 82.565 35.8294 82.3047 36.0127C82.0445 36.196 81.8467 36.4554 81.7383 36.7556C81.6298 37.0559 81.6159 37.3824 81.6984 37.6909C81.781 37.9993 81.956 38.2747 82.1997 38.4797C80.8743 38.5141 79.552 38.6266 78.2396 38.8166C78.3787 38.6481 78.4801 38.4515 78.5368 38.2401C78.5936 38.0288 78.6044 37.8076 78.5686 37.5917C78.5334 37.3906 78.4591 37.1985 78.3501 37.0263C78.241 36.854 78.0993 36.7051 77.9329 36.588C77.7666 36.4708 77.5789 36.3877 77.3807 36.3435C77.1824 36.2992 76.9774 36.2947 76.7774 36.33C76.5774 36.3654 76.3863 36.4401 76.215 36.5497C76.0436 36.6594 75.8955 36.8018 75.7789 36.969C75.6624 37.1362 75.5797 37.3249 75.5357 37.5242C75.4917 37.7235 75.4872 37.9296 75.5224 38.1306C75.5607 38.3491 75.646 38.5565 75.7722 38.7385C75.8985 38.9204 76.0627 39.0725 76.2535 39.184C74.9594 39.4574 73.682 39.8051 72.4274 40.2252C72.5829 39.949 72.6503 39.6315 72.6205 39.3156C72.5907 38.9997 72.4651 38.7006 72.2608 38.4587C72.0564 38.2169 71.7831 38.0439 71.4778 37.9633C71.1724 37.8826 70.8498 37.8982 70.5536 38.0078C70.2573 38.1174 70.0017 38.3158 69.8213 38.5762C69.6408 38.8366 69.5443 39.1464 69.5446 39.4637C69.545 39.781 69.6423 40.0906 69.8233 40.3506C70.0044 40.6105 70.2605 40.8083 70.557 40.9172C69.3072 41.4097 68.0867 41.9741 66.9015 42.6076C66.983 42.3979 67.017 42.1726 67.0012 41.948C66.9854 41.7235 66.9202 41.5053 66.8102 41.3092C66.6058 40.9527 66.2688 40.6924 65.8735 40.5855C65.4782 40.4787 65.0568 40.5342 64.7022 40.7396C64.3475 40.9451 64.0885 41.2838 63.9823 41.6812C63.876 42.0786 63.9312 42.5021 64.1356 42.8587C64.2493 43.0556 64.406 43.224 64.5938 43.3513C64.7817 43.4786 64.9957 43.5615 65.22 43.5936C64.0734 44.3088 62.9688 45.0899 61.9118 45.9331C61.9623 45.7082 61.9605 45.4746 61.9066 45.2505C61.8527 45.0264 61.7481 44.8178 61.6011 44.6409C61.3377 44.3258 60.9606 44.1287 60.5527 44.0931C60.1448 44.0575 59.7396 44.1863 59.4261 44.451C59.1126 44.7158 58.9166 45.0949 58.8812 45.5049C58.8458 45.9149 58.9739 46.3223 59.2372 46.6374C59.3871 46.813 59.5746 46.9522 59.7856 47.0445C59.9967 47.1367 60.2258 47.1798 60.4557 47.1703C59.4437 48.0722 58.4856 49.0334 57.5862 50.0487C57.5973 49.8179 57.5558 49.5877 57.465 49.3754C57.3743 49.1632 57.2365 48.9745 57.0622 48.8238C56.7458 48.5795 56.3477 48.4675 55.951 48.5112C55.5544 48.5549 55.1898 48.7509 54.9335 49.0584C54.6772 49.3658 54.549 49.7609 54.5756 50.1611C54.6021 50.5613 54.7814 50.9358 55.0761 51.2063C55.2531 51.3522 55.4608 51.4557 55.6836 51.5088C55.9064 51.5618 56.1382 51.5631 56.3616 51.5125C55.5242 52.5761 54.7471 53.6864 54.0342 54.838C54.001 54.613 53.9181 54.3983 53.7916 54.2097C53.6651 54.0211 53.4982 53.8633 53.3031 53.7479C53.1275 53.6461 52.9337 53.5802 52.7327 53.5537C52.5317 53.5273 52.3275 53.5409 52.1318 53.5938C51.9361 53.6467 51.7526 53.7378 51.5919 53.862C51.4312 53.9862 51.2964 54.1409 51.1952 54.3174C51.094 54.494 51.0283 54.6888 51.002 54.8909C50.9757 55.0929 50.9893 55.2982 51.0419 55.4949C51.0945 55.6917 51.1852 55.8761 51.3087 56.0377C51.4322 56.1993 51.5862 56.3348 51.7618 56.4365C51.9568 56.5471 52.1739 56.6127 52.3973 56.6286C52.6207 56.6445 52.8448 56.6102 53.0534 56.5284C52.4222 57.7097 51.8588 58.9264 51.3657 60.1724C51.2572 59.8725 51.0595 59.6134 50.7995 59.4303C50.5395 59.2471 50.2297 59.1488 49.9122 59.1487C49.5947 59.1486 49.2849 59.2466 49.0247 59.4295C48.7645 59.6124 48.5666 59.8713 48.4578 60.1712C48.349 60.471 48.3345 60.7972 48.4164 61.1056C48.4983 61.4139 48.6726 61.6895 48.9156 61.8949C49.1586 62.1003 49.4585 62.2256 49.7748 62.2538C50.091 62.282 50.4082 62.2118 50.6834 62.0526C50.2634 63.3131 49.9176 64.5974 49.6477 65.8987C49.4861 65.6252 49.245 65.408 48.9568 65.2765C48.6686 65.145 48.3473 65.1055 48.0361 65.1633C47.7249 65.2211 47.4388 65.3734 47.2163 65.5997C46.9939 65.826 46.8459 66.1154 46.7921 66.4289C46.7384 66.7424 46.7815 67.0649 46.9158 67.353C47.0501 67.6411 47.269 67.8808 47.543 68.04C47.817 68.1991 48.133 68.27 48.4483 68.243C48.7637 68.216 49.0632 68.0925 49.3065 67.8892C49.1185 69.2086 49.0045 70.5377 48.9653 71.87C48.8224 71.6976 48.6436 71.5588 48.4414 71.4636C48.2393 71.3683 48.0188 71.3189 47.7956 71.3188C47.3868 71.3188 46.9947 71.4821 46.7056 71.7727C46.4166 72.0632 46.2542 72.4574 46.2542 72.8683C46.2542 73.2793 46.4166 73.6734 46.7056 73.9639C46.9947 74.2545 47.3868 74.4178 47.7956 74.4178C48.0188 74.4177 48.2393 74.3683 48.4414 74.273C48.6436 74.1778 48.8224 74.039 48.9653 73.8666C48.9653 74.479 49.0202 75.0915 49.0689 75.7407C48.9693 75.7789 48.8851 75.8493 48.8297 75.9409C48.7742 76.0324 48.7505 76.1399 48.7624 76.2464C48.7742 76.3529 48.8209 76.4525 48.8951 76.5294C48.9694 76.6064 49.0669 76.6564 49.1725 76.6716C49.1725 76.9227 49.2212 77.1799 49.2578 77.4371V77.8168C49.0878 77.682 48.8913 77.585 48.6812 77.5322C48.4712 77.4794 48.2524 77.472 48.0393 77.5106C47.6362 77.5838 47.2782 77.8141 47.0432 78.1513C46.8081 78.4885 46.7151 78.9054 46.7842 79.3112C46.8099 79.4354 46.8487 79.5566 46.9 79.6725H30.6697V80.7811H30.7793C30.8113 80.7826 30.8427 80.7905 30.8717 80.8043C30.9007 80.8181 30.9267 80.8375 30.9482 80.8614C30.9697 80.8853 30.9863 80.9132 30.997 80.9436C31.0078 80.9739 31.0125 81.0061 31.0108 81.0383C31.0125 81.0705 31.0078 81.1026 30.997 81.133C30.9863 81.1633 30.9697 81.1913 30.9482 81.2152C30.9267 81.2391 30.9007 81.2585 30.8717 81.2722C30.8427 81.286 30.8113 81.2939 30.7793 81.2955H30.6697V82.0059H31.3398L31.0047 82.4959L30.6697 83.0287V86.4523H31.0047V88.0813H31.614C31.7174 88.0813 31.8166 88.1227 31.8897 88.1962C31.9628 88.2697 32.0039 88.3694 32.0039 88.4733C32.0039 88.5773 31.9628 88.677 31.8897 88.7505C31.8166 88.824 31.7174 88.8653 31.614 88.8653H30.761C30.8644 88.8653 30.9636 88.824 31.0368 88.7505C31.1099 88.677 31.151 88.5773 31.151 88.4733C31.151 88.3694 31.1099 88.2697 31.0368 88.1962C30.9636 88.1227 30.8644 88.0813 30.761 88.0813H30.1518V86.4768H29.7741V83.0532L30.5174 81.9814H24.9123L25.6555 83.0532V86.4768H25.2778V88.1059H24.6686C24.5652 88.1059 24.466 88.1471 24.3929 88.2206C24.3198 88.2942 24.2787 88.3939 24.2787 88.4978C24.2787 88.6018 24.3198 88.7015 24.3929 88.775C24.466 88.8485 24.5652 88.8898 24.6686 88.8898H25.1743L25.5885 90.1453H25.1743L25.1316 90.0412V94.1323H24.4858V90.0473L24.4188 89.8697L24.035 88.8959H6.708V89.8452H5.73932L6.34857 91.0149V94.4997H22.9505C22.9505 94.2793 23.182 94.1078 23.4684 94.1078H24.1203C23.8339 94.1078 23.6024 94.2793 23.6024 94.4997C23.6024 94.7202 23.8339 94.8856 24.1203 94.8856H24.7295L24.8696 95.498H24.5772L24.5041 95.1918H6.6349V95.498H4.41113L5.10568 96.3677C5.09773 96.5371 5.15248 96.7034 5.25937 96.8346C5.36626 96.9658 5.5177 97.0526 5.68447 97.0781C5.64735 97.1534 5.62788 97.2363 5.62751 97.3204C5.62713 97.4044 5.64587 97.4874 5.68232 97.5631C5.71877 97.6387 5.77195 97.705 5.83779 97.7568C5.90363 97.8086 5.9804 97.8446 6.0622 97.862C6.0622 97.862 5.95254 98.7868 6.67145 98.7868V117.16H12.0024V98.7868H12.4715V96.3371H13.0807V98.7868H12.7274V99.5279H13.0381V100.091H13.4463V117.172H22.853V100.128H23.2612V99.5646H23.5719V98.8236H22.9627V96.3738H23.5719V98.8236H23.6938V116.303H23.5293V116.756H23.1516V117.209H33.064C33.064 116.303 32.5583 116.303 32.5583 116.303V107.606C33.0457 107.606 33.064 107.239 33.064 106.804H31.7054V105.94H32.3146C32.6558 98.0213 39.5098 96.9066 39.5098 96.9066C39.5098 96.9066 46.37 98.0213 46.7111 105.94H47.3204V106.804H45.9617C45.9617 107.239 45.9617 107.606 46.4674 107.606V116.303C46.4674 116.303 45.9617 116.303 45.9617 117.209H55.862V116.756H55.4843V116.303H55.1918V115.849H55.1431V98.8236H55.4233V97.0904C55.6138 97.183 55.8212 97.2352 56.0326 97.2435V98.8236H55.4233V99.5646H55.7341V100.128H56.1423V117.209H61.9057C61.9578 117.282 62.0269 117.341 62.1068 117.381C62.2234 117.437 62.3561 117.451 62.4818 117.42C62.6076 117.389 62.7185 117.314 62.7952 117.209H65.549V111.422L66.8406 108.69V117.209H72.3238V107.116C72.3945 107.013 72.4538 106.902 72.5005 106.785C72.5749 106.574 72.603 106.35 72.5831 106.126C72.5631 105.903 72.4954 105.687 72.3847 105.493C72.8356 105.64 73.2925 105.775 73.7555 105.91L73.4936 112.322H72.7198V117.46H154.883V117.883H156.826V113.406H164.661V117.883H166.599V99.6749H166.976V99.1604H166.599V98.6215L166.976 98.1131L167.183 97.5987H166.574V92.2949L166.952 91.7805H165.039L165.252 91.2661H167.19V90.7577H166.58L166.599 83.1083ZM22.585 93.6913H12.4105V91.6825H22.585V93.6913ZM7.79248 98.8236H7.18323V96.3738H7.79248V98.8236ZM9.54711 98.8236H8.93787V96.3738H9.54711V98.8236ZM11.3017 98.8236H10.6925V96.3738H11.3017V98.8236ZM21.3543 103.723C21.497 104.008 21.6133 104.305 21.7015 104.611H20.5988V103.723H21.3543ZM20.5988 103.595V102.706H20.6476C20.8878 102.975 21.0926 103.273 21.2568 103.595H20.5988ZM21.7442 104.74C21.8224 105.032 21.8814 105.328 21.9209 105.628H20.5988V104.74H21.7442ZM15.4141 106.779H14.2505C14.2511 106.437 14.2714 106.096 14.3114 105.756H15.4141V106.779ZM15.4141 105.628H14.3297C14.3692 105.328 14.4282 105.032 14.5063 104.74H15.4141V105.628ZM15.4141 104.611H14.5551C14.6453 104.305 14.7636 104.007 14.9085 103.723H15.4202L15.4141 104.611ZM15.4141 103.595H14.9694C15.0983 103.36 15.2471 103.136 15.4141 102.927V103.595ZM16.4255 106.779H15.5482V105.769H16.4255V106.779ZM16.4255 105.628H15.5482V104.74H16.4255V105.628ZM16.4255 104.611H15.5482V103.723H16.4255V104.611ZM16.4255 103.595H15.5482V102.774L15.6091 102.706H16.4255V103.595ZM16.4255 102.578H15.737C15.9482 102.374 16.1788 102.191 16.4255 102.033V102.578ZM17.4368 106.779H16.5595V105.769H17.4368V106.779ZM17.4368 105.628H16.5595V104.74H17.4368V105.628ZM17.4368 104.611H16.5595V103.723H17.4368V104.611ZM17.4368 103.595H16.5595V102.706H17.4368V103.595ZM17.4368 102.578H16.5595V101.965C16.8356 101.804 17.1302 101.676 17.4368 101.586V102.578ZM18.4482 106.779H17.5648V105.769H18.4482V106.779ZM18.4482 105.628H17.5648V104.74H18.4482V105.628ZM18.4482 104.611H17.5648V103.723H18.4482V104.611ZM18.4482 103.595H17.5648V102.706H18.4482V103.595ZM18.4482 102.578H17.5648V101.543C17.7486 101.493 17.936 101.458 18.1253 101.439C18.1253 101.439 18.2532 101.439 18.4482 101.488V102.578ZM19.4595 106.779H18.5761V105.769H19.4595V106.779ZM19.4595 105.628H18.5761V104.74H19.4595V105.628ZM19.4595 104.611H18.5761V103.723H19.4595V104.611ZM19.4595 103.595H18.5761V102.706H19.4595V103.595ZM19.4595 102.578H18.5761V101.543C18.8816 101.615 19.178 101.722 19.4595 101.861V102.578ZM20.4709 106.779H19.5875V105.769H20.4709V106.779ZM20.4709 105.628H19.5875V104.74H20.4709V105.628ZM20.4709 104.611H19.5875V103.723H20.4709V104.611ZM20.4709 103.595H19.5875V102.706H20.4709V103.595ZM20.4709 102.578H19.5875V101.898C19.908 102.061 20.2052 102.267 20.4709 102.51V102.578ZM20.5988 106.779V105.769H21.9392C21.9791 106.108 21.9995 106.45 22.0001 106.791L20.5988 106.779ZM21.2081 96.3677H21.8173V98.8174H21.2081V96.3677ZM19.4474 96.3677H20.0566V98.8174H19.4474V96.3677ZM17.6927 96.3677H18.302V98.8174H17.6927V96.3677ZM15.9381 96.3677H16.5473V98.8174H15.9381V96.3677ZM14.1835 96.3677H14.7927V98.8174H14.1835V96.3677ZM30.2249 88.853H30.7184L30.2249 90.1085H29.7863L30.2249 88.853ZM29.9873 94.8672H30.2919L30.0482 96.1288H29.7863L29.9873 94.8672ZM28.0073 88.853H28.5008L28.3667 90.1085H27.9585L28.0073 88.853ZM27.8489 94.8672V96.1288H27.5686V94.8672H27.8489ZM27.3919 88.853L27.4407 90.1085H27.0264L26.8923 88.853H27.3919ZM25.4058 94.8672L25.619 96.1288H25.3449L25.1011 94.8672H25.4058ZM24.9123 95.8471L24.9854 96.1656H24.9123V95.8471ZM26.0577 112.934H24.9793V97.8988H26.0577V112.934ZM25.948 96.1656L25.7652 94.904H26.0699L26.2222 96.1656H25.948ZM26.0759 90.1453L25.7652 88.8898H26.2587L26.4963 90.1453H26.0759ZM26.8436 94.904H27.1482L27.197 96.1656H26.9228L26.8436 94.904ZM28.2205 112.934H27.136V97.8988H28.2205V112.934ZM28.4337 96.1656H28.1596L28.2083 94.904H28.5129L28.4337 96.1656ZM29.0978 88.8898H29.5913L29.2806 90.1453H28.8663L29.0978 88.8898ZM29.2867 94.904H29.5913L29.4146 96.1656H29.177L29.2867 94.904ZM30.3955 112.934H29.311V97.8988H30.3955V112.934ZM30.956 94.9591L30.8585 95.3817L30.6697 96.1656H30.3955L30.6697 94.904H30.9743L30.956 94.9591ZM100.343 107.82C100.432 107.612 100.562 107.425 100.726 107.269C100.889 107.113 101.082 106.992 101.293 106.914C101.627 106.737 101.945 106.532 102.244 106.301C102.541 106.532 102.857 106.737 103.188 106.914C103.67 107.153 104.407 107.422 104.407 109.296V112.359H102.896V110.638C102.897 110.551 102.88 110.465 102.848 110.385C102.816 110.305 102.768 110.232 102.707 110.17C102.646 110.109 102.574 110.06 102.495 110.027C102.415 109.993 102.33 109.976 102.244 109.976C102.095 109.983 101.954 110.04 101.843 110.14C101.732 110.239 101.658 110.374 101.635 110.521L100.343 107.82ZM105.18 96.0308H105.113V94.7202C105.088 94.4036 105.187 94.0896 105.388 93.8444C105.494 93.7029 105.586 93.5511 105.662 93.3912V92.644H106.198L106.959 93.2565H106.265V94.9162C105.942 95.2959 105.558 95.6573 105.187 96.0125L105.18 96.0308ZM104.376 101.8V104.862H102.896V103.16C102.896 102.985 102.827 102.818 102.705 102.694C102.583 102.57 102.417 102.5 102.244 102.498C102.142 102.502 102.042 102.529 101.951 102.578C101.725 102.361 101.438 102.218 101.129 102.168C102.131 101.537 103.101 100.856 104.035 100.128C104.293 100.639 104.413 101.209 104.382 101.782L104.376 101.8ZM86.3426 89.196H86.702V89.5084C86.7371 89.5732 86.7778 89.6346 86.8239 89.6921C86.8675 89.7409 86.9008 89.798 86.9218 89.8602C86.9427 89.9223 86.9509 89.988 86.9457 90.0534V91.0701H86.702V91.2416L86.3426 89.196ZM87.1407 91.0701V90.0534C87.1369 89.9849 87.1492 89.9164 87.1767 89.8536C87.2043 89.7908 87.2462 89.7355 87.2991 89.6921C87.2991 89.6498 87.3158 89.6093 87.3455 89.5795C87.3752 89.5496 87.4155 89.5328 87.4575 89.5328C87.4995 89.5328 87.5398 89.5496 87.5695 89.5795C87.5992 89.6093 87.6159 89.6498 87.6159 89.6921C87.6696 89.7348 87.7121 89.79 87.7397 89.853C87.7673 89.916 87.7792 89.9848 87.7743 90.0534V91.0701H87.1407ZM115.081 73.9217C115.067 73.801 115.01 73.6894 114.92 73.6081C114.831 73.5268 114.714 73.4815 114.593 73.4807C114.66 73.4806 114.726 73.493 114.788 73.5175V73.15H115.081C115.081 73.3889 115.081 73.6461 115.081 73.9217ZM114.959 75.8509L114.764 75.6427C114.852 75.6182 114.933 75.5742 115.002 75.5141C114.959 75.612 114.947 75.7223 114.935 75.8325L114.959 75.8509ZM114.392 73.15V73.5236C114.303 73.5615 114.226 73.6255 114.173 73.7073C114.12 73.7892 114.092 73.8852 114.094 73.983C114.093 74.0735 114.117 74.1624 114.164 74.2402C114.21 74.3179 114.276 74.3814 114.356 74.4239C114.194 74.432 114.042 74.5043 113.934 74.6249C113.825 74.7455 113.769 74.9045 113.777 75.067C113.785 75.2294 113.857 75.382 113.977 75.4911C114.097 75.6002 114.255 75.6569 114.417 75.6488C113.7 76.415 112.901 77.0989 112.035 77.6882L102.762 76.0407C102.914 75.0863 103.002 74.1225 103.024 73.1562L114.392 73.15ZM111.389 78.1414C109.974 79.0793 108.682 80.1924 107.544 81.4547L101.915 79.3969C102.238 78.4843 102.492 77.5488 102.676 76.5981L111.389 78.1414ZM105.662 85.5581L100.483 82.551C100.954 81.7071 101.362 80.8289 101.702 79.9236L107.161 81.8834C106.953 82.1652 106.746 82.453 106.551 82.7592C106.003 83.5915 105.695 84.5604 105.662 85.5581ZM100.946 94.708C100.943 94.6652 100.943 94.6222 100.946 94.5794L102.165 96.0186H100.946V94.708ZM101.196 93.973C101.245 93.9179 101.293 93.8751 101.336 93.8322C101.326 93.7758 101.328 93.7178 101.343 93.6624C101.358 93.607 101.384 93.5555 101.421 93.5116C101.458 93.4676 101.503 93.4323 101.555 93.408C101.607 93.3838 101.663 93.3712 101.72 93.3712C101.777 93.3712 101.833 93.3838 101.885 93.408C101.937 93.4323 101.982 93.4676 102.019 93.5116C102.056 93.5555 102.082 93.607 102.097 93.6624C102.111 93.7178 102.114 93.7758 102.104 93.8322C102.235 93.935 102.339 94.0686 102.407 94.2213C102.475 94.3739 102.505 94.5411 102.494 94.708V95.5164L101.196 93.973ZM104.559 94.708V96.0186H103.018V94.708C103.007 94.5417 103.036 94.3753 103.103 94.2228C103.17 94.0703 103.272 93.9363 103.401 93.8322C103.549 93.6974 103.68 93.5452 103.791 93.379C103.899 93.5463 104.028 93.6987 104.175 93.8322C104.304 93.9357 104.406 94.0687 104.472 94.22C104.539 94.3714 104.569 94.5366 104.559 94.7018V94.708ZM101.452 89.441C100.593 89.8697 99.6973 90.2616 99.6973 92.0684H99.6059L96.1332 87.9037C96.8614 87.2697 97.5434 86.5841 98.1741 85.8521L101.982 89.0674C101.822 89.2122 101.644 89.3357 101.452 89.4348V89.441ZM98.1132 85.0559L85.8674 74.7301L99.6973 82.7592C99.2253 83.5604 98.6959 84.3259 98.1132 85.0498V85.0559ZM86.1537 74.2279L101.166 79.7399C100.835 80.6136 100.445 81.4629 99.9958 82.2815L86.1537 74.2279ZM102.092 76.4817C101.915 77.3989 101.67 78.3017 101.36 79.1826L86.3426 73.6706L102.092 76.4817ZM86.4462 73.1317H102.433C102.418 74.0654 102.334 74.9968 102.183 75.9183L86.4462 73.1317ZM86.4462 72.556L102.183 69.7694C102.334 70.6908 102.418 71.6222 102.433 72.556H86.4462ZM86.3487 71.9986L101.367 66.4867C101.676 67.3678 101.92 68.2705 102.098 69.1875L86.3487 71.9986ZM86.1598 71.4597L100.002 63.4244C100.451 64.243 100.841 65.0924 101.172 65.9661L86.1598 71.4597ZM85.8735 70.9636L98.1193 60.6378C98.7022 61.3637 99.2316 62.1312 99.7034 62.9345L85.8735 70.9636ZM97.7416 85.4785C97.1353 86.1879 96.4776 86.8512 95.7737 87.4628L85.5018 75.1466L97.7416 85.4785ZM95.3472 87.8364C94.6242 88.4238 93.8584 88.956 93.0565 89.4287L85.2277 75.7958L85.1363 75.5998L95.3472 87.8364ZM94.2567 94.8978V94.071C94.2649 94.072 94.2733 94.0711 94.2811 94.0684C94.289 94.0656 94.2961 94.0612 94.3019 94.0553C94.3078 94.0494 94.3122 94.0422 94.315 94.0343C94.3177 94.0265 94.3186 94.0181 94.3176 94.0098C94.3177 94.002 94.3161 93.9943 94.313 93.9872C94.3098 93.9801 94.3052 93.9737 94.2995 93.9685C94.2937 93.9633 94.2869 93.9593 94.2796 93.957C94.2722 93.9546 94.2644 93.9538 94.2567 93.9547C94.2671 93.8702 94.247 93.7848 94.2 93.714C94.1531 93.6432 94.0824 93.5917 94.0008 93.5688C93.9178 93.5191 93.8502 93.4469 93.8059 93.3606C93.7649 93.4473 93.6991 93.5198 93.617 93.5688L92.1974 90.5556L92.8432 90.2188L96.383 96.3738L95.0914 96.68L94.2567 94.8978ZM91.9659 90.0473L88.2739 82.2448L92.5752 89.7288L91.9659 90.0473ZM90.9424 90.5434C90.65 90.6781 90.3331 90.7884 90.0468 90.9047L89.4375 89.1776H89.5594C89.603 89.1776 89.6449 89.1602 89.6757 89.1292C89.7066 89.0982 89.7239 89.0561 89.7239 89.0123C89.7239 88.9678 89.7068 88.9251 89.6761 88.8931C89.6454 88.8611 89.6036 88.8424 89.5594 88.8408H89.3157L86.5497 81.271L90.9424 90.5434ZM88.5054 89.6737C88.5591 89.7164 88.6016 89.7717 88.6292 89.8346C88.6568 89.8976 88.6687 89.9664 88.6638 90.035V91.0701H88.0546V90.0534C88.0507 89.9849 88.0631 89.9164 88.0906 89.8536C88.1181 89.7908 88.1601 89.7355 88.213 89.6921C88.213 89.6498 88.2296 89.6093 88.2594 89.5795C88.2891 89.5496 88.3293 89.5328 88.3714 89.5328C88.4134 89.5328 88.4537 89.5496 88.4834 89.5795C88.5131 89.6093 88.5298 89.6498 88.5298 89.6921L88.5054 89.6737ZM88.8831 91.0701V90.0534C88.8739 89.9225 88.9153 89.793 88.9989 89.6921L89.5167 91.1252C89.3827 91.1742 89.2426 91.2109 89.1025 91.2538V91.0701H88.8831ZM89.4254 99.0931H89.4924V99.3319H89.6813V99.0931C89.726 99.0915 89.7685 99.073 89.8002 99.0411C89.8319 99.0093 89.8503 98.9666 89.8519 98.9216C89.8503 98.8772 89.8316 98.8351 89.7998 98.8043C89.7679 98.7734 89.7255 98.7562 89.6813 98.7562H89.3766L89.0964 91.9397H89.1817V91.8111L89.3401 91.7621V91.9397H89.5228V91.6825L89.6813 91.6335L93.3855 101.861V103.19C92.1456 103.615 90.8798 103.958 89.5959 104.219L89.4254 99.0931ZM90.2539 91.4559C90.5708 91.3395 90.8632 91.2171 91.1983 91.0762L93.422 95.7859V97.764L94.2628 97.562L94.5187 98.107L93.422 98.3642V100.202L90.2539 91.4559ZM94.3664 101.782C94.3664 99.9015 94.7989 99.632 95.0853 99.3931L96.3403 102.045C95.6884 102.339 95.0243 102.621 94.3481 102.878L94.3664 101.782ZM95.3655 97.2741L96.7119 96.9556L97.0166 97.4885L95.6214 97.8192L95.3655 97.2741ZM98.4118 100.985L97.9487 101.237V99.0931L98.4118 99.9015V100.985ZM103.14 99.3625C102.171 100.094 101.165 100.773 100.124 101.396C100.138 101.118 100.183 100.843 100.258 100.575C101.046 100.077 101.811 99.5544 102.555 99.0073C102.743 99.1356 102.939 99.2542 103.14 99.3625ZM98.4118 97.268V98.7623L97.9487 97.9539V97.268L97.6015 97.3537L97.2968 96.8209L97.9487 96.6678V96.0125L96.9678 96.2452L93.3124 89.9248C94.1422 89.4337 94.9344 88.881 95.6823 88.2712L99.1368 92.4113V92.6257H99.3134L99.8618 93.281V93.3729C99.945 93.5341 100.045 93.6861 100.16 93.8261C100.267 93.9437 100.349 94.0822 100.4 94.2328C100.451 94.3835 100.471 94.5431 100.459 94.7018V96.0125H98.8077V92.9074C98.8239 92.9074 98.8394 92.9009 98.8508 92.8895C98.8623 92.878 98.8687 92.8624 98.8687 92.8461C98.8687 92.8299 98.8623 92.8143 98.8508 92.8028C98.8394 92.7914 98.8239 92.7849 98.8077 92.7849C98.8154 92.7016 98.7941 92.6183 98.7474 92.549C98.7008 92.4798 98.6317 92.4289 98.5519 92.4052C98.5519 92.3532 98.5313 92.3034 98.4948 92.2666C98.4582 92.2299 98.4086 92.2092 98.3569 92.2092C98.3052 92.2092 98.2556 92.2299 98.2191 92.2666C98.1825 92.3034 98.1619 92.3532 98.1619 92.4052C98.0822 92.4289 98.0131 92.4798 97.9664 92.549C97.9197 92.6183 97.8984 92.7016 97.9061 92.7849C97.8899 92.7849 97.8744 92.7914 97.863 92.8028C97.8516 92.8143 97.8452 92.8299 97.8452 92.8461C97.8452 92.8624 97.8516 92.878 97.863 92.8895C97.8744 92.9009 97.8899 92.9074 97.9061 92.9074H98.0218V96.0982L98.4422 96.0125V96.6555H102.743L103.249 97.268H98.4118ZM103.456 96.6555H104.486C104.291 96.8331 104.096 97.0108 103.877 97.1822L103.456 96.6555ZM107.112 90.9659V92.6073L105.851 91.5478C105.692 90.1698 104.894 89.8084 104.126 89.4226C103.558 89.088 103.099 88.5943 102.804 88.0017C102.687 88.2176 102.55 88.4225 102.396 88.6142L98.5702 85.3866C99.1748 84.6333 99.7245 83.8371 100.215 83.0042L105.698 86.2011C105.852 87.2434 106.34 88.2067 107.087 88.9449C107.087 88.9449 107.307 88.6325 109.524 88.4243L110.651 89.0796C110.39 89.5145 110.121 89.9493 109.847 90.3719C107.38 90.623 107.087 90.9782 107.087 90.9782L107.112 90.9659ZM110.56 88.3692L111.108 88.3386L110.962 88.6019L110.56 88.3692ZM114.825 74.3933C114.886 74.3597 114.939 74.3142 114.982 74.2595C115.025 74.2048 115.056 74.142 115.075 74.0748C115.075 74.2341 115.075 74.3933 115.075 74.5525C114.997 74.4805 114.903 74.4299 114.8 74.4055L114.825 74.3933ZM115.056 72.556C115.078 72.5055 115.09 72.4516 115.093 72.3967C115.093 72.2635 115.04 72.1358 114.947 72.0416C114.853 71.9474 114.726 71.8945 114.593 71.8945C114.66 71.8943 114.726 71.9068 114.788 71.9313V70.6451C114.788 70.6451 114.788 70.4369 114.587 70.4369C114.386 70.4369 114.392 70.6451 114.392 70.6451V71.9374C114.303 71.9753 114.226 72.0392 114.173 72.1211C114.12 72.203 114.092 72.299 114.094 72.3967C114.085 72.4494 114.085 72.5033 114.094 72.556H102.999C102.977 71.5896 102.89 70.6258 102.737 69.6714L114.642 67.5584C114.916 69.2104 115.061 70.8813 115.075 72.556H115.056ZM102.676 69.1079C102.492 68.1572 102.238 67.2217 101.915 66.3091L113.253 62.1506C113.809 63.7308 114.241 65.3527 114.545 67.0011L102.676 69.1079ZM101.677 65.7701C101.337 64.8649 100.93 63.9866 100.459 63.1427L110.913 57.0734C111.739 58.5274 112.448 60.0449 113.034 61.6116L101.677 65.7701ZM100.172 62.6528C99.6819 61.8199 99.1321 61.0237 98.5275 60.2704L107.77 52.4863C108.828 53.7799 109.785 55.1538 110.633 56.5957L100.172 62.6528ZM98.1741 59.8356C97.5434 59.1035 96.8614 58.4179 96.1332 57.7839L103.895 48.487C105.16 49.5754 106.34 50.761 107.423 52.0331L98.1741 59.8356ZM97.7355 60.203L85.5018 70.5227L95.7676 58.2248C96.4731 58.8347 97.131 59.4981 97.7355 60.2091V60.203ZM85.0693 70.1552L93.0504 56.2528C93.8524 56.7255 94.6181 57.2577 95.3411 57.8451L85.0693 70.1552ZM84.5758 69.8673L90.059 54.7768C90.9282 55.1087 91.773 55.5016 92.5874 55.9527L84.5758 69.8673ZM84.0396 69.6714L86.8178 53.8459C87.7301 54.0245 88.6281 54.2701 89.5046 54.5808L84.0396 69.6714ZM88.2434 87.6159C88.1048 87.4878 87.9894 87.3366 87.9023 87.1688C87.784 87.4231 87.5931 87.6363 87.3539 87.7813C87.1274 87.8484 86.9312 87.9927 86.7989 88.1894C86.6667 88.386 86.6065 88.6228 86.6289 88.8592H86.2938L84.0396 76.0285L88.2434 87.6159ZM90.0712 105.377C90.0578 105.351 90.0377 105.329 90.013 105.314C89.9883 105.299 89.9599 105.291 89.931 105.291H89.6691V104.819C90.9424 104.558 92.1996 104.223 93.4342 103.815V104.483C92.3256 104.837 91.1989 105.131 90.059 105.364L90.0712 105.377ZM94.7928 104.005L94.5735 103.392C95.2681 103.129 95.9504 102.841 96.6206 102.535L96.8886 103.111C96.1941 103.429 95.4935 103.723 94.7806 103.993L94.7928 104.005ZM96.4865 99.6197C96.6668 99.8314 96.7886 100.087 96.8399 100.361L96.4865 99.6197ZM97.9609 101.892L98.4239 101.647V102.363C98.2655 102.443 98.1132 102.535 97.9609 102.615V101.892ZM98.4239 103.656V103.717V103.668V103.656ZM104.681 97.2802L105.345 96.6678H105.954V96.0982L106.302 95.7491V96.6372C106.082 96.8515 105.869 97.0659 105.644 97.2496L104.681 97.2802ZM105.936 98.548L106.283 98.2111V98.597C106.168 98.5849 106.051 98.5849 105.936 98.597V98.548ZM110.578 90.3596C110.773 90.0473 110.968 89.7472 111.157 89.4104L111.706 89.7227C111.59 89.9248 111.462 90.1208 111.346 90.3351L110.578 90.3596ZM111.992 89.2327L111.444 88.9143C111.553 88.7244 111.651 88.5284 111.754 88.3325H112.485C112.309 88.6203 112.15 88.9143 111.98 89.2327H111.992ZM115.465 76.3715C115.583 75.3058 115.646 74.2346 115.653 73.1623H116.263C116.249 74.4009 116.168 75.6379 116.019 76.8675C115.83 76.6777 115.641 76.5123 115.452 76.3715H115.465ZM116.287 72.5866H115.678C115.665 70.8791 115.518 69.1754 115.239 67.4911L115.848 67.3808C116.13 69.0918 116.281 70.8219 116.299 72.556L116.287 72.5866ZM115.733 66.8235L115.123 66.9276C114.817 65.2474 114.377 63.5946 113.807 61.9852L114.417 61.7709C114.982 63.4078 115.418 65.087 115.72 66.7929L115.733 66.8235ZM114.197 61.2319L113.588 61.4524C112.99 59.8384 112.267 58.2739 111.425 56.7733L111.974 56.461C112.833 57.9803 113.573 59.5653 114.185 61.2013L114.197 61.2319ZM111.706 56.0078L111.157 56.3263C110.295 54.8535 109.319 53.4508 108.239 52.131L108.726 51.7268C109.825 53.0633 110.817 54.4844 111.693 55.9772L111.706 56.0078ZM104.669 47.5867C105.979 48.7158 107.201 49.9443 108.324 51.2614L107.837 51.6717C106.735 50.3742 105.533 49.1659 104.242 48.0583L104.669 47.5867ZM99.9775 44.2183C101.476 45.1018 102.902 46.1033 104.242 47.2131L103.834 47.7031C102.526 46.614 101.132 45.6329 99.6668 44.7695L99.9775 44.2183ZM103.468 48.1379L95.7067 57.4164C94.9588 56.8066 94.1666 56.2539 93.3367 55.7628L99.3804 45.2411C100.815 46.0933 102.182 47.0557 103.468 48.1195V48.1379ZM94.7806 41.7134C96.4043 42.319 97.9771 43.0542 99.484 43.9121L99.1672 44.4633C97.6909 43.6184 96.1509 42.8914 94.5613 42.2891L94.7806 41.7134ZM98.887 44.9777L92.8493 55.4872C92.0099 55.0137 91.1362 54.6042 90.2356 54.2623L94.3664 42.8281C95.9269 43.4173 97.4385 44.1299 98.887 44.9593V44.9777ZM89.2182 40.1701C90.9265 40.4847 92.6072 40.9352 94.2445 41.5174L94.0252 42.1299C92.4246 41.5558 90.7803 41.1134 89.1086 40.807L89.2182 40.1701ZM93.8363 42.6504L89.6995 54.0663C88.7907 53.7467 87.8602 53.4929 86.9153 53.3069L89.0111 41.3521C90.6502 41.6517 92.2635 42.0796 93.8363 42.6321V42.6504ZM83.4791 39.5882C85.2165 39.6019 86.9501 39.7534 88.6638 40.0414L88.5542 40.6539C86.8766 40.373 85.1797 40.2256 83.4791 40.2129V39.5882ZM83.4791 40.8131C85.1471 40.827 86.8113 40.9724 88.4567 41.2479L86.3548 53.2151C85.4037 53.0586 84.4427 52.9706 83.4791 52.9517V40.8131ZM83.4791 53.5213C84.41 53.5415 85.3384 53.6274 86.2573 53.7785L83.4791 69.5979V53.5213ZM83.4791 76.1142L86.1598 91.4253C86.1246 91.4567 86.1027 91.5006 86.0989 91.5478C86.1007 91.5804 86.112 91.6118 86.1315 91.638C86.151 91.6642 86.1778 91.6839 86.2085 91.6948L86.2573 91.9581C85.3384 92.1092 84.41 92.1951 83.4791 92.2153V76.1142ZM83.4791 92.7604C84.4429 92.7445 85.404 92.6565 86.3548 92.497L86.6046 93.924L86.4096 98.7501H86.0989C86.0553 98.7501 86.0134 98.7675 85.9826 98.7985C85.9517 98.8295 85.9344 98.8716 85.9344 98.9154C85.9343 98.9599 85.9515 99.0026 85.9822 99.0346C86.0129 99.0666 86.0547 99.0853 86.0989 99.0869V99.3258H86.2816V99.0869H86.4218L86.1903 104.758C85.3069 104.844 84.4113 104.893 83.5035 104.899L83.4791 92.7604ZM83.4791 105.469C84.2651 105.469 85.0449 105.426 85.8126 105.364C85.7906 105.39 85.7777 105.422 85.776 105.456C85.776 105.501 85.7931 105.543 85.8238 105.575C85.8545 105.607 85.8963 105.626 85.9405 105.628V105.867H86.1172V105.977C85.246 106.057 84.3686 106.099 83.4791 106.105V105.469ZM82.9125 39.625V40.2374C81.214 40.2503 79.5191 40.3978 77.8436 40.6784L77.7339 40.0659C79.4459 39.7823 81.1775 39.6349 82.9125 39.625ZM57.2023 96.7964C57.3188 96.6826 57.4155 96.5502 57.4887 96.4044H57.8116V98.8542H57.2023V96.7964ZM71.5684 98.8236L71.873 98.1805V98.8236H71.5684ZM70.1184 96.3738V98.8236H69.5091V97.3231L70.0392 96.4044L70.1184 96.3738ZM67.7362 98.8236V96.3738H68.3454V98.1131L67.9555 98.7929L67.7362 98.8236ZM62.6003 98.8236L62.4723 98.7195V98.1499L62.5881 98.009L63.0998 98.4132V98.8236H62.6003ZM52.1151 89.147C52.014 89.1809 51.9161 89.224 51.8227 89.2756C51.7543 89.3176 51.6891 89.3647 51.6277 89.4165V88.8898H52.1273L52.1151 89.147ZM50.8967 78.858L51.3048 78.7906C51.3353 78.956 51.3779 79.1275 51.4084 79.2928H50.8967V78.858ZM53.3336 75.6733V75.3487C53.3336 74.8097 52.7975 73.8911 52.2796 73.1317H63.3923C63.4083 74.0984 63.4959 75.0626 63.6543 76.0163L53.3336 77.8536V76.6655C53.4543 76.6519 53.5657 76.5941 53.6467 76.5032C53.7276 76.4122 53.7724 76.2945 53.7724 76.1724C53.7724 76.0504 53.7276 75.9326 53.6467 75.8417C53.5657 75.7507 53.4543 75.6929 53.3336 75.6794V75.6733ZM51.7374 77.5106V78.0863C51.6887 77.7923 51.6521 77.4739 51.6095 77.2044C51.6798 77.2837 51.7188 77.386 51.7191 77.4922L51.7374 77.5106ZM52.4198 77.5106C52.4198 77.2718 52.5416 77.0819 52.6939 77.0819C52.8462 77.0819 52.962 77.2718 52.962 77.5106V77.9332L52.4198 78.0251V77.5106ZM52.4198 78.6069L52.962 78.5089V79.3112H52.4198V78.6069ZM53.4494 81.2894C53.4835 81.2902 53.5174 81.2841 53.5492 81.2716C53.5809 81.259 53.6099 81.2402 53.6343 81.2162C53.6587 81.1923 53.6781 81.1636 53.6913 81.132C53.7046 81.1004 53.7114 81.0664 53.7114 81.0321C53.7114 80.9978 53.7046 80.9639 53.6913 80.9323C53.6781 80.9007 53.6587 80.872 53.6343 80.8481C53.6099 80.8241 53.5809 80.8053 53.5492 80.7927C53.5174 80.7802 53.4835 80.7741 53.4494 80.7749H53.3336V78.4477L63.7395 76.6103C63.9245 77.5602 64.177 78.4956 64.495 79.4092L53.3336 83.4942V83.0838L54.0769 82.0121H52.6391C52.5721 81.7793 52.499 81.5405 52.438 81.3016L53.4494 81.2894ZM74.4318 90.0657L73.8226 89.7472L74.5049 88.5529L74.444 90.035L74.4318 90.0657ZM71.7572 87.0034L74.9801 83.1451V84.4006H74.6573V84.7803H74.0785C74.0203 84.7803 73.9645 84.8035 73.9234 84.8449C73.8822 84.8862 73.8591 84.9423 73.8591 85.0008C73.8591 85.0592 73.8822 85.1153 73.9234 85.1567C73.9645 85.198 74.0203 85.2213 74.0785 85.2213V85.5397H74.3221V85.2213H74.5354V85.5397H74.639L74.5659 87.3281L73.3474 89.4471C72.6225 89.0134 71.9265 88.5326 71.2637 88.0079H72.1472V87.0034H71.7572ZM77.4902 83.5922V83.3594L78.0995 82.2632L77.4902 83.5922ZM77.143 82.8205L76.357 84.1923V83.0471C76.3502 82.9565 76.3656 82.8656 76.4017 82.7824C76.4378 82.6991 76.4936 82.626 76.5642 82.5694C76.6437 82.4972 76.7133 82.4149 76.7713 82.3244C76.8319 82.4129 76.9013 82.495 76.9785 82.5694C77.053 82.6322 77.1115 82.712 77.1491 82.8021L77.143 82.8205ZM75.6503 82.3428C75.7121 82.4322 75.7836 82.5143 75.8635 82.5877C75.933 82.6454 75.988 82.7187 76.024 82.8017C76.06 82.8847 76.076 82.9751 76.0707 83.0655V84.4006H75.236V83.0471C75.2294 82.9407 75.2527 82.8346 75.3031 82.7409L75.4493 82.5694C75.5281 82.4967 75.5977 82.4144 75.6564 82.3244L75.6503 82.3428ZM68.2175 85.8643C68.5526 86.2563 68.9121 86.636 69.2776 87.0034H66.8406L68.2175 85.8643ZM65.9877 87.0034H59.4017L66.207 83.0532C66.6955 83.886 67.2432 84.6822 67.8458 85.4356L65.9877 87.0034ZM66.6883 82.7715L80.5243 74.7424L68.2784 85.0681C67.697 84.3348 67.1677 83.5612 66.6944 82.7531L66.6883 82.7715ZM66.3959 82.2815C65.9472 81.4629 65.5562 80.6136 65.2261 79.7399L80.2379 74.2279L66.3959 82.2815ZM65.0311 79.2193C64.7213 78.3385 64.4769 77.4357 64.3001 76.5185L80.043 73.7257L65.0311 79.2193ZM65.9024 82.5816L58.2624 87.0218H54.6069C54.1439 86.0726 53.7174 85.1049 53.3458 84.1127L64.7022 79.9543C65.0425 80.8455 65.4456 81.7113 65.9085 82.5449L65.9024 82.5816ZM55.1187 87.6404C55.2277 87.6337 55.3348 87.6704 55.417 87.7426C55.4991 87.8149 55.5495 87.9168 55.5574 88.0262H56.5261L55.4477 88.6387C55.2588 88.308 55.0821 87.965 54.9055 87.6282L55.1187 87.6404ZM56.1179 88.9265L57.6593 88.0262H64.7936L63.7274 88.9265H56.1179ZM60.4313 91.6825L58.6036 93.2259C58.1893 92.7237 57.7994 92.2092 57.4217 91.6825H60.4313ZM65.683 88.0079H70.1854L69.436 88.9081H64.6169L65.683 88.0079ZM70.6911 88.2896C70.953 88.5101 71.2272 88.706 71.5074 88.902H70.1793L70.6911 88.2896ZM72.4335 89.5145C72.6102 89.6308 72.7808 89.7472 72.9635 89.8574H72.4335V89.5145ZM73.5423 90.2188C73.7556 90.3351 73.9749 90.4454 74.1942 90.5556L72.8051 93.5198V91.5294L73.5423 90.2188ZM76.8993 84.3761L77.1978 83.8555V84.2046L77.1186 84.3761H76.8993ZM77.8253 85.5275H77.9167V85.3131L77.9655 85.209H78.1299V85.5275H78.2883L77.8558 86.7156L77.8253 85.5275ZM78.3736 85.1968H78.4224L78.3858 85.3009V85.209L78.3736 85.1968ZM78.5503 84.8477C78.5301 84.8194 78.5036 84.7964 78.4729 84.7804C78.4422 84.7645 78.4082 84.756 78.3736 84.7558H78.1909L79.848 81.2526L78.5503 84.8477ZM77.9411 81.467C77.9715 81.2377 77.9368 81.0044 77.8408 80.7941C77.7449 80.5839 77.5916 80.4052 77.3989 80.2789L81.3102 75.5998L81.2188 75.7896L77.9411 81.467ZM76.8871 79.991C76.63 79.8071 76.4209 79.5633 76.2778 79.2806C76.1176 79.6008 75.8677 79.8669 75.5589 80.0461C75.2612 80.1355 75.0037 80.3261 74.8303 80.5853C74.657 80.8445 74.5786 81.1561 74.6085 81.467H74.1333C74.0746 81.4686 74.0188 81.4932 73.9778 81.5355C73.9368 81.5778 73.9139 81.6345 73.914 81.6936C73.914 81.7521 73.9371 81.8081 73.9782 81.8495C74.0193 81.8908 74.0751 81.9141 74.1333 81.9141H74.7121V82.3183C74.7456 82.3773 74.7822 82.4345 74.8217 82.4898L71.0749 86.979H70.1184C69.6036 86.5043 69.1155 86.0013 68.6562 85.4723L80.8959 75.1466L76.8871 79.991ZM66.7249 62.9284C67.2008 62.1264 67.7321 61.3589 68.315 60.6317L80.5609 70.9575L66.7249 62.9284ZM80.244 71.4719L65.2322 65.96C65.5623 65.0862 65.9532 64.2369 66.4019 63.4183L80.244 71.4719ZM80.0491 72.0109L64.3061 69.2182C64.483 68.3009 64.7274 67.3981 65.0372 66.5173L80.0491 72.0109ZM79.9577 72.5682H63.965C63.9819 71.6343 64.0675 70.7029 64.2209 69.7816L79.9577 72.5682ZM79.9577 73.1439L64.2209 75.9305C64.0675 75.0092 63.9819 74.0778 63.965 73.1439H79.9577ZM53.3397 86.4768V85.601C53.7113 86.4768 54.1256 87.3281 54.5582 88.1671C54.4914 88.1284 54.416 88.1073 54.3389 88.1059H53.8027L53.7053 87.9037V86.4768H53.3397ZM54.3511 88.8898C54.4508 88.8918 54.5482 88.8586 54.6261 88.7959C54.704 88.7332 54.7576 88.6451 54.7775 88.5468C54.8385 88.6632 54.8994 88.7857 54.9664 88.902L54.4181 89.2205C54.3572 89.1103 54.3023 88.9939 54.2414 88.8898H54.3511ZM54.7044 89.7104L54.8202 89.6431L54.7532 89.8023C54.7653 89.7717 54.7166 89.7411 54.7044 89.7104ZM57.446 93.6913C57.1414 93.3116 56.8368 92.9196 56.5565 92.5277V91.6825H56.721C57.18 92.3399 57.6613 92.9768 58.165 93.5933L58.037 93.6974L57.446 93.6913ZM58.9752 93.6484L61.3147 91.6764H66.7371V92.1235L65.4211 93.6913H59.0301L58.9752 93.6484ZM66.7371 93.036V93.7158H66.1644L66.7371 93.036ZM64.7387 94.5426L64.1295 95.253H60.407C60.1755 95.0203 59.95 94.7815 59.7246 94.5426H64.7387ZM60.6933 97.1945V96.4106H60.7908L61.3208 96.9066V97.7579C61.1076 97.562 60.8944 97.3782 60.6933 97.1945ZM62.4479 96.4106H63.0572V96.5147L62.5028 97.1945L62.4479 97.1455V96.4106ZM64.8301 98.8603H64.5559L64.2026 98.597V96.4412H64.8118L64.8301 98.8603ZM63.0755 97.7212L62.9293 97.6048L63.0755 97.4333V97.7212ZM65.5125 94.5549H70.4534L70.0453 95.2653H64.9154L65.5125 94.5549ZM71.1114 94.5549H72.3299L71.9949 95.2653H70.6667L71.1114 94.5549ZM74.3648 92.9625L74.3039 94.512H73.8957C73.8375 94.512 73.7817 94.5352 73.7406 94.5766C73.6995 94.6179 73.6763 94.674 73.6763 94.7325C73.6763 94.7909 73.6995 94.847 73.7406 94.8884C73.7817 94.9297 73.8375 94.9529 73.8957 94.9529H73.8652V95.2714H74.1028V94.9529H74.2856V95.5654H73.1524L74.3648 92.9625ZM78.2396 94.9529H78.3858V95.2714H78.6295V94.9529C78.6877 94.9529 78.7435 94.9297 78.7846 94.8884C78.8258 94.847 78.8489 94.7909 78.8489 94.7325C78.8489 94.674 78.8258 94.6179 78.7846 94.5766C78.7435 94.5352 78.6877 94.512 78.6295 94.512H78.2274L78.1299 92.1112C78.5869 92.2337 79.0499 92.344 79.519 92.4358L78.398 98.7991L78.2396 94.9529ZM78.0995 91.5049L77.9655 88.2467L82.3825 76.0469L79.6104 91.8724C79.0682 91.7376 78.5625 91.6151 78.069 91.4682L78.0995 91.5049ZM81.8525 69.9102L73.8591 55.9956C74.6723 55.5422 75.5173 55.1492 76.3875 54.8197L81.8525 69.9102ZM76.9175 54.5992C77.7961 54.2885 78.6962 54.0428 79.6104 53.8642L82.3825 69.6897L76.9175 54.5992ZM81.359 70.1736L71.087 57.8635C71.8091 57.2776 72.5726 56.7454 73.3717 56.2711L81.359 70.1736ZM80.9264 70.541L68.6562 60.2091C69.264 59.5012 69.9217 58.838 70.624 58.2248L80.9264 70.541ZM68.2236 59.8356L58.9752 52.0331C60.0563 50.7595 61.2359 49.5738 62.5028 48.487L70.2646 57.7839C69.5349 58.4163 68.8528 59.1021 68.2236 59.8356ZM67.8519 60.2643C67.2454 61.0161 66.6955 61.8124 66.207 62.6467L55.7401 56.5712C56.5879 55.1293 57.5453 53.7554 58.6036 52.4618L67.8519 60.2643ZM65.9085 63.1366C65.4398 63.9818 65.0326 64.8598 64.69 65.764L53.3336 61.6055C53.9177 60.0389 54.6246 58.5214 55.4477 57.0673L65.9085 63.1366ZM64.5133 66.3091C64.1953 67.2227 63.9428 68.158 63.7578 69.1079L51.8653 67.0011C52.1657 65.3521 52.5976 63.73 53.1569 62.1506L64.5133 66.3091ZM63.6725 69.6714C63.5142 70.625 63.4266 71.5892 63.4106 72.556H51.8958C51.6338 72.2069 51.4206 71.9435 51.3536 71.8517C51.3956 70.4149 51.534 68.9826 51.7679 67.5646L63.6725 69.6714ZM51.2073 78.2455L50.8967 78.3007V77.5106C50.8971 77.448 50.9115 77.3863 50.939 77.3301C50.9664 77.2739 51.0061 77.2247 51.055 77.186C51.1099 77.5229 51.1099 77.8781 51.1952 78.2088L51.2073 78.2455ZM51.8653 81.3077C51.9263 81.5466 51.9994 81.7855 52.0664 82.0182H51.4084C51.3414 81.7855 51.2744 81.5466 51.2134 81.3077H51.8653ZM51.0185 88.9265L51.0733 90.182H50.659L50.525 88.9265H51.0185ZM51.4815 94.9407V96.2023H51.2073V94.9407H51.4815ZM52.7426 88.9265H52.9376C52.9864 89.0184 53.0351 89.1225 53.0838 89.2205C52.9557 89.1748 52.8229 89.1439 52.6878 89.1286L52.7426 88.9265ZM53.62 94.9407H53.9246L53.6809 96.2023H53.4067L53.62 94.9407ZM53.8941 94.1629V91.4314C53.9864 91.2701 54.0503 91.094 54.083 90.9108C54.2719 91.217 54.479 91.5233 54.6922 91.8111V94.1323L53.8941 94.1629ZM55.7219 94.1629C55.806 94.1641 55.889 94.1829 55.9655 94.218C55.7697 94.2312 55.5788 94.2855 55.4051 94.3772C55.3502 94.3073 55.2797 94.2514 55.1992 94.2141C55.1187 94.1768 55.0306 94.1593 54.942 94.1629H55.7219ZM58.1589 94.5549H59.0057C59.219 94.7937 59.4322 95.0326 59.6576 95.2653H58.7925C58.5549 94.9958 58.3416 94.7447 58.1345 94.5181L58.1589 94.5549ZM58.957 97.1026C59.1641 97.3108 59.3773 97.5068 59.5662 97.7151V98.8665H58.957V97.1026ZM64.7083 105.677H63.6177V104.789H64.4889L64.5376 104.832C64.6048 105.104 64.6537 105.38 64.6839 105.658L64.7083 105.677ZM64.0015 103.643H63.6177V102.976C63.7636 103.151 63.8921 103.339 64.0015 103.539V103.643ZM64.0015 103.772C64.0266 104.1 64.1547 104.411 64.3671 104.66H63.6177V103.772H64.0015ZM62.6063 105.677V104.789H63.4898V105.677H62.6063ZM63.4898 105.805V106.828H62.6063V105.769L63.4898 105.805ZM62.6063 104.66V103.772H63.4898V104.66H62.6063ZM62.6063 103.643V102.755H63.4288L63.4898 102.823V103.643H62.6063ZM62.6063 102.627V102.094C62.8561 102.251 63.0889 102.434 63.3009 102.639L62.6063 102.627ZM61.6011 103.643V102.755H62.4784V103.643H61.6011ZM62.4784 103.772V104.66H61.6011V103.772H62.4784ZM61.6011 102.627V101.629C61.9077 101.719 62.2023 101.847 62.4784 102.008V102.621L61.6011 102.627ZM61.6011 104.789H62.4784V105.677H61.6011V104.789ZM63.6177 106.828V105.769H64.7205C64.7656 106.108 64.788 106.449 64.7875 106.791L63.6177 106.828ZM65.5917 100.257C65.9694 100.502 66.3471 100.741 66.731 100.973L66.4202 101.518C66.14 101.353 65.8658 101.181 65.5917 101.01V100.257ZM65.9938 99.8463V99.5953H66.341V98.8542H65.9877V96.4044H66.5969V98.8542H66.8954V100.391L65.9938 99.8463ZM71.2211 96.4351H71.4343L71.2211 96.8821V96.4351ZM72.3786 98.8848C73.0732 98.8848 72.9879 97.96 72.9879 97.96C73.0698 97.943 73.1467 97.9071 73.2125 97.8551C73.2783 97.8032 73.3313 97.7367 73.3673 97.6608C73.4033 97.5849 73.4213 97.5016 73.42 97.4175C73.4186 97.3335 73.398 97.2508 73.3596 97.1761C73.5319 97.1576 73.6907 97.0739 73.8038 96.9419C73.917 96.81 73.976 96.6397 73.9688 96.4657L74.2551 96.1043L74.2186 96.9985L72.4274 101.941L72.3786 98.8848ZM74.0967 98.8848L73.9262 103.135H73.652C73.5938 103.135 73.538 103.158 73.4969 103.2C73.4557 103.241 73.4327 103.297 73.4327 103.356C73.4298 103.378 73.4298 103.401 73.4327 103.423L72.5432 103.123L74.0967 98.8848ZM78.6234 105.156C80.0366 105.357 81.4611 105.465 82.8881 105.481V106.093C81.4612 106.08 80.0366 105.974 78.6234 105.775V105.156ZM78.6234 104.574L78.5808 103.533H78.6661V103.846H78.9098V103.533C78.9679 103.533 79.0238 103.51 79.0649 103.469C79.106 103.427 79.1291 103.371 79.1291 103.313C79.1291 103.254 79.106 103.198 79.0649 103.157C79.0238 103.116 78.9679 103.092 78.9098 103.092H78.526L78.4589 101.451L80.0308 92.5093C80.9795 92.6685 81.9387 92.7565 82.9003 92.7727V104.911C81.4599 104.888 80.0228 104.765 78.5991 104.544L78.6234 104.574ZM80.1648 91.9459L82.9369 76.1265V92.2031C81.9993 92.1759 81.0648 92.0818 80.1405 91.9214L80.1648 91.9459ZM80.1648 53.7908C81.0817 53.6397 82.008 53.5537 82.9369 53.5335V69.6101L80.1648 53.7908ZM80.0674 53.2273L77.9167 41.2357C79.56 40.9602 81.2222 40.8148 82.8881 40.8009V52.9395C81.9348 52.9598 80.984 53.0478 80.043 53.2028L80.0674 53.2273ZM79.5068 53.3131C78.5619 53.499 77.6314 53.7528 76.7226 54.0725L72.5858 42.6566C74.156 42.0979 75.7673 41.6638 77.4049 41.3582L79.5068 53.3131ZM77.1978 40.1701L77.3075 40.7825C75.636 41.0905 73.9919 41.5329 72.3908 42.1054L72.1776 41.4929C73.806 40.9156 75.4762 40.4651 77.1734 40.1456L77.1978 40.1701ZM76.1864 54.2562C75.2844 54.5993 74.4088 55.0087 73.5667 55.4811L67.5352 44.9716C68.9803 44.1397 70.49 43.427 72.0497 42.8403L76.1864 54.2562ZM71.6415 41.7012L71.8547 42.3136C70.2656 42.9171 68.7257 43.6441 67.2488 44.4878L66.932 43.9366C68.4324 43.0663 69.999 42.3168 71.6171 41.695L71.6415 41.7012ZM67.0417 45.2472L73.0427 55.7628C72.2129 56.2539 71.4207 56.8066 70.6728 57.4164L62.9293 48.1195C64.2151 47.0543 65.582 46.0918 67.0173 45.2411L67.0417 45.2472ZM66.4324 44.2061L66.7431 44.7572C65.281 45.6236 63.8878 46.6023 62.5759 47.6847L62.1738 47.2009C63.5084 46.0897 64.9283 45.0863 66.4202 44.1999L66.4324 44.2061ZM61.7412 47.5745L62.1494 48.0644C60.8582 49.1737 59.6544 50.3817 58.5488 51.6778L58.0675 51.2675C59.1924 49.9481 60.4165 48.7175 61.729 47.5867L61.7412 47.5745ZM57.6958 51.7023L58.1771 52.1065C57.099 53.4279 56.1234 54.8304 55.2588 56.3018L54.7166 55.9833C55.5916 54.4779 56.5837 53.0444 57.6836 51.6962L57.6958 51.7023ZM54.4303 56.4794L54.9786 56.7917C54.1392 58.2785 53.4161 59.8285 52.8158 61.4279L52.2065 61.2074C52.8165 59.5724 53.5561 57.9893 54.4181 56.4733L54.4303 56.4794ZM52.0298 61.7464L52.6391 61.9607C52.0752 63.5719 51.6352 65.2242 51.3231 66.9031L50.7138 66.7929C51.0153 65.0768 51.4513 63.3873 52.0176 61.7402L52.0298 61.7464ZM50.5859 67.3563L51.1952 67.4666C50.917 69.1511 50.7683 70.8546 50.7504 72.5621H50.1412C50.1487 70.8161 50.2933 69.0733 50.5737 67.3502L50.5859 67.3563ZM50.3605 73.1378L50.1412 73.4624C50.1412 73.3521 50.1412 73.248 50.1412 73.1378H50.3605ZM32.3756 94.1323H31.7237V90.1514H32.3756V94.1323ZM34.5079 94.1323H33.8499V90.1514H34.5079V94.1323ZM36.6403 94.1323H35.9823V90.1514H36.6403V94.1323ZM38.7665 94.1323H38.1146V90.1514H38.7665V94.1323ZM40.8989 94.1323H40.2409V90.1514H40.8989V94.1323ZM43.0313 94.1323H42.3733V90.1514H43.0313V94.1323ZM45.1575 94.1323H44.5056V90.1514H45.1575V94.1323ZM46.2359 87.4873H32.7837V83.7698H46.2359V87.4873ZM47.2899 94.1323H46.638V90.1514H47.2899V94.1323ZM47.034 88.5039C47.0356 88.3994 47.0781 88.2997 47.1522 88.2264C47.2262 88.1531 47.3261 88.112 47.43 88.112H48.0027V86.4768H48.3439V83.0532L48.0088 82.5204L47.6859 81.9814H48.3439V81.271H48.2342C48.2022 81.2694 48.1708 81.2615 48.1418 81.2478C48.1129 81.234 48.0869 81.2146 48.0654 81.1907C48.0439 81.1668 48.0273 81.1389 48.0165 81.1085C48.0058 81.0782 48.0011 81.046 48.0027 81.0138C48.0011 80.9816 48.0058 80.9494 48.0165 80.919C48.0273 80.8887 48.0439 80.8608 48.0654 80.8369C48.0869 80.813 48.1129 80.7936 48.1418 80.7798C48.1708 80.766 48.2022 80.7581 48.2342 80.7566H48.3439V80.5667C48.4412 80.5758 48.5391 80.5758 48.6363 80.5667C48.8761 80.5203 49.1016 80.4174 49.2943 80.2666V80.7749H49.1725C49.1046 80.7749 49.0395 80.802 48.9915 80.8503C48.9435 80.8985 48.9166 80.9639 48.9166 81.0321C48.9166 81.1004 48.9435 81.1658 48.9915 81.214C49.0395 81.2623 49.1046 81.2894 49.1725 81.2894H50.0315L50.2143 81.9998H48.551L49.2943 83.0716V83.635C49.0344 83.7622 48.8152 83.9602 48.6619 84.2066C48.5086 84.453 48.4273 84.7377 48.4273 85.0283C48.4273 85.3189 48.5086 85.6037 48.6619 85.8501C48.8152 86.0964 49.0344 86.2945 49.2943 86.4216V86.4951H48.9166V88.1242H48.3074C48.2561 88.1242 48.2054 88.1344 48.1581 88.1541C48.1108 88.1738 48.0678 88.2026 48.0316 88.239C47.9954 88.2754 47.9667 88.3186 47.9471 88.3662C47.9275 88.4137 47.9174 88.4647 47.9174 88.5162C47.9174 88.5676 47.9275 88.6186 47.9471 88.6662C47.9667 88.7137 47.9954 88.757 48.0316 88.7934C48.0678 88.8298 48.1108 88.8586 48.1581 88.8783C48.2054 88.898 48.2561 88.9081 48.3074 88.9081H47.4544C47.3993 88.9116 47.3442 88.9034 47.2924 88.8842C47.2407 88.8649 47.1935 88.8351 47.1539 88.7964C47.1144 88.7578 47.0833 88.7113 47.0626 88.6599C47.042 88.6084 47.0322 88.5532 47.034 88.4978V88.5039ZM49.0263 94.9101L49.2395 96.1717H48.9592L48.7216 94.9101H49.0263ZM48.2891 88.8959H48.7886L49.2029 90.1514H48.7886L48.2891 88.8959ZM48.3439 96.1717L48.155 95.3878L48.0514 94.9652V94.9101H48.3561L48.6302 96.1717H48.3561H48.3439ZM49.6964 112.94H48.612V97.8988H49.6964V112.94ZM49.5807 96.1717L49.404 94.9101H49.7086L49.8548 96.1717H49.5807ZM49.7147 90.1514L49.404 88.8959H49.8914L50.1229 90.1514H49.7147ZM50.4823 94.9101H50.787L50.8357 96.1717H50.5555L50.4823 94.9101ZM51.8592 112.94H50.7748V97.8988H51.8592V112.94ZM52.0725 96.1717H51.7983L51.8471 94.9101H52.1517L52.0725 96.1717ZM52.9254 94.9101H53.23L53.0473 96.1717H52.7731L52.9254 94.9101ZM54.016 98.8297V112.916H52.9376V97.8988H54.016V98.8297ZM54.083 96.1717H54.0099L54.083 95.8532V96.1717ZM54.4424 95.5593H54.1561L54.2962 94.9468H54.7654C54.703 95.0483 54.6539 95.1574 54.6191 95.2714H54.4973L54.4424 95.5593ZM58.4208 106.81H57.0135C57.0135 106.442 57.0439 106.106 57.0805 105.787H58.4208V106.81ZM58.4208 105.658H57.0988C57.1382 105.359 57.1973 105.062 57.2754 104.77H58.4208V105.658ZM58.4208 104.642H57.3181C57.4063 104.336 57.5226 104.038 57.6654 103.754H58.4208V104.642ZM58.4208 103.625H57.7385C57.9027 103.304 58.1075 103.005 58.3477 102.737H58.4208V103.625ZM59.4322 106.81H58.5427V105.769H59.4261L59.4322 106.81ZM59.4322 105.658H58.5427V104.77H59.4261L59.4322 105.658ZM59.4322 104.642H58.5427V103.754H59.4261L59.4322 104.642ZM59.4322 103.625H58.5427V102.737H59.4261L59.4322 103.625ZM59.4322 102.608H58.5427V102.566C58.8084 102.322 59.1055 102.116 59.4261 101.953L59.4322 102.608ZM60.4435 106.81H59.5601V105.769H60.4435V106.81ZM60.4435 105.658H59.5601V104.77H60.4435V105.658ZM60.4435 104.642H59.5601V103.754H60.4435V104.642ZM60.4435 103.625H59.5601V102.737H60.4435V103.625ZM59.5601 102.608V101.861C59.776 101.757 60.0002 101.671 60.2303 101.604C60.3012 101.61 60.3726 101.61 60.4435 101.604V102.59L59.5601 102.608ZM61.4488 106.81H60.5715V105.769H61.4671L61.4488 106.81ZM61.4488 105.658H60.5715V104.77H61.4671L61.4488 105.658ZM61.4488 104.642H60.5715V103.754H61.4671L61.4488 104.642ZM61.4488 103.625H60.5715V102.737H61.4671L61.4488 103.625ZM61.4488 102.608H60.5715V101.622C60.7507 101.613 60.9264 101.569 61.0893 101.494C61.1807 101.494 61.3025 101.531 61.4488 101.573V102.608ZM61.5828 106.81V105.769H62.4601V106.791L61.5828 106.81ZM65.5978 108.764V105.156C65.8557 105.145 66.1066 105.068 66.3271 104.934C66.5476 104.799 66.7305 104.61 66.8589 104.385C66.8578 104.362 66.8578 104.34 66.8589 104.317V106.014L65.5978 108.764ZM72.3847 104.268V103.595C72.8843 103.772 73.3839 103.931 73.8896 104.084V104.74C73.3596 104.593 72.866 104.434 72.3786 104.268H72.3847ZM79.5738 112.322H78.922L78.7026 106.932C79.8668 107.087 81.0381 107.184 82.2119 107.22C82.0396 107.363 81.9006 107.543 81.8048 107.746C81.709 107.949 81.6587 108.171 81.6575 108.396C81.6442 108.608 81.6743 108.821 81.746 109.021C81.8176 109.221 81.9292 109.404 82.0739 109.559C82.2186 109.713 82.3933 109.837 82.5873 109.921C82.7814 110.006 82.9905 110.049 83.2019 110.049C83.4133 110.049 83.6225 110.006 83.8165 109.921C84.0105 109.837 84.1852 109.713 84.3299 109.559C84.4746 109.404 84.5863 109.221 84.6579 109.021C84.7295 108.821 84.7596 108.608 84.7464 108.396C84.7463 108.172 84.6971 107.95 84.6024 107.747C84.5076 107.544 84.3696 107.364 84.198 107.22C84.8073 107.22 85.4531 107.165 86.0745 107.11L85.8369 112.322H79.5738ZM89.931 112.322L89.8092 109.327C90.0914 109.237 90.3416 109.067 90.5295 108.837C90.7174 108.607 90.8349 108.328 90.8678 108.032C90.9007 107.736 90.8475 107.438 90.7148 107.172C90.582 106.906 90.3754 106.684 90.1199 106.534C91.2248 106.299 92.3168 106.007 93.3916 105.658V112.322H89.931ZM96.9435 112.322H94.3664V109.26C94.3461 108.7 94.4118 108.14 94.5613 107.6C94.7519 107.704 94.9625 107.766 95.179 107.782C95.3954 107.798 95.6127 107.767 95.8164 107.692C96.1023 107.591 96.3509 107.405 96.5292 107.159C96.7485 107.441 96.9496 107.973 96.9496 109.26L96.9435 112.322ZM95.8468 104.819H95.8164C96.1941 104.666 96.5718 104.495 96.9435 104.329V104.832L95.8468 104.819ZM97.9365 112.322V105.377L98.3996 106.363V112.322H97.9365ZM100.099 109.964L101.214 112.322H100.099V109.964ZM105.942 112.322V101.622C106.059 101.625 106.176 101.613 106.289 101.586V112.322H105.942ZM115.751 112.322H113.417V109.26C113.406 109.098 113.427 108.937 113.481 108.784C113.534 108.632 113.618 108.492 113.728 108.374C113.837 108.256 113.97 108.161 114.117 108.097C114.264 108.032 114.423 107.999 114.584 107.999C114.745 107.999 114.904 108.032 115.051 108.097C115.199 108.161 115.331 108.256 115.441 108.374C115.55 108.492 115.634 108.632 115.688 108.784C115.741 108.937 115.762 109.098 115.751 109.26V112.322ZM115.751 105.101H113.417V103.221C113.439 102.924 113.571 102.647 113.787 102.445C114.004 102.242 114.289 102.13 114.584 102.13C114.88 102.13 115.165 102.242 115.381 102.445C115.597 102.647 115.73 102.924 115.751 103.221V105.101ZM120.229 112.322H119.345V103.509C119.345 99.2217 115.593 99.6381 114.599 97.8804C113.6 99.6381 109.847 99.2217 109.847 103.509V112.322H108.952V96.3983C109.038 96.5939 109.167 96.7675 109.329 96.9066C109.485 97.0377 109.665 97.1366 109.858 97.1977C110.052 97.2587 110.255 97.2808 110.457 97.2626C110.659 97.2444 110.856 97.1863 111.036 97.0916C111.215 96.9968 111.375 96.8674 111.504 96.7106C111.668 96.5156 111.779 96.2815 111.827 96.0308H120.241L120.229 112.322ZM129.032 112.322H127.558V110.601C127.567 110.509 127.557 110.416 127.528 110.329C127.499 110.241 127.452 110.161 127.39 110.093C127.329 110.024 127.253 109.97 127.169 109.932C127.086 109.895 126.995 109.876 126.903 109.876C126.811 109.876 126.721 109.895 126.637 109.932C126.553 109.97 126.478 110.024 126.416 110.093C126.354 110.161 126.308 110.241 126.279 110.329C126.25 110.416 126.239 110.509 126.248 110.601V112.322H124.768V109.26C124.768 107.386 125.474 107.116 125.986 106.877C126.318 106.701 126.634 106.496 126.931 106.265C127.23 106.495 127.548 106.7 127.881 106.877C128.356 107.116 129.063 107.386 129.063 109.26L129.032 112.322ZM129.032 104.819H127.558V103.117C127.567 103.025 127.557 102.932 127.528 102.845C127.499 102.757 127.452 102.677 127.39 102.609C127.329 102.54 127.253 102.486 127.169 102.448C127.086 102.411 126.995 102.392 126.903 102.392C126.811 102.392 126.721 102.411 126.637 102.448C126.553 102.486 126.478 102.54 126.416 102.609C126.354 102.677 126.308 102.757 126.279 102.845C126.25 102.932 126.239 103.025 126.248 103.117V104.819H124.768V101.757C124.768 99.877 125.474 99.6075 125.986 99.3686C126.318 99.1921 126.634 98.9872 126.931 98.7562C127.23 98.9865 127.548 99.1913 127.881 99.3686C128.356 99.6075 129.063 99.877 129.063 101.757L129.032 104.819ZM134.778 112.322H132.194V109.26C132.194 107.386 132.621 107.116 132.913 106.877C133.121 106.69 133.313 106.485 133.486 106.265C133.658 106.486 133.849 106.691 134.059 106.877C134.345 107.116 134.778 107.386 134.778 109.26V112.322ZM134.778 104.819H132.194V101.757C132.194 99.877 132.621 99.6075 132.913 99.3686C133.121 99.181 133.313 98.9762 133.486 98.7562C133.658 98.9779 133.849 99.1829 134.059 99.3686C134.345 99.6075 134.778 99.877 134.778 101.757V104.819ZM141.132 91.0701H140.523V90.0534C140.518 89.9848 140.53 89.916 140.557 89.853C140.585 89.79 140.628 89.7348 140.681 89.6921C140.681 89.6498 140.698 89.6093 140.728 89.5795C140.757 89.5496 140.798 89.5328 140.84 89.5328C140.882 89.5328 140.922 89.5496 140.952 89.5795C140.981 89.6093 140.998 89.6498 140.998 89.6921C141.051 89.7355 141.093 89.7908 141.12 89.8536C141.148 89.9164 141.16 89.9849 141.156 90.0534L141.132 91.0701ZM141.985 91.0701H141.376V90.0534C141.371 89.9848 141.383 89.916 141.41 89.853C141.438 89.79 141.481 89.7348 141.534 89.6921C141.534 89.6498 141.551 89.6093 141.581 89.5795C141.61 89.5496 141.651 89.5328 141.693 89.5328C141.735 89.5328 141.775 89.5496 141.805 89.5795C141.834 89.6093 141.851 89.6498 141.851 89.6921C141.904 89.7355 141.946 89.7908 141.973 89.8536C142.001 89.9164 142.013 89.9849 142.009 90.0534L141.985 91.0701ZM152.769 84.4006H151.934V83.0471C151.928 82.956 151.944 82.8648 151.981 82.7815C152.019 82.6982 152.076 82.6254 152.147 82.5694C152.224 82.495 152.294 82.4129 152.354 82.3244C152.412 82.4149 152.482 82.4972 152.562 82.5694C152.632 82.626 152.688 82.6991 152.724 82.7824C152.76 82.8656 152.775 82.9565 152.769 83.0471V84.4006ZM153.89 84.4006H153.055V83.0471C153.05 82.9567 153.066 82.8663 153.102 82.7833C153.138 82.7003 153.193 82.627 153.262 82.5694C153.342 82.4959 153.414 82.4138 153.475 82.3244C153.533 82.4149 153.603 82.4972 153.683 82.5694C153.753 82.626 153.809 82.6991 153.845 82.7824C153.881 82.8656 153.897 82.9565 153.89 83.0471V84.4006ZM160.628 83.4819C160.989 83.4819 161.343 83.5897 161.643 83.7916C161.944 83.9935 162.178 84.2804 162.317 84.6161C162.455 84.9519 162.491 85.3213 162.421 85.6777C162.35 86.0341 162.176 86.3615 161.92 86.6184C161.665 86.8754 161.339 87.0504 160.985 87.1213C160.63 87.1922 160.262 87.1558 159.929 87.0167C159.595 86.8777 159.309 86.6421 159.108 86.34C158.907 86.0379 158.8 85.6826 158.8 85.3192C158.798 85.0764 158.843 84.8355 158.934 84.6105C159.025 84.3854 159.159 84.1807 159.329 84.0082C159.499 83.8356 159.701 83.6986 159.924 83.6051C160.147 83.5117 160.386 83.4635 160.628 83.4635V83.4819ZM154.883 94.5059L154.791 92.1602L154.907 92.2949L154.883 94.5059ZM154.755 91.7805V91.2661H156.162L156.375 91.7805H154.755ZM154.609 85.552V85.2335H154.822V85.552H154.889V90.7577H154.682L154.475 85.552H154.609ZM164.667 112.101H156.826V99.6749H164.661L164.667 112.101ZM164.667 97.6293H156.826V92.2949H164.661L164.667 97.6293ZM164.667 90.7577H156.826V88.5591H164.661L164.667 90.7577ZM165.039 88.0813H156.351L156.138 87.5669H165.277L165.039 88.0813Z" fill="#1FC0E8"/>
<path d="M198.212 91.2354V90.7271H197.524V82.8143H185.808V90.7271H185.199V91.2354H187.142L187.349 91.7499H185.412L185.784 92.2643V97.5987H185.174L185.388 98.1131L185.759 98.6214V99.1604H185.388V99.6748H185.759V117.883H187.697V113.406H195.532V117.883H197.475V99.6748H197.95V99.1604H197.475V98.6214L197.95 98.1131L198.163 97.5987H197.475V92.2949L197.95 91.7805H196.013L196.22 91.266L198.212 91.2354ZM191.779 83.4635C192.14 83.4635 192.493 83.5713 192.794 83.7732C193.095 83.9751 193.329 84.262 193.467 84.5977C193.605 84.9335 193.642 85.3029 193.571 85.6593C193.501 86.0157 193.327 86.3431 193.071 86.6C192.815 86.857 192.49 87.032 192.135 87.1029C191.781 87.1738 191.413 87.1374 191.079 86.9983C190.745 86.8592 190.46 86.6238 190.259 86.3216C190.058 86.0195 189.951 85.6642 189.951 85.3008C189.951 84.8136 190.143 84.3462 190.486 84.0017C190.829 83.6571 191.294 83.4635 191.779 83.4635ZM195.58 112.071H187.745V99.6748H195.58V112.071ZM195.58 97.5987H187.745V92.2949H195.58V97.5987ZM195.58 90.7271H187.745V88.559H195.58V90.7271ZM187.374 88.0507L187.166 87.5363H196.269L196.062 88.0507H187.374Z" fill="#1FC0E8"/>
<path d="M194.349 93.379H188.982V96.1594H194.349V93.379Z" fill="#1FC0E8"/>
<path d="M194.349 89.0061H188.982V90.1391H194.349V89.0061Z" fill="#1FC0E8"/>
<path d="M191.778 86.6605C192.044 86.6593 192.304 86.5789 192.525 86.4294C192.745 86.28 192.917 86.0681 193.018 85.8207C193.119 85.5733 193.145 85.3013 193.092 85.0392C193.039 84.777 192.911 84.5365 192.722 84.3478C192.534 84.1591 192.294 84.0308 192.033 83.9791C191.772 83.9273 191.501 83.9545 191.256 84.0571C191.01 84.1597 190.8 84.3332 190.652 84.5557C190.505 84.7781 190.426 85.0395 190.426 85.307C190.426 85.4852 190.461 85.6618 190.529 85.8264C190.597 85.991 190.697 86.1405 190.822 86.2662C190.948 86.392 191.097 86.4916 191.261 86.5592C191.425 86.6269 191.601 86.6613 191.778 86.6605Z" fill="#1FC0E8"/>
<path d="M176.852 84.1556H176.712L176.59 85.3805H175.865L175.743 84.1556H175.603L175.548 83.6534H167.512V90.7271H167.957V91.2109L167.719 91.7743H167.866L167.512 92.2643V97.5987H168.121L167.908 98.1131L167.537 98.6214V99.1604H167.908V99.6748H167.537V117.883H169.169V92.2582L169.504 91.6457H169.37C169.558 90.1367 170.287 88.7484 171.422 87.7423C172.556 86.7362 174.017 86.1815 175.53 86.1827H176.931C178.444 86.1815 179.905 86.7362 181.039 87.7423C182.174 88.7484 182.903 90.1367 183.091 91.6457H182.957L183.292 92.2582C183.292 92.3133 183.292 92.3684 183.292 92.4297V117.883H184.918V99.6748H184.535V99.1604H184.906V98.6214L184.535 98.1131L184.327 97.5987H184.906V92.2949L184.583 91.805H184.699L184.468 91.2415V90.7577H184.906V83.6534H176.913L176.852 84.1556ZM176.968 84.4373C178.728 84.4137 180.436 85.0415 181.766 86.2012C183.096 87.361 183.956 88.9717 184.181 90.7271V91.266L184.273 91.4926H183.316C183.084 89.9614 182.33 88.5587 181.184 87.524C180.008 86.4753 178.491 85.8938 176.919 85.8888H175.518C173.945 85.8916 172.428 86.4733 171.253 87.524C170.103 88.5565 169.346 89.96 169.115 91.4926H168.17L168.268 91.266V90.7271C168.492 88.9722 169.35 87.3616 170.679 86.2017C172.008 85.0419 173.715 84.4139 175.475 84.4373H175.518L175.64 85.6316H176.858L176.98 84.4373H176.968Z" fill="#1FC0E8"/>
<path d="M6.54337 117.27C5.58249 111.723 5.0994 106.102 5.09946 100.471C5.09946 46.7599 48.5692 3.09281 101.97 3.09281C155.37 3.09281 198.84 46.7905 198.84 100.502C198.84 106.133 198.357 111.753 197.396 117.301H200.485C201.419 111.75 201.887 106.131 201.886 100.502C201.886 45.1063 157.052 0.0612183 101.97 0.0612183C46.8877 0.0612183 2.05323 45.1369 2.05323 100.532C2.05178 106.162 2.52054 111.781 3.45452 117.332L6.54337 117.27Z" fill="#1FC0E8"/>
</g>
<defs>
<clipPath id="clip0_98_1195">
<rect width="204" height="178" fill="white"/>
</clipPath>
</defs>
</svg>
